[{"time_played": 0.0234375, "midi_note": 76, "frequency": 659.25, "note_held": 0.015625, "velocity": 80, "channel": 0}, {"time_played": 0.23177083333333331, "midi_note": 75, "frequency": 622.25, "note_held": 0.2421875, "velocity": 82, "channel": 0}, {"time_played": 0.4895833333333333, "midi_note": 76, "frequency": 659.25, "note_held": 0.015625, "velocity": 66, "channel": 0}, {"time_played": 0.7473958333333333, "midi_note": 75, "frequency": 622.25, "note_held": 0.2578125, "velocity": 71, "channel": 0}, {"time_played": 1.0078125, "midi_note": 76, "frequency": 659.25, "note_held": 0.018229166666666664, "velocity": 84, "channel": 0}, {"time_played": 1.2890625, "midi_note": 71, "frequency": 493.88, "note_held": 0.0234375, "velocity": 89, "channel": 0}, {"time_played": 1.4817708333333333, "midi_note": 74, "frequency": 587.33, "note_held": 0.19270833333333331, "velocity": 100, "channel": 0}, {"time_played": 1.7239583333333333, "midi_note": 72, "frequency": 523.25, "note_held": 0.018229166666666664, "velocity": 100, "channel": 0}, {"time_played": 1.9973958333333333, "midi_note": 69, "frequency": 440, "note_held": 0.0234375, "velocity": 100, "channel": 0}, {"time_played": 2.0078125, "midi_note": 45, "frequency": 110, "note_held": 0.010416666666666666, "velocity": 100, "channel": 0}, {"time_played": 2.2473958333333335, "midi_note": 52, "frequency": 164.81, "note_held": 0.2421875, "velocity": 100, "channel": 0}, {"time_played": 2.4895833333333335, "midi_note": 57, "frequency": 220, "note_held": 0.25, "velocity": 100, "channel": 0}, {"time_played": 2.744791666666667, "midi_note": 60, "frequency": 261.63, "note_held": 0.005208333333333333, "velocity": 100, "channel": 0}, {"time_played": 2.9895833333333335, "midi_note": 64, "frequency": 329.63, "note_held": 0.2682291666666665, "velocity": 100, "channel": 0}, {"time_played": 3.2578125, "midi_note": 69, "frequency": 440, "note_held": 0.23177083333333348, "velocity": 100, "channel": 0}, {"time_played": 3.4817708333333335, "midi_note": 40, "frequency": 82.41, "note_held": 0.22395833333333331, "velocity": 100, "channel": 0}, {"time_played": 3.4895833333333335, "midi_note": 71, "frequency": 493.88, "note_held": 0.5078125, "velocity": 100, "channel": 0}, {"time_played": 3.7317708333333335, "midi_note": 52, "frequency": 164.81, "note_held": 0.2578125, "velocity": 100, "channel": 0}, {"time_played": 3.9973958333333335, "midi_note": 56, "frequency": 207.65, "note_held": 0.2682291666666665, "velocity": 100, "channel": 0}, {"time_played": 4.265625, "midi_note": 64, "frequency": 329.63, "note_held": 0.22395833333333304, "velocity": 100, "channel": 0}, {"time_played": 4.489583333333333, "midi_note": 68, "frequency": 415.3, "note_held": 0.25, "velocity": 100, "channel": 0}, {"time_played": 4.765625, "midi_note": 71, "frequency": 493.88, "note_held": 0.026041666666666664, "velocity": 100, "channel": 0}, {"time_played": 4.981770833333333, "midi_note": 45, "frequency": 110, "note_held": 0.2421875, "velocity": 100, "channel": 0}, {"time_played": 4.989583333333333, "midi_note": 72, "frequency": 523.25, "note_held": 0.0078125, "velocity": 100, "channel": 0}, {"time_played": 5.223958333333333, "midi_note": 52, "frequency": 164.81, "note_held": 0.265625, "velocity": 100, "channel": 0}, {"time_played": 5.497395833333333, "midi_note": 57, "frequency": 220, "note_held": 0.0078125, "velocity": 100, "channel": 0}, {"time_played": 5.739583333333333, "midi_note": 64, "frequency": 329.63, "note_held": 0.2421875, "velocity": 100, "channel": 0}, {"time_played": 5.9921875, "midi_note": 76, "frequency": 659.25, "note_held": 0.0026041666666666665, "velocity": 100, "channel": 0}, {"time_played": 6.2421875, "midi_note": 75, "frequency": 622.25, "note_held": 0.25, "velocity": 100, "channel": 0}, {"time_played": 6.4921875, "midi_note": 76, "frequency": 659.25, "note_held": 0.2578125, "velocity": 100, "channel": 0}, {"time_played": 6.7578125, "midi_note": 75, "frequency": 622.25, "note_held": 0.0078125, "velocity": 100, "channel": 0}, {"time_played": 6.9921875, "midi_note": 76, "frequency": 659.25, "note_held": 0.234375, "velocity": 100, "channel": 0}, {"time_played": 7.2421875, "midi_note": 71, "frequency": 493.88, "note_held": 0.2421875, "velocity": 100, "channel": 0}, {"time_played": 7.5, "midi_note": 74, "frequency": 587.33, "note_held": 0.015625, "velocity": 100, "channel": 0}, {"time_played": 7.716145833333333, "midi_note": 72, "frequency": 523.25, "note_held": 0.0078125, "velocity": 100, "channel": 0}, {"time_played": 8.0, "midi_note": 69, "frequency": 440, "note_held": 0.015625, "velocity": 100, "channel": 0}, {"time_played": 8.0078125, "midi_note": 45, "frequency": 110, "note_held": 0.0078125, "velocity": 100, "channel": 0}, {"time_played": 8.234375, "midi_note": 52, "frequency": 164.81, "note_held": 0.28125, "velocity": 100, "channel": 0}, {"time_played": 8.484375, "midi_note": 57, "frequency": 220, "note_held": 0.25, "velocity": 100, "channel": 0}, {"time_played": 8.7578125, "midi_note": 60, "frequency": 261.63, "note_held": 0.0234375, "velocity": 100, "channel": 0}, {"time_played": 9.0, "midi_note": 64, "frequency": 329.63, "note_held": 0.2421875, "velocity": 100, "channel": 0}, {"time_played": 9.25, "midi_note": 69, "frequency": 440, "note_held": 0.0078125, "velocity": 100, "channel": 0}, {"time_played": 9.481770833333334, "midi_note": 40, "frequency": 82.41, "note_held": 0.25, "velocity": 100, "channel": 0}, {"time_played": 9.4921875, "midi_note": 71, "frequency": 493.88, "note_held": 0.010416666666666666, "velocity": 100, "channel": 0}, {"time_played": 9.744791666666668, "midi_note": 52, "frequency": 164.81, "note_held": 0.013020833333333332, "velocity": 100, "channel": 0}, {"time_played": 10.0, "midi_note": 56, "frequency": 207.65, "note_held": 0.018229166666666664, "velocity": 100, "channel": 0}, {"time_played": 10.25, "midi_note": 64, "frequency": 329.63, "note_held": 0.2421875, "velocity": 100, "channel": 0}, {"time_played": 10.5, "midi_note": 72, "frequency": 523.25, "note_held": 0.0078125, "velocity": 100, "channel": 0}, {"time_played": 10.7578125, "midi_note": 71, "frequency": 493.88, "note_held": 0.22395833333333393, "velocity": 100, "channel": 0}, {"time_played": 10.989583333333334, "midi_note": 45, "frequency": 110, "note_held": 0.0078125, "velocity": 100, "channel": 0}, {"time_played": 10.9921875, "midi_note": 69, "frequency": 440, "note_held": 0.0026041666666666665, "velocity": 100, "channel": 0}, {"time_played": 11.223958333333334, "midi_note": 52, "frequency": 164.81, "note_held": 0.23177083333333331, "velocity": 100, "channel": 0}, {"time_played": 11.489583333333334, "midi_note": 57, "frequency": 220, "note_held": 0.0078125, "velocity": 100, "channel": 0}, {"time_played": 11.744791666666668, "midi_note": 64, "frequency": 329.63, "note_held": 0.2552083333333333, "velocity": 100, "channel": 0}, {"time_played": 12.0, "midi_note": 76, "frequency": 659.25, "note_held": 0.026041666666666664, "velocity": 100, "channel": 0}, {"time_played": 12.208333333333334, "midi_note": 75, "frequency": 622.25, "note_held": 0.20833333333333331, "velocity": 100, "channel": 0}, {"time_played": 12.466145833333334, "midi_note": 76, "frequency": 659.25, "note_held": 0.015625, "velocity": 100, "channel": 0}, {"time_played": 12.723958333333334, "midi_note": 75, "frequency": 622.25, "note_held": 0.2578125, "velocity": 100, "channel": 0}, {"time_played": 12.984375, "midi_note": 76, "frequency": 659.25, "note_held": 0.018229166666666664, "velocity": 100, "channel": 0}, {"time_played": 13.265625, "midi_note": 71, "frequency": 493.88, "note_held": 0.0234375, "velocity": 100, "channel": 0}, {"time_played": 13.458333333333334, "midi_note": 74, "frequency": 587.33, "note_held": 0.19270833333333331, "velocity": 100, "channel": 0}, {"time_played": 13.700520833333334, "midi_note": 72, "frequency": 523.25, "note_held": 0.018229166666666664, "velocity": 100, "channel": 0}, {"time_played": 13.973958333333334, "midi_note": 69, "frequency": 440, "note_held": 0.0234375, "velocity": 100, "channel": 0}, {"time_played": 13.984375, "midi_note": 45, "frequency": 110, "note_held": 0.010416666666666666, "velocity": 100, "channel": 0}, {"time_played": 14.223958333333334, "midi_note": 52, "frequency": 164.81, "note_held": 0.23958333333333331, "velocity": 100, "channel": 0}, {"time_played": 14.466145833333334, "midi_note": 57, "frequency": 220, "note_held": 0.2421875, "velocity": 100, "channel": 0}, {"time_played": 14.721354166666668, "midi_note": 60, "frequency": 261.63, "note_held": 0.005208333333333333, "velocity": 100, "channel": 0}, {"time_played": 14.966145833333334, "midi_note": 64, "frequency": 329.63, "note_held": 0.24479166666666666, "velocity": 100, "channel": 0}, {"time_played": 15.234375, "midi_note": 69, "frequency": 440, "note_held": 0.26822916666666663, "velocity": 100, "channel": 0}, {"time_played": 15.458333333333334, "midi_note": 40, "frequency": 82.41, "note_held": 0.22395833333333331, "velocity": 100, "channel": 0}, {"time_played": 15.466145833333334, "midi_note": 71, "frequency": 493.88, "note_held": 0.0078125, "velocity": 100, "channel": 0}, {"time_played": 15.708333333333334, "midi_note": 52, "frequency": 164.81, "note_held": 0.2421875, "velocity": 100, "channel": 0}, {"time_played": 15.973958333333334, "midi_note": 56, "frequency": 207.65, "note_held": 0.0078125, "velocity": 100, "channel": 0}, {"time_played": 16.2421875, "midi_note": 64, "frequency": 329.63, "note_held": 0.26822916666666663, "velocity": 100, "channel": 0}, {"time_played": 16.466145833333332, "midi_note": 68, "frequency": 415.3, "note_held": 0.22395833333333331, "velocity": 100, "channel": 0}, {"time_played": 16.7421875, "midi_note": 71, "frequency": 493.88, "note_held": 0.026041666666666664, "velocity": 100, "channel": 0}, {"time_played": 16.958333333333332, "midi_note": 45, "frequency": 110, "note_held": 0.21614583333333331, "velocity": 100, "channel": 0}, {"time_played": 16.966145833333332, "midi_note": 72, "frequency": 523.25, "note_held": 0.0078125, "velocity": 100, "channel": 0}, {"time_played": 17.200520833333332, "midi_note": 52, "frequency": 164.81, "note_held": 0.234375, "velocity": 100, "channel": 0}, {"time_played": 17.473958333333332, "midi_note": 57, "frequency": 220, "note_held": 0.0078125, "velocity": 100, "channel": 0}, {"time_played": 17.716145833333332, "midi_note": 64, "frequency": 329.63, "note_held": 0.2421875, "velocity": 100, "channel": 0}, {"time_played": 17.96875, "midi_note": 76, "frequency": 659.25, "note_held": 0.0026041666666666665, "velocity": 100, "channel": 0}, {"time_played": 18.21875, "midi_note": 75, "frequency": 622.25, "note_held": 0.25, "velocity": 100, "channel": 0}, {"time_played": 18.46875, "midi_note": 76, "frequency": 659.25, "note_held": 0.25, "velocity": 100, "channel": 0}, {"time_played": 18.734375, "midi_note": 75, "frequency": 622.25, "note_held": 0.0078125, "velocity": 100, "channel": 0}, {"time_played": 18.96875, "midi_note": 76, "frequency": 659.25, "note_held": 0.234375, "velocity": 100, "channel": 0}, {"time_played": 19.21875, "midi_note": 71, "frequency": 493.88, "note_held": 0.2421875, "velocity": 100, "channel": 0}, {"time_played": 19.4765625, "midi_note": 74, "frequency": 587.33, "note_held": 0.015625, "velocity": 100, "channel": 0}, {"time_played": 19.692708333333332, "midi_note": 72, "frequency": 523.25, "note_held": 0.0078125, "velocity": 100, "channel": 0}, {"time_played": 19.9765625, "midi_note": 69, "frequency": 440, "note_held": 0.015625, "velocity": 100, "channel": 0}, {"time_played": 19.984375, "midi_note": 45, "frequency": 110, "note_held": 0.0078125, "velocity": 100, "channel": 0}, {"time_played": 20.2109375, "midi_note": 52, "frequency": 164.81, "note_held": 0.2265625, "velocity": 100, "channel": 0}, {"time_played": 20.4609375, "midi_note": 57, "frequency": 220, "note_held": 0.25, "velocity": 100, "channel": 0}, {"time_played": 20.734375, "midi_note": 60, "frequency": 261.63, "note_held": 0.0234375, "velocity": 100, "channel": 0}, {"time_played": 20.9765625, "midi_note": 64, "frequency": 329.63, "note_held": 0.2421875, "velocity": 100, "channel": 0}, {"time_played": 21.2265625, "midi_note": 69, "frequency": 440, "note_held": 0.0078125, "velocity": 100, "channel": 0}, {"time_played": 21.458333333333332, "midi_note": 40, "frequency": 82.41, "note_held": 0.23177083333333331, "velocity": 100, "channel": 0}, {"time_played": 21.46875, "midi_note": 71, "frequency": 493.88, "note_held": 0.010416666666666666, "velocity": 100, "channel": 0}, {"time_played": 21.721354166666664, "midi_note": 52, "frequency": 164.81, "note_held": 0.013020833333333332, "velocity": 100, "channel": 0}, {"time_played": 21.9765625, "midi_note": 56, "frequency": 207.65, "note_held": 0.018229166666666664, "velocity": 100, "channel": 0}, {"time_played": 22.2265625, "midi_note": 64, "frequency": 329.63, "note_held": 0.25, "velocity": 100, "channel": 0}, {"time_played": 22.4765625, "midi_note": 72, "frequency": 523.25, "note_held": 0.0078125, "velocity": 100, "channel": 0}, {"time_played": 22.734375, "midi_note": 71, "frequency": 493.88, "note_held": 0.2578125, "velocity": 100, "channel": 0}, {"time_played": 22.966145833333332, "midi_note": 45, "frequency": 110, "note_held": 0.0078125, "velocity": 100, "channel": 0}, {"time_played": 22.96875, "midi_note": 69, "frequency": 440, "note_held": 0.0026041666666666665, "velocity": 100, "channel": 0}, {"time_played": 23.200520833333332, "midi_note": 52, "frequency": 164.81, "note_held": 0.23177083333333331, "velocity": 100, "channel": 0}, {"time_played": 23.466145833333332, "midi_note": 57, "frequency": 220, "note_held": 0.0078125, "velocity": 100, "channel": 0}, {"time_played": 23.752604166666664, "midi_note": 71, "frequency": 493.88, "note_held": 0.028645833333333332, "velocity": 100, "channel": 0}, {"time_played": 23.997395833333332, "midi_note": 72, "frequency": 523.25, "note_held": 0.010416666666666666, "velocity": 100, "channel": 0}, {"time_played": 24.265624999999996, "midi_note": 74, "frequency": 587.33, "note_held": 0.013020833333333332, "velocity": 100, "channel": 0}, {"time_played": 24.49739583333333, "midi_note": 76, "frequency": 659.25, "note_held": 0.5, "velocity": 100, "channel": 0}, {"time_played": 24.50520833333333, "midi_note": 48, "frequency": 130.81, "note_held": 0.0078125, "velocity": 100, "channel": 0}, {"time_played": 24.72395833333333, "midi_note": 55, "frequency": 196, "note_held": 0.21875, "velocity": 100, "channel": 0}, {"time_played": 24.992187499999996, "midi_note": 60, "frequency": 261.63, "note_held": 0.015625, "velocity": 100, "channel": 0}, {"time_played": 25.24739583333333, "midi_note": 67, "frequency": 392, "note_held": 0.010416666666666666, "velocity": 100, "channel": 0}, {"time_played": 25.51302083333333, "midi_note": 77, "frequency": 698.46, "note_held": 0.026041666666666664, "velocity": 100, "channel": 0}, {"time_played": 25.73958333333333, "midi_note": 76, "frequency": 659.25, "note_held": 0.0078125, "velocity": 100, "channel": 0}, {"time_played": 25.99479166666666, "midi_note": 43, "frequency": 98, "note_held": 0.0078125, "velocity": 100, "channel": 0}, {"time_played": 26.00520833333333, "midi_note": 74, "frequency": 587.33, "note_held": 0.010416666666666666, "velocity": 100, "channel": 0}, {"time_played": 26.23177083333333, "midi_note": 55, "frequency": 196, "note_held": 0.2265625, "velocity": 100, "channel": 0}, {"time_played": 26.49479166666666, "midi_note": 59, "frequency": 246.94, "note_held": 0.265625, "velocity": 100, "channel": 0}, {"time_played": 26.76822916666666, "midi_note": 65, "frequency": 349.23, "note_held": 0.0078125, "velocity": 100, "channel": 0}, {"time_played": 26.99479166666666, "midi_note": 76, "frequency": 659.25, "note_held": 0.0078125, "velocity": 100, "channel": 0}, {"time_played": 27.226562499999996, "midi_note": 74, "frequency": 587.33, "note_held": 0.0026041666666666665, "velocity": 100, "channel": 0}, {"time_played": 27.505208333333332, "midi_note": 45, "frequency": 110, "note_held": 0.2734375, "velocity": 100, "channel": 0}, {"time_played": 27.505208333333332, "midi_note": 72, "frequency": 523.25, "note_held": 0.018229166666666664, "velocity": 100, "channel": 0}, {"time_played": 27.786458333333332, "midi_note": 52, "frequency": 164.81, "note_held": 0.0078125, "velocity": 100, "channel": 0}, {"time_played": 27.994791666666664, "midi_note": 57, "frequency": 220, "note_held": 0.265625, "velocity": 100, "channel": 0}, {"time_played": 28.236979166666664, "midi_note": 64, "frequency": 329.63, "note_held": 0.2421875, "velocity": 100, "channel": 0}, {"time_played": 28.492187499999996, "midi_note": 74, "frequency": 587.33, "note_held": 0.26302083333333215, "velocity": 100, "channel": 0}, {"time_played": 28.75520833333333, "midi_note": 72, "frequency": 523.25, "note_held": 0.24479166666666785, "velocity": 100, "channel": 0}, {"time_played": 28.98177083333333, "midi_note": 40, "frequency": 82.41, "note_held": 0.2265625, "velocity": 100, "channel": 0}, {"time_played": 28.992187499999996, "midi_note": 71, "frequency": 493.88, "note_held": 0.010416666666666666, "velocity": 100, "channel": 0}, {"time_played": 29.252604166666664, "midi_note": 52, "frequency": 164.81, "note_held": 0.25260416666666663, "velocity": 100, "channel": 0}, {"time_played": 29.481770833333332, "midi_note": 64, "frequency": 329.63, "note_held": 0.2265625, "velocity": 100, "channel": 0}, {"time_played": 29.71875, "midi_note": 64, "frequency": 329.63, "note_held": 0.25520833333333215, "velocity": 100, "channel": 0}, {"time_played": 29.981770833333332, "midi_note": 76, "frequency": 659.25, "note_held": 0.0078125, "velocity": 100, "channel": 0}, {"time_played": 30.229166666666664, "midi_note": 64, "frequency": 329.63, "note_held": 0.24739583333333331, "velocity": 100, "channel": 0}, {"time_played": 30.5, "midi_note": 76, "frequency": 659.25, "note_held": 0.018229166666666664, "velocity": 100, "channel": 0}, {"time_played": 30.736979166666668, "midi_note": 76, "frequency": 659.25, "note_held": 0.23697916666666785, "velocity": 100, "channel": 0}, {"time_played": 30.992187500000004, "midi_note": 84, "frequency": 1046.5, "note_held": 0.018229166666666664, "velocity": 100, "channel": 0}, {"time_played": 31.500000000000004, "midi_note": 75, "frequency": 622.25, "note_held": 0.2630208333333333, "velocity": 100, "channel": 0}, {"time_played": 31.755208333333336, "midi_note": 76, "frequency": 659.25, "note_held": 0.21875, "velocity": 100, "channel": 0}, {"time_played": 32.0, "midi_note": 75, "frequency": 622.25, "note_held": 0.026041666666666664, "velocity": 100, "channel": 0}, {"time_played": 32.2109375, "midi_note": 76, "frequency": 659.25, "note_held": 0.28125, "velocity": 100, "channel": 0}, {"time_played": 32.5, "midi_note": 75, "frequency": 622.25, "note_held": 0.0078125, "velocity": 100, "channel": 0}, {"time_played": 32.7734375, "midi_note": 76, "frequency": 659.25, "note_held": 0.2734375, "velocity": 100, "channel": 0}, {"time_played": 32.9921875, "midi_note": 75, "frequency": 622.25, "note_held": 0.20833333333333331, "velocity": 100, "channel": 0}, {"time_played": 33.21875, "midi_note": 76, "frequency": 659.25, "note_held": 0.20833333333333331, "velocity": 100, "channel": 0}, {"time_played": 33.5, "midi_note": 75, "frequency": 622.25, "note_held": 0.0078125, "velocity": 100, "channel": 0}, {"time_played": 33.747395833333336, "midi_note": 76, "frequency": 659.25, "note_held": 0.2447916666666643, "velocity": 100, "channel": 0}, {"time_played": 33.9921875, "midi_note": 75, "frequency": 622.25, "note_held": 0.2552083333333286, "velocity": 100, "channel": 0}, {"time_played": 34.236979166666664, "midi_note": 76, "frequency": 659.25, "note_held": 0.24479166666666666, "velocity": 100, "channel": 0}, {"time_played": 34.51562499999999, "midi_note": 71, "frequency": 493.88, "note_held": 0.015625, "velocity": 100, "channel": 0}, {"time_played": 34.74999999999999, "midi_note": 74, "frequency": 587.33, "note_held": 0.234375, "velocity": 100, "channel": 0}, {"time_played": 34.99739583333332, "midi_note": 72, "frequency": 523.25, "note_held": 0.2630208333333357, "velocity": 100, "channel": 0}, {"time_played": 35.26041666666666, "midi_note": 69, "frequency": 440, "note_held": 0.4635416666666643, "velocity": 100, "channel": 0}, {"time_played": 35.27083333333332, "midi_note": 45, "frequency": 110, "note_held": 0.010416666666666666, "velocity": 100, "channel": 0}, {"time_played": 35.48697916666666, "midi_note": 52, "frequency": 164.81, "note_held": 0.2265625, "velocity": 100, "channel": 0}, {"time_played": 35.71354166666666, "midi_note": 57, "frequency": 220, "note_held": 0.328125, "velocity": 100, "channel": 0}, {"time_played": 35.99739583333332, "midi_note": 60, "frequency": 261.63, "note_held": 0.2734375, "velocity": 100, "channel": 0}, {"time_played": 36.21354166666666, "midi_note": 64, "frequency": 329.63, "note_held": 0.171875, "velocity": 100, "channel": 0}, {"time_played": 36.515624999999986, "midi_note": 69, "frequency": 440, "note_held": 0.010416666666666666, "velocity": 100, "channel": 0}, {"time_played": 36.71354166666665, "midi_note": 40, "frequency": 82.41, "note_held": 0.19791666666666666, "velocity": 100, "channel": 0}, {"time_played": 36.742187499999986, "midi_note": 71, "frequency": 493.88, "note_held": 0.5546874999999929, "velocity": 100, "channel": 0}, {"time_played": 36.997395833333314, "midi_note": 52, "frequency": 164.81, "note_held": 0.010416666666666666, "velocity": 100, "channel": 0}, {"time_played": 37.30468749999998, "midi_note": 56, "frequency": 207.65, "note_held": 0.0078125, "velocity": 100, "channel": 0}, {"time_played": 37.49739583333331, "midi_note": 64, "frequency": 329.63, "note_held": 0.010416666666666666, "velocity": 100, "channel": 0}, {"time_played": 37.73958333333331, "midi_note": 68, "frequency": 415.3, "note_held": 0.2421875, "velocity": 100, "channel": 0}, {"time_played": 37.9973958333333, "midi_note": 71, "frequency": 493.88, "note_held": 0.018229166666666664, "velocity": 100, "channel": 0}, {"time_played": 38.197916666666636, "midi_note": 45, "frequency": 110, "note_held": 0.20052083333333331, "velocity": 100, "channel": 0}, {"time_played": 38.2317708333333, "midi_note": 72, "frequency": 523.25, "note_held": 0.4921875, "velocity": 100, "channel": 0}, {"time_played": 38.5052083333333, "midi_note": 52, "frequency": 164.81, "note_held": 0.0078125, "velocity": 100, "channel": 0}, {"time_played": 38.749999999999964, "midi_note": 57, "frequency": 220, "note_held": 0.2369791666666643, "velocity": 100, "channel": 0}, {"time_played": 38.98697916666663, "midi_note": 64, "frequency": 329.63, "note_held": 0.2734375, "velocity": 100, "channel": 0}, {"time_played": 39.249999999999964, "midi_note": 76, "frequency": 659.25, "note_held": 0.2630208333333333, "velocity": 100, "channel": 0}, {"time_played": 39.499999999999964, "midi_note": 75, "frequency": 622.25, "note_held": 0.25, "velocity": 100, "channel": 0}, {"time_played": 39.749999999999964, "midi_note": 76, "frequency": 659.25, "note_held": 0.2604166666666643, "velocity": 100, "channel": 0}, {"time_played": 40.01822916666663, "midi_note": 75, "frequency": 622.25, "note_held": 0.0078125, "velocity": 100, "channel": 0}, {"time_played": 40.249999999999964, "midi_note": 76, "frequency": 659.25, "note_held": 0.23177083333333331, "velocity": 100, "channel": 0}, {"time_played": 40.499999999999964, "midi_note": 71, "frequency": 493.88, "note_held": 0.23958333333333331, "velocity": 100, "channel": 0}, {"time_played": 40.76041666666663, "midi_note": 74, "frequency": 587.33, "note_held": 0.015625, "velocity": 100, "channel": 0}, {"time_played": 40.976562499999964, "midi_note": 72, "frequency": 523.25, "note_held": 0.0078125, "velocity": 100, "channel": 0}, {"time_played": 41.26041666666663, "midi_note": 69, "frequency": 440, "note_held": 0.015625, "velocity": 100, "channel": 0}, {"time_played": 41.26822916666663, "midi_note": 45, "frequency": 110, "note_held": 0.0078125, "velocity": 100, "channel": 0}, {"time_played": 41.49479166666663, "midi_note": 52, "frequency": 164.81, "note_held": 0.28125, "velocity": 100, "channel": 0}, {"time_played": 41.74479166666663, "midi_note": 57, "frequency": 220, "note_held": 0.25, "velocity": 100, "channel": 0}, {"time_played": 42.01822916666663, "midi_note": 60, "frequency": 261.63, "note_held": 0.0234375, "velocity": 100, "channel": 0}, {"time_played": 42.26041666666663, "midi_note": 64, "frequency": 329.63, "note_held": 0.2395833333333357, "velocity": 100, "channel": 0}, {"time_played": 42.51041666666663, "midi_note": 69, "frequency": 440, "note_held": 0.010416666666666666, "velocity": 100, "channel": 0}, {"time_played": 42.742187499999964, "midi_note": 40, "frequency": 82.41, "note_held": 0.25, "velocity": 100, "channel": 0}, {"time_played": 42.749999999999964, "midi_note": 71, "frequency": 493.88, "note_held": 0.0078125, "velocity": 100, "channel": 0}, {"time_played": 43.0052083333333, "midi_note": 52, "frequency": 164.81, "note_held": 0.013020833333333332, "velocity": 100, "channel": 0}, {"time_played": 43.26041666666663, "midi_note": 56, "frequency": 207.65, "note_held": 0.018229166666666664, "velocity": 100, "channel": 0}, {"time_played": 43.51041666666663, "midi_note": 64, "frequency": 329.63, "note_held": 0.2395833333333357, "velocity": 100, "channel": 0}, {"time_played": 43.74479166666663, "midi_note": 72, "frequency": 523.25, "note_held": 0.234375, "velocity": 100, "channel": 0}, {"time_played": 43.986979166666636, "midi_note": 71, "frequency": 493.88, "note_held": 0.013020833333333332, "velocity": 100, "channel": 0}, {"time_played": 44.21874999999997, "midi_note": 33, "frequency": 55, "note_held": 0.23177083333333331, "velocity": 100, "channel": 0}, {"time_played": 44.244791666666636, "midi_note": 45, "frequency": 110, "note_held": 1.7447916666666643, "velocity": 100, "channel": 0}, {"time_played": 44.2552083333333, "midi_note": 69, "frequency": 440, "note_held": 0.010416666666666666, "velocity": 100, "channel": 0}]