<<<<<<< HEAD:src/midi/jsonMidi/DrDre-StillDre.json
[{"time_played": 0, "midi_note": 72, "frequency": 523.25, "note_held": 0.3125, "velocity": 127, "channel": 0}, {"time_played": 0, "midi_note": 81, "frequency": 880, "note_held": 0.3125, "velocity": 127, "channel": 0}, {"time_played": 0, "midi_note": 72, "frequency": 523.25, "note_held": 0.3125, "velocity": 96, "channel": 2}, {"time_played": 0, "midi_note": 81, "frequency": 880, "note_held": 0.3125, "velocity": 96, "channel": 2}, {"time_played": 0.3125, "midi_note": 72, "frequency": 523.25, "note_held": 0.3125, "velocity": 127, "channel": 0}, {"time_played": 0.3125, "midi_note": 81, "frequency": 880, "note_held": 0.3125, "velocity": 127, "channel": 0}, {"time_played": 0.3125, "midi_note": 72, "frequency": 523.25, "note_held": 0.3125, "velocity": 96, "channel": 2}, {"time_played": 0.3125, "midi_note": 81, "frequency": 880, "note_held": 0.3125, "velocity": 96, "channel": 2}, {"time_played": 0.625, "midi_note": 72, "frequency": 523.25, "note_held": 0.3125, "velocity": 127, "channel": 0}, {"time_played": 0.625, "midi_note": 81, "frequency": 880, "note_held": 0.3125, "velocity": 127, "channel": 0}, {"time_played": 0.625, "midi_note": 72, "frequency": 523.25, "note_held": 0.3125, "velocity": 96, "channel": 2}, {"time_played": 0.625, "midi_note": 81, "frequency": 880, "note_held": 0.3125, "velocity": 96, "channel": 2}, {"time_played": 0.9375, "midi_note": 72, "frequency": 523.25, "note_held": 0.3125, "velocity": 127, "channel": 0}, {"time_played": 0.9375, "midi_note": 81, "frequency": 880, "note_held": 0.3125, "velocity": 127, "channel": 0}, {"time_played": 0.9375, "midi_note": 72, "frequency": 523.25, "note_held": 0.3125, "velocity": 96, "channel": 2}, {"time_played": 0.9375, "midi_note": 81, "frequency": 880, "note_held": 0.3125, "velocity": 96, "channel": 2}, {"time_played": 1.25, "midi_note": 72, "frequency": 523.25, "note_held": 0.3125, "velocity": 127, "channel": 0}, {"time_played": 1.25, "midi_note": 81, "frequency": 880, "note_held": 0.3125, "velocity": 127, "channel": 0}, {"time_played": 1.25, "midi_note": 72, "frequency": 523.25, "note_held": 0.3125, "velocity": 96, "channel": 2}, {"time_played": 1.25, "midi_note": 81, "frequency": 880, "note_held": 0.3125, "velocity": 96, "channel": 2}, {"time_played": 1.5625, "midi_note": 72, "frequency": 523.25, "note_held": 0.3125, "velocity": 127, "channel": 0}, {"time_played": 1.5625, "midi_note": 81, "frequency": 880, "note_held": 0.3125, "velocity": 127, "channel": 0}, {"time_played": 1.5625, "midi_note": 72, "frequency": 523.25, "note_held": 0.3125, "velocity": 96, "channel": 2}, {"time_played": 1.5625, "midi_note": 81, "frequency": 880, "note_held": 0.3125, "velocity": 96, "channel": 2}, {"time_played": 1.875, "midi_note": 72, "frequency": 523.25, "note_held": 0.3125, "velocity": 127, "channel": 0}, {"time_played": 1.875, "midi_note": 81, "frequency": 880, "note_held": 0.3125, "velocity": 127, "channel": 0}, {"time_played": 1.875, "midi_note": 72, "frequency": 523.25, "note_held": 0.3125, "velocity": 96, "channel": 2}, {"time_played": 1.875, "midi_note": 81, "frequency": 880, "note_held": 0.3125, "velocity": 96, "channel": 2}, {"time_played": 2.1875, "midi_note": 72, "frequency": 523.25, "note_held": 0.3125, "velocity": 127, "channel": 0}, {"time_played": 2.1875, "midi_note": 81, "frequency": 880, "note_held": 0.3125, "velocity": 127, "channel": 0}, {"time_played": 2.1875, "midi_note": 72, "frequency": 523.25, "note_held": 0.3125, "velocity": 96, "channel": 2}, {"time_played": 2.1875, "midi_note": 81, "frequency": 880, "note_held": 0.3125, "velocity": 96, "channel": 2}, {"time_played": 2.5, "midi_note": 72, "frequency": 523.25, "note_held": 0.3125, "velocity": 127, "channel": 0}, {"time_played": 2.5, "midi_note": 81, "frequency": 880, "note_held": 0.3125, "velocity": 127, "channel": 0}, {"time_played": 2.5, "midi_note": 72, "frequency": 523.25, "note_held": 0.3125, "velocity": 96, "channel": 2}, {"time_played": 2.5, "midi_note": 81, "frequency": 880, "note_held": 0.3125, "velocity": 96, "channel": 2}, {"time_played": 2.8125, "midi_note": 72, "frequency": 523.25, "note_held": 0.3125, "velocity": 127, "channel": 0}, {"time_played": 2.8125, "midi_note": 81, "frequency": 880, "note_held": 0.3125, "velocity": 127, "channel": 0}, {"time_played": 2.8125, "midi_note": 72, "frequency": 523.25, "note_held": 0.3125, "velocity": 96, "channel": 2}, {"time_played": 2.8125, "midi_note": 81, "frequency": 880, "note_held": 0.3125, "velocity": 96, "channel": 2}, {"time_played": 3.125, "midi_note": 72, "frequency": 523.25, "note_held": 0.3125, "velocity": 127, "channel": 0}, {"time_played": 3.125, "midi_note": 81, "frequency": 880, "note_held": 0.3125, "velocity": 127, "channel": 0}, {"time_played": 3.125, "midi_note": 72, "frequency": 523.25, "note_held": 0.3125, "velocity": 96, "channel": 2}, {"time_played": 3.125, "midi_note": 81, "frequency": 880, "note_held": 0.3125, "velocity": 96, "channel": 2}, {"time_played": 3.4375, "midi_note": 71, "frequency": 493.88, "note_held": 0.3125, "velocity": 127, "channel": 0}, {"time_played": 3.4375, "midi_note": 79, "frequency": 783.99, "note_held": 0.3125, "velocity": 127, "channel": 0}, {"time_played": 3.4375, "midi_note": 71, "frequency": 493.88, "note_held": 0.3125, "velocity": 96, "channel": 2}, {"time_played": 3.4375, "midi_note": 79, "frequency": 783.99, "note_held": 0.3125, "velocity": 96, "channel": 2}, {"time_played": 3.75, "midi_note": 71, "frequency": 493.88, "note_held": 0.3125, "velocity": 127, "channel": 0}, {"time_played": 3.75, "midi_note": 79, "frequency": 783.99, "note_held": 0.3125, "velocity": 127, "channel": 0}, {"time_played": 3.75, "midi_note": 71, "frequency": 493.88, "note_held": 0.3125, "velocity": 96, "channel": 2}, {"time_played": 3.75, "midi_note": 79, "frequency": 783.99, "note_held": 0.3125, "velocity": 96, "channel": 2}, {"time_played": 4.0625, "midi_note": 71, "frequency": 493.88, "note_held": 0.3125, "velocity": 127, "channel": 0}, {"time_played": 4.0625, "midi_note": 79, "frequency": 783.99, "note_held": 0.3125, "velocity": 127, "channel": 0}, {"time_played": 4.0625, "midi_note": 71, "frequency": 493.88, "note_held": 0.3125, "velocity": 96, "channel": 2}, {"time_played": 4.0625, "midi_note": 79, "frequency": 783.99, "note_held": 0.3125, "velocity": 96, "channel": 2}, {"time_played": 4.375, "midi_note": 71, "frequency": 493.88, "note_held": 0.3125, "velocity": 127, "channel": 0}, {"time_played": 4.375, "midi_note": 79, "frequency": 783.99, "note_held": 0.3125, "velocity": 127, "channel": 0}, {"time_played": 4.375, "midi_note": 71, "frequency": 493.88, "note_held": 0.3125, "velocity": 96, "channel": 2}, {"time_played": 4.375, "midi_note": 79, "frequency": 783.99, "note_held": 0.3125, "velocity": 96, "channel": 2}, {"time_played": 4.6875, "midi_note": 71, "frequency": 493.88, "note_held": 0.3125, "velocity": 127, "channel": 0}, {"time_played": 4.6875, "midi_note": 79, "frequency": 783.99, "note_held": 0.3125, "velocity": 127, "channel": 0}, {"time_played": 4.6875, "midi_note": 71, "frequency": 493.88, "note_held": 0.3125, "velocity": 96, "channel": 2}, {"time_played": 4.6875, "midi_note": 79, "frequency": 783.99, "note_held": 0.3125, "velocity": 96, "channel": 2}, {"time_played": 5.0, "midi_note": 72, "frequency": 523.25, "note_held": 0.3125, "velocity": 127, "channel": 0}, {"time_played": 5.0, "midi_note": 81, "frequency": 880, "note_held": 0.3125, "velocity": 127, "channel": 0}, {"time_played": 5.0, "midi_note": 72, "frequency": 523.25, "note_held": 0.3125, "velocity": 96, "channel": 2}, {"time_played": 5.0, "midi_note": 81, "frequency": 880, "note_held": 0.3125, "velocity": 96, "channel": 2}, {"time_played": 5.3125, "midi_note": 72, "frequency": 523.25, "note_held": 0.3125, "velocity": 127, "channel": 0}, {"time_played": 5.3125, "midi_note": 81, "frequency": 880, "note_held": 0.3125, "velocity": 127, "channel": 0}, {"time_played": 5.3125, "midi_note": 72, "frequency": 523.25, "note_held": 0.3125, "velocity": 96, "channel": 2}, {"time_played": 5.3125, "midi_note": 81, "frequency": 880, "note_held": 0.3125, "velocity": 96, "channel": 2}, {"time_played": 5.625, "midi_note": 72, "frequency": 523.25, "note_held": 0.3125, "velocity": 127, "channel": 0}, {"time_played": 5.625, "midi_note": 81, "frequency": 880, "note_held": 0.3125, "velocity": 127, "channel": 0}, {"time_played": 5.625, "midi_note": 72, "frequency": 523.25, "note_held": 0.3125, "velocity": 96, "channel": 2}, {"time_played": 5.625, "midi_note": 81, "frequency": 880, "note_held": 0.3125, "velocity": 96, "channel": 2}, {"time_played": 5.9375, "midi_note": 72, "frequency": 523.25, "note_held": 0.3125, "velocity": 127, "channel": 0}, {"time_played": 5.9375, "midi_note": 81, "frequency": 880, "note_held": 0.3125, "velocity": 127, "channel": 0}, {"time_played": 5.9375, "midi_note": 72, "frequency": 523.25, "note_held": 0.3125, "velocity": 96, "channel": 2}, {"time_played": 5.9375, "midi_note": 81, "frequency": 880, "note_held": 0.3125, "velocity": 96, "channel": 2}, {"time_played": 6.25, "midi_note": 72, "frequency": 523.25, "note_held": 0.3125, "velocity": 127, "channel": 0}, {"time_played": 6.25, "midi_note": 81, "frequency": 880, "note_held": 0.3125, "velocity": 127, "channel": 0}, {"time_played": 6.25, "midi_note": 72, "frequency": 523.25, "note_held": 0.3125, "velocity": 96, "channel": 2}, {"time_played": 6.25, "midi_note": 81, "frequency": 880, "note_held": 0.3125, "velocity": 96, "channel": 2}, {"time_played": 6.5625, "midi_note": 72, "frequency": 523.25, "note_held": 0.3125, "velocity": 127, "channel": 0}, {"time_played": 6.5625, "midi_note": 81, "frequency": 880, "note_held": 0.3125, "velocity": 127, "channel": 0}, {"time_played": 6.5625, "midi_note": 72, "frequency": 523.25, "note_held": 0.3125, "velocity": 96, "channel": 2}, {"time_played": 6.5625, "midi_note": 81, "frequency": 880, "note_held": 0.3125, "velocity": 96, "channel": 2}, {"time_played": 6.875, "midi_note": 72, "frequency": 523.25, "note_held": 0.3125, "velocity": 127, "channel": 0}, {"time_played": 6.875, "midi_note": 81, "frequency": 880, "note_held": 0.3125, "velocity": 127, "channel": 0}, {"time_played": 6.875, "midi_note": 72, "frequency": 523.25, "note_held": 0.3125, "velocity": 96, "channel": 2}, {"time_played": 6.875, "midi_note": 81, "frequency": 880, "note_held": 0.3125, "velocity": 96, "channel": 2}, {"time_played": 7.1875, "midi_note": 72, "frequency": 523.25, "note_held": 0.3125, "velocity": 127, "channel": 0}, {"time_played": 7.1875, "midi_note": 81, "frequency": 880, "note_held": 0.3125, "velocity": 127, "channel": 0}, {"time_played": 7.1875, "midi_note": 72, "frequency": 523.25, "note_held": 0.3125, "velocity": 96, "channel": 2}, {"time_played": 7.1875, "midi_note": 81, "frequency": 880, "note_held": 0.3125, "velocity": 96, "channel": 2}, {"time_played": 7.5, "midi_note": 72, "frequency": 523.25, "note_held": 0.3125, "velocity": 127, "channel": 0}, {"time_played": 7.5, "midi_note": 81, "frequency": 880, "note_held": 0.3125, "velocity": 127, "channel": 0}, {"time_played": 7.5, "midi_note": 72, "frequency": 523.25, "note_held": 0.3125, "velocity": 96, "channel": 2}, {"time_played": 7.5, "midi_note": 81, "frequency": 880, "note_held": 0.3125, "velocity": 96, "channel": 2}, {"time_played": 7.8125, "midi_note": 72, "frequency": 523.25, "note_held": 0.3125, "velocity": 127, "channel": 0}, {"time_played": 7.8125, "midi_note": 81, "frequency": 880, "note_held": 0.3125, "velocity": 127, "channel": 0}, {"time_played": 7.8125, "midi_note": 72, "frequency": 523.25, "note_held": 0.3125, "velocity": 96, "channel": 2}, {"time_played": 7.8125, "midi_note": 81, "frequency": 880, "note_held": 0.3125, "velocity": 96, "channel": 2}, {"time_played": 8.125, "midi_note": 72, "frequency": 523.25, "note_held": 0.3125, "velocity": 127, "channel": 0}, {"time_played": 8.125, "midi_note": 81, "frequency": 880, "note_held": 0.3125, "velocity": 127, "channel": 0}, {"time_played": 8.125, "midi_note": 72, "frequency": 523.25, "note_held": 0.3125, "velocity": 96, "channel": 2}, {"time_played": 8.125, "midi_note": 81, "frequency": 880, "note_held": 0.3125, "velocity": 96, "channel": 2}, {"time_played": 8.4375, "midi_note": 71, "frequency": 493.88, "note_held": 0.3125, "velocity": 127, "channel": 0}, {"time_played": 8.4375, "midi_note": 79, "frequency": 783.99, "note_held": 0.3125, "velocity": 127, "channel": 0}, {"time_played": 8.4375, "midi_note": 71, "frequency": 493.88, "note_held": 0.3125, "velocity": 96, "channel": 2}, {"time_played": 8.4375, "midi_note": 79, "frequency": 783.99, "note_held": 0.3125, "velocity": 96, "channel": 2}, {"time_played": 8.75, "midi_note": 71, "frequency": 493.88, "note_held": 0.3125, "velocity": 127, "channel": 0}, {"time_played": 8.75, "midi_note": 79, "frequency": 783.99, "note_held": 0.3125, "velocity": 127, "channel": 0}, {"time_played": 8.75, "midi_note": 71, "frequency": 493.88, "note_held": 0.3125, "velocity": 96, "channel": 2}, {"time_played": 8.75, "midi_note": 79, "frequency": 783.99, "note_held": 0.3125, "velocity": 96, "channel": 2}, {"time_played": 9.0625, "midi_note": 71, "frequency": 493.88, "note_held": 0.3125, "velocity": 127, "channel": 0}, {"time_played": 9.0625, "midi_note": 79, "frequency": 783.99, "note_held": 0.3125, "velocity": 127, "channel": 0}, {"time_played": 9.0625, "midi_note": 71, "frequency": 493.88, "note_held": 0.3125, "velocity": 96, "channel": 2}, {"time_played": 9.0625, "midi_note": 79, "frequency": 783.99, "note_held": 0.3125, "velocity": 96, "channel": 2}, {"time_played": 9.375, "midi_note": 71, "frequency": 493.88, "note_held": 0.3125, "velocity": 127, "channel": 0}, {"time_played": 9.375, "midi_note": 79, "frequency": 783.99, "note_held": 0.3125, "velocity": 127, "channel": 0}, {"time_played": 9.375, "midi_note": 71, "frequency": 493.88, "note_held": 0.3125, "velocity": 96, "channel": 2}, {"time_played": 9.375, "midi_note": 79, "frequency": 783.99, "note_held": 0.3125, "velocity": 96, "channel": 2}, {"time_played": 9.6875, "midi_note": 71, "frequency": 493.88, "note_held": 0.3125, "velocity": 127, "channel": 0}, {"time_played": 9.6875, "midi_note": 79, "frequency": 783.99, "note_held": 0.3125, "velocity": 127, "channel": 0}, {"time_played": 9.6875, "midi_note": 71, "frequency": 493.88, "note_held": 0.3125, "velocity": 96, "channel": 2}, {"time_played": 9.6875, "midi_note": 79, "frequency": 783.99, "note_held": 0.3125, "velocity": 96, "channel": 2}, {"time_played": 10.0, "midi_note": 72, "frequency": 523.25, "note_held": 0.3125, "velocity": 127, "channel": 0}, {"time_played": 10.0, "midi_note": 81, "frequency": 880, "note_held": 0.3125, "velocity": 127, "channel": 0}, {"time_played": 10.0, "midi_note": 72, "frequency": 523.25, "note_held": 0.3125, "velocity": 96, "channel": 2}, {"time_played": 10.0, "midi_note": 81, "frequency": 880, "note_held": 0.3125, "velocity": 96, "channel": 2}, {"time_played": 10.3125, "midi_note": 72, "frequency": 523.25, "note_held": 0.3125, "velocity": 127, "channel": 0}, {"time_played": 10.3125, "midi_note": 81, "frequency": 880, "note_held": 0.3125, "velocity": 127, "channel": 0}, {"time_played": 10.3125, "midi_note": 72, "frequency": 523.25, "note_held": 0.3125, "velocity": 96, "channel": 2}, {"time_played": 10.3125, "midi_note": 81, "frequency": 880, "note_held": 0.3125, "velocity": 96, "channel": 2}, {"time_played": 10.625, "midi_note": 72, "frequency": 523.25, "note_held": 0.3125, "velocity": 127, "channel": 0}, {"time_played": 10.625, "midi_note": 81, "frequency": 880, "note_held": 0.3125, "velocity": 127, "channel": 0}, {"time_played": 10.625, "midi_note": 72, "frequency": 523.25, "note_held": 0.3125, "velocity": 96, "channel": 2}, {"time_played": 10.625, "midi_note": 81, "frequency": 880, "note_held": 0.3125, "velocity": 96, "channel": 2}, {"time_played": 10.9375, "midi_note": 72, "frequency": 523.25, "note_held": 0.3125, "velocity": 127, "channel": 0}, {"time_played": 10.9375, "midi_note": 81, "frequency": 880, "note_held": 0.3125, "velocity": 127, "channel": 0}, {"time_played": 10.9375, "midi_note": 72, "frequency": 523.25, "note_held": 0.3125, "velocity": 96, "channel": 2}, {"time_played": 10.9375, "midi_note": 81, "frequency": 880, "note_held": 0.3125, "velocity": 96, "channel": 2}, {"time_played": 11.25, "midi_note": 72, "frequency": 523.25, "note_held": 0.3125, "velocity": 127, "channel": 0}, {"time_played": 11.25, "midi_note": 81, "frequency": 880, "note_held": 0.3125, "velocity": 127, "channel": 0}, {"time_played": 11.25, "midi_note": 72, "frequency": 523.25, "note_held": 0.3125, "velocity": 96, "channel": 2}, {"time_played": 11.25, "midi_note": 81, "frequency": 880, "note_held": 0.3125, "velocity": 96, "channel": 2}, {"time_played": 11.5625, "midi_note": 72, "frequency": 523.25, "note_held": 0.3125, "velocity": 127, "channel": 0}, {"time_played": 11.5625, "midi_note": 81, "frequency": 880, "note_held": 0.3125, "velocity": 127, "channel": 0}, {"time_played": 11.5625, "midi_note": 72, "frequency": 523.25, "note_held": 0.3125, "velocity": 96, "channel": 2}, {"time_played": 11.5625, "midi_note": 81, "frequency": 880, "note_held": 0.3125, "velocity": 96, "channel": 2}, {"time_played": 11.875, "midi_note": 72, "frequency": 523.25, "note_held": 0.3125, "velocity": 127, "channel": 0}, {"time_played": 11.875, "midi_note": 81, "frequency": 880, "note_held": 0.3125, "velocity": 127, "channel": 0}, {"time_played": 11.875, "midi_note": 72, "frequency": 523.25, "note_held": 0.3125, "velocity": 96, "channel": 2}, {"time_played": 11.875, "midi_note": 81, "frequency": 880, "note_held": 0.3125, "velocity": 96, "channel": 2}, {"time_played": 12.1875, "midi_note": 72, "frequency": 523.25, "note_held": 0.3125, "velocity": 127, "channel": 0}, {"time_played": 12.1875, "midi_note": 81, "frequency": 880, "note_held": 0.3125, "velocity": 127, "channel": 0}, {"time_played": 12.1875, "midi_note": 72, "frequency": 523.25, "note_held": 0.3125, "velocity": 96, "channel": 2}, {"time_played": 12.1875, "midi_note": 81, "frequency": 880, "note_held": 0.3125, "velocity": 96, "channel": 2}, {"time_played": 12.5, "midi_note": 72, "frequency": 523.25, "note_held": 0.3125, "velocity": 127, "channel": 0}, {"time_played": 12.5, "midi_note": 81, "frequency": 880, "note_held": 0.3125, "velocity": 127, "channel": 0}, {"time_played": 12.5, "midi_note": 72, "frequency": 523.25, "note_held": 0.3125, "velocity": 96, "channel": 2}, {"time_played": 12.5, "midi_note": 81, "frequency": 880, "note_held": 0.3125, "velocity": 96, "channel": 2}, {"time_played": 12.8125, "midi_note": 72, "frequency": 523.25, "note_held": 0.3125, "velocity": 127, "channel": 0}, {"time_played": 12.8125, "midi_note": 81, "frequency": 880, "note_held": 0.3125, "velocity": 127, "channel": 0}, {"time_played": 12.8125, "midi_note": 72, "frequency": 523.25, "note_held": 0.3125, "velocity": 96, "channel": 2}, {"time_played": 12.8125, "midi_note": 81, "frequency": 880, "note_held": 0.3125, "velocity": 96, "channel": 2}, {"time_played": 13.125, "midi_note": 72, "frequency": 523.25, "note_held": 0.3125, "velocity": 127, "channel": 0}, {"time_played": 13.125, "midi_note": 81, "frequency": 880, "note_held": 0.3125, "velocity": 127, "channel": 0}, {"time_played": 13.125, "midi_note": 72, "frequency": 523.25, "note_held": 0.3125, "velocity": 96, "channel": 2}, {"time_played": 13.125, "midi_note": 81, "frequency": 880, "note_held": 0.3125, "velocity": 96, "channel": 2}, {"time_played": 13.4375, "midi_note": 71, "frequency": 493.88, "note_held": 0.3125, "velocity": 127, "channel": 0}, {"time_played": 13.4375, "midi_note": 79, "frequency": 783.99, "note_held": 0.3125, "velocity": 127, "channel": 0}, {"time_played": 13.4375, "midi_note": 71, "frequency": 493.88, "note_held": 0.3125, "velocity": 96, "channel": 2}, {"time_played": 13.4375, "midi_note": 79, "frequency": 783.99, "note_held": 0.3125, "velocity": 96, "channel": 2}, {"time_played": 13.75, "midi_note": 71, "frequency": 493.88, "note_held": 0.3125, "velocity": 127, "channel": 0}, {"time_played": 13.75, "midi_note": 79, "frequency": 783.99, "note_held": 0.3125, "velocity": 127, "channel": 0}, {"time_played": 13.75, "midi_note": 71, "frequency": 493.88, "note_held": 0.3125, "velocity": 96, "channel": 2}, {"time_played": 13.75, "midi_note": 79, "frequency": 783.99, "note_held": 0.3125, "velocity": 96, "channel": 2}, {"time_played": 14.0625, "midi_note": 71, "frequency": 493.88, "note_held": 0.3125, "velocity": 127, "channel": 0}, {"time_played": 14.0625, "midi_note": 79, "frequency": 783.99, "note_held": 0.3125, "velocity": 127, "channel": 0}, {"time_played": 14.0625, "midi_note": 71, "frequency": 493.88, "note_held": 0.3125, "velocity": 96, "channel": 2}, {"time_played": 14.0625, "midi_note": 79, "frequency": 783.99, "note_held": 0.3125, "velocity": 96, "channel": 2}, {"time_played": 14.375, "midi_note": 71, "frequency": 493.88, "note_held": 0.3125, "velocity": 127, "channel": 0}, {"time_played": 14.375, "midi_note": 79, "frequency": 783.99, "note_held": 0.3125, "velocity": 127, "channel": 0}, {"time_played": 14.375, "midi_note": 71, "frequency": 493.88, "note_held": 0.3125, "velocity": 96, "channel": 2}, {"time_played": 14.375, "midi_note": 79, "frequency": 783.99, "note_held": 0.3125, "velocity": 96, "channel": 2}, {"time_played": 14.6875, "midi_note": 71, "frequency": 493.88, "note_held": 0.3125, "velocity": 127, "channel": 0}, {"time_played": 14.6875, "midi_note": 79, "frequency": 783.99, "note_held": 0.3125, "velocity": 127, "channel": 0}, {"time_played": 14.6875, "midi_note": 71, "frequency": 493.88, "note_held": 0.3125, "velocity": 96, "channel": 2}, {"time_played": 14.6875, "midi_note": 79, "frequency": 783.99, "note_held": 0.3125, "velocity": 96, "channel": 2}, {"time_played": 15.0, "midi_note": 72, "frequency": 523.25, "note_held": 0.3125, "velocity": 127, "channel": 0}, {"time_played": 15.0, "midi_note": 81, "frequency": 880, "note_held": 0.3125, "velocity": 127, "channel": 0}, {"time_played": 15.0, "midi_note": 72, "frequency": 523.25, "note_held": 0.3125, "velocity": 96, "channel": 2}, {"time_played": 15.0, "midi_note": 81, "frequency": 880, "note_held": 0.3125, "velocity": 96, "channel": 2}, {"time_played": 15.3125, "midi_note": 72, "frequency": 523.25, "note_held": 0.3125, "velocity": 127, "channel": 0}, {"time_played": 15.3125, "midi_note": 81, "frequency": 880, "note_held": 0.3125, "velocity": 127, "channel": 0}, {"time_played": 15.3125, "midi_note": 72, "frequency": 523.25, "note_held": 0.3125, "velocity": 96, "channel": 2}, {"time_played": 15.3125, "midi_note": 81, "frequency": 880, "note_held": 0.3125, "velocity": 96, "channel": 2}, {"time_played": 15.625, "midi_note": 72, "frequency": 523.25, "note_held": 0.3125, "velocity": 127, "channel": 0}, {"time_played": 15.625, "midi_note": 81, "frequency": 880, "note_held": 0.3125, "velocity": 127, "channel": 0}, {"time_played": 15.625, "midi_note": 72, "frequency": 523.25, "note_held": 0.3125, "velocity": 96, "channel": 2}, {"time_played": 15.625, "midi_note": 81, "frequency": 880, "note_held": 0.3125, "velocity": 96, "channel": 2}, {"time_played": 15.9375, "midi_note": 72, "frequency": 523.25, "note_held": 0.3125, "velocity": 127, "channel": 0}, {"time_played": 15.9375, "midi_note": 81, "frequency": 880, "note_held": 0.3125, "velocity": 127, "channel": 0}, {"time_played": 15.9375, "midi_note": 72, "frequency": 523.25, "note_held": 0.3125, "velocity": 96, "channel": 2}, {"time_played": 15.9375, "midi_note": 81, "frequency": 880, "note_held": 0.3125, "velocity": 96, "channel": 2}, {"time_played": 16.25, "midi_note": 72, "frequency": 523.25, "note_held": 0.3125, "velocity": 127, "channel": 0}, {"time_played": 16.25, "midi_note": 81, "frequency": 880, "note_held": 0.3125, "velocity": 127, "channel": 0}, {"time_played": 16.25, "midi_note": 72, "frequency": 523.25, "note_held": 0.3125, "velocity": 96, "channel": 2}, {"time_played": 16.25, "midi_note": 81, "frequency": 880, "note_held": 0.3125, "velocity": 96, "channel": 2}, {"time_played": 16.5625, "midi_note": 72, "frequency": 523.25, "note_held": 0.3125, "velocity": 127, "channel": 0}, {"time_played": 16.5625, "midi_note": 81, "frequency": 880, "note_held": 0.3125, "velocity": 127, "channel": 0}, {"time_played": 16.5625, "midi_note": 72, "frequency": 523.25, "note_held": 0.3125, "velocity": 96, "channel": 2}, {"time_played": 16.5625, "midi_note": 81, "frequency": 880, "note_held": 0.3125, "velocity": 96, "channel": 2}, {"time_played": 16.875, "midi_note": 72, "frequency": 523.25, "note_held": 0.3125, "velocity": 127, "channel": 0}, {"time_played": 16.875, "midi_note": 81, "frequency": 880, "note_held": 0.3125, "velocity": 127, "channel": 0}, {"time_played": 16.875, "midi_note": 72, "frequency": 523.25, "note_held": 0.3125, "velocity": 96, "channel": 2}, {"time_played": 16.875, "midi_note": 81, "frequency": 880, "note_held": 0.3125, "velocity": 96, "channel": 2}, {"time_played": 17.1875, "midi_note": 72, "frequency": 523.25, "note_held": 0.3125, "velocity": 127, "channel": 0}, {"time_played": 17.1875, "midi_note": 81, "frequency": 880, "note_held": 0.3125, "velocity": 127, "channel": 0}, {"time_played": 17.1875, "midi_note": 72, "frequency": 523.25, "note_held": 0.3125, "velocity": 96, "channel": 2}, {"time_played": 17.1875, "midi_note": 81, "frequency": 880, "note_held": 0.3125, "velocity": 96, "channel": 2}, {"time_played": 17.5, "midi_note": 72, "frequency": 523.25, "note_held": 0.3125, "velocity": 127, "channel": 0}, {"time_played": 17.5, "midi_note": 81, "frequency": 880, "note_held": 0.3125, "velocity": 127, "channel": 0}, {"time_played": 17.5, "midi_note": 72, "frequency": 523.25, "note_held": 0.3125, "velocity": 96, "channel": 2}, {"time_played": 17.5, "midi_note": 81, "frequency": 880, "note_held": 0.3125, "velocity": 96, "channel": 2}, {"time_played": 17.8125, "midi_note": 72, "frequency": 523.25, "note_held": 0.3125, "velocity": 127, "channel": 0}, {"time_played": 17.8125, "midi_note": 81, "frequency": 880, "note_held": 0.3125, "velocity": 127, "channel": 0}, {"time_played": 17.8125, "midi_note": 72, "frequency": 523.25, "note_held": 0.3125, "velocity": 96, "channel": 2}, {"time_played": 17.8125, "midi_note": 81, "frequency": 880, "note_held": 0.3125, "velocity": 96, "channel": 2}, {"time_played": 18.125, "midi_note": 72, "frequency": 523.25, "note_held": 0.3125, "velocity": 127, "channel": 0}, {"time_played": 18.125, "midi_note": 81, "frequency": 880, "note_held": 0.3125, "velocity": 127, "channel": 0}, {"time_played": 18.125, "midi_note": 72, "frequency": 523.25, "note_held": 0.3125, "velocity": 96, "channel": 2}, {"time_played": 18.125, "midi_note": 81, "frequency": 880, "note_held": 0.3125, "velocity": 96, "channel": 2}, {"time_played": 18.4375, "midi_note": 71, "frequency": 493.88, "note_held": 0.3125, "velocity": 127, "channel": 0}, {"time_played": 18.4375, "midi_note": 79, "frequency": 783.99, "note_held": 0.3125, "velocity": 127, "channel": 0}, {"time_played": 18.4375, "midi_note": 71, "frequency": 493.88, "note_held": 0.3125, "velocity": 96, "channel": 2}, {"time_played": 18.4375, "midi_note": 79, "frequency": 783.99, "note_held": 0.3125, "velocity": 96, "channel": 2}, {"time_played": 18.75, "midi_note": 71, "frequency": 493.88, "note_held": 0.3125, "velocity": 127, "channel": 0}, {"time_played": 18.75, "midi_note": 79, "frequency": 783.99, "note_held": 0.3125, "velocity": 127, "channel": 0}, {"time_played": 18.75, "midi_note": 71, "frequency": 493.88, "note_held": 0.3125, "velocity": 96, "channel": 2}, {"time_played": 18.75, "midi_note": 79, "frequency": 783.99, "note_held": 0.3125, "velocity": 96, "channel": 2}, {"time_played": 19.0625, "midi_note": 71, "frequency": 493.88, "note_held": 0.3125, "velocity": 127, "channel": 0}, {"time_played": 19.0625, "midi_note": 79, "frequency": 783.99, "note_held": 0.3125, "velocity": 127, "channel": 0}, {"time_played": 19.0625, "midi_note": 71, "frequency": 493.88, "note_held": 0.3125, "velocity": 96, "channel": 2}, {"time_played": 19.0625, "midi_note": 79, "frequency": 783.99, "note_held": 0.3125, "velocity": 96, "channel": 2}, {"time_played": 19.375, "midi_note": 71, "frequency": 493.88, "note_held": 0.3125, "velocity": 127, "channel": 0}, {"time_played": 19.375, "midi_note": 79, "frequency": 783.99, "note_held": 0.3125, "velocity": 127, "channel": 0}, {"time_played": 19.375, "midi_note": 71, "frequency": 493.88, "note_held": 0.3125, "velocity": 96, "channel": 2}, {"time_played": 19.375, "midi_note": 79, "frequency": 783.99, "note_held": 0.3125, "velocity": 96, "channel": 2}, {"time_played": 19.6875, "midi_note": 71, "frequency": 493.88, "note_held": 0.3125, "velocity": 127, "channel": 0}, {"time_played": 19.6875, "midi_note": 79, "frequency": 783.99, "note_held": 0.3125, "velocity": 127, "channel": 0}, {"time_played": 19.6875, "midi_note": 71, "frequency": 493.88, "note_held": 0.3125, "velocity": 96, "channel": 2}, {"time_played": 19.6875, "midi_note": 79, "frequency": 783.99, "note_held": 0.3125, "velocity": 96, "channel": 2}, {"time_played": 20.0, "midi_note": 72, "frequency": 523.25, "note_held": 0.3125, "velocity": 127, "channel": 0}, {"time_played": 20.0, "midi_note": 81, "frequency": 880, "note_held": 0.3125, "velocity": 127, "channel": 0}, {"time_played": 20.0, "midi_note": 72, "frequency": 523.25, "note_held": 0.3125, "velocity": 96, "channel": 2}, {"time_played": 20.0, "midi_note": 81, "frequency": 880, "note_held": 0.3125, "velocity": 96, "channel": 2}, {"time_played": 20.3125, "midi_note": 72, "frequency": 523.25, "note_held": 0.3125, "velocity": 127, "channel": 0}, {"time_played": 20.3125, "midi_note": 81, "frequency": 880, "note_held": 0.3125, "velocity": 127, "channel": 0}, {"time_played": 20.3125, "midi_note": 72, "frequency": 523.25, "note_held": 0.3125, "velocity": 96, "channel": 2}, {"time_played": 20.3125, "midi_note": 81, "frequency": 880, "note_held": 0.3125, "velocity": 96, "channel": 2}, {"time_played": 20.625, "midi_note": 72, "frequency": 523.25, "note_held": 0.3125, "velocity": 127, "channel": 0}, {"time_played": 20.625, "midi_note": 81, "frequency": 880, "note_held": 0.3125, "velocity": 127, "channel": 0}, {"time_played": 20.625, "midi_note": 72, "frequency": 523.25, "note_held": 0.3125, "velocity": 96, "channel": 2}, {"time_played": 20.625, "midi_note": 81, "frequency": 880, "note_held": 0.3125, "velocity": 96, "channel": 2}, {"time_played": 20.9375, "midi_note": 72, "frequency": 523.25, "note_held": 0.3125, "velocity": 127, "channel": 0}, {"time_played": 20.9375, "midi_note": 81, "frequency": 880, "note_held": 0.3125, "velocity": 127, "channel": 0}, {"time_played": 20.9375, "midi_note": 72, "frequency": 523.25, "note_held": 0.3125, "velocity": 96, "channel": 2}, {"time_played": 20.9375, "midi_note": 81, "frequency": 880, "note_held": 0.3125, "velocity": 96, "channel": 2}, {"time_played": 21.25, "midi_note": 72, "frequency": 523.25, "note_held": 0.3125, "velocity": 127, "channel": 0}, {"time_played": 21.25, "midi_note": 81, "frequency": 880, "note_held": 0.3125, "velocity": 127, "channel": 0}, {"time_played": 21.25, "midi_note": 72, "frequency": 523.25, "note_held": 0.3125, "velocity": 96, "channel": 2}, {"time_played": 21.25, "midi_note": 81, "frequency": 880, "note_held": 0.3125, "velocity": 96, "channel": 2}, {"time_played": 21.5625, "midi_note": 72, "frequency": 523.25, "note_held": 0.3125, "velocity": 127, "channel": 0}, {"time_played": 21.5625, "midi_note": 81, "frequency": 880, "note_held": 0.3125, "velocity": 127, "channel": 0}, {"time_played": 21.5625, "midi_note": 72, "frequency": 523.25, "note_held": 0.3125, "velocity": 96, "channel": 2}, {"time_played": 21.5625, "midi_note": 81, "frequency": 880, "note_held": 0.3125, "velocity": 96, "channel": 2}, {"time_played": 21.875, "midi_note": 72, "frequency": 523.25, "note_held": 0.3125, "velocity": 127, "channel": 0}, {"time_played": 21.875, "midi_note": 81, "frequency": 880, "note_held": 0.3125, "velocity": 127, "channel": 0}, {"time_played": 21.875, "midi_note": 72, "frequency": 523.25, "note_held": 0.3125, "velocity": 96, "channel": 2}, {"time_played": 21.875, "midi_note": 81, "frequency": 880, "note_held": 0.3125, "velocity": 96, "channel": 2}, {"time_played": 22.1875, "midi_note": 72, "frequency": 523.25, "note_held": 0.3125, "velocity": 127, "channel": 0}, {"time_played": 22.1875, "midi_note": 81, "frequency": 880, "note_held": 0.3125, "velocity": 127, "channel": 0}, {"time_played": 22.1875, "midi_note": 72, "frequency": 523.25, "note_held": 0.3125, "velocity": 96, "channel": 2}, {"time_played": 22.1875, "midi_note": 81, "frequency": 880, "note_held": 0.3125, "velocity": 96, "channel": 2}, {"time_played": 22.5, "midi_note": 72, "frequency": 523.25, "note_held": 0.3125, "velocity": 127, "channel": 0}, {"time_played": 22.5, "midi_note": 81, "frequency": 880, "note_held": 0.3125, "velocity": 127, "channel": 0}, {"time_played": 22.5, "midi_note": 72, "frequency": 523.25, "note_held": 0.3125, "velocity": 96, "channel": 2}, {"time_played": 22.5, "midi_note": 81, "frequency": 880, "note_held": 0.3125, "velocity": 96, "channel": 2}, {"time_played": 22.8125, "midi_note": 72, "frequency": 523.25, "note_held": 0.3125, "velocity": 127, "channel": 0}, {"time_played": 22.8125, "midi_note": 81, "frequency": 880, "note_held": 0.3125, "velocity": 127, "channel": 0}, {"time_played": 22.8125, "midi_note": 72, "frequency": 523.25, "note_held": 0.3125, "velocity": 96, "channel": 2}, {"time_played": 22.8125, "midi_note": 81, "frequency": 880, "note_held": 0.3125, "velocity": 96, "channel": 2}, {"time_played": 23.125, "midi_note": 72, "frequency": 523.25, "note_held": 0.3125, "velocity": 127, "channel": 0}, {"time_played": 23.125, "midi_note": 81, "frequency": 880, "note_held": 0.3125, "velocity": 127, "channel": 0}, {"time_played": 23.125, "midi_note": 72, "frequency": 523.25, "note_held": 0.3125, "velocity": 96, "channel": 2}, {"time_played": 23.125, "midi_note": 81, "frequency": 880, "note_held": 0.3125, "velocity": 96, "channel": 2}, {"time_played": 23.4375, "midi_note": 71, "frequency": 493.88, "note_held": 0.3125, "velocity": 127, "channel": 0}, {"time_played": 23.4375, "midi_note": 79, "frequency": 783.99, "note_held": 0.3125, "velocity": 127, "channel": 0}, {"time_played": 23.4375, "midi_note": 71, "frequency": 493.88, "note_held": 0.3125, "velocity": 96, "channel": 2}, {"time_played": 23.4375, "midi_note": 79, "frequency": 783.99, "note_held": 0.3125, "velocity": 96, "channel": 2}, {"time_played": 23.75, "midi_note": 71, "frequency": 493.88, "note_held": 0.3125, "velocity": 127, "channel": 0}, {"time_played": 23.75, "midi_note": 79, "frequency": 783.99, "note_held": 0.3125, "velocity": 127, "channel": 0}, {"time_played": 23.75, "midi_note": 71, "frequency": 493.88, "note_held": 0.3125, "velocity": 96, "channel": 2}, {"time_played": 23.75, "midi_note": 79, "frequency": 783.99, "note_held": 0.3125, "velocity": 96, "channel": 2}, {"time_played": 24.0625, "midi_note": 71, "frequency": 493.88, "note_held": 0.3125, "velocity": 127, "channel": 0}, {"time_played": 24.0625, "midi_note": 79, "frequency": 783.99, "note_held": 0.3125, "velocity": 127, "channel": 0}, {"time_played": 24.0625, "midi_note": 71, "frequency": 493.88, "note_held": 0.3125, "velocity": 96, "channel": 2}, {"time_played": 24.0625, "midi_note": 79, "frequency": 783.99, "note_held": 0.3125, "velocity": 96, "channel": 2}, {"time_played": 24.375, "midi_note": 71, "frequency": 493.88, "note_held": 0.3125, "velocity": 127, "channel": 0}, {"time_played": 24.375, "midi_note": 79, "frequency": 783.99, "note_held": 0.3125, "velocity": 127, "channel": 0}, {"time_played": 24.375, "midi_note": 71, "frequency": 493.88, "note_held": 0.3125, "velocity": 96, "channel": 2}, {"time_played": 24.375, "midi_note": 79, "frequency": 783.99, "note_held": 0.3125, "velocity": 96, "channel": 2}, {"time_played": 24.6875, "midi_note": 71, "frequency": 493.88, "note_held": 0.3125, "velocity": 127, "channel": 0}, {"time_played": 24.6875, "midi_note": 79, "frequency": 783.99, "note_held": 0.3125, "velocity": 127, "channel": 0}, {"time_played": 24.6875, "midi_note": 71, "frequency": 493.88, "note_held": 0.3125, "velocity": 96, "channel": 2}, {"time_played": 24.6875, "midi_note": 79, "frequency": 783.99, "note_held": 0.3125, "velocity": 96, "channel": 2}, {"time_played": 25.0, "midi_note": 72, "frequency": 523.25, "note_held": 0.3125, "velocity": 127, "channel": 0}, {"time_played": 25.0, "midi_note": 81, "frequency": 880, "note_held": 0.3125, "velocity": 127, "channel": 0}, {"time_played": 25.0, "midi_note": 72, "frequency": 523.25, "note_held": 0.3125, "velocity": 96, "channel": 2}, {"time_played": 25.0, "midi_note": 81, "frequency": 880, "note_held": 0.3125, "velocity": 96, "channel": 2}, {"time_played": 25.3125, "midi_note": 72, "frequency": 523.25, "note_held": 0.3125, "velocity": 127, "channel": 0}, {"time_played": 25.3125, "midi_note": 81, "frequency": 880, "note_held": 0.3125, "velocity": 127, "channel": 0}, {"time_played": 25.3125, "midi_note": 72, "frequency": 523.25, "note_held": 0.3125, "velocity": 96, "channel": 2}, {"time_played": 25.3125, "midi_note": 81, "frequency": 880, "note_held": 0.3125, "velocity": 96, "channel": 2}, {"time_played": 25.625, "midi_note": 72, "frequency": 523.25, "note_held": 0.3125, "velocity": 127, "channel": 0}, {"time_played": 25.625, "midi_note": 81, "frequency": 880, "note_held": 0.3125, "velocity": 127, "channel": 0}, {"time_played": 25.625, "midi_note": 72, "frequency": 523.25, "note_held": 0.3125, "velocity": 96, "channel": 2}, {"time_played": 25.625, "midi_note": 81, "frequency": 880, "note_held": 0.3125, "velocity": 96, "channel": 2}, {"time_played": 25.9375, "midi_note": 72, "frequency": 523.25, "note_held": 0.3125, "velocity": 127, "channel": 0}, {"time_played": 25.9375, "midi_note": 81, "frequency": 880, "note_held": 0.3125, "velocity": 127, "channel": 0}, {"time_played": 25.9375, "midi_note": 72, "frequency": 523.25, "note_held": 0.3125, "velocity": 96, "channel": 2}, {"time_played": 25.9375, "midi_note": 81, "frequency": 880, "note_held": 0.3125, "velocity": 96, "channel": 2}, {"time_played": 26.25, "midi_note": 72, "frequency": 523.25, "note_held": 0.3125, "velocity": 127, "channel": 0}, {"time_played": 26.25, "midi_note": 81, "frequency": 880, "note_held": 0.3125, "velocity": 127, "channel": 0}, {"time_played": 26.25, "midi_note": 72, "frequency": 523.25, "note_held": 0.3125, "velocity": 96, "channel": 2}, {"time_played": 26.25, "midi_note": 81, "frequency": 880, "note_held": 0.3125, "velocity": 96, "channel": 2}, {"time_played": 26.5625, "midi_note": 72, "frequency": 523.25, "note_held": 0.3125, "velocity": 127, "channel": 0}, {"time_played": 26.5625, "midi_note": 81, "frequency": 880, "note_held": 0.3125, "velocity": 127, "channel": 0}, {"time_played": 26.5625, "midi_note": 72, "frequency": 523.25, "note_held": 0.3125, "velocity": 96, "channel": 2}, {"time_played": 26.5625, "midi_note": 81, "frequency": 880, "note_held": 0.3125, "velocity": 96, "channel": 2}, {"time_played": 26.875, "midi_note": 72, "frequency": 523.25, "note_held": 0.3125, "velocity": 127, "channel": 0}, {"time_played": 26.875, "midi_note": 81, "frequency": 880, "note_held": 0.3125, "velocity": 127, "channel": 0}, {"time_played": 26.875, "midi_note": 72, "frequency": 523.25, "note_held": 0.3125, "velocity": 96, "channel": 2}, {"time_played": 26.875, "midi_note": 81, "frequency": 880, "note_held": 0.3125, "velocity": 96, "channel": 2}, {"time_played": 27.1875, "midi_note": 72, "frequency": 523.25, "note_held": 0.3125, "velocity": 127, "channel": 0}, {"time_played": 27.1875, "midi_note": 81, "frequency": 880, "note_held": 0.3125, "velocity": 127, "channel": 0}, {"time_played": 27.1875, "midi_note": 72, "frequency": 523.25, "note_held": 0.3125, "velocity": 96, "channel": 2}, {"time_played": 27.1875, "midi_note": 81, "frequency": 880, "note_held": 0.3125, "velocity": 96, "channel": 2}, {"time_played": 27.5, "midi_note": 72, "frequency": 523.25, "note_held": 0.3125, "velocity": 127, "channel": 0}, {"time_played": 27.5, "midi_note": 81, "frequency": 880, "note_held": 0.3125, "velocity": 127, "channel": 0}, {"time_played": 27.5, "midi_note": 72, "frequency": 523.25, "note_held": 0.3125, "velocity": 96, "channel": 2}, {"time_played": 27.5, "midi_note": 81, "frequency": 880, "note_held": 0.3125, "velocity": 96, "channel": 2}, {"time_played": 27.8125, "midi_note": 72, "frequency": 523.25, "note_held": 0.3125, "velocity": 127, "channel": 0}, {"time_played": 27.8125, "midi_note": 81, "frequency": 880, "note_held": 0.3125, "velocity": 127, "channel": 0}, {"time_played": 27.8125, "midi_note": 72, "frequency": 523.25, "note_held": 0.3125, "velocity": 96, "channel": 2}, {"time_played": 27.8125, "midi_note": 81, "frequency": 880, "note_held": 0.3125, "velocity": 96, "channel": 2}, {"time_played": 28.125, "midi_note": 72, "frequency": 523.25, "note_held": 0.3125, "velocity": 127, "channel": 0}, {"time_played": 28.125, "midi_note": 81, "frequency": 880, "note_held": 0.3125, "velocity": 127, "channel": 0}, {"time_played": 28.125, "midi_note": 72, "frequency": 523.25, "note_held": 0.3125, "velocity": 96, "channel": 2}, {"time_played": 28.125, "midi_note": 81, "frequency": 880, "note_held": 0.3125, "velocity": 96, "channel": 2}, {"time_played": 28.4375, "midi_note": 71, "frequency": 493.88, "note_held": 0.3125, "velocity": 127, "channel": 0}, {"time_played": 28.4375, "midi_note": 79, "frequency": 783.99, "note_held": 0.3125, "velocity": 127, "channel": 0}, {"time_played": 28.4375, "midi_note": 71, "frequency": 493.88, "note_held": 0.3125, "velocity": 96, "channel": 2}, {"time_played": 28.4375, "midi_note": 79, "frequency": 783.99, "note_held": 0.3125, "velocity": 96, "channel": 2}, {"time_played": 28.75, "midi_note": 71, "frequency": 493.88, "note_held": 0.3125, "velocity": 127, "channel": 0}, {"time_played": 28.75, "midi_note": 79, "frequency": 783.99, "note_held": 0.3125, "velocity": 127, "channel": 0}, {"time_played": 28.75, "midi_note": 71, "frequency": 493.88, "note_held": 0.3125, "velocity": 96, "channel": 2}, {"time_played": 28.75, "midi_note": 79, "frequency": 783.99, "note_held": 0.3125, "velocity": 96, "channel": 2}, {"time_played": 29.0625, "midi_note": 71, "frequency": 493.88, "note_held": 0.3125, "velocity": 127, "channel": 0}, {"time_played": 29.0625, "midi_note": 79, "frequency": 783.99, "note_held": 0.3125, "velocity": 127, "channel": 0}, {"time_played": 29.0625, "midi_note": 71, "frequency": 493.88, "note_held": 0.3125, "velocity": 96, "channel": 2}, {"time_played": 29.0625, "midi_note": 79, "frequency": 783.99, "note_held": 0.3125, "velocity": 96, "channel": 2}, {"time_played": 29.375, "midi_note": 71, "frequency": 493.88, "note_held": 0.3125, "velocity": 127, "channel": 0}, {"time_played": 29.375, "midi_note": 79, "frequency": 783.99, "note_held": 0.3125, "velocity": 127, "channel": 0}, {"time_played": 29.375, "midi_note": 71, "frequency": 493.88, "note_held": 0.3125, "velocity": 96, "channel": 2}, {"time_played": 29.375, "midi_note": 79, "frequency": 783.99, "note_held": 0.3125, "velocity": 96, "channel": 2}, {"time_played": 29.6875, "midi_note": 71, "frequency": 493.88, "note_held": 0.3125, "velocity": 127, "channel": 0}, {"time_played": 29.6875, "midi_note": 79, "frequency": 783.99, "note_held": 0.3125, "velocity": 127, "channel": 0}, {"time_played": 29.6875, "midi_note": 71, "frequency": 493.88, "note_held": 0.3125, "velocity": 96, "channel": 2}, {"time_played": 29.6875, "midi_note": 79, "frequency": 783.99, "note_held": 0.3125, "velocity": 96, "channel": 2}, {"time_played": 30.0, "midi_note": 72, "frequency": 523.25, "note_held": 0.3125, "velocity": 127, "channel": 0}, {"time_played": 30.0, "midi_note": 81, "frequency": 880, "note_held": 0.3125, "velocity": 127, "channel": 0}, {"time_played": 30.0, "midi_note": 72, "frequency": 523.25, "note_held": 0.3125, "velocity": 96, "channel": 2}, {"time_played": 30.0, "midi_note": 81, "frequency": 880, "note_held": 0.3125, "velocity": 96, "channel": 2}, {"time_played": 30.3125, "midi_note": 72, "frequency": 523.25, "note_held": 0.3125, "velocity": 127, "channel": 0}, {"time_played": 30.3125, "midi_note": 81, "frequency": 880, "note_held": 0.3125, "velocity": 127, "channel": 0}, {"time_played": 30.3125, "midi_note": 72, "frequency": 523.25, "note_held": 0.3125, "velocity": 96, "channel": 2}, {"time_played": 30.3125, "midi_note": 81, "frequency": 880, "note_held": 0.3125, "velocity": 96, "channel": 2}, {"time_played": 30.625, "midi_note": 72, "frequency": 523.25, "note_held": 0.3125, "velocity": 127, "channel": 0}, {"time_played": 30.625, "midi_note": 81, "frequency": 880, "note_held": 0.3125, "velocity": 127, "channel": 0}, {"time_played": 30.625, "midi_note": 72, "frequency": 523.25, "note_held": 0.3125, "velocity": 96, "channel": 2}, {"time_played": 30.625, "midi_note": 81, "frequency": 880, "note_held": 0.3125, "velocity": 96, "channel": 2}, {"time_played": 30.9375, "midi_note": 72, "frequency": 523.25, "note_held": 0.3125, "velocity": 127, "channel": 0}, {"time_played": 30.9375, "midi_note": 81, "frequency": 880, "note_held": 0.3125, "velocity": 127, "channel": 0}, {"time_played": 30.9375, "midi_note": 72, "frequency": 523.25, "note_held": 0.3125, "velocity": 96, "channel": 2}, {"time_played": 30.9375, "midi_note": 81, "frequency": 880, "note_held": 0.3125, "velocity": 96, "channel": 2}, {"time_played": 31.25, "midi_note": 72, "frequency": 523.25, "note_held": 0.3125, "velocity": 127, "channel": 0}, {"time_played": 31.25, "midi_note": 81, "frequency": 880, "note_held": 0.3125, "velocity": 127, "channel": 0}, {"time_played": 31.25, "midi_note": 72, "frequency": 523.25, "note_held": 0.3125, "velocity": 96, "channel": 2}, {"time_played": 31.25, "midi_note": 81, "frequency": 880, "note_held": 0.3125, "velocity": 96, "channel": 2}, {"time_played": 31.5625, "midi_note": 72, "frequency": 523.25, "note_held": 0.3125, "velocity": 127, "channel": 0}, {"time_played": 31.5625, "midi_note": 81, "frequency": 880, "note_held": 0.3125, "velocity": 127, "channel": 0}, {"time_played": 31.5625, "midi_note": 72, "frequency": 523.25, "note_held": 0.3125, "velocity": 96, "channel": 2}, {"time_played": 31.5625, "midi_note": 81, "frequency": 880, "note_held": 0.3125, "velocity": 96, "channel": 2}, {"time_played": 31.875, "midi_note": 72, "frequency": 523.25, "note_held": 0.3125, "velocity": 127, "channel": 0}, {"time_played": 31.875, "midi_note": 81, "frequency": 880, "note_held": 0.3125, "velocity": 127, "channel": 0}, {"time_played": 31.875, "midi_note": 72, "frequency": 523.25, "note_held": 0.3125, "velocity": 96, "channel": 2}, {"time_played": 31.875, "midi_note": 81, "frequency": 880, "note_held": 0.3125, "velocity": 96, "channel": 2}, {"time_played": 32.1875, "midi_note": 72, "frequency": 523.25, "note_held": 0.3125, "velocity": 127, "channel": 0}, {"time_played": 32.1875, "midi_note": 81, "frequency": 880, "note_held": 0.3125, "velocity": 127, "channel": 0}, {"time_played": 32.1875, "midi_note": 72, "frequency": 523.25, "note_held": 0.3125, "velocity": 96, "channel": 2}, {"time_played": 32.1875, "midi_note": 81, "frequency": 880, "note_held": 0.3125, "velocity": 96, "channel": 2}, {"time_played": 32.5, "midi_note": 72, "frequency": 523.25, "note_held": 0.3125, "velocity": 127, "channel": 0}, {"time_played": 32.5, "midi_note": 81, "frequency": 880, "note_held": 0.3125, "velocity": 127, "channel": 0}, {"time_played": 32.5, "midi_note": 72, "frequency": 523.25, "note_held": 0.3125, "velocity": 96, "channel": 2}, {"time_played": 32.5, "midi_note": 81, "frequency": 880, "note_held": 0.3125, "velocity": 96, "channel": 2}, {"time_played": 32.8125, "midi_note": 72, "frequency": 523.25, "note_held": 0.3125, "velocity": 127, "channel": 0}, {"time_played": 32.8125, "midi_note": 81, "frequency": 880, "note_held": 0.3125, "velocity": 127, "channel": 0}, {"time_played": 32.8125, "midi_note": 72, "frequency": 523.25, "note_held": 0.3125, "velocity": 96, "channel": 2}, {"time_played": 32.8125, "midi_note": 81, "frequency": 880, "note_held": 0.3125, "velocity": 96, "channel": 2}, {"time_played": 33.125, "midi_note": 72, "frequency": 523.25, "note_held": 0.3125, "velocity": 127, "channel": 0}, {"time_played": 33.125, "midi_note": 81, "frequency": 880, "note_held": 0.3125, "velocity": 127, "channel": 0}, {"time_played": 33.125, "midi_note": 72, "frequency": 523.25, "note_held": 0.3125, "velocity": 96, "channel": 2}, {"time_played": 33.125, "midi_note": 81, "frequency": 880, "note_held": 0.3125, "velocity": 96, "channel": 2}, {"time_played": 33.4375, "midi_note": 71, "frequency": 493.88, "note_held": 0.3125, "velocity": 127, "channel": 0}, {"time_played": 33.4375, "midi_note": 79, "frequency": 783.99, "note_held": 0.3125, "velocity": 127, "channel": 0}, {"time_played": 33.4375, "midi_note": 71, "frequency": 493.88, "note_held": 0.3125, "velocity": 96, "channel": 2}, {"time_played": 33.4375, "midi_note": 79, "frequency": 783.99, "note_held": 0.3125, "velocity": 96, "channel": 2}, {"time_played": 33.75, "midi_note": 71, "frequency": 493.88, "note_held": 0.3125, "velocity": 127, "channel": 0}, {"time_played": 33.75, "midi_note": 79, "frequency": 783.99, "note_held": 0.3125, "velocity": 127, "channel": 0}, {"time_played": 33.75, "midi_note": 71, "frequency": 493.88, "note_held": 0.3125, "velocity": 96, "channel": 2}, {"time_played": 33.75, "midi_note": 79, "frequency": 783.99, "note_held": 0.3125, "velocity": 96, "channel": 2}, {"time_played": 34.0625, "midi_note": 71, "frequency": 493.88, "note_held": 0.3125, "velocity": 127, "channel": 0}, {"time_played": 34.0625, "midi_note": 79, "frequency": 783.99, "note_held": 0.3125, "velocity": 127, "channel": 0}, {"time_played": 34.0625, "midi_note": 71, "frequency": 493.88, "note_held": 0.3125, "velocity": 96, "channel": 2}, {"time_played": 34.0625, "midi_note": 79, "frequency": 783.99, "note_held": 0.3125, "velocity": 96, "channel": 2}, {"time_played": 34.375, "midi_note": 71, "frequency": 493.88, "note_held": 0.3125, "velocity": 127, "channel": 0}, {"time_played": 34.375, "midi_note": 79, "frequency": 783.99, "note_held": 0.3125, "velocity": 127, "channel": 0}, {"time_played": 34.375, "midi_note": 71, "frequency": 493.88, "note_held": 0.3125, "velocity": 96, "channel": 2}, {"time_played": 34.375, "midi_note": 79, "frequency": 783.99, "note_held": 0.3125, "velocity": 96, "channel": 2}, {"time_played": 34.6875, "midi_note": 71, "frequency": 493.88, "note_held": 0.3125, "velocity": 127, "channel": 0}, {"time_played": 34.6875, "midi_note": 79, "frequency": 783.99, "note_held": 0.3125, "velocity": 127, "channel": 0}, {"time_played": 34.6875, "midi_note": 71, "frequency": 493.88, "note_held": 0.3125, "velocity": 96, "channel": 2}, {"time_played": 34.6875, "midi_note": 79, "frequency": 783.99, "note_held": 0.3125, "velocity": 96, "channel": 2}, {"time_played": 35.0, "midi_note": 72, "frequency": 523.25, "note_held": 0.3125, "velocity": 127, "channel": 0}, {"time_played": 35.0, "midi_note": 81, "frequency": 880, "note_held": 0.3125, "velocity": 127, "channel": 0}, {"time_played": 35.0, "midi_note": 72, "frequency": 523.25, "note_held": 0.3125, "velocity": 96, "channel": 2}, {"time_played": 35.0, "midi_note": 81, "frequency": 880, "note_held": 0.3125, "velocity": 96, "channel": 2}, {"time_played": 35.3125, "midi_note": 72, "frequency": 523.25, "note_held": 0.3125, "velocity": 127, "channel": 0}, {"time_played": 35.3125, "midi_note": 81, "frequency": 880, "note_held": 0.3125, "velocity": 127, "channel": 0}, {"time_played": 35.3125, "midi_note": 72, "frequency": 523.25, "note_held": 0.3125, "velocity": 96, "channel": 2}, {"time_played": 35.3125, "midi_note": 81, "frequency": 880, "note_held": 0.3125, "velocity": 96, "channel": 2}, {"time_played": 35.625, "midi_note": 72, "frequency": 523.25, "note_held": 0.3125, "velocity": 127, "channel": 0}, {"time_played": 35.625, "midi_note": 81, "frequency": 880, "note_held": 0.3125, "velocity": 127, "channel": 0}, {"time_played": 35.625, "midi_note": 72, "frequency": 523.25, "note_held": 0.3125, "velocity": 96, "channel": 2}, {"time_played": 35.625, "midi_note": 81, "frequency": 880, "note_held": 0.3125, "velocity": 96, "channel": 2}, {"time_played": 35.9375, "midi_note": 72, "frequency": 523.25, "note_held": 0.3125, "velocity": 127, "channel": 0}, {"time_played": 35.9375, "midi_note": 81, "frequency": 880, "note_held": 0.3125, "velocity": 127, "channel": 0}, {"time_played": 35.9375, "midi_note": 72, "frequency": 523.25, "note_held": 0.3125, "velocity": 96, "channel": 2}, {"time_played": 35.9375, "midi_note": 81, "frequency": 880, "note_held": 0.3125, "velocity": 96, "channel": 2}, {"time_played": 36.25, "midi_note": 72, "frequency": 523.25, "note_held": 0.3125, "velocity": 127, "channel": 0}, {"time_played": 36.25, "midi_note": 81, "frequency": 880, "note_held": 0.3125, "velocity": 127, "channel": 0}, {"time_played": 36.25, "midi_note": 72, "frequency": 523.25, "note_held": 0.3125, "velocity": 96, "channel": 2}, {"time_played": 36.25, "midi_note": 81, "frequency": 880, "note_held": 0.3125, "velocity": 96, "channel": 2}, {"time_played": 36.5625, "midi_note": 72, "frequency": 523.25, "note_held": 0.3125, "velocity": 127, "channel": 0}, {"time_played": 36.5625, "midi_note": 81, "frequency": 880, "note_held": 0.3125, "velocity": 127, "channel": 0}, {"time_played": 36.5625, "midi_note": 72, "frequency": 523.25, "note_held": 0.3125, "velocity": 96, "channel": 2}, {"time_played": 36.5625, "midi_note": 81, "frequency": 880, "note_held": 0.3125, "velocity": 96, "channel": 2}, {"time_played": 36.875, "midi_note": 72, "frequency": 523.25, "note_held": 0.3125, "velocity": 127, "channel": 0}, {"time_played": 36.875, "midi_note": 81, "frequency": 880, "note_held": 0.3125, "velocity": 127, "channel": 0}, {"time_played": 36.875, "midi_note": 72, "frequency": 523.25, "note_held": 0.3125, "velocity": 96, "channel": 2}, {"time_played": 36.875, "midi_note": 81, "frequency": 880, "note_held": 0.3125, "velocity": 96, "channel": 2}, {"time_played": 37.1875, "midi_note": 72, "frequency": 523.25, "note_held": 0.3125, "velocity": 127, "channel": 0}, {"time_played": 37.1875, "midi_note": 81, "frequency": 880, "note_held": 0.3125, "velocity": 127, "channel": 0}, {"time_played": 37.1875, "midi_note": 72, "frequency": 523.25, "note_held": 0.3125, "velocity": 96, "channel": 2}, {"time_played": 37.1875, "midi_note": 81, "frequency": 880, "note_held": 0.3125, "velocity": 96, "channel": 2}, {"time_played": 37.5, "midi_note": 72, "frequency": 523.25, "note_held": 0.3125, "velocity": 127, "channel": 0}, {"time_played": 37.5, "midi_note": 81, "frequency": 880, "note_held": 0.3125, "velocity": 127, "channel": 0}, {"time_played": 37.5, "midi_note": 72, "frequency": 523.25, "note_held": 0.3125, "velocity": 96, "channel": 2}, {"time_played": 37.5, "midi_note": 81, "frequency": 880, "note_held": 0.3125, "velocity": 96, "channel": 2}, {"time_played": 37.8125, "midi_note": 72, "frequency": 523.25, "note_held": 0.3125, "velocity": 127, "channel": 0}, {"time_played": 37.8125, "midi_note": 81, "frequency": 880, "note_held": 0.3125, "velocity": 127, "channel": 0}, {"time_played": 37.8125, "midi_note": 72, "frequency": 523.25, "note_held": 0.3125, "velocity": 96, "channel": 2}, {"time_played": 37.8125, "midi_note": 81, "frequency": 880, "note_held": 0.3125, "velocity": 96, "channel": 2}, {"time_played": 38.125, "midi_note": 72, "frequency": 523.25, "note_held": 0.3125, "velocity": 127, "channel": 0}, {"time_played": 38.125, "midi_note": 81, "frequency": 880, "note_held": 0.3125, "velocity": 127, "channel": 0}, {"time_played": 38.125, "midi_note": 72, "frequency": 523.25, "note_held": 0.3125, "velocity": 96, "channel": 2}, {"time_played": 38.125, "midi_note": 81, "frequency": 880, "note_held": 0.3125, "velocity": 96, "channel": 2}, {"time_played": 38.4375, "midi_note": 71, "frequency": 493.88, "note_held": 0.3125, "velocity": 127, "channel": 0}, {"time_played": 38.4375, "midi_note": 79, "frequency": 783.99, "note_held": 0.3125, "velocity": 127, "channel": 0}, {"time_played": 38.4375, "midi_note": 71, "frequency": 493.88, "note_held": 0.3125, "velocity": 96, "channel": 2}, {"time_played": 38.4375, "midi_note": 79, "frequency": 783.99, "note_held": 0.3125, "velocity": 96, "channel": 2}, {"time_played": 38.75, "midi_note": 71, "frequency": 493.88, "note_held": 0.3125, "velocity": 127, "channel": 0}, {"time_played": 38.75, "midi_note": 79, "frequency": 783.99, "note_held": 0.3125, "velocity": 127, "channel": 0}, {"time_played": 38.75, "midi_note": 71, "frequency": 493.88, "note_held": 0.3125, "velocity": 96, "channel": 2}, {"time_played": 38.75, "midi_note": 79, "frequency": 783.99, "note_held": 0.3125, "velocity": 96, "channel": 2}, {"time_played": 39.0625, "midi_note": 71, "frequency": 493.88, "note_held": 0.3125, "velocity": 127, "channel": 0}, {"time_played": 39.0625, "midi_note": 79, "frequency": 783.99, "note_held": 0.3125, "velocity": 127, "channel": 0}, {"time_played": 39.0625, "midi_note": 71, "frequency": 493.88, "note_held": 0.3125, "velocity": 96, "channel": 2}, {"time_played": 39.0625, "midi_note": 79, "frequency": 783.99, "note_held": 0.3125, "velocity": 96, "channel": 2}, {"time_played": 39.375, "midi_note": 71, "frequency": 493.88, "note_held": 0.3125, "velocity": 127, "channel": 0}, {"time_played": 39.375, "midi_note": 79, "frequency": 783.99, "note_held": 0.3125, "velocity": 127, "channel": 0}, {"time_played": 39.375, "midi_note": 71, "frequency": 493.88, "note_held": 0.3125, "velocity": 96, "channel": 2}, {"time_played": 39.375, "midi_note": 79, "frequency": 783.99, "note_held": 0.3125, "velocity": 96, "channel": 2}, {"time_played": 39.6875, "midi_note": 71, "frequency": 493.88, "note_held": 0.3125, "velocity": 127, "channel": 0}, {"time_played": 39.6875, "midi_note": 79, "frequency": 783.99, "note_held": 0.3125, "velocity": 127, "channel": 0}, {"time_played": 39.6875, "midi_note": 71, "frequency": 493.88, "note_held": 0.3125, "velocity": 96, "channel": 2}, {"time_played": 39.6875, "midi_note": 79, "frequency": 783.99, "note_held": 0.3125, "velocity": 96, "channel": 2}, {"time_played": 40.0, "midi_note": 72, "frequency": 523.25, "note_held": 0.3125, "velocity": 127, "channel": 0}, {"time_played": 40.0, "midi_note": 81, "frequency": 880, "note_held": 0.3125, "velocity": 127, "channel": 0}, {"time_played": 40.0, "midi_note": 72, "frequency": 523.25, "note_held": 0.3125, "velocity": 96, "channel": 2}, {"time_played": 40.0, "midi_note": 81, "frequency": 880, "note_held": 0.3125, "velocity": 96, "channel": 2}, {"time_played": 40.3125, "midi_note": 72, "frequency": 523.25, "note_held": 0.3125, "velocity": 127, "channel": 0}, {"time_played": 40.3125, "midi_note": 81, "frequency": 880, "note_held": 0.3125, "velocity": 127, "channel": 0}, {"time_played": 40.3125, "midi_note": 72, "frequency": 523.25, "note_held": 0.3125, "velocity": 96, "channel": 2}, {"time_played": 40.3125, "midi_note": 81, "frequency": 880, "note_held": 0.3125, "velocity": 96, "channel": 2}, {"time_played": 40.625, "midi_note": 72, "frequency": 523.25, "note_held": 0.3125, "velocity": 127, "channel": 0}, {"time_played": 40.625, "midi_note": 81, "frequency": 880, "note_held": 0.3125, "velocity": 127, "channel": 0}, {"time_played": 40.625, "midi_note": 72, "frequency": 523.25, "note_held": 0.3125, "velocity": 96, "channel": 2}, {"time_played": 40.625, "midi_note": 81, "frequency": 880, "note_held": 0.3125, "velocity": 96, "channel": 2}, {"time_played": 40.9375, "midi_note": 72, "frequency": 523.25, "note_held": 0.3125, "velocity": 127, "channel": 0}, {"time_played": 40.9375, "midi_note": 81, "frequency": 880, "note_held": 0.3125, "velocity": 127, "channel": 0}, {"time_played": 40.9375, "midi_note": 72, "frequency": 523.25, "note_held": 0.3125, "velocity": 96, "channel": 2}, {"time_played": 40.9375, "midi_note": 81, "frequency": 880, "note_held": 0.3125, "velocity": 96, "channel": 2}, {"time_played": 41.25, "midi_note": 72, "frequency": 523.25, "note_held": 0.3125, "velocity": 127, "channel": 0}, {"time_played": 41.25, "midi_note": 81, "frequency": 880, "note_held": 0.3125, "velocity": 127, "channel": 0}, {"time_played": 41.25, "midi_note": 72, "frequency": 523.25, "note_held": 0.3125, "velocity": 96, "channel": 2}, {"time_played": 41.25, "midi_note": 81, "frequency": 880, "note_held": 0.3125, "velocity": 96, "channel": 2}, {"time_played": 41.5625, "midi_note": 72, "frequency": 523.25, "note_held": 0.3125, "velocity": 127, "channel": 0}, {"time_played": 41.5625, "midi_note": 81, "frequency": 880, "note_held": 0.3125, "velocity": 127, "channel": 0}, {"time_played": 41.5625, "midi_note": 72, "frequency": 523.25, "note_held": 0.3125, "velocity": 96, "channel": 2}, {"time_played": 41.5625, "midi_note": 81, "frequency": 880, "note_held": 0.3125, "velocity": 96, "channel": 2}, {"time_played": 41.875, "midi_note": 72, "frequency": 523.25, "note_held": 0.3125, "velocity": 127, "channel": 0}, {"time_played": 41.875, "midi_note": 81, "frequency": 880, "note_held": 0.3125, "velocity": 127, "channel": 0}, {"time_played": 41.875, "midi_note": 72, "frequency": 523.25, "note_held": 0.3125, "velocity": 96, "channel": 2}, {"time_played": 41.875, "midi_note": 81, "frequency": 880, "note_held": 0.3125, "velocity": 96, "channel": 2}, {"time_played": 42.1875, "midi_note": 72, "frequency": 523.25, "note_held": 0.3125, "velocity": 127, "channel": 0}, {"time_played": 42.1875, "midi_note": 81, "frequency": 880, "note_held": 0.3125, "velocity": 127, "channel": 0}, {"time_played": 42.1875, "midi_note": 72, "frequency": 523.25, "note_held": 0.3125, "velocity": 96, "channel": 2}, {"time_played": 42.1875, "midi_note": 81, "frequency": 880, "note_held": 0.3125, "velocity": 96, "channel": 2}, {"time_played": 42.5, "midi_note": 72, "frequency": 523.25, "note_held": 0.3125, "velocity": 127, "channel": 0}, {"time_played": 42.5, "midi_note": 81, "frequency": 880, "note_held": 0.3125, "velocity": 127, "channel": 0}, {"time_played": 42.5, "midi_note": 72, "frequency": 523.25, "note_held": 0.3125, "velocity": 96, "channel": 2}, {"time_played": 42.5, "midi_note": 81, "frequency": 880, "note_held": 0.3125, "velocity": 96, "channel": 2}, {"time_played": 42.8125, "midi_note": 72, "frequency": 523.25, "note_held": 0.3125, "velocity": 127, "channel": 0}, {"time_played": 42.8125, "midi_note": 81, "frequency": 880, "note_held": 0.3125, "velocity": 127, "channel": 0}, {"time_played": 42.8125, "midi_note": 72, "frequency": 523.25, "note_held": 0.3125, "velocity": 96, "channel": 2}, {"time_played": 42.8125, "midi_note": 81, "frequency": 880, "note_held": 0.3125, "velocity": 96, "channel": 2}, {"time_played": 43.125, "midi_note": 72, "frequency": 523.25, "note_held": 0.3125, "velocity": 127, "channel": 0}, {"time_played": 43.125, "midi_note": 81, "frequency": 880, "note_held": 0.3125, "velocity": 127, "channel": 0}, {"time_played": 43.125, "midi_note": 72, "frequency": 523.25, "note_held": 0.3125, "velocity": 96, "channel": 2}, {"time_played": 43.125, "midi_note": 81, "frequency": 880, "note_held": 0.3125, "velocity": 96, "channel": 2}, {"time_played": 43.4375, "midi_note": 71, "frequency": 493.88, "note_held": 0.3125, "velocity": 127, "channel": 0}, {"time_played": 43.4375, "midi_note": 79, "frequency": 783.99, "note_held": 0.3125, "velocity": 127, "channel": 0}, {"time_played": 43.4375, "midi_note": 71, "frequency": 493.88, "note_held": 0.3125, "velocity": 96, "channel": 2}, {"time_played": 43.4375, "midi_note": 79, "frequency": 783.99, "note_held": 0.3125, "velocity": 96, "channel": 2}, {"time_played": 43.75, "midi_note": 71, "frequency": 493.88, "note_held": 0.3125, "velocity": 127, "channel": 0}, {"time_played": 43.75, "midi_note": 79, "frequency": 783.99, "note_held": 0.3125, "velocity": 127, "channel": 0}, {"time_played": 43.75, "midi_note": 71, "frequency": 493.88, "note_held": 0.3125, "velocity": 96, "channel": 2}, {"time_played": 43.75, "midi_note": 79, "frequency": 783.99, "note_held": 0.3125, "velocity": 96, "channel": 2}, {"time_played": 44.0625, "midi_note": 71, "frequency": 493.88, "note_held": 0.3125, "velocity": 127, "channel": 0}, {"time_played": 44.0625, "midi_note": 79, "frequency": 783.99, "note_held": 0.3125, "velocity": 127, "channel": 0}, {"time_played": 44.0625, "midi_note": 71, "frequency": 493.88, "note_held": 0.3125, "velocity": 96, "channel": 2}, {"time_played": 44.0625, "midi_note": 79, "frequency": 783.99, "note_held": 0.3125, "velocity": 96, "channel": 2}, {"time_played": 44.375, "midi_note": 71, "frequency": 493.88, "note_held": 0.3125, "velocity": 127, "channel": 0}, {"time_played": 44.375, "midi_note": 79, "frequency": 783.99, "note_held": 0.3125, "velocity": 127, "channel": 0}, {"time_played": 44.375, "midi_note": 71, "frequency": 493.88, "note_held": 0.3125, "velocity": 96, "channel": 2}, {"time_played": 44.375, "midi_note": 79, "frequency": 783.99, "note_held": 0.3125, "velocity": 96, "channel": 2}, {"time_played": 44.6875, "midi_note": 71, "frequency": 493.88, "note_held": 0.3125, "velocity": 127, "channel": 0}, {"time_played": 44.6875, "midi_note": 79, "frequency": 783.99, "note_held": 0.3125, "velocity": 127, "channel": 0}, {"time_played": 44.6875, "midi_note": 71, "frequency": 493.88, "note_held": 0.3125, "velocity": 96, "channel": 2}, {"time_played": 44.6875, "midi_note": 79, "frequency": 783.99, "note_held": 0.3125, "velocity": 96, "channel": 2}, {"time_played": 45.0, "midi_note": 72, "frequency": 523.25, "note_held": 0.3125, "velocity": 127, "channel": 0}, {"time_played": 45.0, "midi_note": 81, "frequency": 880, "note_held": 0.3125, "velocity": 127, "channel": 0}, {"time_played": 45.0, "midi_note": 72, "frequency": 523.25, "note_held": 0.3125, "velocity": 96, "channel": 2}, {"time_played": 45.0, "midi_note": 81, "frequency": 880, "note_held": 0.3125, "velocity": 96, "channel": 2}, {"time_played": 45.3125, "midi_note": 72, "frequency": 523.25, "note_held": 0.3125, "velocity": 127, "channel": 0}, {"time_played": 45.3125, "midi_note": 81, "frequency": 880, "note_held": 0.3125, "velocity": 127, "channel": 0}, {"time_played": 45.3125, "midi_note": 72, "frequency": 523.25, "note_held": 0.3125, "velocity": 96, "channel": 2}, {"time_played": 45.3125, "midi_note": 81, "frequency": 880, "note_held": 0.3125, "velocity": 96, "channel": 2}, {"time_played": 45.625, "midi_note": 72, "frequency": 523.25, "note_held": 0.3125, "velocity": 127, "channel": 0}, {"time_played": 45.625, "midi_note": 81, "frequency": 880, "note_held": 0.3125, "velocity": 127, "channel": 0}, {"time_played": 45.625, "midi_note": 72, "frequency": 523.25, "note_held": 0.3125, "velocity": 96, "channel": 2}, {"time_played": 45.625, "midi_note": 81, "frequency": 880, "note_held": 0.3125, "velocity": 96, "channel": 2}, {"time_played": 45.9375, "midi_note": 72, "frequency": 523.25, "note_held": 0.3125, "velocity": 127, "channel": 0}, {"time_played": 45.9375, "midi_note": 81, "frequency": 880, "note_held": 0.3125, "velocity": 127, "channel": 0}, {"time_played": 45.9375, "midi_note": 72, "frequency": 523.25, "note_held": 0.3125, "velocity": 96, "channel": 2}, {"time_played": 45.9375, "midi_note": 81, "frequency": 880, "note_held": 0.3125, "velocity": 96, "channel": 2}, {"time_played": 46.25, "midi_note": 72, "frequency": 523.25, "note_held": 0.3125, "velocity": 127, "channel": 0}, {"time_played": 46.25, "midi_note": 81, "frequency": 880, "note_held": 0.3125, "velocity": 127, "channel": 0}, {"time_played": 46.25, "midi_note": 72, "frequency": 523.25, "note_held": 0.3125, "velocity": 96, "channel": 2}, {"time_played": 46.25, "midi_note": 81, "frequency": 880, "note_held": 0.3125, "velocity": 96, "channel": 2}, {"time_played": 46.5625, "midi_note": 72, "frequency": 523.25, "note_held": 0.3125, "velocity": 127, "channel": 0}, {"time_played": 46.5625, "midi_note": 81, "frequency": 880, "note_held": 0.3125, "velocity": 127, "channel": 0}, {"time_played": 46.5625, "midi_note": 72, "frequency": 523.25, "note_held": 0.3125, "velocity": 96, "channel": 2}, {"time_played": 46.5625, "midi_note": 81, "frequency": 880, "note_held": 0.3125, "velocity": 96, "channel": 2}, {"time_played": 46.875, "midi_note": 72, "frequency": 523.25, "note_held": 0.3125, "velocity": 127, "channel": 0}, {"time_played": 46.875, "midi_note": 81, "frequency": 880, "note_held": 0.3125, "velocity": 127, "channel": 0}, {"time_played": 46.875, "midi_note": 72, "frequency": 523.25, "note_held": 0.3125, "velocity": 96, "channel": 2}, {"time_played": 46.875, "midi_note": 81, "frequency": 880, "note_held": 0.3125, "velocity": 96, "channel": 2}, {"time_played": 47.1875, "midi_note": 72, "frequency": 523.25, "note_held": 0.3125, "velocity": 127, "channel": 0}, {"time_played": 47.1875, "midi_note": 81, "frequency": 880, "note_held": 0.3125, "velocity": 127, "channel": 0}, {"time_played": 47.1875, "midi_note": 72, "frequency": 523.25, "note_held": 0.3125, "velocity": 96, "channel": 2}, {"time_played": 47.1875, "midi_note": 81, "frequency": 880, "note_held": 0.3125, "velocity": 96, "channel": 2}, {"time_played": 47.5, "midi_note": 72, "frequency": 523.25, "note_held": 0.3125, "velocity": 127, "channel": 0}, {"time_played": 47.5, "midi_note": 81, "frequency": 880, "note_held": 0.3125, "velocity": 127, "channel": 0}, {"time_played": 47.5, "midi_note": 72, "frequency": 523.25, "note_held": 0.3125, "velocity": 96, "channel": 2}, {"time_played": 47.5, "midi_note": 81, "frequency": 880, "note_held": 0.3125, "velocity": 96, "channel": 2}, {"time_played": 47.8125, "midi_note": 72, "frequency": 523.25, "note_held": 0.3125, "velocity": 127, "channel": 0}, {"time_played": 47.8125, "midi_note": 81, "frequency": 880, "note_held": 0.3125, "velocity": 127, "channel": 0}, {"time_played": 47.8125, "midi_note": 72, "frequency": 523.25, "note_held": 0.3125, "velocity": 96, "channel": 2}, {"time_played": 47.8125, "midi_note": 81, "frequency": 880, "note_held": 0.3125, "velocity": 96, "channel": 2}, {"time_played": 48.125, "midi_note": 72, "frequency": 523.25, "note_held": 0.3125, "velocity": 127, "channel": 0}, {"time_played": 48.125, "midi_note": 81, "frequency": 880, "note_held": 0.3125, "velocity": 127, "channel": 0}, {"time_played": 48.125, "midi_note": 72, "frequency": 523.25, "note_held": 0.3125, "velocity": 96, "channel": 2}, {"time_played": 48.125, "midi_note": 81, "frequency": 880, "note_held": 0.3125, "velocity": 96, "channel": 2}, {"time_played": 48.4375, "midi_note": 71, "frequency": 493.88, "note_held": 0.3125, "velocity": 127, "channel": 0}, {"time_played": 48.4375, "midi_note": 79, "frequency": 783.99, "note_held": 0.3125, "velocity": 127, "channel": 0}, {"time_played": 48.4375, "midi_note": 71, "frequency": 493.88, "note_held": 0.3125, "velocity": 96, "channel": 2}, {"time_played": 48.4375, "midi_note": 79, "frequency": 783.99, "note_held": 0.3125, "velocity": 96, "channel": 2}, {"time_played": 48.75, "midi_note": 71, "frequency": 493.88, "note_held": 0.3125, "velocity": 127, "channel": 0}, {"time_played": 48.75, "midi_note": 79, "frequency": 783.99, "note_held": 0.3125, "velocity": 127, "channel": 0}, {"time_played": 48.75, "midi_note": 71, "frequency": 493.88, "note_held": 0.3125, "velocity": 96, "channel": 2}, {"time_played": 48.75, "midi_note": 79, "frequency": 783.99, "note_held": 0.3125, "velocity": 96, "channel": 2}, {"time_played": 49.0625, "midi_note": 71, "frequency": 493.88, "note_held": 0.3125, "velocity": 127, "channel": 0}, {"time_played": 49.0625, "midi_note": 79, "frequency": 783.99, "note_held": 0.3125, "velocity": 127, "channel": 0}, {"time_played": 49.0625, "midi_note": 71, "frequency": 493.88, "note_held": 0.3125, "velocity": 96, "channel": 2}, {"time_played": 49.0625, "midi_note": 79, "frequency": 783.99, "note_held": 0.3125, "velocity": 96, "channel": 2}, {"time_played": 49.375, "midi_note": 71, "frequency": 493.88, "note_held": 0.3125, "velocity": 127, "channel": 0}, {"time_played": 49.375, "midi_note": 79, "frequency": 783.99, "note_held": 0.3125, "velocity": 127, "channel": 0}, {"time_played": 49.375, "midi_note": 71, "frequency": 493.88, "note_held": 0.3125, "velocity": 96, "channel": 2}, {"time_played": 49.375, "midi_note": 79, "frequency": 783.99, "note_held": 0.3125, "velocity": 96, "channel": 2}, {"time_played": 49.6875, "midi_note": 71, "frequency": 493.88, "note_held": 0.3125, "velocity": 127, "channel": 0}, {"time_played": 49.6875, "midi_note": 79, "frequency": 783.99, "note_held": 0.3125, "velocity": 127, "channel": 0}, {"time_played": 49.6875, "midi_note": 71, "frequency": 493.88, "note_held": 0.3125, "velocity": 96, "channel": 2}, {"time_played": 49.6875, "midi_note": 79, "frequency": 783.99, "note_held": 0.3125, "velocity": 96, "channel": 2}, {"time_played": 50.0, "midi_note": 72, "frequency": 523.25, "note_held": 0.3125, "velocity": 127, "channel": 0}, {"time_played": 50.0, "midi_note": 81, "frequency": 880, "note_held": 0.3125, "velocity": 127, "channel": 0}, {"time_played": 50.0, "midi_note": 72, "frequency": 523.25, "note_held": 0.3125, "velocity": 96, "channel": 2}, {"time_played": 50.0, "midi_note": 81, "frequency": 880, "note_held": 0.3125, "velocity": 96, "channel": 2}, {"time_played": 50.3125, "midi_note": 72, "frequency": 523.25, "note_held": 0.3125, "velocity": 127, "channel": 0}, {"time_played": 50.3125, "midi_note": 81, "frequency": 880, "note_held": 0.3125, "velocity": 127, "channel": 0}, {"time_played": 50.3125, "midi_note": 72, "frequency": 523.25, "note_held": 0.3125, "velocity": 96, "channel": 2}, {"time_played": 50.3125, "midi_note": 81, "frequency": 880, "note_held": 0.3125, "velocity": 96, "channel": 2}, {"time_played": 50.625, "midi_note": 72, "frequency": 523.25, "note_held": 0.3125, "velocity": 127, "channel": 0}, {"time_played": 50.625, "midi_note": 81, "frequency": 880, "note_held": 0.3125, "velocity": 127, "channel": 0}, {"time_played": 50.625, "midi_note": 72, "frequency": 523.25, "note_held": 0.3125, "velocity": 96, "channel": 2}, {"time_played": 50.625, "midi_note": 81, "frequency": 880, "note_held": 0.3125, "velocity": 96, "channel": 2}, {"time_played": 50.9375, "midi_note": 72, "frequency": 523.25, "note_held": 0.3125, "velocity": 127, "channel": 0}, {"time_played": 50.9375, "midi_note": 81, "frequency": 880, "note_held": 0.3125, "velocity": 127, "channel": 0}, {"time_played": 50.9375, "midi_note": 72, "frequency": 523.25, "note_held": 0.3125, "velocity": 96, "channel": 2}, {"time_played": 50.9375, "midi_note": 81, "frequency": 880, "note_held": 0.3125, "velocity": 96, "channel": 2}, {"time_played": 51.25, "midi_note": 72, "frequency": 523.25, "note_held": 0.3125, "velocity": 127, "channel": 0}, {"time_played": 51.25, "midi_note": 81, "frequency": 880, "note_held": 0.3125, "velocity": 127, "channel": 0}, {"time_played": 51.25, "midi_note": 72, "frequency": 523.25, "note_held": 0.3125, "velocity": 96, "channel": 2}, {"time_played": 51.25, "midi_note": 81, "frequency": 880, "note_held": 0.3125, "velocity": 96, "channel": 2}, {"time_played": 51.5625, "midi_note": 72, "frequency": 523.25, "note_held": 0.3125, "velocity": 127, "channel": 0}, {"time_played": 51.5625, "midi_note": 81, "frequency": 880, "note_held": 0.3125, "velocity": 127, "channel": 0}, {"time_played": 51.5625, "midi_note": 72, "frequency": 523.25, "note_held": 0.3125, "velocity": 96, "channel": 2}, {"time_played": 51.5625, "midi_note": 81, "frequency": 880, "note_held": 0.3125, "velocity": 96, "channel": 2}, {"time_played": 51.875, "midi_note": 72, "frequency": 523.25, "note_held": 0.3125, "velocity": 127, "channel": 0}, {"time_played": 51.875, "midi_note": 81, "frequency": 880, "note_held": 0.3125, "velocity": 127, "channel": 0}, {"time_played": 51.875, "midi_note": 72, "frequency": 523.25, "note_held": 0.3125, "velocity": 96, "channel": 2}, {"time_played": 51.875, "midi_note": 81, "frequency": 880, "note_held": 0.3125, "velocity": 96, "channel": 2}, {"time_played": 52.1875, "midi_note": 72, "frequency": 523.25, "note_held": 0.3125, "velocity": 127, "channel": 0}, {"time_played": 52.1875, "midi_note": 81, "frequency": 880, "note_held": 0.3125, "velocity": 127, "channel": 0}, {"time_played": 52.1875, "midi_note": 72, "frequency": 523.25, "note_held": 0.3125, "velocity": 96, "channel": 2}, {"time_played": 52.1875, "midi_note": 81, "frequency": 880, "note_held": 0.3125, "velocity": 96, "channel": 2}, {"time_played": 52.5, "midi_note": 72, "frequency": 523.25, "note_held": 0.3125, "velocity": 127, "channel": 0}, {"time_played": 52.5, "midi_note": 81, "frequency": 880, "note_held": 0.3125, "velocity": 127, "channel": 0}, {"time_played": 52.5, "midi_note": 72, "frequency": 523.25, "note_held": 0.3125, "velocity": 96, "channel": 2}, {"time_played": 52.5, "midi_note": 81, "frequency": 880, "note_held": 0.3125, "velocity": 96, "channel": 2}, {"time_played": 52.8125, "midi_note": 72, "frequency": 523.25, "note_held": 0.3125, "velocity": 127, "channel": 0}, {"time_played": 52.8125, "midi_note": 81, "frequency": 880, "note_held": 0.3125, "velocity": 127, "channel": 0}, {"time_played": 52.8125, "midi_note": 72, "frequency": 523.25, "note_held": 0.3125, "velocity": 96, "channel": 2}, {"time_played": 52.8125, "midi_note": 81, "frequency": 880, "note_held": 0.3125, "velocity": 96, "channel": 2}, {"time_played": 53.125, "midi_note": 72, "frequency": 523.25, "note_held": 0.3125, "velocity": 127, "channel": 0}, {"time_played": 53.125, "midi_note": 81, "frequency": 880, "note_held": 0.3125, "velocity": 127, "channel": 0}, {"time_played": 53.125, "midi_note": 72, "frequency": 523.25, "note_held": 0.3125, "velocity": 96, "channel": 2}, {"time_played": 53.125, "midi_note": 81, "frequency": 880, "note_held": 0.3125, "velocity": 96, "channel": 2}, {"time_played": 53.4375, "midi_note": 71, "frequency": 493.88, "note_held": 0.3125, "velocity": 127, "channel": 0}, {"time_played": 53.4375, "midi_note": 79, "frequency": 783.99, "note_held": 0.3125, "velocity": 127, "channel": 0}, {"time_played": 53.4375, "midi_note": 71, "frequency": 493.88, "note_held": 0.3125, "velocity": 96, "channel": 2}, {"time_played": 53.4375, "midi_note": 79, "frequency": 783.99, "note_held": 0.3125, "velocity": 96, "channel": 2}, {"time_played": 53.75, "midi_note": 71, "frequency": 493.88, "note_held": 0.3125, "velocity": 127, "channel": 0}, {"time_played": 53.75, "midi_note": 79, "frequency": 783.99, "note_held": 0.3125, "velocity": 127, "channel": 0}, {"time_played": 53.75, "midi_note": 71, "frequency": 493.88, "note_held": 0.3125, "velocity": 96, "channel": 2}, {"time_played": 53.75, "midi_note": 79, "frequency": 783.99, "note_held": 0.3125, "velocity": 96, "channel": 2}, {"time_played": 54.0625, "midi_note": 71, "frequency": 493.88, "note_held": 0.3125, "velocity": 127, "channel": 0}, {"time_played": 54.0625, "midi_note": 79, "frequency": 783.99, "note_held": 0.3125, "velocity": 127, "channel": 0}, {"time_played": 54.0625, "midi_note": 71, "frequency": 493.88, "note_held": 0.3125, "velocity": 96, "channel": 2}, {"time_played": 54.0625, "midi_note": 79, "frequency": 783.99, "note_held": 0.3125, "velocity": 96, "channel": 2}, {"time_played": 54.375, "midi_note": 71, "frequency": 493.88, "note_held": 0.3125, "velocity": 127, "channel": 0}, {"time_played": 54.375, "midi_note": 79, "frequency": 783.99, "note_held": 0.3125, "velocity": 127, "channel": 0}, {"time_played": 54.375, "midi_note": 71, "frequency": 493.88, "note_held": 0.3125, "velocity": 96, "channel": 2}, {"time_played": 54.375, "midi_note": 79, "frequency": 783.99, "note_held": 0.3125, "velocity": 96, "channel": 2}, {"time_played": 54.6875, "midi_note": 71, "frequency": 493.88, "note_held": 0.3125, "velocity": 127, "channel": 0}, {"time_played": 54.6875, "midi_note": 79, "frequency": 783.99, "note_held": 0.3125, "velocity": 127, "channel": 0}, {"time_played": 54.6875, "midi_note": 71, "frequency": 493.88, "note_held": 0.3125, "velocity": 96, "channel": 2}, {"time_played": 54.6875, "midi_note": 79, "frequency": 783.99, "note_held": 0.3125, "velocity": 96, "channel": 2}, {"time_played": 55.0, "midi_note": 72, "frequency": 523.25, "note_held": 0.3125, "velocity": 127, "channel": 0}, {"time_played": 55.0, "midi_note": 81, "frequency": 880, "note_held": 0.3125, "velocity": 127, "channel": 0}, {"time_played": 55.0, "midi_note": 72, "frequency": 523.25, "note_held": 0.3125, "velocity": 96, "channel": 2}, {"time_played": 55.0, "midi_note": 81, "frequency": 880, "note_held": 0.3125, "velocity": 96, "channel": 2}, {"time_played": 55.3125, "midi_note": 72, "frequency": 523.25, "note_held": 0.3125, "velocity": 127, "channel": 0}, {"time_played": 55.3125, "midi_note": 81, "frequency": 880, "note_held": 0.3125, "velocity": 127, "channel": 0}, {"time_played": 55.3125, "midi_note": 72, "frequency": 523.25, "note_held": 0.3125, "velocity": 96, "channel": 2}, {"time_played": 55.3125, "midi_note": 81, "frequency": 880, "note_held": 0.3125, "velocity": 96, "channel": 2}, {"time_played": 55.625, "midi_note": 72, "frequency": 523.25, "note_held": 0.3125, "velocity": 127, "channel": 0}, {"time_played": 55.625, "midi_note": 81, "frequency": 880, "note_held": 0.3125, "velocity": 127, "channel": 0}, {"time_played": 55.625, "midi_note": 72, "frequency": 523.25, "note_held": 0.3125, "velocity": 96, "channel": 2}, {"time_played": 55.625, "midi_note": 81, "frequency": 880, "note_held": 0.3125, "velocity": 96, "channel": 2}, {"time_played": 55.9375, "midi_note": 72, "frequency": 523.25, "note_held": 0.3125, "velocity": 127, "channel": 0}, {"time_played": 55.9375, "midi_note": 81, "frequency": 880, "note_held": 0.3125, "velocity": 127, "channel": 0}, {"time_played": 55.9375, "midi_note": 72, "frequency": 523.25, "note_held": 0.3125, "velocity": 96, "channel": 2}, {"time_played": 55.9375, "midi_note": 81, "frequency": 880, "note_held": 0.3125, "velocity": 96, "channel": 2}, {"time_played": 56.25, "midi_note": 72, "frequency": 523.25, "note_held": 0.3125, "velocity": 127, "channel": 0}, {"time_played": 56.25, "midi_note": 81, "frequency": 880, "note_held": 0.3125, "velocity": 127, "channel": 0}, {"time_played": 56.25, "midi_note": 72, "frequency": 523.25, "note_held": 0.3125, "velocity": 96, "channel": 2}, {"time_played": 56.25, "midi_note": 81, "frequency": 880, "note_held": 0.3125, "velocity": 96, "channel": 2}, {"time_played": 56.5625, "midi_note": 72, "frequency": 523.25, "note_held": 0.3125, "velocity": 127, "channel": 0}, {"time_played": 56.5625, "midi_note": 81, "frequency": 880, "note_held": 0.3125, "velocity": 127, "channel": 0}, {"time_played": 56.5625, "midi_note": 72, "frequency": 523.25, "note_held": 0.3125, "velocity": 96, "channel": 2}, {"time_played": 56.5625, "midi_note": 81, "frequency": 880, "note_held": 0.3125, "velocity": 96, "channel": 2}, {"time_played": 56.875, "midi_note": 72, "frequency": 523.25, "note_held": 0.3125, "velocity": 127, "channel": 0}, {"time_played": 56.875, "midi_note": 81, "frequency": 880, "note_held": 0.3125, "velocity": 127, "channel": 0}, {"time_played": 56.875, "midi_note": 72, "frequency": 523.25, "note_held": 0.3125, "velocity": 96, "channel": 2}, {"time_played": 56.875, "midi_note": 81, "frequency": 880, "note_held": 0.3125, "velocity": 96, "channel": 2}, {"time_played": 57.1875, "midi_note": 72, "frequency": 523.25, "note_held": 0.3125, "velocity": 127, "channel": 0}, {"time_played": 57.1875, "midi_note": 81, "frequency": 880, "note_held": 0.3125, "velocity": 127, "channel": 0}, {"time_played": 57.1875, "midi_note": 72, "frequency": 523.25, "note_held": 0.3125, "velocity": 96, "channel": 2}, {"time_played": 57.1875, "midi_note": 81, "frequency": 880, "note_held": 0.3125, "velocity": 96, "channel": 2}, {"time_played": 57.5, "midi_note": 72, "frequency": 523.25, "note_held": 0.3125, "velocity": 127, "channel": 0}, {"time_played": 57.5, "midi_note": 81, "frequency": 880, "note_held": 0.3125, "velocity": 127, "channel": 0}, {"time_played": 57.5, "midi_note": 72, "frequency": 523.25, "note_held": 0.3125, "velocity": 96, "channel": 2}, {"time_played": 57.5, "midi_note": 81, "frequency": 880, "note_held": 0.3125, "velocity": 96, "channel": 2}, {"time_played": 57.8125, "midi_note": 72, "frequency": 523.25, "note_held": 0.3125, "velocity": 127, "channel": 0}, {"time_played": 57.8125, "midi_note": 81, "frequency": 880, "note_held": 0.3125, "velocity": 127, "channel": 0}, {"time_played": 57.8125, "midi_note": 72, "frequency": 523.25, "note_held": 0.3125, "velocity": 96, "channel": 2}, {"time_played": 57.8125, "midi_note": 81, "frequency": 880, "note_held": 0.3125, "velocity": 96, "channel": 2}, {"time_played": 58.125, "midi_note": 72, "frequency": 523.25, "note_held": 0.3125, "velocity": 127, "channel": 0}, {"time_played": 58.125, "midi_note": 81, "frequency": 880, "note_held": 0.3125, "velocity": 127, "channel": 0}, {"time_played": 58.125, "midi_note": 72, "frequency": 523.25, "note_held": 0.3125, "velocity": 96, "channel": 2}, {"time_played": 58.125, "midi_note": 81, "frequency": 880, "note_held": 0.3125, "velocity": 96, "channel": 2}, {"time_played": 58.4375, "midi_note": 71, "frequency": 493.88, "note_held": 0.3125, "velocity": 127, "channel": 0}, {"time_played": 58.4375, "midi_note": 79, "frequency": 783.99, "note_held": 0.3125, "velocity": 127, "channel": 0}, {"time_played": 58.4375, "midi_note": 71, "frequency": 493.88, "note_held": 0.3125, "velocity": 96, "channel": 2}, {"time_played": 58.4375, "midi_note": 79, "frequency": 783.99, "note_held": 0.3125, "velocity": 96, "channel": 2}, {"time_played": 58.75, "midi_note": 71, "frequency": 493.88, "note_held": 0.3125, "velocity": 127, "channel": 0}, {"time_played": 58.75, "midi_note": 79, "frequency": 783.99, "note_held": 0.3125, "velocity": 127, "channel": 0}, {"time_played": 58.75, "midi_note": 71, "frequency": 493.88, "note_held": 0.3125, "velocity": 96, "channel": 2}, {"time_played": 58.75, "midi_note": 79, "frequency": 783.99, "note_held": 0.3125, "velocity": 96, "channel": 2}, {"time_played": 59.0625, "midi_note": 71, "frequency": 493.88, "note_held": 0.3125, "velocity": 127, "channel": 0}, {"time_played": 59.0625, "midi_note": 79, "frequency": 783.99, "note_held": 0.3125, "velocity": 127, "channel": 0}, {"time_played": 59.0625, "midi_note": 71, "frequency": 493.88, "note_held": 0.3125, "velocity": 96, "channel": 2}, {"time_played": 59.0625, "midi_note": 79, "frequency": 783.99, "note_held": 0.3125, "velocity": 96, "channel": 2}, {"time_played": 59.375, "midi_note": 71, "frequency": 493.88, "note_held": 0.3125, "velocity": 127, "channel": 0}, {"time_played": 59.375, "midi_note": 79, "frequency": 783.99, "note_held": 0.3125, "velocity": 127, "channel": 0}, {"time_played": 59.375, "midi_note": 71, "frequency": 493.88, "note_held": 0.3125, "velocity": 96, "channel": 2}, {"time_played": 59.375, "midi_note": 79, "frequency": 783.99, "note_held": 0.3125, "velocity": 96, "channel": 2}, {"time_played": 59.6875, "midi_note": 71, "frequency": 493.88, "note_held": 0.3125, "velocity": 127, "channel": 0}, {"time_played": 59.6875, "midi_note": 79, "frequency": 783.99, "note_held": 0.3125, "velocity": 127, "channel": 0}, {"time_played": 59.6875, "midi_note": 71, "frequency": 493.88, "note_held": 0.3125, "velocity": 96, "channel": 2}, {"time_played": 59.6875, "midi_note": 79, "frequency": 783.99, "note_held": 0.3125, "velocity": 96, "channel": 2}, {"time_played": 60.0, "midi_note": 72, "frequency": 523.25, "note_held": 0.3125, "velocity": 127, "channel": 0}, {"time_played": 60.0, "midi_note": 81, "frequency": 880, "note_held": 0.3125, "velocity": 127, "channel": 0}, {"time_played": 60.0, "midi_note": 72, "frequency": 523.25, "note_held": 0.3125, "velocity": 96, "channel": 2}, {"time_played": 60.0, "midi_note": 81, "frequency": 880, "note_held": 0.3125, "velocity": 96, "channel": 2}, {"time_played": 60.3125, "midi_note": 72, "frequency": 523.25, "note_held": 0.3125, "velocity": 127, "channel": 0}, {"time_played": 60.3125, "midi_note": 81, "frequency": 880, "note_held": 0.3125, "velocity": 127, "channel": 0}, {"time_played": 60.3125, "midi_note": 72, "frequency": 523.25, "note_held": 0.3125, "velocity": 96, "channel": 2}, {"time_played": 60.3125, "midi_note": 81, "frequency": 880, "note_held": 0.3125, "velocity": 96, "channel": 2}, {"time_played": 60.625, "midi_note": 72, "frequency": 523.25, "note_held": 0.3125, "velocity": 127, "channel": 0}, {"time_played": 60.625, "midi_note": 81, "frequency": 880, "note_held": 0.3125, "velocity": 127, "channel": 0}, {"time_played": 60.625, "midi_note": 72, "frequency": 523.25, "note_held": 0.3125, "velocity": 96, "channel": 2}, {"time_played": 60.625, "midi_note": 81, "frequency": 880, "note_held": 0.3125, "velocity": 96, "channel": 2}, {"time_played": 60.9375, "midi_note": 72, "frequency": 523.25, "note_held": 0.3125, "velocity": 127, "channel": 0}, {"time_played": 60.9375, "midi_note": 81, "frequency": 880, "note_held": 0.3125, "velocity": 127, "channel": 0}, {"time_played": 60.9375, "midi_note": 72, "frequency": 523.25, "note_held": 0.3125, "velocity": 96, "channel": 2}, {"time_played": 60.9375, "midi_note": 81, "frequency": 880, "note_held": 0.3125, "velocity": 96, "channel": 2}, {"time_played": 61.25, "midi_note": 72, "frequency": 523.25, "note_held": 0.3125, "velocity": 127, "channel": 0}, {"time_played": 61.25, "midi_note": 81, "frequency": 880, "note_held": 0.3125, "velocity": 127, "channel": 0}, {"time_played": 61.25, "midi_note": 72, "frequency": 523.25, "note_held": 0.3125, "velocity": 96, "channel": 2}, {"time_played": 61.25, "midi_note": 81, "frequency": 880, "note_held": 0.3125, "velocity": 96, "channel": 2}, {"time_played": 61.5625, "midi_note": 72, "frequency": 523.25, "note_held": 0.3125, "velocity": 127, "channel": 0}, {"time_played": 61.5625, "midi_note": 81, "frequency": 880, "note_held": 0.3125, "velocity": 127, "channel": 0}, {"time_played": 61.5625, "midi_note": 72, "frequency": 523.25, "note_held": 0.3125, "velocity": 96, "channel": 2}, {"time_played": 61.5625, "midi_note": 81, "frequency": 880, "note_held": 0.3125, "velocity": 96, "channel": 2}, {"time_played": 61.875, "midi_note": 72, "frequency": 523.25, "note_held": 0.3125, "velocity": 127, "channel": 0}, {"time_played": 61.875, "midi_note": 81, "frequency": 880, "note_held": 0.3125, "velocity": 127, "channel": 0}, {"time_played": 61.875, "midi_note": 72, "frequency": 523.25, "note_held": 0.3125, "velocity": 96, "channel": 2}, {"time_played": 61.875, "midi_note": 81, "frequency": 880, "note_held": 0.3125, "velocity": 96, "channel": 2}, {"time_played": 62.1875, "midi_note": 72, "frequency": 523.25, "note_held": 0.3125, "velocity": 127, "channel": 0}, {"time_played": 62.1875, "midi_note": 81, "frequency": 880, "note_held": 0.3125, "velocity": 127, "channel": 0}, {"time_played": 62.1875, "midi_note": 72, "frequency": 523.25, "note_held": 0.3125, "velocity": 96, "channel": 2}, {"time_played": 62.1875, "midi_note": 81, "frequency": 880, "note_held": 0.3125, "velocity": 96, "channel": 2}, {"time_played": 62.5, "midi_note": 72, "frequency": 523.25, "note_held": 0.3125, "velocity": 127, "channel": 0}, {"time_played": 62.5, "midi_note": 81, "frequency": 880, "note_held": 0.3125, "velocity": 127, "channel": 0}, {"time_played": 62.5, "midi_note": 72, "frequency": 523.25, "note_held": 0.3125, "velocity": 96, "channel": 2}, {"time_played": 62.5, "midi_note": 81, "frequency": 880, "note_held": 0.3125, "velocity": 96, "channel": 2}, {"time_played": 62.8125, "midi_note": 72, "frequency": 523.25, "note_held": 0.3125, "velocity": 127, "channel": 0}, {"time_played": 62.8125, "midi_note": 81, "frequency": 880, "note_held": 0.3125, "velocity": 127, "channel": 0}, {"time_played": 62.8125, "midi_note": 72, "frequency": 523.25, "note_held": 0.3125, "velocity": 96, "channel": 2}, {"time_played": 62.8125, "midi_note": 81, "frequency": 880, "note_held": 0.3125, "velocity": 96, "channel": 2}, {"time_played": 63.125, "midi_note": 72, "frequency": 523.25, "note_held": 0.3125, "velocity": 127, "channel": 0}, {"time_played": 63.125, "midi_note": 81, "frequency": 880, "note_held": 0.3125, "velocity": 127, "channel": 0}, {"time_played": 63.125, "midi_note": 72, "frequency": 523.25, "note_held": 0.3125, "velocity": 96, "channel": 2}, {"time_played": 63.125, "midi_note": 81, "frequency": 880, "note_held": 0.3125, "velocity": 96, "channel": 2}, {"time_played": 63.4375, "midi_note": 71, "frequency": 493.88, "note_held": 0.3125, "velocity": 127, "channel": 0}, {"time_played": 63.4375, "midi_note": 79, "frequency": 783.99, "note_held": 0.3125, "velocity": 127, "channel": 0}, {"time_played": 63.4375, "midi_note": 71, "frequency": 493.88, "note_held": 0.3125, "velocity": 96, "channel": 2}, {"time_played": 63.4375, "midi_note": 79, "frequency": 783.99, "note_held": 0.3125, "velocity": 96, "channel": 2}, {"time_played": 63.75, "midi_note": 71, "frequency": 493.88, "note_held": 0.3125, "velocity": 127, "channel": 0}, {"time_played": 63.75, "midi_note": 79, "frequency": 783.99, "note_held": 0.3125, "velocity": 127, "channel": 0}, {"time_played": 63.75, "midi_note": 71, "frequency": 493.88, "note_held": 0.3125, "velocity": 96, "channel": 2}, {"time_played": 63.75, "midi_note": 79, "frequency": 783.99, "note_held": 0.3125, "velocity": 96, "channel": 2}, {"time_played": 64.0625, "midi_note": 71, "frequency": 493.88, "note_held": 0.3125, "velocity": 127, "channel": 0}, {"time_played": 64.0625, "midi_note": 79, "frequency": 783.99, "note_held": 0.3125, "velocity": 127, "channel": 0}, {"time_played": 64.0625, "midi_note": 71, "frequency": 493.88, "note_held": 0.3125, "velocity": 96, "channel": 2}, {"time_played": 64.0625, "midi_note": 79, "frequency": 783.99, "note_held": 0.3125, "velocity": 96, "channel": 2}, {"time_played": 64.375, "midi_note": 71, "frequency": 493.88, "note_held": 0.3125, "velocity": 127, "channel": 0}, {"time_played": 64.375, "midi_note": 79, "frequency": 783.99, "note_held": 0.3125, "velocity": 127, "channel": 0}, {"time_played": 64.375, "midi_note": 71, "frequency": 493.88, "note_held": 0.3125, "velocity": 96, "channel": 2}, {"time_played": 64.375, "midi_note": 79, "frequency": 783.99, "note_held": 0.3125, "velocity": 96, "channel": 2}, {"time_played": 64.6875, "midi_note": 71, "frequency": 493.88, "note_held": 0.3125, "velocity": 127, "channel": 0}, {"time_played": 64.6875, "midi_note": 79, "frequency": 783.99, "note_held": 0.3125, "velocity": 127, "channel": 0}, {"time_played": 64.6875, "midi_note": 71, "frequency": 493.88, "note_held": 0.3125, "velocity": 96, "channel": 2}, {"time_played": 64.6875, "midi_note": 79, "frequency": 783.99, "note_held": 0.3125, "velocity": 96, "channel": 2}, {"time_played": 65.0, "midi_note": 72, "frequency": 523.25, "note_held": 0.3125, "velocity": 127, "channel": 0}, {"time_played": 65.0, "midi_note": 81, "frequency": 880, "note_held": 0.3125, "velocity": 127, "channel": 0}, {"time_played": 65.0, "midi_note": 72, "frequency": 523.25, "note_held": 0.3125, "velocity": 96, "channel": 2}, {"time_played": 65.0, "midi_note": 81, "frequency": 880, "note_held": 0.3125, "velocity": 96, "channel": 2}, {"time_played": 65.3125, "midi_note": 72, "frequency": 523.25, "note_held": 0.3125, "velocity": 127, "channel": 0}, {"time_played": 65.3125, "midi_note": 81, "frequency": 880, "note_held": 0.3125, "velocity": 127, "channel": 0}, {"time_played": 65.3125, "midi_note": 72, "frequency": 523.25, "note_held": 0.3125, "velocity": 96, "channel": 2}, {"time_played": 65.3125, "midi_note": 81, "frequency": 880, "note_held": 0.3125, "velocity": 96, "channel": 2}, {"time_played": 65.625, "midi_note": 72, "frequency": 523.25, "note_held": 0.3125, "velocity": 127, "channel": 0}, {"time_played": 65.625, "midi_note": 81, "frequency": 880, "note_held": 0.3125, "velocity": 127, "channel": 0}, {"time_played": 65.625, "midi_note": 72, "frequency": 523.25, "note_held": 0.3125, "velocity": 96, "channel": 2}, {"time_played": 65.625, "midi_note": 81, "frequency": 880, "note_held": 0.3125, "velocity": 96, "channel": 2}, {"time_played": 65.9375, "midi_note": 72, "frequency": 523.25, "note_held": 0.3125, "velocity": 127, "channel": 0}, {"time_played": 65.9375, "midi_note": 81, "frequency": 880, "note_held": 0.3125, "velocity": 127, "channel": 0}, {"time_played": 65.9375, "midi_note": 72, "frequency": 523.25, "note_held": 0.3125, "velocity": 96, "channel": 2}, {"time_played": 65.9375, "midi_note": 81, "frequency": 880, "note_held": 0.3125, "velocity": 96, "channel": 2}, {"time_played": 66.25, "midi_note": 72, "frequency": 523.25, "note_held": 0.3125, "velocity": 127, "channel": 0}, {"time_played": 66.25, "midi_note": 81, "frequency": 880, "note_held": 0.3125, "velocity": 127, "channel": 0}, {"time_played": 66.25, "midi_note": 72, "frequency": 523.25, "note_held": 0.3125, "velocity": 96, "channel": 2}, {"time_played": 66.25, "midi_note": 81, "frequency": 880, "note_held": 0.3125, "velocity": 96, "channel": 2}, {"time_played": 66.5625, "midi_note": 72, "frequency": 523.25, "note_held": 0.3125, "velocity": 127, "channel": 0}, {"time_played": 66.5625, "midi_note": 81, "frequency": 880, "note_held": 0.3125, "velocity": 127, "channel": 0}, {"time_played": 66.5625, "midi_note": 72, "frequency": 523.25, "note_held": 0.3125, "velocity": 96, "channel": 2}, {"time_played": 66.5625, "midi_note": 81, "frequency": 880, "note_held": 0.3125, "velocity": 96, "channel": 2}, {"time_played": 66.875, "midi_note": 72, "frequency": 523.25, "note_held": 0.3125, "velocity": 127, "channel": 0}, {"time_played": 66.875, "midi_note": 81, "frequency": 880, "note_held": 0.3125, "velocity": 127, "channel": 0}, {"time_played": 66.875, "midi_note": 72, "frequency": 523.25, "note_held": 0.3125, "velocity": 96, "channel": 2}, {"time_played": 66.875, "midi_note": 81, "frequency": 880, "note_held": 0.3125, "velocity": 96, "channel": 2}, {"time_played": 67.1875, "midi_note": 72, "frequency": 523.25, "note_held": 0.3125, "velocity": 127, "channel": 0}, {"time_played": 67.1875, "midi_note": 81, "frequency": 880, "note_held": 0.3125, "velocity": 127, "channel": 0}, {"time_played": 67.1875, "midi_note": 72, "frequency": 523.25, "note_held": 0.3125, "velocity": 96, "channel": 2}, {"time_played": 67.1875, "midi_note": 81, "frequency": 880, "note_held": 0.3125, "velocity": 96, "channel": 2}, {"time_played": 67.5, "midi_note": 72, "frequency": 523.25, "note_held": 0.3125, "velocity": 127, "channel": 0}, {"time_played": 67.5, "midi_note": 81, "frequency": 880, "note_held": 0.3125, "velocity": 127, "channel": 0}, {"time_played": 67.5, "midi_note": 72, "frequency": 523.25, "note_held": 0.3125, "velocity": 96, "channel": 2}, {"time_played": 67.5, "midi_note": 81, "frequency": 880, "note_held": 0.3125, "velocity": 96, "channel": 2}, {"time_played": 67.8125, "midi_note": 72, "frequency": 523.25, "note_held": 0.3125, "velocity": 127, "channel": 0}, {"time_played": 67.8125, "midi_note": 81, "frequency": 880, "note_held": 0.3125, "velocity": 127, "channel": 0}, {"time_played": 67.8125, "midi_note": 72, "frequency": 523.25, "note_held": 0.3125, "velocity": 96, "channel": 2}, {"time_played": 67.8125, "midi_note": 81, "frequency": 880, "note_held": 0.3125, "velocity": 96, "channel": 2}, {"time_played": 68.125, "midi_note": 72, "frequency": 523.25, "note_held": 0.3125, "velocity": 127, "channel": 0}, {"time_played": 68.125, "midi_note": 81, "frequency": 880, "note_held": 0.3125, "velocity": 127, "channel": 0}, {"time_played": 68.125, "midi_note": 72, "frequency": 523.25, "note_held": 0.3125, "velocity": 96, "channel": 2}, {"time_played": 68.125, "midi_note": 81, "frequency": 880, "note_held": 0.3125, "velocity": 96, "channel": 2}, {"time_played": 68.4375, "midi_note": 71, "frequency": 493.88, "note_held": 0.3125, "velocity": 127, "channel": 0}, {"time_played": 68.4375, "midi_note": 79, "frequency": 783.99, "note_held": 0.3125, "velocity": 127, "channel": 0}, {"time_played": 68.4375, "midi_note": 71, "frequency": 493.88, "note_held": 0.3125, "velocity": 96, "channel": 2}, {"time_played": 68.4375, "midi_note": 79, "frequency": 783.99, "note_held": 0.3125, "velocity": 96, "channel": 2}, {"time_played": 68.75, "midi_note": 71, "frequency": 493.88, "note_held": 0.3125, "velocity": 127, "channel": 0}, {"time_played": 68.75, "midi_note": 79, "frequency": 783.99, "note_held": 0.3125, "velocity": 127, "channel": 0}, {"time_played": 68.75, "midi_note": 71, "frequency": 493.88, "note_held": 0.3125, "velocity": 96, "channel": 2}, {"time_played": 68.75, "midi_note": 79, "frequency": 783.99, "note_held": 0.3125, "velocity": 96, "channel": 2}, {"time_played": 69.0625, "midi_note": 71, "frequency": 493.88, "note_held": 0.3125, "velocity": 127, "channel": 0}, {"time_played": 69.0625, "midi_note": 79, "frequency": 783.99, "note_held": 0.3125, "velocity": 127, "channel": 0}, {"time_played": 69.0625, "midi_note": 71, "frequency": 493.88, "note_held": 0.3125, "velocity": 96, "channel": 2}, {"time_played": 69.0625, "midi_note": 79, "frequency": 783.99, "note_held": 0.3125, "velocity": 96, "channel": 2}, {"time_played": 69.375, "midi_note": 71, "frequency": 493.88, "note_held": 0.3125, "velocity": 127, "channel": 0}, {"time_played": 69.375, "midi_note": 79, "frequency": 783.99, "note_held": 0.3125, "velocity": 127, "channel": 0}, {"time_played": 69.375, "midi_note": 71, "frequency": 493.88, "note_held": 0.3125, "velocity": 96, "channel": 2}, {"time_played": 69.375, "midi_note": 79, "frequency": 783.99, "note_held": 0.3125, "velocity": 96, "channel": 2}, {"time_played": 69.6875, "midi_note": 71, "frequency": 493.88, "note_held": 0.3125, "velocity": 127, "channel": 0}, {"time_played": 69.6875, "midi_note": 79, "frequency": 783.99, "note_held": 0.3125, "velocity": 127, "channel": 0}, {"time_played": 69.6875, "midi_note": 71, "frequency": 493.88, "note_held": 0.3125, "velocity": 96, "channel": 2}, {"time_played": 69.6875, "midi_note": 79, "frequency": 783.99, "note_held": 0.3125, "velocity": 96, "channel": 2}, {"time_played": 70.0, "midi_note": 72, "frequency": 523.25, "note_held": 0.3125, "velocity": 127, "channel": 0}, {"time_played": 70.0, "midi_note": 81, "frequency": 880, "note_held": 0.3125, "velocity": 127, "channel": 0}, {"time_played": 70.0, "midi_note": 72, "frequency": 523.25, "note_held": 0.3125, "velocity": 96, "channel": 2}, {"time_played": 70.0, "midi_note": 81, "frequency": 880, "note_held": 0.3125, "velocity": 96, "channel": 2}, {"time_played": 70.3125, "midi_note": 72, "frequency": 523.25, "note_held": 0.3125, "velocity": 127, "channel": 0}, {"time_played": 70.3125, "midi_note": 81, "frequency": 880, "note_held": 0.3125, "velocity": 127, "channel": 0}, {"time_played": 70.3125, "midi_note": 72, "frequency": 523.25, "note_held": 0.3125, "velocity": 96, "channel": 2}, {"time_played": 70.3125, "midi_note": 81, "frequency": 880, "note_held": 0.3125, "velocity": 96, "channel": 2}, {"time_played": 70.625, "midi_note": 72, "frequency": 523.25, "note_held": 0.3125, "velocity": 127, "channel": 0}, {"time_played": 70.625, "midi_note": 81, "frequency": 880, "note_held": 0.3125, "velocity": 127, "channel": 0}, {"time_played": 70.625, "midi_note": 72, "frequency": 523.25, "note_held": 0.3125, "velocity": 96, "channel": 2}, {"time_played": 70.625, "midi_note": 81, "frequency": 880, "note_held": 0.3125, "velocity": 96, "channel": 2}, {"time_played": 70.9375, "midi_note": 72, "frequency": 523.25, "note_held": 0.3125, "velocity": 127, "channel": 0}, {"time_played": 70.9375, "midi_note": 81, "frequency": 880, "note_held": 0.3125, "velocity": 127, "channel": 0}, {"time_played": 70.9375, "midi_note": 72, "frequency": 523.25, "note_held": 0.3125, "velocity": 96, "channel": 2}, {"time_played": 70.9375, "midi_note": 81, "frequency": 880, "note_held": 0.3125, "velocity": 96, "channel": 2}, {"time_played": 71.25, "midi_note": 72, "frequency": 523.25, "note_held": 0.3125, "velocity": 127, "channel": 0}, {"time_played": 71.25, "midi_note": 81, "frequency": 880, "note_held": 0.3125, "velocity": 127, "channel": 0}, {"time_played": 71.25, "midi_note": 72, "frequency": 523.25, "note_held": 0.3125, "velocity": 96, "channel": 2}, {"time_played": 71.25, "midi_note": 81, "frequency": 880, "note_held": 0.3125, "velocity": 96, "channel": 2}, {"time_played": 71.5625, "midi_note": 72, "frequency": 523.25, "note_held": 0.3125, "velocity": 127, "channel": 0}, {"time_played": 71.5625, "midi_note": 81, "frequency": 880, "note_held": 0.3125, "velocity": 127, "channel": 0}, {"time_played": 71.5625, "midi_note": 72, "frequency": 523.25, "note_held": 0.3125, "velocity": 96, "channel": 2}, {"time_played": 71.5625, "midi_note": 81, "frequency": 880, "note_held": 0.3125, "velocity": 96, "channel": 2}, {"time_played": 71.875, "midi_note": 72, "frequency": 523.25, "note_held": 0.3125, "velocity": 127, "channel": 0}, {"time_played": 71.875, "midi_note": 81, "frequency": 880, "note_held": 0.3125, "velocity": 127, "channel": 0}, {"time_played": 71.875, "midi_note": 72, "frequency": 523.25, "note_held": 0.3125, "velocity": 96, "channel": 2}, {"time_played": 71.875, "midi_note": 81, "frequency": 880, "note_held": 0.3125, "velocity": 96, "channel": 2}, {"time_played": 72.1875, "midi_note": 72, "frequency": 523.25, "note_held": 0.3125, "velocity": 127, "channel": 0}, {"time_played": 72.1875, "midi_note": 81, "frequency": 880, "note_held": 0.3125, "velocity": 127, "channel": 0}, {"time_played": 72.1875, "midi_note": 72, "frequency": 523.25, "note_held": 0.3125, "velocity": 96, "channel": 2}, {"time_played": 72.1875, "midi_note": 81, "frequency": 880, "note_held": 0.3125, "velocity": 96, "channel": 2}, {"time_played": 72.5, "midi_note": 72, "frequency": 523.25, "note_held": 0.3125, "velocity": 127, "channel": 0}, {"time_played": 72.5, "midi_note": 81, "frequency": 880, "note_held": 0.3125, "velocity": 127, "channel": 0}, {"time_played": 72.5, "midi_note": 72, "frequency": 523.25, "note_held": 0.3125, "velocity": 96, "channel": 2}, {"time_played": 72.5, "midi_note": 81, "frequency": 880, "note_held": 0.3125, "velocity": 96, "channel": 2}, {"time_played": 72.8125, "midi_note": 72, "frequency": 523.25, "note_held": 0.3125, "velocity": 127, "channel": 0}, {"time_played": 72.8125, "midi_note": 81, "frequency": 880, "note_held": 0.3125, "velocity": 127, "channel": 0}, {"time_played": 72.8125, "midi_note": 72, "frequency": 523.25, "note_held": 0.3125, "velocity": 96, "channel": 2}, {"time_played": 72.8125, "midi_note": 81, "frequency": 880, "note_held": 0.3125, "velocity": 96, "channel": 2}, {"time_played": 73.125, "midi_note": 72, "frequency": 523.25, "note_held": 0.3125, "velocity": 127, "channel": 0}, {"time_played": 73.125, "midi_note": 81, "frequency": 880, "note_held": 0.3125, "velocity": 127, "channel": 0}, {"time_played": 73.125, "midi_note": 72, "frequency": 523.25, "note_held": 0.3125, "velocity": 96, "channel": 2}, {"time_played": 73.125, "midi_note": 81, "frequency": 880, "note_held": 0.3125, "velocity": 96, "channel": 2}, {"time_played": 73.4375, "midi_note": 71, "frequency": 493.88, "note_held": 0.3125, "velocity": 127, "channel": 0}, {"time_played": 73.4375, "midi_note": 79, "frequency": 783.99, "note_held": 0.3125, "velocity": 127, "channel": 0}, {"time_played": 73.4375, "midi_note": 71, "frequency": 493.88, "note_held": 0.3125, "velocity": 96, "channel": 2}, {"time_played": 73.4375, "midi_note": 79, "frequency": 783.99, "note_held": 0.3125, "velocity": 96, "channel": 2}, {"time_played": 73.75, "midi_note": 71, "frequency": 493.88, "note_held": 0.3125, "velocity": 127, "channel": 0}, {"time_played": 73.75, "midi_note": 79, "frequency": 783.99, "note_held": 0.3125, "velocity": 127, "channel": 0}, {"time_played": 73.75, "midi_note": 71, "frequency": 493.88, "note_held": 0.3125, "velocity": 96, "channel": 2}, {"time_played": 73.75, "midi_note": 79, "frequency": 783.99, "note_held": 0.3125, "velocity": 96, "channel": 2}, {"time_played": 74.0625, "midi_note": 71, "frequency": 493.88, "note_held": 0.3125, "velocity": 127, "channel": 0}, {"time_played": 74.0625, "midi_note": 79, "frequency": 783.99, "note_held": 0.3125, "velocity": 127, "channel": 0}, {"time_played": 74.0625, "midi_note": 71, "frequency": 493.88, "note_held": 0.3125, "velocity": 96, "channel": 2}, {"time_played": 74.0625, "midi_note": 79, "frequency": 783.99, "note_held": 0.3125, "velocity": 96, "channel": 2}, {"time_played": 74.375, "midi_note": 71, "frequency": 493.88, "note_held": 0.3125, "velocity": 127, "channel": 0}, {"time_played": 74.375, "midi_note": 79, "frequency": 783.99, "note_held": 0.3125, "velocity": 127, "channel": 0}, {"time_played": 74.375, "midi_note": 71, "frequency": 493.88, "note_held": 0.3125, "velocity": 96, "channel": 2}, {"time_played": 74.375, "midi_note": 79, "frequency": 783.99, "note_held": 0.3125, "velocity": 96, "channel": 2}, {"time_played": 74.6875, "midi_note": 71, "frequency": 493.88, "note_held": 0.3125, "velocity": 127, "channel": 0}, {"time_played": 74.6875, "midi_note": 79, "frequency": 783.99, "note_held": 0.3125, "velocity": 127, "channel": 0}, {"time_played": 74.6875, "midi_note": 71, "frequency": 493.88, "note_held": 0.3125, "velocity": 96, "channel": 2}, {"time_played": 74.6875, "midi_note": 79, "frequency": 783.99, "note_held": 0.3125, "velocity": 96, "channel": 2}, {"time_played": 75.0, "midi_note": 72, "frequency": 523.25, "note_held": 0.3125, "velocity": 127, "channel": 0}, {"time_played": 75.0, "midi_note": 81, "frequency": 880, "note_held": 0.3125, "velocity": 127, "channel": 0}, {"time_played": 75.0, "midi_note": 72, "frequency": 523.25, "note_held": 0.3125, "velocity": 96, "channel": 2}, {"time_played": 75.0, "midi_note": 81, "frequency": 880, "note_held": 0.3125, "velocity": 96, "channel": 2}, {"time_played": 75.3125, "midi_note": 72, "frequency": 523.25, "note_held": 0.3125, "velocity": 127, "channel": 0}, {"time_played": 75.3125, "midi_note": 81, "frequency": 880, "note_held": 0.3125, "velocity": 127, "channel": 0}, {"time_played": 75.3125, "midi_note": 72, "frequency": 523.25, "note_held": 0.3125, "velocity": 96, "channel": 2}, {"time_played": 75.3125, "midi_note": 81, "frequency": 880, "note_held": 0.3125, "velocity": 96, "channel": 2}, {"time_played": 75.625, "midi_note": 72, "frequency": 523.25, "note_held": 0.3125, "velocity": 127, "channel": 0}, {"time_played": 75.625, "midi_note": 81, "frequency": 880, "note_held": 0.3125, "velocity": 127, "channel": 0}, {"time_played": 75.625, "midi_note": 72, "frequency": 523.25, "note_held": 0.3125, "velocity": 96, "channel": 2}, {"time_played": 75.625, "midi_note": 81, "frequency": 880, "note_held": 0.3125, "velocity": 96, "channel": 2}, {"time_played": 75.9375, "midi_note": 72, "frequency": 523.25, "note_held": 0.3125, "velocity": 127, "channel": 0}, {"time_played": 75.9375, "midi_note": 81, "frequency": 880, "note_held": 0.3125, "velocity": 127, "channel": 0}, {"time_played": 75.9375, "midi_note": 72, "frequency": 523.25, "note_held": 0.3125, "velocity": 96, "channel": 2}, {"time_played": 75.9375, "midi_note": 81, "frequency": 880, "note_held": 0.3125, "velocity": 96, "channel": 2}, {"time_played": 76.25, "midi_note": 72, "frequency": 523.25, "note_held": 0.3125, "velocity": 127, "channel": 0}, {"time_played": 76.25, "midi_note": 81, "frequency": 880, "note_held": 0.3125, "velocity": 127, "channel": 0}, {"time_played": 76.25, "midi_note": 72, "frequency": 523.25, "note_held": 0.3125, "velocity": 96, "channel": 2}, {"time_played": 76.25, "midi_note": 81, "frequency": 880, "note_held": 0.3125, "velocity": 96, "channel": 2}, {"time_played": 76.5625, "midi_note": 72, "frequency": 523.25, "note_held": 0.3125, "velocity": 127, "channel": 0}, {"time_played": 76.5625, "midi_note": 81, "frequency": 880, "note_held": 0.3125, "velocity": 127, "channel": 0}, {"time_played": 76.5625, "midi_note": 72, "frequency": 523.25, "note_held": 0.3125, "velocity": 96, "channel": 2}, {"time_played": 76.5625, "midi_note": 81, "frequency": 880, "note_held": 0.3125, "velocity": 96, "channel": 2}, {"time_played": 76.875, "midi_note": 72, "frequency": 523.25, "note_held": 0.3125, "velocity": 127, "channel": 0}, {"time_played": 76.875, "midi_note": 81, "frequency": 880, "note_held": 0.3125, "velocity": 127, "channel": 0}, {"time_played": 76.875, "midi_note": 72, "frequency": 523.25, "note_held": 0.3125, "velocity": 96, "channel": 2}, {"time_played": 76.875, "midi_note": 81, "frequency": 880, "note_held": 0.3125, "velocity": 96, "channel": 2}, {"time_played": 77.1875, "midi_note": 72, "frequency": 523.25, "note_held": 0.3125, "velocity": 127, "channel": 0}, {"time_played": 77.1875, "midi_note": 81, "frequency": 880, "note_held": 0.3125, "velocity": 127, "channel": 0}, {"time_played": 77.1875, "midi_note": 72, "frequency": 523.25, "note_held": 0.3125, "velocity": 96, "channel": 2}, {"time_played": 77.1875, "midi_note": 81, "frequency": 880, "note_held": 0.3125, "velocity": 96, "channel": 2}, {"time_played": 77.5, "midi_note": 72, "frequency": 523.25, "note_held": 0.3125, "velocity": 127, "channel": 0}, {"time_played": 77.5, "midi_note": 81, "frequency": 880, "note_held": 0.3125, "velocity": 127, "channel": 0}, {"time_played": 77.5, "midi_note": 72, "frequency": 523.25, "note_held": 0.3125, "velocity": 96, "channel": 2}, {"time_played": 77.5, "midi_note": 81, "frequency": 880, "note_held": 0.3125, "velocity": 96, "channel": 2}, {"time_played": 77.8125, "midi_note": 72, "frequency": 523.25, "note_held": 0.3125, "velocity": 127, "channel": 0}, {"time_played": 77.8125, "midi_note": 81, "frequency": 880, "note_held": 0.3125, "velocity": 127, "channel": 0}, {"time_played": 77.8125, "midi_note": 72, "frequency": 523.25, "note_held": 0.3125, "velocity": 96, "channel": 2}, {"time_played": 77.8125, "midi_note": 81, "frequency": 880, "note_held": 0.3125, "velocity": 96, "channel": 2}, {"time_played": 78.125, "midi_note": 72, "frequency": 523.25, "note_held": 0.3125, "velocity": 127, "channel": 0}, {"time_played": 78.125, "midi_note": 81, "frequency": 880, "note_held": 0.3125, "velocity": 127, "channel": 0}, {"time_played": 78.125, "midi_note": 72, "frequency": 523.25, "note_held": 0.3125, "velocity": 96, "channel": 2}, {"time_played": 78.125, "midi_note": 81, "frequency": 880, "note_held": 0.3125, "velocity": 96, "channel": 2}, {"time_played": 78.4375, "midi_note": 71, "frequency": 493.88, "note_held": 0.3125, "velocity": 127, "channel": 0}, {"time_played": 78.4375, "midi_note": 79, "frequency": 783.99, "note_held": 0.3125, "velocity": 127, "channel": 0}, {"time_played": 78.4375, "midi_note": 71, "frequency": 493.88, "note_held": 0.3125, "velocity": 96, "channel": 2}, {"time_played": 78.4375, "midi_note": 79, "frequency": 783.99, "note_held": 0.3125, "velocity": 96, "channel": 2}, {"time_played": 78.75, "midi_note": 71, "frequency": 493.88, "note_held": 0.3125, "velocity": 127, "channel": 0}, {"time_played": 78.75, "midi_note": 79, "frequency": 783.99, "note_held": 0.3125, "velocity": 127, "channel": 0}, {"time_played": 78.75, "midi_note": 71, "frequency": 493.88, "note_held": 0.3125, "velocity": 96, "channel": 2}, {"time_played": 78.75, "midi_note": 79, "frequency": 783.99, "note_held": 0.3125, "velocity": 96, "channel": 2}, {"time_played": 79.0625, "midi_note": 71, "frequency": 493.88, "note_held": 0.3125, "velocity": 127, "channel": 0}, {"time_played": 79.0625, "midi_note": 79, "frequency": 783.99, "note_held": 0.3125, "velocity": 127, "channel": 0}, {"time_played": 79.0625, "midi_note": 71, "frequency": 493.88, "note_held": 0.3125, "velocity": 96, "channel": 2}, {"time_played": 79.0625, "midi_note": 79, "frequency": 783.99, "note_held": 0.3125, "velocity": 96, "channel": 2}, {"time_played": 79.375, "midi_note": 71, "frequency": 493.88, "note_held": 0.3125, "velocity": 127, "channel": 0}, {"time_played": 79.375, "midi_note": 79, "frequency": 783.99, "note_held": 0.3125, "velocity": 127, "channel": 0}, {"time_played": 79.375, "midi_note": 71, "frequency": 493.88, "note_held": 0.3125, "velocity": 96, "channel": 2}, {"time_played": 79.375, "midi_note": 79, "frequency": 783.99, "note_held": 0.3125, "velocity": 96, "channel": 2}, {"time_played": 79.6875, "midi_note": 71, "frequency": 493.88, "note_held": 0.3125, "velocity": 127, "channel": 0}, {"time_played": 79.6875, "midi_note": 79, "frequency": 783.99, "note_held": 0.3125, "velocity": 127, "channel": 0}, {"time_played": 79.6875, "midi_note": 71, "frequency": 493.88, "note_held": 0.3125, "velocity": 96, "channel": 2}, {"time_played": 79.6875, "midi_note": 79, "frequency": 783.99, "note_held": 0.3125, "velocity": 96, "channel": 2}, {"time_played": 80.0, "midi_note": 72, "frequency": 523.25, "note_held": 0.3125, "velocity": 127, "channel": 0}, {"time_played": 80.0, "midi_note": 81, "frequency": 880, "note_held": 0.3125, "velocity": 127, "channel": 0}, {"time_played": 80.0, "midi_note": 72, "frequency": 523.25, "note_held": 0.3125, "velocity": 96, "channel": 2}, {"time_played": 80.0, "midi_note": 81, "frequency": 880, "note_held": 0.3125, "velocity": 96, "channel": 2}, {"time_played": 80.3125, "midi_note": 72, "frequency": 523.25, "note_held": 0.3125, "velocity": 127, "channel": 0}, {"time_played": 80.3125, "midi_note": 81, "frequency": 880, "note_held": 0.3125, "velocity": 127, "channel": 0}, {"time_played": 80.3125, "midi_note": 72, "frequency": 523.25, "note_held": 0.3125, "velocity": 96, "channel": 2}, {"time_played": 80.3125, "midi_note": 81, "frequency": 880, "note_held": 0.3125, "velocity": 96, "channel": 2}, {"time_played": 80.625, "midi_note": 72, "frequency": 523.25, "note_held": 0.3125, "velocity": 127, "channel": 0}, {"time_played": 80.625, "midi_note": 81, "frequency": 880, "note_held": 0.3125, "velocity": 127, "channel": 0}, {"time_played": 80.625, "midi_note": 72, "frequency": 523.25, "note_held": 0.3125, "velocity": 96, "channel": 2}, {"time_played": 80.625, "midi_note": 81, "frequency": 880, "note_held": 0.3125, "velocity": 96, "channel": 2}, {"time_played": 80.9375, "midi_note": 72, "frequency": 523.25, "note_held": 0.3125, "velocity": 127, "channel": 0}, {"time_played": 80.9375, "midi_note": 81, "frequency": 880, "note_held": 0.3125, "velocity": 127, "channel": 0}, {"time_played": 80.9375, "midi_note": 72, "frequency": 523.25, "note_held": 0.3125, "velocity": 96, "channel": 2}, {"time_played": 80.9375, "midi_note": 81, "frequency": 880, "note_held": 0.3125, "velocity": 96, "channel": 2}, {"time_played": 81.25, "midi_note": 72, "frequency": 523.25, "note_held": 0.3125, "velocity": 127, "channel": 0}, {"time_played": 81.25, "midi_note": 81, "frequency": 880, "note_held": 0.3125, "velocity": 127, "channel": 0}, {"time_played": 81.25, "midi_note": 72, "frequency": 523.25, "note_held": 0.3125, "velocity": 96, "channel": 2}, {"time_played": 81.25, "midi_note": 81, "frequency": 880, "note_held": 0.3125, "velocity": 96, "channel": 2}, {"time_played": 81.5625, "midi_note": 72, "frequency": 523.25, "note_held": 0.3125, "velocity": 127, "channel": 0}, {"time_played": 81.5625, "midi_note": 81, "frequency": 880, "note_held": 0.3125, "velocity": 127, "channel": 0}, {"time_played": 81.5625, "midi_note": 72, "frequency": 523.25, "note_held": 0.3125, "velocity": 96, "channel": 2}, {"time_played": 81.5625, "midi_note": 81, "frequency": 880, "note_held": 0.3125, "velocity": 96, "channel": 2}, {"time_played": 81.875, "midi_note": 72, "frequency": 523.25, "note_held": 0.3125, "velocity": 127, "channel": 0}, {"time_played": 81.875, "midi_note": 81, "frequency": 880, "note_held": 0.3125, "velocity": 127, "channel": 0}, {"time_played": 81.875, "midi_note": 72, "frequency": 523.25, "note_held": 0.3125, "velocity": 96, "channel": 2}, {"time_played": 81.875, "midi_note": 81, "frequency": 880, "note_held": 0.3125, "velocity": 96, "channel": 2}, {"time_played": 82.1875, "midi_note": 72, "frequency": 523.25, "note_held": 0.3125, "velocity": 127, "channel": 0}, {"time_played": 82.1875, "midi_note": 81, "frequency": 880, "note_held": 0.3125, "velocity": 127, "channel": 0}, {"time_played": 82.1875, "midi_note": 72, "frequency": 523.25, "note_held": 0.3125, "velocity": 96, "channel": 2}, {"time_played": 82.1875, "midi_note": 81, "frequency": 880, "note_held": 0.3125, "velocity": 96, "channel": 2}, {"time_played": 82.5, "midi_note": 72, "frequency": 523.25, "note_held": 0.3125, "velocity": 127, "channel": 0}, {"time_played": 82.5, "midi_note": 81, "frequency": 880, "note_held": 0.3125, "velocity": 127, "channel": 0}, {"time_played": 82.5, "midi_note": 72, "frequency": 523.25, "note_held": 0.3125, "velocity": 96, "channel": 2}, {"time_played": 82.5, "midi_note": 81, "frequency": 880, "note_held": 0.3125, "velocity": 96, "channel": 2}, {"time_played": 82.8125, "midi_note": 72, "frequency": 523.25, "note_held": 0.3125, "velocity": 127, "channel": 0}, {"time_played": 82.8125, "midi_note": 81, "frequency": 880, "note_held": 0.3125, "velocity": 127, "channel": 0}, {"time_played": 82.8125, "midi_note": 72, "frequency": 523.25, "note_held": 0.3125, "velocity": 96, "channel": 2}, {"time_played": 82.8125, "midi_note": 81, "frequency": 880, "note_held": 0.3125, "velocity": 96, "channel": 2}, {"time_played": 83.125, "midi_note": 72, "frequency": 523.25, "note_held": 0.3125, "velocity": 127, "channel": 0}, {"time_played": 83.125, "midi_note": 81, "frequency": 880, "note_held": 0.3125, "velocity": 127, "channel": 0}, {"time_played": 83.125, "midi_note": 72, "frequency": 523.25, "note_held": 0.3125, "velocity": 96, "channel": 2}, {"time_played": 83.125, "midi_note": 81, "frequency": 880, "note_held": 0.3125, "velocity": 96, "channel": 2}, {"time_played": 83.4375, "midi_note": 71, "frequency": 493.88, "note_held": 0.3125, "velocity": 127, "channel": 0}, {"time_played": 83.4375, "midi_note": 79, "frequency": 783.99, "note_held": 0.3125, "velocity": 127, "channel": 0}, {"time_played": 83.4375, "midi_note": 71, "frequency": 493.88, "note_held": 0.3125, "velocity": 96, "channel": 2}, {"time_played": 83.4375, "midi_note": 79, "frequency": 783.99, "note_held": 0.3125, "velocity": 96, "channel": 2}, {"time_played": 83.75, "midi_note": 71, "frequency": 493.88, "note_held": 0.3125, "velocity": 127, "channel": 0}, {"time_played": 83.75, "midi_note": 79, "frequency": 783.99, "note_held": 0.3125, "velocity": 127, "channel": 0}, {"time_played": 83.75, "midi_note": 71, "frequency": 493.88, "note_held": 0.3125, "velocity": 96, "channel": 2}, {"time_played": 83.75, "midi_note": 79, "frequency": 783.99, "note_held": 0.3125, "velocity": 96, "channel": 2}, {"time_played": 84.0625, "midi_note": 71, "frequency": 493.88, "note_held": 0.3125, "velocity": 127, "channel": 0}, {"time_played": 84.0625, "midi_note": 79, "frequency": 783.99, "note_held": 0.3125, "velocity": 127, "channel": 0}, {"time_played": 84.0625, "midi_note": 71, "frequency": 493.88, "note_held": 0.3125, "velocity": 96, "channel": 2}, {"time_played": 84.0625, "midi_note": 79, "frequency": 783.99, "note_held": 0.3125, "velocity": 96, "channel": 2}, {"time_played": 84.375, "midi_note": 71, "frequency": 493.88, "note_held": 0.3125, "velocity": 127, "channel": 0}, {"time_played": 84.375, "midi_note": 79, "frequency": 783.99, "note_held": 0.3125, "velocity": 127, "channel": 0}, {"time_played": 84.375, "midi_note": 71, "frequency": 493.88, "note_held": 0.3125, "velocity": 96, "channel": 2}, {"time_played": 84.375, "midi_note": 79, "frequency": 783.99, "note_held": 0.3125, "velocity": 96, "channel": 2}, {"time_played": 84.6875, "midi_note": 71, "frequency": 493.88, "note_held": 0.3125, "velocity": 127, "channel": 0}, {"time_played": 84.6875, "midi_note": 79, "frequency": 783.99, "note_held": 0.3125, "velocity": 127, "channel": 0}, {"time_played": 84.6875, "midi_note": 71, "frequency": 493.88, "note_held": 0.3125, "velocity": 96, "channel": 2}, {"time_played": 84.6875, "midi_note": 79, "frequency": 783.99, "note_held": 0.3125, "velocity": 96, "channel": 2}, {"time_played": 85.0, "midi_note": 72, "frequency": 523.25, "note_held": 0.3125, "velocity": 127, "channel": 0}, {"time_played": 85.0, "midi_note": 81, "frequency": 880, "note_held": 0.3125, "velocity": 127, "channel": 0}, {"time_played": 85.0, "midi_note": 72, "frequency": 523.25, "note_held": 0.3125, "velocity": 96, "channel": 2}, {"time_played": 85.0, "midi_note": 81, "frequency": 880, "note_held": 0.3125, "velocity": 96, "channel": 2}, {"time_played": 85.3125, "midi_note": 72, "frequency": 523.25, "note_held": 0.3125, "velocity": 127, "channel": 0}, {"time_played": 85.3125, "midi_note": 81, "frequency": 880, "note_held": 0.3125, "velocity": 127, "channel": 0}, {"time_played": 85.3125, "midi_note": 72, "frequency": 523.25, "note_held": 0.3125, "velocity": 96, "channel": 2}, {"time_played": 85.3125, "midi_note": 81, "frequency": 880, "note_held": 0.3125, "velocity": 96, "channel": 2}, {"time_played": 85.625, "midi_note": 72, "frequency": 523.25, "note_held": 0.3125, "velocity": 127, "channel": 0}, {"time_played": 85.625, "midi_note": 81, "frequency": 880, "note_held": 0.3125, "velocity": 127, "channel": 0}, {"time_played": 85.625, "midi_note": 72, "frequency": 523.25, "note_held": 0.3125, "velocity": 96, "channel": 2}, {"time_played": 85.625, "midi_note": 81, "frequency": 880, "note_held": 0.3125, "velocity": 96, "channel": 2}, {"time_played": 85.9375, "midi_note": 72, "frequency": 523.25, "note_held": 0.3125, "velocity": 127, "channel": 0}, {"time_played": 85.9375, "midi_note": 81, "frequency": 880, "note_held": 0.3125, "velocity": 127, "channel": 0}, {"time_played": 85.9375, "midi_note": 72, "frequency": 523.25, "note_held": 0.3125, "velocity": 96, "channel": 2}, {"time_played": 85.9375, "midi_note": 81, "frequency": 880, "note_held": 0.3125, "velocity": 96, "channel": 2}, {"time_played": 86.25, "midi_note": 72, "frequency": 523.25, "note_held": 0.3125, "velocity": 127, "channel": 0}, {"time_played": 86.25, "midi_note": 81, "frequency": 880, "note_held": 0.3125, "velocity": 127, "channel": 0}, {"time_played": 86.25, "midi_note": 72, "frequency": 523.25, "note_held": 0.3125, "velocity": 96, "channel": 2}, {"time_played": 86.25, "midi_note": 81, "frequency": 880, "note_held": 0.3125, "velocity": 96, "channel": 2}, {"time_played": 86.5625, "midi_note": 72, "frequency": 523.25, "note_held": 0.3125, "velocity": 127, "channel": 0}, {"time_played": 86.5625, "midi_note": 81, "frequency": 880, "note_held": 0.3125, "velocity": 127, "channel": 0}, {"time_played": 86.5625, "midi_note": 72, "frequency": 523.25, "note_held": 0.3125, "velocity": 96, "channel": 2}, {"time_played": 86.5625, "midi_note": 81, "frequency": 880, "note_held": 0.3125, "velocity": 96, "channel": 2}, {"time_played": 86.875, "midi_note": 72, "frequency": 523.25, "note_held": 0.3125, "velocity": 127, "channel": 0}, {"time_played": 86.875, "midi_note": 81, "frequency": 880, "note_held": 0.3125, "velocity": 127, "channel": 0}, {"time_played": 86.875, "midi_note": 72, "frequency": 523.25, "note_held": 0.3125, "velocity": 96, "channel": 2}, {"time_played": 86.875, "midi_note": 81, "frequency": 880, "note_held": 0.3125, "velocity": 96, "channel": 2}, {"time_played": 87.1875, "midi_note": 72, "frequency": 523.25, "note_held": 0.3125, "velocity": 127, "channel": 0}, {"time_played": 87.1875, "midi_note": 81, "frequency": 880, "note_held": 0.3125, "velocity": 127, "channel": 0}, {"time_played": 87.1875, "midi_note": 72, "frequency": 523.25, "note_held": 0.3125, "velocity": 96, "channel": 2}, {"time_played": 87.1875, "midi_note": 81, "frequency": 880, "note_held": 0.3125, "velocity": 96, "channel": 2}, {"time_played": 87.5, "midi_note": 72, "frequency": 523.25, "note_held": 0.3125, "velocity": 127, "channel": 0}, {"time_played": 87.5, "midi_note": 81, "frequency": 880, "note_held": 0.3125, "velocity": 127, "channel": 0}, {"time_played": 87.5, "midi_note": 72, "frequency": 523.25, "note_held": 0.3125, "velocity": 96, "channel": 2}, {"time_played": 87.5, "midi_note": 81, "frequency": 880, "note_held": 0.3125, "velocity": 96, "channel": 2}, {"time_played": 87.8125, "midi_note": 72, "frequency": 523.25, "note_held": 0.3125, "velocity": 127, "channel": 0}, {"time_played": 87.8125, "midi_note": 81, "frequency": 880, "note_held": 0.3125, "velocity": 127, "channel": 0}, {"time_played": 87.8125, "midi_note": 72, "frequency": 523.25, "note_held": 0.3125, "velocity": 96, "channel": 2}, {"time_played": 87.8125, "midi_note": 81, "frequency": 880, "note_held": 0.3125, "velocity": 96, "channel": 2}, {"time_played": 88.125, "midi_note": 72, "frequency": 523.25, "note_held": 0.3125, "velocity": 127, "channel": 0}, {"time_played": 88.125, "midi_note": 81, "frequency": 880, "note_held": 0.3125, "velocity": 127, "channel": 0}, {"time_played": 88.125, "midi_note": 72, "frequency": 523.25, "note_held": 0.3125, "velocity": 96, "channel": 2}, {"time_played": 88.125, "midi_note": 81, "frequency": 880, "note_held": 0.3125, "velocity": 96, "channel": 2}, {"time_played": 88.4375, "midi_note": 71, "frequency": 493.88, "note_held": 0.3125, "velocity": 127, "channel": 0}, {"time_played": 88.4375, "midi_note": 79, "frequency": 783.99, "note_held": 0.3125, "velocity": 127, "channel": 0}, {"time_played": 88.4375, "midi_note": 71, "frequency": 493.88, "note_held": 0.3125, "velocity": 96, "channel": 2}, {"time_played": 88.4375, "midi_note": 79, "frequency": 783.99, "note_held": 0.3125, "velocity": 96, "channel": 2}, {"time_played": 88.75, "midi_note": 71, "frequency": 493.88, "note_held": 0.3125, "velocity": 127, "channel": 0}, {"time_played": 88.75, "midi_note": 79, "frequency": 783.99, "note_held": 0.3125, "velocity": 127, "channel": 0}, {"time_played": 88.75, "midi_note": 71, "frequency": 493.88, "note_held": 0.3125, "velocity": 96, "channel": 2}, {"time_played": 88.75, "midi_note": 79, "frequency": 783.99, "note_held": 0.3125, "velocity": 96, "channel": 2}, {"time_played": 89.0625, "midi_note": 71, "frequency": 493.88, "note_held": 0.3125, "velocity": 127, "channel": 0}, {"time_played": 89.0625, "midi_note": 79, "frequency": 783.99, "note_held": 0.3125, "velocity": 127, "channel": 0}, {"time_played": 89.0625, "midi_note": 71, "frequency": 493.88, "note_held": 0.3125, "velocity": 96, "channel": 2}, {"time_played": 89.0625, "midi_note": 79, "frequency": 783.99, "note_held": 0.3125, "velocity": 96, "channel": 2}, {"time_played": 89.375, "midi_note": 71, "frequency": 493.88, "note_held": 0.3125, "velocity": 127, "channel": 0}, {"time_played": 89.375, "midi_note": 79, "frequency": 783.99, "note_held": 0.3125, "velocity": 127, "channel": 0}, {"time_played": 89.375, "midi_note": 71, "frequency": 493.88, "note_held": 0.3125, "velocity": 96, "channel": 2}, {"time_played": 89.375, "midi_note": 79, "frequency": 783.99, "note_held": 0.3125, "velocity": 96, "channel": 2}, {"time_played": 89.6875, "midi_note": 79, "frequency": 783.99, "note_held": 2.5, "velocity": 127, "channel": 0}, {"time_played": 89.6875, "midi_note": 71, "frequency": 493.88, "note_held": 2.5, "velocity": 127, "channel": 0}, {"time_played": 89.6875, "midi_note": 79, "frequency": 783.99, "note_held": 2.5, "velocity": 96, "channel": 2}, {"time_played": 89.6875, "midi_note": 71, "frequency": 493.88, "note_held": 2.5, "velocity": 96, "channel": 2}]
=======
[[0, 72, 0.3125, 96, 2], [0, 81, 0.3125, 96, 2], [0, 72, 0.3125, 127, 0], [0, 81, 0.3125, 127, 0], [0.3125, 72, 0.3125, 127, 0], [0.3125, 81, 0.3125, 127, 0], [0.3125, 72, 0.3125, 96, 2], [0.3125, 81, 0.3125, 96, 2], [0.625, 72, 0.3125, 127, 0], [0.625, 81, 0.3125, 127, 0], [0.625, 72, 0.3125, 96, 2], [0.625, 81, 0.3125, 96, 2], [0.9375, 72, 0.3125, 127, 0], [0.9375, 81, 0.3125, 127, 0], [0.9375, 72, 0.3125, 96, 2], [0.9375, 81, 0.3125, 96, 2], [1.25, 72, 0.3125, 127, 0], [1.25, 81, 0.3125, 127, 0], [1.25, 72, 0.3125, 96, 2], [1.25, 81, 0.3125, 96, 2], [1.5625, 72, 0.3125, 127, 0], [1.5625, 81, 0.3125, 127, 0], [1.5625, 72, 0.3125, 96, 2], [1.5625, 81, 0.3125, 96, 2], [1.875, 72, 0.3125, 127, 0], [1.875, 81, 0.3125, 127, 0], [1.875, 72, 0.3125, 96, 2], [1.875, 81, 0.3125, 96, 2], [2.1875, 72, 0.3125, 127, 0], [2.1875, 81, 0.3125, 127, 0], [2.1875, 72, 0.3125, 96, 2], [2.1875, 81, 0.3125, 96, 2], [2.5, 72, 0.3125, 127, 0], [2.5, 81, 0.3125, 127, 0], [2.5, 72, 0.3125, 96, 2], [2.5, 81, 0.3125, 96, 2], [2.8125, 72, 0.3125, 127, 0], [2.8125, 81, 0.3125, 127, 0], [2.8125, 72, 0.3125, 96, 2], [2.8125, 81, 0.3125, 96, 2], [3.125, 72, 0.3125, 127, 0], [3.125, 81, 0.3125, 127, 0], [3.125, 72, 0.3125, 96, 2], [3.125, 81, 0.3125, 96, 2], [3.4375, 71, 0.3125, 127, 0], [3.4375, 79, 0.3125, 127, 0], [3.4375, 71, 0.3125, 96, 2], [3.4375, 79, 0.3125, 96, 2], [3.75, 71, 0.3125, 127, 0], [3.75, 79, 0.3125, 127, 0], [3.75, 71, 0.3125, 96, 2], [3.75, 79, 0.3125, 96, 2], [4.0625, 71, 0.3125, 127, 0], [4.0625, 79, 0.3125, 127, 0], [4.0625, 71, 0.3125, 96, 2], [4.0625, 79, 0.3125, 96, 2], [4.375, 71, 0.3125, 127, 0], [4.375, 79, 0.3125, 127, 0], [4.375, 71, 0.3125, 96, 2], [4.375, 79, 0.3125, 96, 2], [4.6875, 71, 0.3125, 127, 0], [4.6875, 79, 0.3125, 127, 0], [4.6875, 71, 0.3125, 96, 2], [4.6875, 79, 0.3125, 96, 2], [5.0, 72, 0.3125, 127, 0], [5.0, 81, 0.3125, 127, 0], [5.0, 72, 0.3125, 96, 2], [5.0, 81, 0.3125, 96, 2], [5.3125, 72, 0.3125, 127, 0], [5.3125, 81, 0.3125, 127, 0], [5.3125, 72, 0.3125, 96, 2], [5.3125, 81, 0.3125, 96, 2], [5.625, 72, 0.3125, 127, 0], [5.625, 81, 0.3125, 127, 0], [5.625, 72, 0.3125, 96, 2], [5.625, 81, 0.3125, 96, 2], [5.9375, 72, 0.3125, 127, 0], [5.9375, 81, 0.3125, 127, 0], [5.9375, 72, 0.3125, 96, 2], [5.9375, 81, 0.3125, 96, 2], [6.25, 72, 0.3125, 127, 0], [6.25, 81, 0.3125, 127, 0], [6.25, 72, 0.3125, 96, 2], [6.25, 81, 0.3125, 96, 2], [6.5625, 72, 0.3125, 127, 0], [6.5625, 81, 0.3125, 127, 0], [6.5625, 72, 0.3125, 96, 2], [6.5625, 81, 0.3125, 96, 2], [6.875, 72, 0.3125, 127, 0], [6.875, 81, 0.3125, 127, 0], [6.875, 72, 0.3125, 96, 2], [6.875, 81, 0.3125, 96, 2], [7.1875, 72, 0.3125, 127, 0], [7.1875, 81, 0.3125, 127, 0], [7.1875, 72, 0.3125, 96, 2], [7.1875, 81, 0.3125, 96, 2], [7.5, 72, 0.3125, 127, 0], [7.5, 81, 0.3125, 127, 0], [7.5, 72, 0.3125, 96, 2], [7.5, 81, 0.3125, 96, 2], [7.8125, 72, 0.3125, 127, 0], [7.8125, 81, 0.3125, 127, 0], [7.8125, 72, 0.3125, 96, 2], [7.8125, 81, 0.3125, 96, 2], [8.125, 72, 0.3125, 127, 0], [8.125, 81, 0.3125, 127, 0], [8.125, 72, 0.3125, 96, 2], [8.125, 81, 0.3125, 96, 2], [8.4375, 71, 0.3125, 127, 0], [8.4375, 79, 0.3125, 127, 0], [8.4375, 71, 0.3125, 96, 2], [8.4375, 79, 0.3125, 96, 2], [8.75, 71, 0.3125, 127, 0], [8.75, 79, 0.3125, 127, 0], [8.75, 71, 0.3125, 96, 2], [8.75, 79, 0.3125, 96, 2], [9.0625, 71, 0.3125, 127, 0], [9.0625, 79, 0.3125, 127, 0], [9.0625, 71, 0.3125, 96, 2], [9.0625, 79, 0.3125, 96, 2], [9.375, 71, 0.3125, 127, 0], [9.375, 79, 0.3125, 127, 0], [9.375, 71, 0.3125, 96, 2], [9.375, 79, 0.3125, 96, 2], [9.6875, 71, 0.3125, 127, 0], [9.6875, 79, 0.3125, 127, 0], [9.375, 31, 0.625, 96, 1], [9.6875, 71, 0.3125, 96, 2], [9.6875, 79, 0.3125, 96, 2], [10.0, 72, 0.3125, 127, 0], [10.0, 81, 0.3125, 127, 0], [10.0, 72, 0.3125, 96, 2], [10.0, 81, 0.3125, 96, 2], [10.0, 33, 0.46875, 96, 1], [10.3125, 72, 0.3125, 127, 0], [10.3125, 81, 0.3125, 127, 0], [10.3125, 72, 0.3125, 96, 2], [10.3125, 81, 0.3125, 96, 2], [10.625, 72, 0.3125, 127, 0], [10.625, 81, 0.3125, 127, 0], [10.625, 72, 0.3125, 96, 2], [10.625, 81, 0.3125, 96, 2], [10.9375, 72, 0.3125, 127, 0], [10.9375, 81, 0.3125, 127, 0], [10.9375, 72, 0.3125, 96, 2], [10.9375, 81, 0.3125, 96, 2], [11.25, 72, 0.3125, 127, 0], [11.25, 81, 0.3125, 127, 0], [11.25, 72, 0.3125, 96, 2], [11.25, 81, 0.3125, 96, 2], [11.5625, 72, 0.3125, 127, 0], [11.5625, 81, 0.3125, 127, 0], [11.5625, 72, 0.3125, 96, 2], [11.5625, 81, 0.3125, 96, 2], [11.875, 72, 0.3125, 127, 0], [11.875, 81, 0.3125, 127, 0], [11.875, 72, 0.3125, 96, 2], [11.875, 81, 0.3125, 96, 2], [12.1875, 72, 0.3125, 127, 0], [12.1875, 81, 0.3125, 127, 0], [11.875, 35, 0.625, 96, 1], [12.1875, 72, 0.3125, 96, 2], [12.1875, 81, 0.3125, 96, 2], [12.5, 72, 0.3125, 127, 0], [12.5, 81, 0.3125, 127, 0], [12.5, 72, 0.3125, 96, 2], [12.5, 81, 0.3125, 96, 2], [12.5, 40, 0.46875, 96, 1], [12.8125, 72, 0.3125, 127, 0], [12.8125, 81, 0.3125, 127, 0], [12.8125, 72, 0.3125, 96, 2], [12.8125, 81, 0.3125, 96, 2], [13.125, 72, 0.3125, 127, 0], [13.125, 81, 0.3125, 127, 0], [13.125, 72, 0.3125, 96, 2], [13.125, 81, 0.3125, 96, 2], [13.4375, 71, 0.3125, 127, 0], [13.4375, 79, 0.3125, 127, 0], [13.4375, 71, 0.3125, 96, 2], [13.4375, 79, 0.3125, 96, 2], [13.75, 71, 0.3125, 127, 0], [13.75, 79, 0.3125, 127, 0], [13.75, 71, 0.3125, 96, 2], [13.75, 79, 0.3125, 96, 2], [14.0625, 71, 0.3125, 127, 0], [14.0625, 79, 0.3125, 127, 0], [14.0625, 71, 0.3125, 96, 2], [14.0625, 79, 0.3125, 96, 2], [14.375, 71, 0.3125, 127, 0], [14.375, 79, 0.3125, 127, 0], [14.375, 71, 0.3125, 96, 2], [14.375, 79, 0.3125, 96, 2], [14.6875, 71, 0.3125, 127, 0], [14.6875, 79, 0.3125, 127, 0], [14.375, 31, 0.625, 96, 1], [14.6875, 71, 0.3125, 96, 2], [14.6875, 79, 0.3125, 96, 2], [15.0, 72, 0.3125, 127, 0], [15.0, 81, 0.3125, 127, 0], [15.0, 72, 0.3125, 96, 2], [15.0, 81, 0.3125, 96, 2], [15.0, 33, 0.46875, 96, 1], [15.3125, 72, 0.3125, 127, 0], [15.3125, 81, 0.3125, 127, 0], [15.3125, 72, 0.3125, 96, 2], [15.3125, 81, 0.3125, 96, 2], [15.625, 72, 0.3125, 127, 0], [15.625, 81, 0.3125, 127, 0], [15.625, 72, 0.3125, 96, 2], [15.625, 81, 0.3125, 96, 2], [15.9375, 72, 0.3125, 127, 0], [15.9375, 81, 0.3125, 127, 0], [15.9375, 72, 0.3125, 96, 2], [15.9375, 81, 0.3125, 96, 2], [16.25, 72, 0.3125, 127, 0], [16.25, 81, 0.3125, 127, 0], [16.25, 72, 0.3125, 96, 2], [16.25, 81, 0.3125, 96, 2], [16.5625, 72, 0.3125, 127, 0], [16.5625, 81, 0.3125, 127, 0], [16.5625, 72, 0.3125, 96, 2], [16.5625, 81, 0.3125, 96, 2], [16.875, 72, 0.3125, 127, 0], [16.875, 81, 0.3125, 127, 0], [16.875, 72, 0.3125, 96, 2], [16.875, 81, 0.3125, 96, 2], [17.1875, 72, 0.3125, 127, 0], [17.1875, 81, 0.3125, 127, 0], [16.875, 35, 0.625, 96, 1], [17.1875, 72, 0.3125, 96, 2], [17.1875, 81, 0.3125, 96, 2], [17.5, 72, 0.3125, 127, 0], [17.5, 81, 0.3125, 127, 0], [17.5, 72, 0.3125, 96, 2], [17.5, 81, 0.3125, 96, 2], [17.5, 40, 0.46875, 96, 1], [17.8125, 72, 0.3125, 127, 0], [17.8125, 81, 0.3125, 127, 0], [17.8125, 72, 0.3125, 96, 2], [17.8125, 81, 0.3125, 96, 2], [18.125, 72, 0.3125, 127, 0], [18.125, 81, 0.3125, 127, 0], [18.125, 72, 0.3125, 96, 2], [18.125, 81, 0.3125, 96, 2], [18.4375, 71, 0.3125, 127, 0], [18.4375, 79, 0.3125, 127, 0], [18.4375, 71, 0.3125, 96, 2], [18.4375, 79, 0.3125, 96, 2], [18.75, 71, 0.3125, 127, 0], [18.75, 79, 0.3125, 127, 0], [18.75, 71, 0.3125, 96, 2], [18.75, 79, 0.3125, 96, 2], [19.0625, 71, 0.3125, 127, 0], [19.0625, 79, 0.3125, 127, 0], [19.0625, 71, 0.3125, 96, 2], [19.0625, 79, 0.3125, 96, 2], [19.375, 71, 0.3125, 127, 0], [19.375, 79, 0.3125, 127, 0], [19.375, 71, 0.3125, 96, 2], [19.375, 79, 0.3125, 96, 2], [19.6875, 71, 0.3125, 127, 0], [19.6875, 79, 0.3125, 127, 0], [19.375, 31, 0.625, 96, 1], [19.6875, 71, 0.3125, 96, 2], [19.6875, 79, 0.3125, 96, 2], [20.0, 72, 0.3125, 127, 0], [20.0, 81, 0.3125, 127, 0], [20.0, 72, 0.3125, 96, 2], [20.0, 81, 0.3125, 96, 2], [20.0, 33, 0.46875, 96, 1], [20.3125, 72, 0.3125, 127, 0], [20.3125, 81, 0.3125, 127, 0], [20.3125, 72, 0.3125, 96, 2], [20.3125, 81, 0.3125, 96, 2], [20.625, 72, 0.3125, 127, 0], [20.625, 81, 0.3125, 127, 0], [20.625, 72, 0.3125, 96, 2], [20.625, 81, 0.3125, 96, 2], [20.9375, 72, 0.3125, 127, 0], [20.9375, 81, 0.3125, 127, 0], [20.9375, 72, 0.3125, 96, 2], [20.9375, 81, 0.3125, 96, 2], [21.25, 72, 0.3125, 127, 0], [21.25, 81, 0.3125, 127, 0], [21.25, 72, 0.3125, 96, 2], [21.25, 81, 0.3125, 96, 2], [21.5625, 72, 0.3125, 127, 0], [21.5625, 81, 0.3125, 127, 0], [21.5625, 72, 0.3125, 96, 2], [21.5625, 81, 0.3125, 96, 2], [21.875, 72, 0.3125, 127, 0], [21.875, 81, 0.3125, 127, 0], [21.875, 72, 0.3125, 96, 2], [21.875, 81, 0.3125, 96, 2], [22.1875, 72, 0.3125, 127, 0], [22.1875, 81, 0.3125, 127, 0], [21.875, 35, 0.625, 96, 1], [22.1875, 72, 0.3125, 96, 2], [22.1875, 81, 0.3125, 96, 2], [22.5, 72, 0.3125, 127, 0], [22.5, 81, 0.3125, 127, 0], [22.5, 72, 0.3125, 96, 2], [22.5, 81, 0.3125, 96, 2], [22.5, 40, 0.46875, 96, 1], [22.8125, 72, 0.3125, 127, 0], [22.8125, 81, 0.3125, 127, 0], [22.8125, 72, 0.3125, 96, 2], [22.8125, 81, 0.3125, 96, 2], [23.125, 72, 0.3125, 127, 0], [23.125, 81, 0.3125, 127, 0], [23.125, 72, 0.3125, 96, 2], [23.125, 81, 0.3125, 96, 2], [23.4375, 71, 0.3125, 127, 0], [23.4375, 79, 0.3125, 127, 0], [23.4375, 71, 0.3125, 96, 2], [23.4375, 79, 0.3125, 96, 2], [23.75, 71, 0.3125, 127, 0], [23.75, 79, 0.3125, 127, 0], [23.75, 71, 0.3125, 96, 2], [23.75, 79, 0.3125, 96, 2], [24.0625, 71, 0.3125, 127, 0], [24.0625, 79, 0.3125, 127, 0], [24.0625, 71, 0.3125, 96, 2], [24.0625, 79, 0.3125, 96, 2], [24.375, 71, 0.3125, 127, 0], [24.375, 79, 0.3125, 127, 0], [24.375, 71, 0.3125, 96, 2], [24.375, 79, 0.3125, 96, 2], [24.6875, 71, 0.3125, 127, 0], [24.6875, 79, 0.3125, 127, 0], [24.375, 31, 0.625, 96, 1], [24.6875, 71, 0.3125, 96, 2], [24.6875, 79, 0.3125, 96, 2], [25.0, 72, 0.3125, 127, 0], [25.0, 81, 0.3125, 127, 0], [25.0, 72, 0.3125, 96, 2], [25.0, 81, 0.3125, 96, 2], [25.0, 33, 0.46875, 96, 1], [25.3125, 72, 0.3125, 127, 0], [25.3125, 81, 0.3125, 127, 0], [25.3125, 72, 0.3125, 96, 2], [25.3125, 81, 0.3125, 96, 2], [25.625, 72, 0.3125, 127, 0], [25.625, 81, 0.3125, 127, 0], [25.625, 72, 0.3125, 96, 2], [25.625, 81, 0.3125, 96, 2], [25.9375, 72, 0.3125, 127, 0], [25.9375, 81, 0.3125, 127, 0], [25.9375, 72, 0.3125, 96, 2], [25.9375, 81, 0.3125, 96, 2], [26.25, 72, 0.3125, 127, 0], [26.25, 81, 0.3125, 127, 0], [26.25, 72, 0.3125, 96, 2], [26.25, 81, 0.3125, 96, 2], [26.5625, 72, 0.3125, 127, 0], [26.5625, 81, 0.3125, 127, 0], [26.5625, 72, 0.3125, 96, 2], [26.5625, 81, 0.3125, 96, 2], [26.875, 72, 0.3125, 127, 0], [26.875, 81, 0.3125, 127, 0], [26.875, 72, 0.3125, 96, 2], [26.875, 81, 0.3125, 96, 2], [27.1875, 72, 0.3125, 127, 0], [27.1875, 81, 0.3125, 127, 0], [26.875, 35, 0.625, 96, 1], [27.1875, 72, 0.3125, 96, 2], [27.1875, 81, 0.3125, 96, 2], [27.5, 72, 0.3125, 127, 0], [27.5, 81, 0.3125, 127, 0], [27.5, 72, 0.3125, 96, 2], [27.5, 81, 0.3125, 96, 2], [27.5, 40, 0.46875, 96, 1], [27.8125, 72, 0.3125, 127, 0], [27.8125, 81, 0.3125, 127, 0], [27.8125, 72, 0.3125, 96, 2], [27.8125, 81, 0.3125, 96, 2], [28.125, 72, 0.3125, 127, 0], [28.125, 81, 0.3125, 127, 0], [28.125, 72, 0.3125, 96, 2], [28.125, 81, 0.3125, 96, 2], [28.4375, 71, 0.3125, 127, 0], [28.4375, 79, 0.3125, 127, 0], [28.4375, 71, 0.3125, 96, 2], [28.4375, 79, 0.3125, 96, 2], [28.75, 71, 0.3125, 127, 0], [28.75, 79, 0.3125, 127, 0], [28.75, 71, 0.3125, 96, 2], [28.75, 79, 0.3125, 96, 2], [29.0625, 71, 0.3125, 127, 0], [29.0625, 79, 0.3125, 127, 0], [29.0625, 71, 0.3125, 96, 2], [29.0625, 79, 0.3125, 96, 2], [29.375, 71, 0.3125, 127, 0], [29.375, 79, 0.3125, 127, 0], [29.375, 71, 0.3125, 96, 2], [29.375, 79, 0.3125, 96, 2], [29.6875, 71, 0.3125, 127, 0], [29.6875, 79, 0.3125, 127, 0], [29.375, 31, 0.625, 96, 1], [29.6875, 71, 0.3125, 96, 2], [29.6875, 79, 0.3125, 96, 2], [30.0, 72, 0.3125, 127, 0], [30.0, 81, 0.3125, 127, 0], [30.0, 72, 0.3125, 96, 2], [30.0, 81, 0.3125, 96, 2], [30.0, 33, 0.46875, 96, 1], [30.3125, 72, 0.3125, 127, 0], [30.3125, 81, 0.3125, 127, 0], [30.3125, 72, 0.3125, 96, 2], [30.3125, 81, 0.3125, 96, 2], [30.625, 72, 0.3125, 127, 0], [30.625, 81, 0.3125, 127, 0], [30.625, 72, 0.3125, 96, 2], [30.625, 81, 0.3125, 96, 2], [30.9375, 72, 0.3125, 127, 0], [30.9375, 81, 0.3125, 127, 0], [30.9375, 72, 0.3125, 96, 2], [30.9375, 81, 0.3125, 96, 2], [31.25, 72, 0.3125, 127, 0], [31.25, 81, 0.3125, 127, 0], [31.25, 72, 0.3125, 96, 2], [31.25, 81, 0.3125, 96, 2], [31.5625, 72, 0.3125, 127, 0], [31.5625, 81, 0.3125, 127, 0], [31.5625, 72, 0.3125, 96, 2], [31.5625, 81, 0.3125, 96, 2], [31.875, 72, 0.3125, 127, 0], [31.875, 81, 0.3125, 127, 0], [31.875, 72, 0.3125, 96, 2], [31.875, 81, 0.3125, 96, 2], [32.1875, 72, 0.3125, 127, 0], [32.1875, 81, 0.3125, 127, 0], [31.875, 35, 0.625, 96, 1], [32.1875, 72, 0.3125, 96, 2], [32.1875, 81, 0.3125, 96, 2], [32.5, 72, 0.3125, 127, 0], [32.5, 81, 0.3125, 127, 0], [32.5, 72, 0.3125, 96, 2], [32.5, 81, 0.3125, 96, 2], [32.5, 40, 0.46875, 96, 1], [32.8125, 72, 0.3125, 127, 0], [32.8125, 81, 0.3125, 127, 0], [32.8125, 72, 0.3125, 96, 2], [32.8125, 81, 0.3125, 96, 2], [33.125, 72, 0.3125, 127, 0], [33.125, 81, 0.3125, 127, 0], [33.125, 72, 0.3125, 96, 2], [33.125, 81, 0.3125, 96, 2], [33.4375, 71, 0.3125, 127, 0], [33.4375, 79, 0.3125, 127, 0], [33.4375, 71, 0.3125, 96, 2], [33.4375, 79, 0.3125, 96, 2], [33.75, 71, 0.3125, 127, 0], [33.75, 79, 0.3125, 127, 0], [33.75, 71, 0.3125, 96, 2], [33.75, 79, 0.3125, 96, 2], [34.0625, 71, 0.3125, 127, 0], [34.0625, 79, 0.3125, 127, 0], [34.0625, 71, 0.3125, 96, 2], [34.0625, 79, 0.3125, 96, 2], [34.375, 71, 0.3125, 127, 0], [34.375, 79, 0.3125, 127, 0], [34.375, 71, 0.3125, 96, 2], [34.375, 79, 0.3125, 96, 2], [34.6875, 71, 0.3125, 127, 0], [34.6875, 79, 0.3125, 127, 0], [34.375, 31, 0.625, 96, 1], [34.6875, 71, 0.3125, 96, 2], [34.6875, 79, 0.3125, 96, 2], [35.0, 72, 0.3125, 127, 0], [35.0, 81, 0.3125, 127, 0], [35.0, 72, 0.3125, 96, 2], [35.0, 81, 0.3125, 96, 2], [35.0, 33, 0.46875, 96, 1], [35.3125, 72, 0.3125, 127, 0], [35.3125, 81, 0.3125, 127, 0], [35.3125, 72, 0.3125, 96, 2], [35.3125, 81, 0.3125, 96, 2], [35.625, 72, 0.3125, 127, 0], [35.625, 81, 0.3125, 127, 0], [35.625, 72, 0.3125, 96, 2], [35.625, 81, 0.3125, 96, 2], [35.9375, 72, 0.3125, 127, 0], [35.9375, 81, 0.3125, 127, 0], [35.9375, 72, 0.3125, 96, 2], [35.9375, 81, 0.3125, 96, 2], [36.25, 72, 0.3125, 127, 0], [36.25, 81, 0.3125, 127, 0], [36.25, 72, 0.3125, 96, 2], [36.25, 81, 0.3125, 96, 2], [36.5625, 72, 0.3125, 127, 0], [36.5625, 81, 0.3125, 127, 0], [36.5625, 72, 0.3125, 96, 2], [36.5625, 81, 0.3125, 96, 2], [36.875, 72, 0.3125, 127, 0], [36.875, 81, 0.3125, 127, 0], [36.875, 72, 0.3125, 96, 2], [36.875, 81, 0.3125, 96, 2], [37.1875, 72, 0.3125, 127, 0], [37.1875, 81, 0.3125, 127, 0], [36.875, 35, 0.625, 96, 1], [37.1875, 72, 0.3125, 96, 2], [37.1875, 81, 0.3125, 96, 2], [37.5, 72, 0.3125, 127, 0], [37.5, 81, 0.3125, 127, 0], [37.5, 72, 0.3125, 96, 2], [37.5, 81, 0.3125, 96, 2], [37.5, 40, 0.46875, 96, 1], [37.8125, 72, 0.3125, 127, 0], [37.8125, 81, 0.3125, 127, 0], [37.8125, 72, 0.3125, 96, 2], [37.8125, 81, 0.3125, 96, 2], [38.125, 72, 0.3125, 127, 0], [38.125, 81, 0.3125, 127, 0], [38.125, 72, 0.3125, 96, 2], [38.125, 81, 0.3125, 96, 2], [38.4375, 71, 0.3125, 127, 0], [38.4375, 79, 0.3125, 127, 0], [38.4375, 71, 0.3125, 96, 2], [38.4375, 79, 0.3125, 96, 2], [38.75, 71, 0.3125, 127, 0], [38.75, 79, 0.3125, 127, 0], [38.75, 71, 0.3125, 96, 2], [38.75, 79, 0.3125, 96, 2], [39.0625, 71, 0.3125, 127, 0], [39.0625, 79, 0.3125, 127, 0], [39.0625, 71, 0.3125, 96, 2], [39.0625, 79, 0.3125, 96, 2], [39.375, 71, 0.3125, 127, 0], [39.375, 79, 0.3125, 127, 0], [39.375, 71, 0.3125, 96, 2], [39.375, 79, 0.3125, 96, 2], [39.6875, 71, 0.3125, 127, 0], [39.6875, 79, 0.3125, 127, 0], [39.375, 31, 0.625, 96, 1], [39.6875, 71, 0.3125, 96, 2], [39.6875, 79, 0.3125, 96, 2], [40.0, 72, 0.3125, 127, 0], [40.0, 81, 0.3125, 127, 0], [40.0, 72, 0.3125, 96, 2], [40.0, 81, 0.3125, 96, 2], [40.0, 33, 0.46875, 96, 1], [40.3125, 72, 0.3125, 127, 0], [40.3125, 81, 0.3125, 127, 0], [40.3125, 72, 0.3125, 96, 2], [40.3125, 81, 0.3125, 96, 2], [40.625, 72, 0.3125, 127, 0], [40.625, 81, 0.3125, 127, 0], [40.625, 72, 0.3125, 96, 2], [40.625, 81, 0.3125, 96, 2], [40.9375, 72, 0.3125, 127, 0], [40.9375, 81, 0.3125, 127, 0], [40.9375, 72, 0.3125, 96, 2], [40.9375, 81, 0.3125, 96, 2], [41.25, 72, 0.3125, 127, 0], [41.25, 81, 0.3125, 127, 0], [41.25, 72, 0.3125, 96, 2], [41.25, 81, 0.3125, 96, 2], [41.5625, 72, 0.3125, 127, 0], [41.5625, 81, 0.3125, 127, 0], [41.5625, 72, 0.3125, 96, 2], [41.5625, 81, 0.3125, 96, 2], [41.875, 72, 0.3125, 127, 0], [41.875, 81, 0.3125, 127, 0], [41.875, 72, 0.3125, 96, 2], [41.875, 81, 0.3125, 96, 2], [42.1875, 72, 0.3125, 127, 0], [42.1875, 81, 0.3125, 127, 0], [41.875, 35, 0.625, 96, 1], [42.1875, 72, 0.3125, 96, 2], [42.1875, 81, 0.3125, 96, 2], [42.5, 72, 0.3125, 127, 0], [42.5, 81, 0.3125, 127, 0], [42.5, 72, 0.3125, 96, 2], [42.5, 81, 0.3125, 96, 2], [42.5, 40, 0.46875, 96, 1], [42.8125, 72, 0.3125, 127, 0], [42.8125, 81, 0.3125, 127, 0], [42.8125, 72, 0.3125, 96, 2], [42.8125, 81, 0.3125, 96, 2], [43.125, 72, 0.3125, 127, 0], [43.125, 81, 0.3125, 127, 0], [43.125, 72, 0.3125, 96, 2], [43.125, 81, 0.3125, 96, 2], [43.4375, 71, 0.3125, 127, 0], [43.4375, 79, 0.3125, 127, 0], [43.4375, 71, 0.3125, 96, 2], [43.4375, 79, 0.3125, 96, 2], [43.75, 71, 0.3125, 127, 0], [43.75, 79, 0.3125, 127, 0], [43.75, 71, 0.3125, 96, 2], [43.75, 79, 0.3125, 96, 2], [44.0625, 71, 0.3125, 127, 0], [44.0625, 79, 0.3125, 127, 0], [44.0625, 71, 0.3125, 96, 2], [44.0625, 79, 0.3125, 96, 2], [44.375, 71, 0.3125, 127, 0], [44.375, 79, 0.3125, 127, 0], [44.375, 71, 0.3125, 96, 2], [44.375, 79, 0.3125, 96, 2], [44.6875, 71, 0.3125, 127, 0], [44.6875, 79, 0.3125, 127, 0], [44.375, 31, 0.625, 96, 1], [44.6875, 71, 0.3125, 96, 2], [44.6875, 79, 0.3125, 96, 2], [45.0, 72, 0.3125, 127, 0], [45.0, 81, 0.3125, 127, 0], [45.0, 72, 0.3125, 96, 2], [45.0, 81, 0.3125, 96, 2], [45.0, 33, 0.46875, 96, 1], [45.3125, 72, 0.3125, 127, 0], [45.3125, 81, 0.3125, 127, 0], [45.3125, 72, 0.3125, 96, 2], [45.3125, 81, 0.3125, 96, 2], [45.625, 72, 0.3125, 127, 0], [45.625, 81, 0.3125, 127, 0], [45.625, 72, 0.3125, 96, 2], [45.625, 81, 0.3125, 96, 2], [45.9375, 72, 0.3125, 127, 0], [45.9375, 81, 0.3125, 127, 0], [45.9375, 72, 0.3125, 96, 2], [45.9375, 81, 0.3125, 96, 2], [46.25, 72, 0.3125, 127, 0], [46.25, 81, 0.3125, 127, 0], [46.25, 72, 0.3125, 96, 2], [46.25, 81, 0.3125, 96, 2], [46.5625, 72, 0.3125, 127, 0], [46.5625, 81, 0.3125, 127, 0], [46.5625, 72, 0.3125, 96, 2], [46.5625, 81, 0.3125, 96, 2], [46.875, 72, 0.3125, 127, 0], [46.875, 81, 0.3125, 127, 0], [46.875, 72, 0.3125, 96, 2], [46.875, 81, 0.3125, 96, 2], [47.1875, 72, 0.3125, 127, 0], [47.1875, 81, 0.3125, 127, 0], [46.875, 35, 0.625, 96, 1], [47.1875, 72, 0.3125, 96, 2], [47.1875, 81, 0.3125, 96, 2], [47.5, 72, 0.3125, 127, 0], [47.5, 81, 0.3125, 127, 0], [47.5, 72, 0.3125, 96, 2], [47.5, 81, 0.3125, 96, 2], [47.5, 40, 0.46875, 96, 1], [47.8125, 72, 0.3125, 127, 0], [47.8125, 81, 0.3125, 127, 0], [47.8125, 72, 0.3125, 96, 2], [47.8125, 81, 0.3125, 96, 2], [48.125, 72, 0.3125, 127, 0], [48.125, 81, 0.3125, 127, 0], [48.125, 72, 0.3125, 96, 2], [48.125, 81, 0.3125, 96, 2], [48.4375, 71, 0.3125, 127, 0], [48.4375, 79, 0.3125, 127, 0], [48.4375, 71, 0.3125, 96, 2], [48.4375, 79, 0.3125, 96, 2], [48.75, 71, 0.3125, 127, 0], [48.75, 79, 0.3125, 127, 0], [48.75, 71, 0.3125, 96, 2], [48.75, 79, 0.3125, 96, 2], [49.0625, 71, 0.3125, 127, 0], [49.0625, 79, 0.3125, 127, 0], [49.0625, 71, 0.3125, 96, 2], [49.0625, 79, 0.3125, 96, 2], [49.375, 71, 0.3125, 127, 0], [49.375, 79, 0.3125, 127, 0], [49.375, 71, 0.3125, 96, 2], [49.375, 79, 0.3125, 96, 2], [49.6875, 71, 0.3125, 127, 0], [49.6875, 79, 0.3125, 127, 0], [49.375, 31, 0.625, 96, 1], [49.6875, 71, 0.3125, 96, 2], [49.6875, 79, 0.3125, 96, 2], [50.0, 72, 0.3125, 127, 0], [50.0, 81, 0.3125, 127, 0], [50.0, 72, 0.3125, 96, 2], [50.0, 81, 0.3125, 96, 2], [50.0, 33, 0.46875, 96, 1], [50.3125, 72, 0.3125, 127, 0], [50.3125, 81, 0.3125, 127, 0], [50.3125, 72, 0.3125, 96, 2], [50.3125, 81, 0.3125, 96, 2], [50.625, 72, 0.3125, 127, 0], [50.625, 81, 0.3125, 127, 0], [50.625, 72, 0.3125, 96, 2], [50.625, 81, 0.3125, 96, 2], [50.9375, 72, 0.3125, 127, 0], [50.9375, 81, 0.3125, 127, 0], [50.9375, 72, 0.3125, 96, 2], [50.9375, 81, 0.3125, 96, 2], [51.25, 72, 0.3125, 127, 0], [51.25, 81, 0.3125, 127, 0], [51.25, 72, 0.3125, 96, 2], [51.25, 81, 0.3125, 96, 2], [51.5625, 72, 0.3125, 127, 0], [51.5625, 81, 0.3125, 127, 0], [51.5625, 72, 0.3125, 96, 2], [51.5625, 81, 0.3125, 96, 2], [51.875, 72, 0.3125, 127, 0], [51.875, 81, 0.3125, 127, 0], [51.875, 72, 0.3125, 96, 2], [51.875, 81, 0.3125, 96, 2], [52.1875, 72, 0.3125, 127, 0], [52.1875, 81, 0.3125, 127, 0], [51.875, 35, 0.625, 96, 1], [52.1875, 72, 0.3125, 96, 2], [52.1875, 81, 0.3125, 96, 2], [52.5, 72, 0.3125, 127, 0], [52.5, 81, 0.3125, 127, 0], [52.5, 72, 0.3125, 96, 2], [52.5, 81, 0.3125, 96, 2], [52.5, 40, 0.46875, 96, 1], [52.8125, 72, 0.3125, 127, 0], [52.8125, 81, 0.3125, 127, 0], [52.8125, 72, 0.3125, 96, 2], [52.8125, 81, 0.3125, 96, 2], [53.125, 72, 0.3125, 127, 0], [53.125, 81, 0.3125, 127, 0], [53.125, 72, 0.3125, 96, 2], [53.125, 81, 0.3125, 96, 2], [53.4375, 71, 0.3125, 127, 0], [53.4375, 79, 0.3125, 127, 0], [53.4375, 71, 0.3125, 96, 2], [53.4375, 79, 0.3125, 96, 2], [53.75, 71, 0.3125, 127, 0], [53.75, 79, 0.3125, 127, 0], [53.75, 71, 0.3125, 96, 2], [53.75, 79, 0.3125, 96, 2], [54.0625, 71, 0.3125, 127, 0], [54.0625, 79, 0.3125, 127, 0], [54.0625, 71, 0.3125, 96, 2], [54.0625, 79, 0.3125, 96, 2], [54.375, 71, 0.3125, 127, 0], [54.375, 79, 0.3125, 127, 0], [54.375, 71, 0.3125, 96, 2], [54.375, 79, 0.3125, 96, 2], [54.6875, 71, 0.3125, 127, 0], [54.6875, 79, 0.3125, 127, 0], [54.375, 31, 0.625, 96, 1], [54.6875, 71, 0.3125, 96, 2], [54.6875, 79, 0.3125, 96, 2], [55.0, 72, 0.3125, 127, 0], [55.0, 81, 0.3125, 127, 0], [55.0, 72, 0.3125, 96, 2], [55.0, 81, 0.3125, 96, 2], [55.0, 33, 0.46875, 96, 1], [55.3125, 72, 0.3125, 127, 0], [55.3125, 81, 0.3125, 127, 0], [55.3125, 72, 0.3125, 96, 2], [55.3125, 81, 0.3125, 96, 2], [55.625, 72, 0.3125, 127, 0], [55.625, 81, 0.3125, 127, 0], [55.625, 72, 0.3125, 96, 2], [55.625, 81, 0.3125, 96, 2], [55.9375, 72, 0.3125, 127, 0], [55.9375, 81, 0.3125, 127, 0], [55.9375, 72, 0.3125, 96, 2], [55.9375, 81, 0.3125, 96, 2], [56.25, 72, 0.3125, 127, 0], [56.25, 81, 0.3125, 127, 0], [56.25, 72, 0.3125, 96, 2], [56.25, 81, 0.3125, 96, 2], [56.5625, 72, 0.3125, 127, 0], [56.5625, 81, 0.3125, 127, 0], [56.5625, 72, 0.3125, 96, 2], [56.5625, 81, 0.3125, 96, 2], [56.875, 72, 0.3125, 127, 0], [56.875, 81, 0.3125, 127, 0], [56.875, 72, 0.3125, 96, 2], [56.875, 81, 0.3125, 96, 2], [57.1875, 72, 0.3125, 127, 0], [57.1875, 81, 0.3125, 127, 0], [56.875, 35, 0.625, 96, 1], [57.1875, 72, 0.3125, 96, 2], [57.1875, 81, 0.3125, 96, 2], [57.5, 72, 0.3125, 127, 0], [57.5, 81, 0.3125, 127, 0], [57.5, 72, 0.3125, 96, 2], [57.5, 81, 0.3125, 96, 2], [57.5, 40, 0.46875, 96, 1], [57.8125, 72, 0.3125, 127, 0], [57.8125, 81, 0.3125, 127, 0], [57.8125, 72, 0.3125, 96, 2], [57.8125, 81, 0.3125, 96, 2], [58.125, 72, 0.3125, 127, 0], [58.125, 81, 0.3125, 127, 0], [58.125, 72, 0.3125, 96, 2], [58.125, 81, 0.3125, 96, 2], [58.4375, 71, 0.3125, 127, 0], [58.4375, 79, 0.3125, 127, 0], [58.4375, 71, 0.3125, 96, 2], [58.4375, 79, 0.3125, 96, 2], [58.75, 71, 0.3125, 127, 0], [58.75, 79, 0.3125, 127, 0], [58.75, 71, 0.3125, 96, 2], [58.75, 79, 0.3125, 96, 2], [59.0625, 71, 0.3125, 127, 0], [59.0625, 79, 0.3125, 127, 0], [59.0625, 71, 0.3125, 96, 2], [59.0625, 79, 0.3125, 96, 2], [59.375, 71, 0.3125, 127, 0], [59.375, 79, 0.3125, 127, 0], [59.375, 71, 0.3125, 96, 2], [59.375, 79, 0.3125, 96, 2], [59.6875, 71, 0.3125, 127, 0], [59.6875, 79, 0.3125, 127, 0], [59.375, 31, 0.625, 96, 1], [59.6875, 71, 0.3125, 96, 2], [59.6875, 79, 0.3125, 96, 2], [60.0, 72, 0.3125, 127, 0], [60.0, 81, 0.3125, 127, 0], [60.0, 72, 0.3125, 96, 2], [60.0, 81, 0.3125, 96, 2], [60.0, 33, 0.46875, 96, 1], [60.3125, 72, 0.3125, 127, 0], [60.3125, 81, 0.3125, 127, 0], [60.3125, 72, 0.3125, 96, 2], [60.3125, 81, 0.3125, 96, 2], [60.625, 72, 0.3125, 127, 0], [60.625, 81, 0.3125, 127, 0], [60.625, 72, 0.3125, 96, 2], [60.625, 81, 0.3125, 96, 2], [60.9375, 72, 0.3125, 127, 0], [60.9375, 81, 0.3125, 127, 0], [60.9375, 72, 0.3125, 96, 2], [60.9375, 81, 0.3125, 96, 2], [61.25, 72, 0.3125, 127, 0], [61.25, 81, 0.3125, 127, 0], [61.25, 72, 0.3125, 96, 2], [61.25, 81, 0.3125, 96, 2], [61.5625, 72, 0.3125, 127, 0], [61.5625, 81, 0.3125, 127, 0], [61.5625, 72, 0.3125, 96, 2], [61.5625, 81, 0.3125, 96, 2], [61.875, 72, 0.3125, 127, 0], [61.875, 81, 0.3125, 127, 0], [61.875, 72, 0.3125, 96, 2], [61.875, 81, 0.3125, 96, 2], [62.1875, 72, 0.3125, 127, 0], [62.1875, 81, 0.3125, 127, 0], [61.875, 35, 0.625, 96, 1], [62.1875, 72, 0.3125, 96, 2], [62.1875, 81, 0.3125, 96, 2], [62.5, 72, 0.3125, 127, 0], [62.5, 81, 0.3125, 127, 0], [62.5, 72, 0.3125, 96, 2], [62.5, 81, 0.3125, 96, 2], [62.5, 40, 0.46875, 96, 1], [62.8125, 72, 0.3125, 127, 0], [62.8125, 81, 0.3125, 127, 0], [62.8125, 72, 0.3125, 96, 2], [62.8125, 81, 0.3125, 96, 2], [63.125, 72, 0.3125, 127, 0], [63.125, 81, 0.3125, 127, 0], [63.125, 72, 0.3125, 96, 2], [63.125, 81, 0.3125, 96, 2], [63.4375, 71, 0.3125, 127, 0], [63.4375, 79, 0.3125, 127, 0], [63.4375, 71, 0.3125, 96, 2], [63.4375, 79, 0.3125, 96, 2], [63.75, 71, 0.3125, 127, 0], [63.75, 79, 0.3125, 127, 0], [63.75, 71, 0.3125, 96, 2], [63.75, 79, 0.3125, 96, 2], [64.0625, 71, 0.3125, 127, 0], [64.0625, 79, 0.3125, 127, 0], [64.0625, 71, 0.3125, 96, 2], [64.0625, 79, 0.3125, 96, 2], [64.375, 71, 0.3125, 127, 0], [64.375, 79, 0.3125, 127, 0], [64.375, 71, 0.3125, 96, 2], [64.375, 79, 0.3125, 96, 2], [64.6875, 71, 0.3125, 127, 0], [64.6875, 79, 0.3125, 127, 0], [64.375, 31, 0.625, 96, 1], [64.6875, 71, 0.3125, 96, 2], [64.6875, 79, 0.3125, 96, 2], [65.0, 72, 0.3125, 127, 0], [65.0, 81, 0.3125, 127, 0], [65.0, 72, 0.3125, 96, 2], [65.0, 81, 0.3125, 96, 2], [65.0, 33, 0.46875, 96, 1], [65.3125, 72, 0.3125, 127, 0], [65.3125, 81, 0.3125, 127, 0], [65.3125, 72, 0.3125, 96, 2], [65.3125, 81, 0.3125, 96, 2], [65.625, 72, 0.3125, 127, 0], [65.625, 81, 0.3125, 127, 0], [65.625, 72, 0.3125, 96, 2], [65.625, 81, 0.3125, 96, 2], [65.9375, 72, 0.3125, 127, 0], [65.9375, 81, 0.3125, 127, 0], [65.9375, 72, 0.3125, 96, 2], [65.9375, 81, 0.3125, 96, 2], [66.25, 72, 0.3125, 127, 0], [66.25, 81, 0.3125, 127, 0], [66.25, 72, 0.3125, 96, 2], [66.25, 81, 0.3125, 96, 2], [66.5625, 72, 0.3125, 127, 0], [66.5625, 81, 0.3125, 127, 0], [66.5625, 72, 0.3125, 96, 2], [66.5625, 81, 0.3125, 96, 2], [66.875, 72, 0.3125, 127, 0], [66.875, 81, 0.3125, 127, 0], [66.875, 72, 0.3125, 96, 2], [66.875, 81, 0.3125, 96, 2], [67.1875, 72, 0.3125, 127, 0], [67.1875, 81, 0.3125, 127, 0], [66.875, 35, 0.625, 96, 1], [67.1875, 72, 0.3125, 96, 2], [67.1875, 81, 0.3125, 96, 2], [67.5, 72, 0.3125, 127, 0], [67.5, 81, 0.3125, 127, 0], [67.5, 72, 0.3125, 96, 2], [67.5, 81, 0.3125, 96, 2], [67.5, 40, 0.46875, 96, 1], [67.8125, 72, 0.3125, 127, 0], [67.8125, 81, 0.3125, 127, 0], [67.8125, 72, 0.3125, 96, 2], [67.8125, 81, 0.3125, 96, 2], [68.125, 72, 0.3125, 127, 0], [68.125, 81, 0.3125, 127, 0], [68.125, 72, 0.3125, 96, 2], [68.125, 81, 0.3125, 96, 2], [68.4375, 71, 0.3125, 127, 0], [68.4375, 79, 0.3125, 127, 0], [68.4375, 71, 0.3125, 96, 2], [68.4375, 79, 0.3125, 96, 2], [68.75, 71, 0.3125, 127, 0], [68.75, 79, 0.3125, 127, 0], [68.75, 71, 0.3125, 96, 2], [68.75, 79, 0.3125, 96, 2], [69.0625, 71, 0.3125, 127, 0], [69.0625, 79, 0.3125, 127, 0], [69.0625, 71, 0.3125, 96, 2], [69.0625, 79, 0.3125, 96, 2], [69.375, 71, 0.3125, 127, 0], [69.375, 79, 0.3125, 127, 0], [69.375, 71, 0.3125, 96, 2], [69.375, 79, 0.3125, 96, 2], [69.6875, 71, 0.3125, 127, 0], [69.6875, 79, 0.3125, 127, 0], [69.375, 31, 0.625, 96, 1], [69.6875, 71, 0.3125, 96, 2], [69.6875, 79, 0.3125, 96, 2], [70.0, 72, 0.3125, 127, 0], [70.0, 81, 0.3125, 127, 0], [70.0, 72, 0.3125, 96, 2], [70.0, 81, 0.3125, 96, 2], [70.0, 33, 0.46875, 96, 1], [70.3125, 72, 0.3125, 127, 0], [70.3125, 81, 0.3125, 127, 0], [70.3125, 72, 0.3125, 96, 2], [70.3125, 81, 0.3125, 96, 2], [70.625, 72, 0.3125, 127, 0], [70.625, 81, 0.3125, 127, 0], [70.625, 72, 0.3125, 96, 2], [70.625, 81, 0.3125, 96, 2], [70.9375, 72, 0.3125, 127, 0], [70.9375, 81, 0.3125, 127, 0], [70.9375, 72, 0.3125, 96, 2], [70.9375, 81, 0.3125, 96, 2], [71.25, 72, 0.3125, 127, 0], [71.25, 81, 0.3125, 127, 0], [71.25, 72, 0.3125, 96, 2], [71.25, 81, 0.3125, 96, 2], [71.5625, 72, 0.3125, 127, 0], [71.5625, 81, 0.3125, 127, 0], [71.5625, 72, 0.3125, 96, 2], [71.5625, 81, 0.3125, 96, 2], [71.875, 72, 0.3125, 127, 0], [71.875, 81, 0.3125, 127, 0], [71.875, 72, 0.3125, 96, 2], [71.875, 81, 0.3125, 96, 2], [72.1875, 72, 0.3125, 127, 0], [72.1875, 81, 0.3125, 127, 0], [71.875, 35, 0.625, 96, 1], [72.1875, 72, 0.3125, 96, 2], [72.1875, 81, 0.3125, 96, 2], [72.5, 72, 0.3125, 127, 0], [72.5, 81, 0.3125, 127, 0], [72.5, 72, 0.3125, 96, 2], [72.5, 81, 0.3125, 96, 2], [72.5, 40, 0.46875, 96, 1], [72.8125, 72, 0.3125, 127, 0], [72.8125, 81, 0.3125, 127, 0], [72.8125, 72, 0.3125, 96, 2], [72.8125, 81, 0.3125, 96, 2], [73.125, 72, 0.3125, 127, 0], [73.125, 81, 0.3125, 127, 0], [73.125, 72, 0.3125, 96, 2], [73.125, 81, 0.3125, 96, 2], [73.4375, 71, 0.3125, 127, 0], [73.4375, 79, 0.3125, 127, 0], [73.4375, 71, 0.3125, 96, 2], [73.4375, 79, 0.3125, 96, 2], [73.75, 71, 0.3125, 127, 0], [73.75, 79, 0.3125, 127, 0], [73.75, 71, 0.3125, 96, 2], [73.75, 79, 0.3125, 96, 2], [74.0625, 71, 0.3125, 127, 0], [74.0625, 79, 0.3125, 127, 0], [74.0625, 71, 0.3125, 96, 2], [74.0625, 79, 0.3125, 96, 2], [74.375, 71, 0.3125, 127, 0], [74.375, 79, 0.3125, 127, 0], [74.375, 71, 0.3125, 96, 2], [74.375, 79, 0.3125, 96, 2], [74.6875, 71, 0.3125, 127, 0], [74.6875, 79, 0.3125, 127, 0], [74.375, 31, 0.625, 96, 1], [74.6875, 71, 0.3125, 96, 2], [74.6875, 79, 0.3125, 96, 2], [75.0, 72, 0.3125, 127, 0], [75.0, 81, 0.3125, 127, 0], [75.0, 72, 0.3125, 96, 2], [75.0, 81, 0.3125, 96, 2], [75.0, 33, 0.46875, 96, 1], [75.3125, 72, 0.3125, 127, 0], [75.3125, 81, 0.3125, 127, 0], [75.3125, 72, 0.3125, 96, 2], [75.3125, 81, 0.3125, 96, 2], [75.625, 72, 0.3125, 127, 0], [75.625, 81, 0.3125, 127, 0], [75.625, 72, 0.3125, 96, 2], [75.625, 81, 0.3125, 96, 2], [75.9375, 72, 0.3125, 127, 0], [75.9375, 81, 0.3125, 127, 0], [75.9375, 72, 0.3125, 96, 2], [75.9375, 81, 0.3125, 96, 2], [76.25, 72, 0.3125, 127, 0], [76.25, 81, 0.3125, 127, 0], [76.25, 72, 0.3125, 96, 2], [76.25, 81, 0.3125, 96, 2], [76.5625, 72, 0.3125, 127, 0], [76.5625, 81, 0.3125, 127, 0], [76.5625, 72, 0.3125, 96, 2], [76.5625, 81, 0.3125, 96, 2], [76.875, 72, 0.3125, 127, 0], [76.875, 81, 0.3125, 127, 0], [76.875, 72, 0.3125, 96, 2], [76.875, 81, 0.3125, 96, 2], [77.1875, 72, 0.3125, 127, 0], [77.1875, 81, 0.3125, 127, 0], [76.875, 35, 0.625, 96, 1], [77.1875, 72, 0.3125, 96, 2], [77.1875, 81, 0.3125, 96, 2], [77.5, 72, 0.3125, 127, 0], [77.5, 81, 0.3125, 127, 0], [77.5, 72, 0.3125, 96, 2], [77.5, 81, 0.3125, 96, 2], [77.5, 40, 0.46875, 96, 1], [77.8125, 72, 0.3125, 127, 0], [77.8125, 81, 0.3125, 127, 0], [77.8125, 72, 0.3125, 96, 2], [77.8125, 81, 0.3125, 96, 2], [78.125, 72, 0.3125, 127, 0], [78.125, 81, 0.3125, 127, 0], [78.125, 72, 0.3125, 96, 2], [78.125, 81, 0.3125, 96, 2], [78.4375, 71, 0.3125, 127, 0], [78.4375, 79, 0.3125, 127, 0], [78.4375, 71, 0.3125, 96, 2], [78.4375, 79, 0.3125, 96, 2], [78.75, 71, 0.3125, 127, 0], [78.75, 79, 0.3125, 127, 0], [78.75, 71, 0.3125, 96, 2], [78.75, 79, 0.3125, 96, 2], [79.0625, 71, 0.3125, 127, 0], [79.0625, 79, 0.3125, 127, 0], [79.0625, 71, 0.3125, 96, 2], [79.0625, 79, 0.3125, 96, 2], [79.375, 71, 0.3125, 127, 0], [79.375, 79, 0.3125, 127, 0], [79.375, 71, 0.3125, 96, 2], [79.375, 79, 0.3125, 96, 2], [79.6875, 71, 0.3125, 127, 0], [79.6875, 79, 0.3125, 127, 0], [79.375, 31, 0.625, 96, 1], [79.6875, 71, 0.3125, 96, 2], [79.6875, 79, 0.3125, 96, 2], [80.0, 72, 0.3125, 127, 0], [80.0, 81, 0.3125, 127, 0], [80.0, 72, 0.3125, 96, 2], [80.0, 81, 0.3125, 96, 2], [80.0, 33, 0.46875, 96, 1], [80.3125, 72, 0.3125, 127, 0], [80.3125, 81, 0.3125, 127, 0], [80.3125, 72, 0.3125, 96, 2], [80.3125, 81, 0.3125, 96, 2], [80.625, 72, 0.3125, 127, 0], [80.625, 81, 0.3125, 127, 0], [80.625, 72, 0.3125, 96, 2], [80.625, 81, 0.3125, 96, 2], [80.9375, 72, 0.3125, 127, 0], [80.9375, 81, 0.3125, 127, 0], [80.9375, 72, 0.3125, 96, 2], [80.9375, 81, 0.3125, 96, 2], [81.25, 72, 0.3125, 127, 0], [81.25, 81, 0.3125, 127, 0], [81.25, 72, 0.3125, 96, 2], [81.25, 81, 0.3125, 96, 2], [81.5625, 72, 0.3125, 127, 0], [81.5625, 81, 0.3125, 127, 0], [81.5625, 72, 0.3125, 96, 2], [81.5625, 81, 0.3125, 96, 2], [81.875, 72, 0.3125, 127, 0], [81.875, 81, 0.3125, 127, 0], [81.875, 72, 0.3125, 96, 2], [81.875, 81, 0.3125, 96, 2], [82.1875, 72, 0.3125, 127, 0], [82.1875, 81, 0.3125, 127, 0], [81.875, 35, 0.625, 96, 1], [82.1875, 72, 0.3125, 96, 2], [82.1875, 81, 0.3125, 96, 2], [82.5, 72, 0.3125, 127, 0], [82.5, 81, 0.3125, 127, 0], [82.5, 72, 0.3125, 96, 2], [82.5, 81, 0.3125, 96, 2], [82.5, 40, 0.46875, 96, 1], [82.8125, 72, 0.3125, 127, 0], [82.8125, 81, 0.3125, 127, 0], [82.8125, 72, 0.3125, 96, 2], [82.8125, 81, 0.3125, 96, 2], [83.125, 72, 0.3125, 127, 0], [83.125, 81, 0.3125, 127, 0], [83.125, 72, 0.3125, 96, 2], [83.125, 81, 0.3125, 96, 2], [83.4375, 71, 0.3125, 127, 0], [83.4375, 79, 0.3125, 127, 0], [83.4375, 71, 0.3125, 96, 2], [83.4375, 79, 0.3125, 96, 2], [83.75, 71, 0.3125, 127, 0], [83.75, 79, 0.3125, 127, 0], [83.75, 71, 0.3125, 96, 2], [83.75, 79, 0.3125, 96, 2], [84.0625, 71, 0.3125, 127, 0], [84.0625, 79, 0.3125, 127, 0], [84.0625, 71, 0.3125, 96, 2], [84.0625, 79, 0.3125, 96, 2], [84.375, 71, 0.3125, 127, 0], [84.375, 79, 0.3125, 127, 0], [84.375, 71, 0.3125, 96, 2], [84.375, 79, 0.3125, 96, 2], [84.6875, 71, 0.3125, 127, 0], [84.6875, 79, 0.3125, 127, 0], [84.375, 31, 0.625, 96, 1], [84.6875, 71, 0.3125, 96, 2], [84.6875, 79, 0.3125, 96, 2], [85.0, 72, 0.3125, 127, 0], [85.0, 81, 0.3125, 127, 0], [85.0, 72, 0.3125, 96, 2], [85.0, 81, 0.3125, 96, 2], [85.0, 33, 0.46875, 96, 1], [85.3125, 72, 0.3125, 127, 0], [85.3125, 81, 0.3125, 127, 0], [85.3125, 72, 0.3125, 96, 2], [85.3125, 81, 0.3125, 96, 2], [85.625, 72, 0.3125, 127, 0], [85.625, 81, 0.3125, 127, 0], [85.625, 72, 0.3125, 96, 2], [85.625, 81, 0.3125, 96, 2], [85.9375, 72, 0.3125, 127, 0], [85.9375, 81, 0.3125, 127, 0], [85.9375, 72, 0.3125, 96, 2], [85.9375, 81, 0.3125, 96, 2], [86.25, 72, 0.3125, 127, 0], [86.25, 81, 0.3125, 127, 0], [86.25, 72, 0.3125, 96, 2], [86.25, 81, 0.3125, 96, 2], [86.5625, 72, 0.3125, 127, 0], [86.5625, 81, 0.3125, 127, 0], [86.5625, 72, 0.3125, 96, 2], [86.5625, 81, 0.3125, 96, 2], [86.875, 72, 0.3125, 127, 0], [86.875, 81, 0.3125, 127, 0], [86.875, 72, 0.3125, 96, 2], [86.875, 81, 0.3125, 96, 2], [87.1875, 72, 0.3125, 127, 0], [87.1875, 81, 0.3125, 127, 0], [86.875, 35, 0.625, 96, 1], [87.1875, 72, 0.3125, 96, 2], [87.1875, 81, 0.3125, 96, 2], [87.5, 72, 0.3125, 127, 0], [87.5, 81, 0.3125, 127, 0], [87.5, 72, 0.3125, 96, 2], [87.5, 81, 0.3125, 96, 2], [87.5, 40, 0.46875, 96, 1], [87.8125, 72, 0.3125, 127, 0], [87.8125, 81, 0.3125, 127, 0], [87.8125, 72, 0.3125, 96, 2], [87.8125, 81, 0.3125, 96, 2], [88.125, 72, 0.3125, 127, 0], [88.125, 81, 0.3125, 127, 0], [88.125, 72, 0.3125, 96, 2], [88.125, 81, 0.3125, 96, 2], [88.4375, 71, 0.3125, 127, 0], [88.4375, 79, 0.3125, 127, 0], [88.4375, 71, 0.3125, 96, 2], [88.4375, 79, 0.3125, 96, 2], [88.75, 71, 0.3125, 127, 0], [88.75, 79, 0.3125, 127, 0], [88.75, 71, 0.3125, 96, 2], [88.75, 79, 0.3125, 96, 2], [89.0625, 71, 0.3125, 127, 0], [89.0625, 79, 0.3125, 127, 0], [89.0625, 71, 0.3125, 96, 2], [89.0625, 79, 0.3125, 96, 2], [89.375, 71, 0.3125, 127, 0], [89.375, 79, 0.3125, 127, 0], [89.375, 71, 0.3125, 96, 2], [89.375, 79, 0.3125, 96, 2], [89.375, 31, 2.5, 96, 1], [89.6875, 79, 2.5, 127, 0], [89.6875, 71, 2.5, 127, 0], [89.6875, 79, 2.5, 96, 2], [89.6875, 71, 2.5, 96, 2]]
>>>>>>> main:src/graphics/jsonMidi/DrDre-StillDre.json
