[{"time_played": 5.0, "midi_note": 45, "frequency": 110, "note_held": 1.4062500000000009, "velocity": 85, "channel": 1}, {"time_played": 5.3125, "midi_note": 52, "frequency": 164.81, "note_held": 0.7552083333333339, "velocity": 77, "channel": 1}, {"time_played": 5.625, "midi_note": 59, "frequency": 246.94, "note_held": 0.33854166666666696, "velocity": 85, "channel": 1}, {"time_played": 5.9375, "midi_note": 60, "frequency": 261.63, "note_held": 0.4687500000000009, "velocity": 85, "channel": 1}, {"time_played": 7.500000000000003, "midi_note": 41, "frequency": 87.31, "note_held": 60.30598958333324, "velocity": 77, "channel": 1}, {"time_played": 7.812500000000003, "midi_note": 48, "frequency": 130.81, "note_held": 0.592447916666667, "velocity": 74, "channel": 1}, {"time_played": 8.125000000000004, "midi_note": 55, "frequency": 196, "note_held": 0.2799479166666661, "velocity": 90, "channel": 1}, {"time_played": 8.437500000000004, "midi_note": 50, "frequency": 146.83, "note_held": 0.5989583333333339, "velocity": 88, "channel": 1}, {"time_played": 8.437500000000004, "midi_note": 57, "frequency": 220, "note_held": 0.6315104166666661, "velocity": 85, "channel": 1}, {"time_played": 10.000000000000004, "midi_note": 45, "frequency": 110, "note_held": 1.4062499999999982, "velocity": 85, "channel": 1}, {"time_played": 10.312500000000004, "midi_note": 52, "frequency": 164.81, "note_held": 0.7552083333333321, "velocity": 77, "channel": 1}, {"time_played": 10.625000000000004, "midi_note": 59, "frequency": 246.94, "note_held": 0.3385416666666661, "velocity": 85, "channel": 1}, {"time_played": 10.937500000000004, "midi_note": 60, "frequency": 261.63, "note_held": 0.4687499999999982, "velocity": 85, "channel": 1}, {"time_played": 12.499999999999998, "midi_note": 41, "frequency": 87.31, "note_held": 55.93098958333326, "velocity": 77, "channel": 1}, {"time_played": 12.812499999999998, "midi_note": 48, "frequency": 130.81, "note_held": 0.5924479166666661, "velocity": 74, "channel": 1}, {"time_played": 13.124999999999998, "midi_note": 55, "frequency": 196, "note_held": 0.2799479166666661, "velocity": 90, "channel": 1}, {"time_played": 13.437499999999998, "midi_note": 52, "frequency": 164.81, "note_held": 0.5989583333333339, "velocity": 88, "channel": 1}, {"time_played": 13.437499999999998, "midi_note": 57, "frequency": 220, "note_held": 0.6315104166666661, "velocity": 85, "channel": 1}, {"time_played": 14.999999999999998, "midi_note": 45, "frequency": 110, "note_held": 1.4062499999999982, "velocity": 85, "channel": 1}, {"time_played": 15.3125, "midi_note": 52, "frequency": 164.81, "note_held": 0.7552083333333321, "velocity": 77, "channel": 1}, {"time_played": 15.625, "midi_note": 59, "frequency": 246.94, "note_held": 0.3385416666666661, "velocity": 85, "channel": 1}, {"time_played": 15.9375, "midi_note": 60, "frequency": 261.63, "note_held": 0.46874999999999645, "velocity": 85, "channel": 1}, {"time_played": 17.500000000000014, "midi_note": 41, "frequency": 87.31, "note_held": 50.30598958333323, "velocity": 77, "channel": 1}, {"time_played": 17.812500000000014, "midi_note": 48, "frequency": 130.81, "note_held": 0.5924479166666679, "velocity": 74, "channel": 1}, {"time_played": 18.125000000000014, "midi_note": 55, "frequency": 196, "note_held": 0.27994791666666785, "velocity": 90, "channel": 1}, {"time_played": 18.437500000000014, "midi_note": 50, "frequency": 146.83, "note_held": 0.5989583333333321, "velocity": 88, "channel": 1}, {"time_played": 18.437500000000014, "midi_note": 57, "frequency": 220, "note_held": 0.6315104166666679, "velocity": 85, "channel": 1}, {"time_played": 20.000000000000014, "midi_note": 45, "frequency": 110, "note_held": 1.4062499999999964, "velocity": 85, "channel": 1}, {"time_played": 20.31250000000001, "midi_note": 52, "frequency": 164.81, "note_held": 0.7552083333333357, "velocity": 77, "channel": 1}, {"time_played": 20.62500000000001, "midi_note": 59, "frequency": 246.94, "note_held": 0.33854166666666785, "velocity": 85, "channel": 1}, {"time_played": 20.93750000000001, "midi_note": 60, "frequency": 261.63, "note_held": 0.46875, "velocity": 85, "channel": 1}, {"time_played": 22.50000000000003, "midi_note": 41, "frequency": 87.31, "note_held": 46.24348958333323, "velocity": 77, "channel": 1}, {"time_played": 22.81250000000003, "midi_note": 48, "frequency": 130.81, "note_held": 0.5924479166666679, "velocity": 74, "channel": 1}, {"time_played": 23.12500000000003, "midi_note": 55, "frequency": 196, "note_held": 0.27994791666666785, "velocity": 90, "channel": 1}, {"time_played": 23.43750000000003, "midi_note": 52, "frequency": 164.81, "note_held": 0.5989583333333321, "velocity": 88, "channel": 1}, {"time_played": 23.43750000000003, "midi_note": 57, "frequency": 220, "note_held": 0.6315104166666679, "velocity": 85, "channel": 1}, {"time_played": 25.00000000000003, "midi_note": 45, "frequency": 110, "note_held": 1.406249999999993, "velocity": 85, "channel": 1}, {"time_played": 25.31250000000003, "midi_note": 52, "frequency": 164.81, "note_held": 0.7552083333333286, "velocity": 77, "channel": 1}, {"time_played": 25.625000000000025, "midi_note": 59, "frequency": 246.94, "note_held": 0.3385416666666643, "velocity": 85, "channel": 1}, {"time_played": 25.93750000000002, "midi_note": 60, "frequency": 261.63, "note_held": 0.46875, "velocity": 85, "channel": 1}, {"time_played": 27.50000000000004, "midi_note": 41, "frequency": 87.31, "note_held": 40.3059895833332, "velocity": 77, "channel": 1}, {"time_played": 27.81250000000004, "midi_note": 48, "frequency": 130.81, "note_held": 0.5924479166666679, "velocity": 74, "channel": 1}, {"time_played": 28.12500000000004, "midi_note": 55, "frequency": 196, "note_held": 0.27994791666666785, "velocity": 90, "channel": 1}, {"time_played": 28.43750000000004, "midi_note": 50, "frequency": 146.83, "note_held": 0.5989583333333286, "velocity": 88, "channel": 1}, {"time_played": 28.43750000000004, "midi_note": 57, "frequency": 220, "note_held": 0.6315104166666643, "velocity": 85, "channel": 1}, {"time_played": 30.000000000000036, "midi_note": 45, "frequency": 110, "note_held": 1.4062499999999964, "velocity": 85, "channel": 1}, {"time_played": 30.312500000000032, "midi_note": 52, "frequency": 164.81, "note_held": 0.7552083333333357, "velocity": 77, "channel": 1}, {"time_played": 30.625000000000032, "midi_note": 59, "frequency": 246.94, "note_held": 0.33854166666666785, "velocity": 85, "channel": 1}, {"time_played": 30.937500000000032, "midi_note": 60, "frequency": 261.63, "note_held": 0.46875, "velocity": 85, "channel": 1}, {"time_played": 32.50000000000003, "midi_note": 41, "frequency": 87.31, "note_held": 35.93098958333323, "velocity": 77, "channel": 1}, {"time_played": 32.81250000000003, "midi_note": 48, "frequency": 130.81, "note_held": 0.5924479166666643, "velocity": 74, "channel": 1}, {"time_played": 33.12500000000003, "midi_note": 55, "frequency": 196, "note_held": 0.2799479166666643, "velocity": 90, "channel": 1}, {"time_played": 33.43750000000002, "midi_note": 52, "frequency": 164.81, "note_held": 0.5989583333333357, "velocity": 88, "channel": 1}, {"time_played": 33.43750000000002, "midi_note": 57, "frequency": 220, "note_held": 0.6315104166666643, "velocity": 85, "channel": 1}, {"time_played": 35.00000000000002, "midi_note": 48, "frequency": 130.81, "note_held": 0.3059895833333357, "velocity": 82, "channel": 1}, {"time_played": 35.00000000000002, "midi_note": 52, "frequency": 164.81, "note_held": 0.3059895833333357, "velocity": 74, "channel": 1}, {"time_played": 35.31250000000002, "midi_note": 55, "frequency": 196, "note_held": 0.3059895833333357, "velocity": 77, "channel": 1}, {"time_played": 35.62500000000002, "midi_note": 60, "frequency": 261.63, "note_held": 0.3059895833333286, "velocity": 67, "channel": 1}, {"time_played": 35.937500000000014, "midi_note": 55, "frequency": 196, "note_held": 0.3059895833333286, "velocity": 47, "channel": 1}, {"time_played": 36.25000000000001, "midi_note": 43, "frequency": 98, "note_held": 0.3059895833333286, "velocity": 82, "channel": 1}, {"time_played": 36.5625, "midi_note": 47, "frequency": 123.47, "note_held": 0.3059895833333357, "velocity": 74, "channel": 1}, {"time_played": 36.875, "midi_note": 62, "frequency": 293.66, "note_held": 0.3059895833333286, "velocity": 90, "channel": 1}, {"time_played": 36.875, "midi_note": 55, "frequency": 196, "note_held": 0.3059895833333286, "velocity": 88, "channel": 1}, {"time_played": 37.18749999999999, "midi_note": 55, "frequency": 196, "note_held": 0.3059895833333357, "velocity": 58, "channel": 1}, {"time_played": 37.49999999999999, "midi_note": 53, "frequency": 174.61, "note_held": 0.3059895833333286, "velocity": 85, "channel": 1}, {"time_played": 37.49999999999999, "midi_note": 48, "frequency": 130.81, "note_held": 0.3059895833333286, "velocity": 85, "channel": 1}, {"time_played": 37.812499999999986, "midi_note": 57, "frequency": 220, "note_held": 0.3059895833333357, "velocity": 71, "channel": 1}, {"time_played": 38.124999999999986, "midi_note": 65, "frequency": 349.23, "note_held": 0.3059895833333286, "velocity": 85, "channel": 1}, {"time_played": 38.124999999999986, "midi_note": 60, "frequency": 261.63, "note_held": 0.3059895833333286, "velocity": 93, "channel": 1}, {"time_played": 38.43749999999998, "midi_note": 57, "frequency": 220, "note_held": 0.3059895833333357, "velocity": 78, "channel": 1}, {"time_played": 38.74999999999998, "midi_note": 50, "frequency": 146.83, "note_held": 0.3059895833333286, "velocity": 90, "channel": 1}, {"time_played": 39.06249999999997, "midi_note": 57, "frequency": 220, "note_held": 0.3059895833333286, "velocity": 77, "channel": 1}, {"time_played": 39.374999999999964, "midi_note": 65, "frequency": 349.23, "note_held": 0.3059895833333286, "velocity": 78, "channel": 1}, {"time_played": 39.374999999999964, "midi_note": 62, "frequency": 293.66, "note_held": 0.3059895833333286, "velocity": 85, "channel": 1}, {"time_played": 39.99999999999996, "midi_note": 45, "frequency": 110, "note_held": 1.40625, "velocity": 85, "channel": 1}, {"time_played": 40.31249999999996, "midi_note": 52, "frequency": 164.81, "note_held": 0.7552083333333286, "velocity": 77, "channel": 1}, {"time_played": 40.62499999999996, "midi_note": 59, "frequency": 246.94, "note_held": 0.3385416666666643, "velocity": 85, "channel": 1}, {"time_played": 40.93749999999996, "midi_note": 60, "frequency": 261.63, "note_held": 0.46875, "velocity": 85, "channel": 1}, {"time_played": 42.49999999999992, "midi_note": 41, "frequency": 87.31, "note_held": 25.30598958333332, "velocity": 77, "channel": 1}, {"time_played": 42.81249999999992, "midi_note": 48, "frequency": 130.81, "note_held": 0.5924479166666643, "velocity": 74, "channel": 1}, {"time_played": 43.12499999999992, "midi_note": 55, "frequency": 196, "note_held": 0.2799479166666643, "velocity": 90, "channel": 1}, {"time_played": 43.43749999999992, "midi_note": 50, "frequency": 146.83, "note_held": 0.5989583333333357, "velocity": 88, "channel": 1}, {"time_played": 43.43749999999992, "midi_note": 57, "frequency": 220, "note_held": 0.6315104166666643, "velocity": 85, "channel": 1}, {"time_played": 44.99999999999992, "midi_note": 45, "frequency": 110, "note_held": 1.406250000000007, "velocity": 85, "channel": 1}, {"time_played": 45.31249999999993, "midi_note": 52, "frequency": 164.81, "note_held": 0.7552083333333286, "velocity": 77, "channel": 1}, {"time_played": 45.62499999999993, "midi_note": 59, "frequency": 246.94, "note_held": 0.3385416666666643, "velocity": 85, "channel": 1}, {"time_played": 45.93749999999993, "midi_note": 60, "frequency": 261.63, "note_held": 0.46875, "velocity": 85, "channel": 1}, {"time_played": 47.49999999999989, "midi_note": 41, "frequency": 87.31, "note_held": 21.86848958333338, "velocity": 77, "channel": 1}, {"time_played": 47.81249999999989, "midi_note": 48, "frequency": 130.81, "note_held": 0.5924479166666643, "velocity": 74, "channel": 1}, {"time_played": 48.12499999999989, "midi_note": 55, "frequency": 196, "note_held": 0.2799479166666643, "velocity": 90, "channel": 1}, {"time_played": 48.43749999999989, "midi_note": 52, "frequency": 164.81, "note_held": 0.5989583333333357, "velocity": 88, "channel": 1}, {"time_played": 48.43749999999989, "midi_note": 57, "frequency": 220, "note_held": 0.6315104166666643, "velocity": 85, "channel": 1}, {"time_played": 49.999999999999886, "midi_note": 45, "frequency": 110, "note_held": 1.406250000000007, "velocity": 85, "channel": 1}, {"time_played": 50.312499999999886, "midi_note": 52, "frequency": 164.81, "note_held": 0.7552083333333357, "velocity": 77, "channel": 1}, {"time_played": 50.62499999999989, "midi_note": 59, "frequency": 246.94, "note_held": 0.3385416666666643, "velocity": 85, "channel": 1}, {"time_played": 50.93749999999989, "midi_note": 60, "frequency": 261.63, "note_held": 0.46875, "velocity": 85, "channel": 1}, {"time_played": 52.499999999999865, "midi_note": 41, "frequency": 87.31, "note_held": 15.305989583333378, "velocity": 77, "channel": 1}, {"time_played": 52.812499999999865, "midi_note": 48, "frequency": 130.81, "note_held": 0.5924479166666643, "velocity": 74, "channel": 1}, {"time_played": 53.124999999999865, "midi_note": 55, "frequency": 196, "note_held": 0.2799479166666643, "velocity": 90, "channel": 1}, {"time_played": 53.437499999999865, "midi_note": 50, "frequency": 146.83, "note_held": 0.5989583333333286, "velocity": 88, "channel": 1}, {"time_played": 53.437499999999865, "midi_note": 57, "frequency": 220, "note_held": 0.6315104166666572, "velocity": 85, "channel": 1}, {"time_played": 54.99999999999986, "midi_note": 45, "frequency": 110, "note_held": 1.4062500000000213, "velocity": 85, "channel": 1}, {"time_played": 55.312499999999865, "midi_note": 52, "frequency": 164.81, "note_held": 0.7552083333333428, "velocity": 77, "channel": 1}, {"time_played": 55.624999999999865, "midi_note": 59, "frequency": 246.94, "note_held": 0.3385416666666714, "velocity": 85, "channel": 1}, {"time_played": 55.93749999999987, "midi_note": 60, "frequency": 261.63, "note_held": 0.4687500000000071, "velocity": 85, "channel": 1}, {"time_played": 57.49999999999985, "midi_note": 41, "frequency": 87.31, "note_held": 10.930989583333407, "velocity": 77, "channel": 1}, {"time_played": 57.81249999999985, "midi_note": 48, "frequency": 130.81, "note_held": 0.5924479166666714, "velocity": 74, "channel": 1}, {"time_played": 58.12499999999986, "midi_note": 55, "frequency": 196, "note_held": 0.2799479166666643, "velocity": 90, "channel": 1}, {"time_played": 58.43749999999986, "midi_note": 52, "frequency": 164.81, "note_held": 0.5989583333333357, "velocity": 88, "channel": 1}, {"time_played": 58.43749999999986, "midi_note": 57, "frequency": 220, "note_held": 0.6315104166666643, "velocity": 85, "channel": 1}, {"time_played": 59.99999999999986, "midi_note": 48, "frequency": 130.81, "note_held": 0.3059895833333357, "velocity": 82, "channel": 1}, {"time_played": 59.99999999999986, "midi_note": 52, "frequency": 164.81, "note_held": 0.3059895833333357, "velocity": 74, "channel": 1}, {"time_played": 60.31249999999986, "midi_note": 55, "frequency": 196, "note_held": 0.3059895833333357, "velocity": 77, "channel": 1}, {"time_played": 60.62499999999986, "midi_note": 60, "frequency": 261.63, "note_held": 0.3059895833333286, "velocity": 67, "channel": 1}, {"time_played": 60.93749999999985, "midi_note": 55, "frequency": 196, "note_held": 0.3059895833333357, "velocity": 47, "channel": 1}, {"time_played": 61.24999999999985, "midi_note": 43, "frequency": 98, "note_held": 0.3059895833333286, "velocity": 82, "channel": 1}, {"time_played": 61.562499999999844, "midi_note": 47, "frequency": 123.47, "note_held": 0.3059895833333357, "velocity": 74, "channel": 1}, {"time_played": 61.874999999999844, "midi_note": 62, "frequency": 293.66, "note_held": 0.3059895833333286, "velocity": 90, "channel": 1}, {"time_played": 61.874999999999844, "midi_note": 55, "frequency": 196, "note_held": 0.3059895833333286, "velocity": 88, "channel": 1}, {"time_played": 62.18749999999984, "midi_note": 55, "frequency": 196, "note_held": 0.3059895833333286, "velocity": 58, "channel": 1}, {"time_played": 62.49999999999983, "midi_note": 48, "frequency": 130.81, "note_held": 0.3059895833333286, "velocity": 85, "channel": 1}, {"time_played": 62.49999999999983, "midi_note": 53, "frequency": 174.61, "note_held": 0.3059895833333286, "velocity": 85, "channel": 1}, {"time_played": 62.81249999999982, "midi_note": 57, "frequency": 220, "note_held": 0.3059895833333357, "velocity": 62, "channel": 1}, {"time_played": 63.12499999999982, "midi_note": 65, "frequency": 349.23, "note_held": 0.3059895833333286, "velocity": 74, "channel": 1}, {"time_played": 63.12499999999982, "midi_note": 60, "frequency": 261.63, "note_held": 0.3059895833333286, "velocity": 81, "channel": 1}, {"time_played": 63.437499999999815, "midi_note": 57, "frequency": 220, "note_held": 0.3059895833333357, "velocity": 68, "channel": 1}, {"time_played": 63.749999999999815, "midi_note": 50, "frequency": 146.83, "note_held": 0.3059895833333286, "velocity": 79, "channel": 1}, {"time_played": 64.06249999999982, "midi_note": 57, "frequency": 220, "note_held": 0.3059895833333428, "velocity": 67, "channel": 1}, {"time_played": 64.37499999999983, "midi_note": 65, "frequency": 349.23, "note_held": 0.3059895833333428, "velocity": 68, "channel": 1}, {"time_played": 64.37499999999983, "midi_note": 62, "frequency": 293.66, "note_held": 0.3059895833333428, "velocity": 74, "channel": 1}, {"time_played": 64.99999999999984, "midi_note": 69, "frequency": 440, "note_held": 0.3059895833333286, "velocity": 100, "channel": 1}, {"time_played": 64.99999999999984, "midi_note": 64, "frequency": 329.63, "note_held": 0.3059895833333286, "velocity": 100, "channel": 1}, {"time_played": 64.99999999999984, "midi_note": 60, "frequency": 261.63, "note_held": 0.3059895833333286, "velocity": 100, "channel": 1}, {"time_played": 64.99999999999984, "midi_note": 57, "frequency": 220, "note_held": 0.3059895833333286, "velocity": 100, "channel": 1}, {"time_played": 64.99999999999984, "midi_note": 52, "frequency": 164.81, "note_held": 0.3059895833333286, "velocity": 100, "channel": 1}, {"time_played": 64.99999999999984, "midi_note": 45, "frequency": 110, "note_held": 0.3059895833333286, "velocity": 100, "channel": 1}, {"time_played": 65.31249999999984, "midi_note": 57, "frequency": 220, "note_held": 0.1497395833333428, "velocity": 70, "channel": 1}, {"time_played": 65.31249999999984, "midi_note": 60, "frequency": 261.63, "note_held": 0.1497395833333428, "velocity": 70, "channel": 1}, {"time_played": 65.31249999999984, "midi_note": 64, "frequency": 329.63, "note_held": 0.1497395833333428, "velocity": 70, "channel": 1}, {"time_played": 65.31249999999984, "midi_note": 69, "frequency": 440, "note_held": 0.1497395833333428, "velocity": 70, "channel": 1}, {"time_played": 65.46874999999986, "midi_note": 69, "frequency": 440, "note_held": 0.3059895833333286, "velocity": 80, "channel": 1}, {"time_played": 65.46874999999986, "midi_note": 64, "frequency": 329.63, "note_held": 0.3059895833333286, "velocity": 80, "channel": 1}, {"time_played": 65.46874999999986, "midi_note": 60, "frequency": 261.63, "note_held": 0.3059895833333286, "velocity": 80, "channel": 1}, {"time_played": 65.46874999999986, "midi_note": 57, "frequency": 220, "note_held": 0.3059895833333286, "velocity": 80, "channel": 1}, {"time_played": 65.46874999999986, "midi_note": 52, "frequency": 164.81, "note_held": 0.3059895833333286, "velocity": 80, "channel": 1}, {"time_played": 65.62499999999986, "midi_note": 69, "frequency": 440, "note_held": 0.1497395833333286, "velocity": 80, "channel": 1}, {"time_played": 65.62499999999986, "midi_note": 64, "frequency": 329.63, "note_held": 0.1497395833333286, "velocity": 80, "channel": 1}, {"time_played": 65.62499999999986, "midi_note": 60, "frequency": 261.63, "note_held": 0.1497395833333286, "velocity": 80, "channel": 1}, {"time_played": 65.62499999999986, "midi_note": 57, "frequency": 220, "note_held": 0.1497395833333286, "velocity": 80, "channel": 1}, {"time_played": 65.62499999999986, "midi_note": 52, "frequency": 164.81, "note_held": 0.1497395833333286, "velocity": 80, "channel": 1}, {"time_played": 65.62499999999986, "midi_note": 45, "frequency": 110, "note_held": 0.3059895833333286, "velocity": 80, "channel": 1}, {"time_played": 65.93749999999986, "midi_note": 69, "frequency": 440, "note_held": 0.3059895833333286, "velocity": 100, "channel": 1}, {"time_played": 65.93749999999986, "midi_note": 64, "frequency": 329.63, "note_held": 0.3059895833333286, "velocity": 100, "channel": 1}, {"time_played": 65.93749999999986, "midi_note": 60, "frequency": 261.63, "note_held": 0.3059895833333286, "velocity": 100, "channel": 1}, {"time_played": 65.93749999999986, "midi_note": 57, "frequency": 220, "note_held": 0.3059895833333286, "velocity": 100, "channel": 1}, {"time_played": 65.93749999999986, "midi_note": 52, "frequency": 164.81, "note_held": 0.3059895833333286, "velocity": 100, "channel": 1}, {"time_played": 65.93749999999986, "midi_note": 45, "frequency": 110, "note_held": 0.3059895833333286, "velocity": 100, "channel": 1}, {"time_played": 66.24999999999986, "midi_note": 57, "frequency": 220, "note_held": 0.1497395833333286, "velocity": 70, "channel": 1}, {"time_played": 66.24999999999986, "midi_note": 60, "frequency": 261.63, "note_held": 0.1497395833333286, "velocity": 70, "channel": 1}, {"time_played": 66.24999999999986, "midi_note": 64, "frequency": 329.63, "note_held": 0.1497395833333286, "velocity": 70, "channel": 1}, {"time_played": 66.24999999999986, "midi_note": 69, "frequency": 440, "note_held": 0.006510416666666667, "velocity": 70, "channel": 1}, {"time_played": 66.40624999999986, "midi_note": 69, "frequency": 440, "note_held": 0.305989583333357, "velocity": 80, "channel": 1}, {"time_played": 66.40624999999986, "midi_note": 64, "frequency": 329.63, "note_held": 0.305989583333357, "velocity": 80, "channel": 1}, {"time_played": 66.40624999999986, "midi_note": 60, "frequency": 261.63, "note_held": 0.305989583333357, "velocity": 80, "channel": 1}, {"time_played": 66.40624999999986, "midi_note": 57, "frequency": 220, "note_held": 0.305989583333357, "velocity": 80, "channel": 1}, {"time_played": 66.40624999999986, "midi_note": 52, "frequency": 164.81, "note_held": 0.006510416666666667, "velocity": 80, "channel": 1}, {"time_played": 66.56249999999987, "midi_note": 69, "frequency": 440, "note_held": 0.1497395833333428, "velocity": 80, "channel": 1}, {"time_played": 66.56249999999987, "midi_note": 64, "frequency": 329.63, "note_held": 0.1497395833333428, "velocity": 80, "channel": 1}, {"time_played": 66.56249999999987, "midi_note": 60, "frequency": 261.63, "note_held": 0.1497395833333428, "velocity": 80, "channel": 1}, {"time_played": 66.56249999999987, "midi_note": 57, "frequency": 220, "note_held": 0.1497395833333428, "velocity": 80, "channel": 1}, {"time_played": 66.56249999999987, "midi_note": 52, "frequency": 164.81, "note_held": 0.1497395833333428, "velocity": 80, "channel": 1}, {"time_played": 66.56249999999987, "midi_note": 45, "frequency": 110, "note_held": 0.006510416666666667, "velocity": 80, "channel": 1}, {"time_played": 66.87499999999989, "midi_note": 69, "frequency": 440, "note_held": 0.3059895833333428, "velocity": 100, "channel": 1}, {"time_played": 66.87499999999989, "midi_note": 64, "frequency": 329.63, "note_held": 0.3059895833333428, "velocity": 100, "channel": 1}, {"time_played": 66.87499999999989, "midi_note": 60, "frequency": 261.63, "note_held": 0.3059895833333428, "velocity": 100, "channel": 1}, {"time_played": 66.87499999999989, "midi_note": 57, "frequency": 220, "note_held": 0.3059895833333428, "velocity": 100, "channel": 1}, {"time_played": 66.87499999999989, "midi_note": 52, "frequency": 164.81, "note_held": 0.3059895833333428, "velocity": 100, "channel": 1}, {"time_played": 66.87499999999989, "midi_note": 45, "frequency": 110, "note_held": 0.006510416666666667, "velocity": 100, "channel": 1}, {"time_played": 67.1874999999999, "midi_note": 60, "frequency": 261.63, "note_held": 0.1497395833333286, "velocity": 70, "channel": 1}, {"time_played": 67.1874999999999, "midi_note": 64, "frequency": 329.63, "note_held": 0.1497395833333286, "velocity": 70, "channel": 1}, {"time_played": 67.1874999999999, "midi_note": 69, "frequency": 440, "note_held": 0.006510416666666667, "velocity": 70, "channel": 1}, {"time_played": 67.3437499999999, "midi_note": 57, "frequency": 220, "note_held": 0.1497395833333286, "velocity": 70, "channel": 1}, {"time_played": 67.3437499999999, "midi_note": 60, "frequency": 261.63, "note_held": 0.1497395833333286, "velocity": 70, "channel": 1}, {"time_played": 67.3437499999999, "midi_note": 64, "frequency": 329.63, "note_held": 0.1497395833333286, "velocity": 70, "channel": 1}, {"time_played": 67.3437499999999, "midi_note": 69, "frequency": 440, "note_held": 0.006510416666666667, "velocity": 70, "channel": 1}, {"time_played": 67.4999999999999, "midi_note": 65, "frequency": 349.23, "note_held": 0.3059895833333428, "velocity": 100, "channel": 1}, {"time_played": 67.4999999999999, "midi_note": 60, "frequency": 261.63, "note_held": 0.3059895833333428, "velocity": 100, "channel": 1}, {"time_played": 67.4999999999999, "midi_note": 57, "frequency": 220, "note_held": 0.3059895833333428, "velocity": 100, "channel": 1}, {"time_played": 67.4999999999999, "midi_note": 53, "frequency": 174.61, "note_held": 0.3059895833333428, "velocity": 100, "channel": 1}, {"time_played": 67.4999999999999, "midi_note": 48, "frequency": 130.81, "note_held": 0.3059895833333428, "velocity": 100, "channel": 1}, {"time_played": 67.4999999999999, "midi_note": 41, "frequency": 87.31, "note_held": 0.006510416666666667, "velocity": 100, "channel": 1}, {"time_played": 67.81249999999991, "midi_note": 53, "frequency": 174.61, "note_held": 0.1497395833333428, "velocity": 70, "channel": 1}, {"time_played": 67.81249999999991, "midi_note": 57, "frequency": 220, "note_held": 0.1497395833333428, "velocity": 70, "channel": 1}, {"time_played": 67.81249999999991, "midi_note": 60, "frequency": 261.63, "note_held": 0.1497395833333428, "velocity": 70, "channel": 1}, {"time_played": 67.81249999999991, "midi_note": 65, "frequency": 349.23, "note_held": 0.006510416666666667, "velocity": 70, "channel": 1}, {"time_played": 67.96874999999993, "midi_note": 65, "frequency": 349.23, "note_held": 0.3059895833333286, "velocity": 80, "channel": 1}, {"time_played": 67.96874999999993, "midi_note": 60, "frequency": 261.63, "note_held": 0.3059895833333286, "velocity": 80, "channel": 1}, {"time_played": 67.96874999999993, "midi_note": 57, "frequency": 220, "note_held": 0.3059895833333286, "velocity": 80, "channel": 1}, {"time_played": 67.96874999999993, "midi_note": 53, "frequency": 174.61, "note_held": 0.3059895833333286, "velocity": 80, "channel": 1}, {"time_played": 67.96874999999993, "midi_note": 48, "frequency": 130.81, "note_held": 0.006510416666666667, "velocity": 80, "channel": 1}, {"time_played": 68.12499999999993, "midi_note": 65, "frequency": 349.23, "note_held": 0.1497395833333286, "velocity": 80, "channel": 1}, {"time_played": 68.12499999999993, "midi_note": 60, "frequency": 261.63, "note_held": 0.1497395833333286, "velocity": 80, "channel": 1}, {"time_played": 68.12499999999993, "midi_note": 57, "frequency": 220, "note_held": 0.1497395833333286, "velocity": 80, "channel": 1}, {"time_played": 68.12499999999993, "midi_note": 53, "frequency": 174.61, "note_held": 0.1497395833333286, "velocity": 80, "channel": 1}, {"time_played": 68.12499999999993, "midi_note": 48, "frequency": 130.81, "note_held": 0.1497395833333286, "velocity": 80, "channel": 1}, {"time_played": 68.12499999999993, "midi_note": 41, "frequency": 87.31, "note_held": 0.09114583333333334, "velocity": 80, "channel": 1}, {"time_played": 68.43749999999993, "midi_note": 65, "frequency": 349.23, "note_held": 0.3059895833333286, "velocity": 100, "channel": 1}, {"time_played": 68.43749999999993, "midi_note": 60, "frequency": 261.63, "note_held": 0.3059895833333286, "velocity": 100, "channel": 1}, {"time_played": 68.43749999999993, "midi_note": 57, "frequency": 220, "note_held": 0.3059895833333286, "velocity": 100, "channel": 1}, {"time_played": 68.43749999999993, "midi_note": 53, "frequency": 174.61, "note_held": 0.3059895833333286, "velocity": 100, "channel": 1}, {"time_played": 68.43749999999993, "midi_note": 48, "frequency": 130.81, "note_held": 0.3059895833333286, "velocity": 100, "channel": 1}, {"time_played": 68.43749999999993, "midi_note": 41, "frequency": 87.31, "note_held": 0.006510416666666667, "velocity": 100, "channel": 1}, {"time_played": 68.74999999999993, "midi_note": 53, "frequency": 174.61, "note_held": 0.1497395833333286, "velocity": 70, "channel": 1}, {"time_played": 68.74999999999993, "midi_note": 57, "frequency": 220, "note_held": 0.1497395833333286, "velocity": 70, "channel": 1}, {"time_played": 68.74999999999993, "midi_note": 60, "frequency": 261.63, "note_held": 0.1497395833333286, "velocity": 70, "channel": 1}, {"time_played": 68.74999999999993, "midi_note": 65, "frequency": 349.23, "note_held": 0.006510416666666667, "velocity": 70, "channel": 1}, {"time_played": 68.90624999999993, "midi_note": 65, "frequency": 349.23, "note_held": 0.3059895833333428, "velocity": 80, "channel": 1}, {"time_played": 68.90624999999993, "midi_note": 60, "frequency": 261.63, "note_held": 0.3059895833333428, "velocity": 80, "channel": 1}, {"time_played": 68.90624999999993, "midi_note": 57, "frequency": 220, "note_held": 0.3059895833333428, "velocity": 80, "channel": 1}, {"time_played": 68.90624999999993, "midi_note": 53, "frequency": 174.61, "note_held": 0.3059895833333428, "velocity": 80, "channel": 1}, {"time_played": 68.90624999999993, "midi_note": 48, "frequency": 130.81, "note_held": 0.006510416666666667, "velocity": 80, "channel": 1}, {"time_played": 69.06249999999994, "midi_note": 65, "frequency": 349.23, "note_held": 0.1497395833333286, "velocity": 80, "channel": 1}, {"time_played": 69.06249999999994, "midi_note": 60, "frequency": 261.63, "note_held": 0.1497395833333286, "velocity": 80, "channel": 1}, {"time_played": 69.06249999999994, "midi_note": 57, "frequency": 220, "note_held": 0.1497395833333286, "velocity": 80, "channel": 1}, {"time_played": 69.06249999999994, "midi_note": 53, "frequency": 174.61, "note_held": 0.1497395833333286, "velocity": 80, "channel": 1}, {"time_played": 69.06249999999994, "midi_note": 48, "frequency": 130.81, "note_held": 0.1497395833333286, "velocity": 80, "channel": 1}, {"time_played": 69.06249999999994, "midi_note": 41, "frequency": 87.31, "note_held": 0.006510416666666667, "velocity": 80, "channel": 1}, {"time_played": 69.37499999999994, "midi_note": 65, "frequency": 349.23, "note_held": 0.3059895833333428, "velocity": 100, "channel": 1}, {"time_played": 69.37499999999994, "midi_note": 60, "frequency": 261.63, "note_held": 0.3059895833333428, "velocity": 100, "channel": 1}, {"time_played": 69.37499999999994, "midi_note": 57, "frequency": 220, "note_held": 0.3059895833333428, "velocity": 100, "channel": 1}, {"time_played": 69.37499999999994, "midi_note": 53, "frequency": 174.61, "note_held": 0.3059895833333428, "velocity": 100, "channel": 1}, {"time_played": 69.37499999999994, "midi_note": 48, "frequency": 130.81, "note_held": 0.3059895833333428, "velocity": 100, "channel": 1}, {"time_played": 69.37499999999994, "midi_note": 41, "frequency": 87.31, "note_held": 0.006510416666666667, "velocity": 100, "channel": 1}, {"time_played": 69.53124999999996, "midi_note": 65, "frequency": 349.23, "note_held": 0.1497395833333286, "velocity": 64, "channel": 1}, {"time_played": 69.53124999999996, "midi_note": 60, "frequency": 261.63, "note_held": 0.1497395833333286, "velocity": 64, "channel": 1}, {"time_played": 69.53124999999996, "midi_note": 57, "frequency": 220, "note_held": 0.1497395833333286, "velocity": 64, "channel": 1}, {"time_played": 69.53124999999996, "midi_note": 53, "frequency": 174.61, "note_held": 0.006510416666666667, "velocity": 64, "channel": 1}, {"time_played": 69.68749999999996, "midi_note": 57, "frequency": 220, "note_held": 0.1497395833333286, "velocity": 56, "channel": 1}, {"time_played": 69.68749999999996, "midi_note": 60, "frequency": 261.63, "note_held": 0.1497395833333286, "velocity": 56, "channel": 1}, {"time_played": 69.68749999999996, "midi_note": 65, "frequency": 349.23, "note_held": 0.006510416666666667, "velocity": 56, "channel": 1}, {"time_played": 69.84374999999996, "midi_note": 53, "frequency": 174.61, "note_held": 0.1497395833333286, "velocity": 70, "channel": 1}, {"time_played": 69.84374999999996, "midi_note": 57, "frequency": 220, "note_held": 0.1497395833333286, "velocity": 70, "channel": 1}, {"time_played": 69.84374999999996, "midi_note": 60, "frequency": 261.63, "note_held": 0.1497395833333286, "velocity": 70, "channel": 1}, {"time_played": 69.84374999999996, "midi_note": 65, "frequency": 349.23, "note_held": 0.006510416666666667, "velocity": 70, "channel": 1}, {"time_played": 69.99999999999996, "midi_note": 69, "frequency": 440, "note_held": 0.3059895833333428, "velocity": 100, "channel": 1}, {"time_played": 69.99999999999996, "midi_note": 64, "frequency": 329.63, "note_held": 0.3059895833333428, "velocity": 100, "channel": 1}, {"time_played": 69.99999999999996, "midi_note": 60, "frequency": 261.63, "note_held": 0.3059895833333428, "velocity": 100, "channel": 1}, {"time_played": 69.99999999999996, "midi_note": 57, "frequency": 220, "note_held": 0.3059895833333428, "velocity": 100, "channel": 1}, {"time_played": 69.99999999999996, "midi_note": 52, "frequency": 164.81, "note_held": 0.3059895833333428, "velocity": 100, "channel": 1}, {"time_played": 69.99999999999996, "midi_note": 45, "frequency": 110, "note_held": 0.006510416666666667, "velocity": 100, "channel": 1}, {"time_played": 70.31249999999997, "midi_note": 57, "frequency": 220, "note_held": 0.1497395833333286, "velocity": 70, "channel": 1}, {"time_played": 70.31249999999997, "midi_note": 60, "frequency": 261.63, "note_held": 0.1497395833333286, "velocity": 70, "channel": 1}, {"time_played": 70.31249999999997, "midi_note": 64, "frequency": 329.63, "note_held": 0.1497395833333286, "velocity": 70, "channel": 1}, {"time_played": 70.31249999999997, "midi_note": 69, "frequency": 440, "note_held": 0.006510416666666667, "velocity": 70, "channel": 1}, {"time_played": 70.46874999999997, "midi_note": 69, "frequency": 440, "note_held": 0.3059895833333286, "velocity": 80, "channel": 1}, {"time_played": 70.46874999999997, "midi_note": 64, "frequency": 329.63, "note_held": 0.3059895833333286, "velocity": 80, "channel": 1}, {"time_played": 70.46874999999997, "midi_note": 60, "frequency": 261.63, "note_held": 0.3059895833333286, "velocity": 80, "channel": 1}, {"time_played": 70.46874999999997, "midi_note": 57, "frequency": 220, "note_held": 0.3059895833333286, "velocity": 80, "channel": 1}, {"time_played": 70.46874999999997, "midi_note": 52, "frequency": 164.81, "note_held": 0.006510416666666667, "velocity": 80, "channel": 1}, {"time_played": 70.62499999999997, "midi_note": 69, "frequency": 440, "note_held": 0.1497395833333286, "velocity": 80, "channel": 1}, {"time_played": 70.62499999999997, "midi_note": 64, "frequency": 329.63, "note_held": 0.1497395833333286, "velocity": 80, "channel": 1}, {"time_played": 70.62499999999997, "midi_note": 60, "frequency": 261.63, "note_held": 0.1497395833333286, "velocity": 80, "channel": 1}, {"time_played": 70.62499999999997, "midi_note": 57, "frequency": 220, "note_held": 0.1497395833333286, "velocity": 80, "channel": 1}, {"time_played": 70.62499999999997, "midi_note": 52, "frequency": 164.81, "note_held": 0.1497395833333286, "velocity": 80, "channel": 1}, {"time_played": 70.62499999999997, "midi_note": 45, "frequency": 110, "note_held": 0.09114583333333334, "velocity": 80, "channel": 1}, {"time_played": 70.93749999999997, "midi_note": 69, "frequency": 440, "note_held": 0.3059895833333428, "velocity": 100, "channel": 1}, {"time_played": 70.93749999999997, "midi_note": 64, "frequency": 329.63, "note_held": 0.3059895833333428, "velocity": 100, "channel": 1}, {"time_played": 70.93749999999997, "midi_note": 60, "frequency": 261.63, "note_held": 0.3059895833333428, "velocity": 100, "channel": 1}, {"time_played": 70.93749999999997, "midi_note": 57, "frequency": 220, "note_held": 0.3059895833333428, "velocity": 100, "channel": 1}, {"time_played": 70.93749999999997, "midi_note": 52, "frequency": 164.81, "note_held": 0.3059895833333428, "velocity": 100, "channel": 1}, {"time_played": 70.93749999999997, "midi_note": 45, "frequency": 110, "note_held": 0.006510416666666667, "velocity": 100, "channel": 1}, {"time_played": 71.24999999999999, "midi_note": 57, "frequency": 220, "note_held": 0.1497395833333286, "velocity": 70, "channel": 1}, {"time_played": 71.24999999999999, "midi_note": 60, "frequency": 261.63, "note_held": 0.1497395833333286, "velocity": 70, "channel": 1}, {"time_played": 71.24999999999999, "midi_note": 64, "frequency": 329.63, "note_held": 0.1497395833333286, "velocity": 70, "channel": 1}, {"time_played": 71.24999999999999, "midi_note": 69, "frequency": 440, "note_held": 0.006510416666666667, "velocity": 70, "channel": 1}, {"time_played": 71.40624999999999, "midi_note": 69, "frequency": 440, "note_held": 0.305989583333357, "velocity": 104, "channel": 1}, {"time_played": 71.40624999999999, "midi_note": 64, "frequency": 329.63, "note_held": 0.305989583333357, "velocity": 80, "channel": 1}, {"time_played": 71.40624999999999, "midi_note": 60, "frequency": 261.63, "note_held": 0.305989583333357, "velocity": 80, "channel": 1}, {"time_played": 71.40624999999999, "midi_note": 57, "frequency": 220, "note_held": 0.305989583333357, "velocity": 80, "channel": 1}, {"time_played": 71.40624999999999, "midi_note": 52, "frequency": 164.81, "note_held": 0.006510416666666667, "velocity": 80, "channel": 1}, {"time_played": 71.5625, "midi_note": 69, "frequency": 440, "note_held": 0.1497395833333428, "velocity": 80, "channel": 1}, {"time_played": 71.5625, "midi_note": 64, "frequency": 329.63, "note_held": 0.1497395833333428, "velocity": 80, "channel": 1}, {"time_played": 71.5625, "midi_note": 60, "frequency": 261.63, "note_held": 0.1497395833333428, "velocity": 80, "channel": 1}, {"time_played": 71.5625, "midi_note": 57, "frequency": 220, "note_held": 0.1497395833333428, "velocity": 80, "channel": 1}, {"time_played": 71.5625, "midi_note": 52, "frequency": 164.81, "note_held": 0.1497395833333428, "velocity": 80, "channel": 1}, {"time_played": 71.5625, "midi_note": 45, "frequency": 110, "note_held": 0.006510416666666667, "velocity": 80, "channel": 1}, {"time_played": 71.87500000000001, "midi_note": 69, "frequency": 440, "note_held": 0.3059895833333286, "velocity": 100, "channel": 1}, {"time_played": 71.87500000000001, "midi_note": 64, "frequency": 329.63, "note_held": 0.3059895833333286, "velocity": 100, "channel": 1}, {"time_played": 71.87500000000001, "midi_note": 60, "frequency": 261.63, "note_held": 0.3059895833333286, "velocity": 100, "channel": 1}, {"time_played": 71.87500000000001, "midi_note": 57, "frequency": 220, "note_held": 0.3059895833333286, "velocity": 100, "channel": 1}, {"time_played": 71.87500000000001, "midi_note": 52, "frequency": 164.81, "note_held": 0.3059895833333286, "velocity": 100, "channel": 1}, {"time_played": 71.87500000000001, "midi_note": 45, "frequency": 110, "note_held": 0.006510416666666667, "velocity": 100, "channel": 1}, {"time_played": 72.18750000000001, "midi_note": 60, "frequency": 261.63, "note_held": 0.1497395833333286, "velocity": 70, "channel": 1}, {"time_played": 72.18750000000001, "midi_note": 64, "frequency": 329.63, "note_held": 0.1497395833333286, "velocity": 70, "channel": 1}, {"time_played": 72.18750000000001, "midi_note": 69, "frequency": 440, "note_held": 0.006510416666666667, "velocity": 70, "channel": 1}, {"time_played": 72.34375000000001, "midi_note": 57, "frequency": 220, "note_held": 0.1497395833333286, "velocity": 70, "channel": 1}, {"time_played": 72.34375000000001, "midi_note": 60, "frequency": 261.63, "note_held": 0.1497395833333286, "velocity": 70, "channel": 1}, {"time_played": 72.34375000000001, "midi_note": 64, "frequency": 329.63, "note_held": 0.1497395833333286, "velocity": 70, "channel": 1}, {"time_played": 72.34375000000001, "midi_note": 69, "frequency": 440, "note_held": 0.006510416666666667, "velocity": 70, "channel": 1}, {"time_played": 72.50000000000001, "midi_note": 65, "frequency": 349.23, "note_held": 0.3059895833333428, "velocity": 100, "channel": 1}, {"time_played": 72.50000000000001, "midi_note": 60, "frequency": 261.63, "note_held": 0.3059895833333428, "velocity": 100, "channel": 1}, {"time_played": 72.50000000000001, "midi_note": 57, "frequency": 220, "note_held": 0.3059895833333428, "velocity": 100, "channel": 1}, {"time_played": 72.50000000000001, "midi_note": 53, "frequency": 174.61, "note_held": 0.3059895833333428, "velocity": 100, "channel": 1}, {"time_played": 72.50000000000001, "midi_note": 48, "frequency": 130.81, "note_held": 0.3059895833333428, "velocity": 100, "channel": 1}, {"time_played": 72.50000000000001, "midi_note": 41, "frequency": 87.31, "note_held": 0.006510416666666667, "velocity": 100, "channel": 1}, {"time_played": 72.81250000000003, "midi_note": 53, "frequency": 174.61, "note_held": 0.1497395833333286, "velocity": 70, "channel": 1}, {"time_played": 72.81250000000003, "midi_note": 57, "frequency": 220, "note_held": 0.1497395833333286, "velocity": 70, "channel": 1}, {"time_played": 72.81250000000003, "midi_note": 60, "frequency": 261.63, "note_held": 0.1497395833333286, "velocity": 70, "channel": 1}, {"time_played": 72.81250000000003, "midi_note": 65, "frequency": 349.23, "note_held": 0.006510416666666667, "velocity": 70, "channel": 1}, {"time_played": 72.96875000000003, "midi_note": 65, "frequency": 349.23, "note_held": 0.3059895833333286, "velocity": 94, "channel": 1}, {"time_played": 72.96875000000003, "midi_note": 60, "frequency": 261.63, "note_held": 0.3059895833333286, "velocity": 80, "channel": 1}, {"time_played": 72.96875000000003, "midi_note": 57, "frequency": 220, "note_held": 0.3059895833333286, "velocity": 80, "channel": 1}, {"time_played": 72.96875000000003, "midi_note": 53, "frequency": 174.61, "note_held": 0.3059895833333286, "velocity": 80, "channel": 1}, {"time_played": 72.96875000000003, "midi_note": 48, "frequency": 130.81, "note_held": 0.006510416666666667, "velocity": 80, "channel": 1}, {"time_played": 73.12500000000003, "midi_note": 65, "frequency": 349.23, "note_held": 0.1497395833333286, "velocity": 86, "channel": 1}, {"time_played": 73.12500000000003, "midi_note": 60, "frequency": 261.63, "note_held": 0.1497395833333286, "velocity": 80, "channel": 1}, {"time_played": 73.12500000000003, "midi_note": 57, "frequency": 220, "note_held": 0.1497395833333286, "velocity": 80, "channel": 1}, {"time_played": 73.12500000000003, "midi_note": 53, "frequency": 174.61, "note_held": 0.1497395833333286, "velocity": 80, "channel": 1}, {"time_played": 73.12500000000003, "midi_note": 48, "frequency": 130.81, "note_held": 0.1497395833333286, "velocity": 80, "channel": 1}, {"time_played": 73.12500000000003, "midi_note": 41, "frequency": 87.31, "note_held": 0.09765625, "velocity": 84, "channel": 1}, {"time_played": 73.43750000000003, "midi_note": 65, "frequency": 349.23, "note_held": 0.3059895833333286, "velocity": 100, "channel": 1}, {"time_played": 73.43750000000003, "midi_note": 60, "frequency": 261.63, "note_held": 0.3059895833333286, "velocity": 100, "channel": 1}, {"time_played": 73.43750000000003, "midi_note": 57, "frequency": 220, "note_held": 0.3059895833333286, "velocity": 100, "channel": 1}, {"time_played": 73.43750000000003, "midi_note": 53, "frequency": 174.61, "note_held": 0.3059895833333286, "velocity": 100, "channel": 1}, {"time_played": 73.43750000000003, "midi_note": 48, "frequency": 130.81, "note_held": 0.3059895833333286, "velocity": 100, "channel": 1}, {"time_played": 73.43750000000003, "midi_note": 41, "frequency": 87.31, "note_held": 0.006510416666666667, "velocity": 100, "channel": 1}, {"time_played": 73.75000000000003, "midi_note": 53, "frequency": 174.61, "note_held": 0.1497395833333286, "velocity": 70, "channel": 1}, {"time_played": 73.75000000000003, "midi_note": 57, "frequency": 220, "note_held": 0.1497395833333286, "velocity": 70, "channel": 1}, {"time_played": 73.75000000000003, "midi_note": 60, "frequency": 261.63, "note_held": 0.1497395833333286, "velocity": 70, "channel": 1}, {"time_played": 73.75000000000003, "midi_note": 65, "frequency": 349.23, "note_held": 0.006510416666666667, "velocity": 70, "channel": 1}, {"time_played": 73.90625000000003, "midi_note": 65, "frequency": 349.23, "note_held": 0.3059895833333428, "velocity": 97, "channel": 1}, {"time_played": 73.90625000000003, "midi_note": 60, "frequency": 261.63, "note_held": 0.3059895833333428, "velocity": 80, "channel": 1}, {"time_played": 73.90625000000003, "midi_note": 57, "frequency": 220, "note_held": 0.3059895833333428, "velocity": 80, "channel": 1}, {"time_played": 73.90625000000003, "midi_note": 53, "frequency": 174.61, "note_held": 0.3059895833333428, "velocity": 80, "channel": 1}, {"time_played": 73.90625000000003, "midi_note": 48, "frequency": 130.81, "note_held": 0.006510416666666667, "velocity": 80, "channel": 1}, {"time_played": 74.06250000000004, "midi_note": 65, "frequency": 349.23, "note_held": 0.1497395833333286, "velocity": 80, "channel": 1}, {"time_played": 74.06250000000004, "midi_note": 60, "frequency": 261.63, "note_held": 0.1497395833333286, "velocity": 80, "channel": 1}, {"time_played": 74.06250000000004, "midi_note": 57, "frequency": 220, "note_held": 0.1497395833333286, "velocity": 80, "channel": 1}, {"time_played": 74.06250000000004, "midi_note": 53, "frequency": 174.61, "note_held": 0.1497395833333286, "velocity": 80, "channel": 1}, {"time_played": 74.06250000000004, "midi_note": 48, "frequency": 130.81, "note_held": 0.1497395833333286, "velocity": 80, "channel": 1}, {"time_played": 74.06250000000004, "midi_note": 41, "frequency": 87.31, "note_held": 0.006510416666666667, "velocity": 80, "channel": 1}, {"time_played": 74.37500000000004, "midi_note": 65, "frequency": 349.23, "note_held": 0.3059895833333286, "velocity": 100, "channel": 1}, {"time_played": 74.37500000000004, "midi_note": 60, "frequency": 261.63, "note_held": 0.3059895833333286, "velocity": 100, "channel": 1}, {"time_played": 74.37500000000004, "midi_note": 57, "frequency": 220, "note_held": 0.3059895833333286, "velocity": 100, "channel": 1}, {"time_played": 74.37500000000004, "midi_note": 53, "frequency": 174.61, "note_held": 0.3059895833333286, "velocity": 100, "channel": 1}, {"time_played": 74.37500000000004, "midi_note": 48, "frequency": 130.81, "note_held": 0.3059895833333286, "velocity": 100, "channel": 1}, {"time_played": 74.37500000000004, "midi_note": 41, "frequency": 87.31, "note_held": 0.006510416666666667, "velocity": 100, "channel": 1}, {"time_played": 74.53125000000004, "midi_note": 65, "frequency": 349.23, "note_held": 0.1497395833333286, "velocity": 64, "channel": 1}, {"time_played": 74.53125000000004, "midi_note": 60, "frequency": 261.63, "note_held": 0.1497395833333286, "velocity": 64, "channel": 1}, {"time_played": 74.53125000000004, "midi_note": 57, "frequency": 220, "note_held": 0.1497395833333286, "velocity": 64, "channel": 1}, {"time_played": 74.53125000000004, "midi_note": 53, "frequency": 174.61, "note_held": 0.006510416666666667, "velocity": 64, "channel": 1}, {"time_played": 74.68750000000004, "midi_note": 57, "frequency": 220, "note_held": 0.1497395833333286, "velocity": 56, "channel": 1}, {"time_played": 74.68750000000004, "midi_note": 60, "frequency": 261.63, "note_held": 0.1497395833333286, "velocity": 56, "channel": 1}, {"time_played": 74.68750000000004, "midi_note": 65, "frequency": 349.23, "note_held": 0.006510416666666667, "velocity": 56, "channel": 1}, {"time_played": 74.84375000000004, "midi_note": 53, "frequency": 174.61, "note_held": 0.1497395833333286, "velocity": 70, "channel": 1}, {"time_played": 74.84375000000004, "midi_note": 57, "frequency": 220, "note_held": 0.1497395833333286, "velocity": 70, "channel": 1}, {"time_played": 74.84375000000004, "midi_note": 60, "frequency": 261.63, "note_held": 0.1497395833333286, "velocity": 70, "channel": 1}, {"time_played": 74.84375000000004, "midi_note": 65, "frequency": 349.23, "note_held": 0.006510416666666667, "velocity": 70, "channel": 1}, {"time_played": 75.00000000000004, "midi_note": 69, "frequency": 440, "note_held": 0.3059895833333428, "velocity": 100, "channel": 1}, {"time_played": 75.00000000000004, "midi_note": 64, "frequency": 329.63, "note_held": 0.3059895833333428, "velocity": 100, "channel": 1}, {"time_played": 75.00000000000004, "midi_note": 60, "frequency": 261.63, "note_held": 0.3059895833333428, "velocity": 100, "channel": 1}, {"time_played": 75.00000000000004, "midi_note": 57, "frequency": 220, "note_held": 0.3059895833333428, "velocity": 100, "channel": 1}, {"time_played": 75.00000000000004, "midi_note": 52, "frequency": 164.81, "note_held": 0.3059895833333428, "velocity": 100, "channel": 1}, {"time_played": 75.00000000000004, "midi_note": 45, "frequency": 110, "note_held": 0.006510416666666667, "velocity": 100, "channel": 1}, {"time_played": 75.31250000000006, "midi_note": 57, "frequency": 220, "note_held": 0.1497395833333428, "velocity": 70, "channel": 1}, {"time_played": 75.31250000000006, "midi_note": 60, "frequency": 261.63, "note_held": 0.1497395833333428, "velocity": 70, "channel": 1}, {"time_played": 75.31250000000006, "midi_note": 64, "frequency": 329.63, "note_held": 0.1497395833333428, "velocity": 70, "channel": 1}, {"time_played": 75.31250000000006, "midi_note": 69, "frequency": 440, "note_held": 0.006510416666666667, "velocity": 70, "channel": 1}, {"time_played": 75.46875000000007, "midi_note": 69, "frequency": 440, "note_held": 0.3059895833333428, "velocity": 80, "channel": 1}, {"time_played": 75.46875000000007, "midi_note": 64, "frequency": 329.63, "note_held": 0.3059895833333428, "velocity": 80, "channel": 1}, {"time_played": 75.46875000000007, "midi_note": 60, "frequency": 261.63, "note_held": 0.3059895833333428, "velocity": 80, "channel": 1}, {"time_played": 75.46875000000007, "midi_note": 57, "frequency": 220, "note_held": 0.3059895833333428, "velocity": 80, "channel": 1}, {"time_played": 75.46875000000007, "midi_note": 52, "frequency": 164.81, "note_held": 0.006510416666666667, "velocity": 80, "channel": 1}, {"time_played": 75.62500000000007, "midi_note": 69, "frequency": 440, "note_held": 0.1497395833333428, "velocity": 80, "channel": 1}, {"time_played": 75.62500000000007, "midi_note": 64, "frequency": 329.63, "note_held": 0.1497395833333428, "velocity": 80, "channel": 1}, {"time_played": 75.62500000000007, "midi_note": 60, "frequency": 261.63, "note_held": 0.1497395833333428, "velocity": 80, "channel": 1}, {"time_played": 75.62500000000007, "midi_note": 57, "frequency": 220, "note_held": 0.1497395833333428, "velocity": 80, "channel": 1}, {"time_played": 75.62500000000007, "midi_note": 52, "frequency": 164.81, "note_held": 0.1497395833333428, "velocity": 80, "channel": 1}, {"time_played": 75.62500000000007, "midi_note": 45, "frequency": 110, "note_held": 0.078125, "velocity": 80, "channel": 1}, {"time_played": 75.9375000000001, "midi_note": 69, "frequency": 440, "note_held": 0.3059895833333286, "velocity": 100, "channel": 1}, {"time_played": 75.9375000000001, "midi_note": 64, "frequency": 329.63, "note_held": 0.3059895833333286, "velocity": 100, "channel": 1}, {"time_played": 75.9375000000001, "midi_note": 60, "frequency": 261.63, "note_held": 0.3059895833333286, "velocity": 100, "channel": 1}, {"time_played": 75.9375000000001, "midi_note": 57, "frequency": 220, "note_held": 0.3059895833333286, "velocity": 100, "channel": 1}, {"time_played": 75.9375000000001, "midi_note": 52, "frequency": 164.81, "note_held": 0.3059895833333286, "velocity": 100, "channel": 1}, {"time_played": 75.9375000000001, "midi_note": 45, "frequency": 110, "note_held": 0.006510416666666667, "velocity": 100, "channel": 1}, {"time_played": 76.2500000000001, "midi_note": 57, "frequency": 220, "note_held": 0.1497395833333286, "velocity": 70, "channel": 1}, {"time_played": 76.2500000000001, "midi_note": 60, "frequency": 261.63, "note_held": 0.1497395833333286, "velocity": 70, "channel": 1}, {"time_played": 76.2500000000001, "midi_note": 64, "frequency": 329.63, "note_held": 0.1497395833333286, "velocity": 70, "channel": 1}, {"time_played": 76.2500000000001, "midi_note": 69, "frequency": 440, "note_held": 0.006510416666666667, "velocity": 70, "channel": 1}, {"time_played": 76.4062500000001, "midi_note": 69, "frequency": 440, "note_held": 0.30598958333337123, "velocity": 80, "channel": 1}, {"time_played": 76.4062500000001, "midi_note": 64, "frequency": 329.63, "note_held": 0.30598958333337123, "velocity": 80, "channel": 1}, {"time_played": 76.4062500000001, "midi_note": 60, "frequency": 261.63, "note_held": 0.30598958333337123, "velocity": 80, "channel": 1}, {"time_played": 76.4062500000001, "midi_note": 57, "frequency": 220, "note_held": 0.30598958333337123, "velocity": 80, "channel": 1}, {"time_played": 76.4062500000001, "midi_note": 52, "frequency": 164.81, "note_held": 0.006510416666666667, "velocity": 80, "channel": 1}, {"time_played": 76.56250000000013, "midi_note": 69, "frequency": 440, "note_held": 0.1497395833333428, "velocity": 80, "channel": 1}, {"time_played": 76.56250000000013, "midi_note": 64, "frequency": 329.63, "note_held": 0.1497395833333428, "velocity": 80, "channel": 1}, {"time_played": 76.56250000000013, "midi_note": 60, "frequency": 261.63, "note_held": 0.1497395833333428, "velocity": 80, "channel": 1}, {"time_played": 76.56250000000013, "midi_note": 57, "frequency": 220, "note_held": 0.1497395833333428, "velocity": 80, "channel": 1}, {"time_played": 76.56250000000013, "midi_note": 52, "frequency": 164.81, "note_held": 0.1497395833333428, "velocity": 80, "channel": 1}, {"time_played": 76.56250000000013, "midi_note": 45, "frequency": 110, "note_held": 0.006510416666666667, "velocity": 80, "channel": 1}, {"time_played": 76.87500000000014, "midi_note": 69, "frequency": 440, "note_held": 0.3059895833333428, "velocity": 100, "channel": 1}, {"time_played": 76.87500000000014, "midi_note": 64, "frequency": 329.63, "note_held": 0.3059895833333428, "velocity": 100, "channel": 1}, {"time_played": 76.87500000000014, "midi_note": 60, "frequency": 261.63, "note_held": 0.3059895833333428, "velocity": 100, "channel": 1}, {"time_played": 76.87500000000014, "midi_note": 57, "frequency": 220, "note_held": 0.3059895833333428, "velocity": 100, "channel": 1}, {"time_played": 76.87500000000014, "midi_note": 52, "frequency": 164.81, "note_held": 0.3059895833333428, "velocity": 100, "channel": 1}, {"time_played": 76.87500000000014, "midi_note": 45, "frequency": 110, "note_held": 0.006510416666666667, "velocity": 100, "channel": 1}, {"time_played": 77.18750000000016, "midi_note": 60, "frequency": 261.63, "note_held": 0.1497395833333286, "velocity": 70, "channel": 1}, {"time_played": 77.18750000000016, "midi_note": 64, "frequency": 329.63, "note_held": 0.1497395833333286, "velocity": 70, "channel": 1}, {"time_played": 77.18750000000016, "midi_note": 69, "frequency": 440, "note_held": 0.006510416666666667, "velocity": 70, "channel": 1}, {"time_played": 77.34375000000016, "midi_note": 57, "frequency": 220, "note_held": 0.1497395833333286, "velocity": 70, "channel": 1}, {"time_played": 77.34375000000016, "midi_note": 60, "frequency": 261.63, "note_held": 0.1497395833333286, "velocity": 70, "channel": 1}, {"time_played": 77.34375000000016, "midi_note": 64, "frequency": 329.63, "note_held": 0.1497395833333286, "velocity": 70, "channel": 1}, {"time_played": 77.34375000000016, "midi_note": 69, "frequency": 440, "note_held": 0.006510416666666667, "velocity": 70, "channel": 1}, {"time_played": 77.50000000000016, "midi_note": 65, "frequency": 349.23, "note_held": 0.3059895833333286, "velocity": 100, "channel": 1}, {"time_played": 77.50000000000016, "midi_note": 60, "frequency": 261.63, "note_held": 0.3059895833333286, "velocity": 100, "channel": 1}, {"time_played": 77.50000000000016, "midi_note": 57, "frequency": 220, "note_held": 0.3059895833333286, "velocity": 100, "channel": 1}, {"time_played": 77.50000000000016, "midi_note": 53, "frequency": 174.61, "note_held": 0.3059895833333286, "velocity": 100, "channel": 1}, {"time_played": 77.50000000000016, "midi_note": 48, "frequency": 130.81, "note_held": 0.3059895833333286, "velocity": 100, "channel": 1}, {"time_played": 77.50000000000016, "midi_note": 41, "frequency": 87.31, "note_held": 0.006510416666666667, "velocity": 100, "channel": 1}, {"time_played": 77.81250000000016, "midi_note": 53, "frequency": 174.61, "note_held": 0.1497395833333428, "velocity": 70, "channel": 1}, {"time_played": 77.81250000000016, "midi_note": 57, "frequency": 220, "note_held": 0.1497395833333428, "velocity": 70, "channel": 1}, {"time_played": 77.81250000000016, "midi_note": 60, "frequency": 261.63, "note_held": 0.1497395833333428, "velocity": 70, "channel": 1}, {"time_played": 77.81250000000016, "midi_note": 65, "frequency": 349.23, "note_held": 0.006510416666666667, "velocity": 70, "channel": 1}, {"time_played": 77.96875000000017, "midi_note": 65, "frequency": 349.23, "note_held": 0.3059895833333286, "velocity": 80, "channel": 1}, {"time_played": 77.96875000000017, "midi_note": 60, "frequency": 261.63, "note_held": 0.3059895833333286, "velocity": 80, "channel": 1}, {"time_played": 77.96875000000017, "midi_note": 57, "frequency": 220, "note_held": 0.3059895833333286, "velocity": 80, "channel": 1}, {"time_played": 77.96875000000017, "midi_note": 53, "frequency": 174.61, "note_held": 0.3059895833333286, "velocity": 80, "channel": 1}, {"time_played": 77.96875000000017, "midi_note": 48, "frequency": 130.81, "note_held": 0.006510416666666667, "velocity": 80, "channel": 1}, {"time_played": 78.12500000000017, "midi_note": 65, "frequency": 349.23, "note_held": 0.1497395833333286, "velocity": 80, "channel": 1}, {"time_played": 78.12500000000017, "midi_note": 60, "frequency": 261.63, "note_held": 0.1497395833333286, "velocity": 80, "channel": 1}, {"time_played": 78.12500000000017, "midi_note": 57, "frequency": 220, "note_held": 0.1497395833333286, "velocity": 80, "channel": 1}, {"time_played": 78.12500000000017, "midi_note": 53, "frequency": 174.61, "note_held": 0.1497395833333286, "velocity": 80, "channel": 1}, {"time_played": 78.12500000000017, "midi_note": 48, "frequency": 130.81, "note_held": 0.1497395833333286, "velocity": 80, "channel": 1}, {"time_played": 78.12500000000017, "midi_note": 41, "frequency": 87.31, "note_held": 0.09114583333333334, "velocity": 80, "channel": 1}, {"time_played": 78.43750000000017, "midi_note": 65, "frequency": 349.23, "note_held": 0.3059895833333286, "velocity": 100, "channel": 1}, {"time_played": 78.43750000000017, "midi_note": 60, "frequency": 261.63, "note_held": 0.3059895833333286, "velocity": 100, "channel": 1}, {"time_played": 78.43750000000017, "midi_note": 57, "frequency": 220, "note_held": 0.3059895833333286, "velocity": 100, "channel": 1}, {"time_played": 78.43750000000017, "midi_note": 53, "frequency": 174.61, "note_held": 0.3059895833333286, "velocity": 100, "channel": 1}, {"time_played": 78.43750000000017, "midi_note": 48, "frequency": 130.81, "note_held": 0.3059895833333286, "velocity": 100, "channel": 1}, {"time_played": 78.43750000000017, "midi_note": 41, "frequency": 87.31, "note_held": 0.006510416666666667, "velocity": 100, "channel": 1}, {"time_played": 78.75000000000017, "midi_note": 53, "frequency": 174.61, "note_held": 0.1497395833333286, "velocity": 70, "channel": 1}, {"time_played": 78.75000000000017, "midi_note": 57, "frequency": 220, "note_held": 0.1497395833333286, "velocity": 70, "channel": 1}, {"time_played": 78.75000000000017, "midi_note": 60, "frequency": 261.63, "note_held": 0.1497395833333286, "velocity": 70, "channel": 1}, {"time_played": 78.75000000000017, "midi_note": 65, "frequency": 349.23, "note_held": 0.006510416666666667, "velocity": 70, "channel": 1}, {"time_played": 78.90625000000017, "midi_note": 65, "frequency": 349.23, "note_held": 0.305989583333357, "velocity": 80, "channel": 1}, {"time_played": 78.90625000000017, "midi_note": 60, "frequency": 261.63, "note_held": 0.305989583333357, "velocity": 80, "channel": 1}, {"time_played": 78.90625000000017, "midi_note": 57, "frequency": 220, "note_held": 0.305989583333357, "velocity": 80, "channel": 1}, {"time_played": 78.90625000000017, "midi_note": 53, "frequency": 174.61, "note_held": 0.305989583333357, "velocity": 80, "channel": 1}, {"time_played": 78.90625000000017, "midi_note": 48, "frequency": 130.81, "note_held": 0.006510416666666667, "velocity": 80, "channel": 1}, {"time_played": 79.06250000000018, "midi_note": 65, "frequency": 349.23, "note_held": 0.1497395833333428, "velocity": 80, "channel": 1}, {"time_played": 79.06250000000018, "midi_note": 60, "frequency": 261.63, "note_held": 0.1497395833333428, "velocity": 80, "channel": 1}, {"time_played": 79.06250000000018, "midi_note": 57, "frequency": 220, "note_held": 0.1497395833333428, "velocity": 80, "channel": 1}, {"time_played": 79.06250000000018, "midi_note": 53, "frequency": 174.61, "note_held": 0.1497395833333428, "velocity": 80, "channel": 1}, {"time_played": 79.06250000000018, "midi_note": 48, "frequency": 130.81, "note_held": 0.1497395833333428, "velocity": 80, "channel": 1}, {"time_played": 79.06250000000018, "midi_note": 41, "frequency": 87.31, "note_held": 0.006510416666666667, "velocity": 80, "channel": 1}, {"time_played": 79.3750000000002, "midi_note": 65, "frequency": 349.23, "note_held": 0.3059895833333428, "velocity": 100, "channel": 1}, {"time_played": 79.3750000000002, "midi_note": 60, "frequency": 261.63, "note_held": 0.3059895833333428, "velocity": 100, "channel": 1}, {"time_played": 79.3750000000002, "midi_note": 57, "frequency": 220, "note_held": 0.3059895833333428, "velocity": 100, "channel": 1}, {"time_played": 79.3750000000002, "midi_note": 53, "frequency": 174.61, "note_held": 0.3059895833333428, "velocity": 100, "channel": 1}, {"time_played": 79.3750000000002, "midi_note": 48, "frequency": 130.81, "note_held": 0.3059895833333428, "velocity": 100, "channel": 1}, {"time_played": 79.3750000000002, "midi_note": 41, "frequency": 87.31, "note_held": 0.006510416666666667, "velocity": 100, "channel": 1}, {"time_played": 79.53125000000021, "midi_note": 65, "frequency": 349.23, "note_held": 0.1497395833333286, "velocity": 64, "channel": 1}, {"time_played": 79.53125000000021, "midi_note": 60, "frequency": 261.63, "note_held": 0.1497395833333286, "velocity": 64, "channel": 1}, {"time_played": 79.53125000000021, "midi_note": 57, "frequency": 220, "note_held": 0.1497395833333286, "velocity": 64, "channel": 1}, {"time_played": 79.53125000000021, "midi_note": 53, "frequency": 174.61, "note_held": 0.006510416666666667, "velocity": 64, "channel": 1}, {"time_played": 79.68750000000021, "midi_note": 57, "frequency": 220, "note_held": 0.1497395833333286, "velocity": 56, "channel": 1}, {"time_played": 79.68750000000021, "midi_note": 60, "frequency": 261.63, "note_held": 0.1497395833333286, "velocity": 56, "channel": 1}, {"time_played": 79.68750000000021, "midi_note": 65, "frequency": 349.23, "note_held": 0.006510416666666667, "velocity": 56, "channel": 1}, {"time_played": 79.84375000000021, "midi_note": 53, "frequency": 174.61, "note_held": 0.1497395833333428, "velocity": 70, "channel": 1}, {"time_played": 79.84375000000021, "midi_note": 57, "frequency": 220, "note_held": 0.1497395833333428, "velocity": 70, "channel": 1}, {"time_played": 79.84375000000021, "midi_note": 60, "frequency": 261.63, "note_held": 0.1497395833333428, "velocity": 70, "channel": 1}, {"time_played": 79.84375000000021, "midi_note": 65, "frequency": 349.23, "note_held": 0.006510416666666667, "velocity": 70, "channel": 1}, {"time_played": 80.00000000000023, "midi_note": 69, "frequency": 440, "note_held": 0.3059895833333428, "velocity": 100, "channel": 1}, {"time_played": 80.00000000000023, "midi_note": 64, "frequency": 329.63, "note_held": 0.3059895833333428, "velocity": 100, "channel": 1}, {"time_played": 80.00000000000023, "midi_note": 60, "frequency": 261.63, "note_held": 0.3059895833333428, "velocity": 100, "channel": 1}, {"time_played": 80.00000000000023, "midi_note": 57, "frequency": 220, "note_held": 0.3059895833333428, "velocity": 100, "channel": 1}, {"time_played": 80.00000000000023, "midi_note": 52, "frequency": 164.81, "note_held": 0.3059895833333428, "velocity": 100, "channel": 1}, {"time_played": 80.00000000000023, "midi_note": 45, "frequency": 110, "note_held": 0.006510416666666667, "velocity": 100, "channel": 1}, {"time_played": 80.31250000000024, "midi_note": 57, "frequency": 220, "note_held": 0.1497395833333428, "velocity": 70, "channel": 1}, {"time_played": 80.31250000000024, "midi_note": 60, "frequency": 261.63, "note_held": 0.1497395833333428, "velocity": 70, "channel": 1}, {"time_played": 80.31250000000024, "midi_note": 64, "frequency": 329.63, "note_held": 0.1497395833333428, "velocity": 70, "channel": 1}, {"time_played": 80.31250000000024, "midi_note": 69, "frequency": 440, "note_held": 0.006510416666666667, "velocity": 70, "channel": 1}, {"time_played": 80.46875000000026, "midi_note": 69, "frequency": 440, "note_held": 0.3059895833333286, "velocity": 80, "channel": 1}, {"time_played": 80.46875000000026, "midi_note": 64, "frequency": 329.63, "note_held": 0.3059895833333286, "velocity": 80, "channel": 1}, {"time_played": 80.46875000000026, "midi_note": 60, "frequency": 261.63, "note_held": 0.3059895833333286, "velocity": 80, "channel": 1}, {"time_played": 80.46875000000026, "midi_note": 57, "frequency": 220, "note_held": 0.3059895833333286, "velocity": 80, "channel": 1}, {"time_played": 80.46875000000026, "midi_note": 52, "frequency": 164.81, "note_held": 0.006510416666666667, "velocity": 80, "channel": 1}, {"time_played": 80.62500000000026, "midi_note": 69, "frequency": 440, "note_held": 0.1497395833333286, "velocity": 80, "channel": 1}, {"time_played": 80.62500000000026, "midi_note": 64, "frequency": 329.63, "note_held": 0.1497395833333286, "velocity": 80, "channel": 1}, {"time_played": 80.62500000000026, "midi_note": 60, "frequency": 261.63, "note_held": 0.1497395833333286, "velocity": 80, "channel": 1}, {"time_played": 80.62500000000026, "midi_note": 57, "frequency": 220, "note_held": 0.1497395833333286, "velocity": 80, "channel": 1}, {"time_played": 80.62500000000026, "midi_note": 52, "frequency": 164.81, "note_held": 0.1497395833333286, "velocity": 80, "channel": 1}, {"time_played": 80.62500000000026, "midi_note": 45, "frequency": 110, "note_held": 0.078125, "velocity": 80, "channel": 1}, {"time_played": 80.93750000000027, "midi_note": 69, "frequency": 440, "note_held": 0.3059895833333428, "velocity": 100, "channel": 1}, {"time_played": 80.93750000000027, "midi_note": 64, "frequency": 329.63, "note_held": 0.3059895833333428, "velocity": 100, "channel": 1}, {"time_played": 80.93750000000027, "midi_note": 60, "frequency": 261.63, "note_held": 0.3059895833333428, "velocity": 100, "channel": 1}, {"time_played": 80.93750000000027, "midi_note": 57, "frequency": 220, "note_held": 0.3059895833333428, "velocity": 100, "channel": 1}, {"time_played": 80.93750000000027, "midi_note": 52, "frequency": 164.81, "note_held": 0.3059895833333428, "velocity": 100, "channel": 1}, {"time_played": 80.93750000000027, "midi_note": 45, "frequency": 110, "note_held": 0.006510416666666667, "velocity": 100, "channel": 1}, {"time_played": 81.25000000000028, "midi_note": 57, "frequency": 220, "note_held": 0.1497395833333286, "velocity": 70, "channel": 1}, {"time_played": 81.25000000000028, "midi_note": 60, "frequency": 261.63, "note_held": 0.1497395833333286, "velocity": 70, "channel": 1}, {"time_played": 81.25000000000028, "midi_note": 64, "frequency": 329.63, "note_held": 0.1497395833333286, "velocity": 70, "channel": 1}, {"time_played": 81.25000000000028, "midi_note": 69, "frequency": 440, "note_held": 0.006510416666666667, "velocity": 70, "channel": 1}, {"time_played": 81.40625000000028, "midi_note": 69, "frequency": 440, "note_held": 0.30598958333337123, "velocity": 104, "channel": 1}, {"time_played": 81.40625000000028, "midi_note": 64, "frequency": 329.63, "note_held": 0.30598958333337123, "velocity": 80, "channel": 1}, {"time_played": 81.40625000000028, "midi_note": 60, "frequency": 261.63, "note_held": 0.30598958333337123, "velocity": 80, "channel": 1}, {"time_played": 81.40625000000028, "midi_note": 57, "frequency": 220, "note_held": 0.30598958333337123, "velocity": 80, "channel": 1}, {"time_played": 81.40625000000028, "midi_note": 52, "frequency": 164.81, "note_held": 0.006510416666666667, "velocity": 80, "channel": 1}, {"time_played": 81.56250000000031, "midi_note": 69, "frequency": 440, "note_held": 0.1497395833333428, "velocity": 80, "channel": 1}, {"time_played": 81.56250000000031, "midi_note": 64, "frequency": 329.63, "note_held": 0.1497395833333428, "velocity": 80, "channel": 1}, {"time_played": 81.56250000000031, "midi_note": 60, "frequency": 261.63, "note_held": 0.1497395833333428, "velocity": 80, "channel": 1}, {"time_played": 81.56250000000031, "midi_note": 57, "frequency": 220, "note_held": 0.1497395833333428, "velocity": 80, "channel": 1}, {"time_played": 81.56250000000031, "midi_note": 52, "frequency": 164.81, "note_held": 0.1497395833333428, "velocity": 80, "channel": 1}, {"time_played": 81.56250000000031, "midi_note": 45, "frequency": 110, "note_held": 0.006510416666666667, "velocity": 80, "channel": 1}, {"time_played": 81.87500000000033, "midi_note": 69, "frequency": 440, "note_held": 0.3059895833333428, "velocity": 100, "channel": 1}, {"time_played": 81.87500000000033, "midi_note": 64, "frequency": 329.63, "note_held": 0.3059895833333428, "velocity": 100, "channel": 1}, {"time_played": 81.87500000000033, "midi_note": 60, "frequency": 261.63, "note_held": 0.3059895833333428, "velocity": 100, "channel": 1}, {"time_played": 81.87500000000033, "midi_note": 57, "frequency": 220, "note_held": 0.3059895833333428, "velocity": 100, "channel": 1}, {"time_played": 81.87500000000033, "midi_note": 52, "frequency": 164.81, "note_held": 0.3059895833333428, "velocity": 100, "channel": 1}, {"time_played": 81.87500000000033, "midi_note": 45, "frequency": 110, "note_held": 0.006510416666666667, "velocity": 100, "channel": 1}, {"time_played": 82.18750000000034, "midi_note": 60, "frequency": 261.63, "note_held": 0.1497395833333286, "velocity": 70, "channel": 1}, {"time_played": 82.18750000000034, "midi_note": 64, "frequency": 329.63, "note_held": 0.1497395833333286, "velocity": 70, "channel": 1}, {"time_played": 82.18750000000034, "midi_note": 69, "frequency": 440, "note_held": 0.006510416666666667, "velocity": 70, "channel": 1}, {"time_played": 82.34375000000034, "midi_note": 57, "frequency": 220, "note_held": 0.1497395833333286, "velocity": 70, "channel": 1}, {"time_played": 82.34375000000034, "midi_note": 60, "frequency": 261.63, "note_held": 0.1497395833333286, "velocity": 70, "channel": 1}, {"time_played": 82.34375000000034, "midi_note": 64, "frequency": 329.63, "note_held": 0.1497395833333286, "velocity": 70, "channel": 1}, {"time_played": 82.34375000000034, "midi_note": 69, "frequency": 440, "note_held": 0.006510416666666667, "velocity": 70, "channel": 1}, {"time_played": 82.50000000000034, "midi_note": 65, "frequency": 349.23, "note_held": 0.3059895833333428, "velocity": 100, "channel": 1}, {"time_played": 82.50000000000034, "midi_note": 60, "frequency": 261.63, "note_held": 0.3059895833333428, "velocity": 100, "channel": 1}, {"time_played": 82.50000000000034, "midi_note": 57, "frequency": 220, "note_held": 0.3059895833333428, "velocity": 100, "channel": 1}, {"time_played": 82.50000000000034, "midi_note": 53, "frequency": 174.61, "note_held": 0.3059895833333428, "velocity": 100, "channel": 1}, {"time_played": 82.50000000000034, "midi_note": 48, "frequency": 130.81, "note_held": 0.3059895833333428, "velocity": 100, "channel": 1}, {"time_played": 82.50000000000034, "midi_note": 41, "frequency": 87.31, "note_held": 0.006510416666666667, "velocity": 100, "channel": 1}, {"time_played": 82.81250000000036, "midi_note": 53, "frequency": 174.61, "note_held": 0.1497395833333428, "velocity": 70, "channel": 1}, {"time_played": 82.81250000000036, "midi_note": 57, "frequency": 220, "note_held": 0.1497395833333428, "velocity": 70, "channel": 1}, {"time_played": 82.81250000000036, "midi_note": 60, "frequency": 261.63, "note_held": 0.1497395833333428, "velocity": 70, "channel": 1}, {"time_played": 82.81250000000036, "midi_note": 65, "frequency": 349.23, "note_held": 0.006510416666666667, "velocity": 70, "channel": 1}, {"time_played": 82.96875000000037, "midi_note": 65, "frequency": 349.23, "note_held": 0.3059895833333286, "velocity": 94, "channel": 1}, {"time_played": 82.96875000000037, "midi_note": 60, "frequency": 261.63, "note_held": 0.3059895833333286, "velocity": 80, "channel": 1}, {"time_played": 82.96875000000037, "midi_note": 57, "frequency": 220, "note_held": 0.3059895833333286, "velocity": 80, "channel": 1}, {"time_played": 82.96875000000037, "midi_note": 53, "frequency": 174.61, "note_held": 0.3059895833333286, "velocity": 80, "channel": 1}, {"time_played": 82.96875000000037, "midi_note": 48, "frequency": 130.81, "note_held": 0.006510416666666667, "velocity": 80, "channel": 1}, {"time_played": 83.12500000000037, "midi_note": 65, "frequency": 349.23, "note_held": 0.1497395833333286, "velocity": 86, "channel": 1}, {"time_played": 83.12500000000037, "midi_note": 60, "frequency": 261.63, "note_held": 0.1497395833333286, "velocity": 80, "channel": 1}, {"time_played": 83.12500000000037, "midi_note": 57, "frequency": 220, "note_held": 0.1497395833333286, "velocity": 80, "channel": 1}, {"time_played": 83.12500000000037, "midi_note": 53, "frequency": 174.61, "note_held": 0.1497395833333286, "velocity": 80, "channel": 1}, {"time_played": 83.12500000000037, "midi_note": 48, "frequency": 130.81, "note_held": 0.1497395833333286, "velocity": 80, "channel": 1}, {"time_played": 83.12500000000037, "midi_note": 41, "frequency": 87.31, "note_held": 0.09114583333333334, "velocity": 84, "channel": 1}, {"time_played": 83.43750000000037, "midi_note": 65, "frequency": 349.23, "note_held": 0.3059895833333286, "velocity": 100, "channel": 1}, {"time_played": 83.43750000000037, "midi_note": 60, "frequency": 261.63, "note_held": 0.3059895833333286, "velocity": 100, "channel": 1}, {"time_played": 83.43750000000037, "midi_note": 57, "frequency": 220, "note_held": 0.3059895833333286, "velocity": 100, "channel": 1}, {"time_played": 83.43750000000037, "midi_note": 53, "frequency": 174.61, "note_held": 0.3059895833333286, "velocity": 100, "channel": 1}, {"time_played": 83.43750000000037, "midi_note": 48, "frequency": 130.81, "note_held": 0.3059895833333286, "velocity": 100, "channel": 1}, {"time_played": 83.43750000000037, "midi_note": 41, "frequency": 87.31, "note_held": 0.006510416666666667, "velocity": 100, "channel": 1}, {"time_played": 83.75000000000037, "midi_note": 53, "frequency": 174.61, "note_held": 0.1497395833333286, "velocity": 70, "channel": 1}, {"time_played": 83.75000000000037, "midi_note": 57, "frequency": 220, "note_held": 0.1497395833333286, "velocity": 70, "channel": 1}, {"time_played": 83.75000000000037, "midi_note": 60, "frequency": 261.63, "note_held": 0.1497395833333286, "velocity": 70, "channel": 1}, {"time_played": 83.75000000000037, "midi_note": 65, "frequency": 349.23, "note_held": 0.006510416666666667, "velocity": 70, "channel": 1}, {"time_played": 83.90625000000037, "midi_note": 65, "frequency": 349.23, "note_held": 0.3059895833333428, "velocity": 97, "channel": 1}, {"time_played": 83.90625000000037, "midi_note": 60, "frequency": 261.63, "note_held": 0.3059895833333428, "velocity": 80, "channel": 1}, {"time_played": 83.90625000000037, "midi_note": 57, "frequency": 220, "note_held": 0.3059895833333428, "velocity": 80, "channel": 1}, {"time_played": 83.90625000000037, "midi_note": 53, "frequency": 174.61, "note_held": 0.3059895833333428, "velocity": 80, "channel": 1}, {"time_played": 83.90625000000037, "midi_note": 48, "frequency": 130.81, "note_held": 0.006510416666666667, "velocity": 80, "channel": 1}, {"time_played": 84.06250000000038, "midi_note": 65, "frequency": 349.23, "note_held": 0.1497395833333286, "velocity": 80, "channel": 1}, {"time_played": 84.06250000000038, "midi_note": 60, "frequency": 261.63, "note_held": 0.1497395833333286, "velocity": 80, "channel": 1}, {"time_played": 84.06250000000038, "midi_note": 57, "frequency": 220, "note_held": 0.1497395833333286, "velocity": 80, "channel": 1}, {"time_played": 84.06250000000038, "midi_note": 53, "frequency": 174.61, "note_held": 0.1497395833333286, "velocity": 80, "channel": 1}, {"time_played": 84.06250000000038, "midi_note": 48, "frequency": 130.81, "note_held": 0.1497395833333286, "velocity": 80, "channel": 1}, {"time_played": 84.06250000000038, "midi_note": 41, "frequency": 87.31, "note_held": 0.006510416666666667, "velocity": 80, "channel": 1}, {"time_played": 84.37500000000038, "midi_note": 65, "frequency": 349.23, "note_held": 0.3059895833333428, "velocity": 100, "channel": 1}, {"time_played": 84.37500000000038, "midi_note": 60, "frequency": 261.63, "note_held": 0.3059895833333428, "velocity": 100, "channel": 1}, {"time_played": 84.37500000000038, "midi_note": 57, "frequency": 220, "note_held": 0.3059895833333428, "velocity": 100, "channel": 1}, {"time_played": 84.37500000000038, "midi_note": 53, "frequency": 174.61, "note_held": 0.3059895833333428, "velocity": 100, "channel": 1}, {"time_played": 84.37500000000038, "midi_note": 48, "frequency": 130.81, "note_held": 0.3059895833333428, "velocity": 100, "channel": 1}, {"time_played": 84.37500000000038, "midi_note": 41, "frequency": 87.31, "note_held": 0.006510416666666667, "velocity": 100, "channel": 1}, {"time_played": 84.5312500000004, "midi_note": 65, "frequency": 349.23, "note_held": 0.1497395833333286, "velocity": 64, "channel": 1}, {"time_played": 84.5312500000004, "midi_note": 60, "frequency": 261.63, "note_held": 0.1497395833333286, "velocity": 64, "channel": 1}, {"time_played": 84.5312500000004, "midi_note": 57, "frequency": 220, "note_held": 0.1497395833333286, "velocity": 64, "channel": 1}, {"time_played": 84.5312500000004, "midi_note": 53, "frequency": 174.61, "note_held": 0.006510416666666667, "velocity": 64, "channel": 1}, {"time_played": 84.6875000000004, "midi_note": 57, "frequency": 220, "note_held": 0.1497395833333428, "velocity": 56, "channel": 1}, {"time_played": 84.6875000000004, "midi_note": 60, "frequency": 261.63, "note_held": 0.1497395833333428, "velocity": 56, "channel": 1}, {"time_played": 84.6875000000004, "midi_note": 65, "frequency": 349.23, "note_held": 0.006510416666666667, "velocity": 56, "channel": 1}, {"time_played": 84.84375000000041, "midi_note": 53, "frequency": 174.61, "note_held": 0.1497395833333286, "velocity": 70, "channel": 1}, {"time_played": 84.84375000000041, "midi_note": 57, "frequency": 220, "note_held": 0.1497395833333286, "velocity": 70, "channel": 1}, {"time_played": 84.84375000000041, "midi_note": 60, "frequency": 261.63, "note_held": 0.1497395833333286, "velocity": 70, "channel": 1}, {"time_played": 84.84375000000041, "midi_note": 65, "frequency": 349.23, "note_held": 0.006510416666666667, "velocity": 70, "channel": 1}, {"time_played": 85.00000000000041, "midi_note": 69, "frequency": 440, "note_held": 0.3059895833333428, "velocity": 100, "channel": 1}, {"time_played": 85.00000000000041, "midi_note": 64, "frequency": 329.63, "note_held": 0.3059895833333428, "velocity": 100, "channel": 1}, {"time_played": 85.00000000000041, "midi_note": 60, "frequency": 261.63, "note_held": 0.3059895833333428, "velocity": 100, "channel": 1}, {"time_played": 85.00000000000041, "midi_note": 57, "frequency": 220, "note_held": 0.3059895833333428, "velocity": 100, "channel": 1}, {"time_played": 85.00000000000041, "midi_note": 52, "frequency": 164.81, "note_held": 0.3059895833333428, "velocity": 100, "channel": 1}, {"time_played": 85.00000000000041, "midi_note": 45, "frequency": 110, "note_held": 0.006510416666666667, "velocity": 100, "channel": 1}, {"time_played": 85.31250000000043, "midi_note": 57, "frequency": 220, "note_held": 0.1497395833333428, "velocity": 70, "channel": 1}, {"time_played": 85.31250000000043, "midi_note": 60, "frequency": 261.63, "note_held": 0.1497395833333428, "velocity": 70, "channel": 1}, {"time_played": 85.31250000000043, "midi_note": 64, "frequency": 329.63, "note_held": 0.1497395833333428, "velocity": 70, "channel": 1}, {"time_played": 85.31250000000043, "midi_note": 69, "frequency": 440, "note_held": 0.006510416666666667, "velocity": 70, "channel": 1}, {"time_played": 85.46875000000044, "midi_note": 69, "frequency": 440, "note_held": 0.3059895833333286, "velocity": 80, "channel": 1}, {"time_played": 85.46875000000044, "midi_note": 64, "frequency": 329.63, "note_held": 0.3059895833333286, "velocity": 80, "channel": 1}, {"time_played": 85.46875000000044, "midi_note": 60, "frequency": 261.63, "note_held": 0.3059895833333286, "velocity": 80, "channel": 1}, {"time_played": 85.46875000000044, "midi_note": 57, "frequency": 220, "note_held": 0.3059895833333286, "velocity": 80, "channel": 1}, {"time_played": 85.46875000000044, "midi_note": 52, "frequency": 164.81, "note_held": 0.006510416666666667, "velocity": 80, "channel": 1}, {"time_played": 85.62500000000044, "midi_note": 69, "frequency": 440, "note_held": 0.1497395833333286, "velocity": 80, "channel": 1}, {"time_played": 85.62500000000044, "midi_note": 64, "frequency": 329.63, "note_held": 0.1497395833333286, "velocity": 80, "channel": 1}, {"time_played": 85.62500000000044, "midi_note": 60, "frequency": 261.63, "note_held": 0.1497395833333286, "velocity": 80, "channel": 1}, {"time_played": 85.62500000000044, "midi_note": 57, "frequency": 220, "note_held": 0.1497395833333286, "velocity": 80, "channel": 1}, {"time_played": 85.62500000000044, "midi_note": 52, "frequency": 164.81, "note_held": 0.1497395833333286, "velocity": 80, "channel": 1}, {"time_played": 85.62500000000044, "midi_note": 45, "frequency": 110, "note_held": 0.078125, "velocity": 80, "channel": 1}, {"time_played": 85.93750000000045, "midi_note": 69, "frequency": 440, "note_held": 0.3059895833333286, "velocity": 100, "channel": 1}, {"time_played": 85.93750000000045, "midi_note": 64, "frequency": 329.63, "note_held": 0.3059895833333286, "velocity": 100, "channel": 1}, {"time_played": 85.93750000000045, "midi_note": 60, "frequency": 261.63, "note_held": 0.3059895833333286, "velocity": 100, "channel": 1}, {"time_played": 85.93750000000045, "midi_note": 57, "frequency": 220, "note_held": 0.3059895833333286, "velocity": 100, "channel": 1}, {"time_played": 85.93750000000045, "midi_note": 52, "frequency": 164.81, "note_held": 0.3059895833333286, "velocity": 100, "channel": 1}, {"time_played": 85.93750000000045, "midi_note": 45, "frequency": 110, "note_held": 0.006510416666666667, "velocity": 100, "channel": 1}, {"time_played": 86.25000000000045, "midi_note": 57, "frequency": 220, "note_held": 0.1497395833333286, "velocity": 70, "channel": 1}, {"time_played": 86.25000000000045, "midi_note": 60, "frequency": 261.63, "note_held": 0.1497395833333286, "velocity": 70, "channel": 1}, {"time_played": 86.25000000000045, "midi_note": 64, "frequency": 329.63, "note_held": 0.1497395833333286, "velocity": 70, "channel": 1}, {"time_played": 86.25000000000045, "midi_note": 69, "frequency": 440, "note_held": 0.006510416666666667, "velocity": 70, "channel": 1}, {"time_played": 86.40625000000045, "midi_note": 69, "frequency": 440, "note_held": 0.305989583333357, "velocity": 80, "channel": 1}, {"time_played": 86.40625000000045, "midi_note": 64, "frequency": 329.63, "note_held": 0.305989583333357, "velocity": 80, "channel": 1}, {"time_played": 86.40625000000045, "midi_note": 60, "frequency": 261.63, "note_held": 0.305989583333357, "velocity": 80, "channel": 1}, {"time_played": 86.40625000000045, "midi_note": 57, "frequency": 220, "note_held": 0.305989583333357, "velocity": 80, "channel": 1}, {"time_played": 86.40625000000045, "midi_note": 52, "frequency": 164.81, "note_held": 0.006510416666666667, "velocity": 80, "channel": 1}, {"time_played": 86.56250000000047, "midi_note": 69, "frequency": 440, "note_held": 0.1497395833333428, "velocity": 80, "channel": 1}, {"time_played": 86.56250000000047, "midi_note": 64, "frequency": 329.63, "note_held": 0.1497395833333428, "velocity": 80, "channel": 1}, {"time_played": 86.56250000000047, "midi_note": 60, "frequency": 261.63, "note_held": 0.1497395833333428, "velocity": 80, "channel": 1}, {"time_played": 86.56250000000047, "midi_note": 57, "frequency": 220, "note_held": 0.1497395833333428, "velocity": 80, "channel": 1}, {"time_played": 86.56250000000047, "midi_note": 52, "frequency": 164.81, "note_held": 0.1497395833333428, "velocity": 80, "channel": 1}, {"time_played": 86.56250000000047, "midi_note": 45, "frequency": 110, "note_held": 0.006510416666666667, "velocity": 80, "channel": 1}, {"time_played": 86.87500000000048, "midi_note": 69, "frequency": 440, "note_held": 0.3059895833333428, "velocity": 100, "channel": 1}, {"time_played": 86.87500000000048, "midi_note": 64, "frequency": 329.63, "note_held": 0.3059895833333428, "velocity": 100, "channel": 1}, {"time_played": 86.87500000000048, "midi_note": 60, "frequency": 261.63, "note_held": 0.3059895833333428, "velocity": 100, "channel": 1}, {"time_played": 86.87500000000048, "midi_note": 57, "frequency": 220, "note_held": 0.3059895833333428, "velocity": 100, "channel": 1}, {"time_played": 86.87500000000048, "midi_note": 52, "frequency": 164.81, "note_held": 0.3059895833333428, "velocity": 100, "channel": 1}, {"time_played": 86.87500000000048, "midi_note": 45, "frequency": 110, "note_held": 0.006510416666666667, "velocity": 100, "channel": 1}, {"time_played": 87.1875000000005, "midi_note": 60, "frequency": 261.63, "note_held": 0.1497395833333286, "velocity": 70, "channel": 1}, {"time_played": 87.1875000000005, "midi_note": 64, "frequency": 329.63, "note_held": 0.1497395833333286, "velocity": 70, "channel": 1}, {"time_played": 87.1875000000005, "midi_note": 69, "frequency": 440, "note_held": 0.006510416666666667, "velocity": 70, "channel": 1}, {"time_played": 87.3437500000005, "midi_note": 57, "frequency": 220, "note_held": 0.1497395833333286, "velocity": 70, "channel": 1}, {"time_played": 87.3437500000005, "midi_note": 60, "frequency": 261.63, "note_held": 0.1497395833333286, "velocity": 70, "channel": 1}, {"time_played": 87.3437500000005, "midi_note": 64, "frequency": 329.63, "note_held": 0.1497395833333286, "velocity": 70, "channel": 1}, {"time_played": 87.3437500000005, "midi_note": 69, "frequency": 440, "note_held": 0.006510416666666667, "velocity": 70, "channel": 1}, {"time_played": 87.5000000000005, "midi_note": 65, "frequency": 349.23, "note_held": 0.3059895833333286, "velocity": 100, "channel": 1}, {"time_played": 87.5000000000005, "midi_note": 60, "frequency": 261.63, "note_held": 0.3059895833333286, "velocity": 100, "channel": 1}, {"time_played": 87.5000000000005, "midi_note": 57, "frequency": 220, "note_held": 0.3059895833333286, "velocity": 100, "channel": 1}, {"time_played": 87.5000000000005, "midi_note": 53, "frequency": 174.61, "note_held": 0.3059895833333286, "velocity": 100, "channel": 1}, {"time_played": 87.5000000000005, "midi_note": 48, "frequency": 130.81, "note_held": 0.3059895833333286, "velocity": 100, "channel": 1}, {"time_played": 87.5000000000005, "midi_note": 41, "frequency": 87.31, "note_held": 0.006510416666666667, "velocity": 100, "channel": 1}, {"time_played": 87.8125000000005, "midi_note": 53, "frequency": 174.61, "note_held": 0.1497395833333428, "velocity": 70, "channel": 1}, {"time_played": 87.8125000000005, "midi_note": 57, "frequency": 220, "note_held": 0.1497395833333428, "velocity": 70, "channel": 1}, {"time_played": 87.8125000000005, "midi_note": 60, "frequency": 261.63, "note_held": 0.1497395833333428, "velocity": 70, "channel": 1}, {"time_played": 87.8125000000005, "midi_note": 65, "frequency": 349.23, "note_held": 0.006510416666666667, "velocity": 70, "channel": 1}, {"time_played": 87.96875000000051, "midi_note": 65, "frequency": 349.23, "note_held": 0.3059895833333428, "velocity": 80, "channel": 1}, {"time_played": 87.96875000000051, "midi_note": 60, "frequency": 261.63, "note_held": 0.3059895833333428, "velocity": 80, "channel": 1}, {"time_played": 87.96875000000051, "midi_note": 57, "frequency": 220, "note_held": 0.3059895833333428, "velocity": 80, "channel": 1}, {"time_played": 87.96875000000051, "midi_note": 53, "frequency": 174.61, "note_held": 0.3059895833333428, "velocity": 80, "channel": 1}, {"time_played": 87.96875000000051, "midi_note": 48, "frequency": 130.81, "note_held": 0.006510416666666667, "velocity": 80, "channel": 1}, {"time_played": 88.12500000000051, "midi_note": 65, "frequency": 349.23, "note_held": 0.1497395833333428, "velocity": 80, "channel": 1}, {"time_played": 88.12500000000051, "midi_note": 60, "frequency": 261.63, "note_held": 0.1497395833333428, "velocity": 80, "channel": 1}, {"time_played": 88.12500000000051, "midi_note": 57, "frequency": 220, "note_held": 0.1497395833333428, "velocity": 80, "channel": 1}, {"time_played": 88.12500000000051, "midi_note": 53, "frequency": 174.61, "note_held": 0.1497395833333428, "velocity": 80, "channel": 1}, {"time_played": 88.12500000000051, "midi_note": 48, "frequency": 130.81, "note_held": 0.1497395833333428, "velocity": 80, "channel": 1}, {"time_played": 88.12500000000051, "midi_note": 41, "frequency": 87.31, "note_held": 0.09114583333333334, "velocity": 80, "channel": 1}, {"time_played": 88.43750000000053, "midi_note": 65, "frequency": 349.23, "note_held": 0.3059895833333428, "velocity": 100, "channel": 1}, {"time_played": 88.43750000000053, "midi_note": 60, "frequency": 261.63, "note_held": 0.3059895833333428, "velocity": 100, "channel": 1}, {"time_played": 88.43750000000053, "midi_note": 57, "frequency": 220, "note_held": 0.3059895833333428, "velocity": 100, "channel": 1}, {"time_played": 88.43750000000053, "midi_note": 53, "frequency": 174.61, "note_held": 0.3059895833333428, "velocity": 100, "channel": 1}, {"time_played": 88.43750000000053, "midi_note": 48, "frequency": 130.81, "note_held": 0.3059895833333428, "velocity": 100, "channel": 1}, {"time_played": 88.43750000000053, "midi_note": 41, "frequency": 87.31, "note_held": 0.006510416666666667, "velocity": 100, "channel": 1}, {"time_played": 88.75000000000054, "midi_note": 53, "frequency": 174.61, "note_held": 0.1497395833333428, "velocity": 70, "channel": 1}, {"time_played": 88.75000000000054, "midi_note": 57, "frequency": 220, "note_held": 0.1497395833333428, "velocity": 70, "channel": 1}, {"time_played": 88.75000000000054, "midi_note": 60, "frequency": 261.63, "note_held": 0.1497395833333428, "velocity": 70, "channel": 1}, {"time_played": 88.75000000000054, "midi_note": 65, "frequency": 349.23, "note_held": 0.006510416666666667, "velocity": 70, "channel": 1}, {"time_played": 88.90625000000055, "midi_note": 65, "frequency": 349.23, "note_held": 0.305989583333357, "velocity": 80, "channel": 1}, {"time_played": 88.90625000000055, "midi_note": 60, "frequency": 261.63, "note_held": 0.305989583333357, "velocity": 80, "channel": 1}, {"time_played": 88.90625000000055, "midi_note": 57, "frequency": 220, "note_held": 0.305989583333357, "velocity": 80, "channel": 1}, {"time_played": 88.90625000000055, "midi_note": 53, "frequency": 174.61, "note_held": 0.305989583333357, "velocity": 80, "channel": 1}, {"time_played": 88.90625000000055, "midi_note": 48, "frequency": 130.81, "note_held": 0.006510416666666667, "velocity": 80, "channel": 1}, {"time_played": 89.06250000000057, "midi_note": 65, "frequency": 349.23, "note_held": 0.1497395833333428, "velocity": 80, "channel": 1}, {"time_played": 89.06250000000057, "midi_note": 60, "frequency": 261.63, "note_held": 0.1497395833333428, "velocity": 80, "channel": 1}, {"time_played": 89.06250000000057, "midi_note": 57, "frequency": 220, "note_held": 0.1497395833333428, "velocity": 80, "channel": 1}, {"time_played": 89.06250000000057, "midi_note": 53, "frequency": 174.61, "note_held": 0.1497395833333428, "velocity": 80, "channel": 1}, {"time_played": 89.06250000000057, "midi_note": 48, "frequency": 130.81, "note_held": 0.1497395833333428, "velocity": 80, "channel": 1}, {"time_played": 89.06250000000057, "midi_note": 41, "frequency": 87.31, "note_held": 0.006510416666666667, "velocity": 80, "channel": 1}, {"time_played": 89.37500000000058, "midi_note": 65, "frequency": 349.23, "note_held": 0.3059895833333286, "velocity": 100, "channel": 1}, {"time_played": 89.37500000000058, "midi_note": 60, "frequency": 261.63, "note_held": 0.3059895833333286, "velocity": 100, "channel": 1}, {"time_played": 89.37500000000058, "midi_note": 57, "frequency": 220, "note_held": 0.3059895833333286, "velocity": 100, "channel": 1}, {"time_played": 89.37500000000058, "midi_note": 53, "frequency": 174.61, "note_held": 0.3059895833333286, "velocity": 100, "channel": 1}, {"time_played": 89.37500000000058, "midi_note": 48, "frequency": 130.81, "note_held": 0.3059895833333286, "velocity": 100, "channel": 1}, {"time_played": 89.37500000000058, "midi_note": 41, "frequency": 87.31, "note_held": 0.006510416666666667, "velocity": 100, "channel": 1}, {"time_played": 89.53125000000058, "midi_note": 65, "frequency": 349.23, "note_held": 0.1497395833333286, "velocity": 64, "channel": 1}, {"time_played": 89.53125000000058, "midi_note": 60, "frequency": 261.63, "note_held": 0.1497395833333286, "velocity": 64, "channel": 1}, {"time_played": 89.53125000000058, "midi_note": 57, "frequency": 220, "note_held": 0.1497395833333286, "velocity": 64, "channel": 1}, {"time_played": 89.53125000000058, "midi_note": 53, "frequency": 174.61, "note_held": 0.006510416666666667, "velocity": 64, "channel": 1}, {"time_played": 89.68750000000058, "midi_note": 57, "frequency": 220, "note_held": 0.1497395833333286, "velocity": 56, "channel": 1}, {"time_played": 89.68750000000058, "midi_note": 60, "frequency": 261.63, "note_held": 0.1497395833333286, "velocity": 56, "channel": 1}, {"time_played": 89.68750000000058, "midi_note": 65, "frequency": 349.23, "note_held": 0.006510416666666667, "velocity": 56, "channel": 1}, {"time_played": 89.84375000000058, "midi_note": 53, "frequency": 174.61, "note_held": 0.1497395833333286, "velocity": 70, "channel": 1}, {"time_played": 89.84375000000058, "midi_note": 57, "frequency": 220, "note_held": 0.1497395833333286, "velocity": 70, "channel": 1}, {"time_played": 89.84375000000058, "midi_note": 60, "frequency": 261.63, "note_held": 0.1497395833333286, "velocity": 70, "channel": 1}, {"time_played": 89.84375000000058, "midi_note": 65, "frequency": 349.23, "note_held": 0.006510416666666667, "velocity": 70, "channel": 1}, {"time_played": 90.00000000000058, "midi_note": 69, "frequency": 440, "note_held": 0.3059895833333428, "velocity": 100, "channel": 1}, {"time_played": 90.00000000000058, "midi_note": 64, "frequency": 329.63, "note_held": 0.3059895833333428, "velocity": 100, "channel": 1}, {"time_played": 90.00000000000058, "midi_note": 60, "frequency": 261.63, "note_held": 0.3059895833333428, "velocity": 100, "channel": 1}, {"time_played": 90.00000000000058, "midi_note": 57, "frequency": 220, "note_held": 0.3059895833333428, "velocity": 100, "channel": 1}, {"time_played": 90.00000000000058, "midi_note": 52, "frequency": 164.81, "note_held": 0.3059895833333428, "velocity": 100, "channel": 1}, {"time_played": 90.00000000000058, "midi_note": 45, "frequency": 110, "note_held": 0.006510416666666667, "velocity": 100, "channel": 1}, {"time_played": 90.3125000000006, "midi_note": 57, "frequency": 220, "note_held": 0.1497395833333428, "velocity": 70, "channel": 1}, {"time_played": 90.3125000000006, "midi_note": 60, "frequency": 261.63, "note_held": 0.1497395833333428, "velocity": 70, "channel": 1}, {"time_played": 90.3125000000006, "midi_note": 64, "frequency": 329.63, "note_held": 0.1497395833333428, "velocity": 70, "channel": 1}, {"time_played": 90.3125000000006, "midi_note": 69, "frequency": 440, "note_held": 0.006510416666666667, "velocity": 70, "channel": 1}, {"time_played": 90.46875000000061, "midi_note": 69, "frequency": 440, "note_held": 0.3059895833333286, "velocity": 80, "channel": 1}, {"time_played": 90.46875000000061, "midi_note": 64, "frequency": 329.63, "note_held": 0.3059895833333286, "velocity": 80, "channel": 1}, {"time_played": 90.46875000000061, "midi_note": 60, "frequency": 261.63, "note_held": 0.3059895833333286, "velocity": 80, "channel": 1}, {"time_played": 90.46875000000061, "midi_note": 57, "frequency": 220, "note_held": 0.3059895833333286, "velocity": 80, "channel": 1}, {"time_played": 90.46875000000061, "midi_note": 52, "frequency": 164.81, "note_held": 0.006510416666666667, "velocity": 80, "channel": 1}, {"time_played": 90.62500000000061, "midi_note": 69, "frequency": 440, "note_held": 0.1497395833333286, "velocity": 80, "channel": 1}, {"time_played": 90.62500000000061, "midi_note": 64, "frequency": 329.63, "note_held": 0.1497395833333286, "velocity": 80, "channel": 1}, {"time_played": 90.62500000000061, "midi_note": 60, "frequency": 261.63, "note_held": 0.1497395833333286, "velocity": 80, "channel": 1}, {"time_played": 90.62500000000061, "midi_note": 57, "frequency": 220, "note_held": 0.1497395833333286, "velocity": 80, "channel": 1}, {"time_played": 90.62500000000061, "midi_note": 52, "frequency": 164.81, "note_held": 0.1497395833333286, "velocity": 80, "channel": 1}, {"time_played": 90.62500000000061, "midi_note": 45, "frequency": 110, "note_held": 0.026041666666666668, "velocity": 80, "channel": 1}, {"time_played": 90.93750000000061, "midi_note": 69, "frequency": 440, "note_held": 0.3059895833333286, "velocity": 100, "channel": 1}, {"time_played": 90.93750000000061, "midi_note": 64, "frequency": 329.63, "note_held": 0.3059895833333286, "velocity": 100, "channel": 1}, {"time_played": 90.93750000000061, "midi_note": 60, "frequency": 261.63, "note_held": 0.3059895833333286, "velocity": 100, "channel": 1}, {"time_played": 90.93750000000061, "midi_note": 57, "frequency": 220, "note_held": 0.3059895833333286, "velocity": 100, "channel": 1}, {"time_played": 90.93750000000061, "midi_note": 52, "frequency": 164.81, "note_held": 0.3059895833333286, "velocity": 100, "channel": 1}, {"time_played": 90.93750000000061, "midi_note": 45, "frequency": 110, "note_held": 0.006510416666666667, "velocity": 100, "channel": 1}, {"time_played": 91.25000000000061, "midi_note": 57, "frequency": 220, "note_held": 0.1497395833333286, "velocity": 70, "channel": 1}, {"time_played": 91.25000000000061, "midi_note": 60, "frequency": 261.63, "note_held": 0.1497395833333286, "velocity": 70, "channel": 1}, {"time_played": 91.25000000000061, "midi_note": 64, "frequency": 329.63, "note_held": 0.1497395833333286, "velocity": 70, "channel": 1}, {"time_played": 91.25000000000061, "midi_note": 69, "frequency": 440, "note_held": 0.006510416666666667, "velocity": 70, "channel": 1}, {"time_played": 91.40625000000061, "midi_note": 69, "frequency": 440, "note_held": 0.305989583333357, "velocity": 104, "channel": 1}, {"time_played": 91.40625000000061, "midi_note": 64, "frequency": 329.63, "note_held": 0.305989583333357, "velocity": 80, "channel": 1}, {"time_played": 91.40625000000061, "midi_note": 60, "frequency": 261.63, "note_held": 0.305989583333357, "velocity": 80, "channel": 1}, {"time_played": 91.40625000000061, "midi_note": 57, "frequency": 220, "note_held": 0.305989583333357, "velocity": 80, "channel": 1}, {"time_played": 91.40625000000061, "midi_note": 52, "frequency": 164.81, "note_held": 0.006510416666666667, "velocity": 80, "channel": 1}, {"time_played": 91.56250000000063, "midi_note": 69, "frequency": 440, "note_held": 0.1497395833333428, "velocity": 80, "channel": 1}, {"time_played": 91.56250000000063, "midi_note": 64, "frequency": 329.63, "note_held": 0.1497395833333428, "velocity": 80, "channel": 1}, {"time_played": 91.56250000000063, "midi_note": 60, "frequency": 261.63, "note_held": 0.1497395833333428, "velocity": 80, "channel": 1}, {"time_played": 91.56250000000063, "midi_note": 57, "frequency": 220, "note_held": 0.1497395833333428, "velocity": 80, "channel": 1}, {"time_played": 91.56250000000063, "midi_note": 52, "frequency": 164.81, "note_held": 0.1497395833333428, "velocity": 80, "channel": 1}, {"time_played": 91.56250000000063, "midi_note": 45, "frequency": 110, "note_held": 0.006510416666666667, "velocity": 80, "channel": 1}, {"time_played": 91.87500000000064, "midi_note": 69, "frequency": 440, "note_held": 0.3059895833333428, "velocity": 100, "channel": 1}, {"time_played": 91.87500000000064, "midi_note": 64, "frequency": 329.63, "note_held": 0.3059895833333428, "velocity": 100, "channel": 1}, {"time_played": 91.87500000000064, "midi_note": 60, "frequency": 261.63, "note_held": 0.3059895833333428, "velocity": 100, "channel": 1}, {"time_played": 91.87500000000064, "midi_note": 57, "frequency": 220, "note_held": 0.3059895833333428, "velocity": 100, "channel": 1}, {"time_played": 91.87500000000064, "midi_note": 52, "frequency": 164.81, "note_held": 0.3059895833333428, "velocity": 100, "channel": 1}, {"time_played": 91.87500000000064, "midi_note": 45, "frequency": 110, "note_held": 0.006510416666666667, "velocity": 100, "channel": 1}, {"time_played": 92.18750000000065, "midi_note": 60, "frequency": 261.63, "note_held": 0.1497395833333286, "velocity": 70, "channel": 1}, {"time_played": 92.18750000000065, "midi_note": 64, "frequency": 329.63, "note_held": 0.1497395833333286, "velocity": 70, "channel": 1}, {"time_played": 92.18750000000065, "midi_note": 69, "frequency": 440, "note_held": 0.006510416666666667, "velocity": 70, "channel": 1}, {"time_played": 92.34375000000065, "midi_note": 57, "frequency": 220, "note_held": 0.1497395833333286, "velocity": 70, "channel": 1}, {"time_played": 92.34375000000065, "midi_note": 60, "frequency": 261.63, "note_held": 0.1497395833333286, "velocity": 70, "channel": 1}, {"time_played": 92.34375000000065, "midi_note": 64, "frequency": 329.63, "note_held": 0.1497395833333286, "velocity": 70, "channel": 1}, {"time_played": 92.34375000000065, "midi_note": 69, "frequency": 440, "note_held": 0.006510416666666667, "velocity": 70, "channel": 1}, {"time_played": 92.50000000000065, "midi_note": 65, "frequency": 349.23, "note_held": 0.3059895833333428, "velocity": 100, "channel": 1}, {"time_played": 92.50000000000065, "midi_note": 60, "frequency": 261.63, "note_held": 0.3059895833333428, "velocity": 100, "channel": 1}, {"time_played": 92.50000000000065, "midi_note": 57, "frequency": 220, "note_held": 0.3059895833333428, "velocity": 100, "channel": 1}, {"time_played": 92.50000000000065, "midi_note": 53, "frequency": 174.61, "note_held": 0.3059895833333428, "velocity": 100, "channel": 1}, {"time_played": 92.50000000000065, "midi_note": 48, "frequency": 130.81, "note_held": 0.3059895833333428, "velocity": 100, "channel": 1}, {"time_played": 92.50000000000065, "midi_note": 41, "frequency": 87.31, "note_held": 0.006510416666666667, "velocity": 100, "channel": 1}, {"time_played": 92.81250000000067, "midi_note": 53, "frequency": 174.61, "note_held": 0.1497395833333428, "velocity": 70, "channel": 1}, {"time_played": 92.81250000000067, "midi_note": 57, "frequency": 220, "note_held": 0.1497395833333428, "velocity": 70, "channel": 1}, {"time_played": 92.81250000000067, "midi_note": 60, "frequency": 261.63, "note_held": 0.1497395833333428, "velocity": 70, "channel": 1}, {"time_played": 92.81250000000067, "midi_note": 65, "frequency": 349.23, "note_held": 0.006510416666666667, "velocity": 70, "channel": 1}, {"time_played": 92.96875000000068, "midi_note": 65, "frequency": 349.23, "note_held": 0.3059895833333286, "velocity": 94, "channel": 1}, {"time_played": 92.96875000000068, "midi_note": 60, "frequency": 261.63, "note_held": 0.3059895833333286, "velocity": 80, "channel": 1}, {"time_played": 92.96875000000068, "midi_note": 57, "frequency": 220, "note_held": 0.3059895833333286, "velocity": 80, "channel": 1}, {"time_played": 92.96875000000068, "midi_note": 53, "frequency": 174.61, "note_held": 0.3059895833333286, "velocity": 80, "channel": 1}, {"time_played": 92.96875000000068, "midi_note": 48, "frequency": 130.81, "note_held": 0.006510416666666667, "velocity": 80, "channel": 1}, {"time_played": 93.12500000000068, "midi_note": 65, "frequency": 349.23, "note_held": 0.1497395833333286, "velocity": 86, "channel": 1}, {"time_played": 93.12500000000068, "midi_note": 60, "frequency": 261.63, "note_held": 0.1497395833333286, "velocity": 80, "channel": 1}, {"time_played": 93.12500000000068, "midi_note": 57, "frequency": 220, "note_held": 0.1497395833333286, "velocity": 80, "channel": 1}, {"time_played": 93.12500000000068, "midi_note": 53, "frequency": 174.61, "note_held": 0.1497395833333286, "velocity": 80, "channel": 1}, {"time_played": 93.12500000000068, "midi_note": 48, "frequency": 130.81, "note_held": 0.1497395833333286, "velocity": 80, "channel": 1}, {"time_played": 93.12500000000068, "midi_note": 41, "frequency": 87.31, "note_held": 0.09114583333333334, "velocity": 84, "channel": 1}, {"time_played": 93.43750000000068, "midi_note": 65, "frequency": 349.23, "note_held": 0.3059895833333286, "velocity": 100, "channel": 1}, {"time_played": 93.43750000000068, "midi_note": 60, "frequency": 261.63, "note_held": 0.3059895833333286, "velocity": 100, "channel": 1}, {"time_played": 93.43750000000068, "midi_note": 57, "frequency": 220, "note_held": 0.3059895833333286, "velocity": 100, "channel": 1}, {"time_played": 93.43750000000068, "midi_note": 53, "frequency": 174.61, "note_held": 0.3059895833333286, "velocity": 100, "channel": 1}, {"time_played": 93.43750000000068, "midi_note": 48, "frequency": 130.81, "note_held": 0.3059895833333286, "velocity": 100, "channel": 1}, {"time_played": 93.43750000000068, "midi_note": 41, "frequency": 87.31, "note_held": 0.006510416666666667, "velocity": 100, "channel": 1}, {"time_played": 93.75000000000068, "midi_note": 53, "frequency": 174.61, "note_held": 0.1497395833333428, "velocity": 70, "channel": 1}, {"time_played": 93.75000000000068, "midi_note": 57, "frequency": 220, "note_held": 0.1497395833333428, "velocity": 70, "channel": 1}, {"time_played": 93.75000000000068, "midi_note": 60, "frequency": 261.63, "note_held": 0.1497395833333428, "velocity": 70, "channel": 1}, {"time_played": 93.75000000000068, "midi_note": 65, "frequency": 349.23, "note_held": 0.006510416666666667, "velocity": 70, "channel": 1}, {"time_played": 93.9062500000007, "midi_note": 65, "frequency": 349.23, "note_held": 0.3059895833333286, "velocity": 97, "channel": 1}, {"time_played": 93.9062500000007, "midi_note": 60, "frequency": 261.63, "note_held": 0.3059895833333286, "velocity": 80, "channel": 1}, {"time_played": 93.9062500000007, "midi_note": 57, "frequency": 220, "note_held": 0.3059895833333286, "velocity": 80, "channel": 1}, {"time_played": 93.9062500000007, "midi_note": 53, "frequency": 174.61, "note_held": 0.3059895833333286, "velocity": 80, "channel": 1}, {"time_played": 93.9062500000007, "midi_note": 48, "frequency": 130.81, "note_held": 0.006510416666666667, "velocity": 80, "channel": 1}, {"time_played": 94.0625000000007, "midi_note": 65, "frequency": 349.23, "note_held": 0.1497395833333286, "velocity": 80, "channel": 1}, {"time_played": 94.0625000000007, "midi_note": 60, "frequency": 261.63, "note_held": 0.1497395833333286, "velocity": 80, "channel": 1}, {"time_played": 94.0625000000007, "midi_note": 57, "frequency": 220, "note_held": 0.1497395833333286, "velocity": 80, "channel": 1}, {"time_played": 94.0625000000007, "midi_note": 53, "frequency": 174.61, "note_held": 0.1497395833333286, "velocity": 80, "channel": 1}, {"time_played": 94.0625000000007, "midi_note": 48, "frequency": 130.81, "note_held": 0.1497395833333286, "velocity": 80, "channel": 1}, {"time_played": 94.0625000000007, "midi_note": 41, "frequency": 87.31, "note_held": 0.14973958333333334, "velocity": 80, "channel": 1}, {"time_played": 94.3750000000007, "midi_note": 65, "frequency": 349.23, "note_held": 0.3059895833333428, "velocity": 100, "channel": 1}, {"time_played": 94.3750000000007, "midi_note": 60, "frequency": 261.63, "note_held": 0.3059895833333428, "velocity": 100, "channel": 1}, {"time_played": 94.3750000000007, "midi_note": 57, "frequency": 220, "note_held": 0.3059895833333428, "velocity": 100, "channel": 1}, {"time_played": 94.3750000000007, "midi_note": 53, "frequency": 174.61, "note_held": 0.3059895833333428, "velocity": 100, "channel": 1}, {"time_played": 94.3750000000007, "midi_note": 48, "frequency": 130.81, "note_held": 0.3059895833333428, "velocity": 100, "channel": 1}, {"time_played": 94.3750000000007, "midi_note": 41, "frequency": 87.31, "note_held": 0.006510416666666667, "velocity": 100, "channel": 1}, {"time_played": 94.53125000000071, "midi_note": 65, "frequency": 349.23, "note_held": 0.1497395833333286, "velocity": 64, "channel": 1}, {"time_played": 94.53125000000071, "midi_note": 60, "frequency": 261.63, "note_held": 0.1497395833333286, "velocity": 64, "channel": 1}, {"time_played": 94.53125000000071, "midi_note": 57, "frequency": 220, "note_held": 0.1497395833333286, "velocity": 64, "channel": 1}, {"time_played": 94.53125000000071, "midi_note": 53, "frequency": 174.61, "note_held": 0.006510416666666667, "velocity": 64, "channel": 1}, {"time_played": 94.68750000000071, "midi_note": 57, "frequency": 220, "note_held": 0.1497395833333428, "velocity": 56, "channel": 1}, {"time_played": 94.68750000000071, "midi_note": 60, "frequency": 261.63, "note_held": 0.1497395833333428, "velocity": 56, "channel": 1}, {"time_played": 94.68750000000071, "midi_note": 65, "frequency": 349.23, "note_held": 0.006510416666666667, "velocity": 56, "channel": 1}, {"time_played": 94.84375000000072, "midi_note": 53, "frequency": 174.61, "note_held": 0.1497395833333286, "velocity": 70, "channel": 1}, {"time_played": 94.84375000000072, "midi_note": 57, "frequency": 220, "note_held": 0.1497395833333286, "velocity": 70, "channel": 1}, {"time_played": 94.84375000000072, "midi_note": 60, "frequency": 261.63, "note_held": 0.1497395833333286, "velocity": 70, "channel": 1}, {"time_played": 94.84375000000072, "midi_note": 65, "frequency": 349.23, "note_held": 0.006510416666666667, "velocity": 70, "channel": 1}, {"time_played": 95.00000000000072, "midi_note": 67, "frequency": 392, "note_held": 0.6184895833333428, "velocity": 100, "channel": 1}, {"time_played": 95.00000000000072, "midi_note": 64, "frequency": 329.63, "note_held": 0.6184895833333428, "velocity": 100, "channel": 1}, {"time_played": 95.00000000000072, "midi_note": 60, "frequency": 261.63, "note_held": 0.6184895833333428, "velocity": 100, "channel": 1}, {"time_played": 95.00000000000072, "midi_note": 55, "frequency": 196, "note_held": 0.6184895833333428, "velocity": 100, "channel": 1}, {"time_played": 95.00000000000072, "midi_note": 48, "frequency": 130.81, "note_held": 0.006510416666666667, "velocity": 100, "channel": 1}, {"time_played": 95.62500000000074, "midi_note": 67, "frequency": 392, "note_held": 0.6184895833333428, "velocity": 100, "channel": 1}, {"time_played": 95.62500000000074, "midi_note": 64, "frequency": 329.63, "note_held": 0.6184895833333428, "velocity": 100, "channel": 1}, {"time_played": 95.62500000000074, "midi_note": 60, "frequency": 261.63, "note_held": 0.6184895833333428, "velocity": 100, "channel": 1}, {"time_played": 95.62500000000074, "midi_note": 55, "frequency": 196, "note_held": 0.6184895833333428, "velocity": 100, "channel": 1}, {"time_played": 95.62500000000074, "midi_note": 48, "frequency": 130.81, "note_held": 0.006510416666666667, "velocity": 100, "channel": 1}, {"time_played": 96.25000000000075, "midi_note": 67, "frequency": 392, "note_held": 0.6184895833333144, "velocity": 100, "channel": 1}, {"time_played": 96.25000000000075, "midi_note": 62, "frequency": 293.66, "note_held": 0.6184895833333144, "velocity": 100, "channel": 1}, {"time_played": 96.25000000000075, "midi_note": 59, "frequency": 246.94, "note_held": 0.6184895833333144, "velocity": 100, "channel": 1}, {"time_played": 96.25000000000075, "midi_note": 55, "frequency": 196, "note_held": 0.6184895833333144, "velocity": 100, "channel": 1}, {"time_played": 96.25000000000075, "midi_note": 50, "frequency": 146.83, "note_held": 0.6184895833333144, "velocity": 100, "channel": 1}, {"time_played": 96.25000000000075, "midi_note": 43, "frequency": 98, "note_held": 0.006510416666666667, "velocity": 100, "channel": 1}, {"time_played": 96.87500000000074, "midi_note": 67, "frequency": 392, "note_held": 0.6184895833333286, "velocity": 100, "channel": 1}, {"time_played": 96.87500000000074, "midi_note": 62, "frequency": 293.66, "note_held": 0.6184895833333286, "velocity": 100, "channel": 1}, {"time_played": 96.87500000000074, "midi_note": 59, "frequency": 246.94, "note_held": 0.6184895833333286, "velocity": 100, "channel": 1}, {"time_played": 96.87500000000074, "midi_note": 55, "frequency": 196, "note_held": 0.6184895833333286, "velocity": 100, "channel": 1}, {"time_played": 96.87500000000074, "midi_note": 50, "frequency": 146.83, "note_held": 0.6184895833333286, "velocity": 100, "channel": 1}, {"time_played": 96.87500000000074, "midi_note": 43, "frequency": 98, "note_held": 0.006510416666666667, "velocity": 100, "channel": 1}, {"time_played": 97.50000000000074, "midi_note": 69, "frequency": 440, "note_held": 0.6184895833333428, "velocity": 100, "channel": 1}, {"time_played": 97.50000000000074, "midi_note": 65, "frequency": 349.23, "note_held": 0.6184895833333428, "velocity": 100, "channel": 1}, {"time_played": 97.50000000000074, "midi_note": 62, "frequency": 293.66, "note_held": 0.6184895833333428, "velocity": 100, "channel": 1}, {"time_played": 97.50000000000074, "midi_note": 57, "frequency": 220, "note_held": 0.6184895833333428, "velocity": 100, "channel": 1}, {"time_played": 97.50000000000074, "midi_note": 50, "frequency": 146.83, "note_held": 0.006510416666666667, "velocity": 100, "channel": 1}, {"time_played": 98.12500000000075, "midi_note": 69, "frequency": 440, "note_held": 0.6184895833333144, "velocity": 100, "channel": 1}, {"time_played": 98.12500000000075, "midi_note": 65, "frequency": 349.23, "note_held": 0.6184895833333144, "velocity": 100, "channel": 1}, {"time_played": 98.12500000000075, "midi_note": 62, "frequency": 293.66, "note_held": 0.6184895833333144, "velocity": 100, "channel": 1}, {"time_played": 98.12500000000075, "midi_note": 57, "frequency": 220, "note_held": 0.6184895833333144, "velocity": 100, "channel": 1}, {"time_played": 98.12500000000075, "midi_note": 50, "frequency": 146.83, "note_held": 0.006510416666666667, "velocity": 100, "channel": 1}, {"time_played": 98.75000000000074, "midi_note": 69, "frequency": 440, "note_held": 0.6184895833333144, "velocity": 100, "channel": 1}, {"time_played": 98.75000000000074, "midi_note": 64, "frequency": 329.63, "note_held": 0.6184895833333144, "velocity": 100, "channel": 1}, {"time_played": 98.75000000000074, "midi_note": 60, "frequency": 261.63, "note_held": 0.6184895833333144, "velocity": 100, "channel": 1}, {"time_played": 98.75000000000074, "midi_note": 57, "frequency": 220, "note_held": 0.6184895833333144, "velocity": 100, "channel": 1}, {"time_played": 98.75000000000074, "midi_note": 52, "frequency": 164.81, "note_held": 0.6184895833333144, "velocity": 100, "channel": 1}, {"time_played": 98.75000000000074, "midi_note": 45, "frequency": 110, "note_held": 0.006510416666666667, "velocity": 100, "channel": 1}, {"time_played": 99.37500000000072, "midi_note": 69, "frequency": 440, "note_held": 0.3059895833333286, "velocity": 100, "channel": 1}, {"time_played": 99.37500000000072, "midi_note": 64, "frequency": 329.63, "note_held": 0.3059895833333286, "velocity": 100, "channel": 1}, {"time_played": 99.37500000000072, "midi_note": 60, "frequency": 261.63, "note_held": 0.3059895833333286, "velocity": 100, "channel": 1}, {"time_played": 99.37500000000072, "midi_note": 57, "frequency": 220, "note_held": 0.3059895833333286, "velocity": 100, "channel": 1}, {"time_played": 99.37500000000072, "midi_note": 52, "frequency": 164.81, "note_held": 0.3059895833333286, "velocity": 100, "channel": 1}, {"time_played": 99.37500000000072, "midi_note": 45, "frequency": 110, "note_held": 0.006510416666666667, "velocity": 100, "channel": 1}, {"time_played": 100.00000000000074, "midi_note": 55, "frequency": 196, "note_held": 0.5468750000000284, "velocity": 101, "channel": 1}, {"time_played": 100.00000000000074, "midi_note": 67, "frequency": 392, "note_held": 0.5533854166666998, "velocity": 114, "channel": 1}, {"time_played": 100.00000000000074, "midi_note": 64, "frequency": 329.63, "note_held": 0.5729166666666998, "velocity": 114, "channel": 1}, {"time_played": 100.00000000000074, "midi_note": 48, "frequency": 130.81, "note_held": 0.026041666666666668, "velocity": 89, "channel": 1}, {"time_played": 100.00000000000074, "midi_note": 60, "frequency": 261.63, "note_held": 0.5859375000000284, "velocity": 87, "channel": 1}, {"time_played": 100.62500000000077, "midi_note": 60, "frequency": 261.63, "note_held": 5.781250000000043, "velocity": 85, "channel": 1}, {"time_played": 100.62500000000077, "midi_note": 55, "frequency": 196, "note_held": 0.0390625, "velocity": 98, "channel": 1}, {"time_played": 100.62500000000077, "midi_note": 48, "frequency": 130.81, "note_held": 7.779947916666771, "velocity": 98, "channel": 1}, {"time_played": 100.62500000000077, "midi_note": 64, "frequency": 329.63, "note_held": 54.68098958333289, "velocity": 110, "channel": 1}, {"time_played": 100.62500000000077, "midi_note": 67, "frequency": 392, "note_held": 84.99348958333101, "velocity": 107, "channel": 1}, {"time_played": 102.18098958333411, "midi_note": 50, "frequency": 146.83, "note_held": 2.7278645833333712, "velocity": 101, "channel": 1}, {"time_played": 102.18098958333411, "midi_note": 57, "frequency": 220, "note_held": 0.01953125, "velocity": 78, "channel": 1}, {"time_played": 102.22005208333412, "midi_note": 62, "frequency": 293.66, "note_held": 0.026041666666666668, "velocity": 98, "channel": 1}, {"time_played": 102.2656250000008, "midi_note": 65, "frequency": 349.23, "note_held": 0.04557291666666667, "velocity": 74, "channel": 1}, {"time_played": 105.00000000000082, "midi_note": 45, "frequency": 110, "note_held": 1.4062499999999858, "velocity": 85, "channel": 1}, {"time_played": 105.31250000000081, "midi_note": 52, "frequency": 164.81, "note_held": 0.7552083333333428, "velocity": 77, "channel": 1}, {"time_played": 105.62500000000081, "midi_note": 59, "frequency": 246.94, "note_held": 0.3385416666666714, "velocity": 85, "channel": 1}, {"time_played": 105.93750000000081, "midi_note": 60, "frequency": 261.63, "note_held": 0.46875, "velocity": 85, "channel": 1}, {"time_played": 107.50000000000087, "midi_note": 41, "frequency": 87.31, "note_held": 50.30598958333262, "velocity": 77, "channel": 1}, {"time_played": 107.81250000000087, "midi_note": 48, "frequency": 130.81, "note_held": 0.5924479166666714, "velocity": 74, "channel": 1}, {"time_played": 108.12500000000087, "midi_note": 55, "frequency": 196, "note_held": 0.2799479166666714, "velocity": 90, "channel": 1}, {"time_played": 108.43750000000087, "midi_note": 50, "frequency": 146.83, "note_held": 0.5989583333333286, "velocity": 88, "channel": 1}, {"time_played": 108.43750000000087, "midi_note": 57, "frequency": 220, "note_held": 0.6315104166666714, "velocity": 85, "channel": 1}, {"time_played": 110.00000000000088, "midi_note": 45, "frequency": 110, "note_held": 1.4062499999999858, "velocity": 85, "channel": 1}, {"time_played": 110.31250000000087, "midi_note": 52, "frequency": 164.81, "note_held": 0.7552083333333428, "velocity": 77, "channel": 1}, {"time_played": 110.62500000000087, "midi_note": 59, "frequency": 246.94, "note_held": 0.3385416666666714, "velocity": 85, "channel": 1}, {"time_played": 110.93750000000087, "midi_note": 60, "frequency": 261.63, "note_held": 0.46875, "velocity": 85, "channel": 1}, {"time_played": 112.50000000000094, "midi_note": 41, "frequency": 87.31, "note_held": 45.93098958333252, "velocity": 77, "channel": 1}, {"time_played": 112.81250000000094, "midi_note": 48, "frequency": 130.81, "note_held": 0.5924479166666714, "velocity": 74, "channel": 1}, {"time_played": 113.12500000000094, "midi_note": 55, "frequency": 196, "note_held": 0.2799479166666714, "velocity": 90, "channel": 1}, {"time_played": 113.43750000000094, "midi_note": 52, "frequency": 164.81, "note_held": 0.5989583333333286, "velocity": 88, "channel": 1}, {"time_played": 113.43750000000094, "midi_note": 57, "frequency": 220, "note_held": 0.6315104166666714, "velocity": 85, "channel": 1}, {"time_played": 115.00000000000094, "midi_note": 45, "frequency": 110, "note_held": 1.4062499999999716, "velocity": 85, "channel": 1}, {"time_played": 115.31250000000094, "midi_note": 52, "frequency": 164.81, "note_held": 0.7552083333333144, "velocity": 77, "channel": 1}, {"time_played": 115.62500000000092, "midi_note": 59, "frequency": 246.94, "note_held": 0.3385416666666572, "velocity": 85, "channel": 1}, {"time_played": 115.93750000000091, "midi_note": 60, "frequency": 261.63, "note_held": 0.46875, "velocity": 85, "channel": 1}, {"time_played": 117.50000000000098, "midi_note": 41, "frequency": 87.31, "note_held": 40.305989583332504, "velocity": 77, "channel": 1}, {"time_played": 117.81250000000098, "midi_note": 48, "frequency": 130.81, "note_held": 0.5924479166666714, "velocity": 74, "channel": 1}, {"time_played": 118.12500000000098, "midi_note": 55, "frequency": 196, "note_held": 0.2799479166666714, "velocity": 90, "channel": 1}, {"time_played": 118.43750000000098, "midi_note": 50, "frequency": 146.83, "note_held": 0.5989583333333144, "velocity": 88, "channel": 1}, {"time_played": 118.43750000000098, "midi_note": 57, "frequency": 220, "note_held": 0.6315104166666572, "velocity": 85, "channel": 1}, {"time_played": 120.00000000000097, "midi_note": 45, "frequency": 110, "note_held": 1.4062499999999858, "velocity": 85, "channel": 1}, {"time_played": 120.31250000000095, "midi_note": 52, "frequency": 164.81, "note_held": 0.7552083333333428, "velocity": 77, "channel": 1}, {"time_played": 120.62500000000095, "midi_note": 59, "frequency": 246.94, "note_held": 0.3385416666666714, "velocity": 85, "channel": 1}, {"time_played": 120.93750000000095, "midi_note": 60, "frequency": 261.63, "note_held": 0.46875, "velocity": 85, "channel": 1}, {"time_played": 122.50000000000101, "midi_note": 41, "frequency": 87.31, "note_held": 36.24348958333245, "velocity": 77, "channel": 1}, {"time_played": 122.81250000000101, "midi_note": 48, "frequency": 130.81, "note_held": 0.5924479166666714, "velocity": 74, "channel": 1}, {"time_played": 123.12500000000101, "midi_note": 55, "frequency": 196, "note_held": 0.2799479166666714, "velocity": 90, "channel": 1}, {"time_played": 123.43750000000102, "midi_note": 52, "frequency": 164.81, "note_held": 0.5989583333333286, "velocity": 88, "channel": 1}, {"time_played": 123.43750000000102, "midi_note": 57, "frequency": 220, "note_held": 0.6315104166666714, "velocity": 85, "channel": 1}, {"time_played": 125.00000000000102, "midi_note": 48, "frequency": 130.81, "note_held": 0.3059895833333286, "velocity": 82, "channel": 1}, {"time_played": 125.00000000000102, "midi_note": 52, "frequency": 164.81, "note_held": 0.3059895833333286, "velocity": 74, "channel": 1}, {"time_played": 125.31250000000102, "midi_note": 55, "frequency": 196, "note_held": 0.3059895833333286, "velocity": 77, "channel": 1}, {"time_played": 125.62500000000102, "midi_note": 60, "frequency": 261.63, "note_held": 0.3059895833333428, "velocity": 67, "channel": 1}, {"time_played": 125.93750000000104, "midi_note": 55, "frequency": 196, "note_held": 0.3059895833333428, "velocity": 47, "channel": 1}, {"time_played": 126.25000000000105, "midi_note": 43, "frequency": 98, "note_held": 0.3059895833333428, "velocity": 82, "channel": 1}, {"time_played": 126.56250000000107, "midi_note": 47, "frequency": 123.47, "note_held": 0.3059895833333286, "velocity": 74, "channel": 1}, {"time_played": 126.87500000000107, "midi_note": 62, "frequency": 293.66, "note_held": 0.3059895833333428, "velocity": 90, "channel": 1}, {"time_played": 126.87500000000107, "midi_note": 55, "frequency": 196, "note_held": 0.3059895833333428, "velocity": 88, "channel": 1}, {"time_played": 127.18750000000108, "midi_note": 55, "frequency": 196, "note_held": 0.3059895833333286, "velocity": 58, "channel": 1}, {"time_played": 127.50000000000108, "midi_note": 53, "frequency": 174.61, "note_held": 0.3059895833333428, "velocity": 85, "channel": 1}, {"time_played": 127.50000000000108, "midi_note": 48, "frequency": 130.81, "note_held": 0.3059895833333428, "velocity": 85, "channel": 1}, {"time_played": 127.8125000000011, "midi_note": 57, "frequency": 220, "note_held": 0.3059895833333286, "velocity": 71, "channel": 1}, {"time_played": 128.12500000000108, "midi_note": 65, "frequency": 349.23, "note_held": 0.3059895833333144, "velocity": 85, "channel": 1}, {"time_played": 128.12500000000108, "midi_note": 60, "frequency": 261.63, "note_held": 0.3059895833333144, "velocity": 93, "channel": 1}, {"time_played": 128.43750000000105, "midi_note": 57, "frequency": 220, "note_held": 0.3059895833333428, "velocity": 78, "channel": 1}, {"time_played": 128.75000000000105, "midi_note": 50, "frequency": 146.83, "note_held": 0.3059895833333144, "velocity": 90, "channel": 1}, {"time_played": 129.06250000000102, "midi_note": 57, "frequency": 220, "note_held": 0.3059895833333144, "velocity": 77, "channel": 1}, {"time_played": 129.375000000001, "midi_note": 65, "frequency": 349.23, "note_held": 0.3059895833333144, "velocity": 78, "channel": 1}, {"time_played": 129.375000000001, "midi_note": 62, "frequency": 293.66, "note_held": 0.3059895833333144, "velocity": 85, "channel": 1}, {"time_played": 130.00000000000097, "midi_note": 45, "frequency": 110, "note_held": 1.40625, "velocity": 85, "channel": 1}, {"time_played": 130.31250000000097, "midi_note": 52, "frequency": 164.81, "note_held": 0.7552083333333144, "velocity": 77, "channel": 1}, {"time_played": 130.62500000000097, "midi_note": 59, "frequency": 246.94, "note_held": 0.3385416666666572, "velocity": 85, "channel": 1}, {"time_played": 130.93750000000097, "midi_note": 60, "frequency": 261.63, "note_held": 0.46875, "velocity": 85, "channel": 1}, {"time_played": 132.50000000000082, "midi_note": 41, "frequency": 87.31, "note_held": 25.30598958333266, "velocity": 77, "channel": 1}, {"time_played": 132.81250000000082, "midi_note": 48, "frequency": 130.81, "note_held": 0.5924479166666572, "velocity": 74, "channel": 1}, {"time_played": 133.12500000000082, "midi_note": 55, "frequency": 196, "note_held": 0.2799479166666572, "velocity": 90, "channel": 1}, {"time_played": 133.43750000000082, "midi_note": 50, "frequency": 146.83, "note_held": 0.5989583333333428, "velocity": 88, "channel": 1}, {"time_played": 133.43750000000082, "midi_note": 57, "frequency": 220, "note_held": 0.6315104166666572, "velocity": 85, "channel": 1}, {"time_played": 135.00000000000082, "midi_note": 45, "frequency": 110, "note_held": 1.4062500000000284, "velocity": 85, "channel": 1}, {"time_played": 135.31250000000085, "midi_note": 52, "frequency": 164.81, "note_held": 0.7552083333333144, "velocity": 77, "channel": 1}, {"time_played": 135.62500000000085, "midi_note": 59, "frequency": 246.94, "note_held": 0.3385416666666572, "velocity": 85, "channel": 1}, {"time_played": 135.93750000000085, "midi_note": 60, "frequency": 261.63, "note_held": 0.46875, "velocity": 85, "channel": 1}, {"time_played": 137.5000000000007, "midi_note": 41, "frequency": 87.31, "note_held": 20.930989583332746, "velocity": 77, "channel": 1}, {"time_played": 137.8125000000007, "midi_note": 48, "frequency": 130.81, "note_held": 0.5924479166666572, "velocity": 74, "channel": 1}, {"time_played": 138.1250000000007, "midi_note": 55, "frequency": 196, "note_held": 0.2799479166666572, "velocity": 90, "channel": 1}, {"time_played": 138.4375000000007, "midi_note": 52, "frequency": 164.81, "note_held": 0.5989583333333428, "velocity": 88, "channel": 1}, {"time_played": 138.4375000000007, "midi_note": 57, "frequency": 220, "note_held": 0.6315104166666572, "velocity": 85, "channel": 1}, {"time_played": 140.00000000000068, "midi_note": 45, "frequency": 110, "note_held": 1.4062500000000284, "velocity": 85, "channel": 1}, {"time_played": 140.31250000000068, "midi_note": 52, "frequency": 164.81, "note_held": 0.7552083333333428, "velocity": 77, "channel": 1}, {"time_played": 140.6250000000007, "midi_note": 59, "frequency": 246.94, "note_held": 0.3385416666666572, "velocity": 85, "channel": 1}, {"time_played": 140.9375000000007, "midi_note": 60, "frequency": 261.63, "note_held": 0.46875, "velocity": 85, "channel": 1}, {"time_played": 142.5000000000006, "midi_note": 41, "frequency": 87.31, "note_held": 15.305989583332888, "velocity": 77, "channel": 1}, {"time_played": 142.8125000000006, "midi_note": 48, "frequency": 130.81, "note_held": 0.5924479166666572, "velocity": 74, "channel": 1}, {"time_played": 143.1250000000006, "midi_note": 55, "frequency": 196, "note_held": 0.2799479166666572, "velocity": 90, "channel": 1}, {"time_played": 143.4375000000006, "midi_note": 50, "frequency": 146.83, "note_held": 0.5989583333333144, "velocity": 88, "channel": 1}, {"time_played": 143.4375000000006, "midi_note": 57, "frequency": 220, "note_held": 0.6315104166666288, "velocity": 85, "channel": 1}, {"time_played": 145.00000000000057, "midi_note": 45, "frequency": 110, "note_held": 1.4062500000000853, "velocity": 85, "channel": 1}, {"time_played": 145.3125000000006, "midi_note": 52, "frequency": 164.81, "note_held": 0.7552083333333712, "velocity": 77, "channel": 1}, {"time_played": 145.6250000000006, "midi_note": 59, "frequency": 246.94, "note_held": 0.3385416666666856, "velocity": 85, "channel": 1}, {"time_played": 145.93750000000063, "midi_note": 60, "frequency": 261.63, "note_held": 0.4687500000000284, "velocity": 85, "channel": 1}, {"time_played": 147.50000000000054, "midi_note": 41, "frequency": 87.31, "note_held": 11.868489583332888, "velocity": 77, "channel": 1}, {"time_played": 147.81250000000054, "midi_note": 48, "frequency": 130.81, "note_held": 0.5924479166666856, "velocity": 74, "channel": 1}, {"time_played": 148.12500000000057, "midi_note": 55, "frequency": 196, "note_held": 0.2799479166666572, "velocity": 90, "channel": 1}, {"time_played": 148.43750000000057, "midi_note": 52, "frequency": 164.81, "note_held": 0.5989583333333428, "velocity": 88, "channel": 1}, {"time_played": 148.43750000000057, "midi_note": 57, "frequency": 220, "note_held": 0.6315104166666572, "velocity": 85, "channel": 1}, {"time_played": 150.00000000000057, "midi_note": 48, "frequency": 130.81, "note_held": 0.30598958333337123, "velocity": 82, "channel": 1}, {"time_played": 150.00000000000057, "midi_note": 52, "frequency": 164.81, "note_held": 0.30598958333337123, "velocity": 74, "channel": 1}, {"time_played": 150.3125000000006, "midi_note": 55, "frequency": 196, "note_held": 0.3059895833333428, "velocity": 77, "channel": 1}, {"time_played": 150.6250000000006, "midi_note": 60, "frequency": 261.63, "note_held": 0.3059895833333144, "velocity": 67, "channel": 1}, {"time_played": 150.93750000000057, "midi_note": 55, "frequency": 196, "note_held": 0.3059895833333428, "velocity": 47, "channel": 1}, {"time_played": 151.25000000000057, "midi_note": 43, "frequency": 98, "note_held": 0.3059895833333144, "velocity": 82, "channel": 1}, {"time_played": 151.56250000000054, "midi_note": 47, "frequency": 123.47, "note_held": 0.3059895833333428, "velocity": 74, "channel": 1}, {"time_played": 151.87500000000054, "midi_note": 62, "frequency": 293.66, "note_held": 0.3059895833333144, "velocity": 90, "channel": 1}, {"time_played": 151.87500000000054, "midi_note": 55, "frequency": 196, "note_held": 0.3059895833333144, "velocity": 88, "channel": 1}, {"time_played": 152.1875000000005, "midi_note": 55, "frequency": 196, "note_held": 0.3059895833333144, "velocity": 58, "channel": 1}, {"time_played": 152.50000000000048, "midi_note": 48, "frequency": 130.81, "note_held": 0.3059895833333144, "velocity": 85, "channel": 1}, {"time_played": 152.50000000000048, "midi_note": 53, "frequency": 174.61, "note_held": 0.3059895833333144, "velocity": 85, "channel": 1}, {"time_played": 152.81250000000045, "midi_note": 57, "frequency": 220, "note_held": 0.3059895833333428, "velocity": 62, "channel": 1}, {"time_played": 153.12500000000045, "midi_note": 65, "frequency": 349.23, "note_held": 0.3059895833333144, "velocity": 74, "channel": 1}, {"time_played": 153.12500000000045, "midi_note": 60, "frequency": 261.63, "note_held": 0.3059895833333144, "velocity": 81, "channel": 1}, {"time_played": 153.43750000000043, "midi_note": 57, "frequency": 220, "note_held": 0.3059895833333428, "velocity": 68, "channel": 1}, {"time_played": 153.75000000000043, "midi_note": 50, "frequency": 146.83, "note_held": 0.3059895833333144, "velocity": 79, "channel": 1}, {"time_played": 154.0625000000004, "midi_note": 57, "frequency": 220, "note_held": 0.3059895833333144, "velocity": 67, "channel": 1}, {"time_played": 154.37500000000037, "midi_note": 65, "frequency": 349.23, "note_held": 0.3059895833333144, "velocity": 68, "channel": 1}, {"time_played": 154.37500000000037, "midi_note": 62, "frequency": 293.66, "note_held": 0.3059895833333144, "velocity": 74, "channel": 1}, {"time_played": 155.00000000000034, "midi_note": 69, "frequency": 440, "note_held": 0.3059895833333144, "velocity": 100, "channel": 1}, {"time_played": 155.00000000000034, "midi_note": 64, "frequency": 329.63, "note_held": 0.3059895833333144, "velocity": 100, "channel": 1}, {"time_played": 155.00000000000034, "midi_note": 60, "frequency": 261.63, "note_held": 0.3059895833333144, "velocity": 100, "channel": 1}, {"time_played": 155.00000000000034, "midi_note": 57, "frequency": 220, "note_held": 0.3059895833333144, "velocity": 100, "channel": 1}, {"time_played": 155.00000000000034, "midi_note": 52, "frequency": 164.81, "note_held": 0.3059895833333144, "velocity": 100, "channel": 1}, {"time_played": 155.00000000000034, "midi_note": 45, "frequency": 110, "note_held": 0.07161458333333334, "velocity": 100, "channel": 1}, {"time_played": 155.3125000000003, "midi_note": 57, "frequency": 220, "note_held": 0.14973958333331439, "velocity": 70, "channel": 1}, {"time_played": 155.3125000000003, "midi_note": 60, "frequency": 261.63, "note_held": 0.14973958333331439, "velocity": 70, "channel": 1}, {"time_played": 155.3125000000003, "midi_note": 64, "frequency": 329.63, "note_held": 0.14973958333331439, "velocity": 70, "channel": 1}, {"time_played": 155.3125000000003, "midi_note": 69, "frequency": 440, "note_held": 0.006510416666666667, "velocity": 70, "channel": 1}, {"time_played": 155.46875000000028, "midi_note": 69, "frequency": 440, "note_held": 0.3059895833333428, "velocity": 80, "channel": 1}, {"time_played": 155.46875000000028, "midi_note": 64, "frequency": 329.63, "note_held": 0.3059895833333428, "velocity": 80, "channel": 1}, {"time_played": 155.46875000000028, "midi_note": 60, "frequency": 261.63, "note_held": 0.3059895833333428, "velocity": 80, "channel": 1}, {"time_played": 155.46875000000028, "midi_note": 57, "frequency": 220, "note_held": 0.3059895833333428, "velocity": 80, "channel": 1}, {"time_played": 155.46875000000028, "midi_note": 52, "frequency": 164.81, "note_held": 0.006510416666666667, "velocity": 80, "channel": 1}, {"time_played": 155.62500000000028, "midi_note": 69, "frequency": 440, "note_held": 0.1497395833333428, "velocity": 80, "channel": 1}, {"time_played": 155.62500000000028, "midi_note": 64, "frequency": 329.63, "note_held": 0.1497395833333428, "velocity": 80, "channel": 1}, {"time_played": 155.62500000000028, "midi_note": 60, "frequency": 261.63, "note_held": 0.1497395833333428, "velocity": 80, "channel": 1}, {"time_played": 155.62500000000028, "midi_note": 57, "frequency": 220, "note_held": 0.1497395833333428, "velocity": 80, "channel": 1}, {"time_played": 155.62500000000028, "midi_note": 52, "frequency": 164.81, "note_held": 0.1497395833333428, "velocity": 80, "channel": 1}, {"time_played": 155.62500000000028, "midi_note": 45, "frequency": 110, "note_held": 0.078125, "velocity": 80, "channel": 1}, {"time_played": 155.93750000000026, "midi_note": 69, "frequency": 440, "note_held": 0.3059895833333428, "velocity": 100, "channel": 1}, {"time_played": 155.93750000000026, "midi_note": 64, "frequency": 329.63, "note_held": 0.3059895833333428, "velocity": 100, "channel": 1}, {"time_played": 155.93750000000026, "midi_note": 60, "frequency": 261.63, "note_held": 0.3059895833333428, "velocity": 100, "channel": 1}, {"time_played": 155.93750000000026, "midi_note": 57, "frequency": 220, "note_held": 0.3059895833333428, "velocity": 100, "channel": 1}, {"time_played": 155.93750000000026, "midi_note": 52, "frequency": 164.81, "note_held": 0.3059895833333428, "velocity": 100, "channel": 1}, {"time_played": 155.93750000000026, "midi_note": 45, "frequency": 110, "note_held": 0.006510416666666667, "velocity": 100, "channel": 1}, {"time_played": 156.25000000000026, "midi_note": 57, "frequency": 220, "note_held": 0.1497395833333428, "velocity": 70, "channel": 1}, {"time_played": 156.25000000000026, "midi_note": 60, "frequency": 261.63, "note_held": 0.1497395833333428, "velocity": 70, "channel": 1}, {"time_played": 156.25000000000026, "midi_note": 64, "frequency": 329.63, "note_held": 0.1497395833333428, "velocity": 70, "channel": 1}, {"time_played": 156.25000000000026, "midi_note": 69, "frequency": 440, "note_held": 0.006510416666666667, "velocity": 70, "channel": 1}, {"time_played": 156.40625000000026, "midi_note": 69, "frequency": 440, "note_held": 0.30598958333328596, "velocity": 80, "channel": 1}, {"time_played": 156.40625000000026, "midi_note": 64, "frequency": 329.63, "note_held": 0.30598958333328596, "velocity": 80, "channel": 1}, {"time_played": 156.40625000000026, "midi_note": 60, "frequency": 261.63, "note_held": 0.30598958333328596, "velocity": 80, "channel": 1}, {"time_played": 156.40625000000026, "midi_note": 57, "frequency": 220, "note_held": 0.30598958333328596, "velocity": 80, "channel": 1}, {"time_played": 156.40625000000026, "midi_note": 52, "frequency": 164.81, "note_held": 0.006510416666666667, "velocity": 80, "channel": 1}, {"time_played": 156.56250000000023, "midi_note": 69, "frequency": 440, "note_held": 0.14973958333331439, "velocity": 80, "channel": 1}, {"time_played": 156.56250000000023, "midi_note": 64, "frequency": 329.63, "note_held": 0.14973958333331439, "velocity": 80, "channel": 1}, {"time_played": 156.56250000000023, "midi_note": 60, "frequency": 261.63, "note_held": 0.14973958333331439, "velocity": 80, "channel": 1}, {"time_played": 156.56250000000023, "midi_note": 57, "frequency": 220, "note_held": 0.14973958333331439, "velocity": 80, "channel": 1}, {"time_played": 156.56250000000023, "midi_note": 52, "frequency": 164.81, "note_held": 0.14973958333331439, "velocity": 80, "channel": 1}, {"time_played": 156.56250000000023, "midi_note": 45, "frequency": 110, "note_held": 0.006510416666666667, "velocity": 80, "channel": 1}, {"time_played": 156.8750000000002, "midi_note": 69, "frequency": 440, "note_held": 0.3059895833333144, "velocity": 100, "channel": 1}, {"time_played": 156.8750000000002, "midi_note": 64, "frequency": 329.63, "note_held": 0.3059895833333144, "velocity": 100, "channel": 1}, {"time_played": 156.8750000000002, "midi_note": 60, "frequency": 261.63, "note_held": 0.3059895833333144, "velocity": 100, "channel": 1}, {"time_played": 156.8750000000002, "midi_note": 57, "frequency": 220, "note_held": 0.3059895833333144, "velocity": 100, "channel": 1}, {"time_played": 156.8750000000002, "midi_note": 52, "frequency": 164.81, "note_held": 0.3059895833333144, "velocity": 100, "channel": 1}, {"time_played": 156.8750000000002, "midi_note": 45, "frequency": 110, "note_held": 0.006510416666666667, "velocity": 100, "channel": 1}, {"time_played": 157.18750000000017, "midi_note": 60, "frequency": 261.63, "note_held": 0.1497395833333428, "velocity": 70, "channel": 1}, {"time_played": 157.18750000000017, "midi_note": 64, "frequency": 329.63, "note_held": 0.1497395833333428, "velocity": 70, "channel": 1}, {"time_played": 157.18750000000017, "midi_note": 69, "frequency": 440, "note_held": 0.006510416666666667, "velocity": 70, "channel": 1}, {"time_played": 157.34375000000017, "midi_note": 57, "frequency": 220, "note_held": 0.1497395833333428, "velocity": 70, "channel": 1}, {"time_played": 157.34375000000017, "midi_note": 60, "frequency": 261.63, "note_held": 0.1497395833333428, "velocity": 70, "channel": 1}, {"time_played": 157.34375000000017, "midi_note": 64, "frequency": 329.63, "note_held": 0.1497395833333428, "velocity": 70, "channel": 1}, {"time_played": 157.34375000000017, "midi_note": 69, "frequency": 440, "note_held": 0.006510416666666667, "velocity": 70, "channel": 1}, {"time_played": 157.50000000000017, "midi_note": 65, "frequency": 349.23, "note_held": 0.3059895833333144, "velocity": 100, "channel": 1}, {"time_played": 157.50000000000017, "midi_note": 60, "frequency": 261.63, "note_held": 0.3059895833333144, "velocity": 100, "channel": 1}, {"time_played": 157.50000000000017, "midi_note": 57, "frequency": 220, "note_held": 0.3059895833333144, "velocity": 100, "channel": 1}, {"time_played": 157.50000000000017, "midi_note": 53, "frequency": 174.61, "note_held": 0.3059895833333144, "velocity": 100, "channel": 1}, {"time_played": 157.50000000000017, "midi_note": 48, "frequency": 130.81, "note_held": 0.3059895833333144, "velocity": 100, "channel": 1}, {"time_played": 157.50000000000017, "midi_note": 41, "frequency": 87.31, "note_held": 0.006510416666666667, "velocity": 100, "channel": 1}, {"time_played": 157.81250000000014, "midi_note": 53, "frequency": 174.61, "note_held": 0.14973958333331439, "velocity": 70, "channel": 1}, {"time_played": 157.81250000000014, "midi_note": 57, "frequency": 220, "note_held": 0.14973958333331439, "velocity": 70, "channel": 1}, {"time_played": 157.81250000000014, "midi_note": 60, "frequency": 261.63, "note_held": 0.14973958333331439, "velocity": 70, "channel": 1}, {"time_played": 157.81250000000014, "midi_note": 65, "frequency": 349.23, "note_held": 0.006510416666666667, "velocity": 70, "channel": 1}, {"time_played": 157.9687500000001, "midi_note": 65, "frequency": 349.23, "note_held": 0.3059895833333428, "velocity": 80, "channel": 1}, {"time_played": 157.9687500000001, "midi_note": 60, "frequency": 261.63, "note_held": 0.3059895833333428, "velocity": 80, "channel": 1}, {"time_played": 157.9687500000001, "midi_note": 57, "frequency": 220, "note_held": 0.3059895833333428, "velocity": 80, "channel": 1}, {"time_played": 157.9687500000001, "midi_note": 53, "frequency": 174.61, "note_held": 0.3059895833333428, "velocity": 80, "channel": 1}, {"time_played": 157.9687500000001, "midi_note": 48, "frequency": 130.81, "note_held": 0.006510416666666667, "velocity": 80, "channel": 1}, {"time_played": 158.1250000000001, "midi_note": 65, "frequency": 349.23, "note_held": 0.1497395833333428, "velocity": 80, "channel": 1}, {"time_played": 158.1250000000001, "midi_note": 60, "frequency": 261.63, "note_held": 0.1497395833333428, "velocity": 80, "channel": 1}, {"time_played": 158.1250000000001, "midi_note": 57, "frequency": 220, "note_held": 0.1497395833333428, "velocity": 80, "channel": 1}, {"time_played": 158.1250000000001, "midi_note": 53, "frequency": 174.61, "note_held": 0.1497395833333428, "velocity": 80, "channel": 1}, {"time_played": 158.1250000000001, "midi_note": 48, "frequency": 130.81, "note_held": 0.1497395833333428, "velocity": 80, "channel": 1}, {"time_played": 158.1250000000001, "midi_note": 41, "frequency": 87.31, "note_held": 0.09114583333333334, "velocity": 80, "channel": 1}, {"time_played": 158.4375000000001, "midi_note": 65, "frequency": 349.23, "note_held": 0.3059895833333428, "velocity": 100, "channel": 1}, {"time_played": 158.4375000000001, "midi_note": 60, "frequency": 261.63, "note_held": 0.3059895833333428, "velocity": 100, "channel": 1}, {"time_played": 158.4375000000001, "midi_note": 57, "frequency": 220, "note_held": 0.3059895833333428, "velocity": 100, "channel": 1}, {"time_played": 158.4375000000001, "midi_note": 53, "frequency": 174.61, "note_held": 0.3059895833333428, "velocity": 100, "channel": 1}, {"time_played": 158.4375000000001, "midi_note": 48, "frequency": 130.81, "note_held": 0.3059895833333428, "velocity": 100, "channel": 1}, {"time_played": 158.4375000000001, "midi_note": 41, "frequency": 87.31, "note_held": 0.006510416666666667, "velocity": 100, "channel": 1}, {"time_played": 158.7500000000001, "midi_note": 53, "frequency": 174.61, "note_held": 0.1497395833333428, "velocity": 70, "channel": 1}, {"time_played": 158.7500000000001, "midi_note": 57, "frequency": 220, "note_held": 0.1497395833333428, "velocity": 70, "channel": 1}, {"time_played": 158.7500000000001, "midi_note": 60, "frequency": 261.63, "note_held": 0.1497395833333428, "velocity": 70, "channel": 1}, {"time_played": 158.7500000000001, "midi_note": 65, "frequency": 349.23, "note_held": 0.006510416666666667, "velocity": 70, "channel": 1}, {"time_played": 158.9062500000001, "midi_note": 65, "frequency": 349.23, "note_held": 0.3059895833333144, "velocity": 80, "channel": 1}, {"time_played": 158.9062500000001, "midi_note": 60, "frequency": 261.63, "note_held": 0.3059895833333144, "velocity": 80, "channel": 1}, {"time_played": 158.9062500000001, "midi_note": 57, "frequency": 220, "note_held": 0.3059895833333144, "velocity": 80, "channel": 1}, {"time_played": 158.9062500000001, "midi_note": 53, "frequency": 174.61, "note_held": 0.3059895833333144, "velocity": 80, "channel": 1}, {"time_played": 158.9062500000001, "midi_note": 48, "frequency": 130.81, "note_held": 0.006510416666666667, "velocity": 80, "channel": 1}, {"time_played": 159.06250000000009, "midi_note": 65, "frequency": 349.23, "note_held": 0.1497395833333428, "velocity": 80, "channel": 1}, {"time_played": 159.06250000000009, "midi_note": 60, "frequency": 261.63, "note_held": 0.1497395833333428, "velocity": 80, "channel": 1}, {"time_played": 159.06250000000009, "midi_note": 57, "frequency": 220, "note_held": 0.1497395833333428, "velocity": 80, "channel": 1}, {"time_played": 159.06250000000009, "midi_note": 53, "frequency": 174.61, "note_held": 0.1497395833333428, "velocity": 80, "channel": 1}, {"time_played": 159.06250000000009, "midi_note": 48, "frequency": 130.81, "note_held": 0.1497395833333428, "velocity": 80, "channel": 1}, {"time_played": 159.06250000000009, "midi_note": 41, "frequency": 87.31, "note_held": 0.006510416666666667, "velocity": 80, "channel": 1}, {"time_played": 159.37500000000009, "midi_note": 65, "frequency": 349.23, "note_held": 0.3059895833333144, "velocity": 100, "channel": 1}, {"time_played": 159.37500000000009, "midi_note": 60, "frequency": 261.63, "note_held": 0.3059895833333144, "velocity": 100, "channel": 1}, {"time_played": 159.37500000000009, "midi_note": 57, "frequency": 220, "note_held": 0.3059895833333144, "velocity": 100, "channel": 1}, {"time_played": 159.37500000000009, "midi_note": 53, "frequency": 174.61, "note_held": 0.3059895833333144, "velocity": 100, "channel": 1}, {"time_played": 159.37500000000009, "midi_note": 48, "frequency": 130.81, "note_held": 0.3059895833333144, "velocity": 100, "channel": 1}, {"time_played": 159.37500000000009, "midi_note": 41, "frequency": 87.31, "note_held": 0.006510416666666667, "velocity": 100, "channel": 1}, {"time_played": 159.53125000000006, "midi_note": 65, "frequency": 349.23, "note_held": 0.1497395833333428, "velocity": 64, "channel": 1}, {"time_played": 159.53125000000006, "midi_note": 60, "frequency": 261.63, "note_held": 0.1497395833333428, "velocity": 64, "channel": 1}, {"time_played": 159.53125000000006, "midi_note": 57, "frequency": 220, "note_held": 0.1497395833333428, "velocity": 64, "channel": 1}, {"time_played": 159.53125000000006, "midi_note": 53, "frequency": 174.61, "note_held": 0.006510416666666667, "velocity": 64, "channel": 1}, {"time_played": 159.68750000000006, "midi_note": 57, "frequency": 220, "note_held": 0.1497395833333428, "velocity": 56, "channel": 1}, {"time_played": 159.68750000000006, "midi_note": 60, "frequency": 261.63, "note_held": 0.1497395833333428, "velocity": 56, "channel": 1}, {"time_played": 159.68750000000006, "midi_note": 65, "frequency": 349.23, "note_held": 0.006510416666666667, "velocity": 56, "channel": 1}, {"time_played": 159.84375000000006, "midi_note": 53, "frequency": 174.61, "note_held": 0.1497395833333428, "velocity": 70, "channel": 1}, {"time_played": 159.84375000000006, "midi_note": 57, "frequency": 220, "note_held": 0.1497395833333428, "velocity": 70, "channel": 1}, {"time_played": 159.84375000000006, "midi_note": 60, "frequency": 261.63, "note_held": 0.1497395833333428, "velocity": 70, "channel": 1}, {"time_played": 159.84375000000006, "midi_note": 65, "frequency": 349.23, "note_held": 0.006510416666666667, "velocity": 70, "channel": 1}, {"time_played": 160.00000000000006, "midi_note": 69, "frequency": 440, "note_held": 0.3059895833333144, "velocity": 100, "channel": 1}, {"time_played": 160.00000000000006, "midi_note": 64, "frequency": 329.63, "note_held": 0.3059895833333144, "velocity": 100, "channel": 1}, {"time_played": 160.00000000000006, "midi_note": 60, "frequency": 261.63, "note_held": 0.3059895833333144, "velocity": 100, "channel": 1}, {"time_played": 160.00000000000006, "midi_note": 57, "frequency": 220, "note_held": 0.3059895833333144, "velocity": 100, "channel": 1}, {"time_played": 160.00000000000006, "midi_note": 52, "frequency": 164.81, "note_held": 0.3059895833333144, "velocity": 100, "channel": 1}, {"time_played": 160.00000000000006, "midi_note": 45, "frequency": 110, "note_held": 0.006510416666666667, "velocity": 100, "channel": 1}, {"time_played": 160.31250000000003, "midi_note": 57, "frequency": 220, "note_held": 0.1497395833333428, "velocity": 70, "channel": 1}, {"time_played": 160.31250000000003, "midi_note": 60, "frequency": 261.63, "note_held": 0.1497395833333428, "velocity": 70, "channel": 1}, {"time_played": 160.31250000000003, "midi_note": 64, "frequency": 329.63, "note_held": 0.1497395833333428, "velocity": 70, "channel": 1}, {"time_played": 160.31250000000003, "midi_note": 69, "frequency": 440, "note_held": 0.006510416666666667, "velocity": 70, "channel": 1}, {"time_played": 160.46875000000003, "midi_note": 69, "frequency": 440, "note_held": 0.3059895833333428, "velocity": 80, "channel": 1}, {"time_played": 160.46875000000003, "midi_note": 64, "frequency": 329.63, "note_held": 0.3059895833333428, "velocity": 80, "channel": 1}, {"time_played": 160.46875000000003, "midi_note": 60, "frequency": 261.63, "note_held": 0.3059895833333428, "velocity": 80, "channel": 1}, {"time_played": 160.46875000000003, "midi_note": 57, "frequency": 220, "note_held": 0.3059895833333428, "velocity": 80, "channel": 1}, {"time_played": 160.46875000000003, "midi_note": 52, "frequency": 164.81, "note_held": 0.006510416666666667, "velocity": 80, "channel": 1}, {"time_played": 160.62500000000003, "midi_note": 69, "frequency": 440, "note_held": 0.1497395833333428, "velocity": 80, "channel": 1}, {"time_played": 160.62500000000003, "midi_note": 64, "frequency": 329.63, "note_held": 0.1497395833333428, "velocity": 80, "channel": 1}, {"time_played": 160.62500000000003, "midi_note": 60, "frequency": 261.63, "note_held": 0.1497395833333428, "velocity": 80, "channel": 1}, {"time_played": 160.62500000000003, "midi_note": 57, "frequency": 220, "note_held": 0.1497395833333428, "velocity": 80, "channel": 1}, {"time_played": 160.62500000000003, "midi_note": 52, "frequency": 164.81, "note_held": 0.1497395833333428, "velocity": 80, "channel": 1}, {"time_played": 160.62500000000003, "midi_note": 45, "frequency": 110, "note_held": 0.09114583333333334, "velocity": 80, "channel": 1}, {"time_played": 160.93750000000003, "midi_note": 69, "frequency": 440, "note_held": 0.3059895833333144, "velocity": 100, "channel": 1}, {"time_played": 160.93750000000003, "midi_note": 64, "frequency": 329.63, "note_held": 0.3059895833333144, "velocity": 100, "channel": 1}, {"time_played": 160.93750000000003, "midi_note": 60, "frequency": 261.63, "note_held": 0.3059895833333144, "velocity": 100, "channel": 1}, {"time_played": 160.93750000000003, "midi_note": 57, "frequency": 220, "note_held": 0.3059895833333144, "velocity": 100, "channel": 1}, {"time_played": 160.93750000000003, "midi_note": 52, "frequency": 164.81, "note_held": 0.3059895833333144, "velocity": 100, "channel": 1}, {"time_played": 160.93750000000003, "midi_note": 45, "frequency": 110, "note_held": 0.006510416666666667, "velocity": 100, "channel": 1}, {"time_played": 161.25, "midi_note": 57, "frequency": 220, "note_held": 0.1497395833333428, "velocity": 70, "channel": 1}, {"time_played": 161.25, "midi_note": 60, "frequency": 261.63, "note_held": 0.1497395833333428, "velocity": 70, "channel": 1}, {"time_played": 161.25, "midi_note": 64, "frequency": 329.63, "note_held": 0.1497395833333428, "velocity": 70, "channel": 1}, {"time_played": 161.25, "midi_note": 69, "frequency": 440, "note_held": 0.006510416666666667, "velocity": 70, "channel": 1}, {"time_played": 161.40625, "midi_note": 69, "frequency": 440, "note_held": 0.30598958333328596, "velocity": 104, "channel": 1}, {"time_played": 161.40625, "midi_note": 64, "frequency": 329.63, "note_held": 0.30598958333328596, "velocity": 80, "channel": 1}, {"time_played": 161.40625, "midi_note": 60, "frequency": 261.63, "note_held": 0.30598958333328596, "velocity": 80, "channel": 1}, {"time_played": 161.40625, "midi_note": 57, "frequency": 220, "note_held": 0.30598958333328596, "velocity": 80, "channel": 1}, {"time_played": 161.40625, "midi_note": 52, "frequency": 164.81, "note_held": 0.006510416666666667, "velocity": 80, "channel": 1}, {"time_played": 161.56249999999997, "midi_note": 69, "frequency": 440, "note_held": 0.14973958333331439, "velocity": 80, "channel": 1}, {"time_played": 161.56249999999997, "midi_note": 64, "frequency": 329.63, "note_held": 0.14973958333331439, "velocity": 80, "channel": 1}, {"time_played": 161.56249999999997, "midi_note": 60, "frequency": 261.63, "note_held": 0.14973958333331439, "velocity": 80, "channel": 1}, {"time_played": 161.56249999999997, "midi_note": 57, "frequency": 220, "note_held": 0.14973958333331439, "velocity": 80, "channel": 1}, {"time_played": 161.56249999999997, "midi_note": 52, "frequency": 164.81, "note_held": 0.14973958333331439, "velocity": 80, "channel": 1}, {"time_played": 161.56249999999997, "midi_note": 45, "frequency": 110, "note_held": 0.006510416666666667, "velocity": 80, "channel": 1}, {"time_played": 161.87499999999994, "midi_note": 69, "frequency": 440, "note_held": 0.3059895833333428, "velocity": 100, "channel": 1}, {"time_played": 161.87499999999994, "midi_note": 64, "frequency": 329.63, "note_held": 0.3059895833333428, "velocity": 100, "channel": 1}, {"time_played": 161.87499999999994, "midi_note": 60, "frequency": 261.63, "note_held": 0.3059895833333428, "velocity": 100, "channel": 1}, {"time_played": 161.87499999999994, "midi_note": 57, "frequency": 220, "note_held": 0.3059895833333428, "velocity": 100, "channel": 1}, {"time_played": 161.87499999999994, "midi_note": 52, "frequency": 164.81, "note_held": 0.3059895833333428, "velocity": 100, "channel": 1}, {"time_played": 161.87499999999994, "midi_note": 45, "frequency": 110, "note_held": 0.006510416666666667, "velocity": 100, "channel": 1}, {"time_played": 162.18749999999994, "midi_note": 60, "frequency": 261.63, "note_held": 0.1497395833333428, "velocity": 70, "channel": 1}, {"time_played": 162.18749999999994, "midi_note": 64, "frequency": 329.63, "note_held": 0.1497395833333428, "velocity": 70, "channel": 1}, {"time_played": 162.18749999999994, "midi_note": 69, "frequency": 440, "note_held": 0.006510416666666667, "velocity": 70, "channel": 1}, {"time_played": 162.34374999999994, "midi_note": 57, "frequency": 220, "note_held": 0.1497395833333428, "velocity": 70, "channel": 1}, {"time_played": 162.34374999999994, "midi_note": 60, "frequency": 261.63, "note_held": 0.1497395833333428, "velocity": 70, "channel": 1}, {"time_played": 162.34374999999994, "midi_note": 64, "frequency": 329.63, "note_held": 0.1497395833333428, "velocity": 70, "channel": 1}, {"time_played": 162.34374999999994, "midi_note": 69, "frequency": 440, "note_held": 0.006510416666666667, "velocity": 70, "channel": 1}, {"time_played": 162.49999999999994, "midi_note": 65, "frequency": 349.23, "note_held": 0.3059895833333144, "velocity": 100, "channel": 1}, {"time_played": 162.49999999999994, "midi_note": 60, "frequency": 261.63, "note_held": 0.3059895833333144, "velocity": 100, "channel": 1}, {"time_played": 162.49999999999994, "midi_note": 57, "frequency": 220, "note_held": 0.3059895833333144, "velocity": 100, "channel": 1}, {"time_played": 162.49999999999994, "midi_note": 53, "frequency": 174.61, "note_held": 0.3059895833333144, "velocity": 100, "channel": 1}, {"time_played": 162.49999999999994, "midi_note": 48, "frequency": 130.81, "note_held": 0.3059895833333144, "velocity": 100, "channel": 1}, {"time_played": 162.49999999999994, "midi_note": 41, "frequency": 87.31, "note_held": 0.006510416666666667, "velocity": 100, "channel": 1}, {"time_played": 162.81249999999991, "midi_note": 53, "frequency": 174.61, "note_held": 0.1497395833333428, "velocity": 70, "channel": 1}, {"time_played": 162.81249999999991, "midi_note": 57, "frequency": 220, "note_held": 0.1497395833333428, "velocity": 70, "channel": 1}, {"time_played": 162.81249999999991, "midi_note": 60, "frequency": 261.63, "note_held": 0.1497395833333428, "velocity": 70, "channel": 1}, {"time_played": 162.81249999999991, "midi_note": 65, "frequency": 349.23, "note_held": 0.006510416666666667, "velocity": 70, "channel": 1}, {"time_played": 162.96874999999991, "midi_note": 65, "frequency": 349.23, "note_held": 0.3059895833333428, "velocity": 94, "channel": 1}, {"time_played": 162.96874999999991, "midi_note": 60, "frequency": 261.63, "note_held": 0.3059895833333428, "velocity": 80, "channel": 1}, {"time_played": 162.96874999999991, "midi_note": 57, "frequency": 220, "note_held": 0.3059895833333428, "velocity": 80, "channel": 1}, {"time_played": 162.96874999999991, "midi_note": 53, "frequency": 174.61, "note_held": 0.3059895833333428, "velocity": 80, "channel": 1}, {"time_played": 162.96874999999991, "midi_note": 48, "frequency": 130.81, "note_held": 0.006510416666666667, "velocity": 80, "channel": 1}, {"time_played": 163.12499999999991, "midi_note": 65, "frequency": 349.23, "note_held": 0.1497395833333428, "velocity": 86, "channel": 1}, {"time_played": 163.12499999999991, "midi_note": 60, "frequency": 261.63, "note_held": 0.1497395833333428, "velocity": 80, "channel": 1}, {"time_played": 163.12499999999991, "midi_note": 57, "frequency": 220, "note_held": 0.1497395833333428, "velocity": 80, "channel": 1}, {"time_played": 163.12499999999991, "midi_note": 53, "frequency": 174.61, "note_held": 0.1497395833333428, "velocity": 80, "channel": 1}, {"time_played": 163.12499999999991, "midi_note": 48, "frequency": 130.81, "note_held": 0.1497395833333428, "velocity": 80, "channel": 1}, {"time_played": 163.12499999999991, "midi_note": 41, "frequency": 87.31, "note_held": 0.09765625, "velocity": 84, "channel": 1}, {"time_played": 163.43749999999991, "midi_note": 65, "frequency": 349.23, "note_held": 0.3059895833333428, "velocity": 100, "channel": 1}, {"time_played": 163.43749999999991, "midi_note": 60, "frequency": 261.63, "note_held": 0.3059895833333428, "velocity": 100, "channel": 1}, {"time_played": 163.43749999999991, "midi_note": 57, "frequency": 220, "note_held": 0.3059895833333428, "velocity": 100, "channel": 1}, {"time_played": 163.43749999999991, "midi_note": 53, "frequency": 174.61, "note_held": 0.3059895833333428, "velocity": 100, "channel": 1}, {"time_played": 163.43749999999991, "midi_note": 48, "frequency": 130.81, "note_held": 0.3059895833333428, "velocity": 100, "channel": 1}, {"time_played": 163.43749999999991, "midi_note": 41, "frequency": 87.31, "note_held": 0.006510416666666667, "velocity": 100, "channel": 1}, {"time_played": 163.74999999999991, "midi_note": 53, "frequency": 174.61, "note_held": 0.1497395833333428, "velocity": 70, "channel": 1}, {"time_played": 163.74999999999991, "midi_note": 57, "frequency": 220, "note_held": 0.1497395833333428, "velocity": 70, "channel": 1}, {"time_played": 163.74999999999991, "midi_note": 60, "frequency": 261.63, "note_held": 0.1497395833333428, "velocity": 70, "channel": 1}, {"time_played": 163.74999999999991, "midi_note": 65, "frequency": 349.23, "note_held": 0.006510416666666667, "velocity": 70, "channel": 1}, {"time_played": 163.90624999999991, "midi_note": 65, "frequency": 349.23, "note_held": 0.3059895833333144, "velocity": 97, "channel": 1}, {"time_played": 163.90624999999991, "midi_note": 60, "frequency": 261.63, "note_held": 0.3059895833333144, "velocity": 80, "channel": 1}, {"time_played": 163.90624999999991, "midi_note": 57, "frequency": 220, "note_held": 0.3059895833333144, "velocity": 80, "channel": 1}, {"time_played": 163.90624999999991, "midi_note": 53, "frequency": 174.61, "note_held": 0.3059895833333144, "velocity": 80, "channel": 1}, {"time_played": 163.90624999999991, "midi_note": 48, "frequency": 130.81, "note_held": 0.006510416666666667, "velocity": 80, "channel": 1}, {"time_played": 164.0624999999999, "midi_note": 65, "frequency": 349.23, "note_held": 0.1497395833333428, "velocity": 80, "channel": 1}, {"time_played": 164.0624999999999, "midi_note": 60, "frequency": 261.63, "note_held": 0.1497395833333428, "velocity": 80, "channel": 1}, {"time_played": 164.0624999999999, "midi_note": 57, "frequency": 220, "note_held": 0.1497395833333428, "velocity": 80, "channel": 1}, {"time_played": 164.0624999999999, "midi_note": 53, "frequency": 174.61, "note_held": 0.1497395833333428, "velocity": 80, "channel": 1}, {"time_played": 164.0624999999999, "midi_note": 48, "frequency": 130.81, "note_held": 0.1497395833333428, "velocity": 80, "channel": 1}, {"time_played": 164.0624999999999, "midi_note": 41, "frequency": 87.31, "note_held": 0.006510416666666667, "velocity": 80, "channel": 1}, {"time_played": 164.3749999999999, "midi_note": 65, "frequency": 349.23, "note_held": 0.3059895833333428, "velocity": 100, "channel": 1}, {"time_played": 164.3749999999999, "midi_note": 60, "frequency": 261.63, "note_held": 0.3059895833333428, "velocity": 100, "channel": 1}, {"time_played": 164.3749999999999, "midi_note": 57, "frequency": 220, "note_held": 0.3059895833333428, "velocity": 100, "channel": 1}, {"time_played": 164.3749999999999, "midi_note": 53, "frequency": 174.61, "note_held": 0.3059895833333428, "velocity": 100, "channel": 1}, {"time_played": 164.3749999999999, "midi_note": 48, "frequency": 130.81, "note_held": 0.3059895833333428, "velocity": 100, "channel": 1}, {"time_played": 164.3749999999999, "midi_note": 41, "frequency": 87.31, "note_held": 0.006510416666666667, "velocity": 100, "channel": 1}, {"time_played": 164.5312499999999, "midi_note": 65, "frequency": 349.23, "note_held": 0.1497395833333428, "velocity": 64, "channel": 1}, {"time_played": 164.5312499999999, "midi_note": 60, "frequency": 261.63, "note_held": 0.1497395833333428, "velocity": 64, "channel": 1}, {"time_played": 164.5312499999999, "midi_note": 57, "frequency": 220, "note_held": 0.1497395833333428, "velocity": 64, "channel": 1}, {"time_played": 164.5312499999999, "midi_note": 53, "frequency": 174.61, "note_held": 0.006510416666666667, "velocity": 64, "channel": 1}, {"time_played": 164.6874999999999, "midi_note": 57, "frequency": 220, "note_held": 0.1497395833333428, "velocity": 56, "channel": 1}, {"time_played": 164.6874999999999, "midi_note": 60, "frequency": 261.63, "note_held": 0.1497395833333428, "velocity": 56, "channel": 1}, {"time_played": 164.6874999999999, "midi_note": 65, "frequency": 349.23, "note_held": 0.006510416666666667, "velocity": 56, "channel": 1}, {"time_played": 164.8437499999999, "midi_note": 53, "frequency": 174.61, "note_held": 0.1497395833333428, "velocity": 70, "channel": 1}, {"time_played": 164.8437499999999, "midi_note": 57, "frequency": 220, "note_held": 0.1497395833333428, "velocity": 70, "channel": 1}, {"time_played": 164.8437499999999, "midi_note": 60, "frequency": 261.63, "note_held": 0.1497395833333428, "velocity": 70, "channel": 1}, {"time_played": 164.8437499999999, "midi_note": 65, "frequency": 349.23, "note_held": 0.006510416666666667, "velocity": 70, "channel": 1}, {"time_played": 164.9999999999999, "midi_note": 69, "frequency": 440, "note_held": 0.3059895833333144, "velocity": 100, "channel": 1}, {"time_played": 164.9999999999999, "midi_note": 64, "frequency": 329.63, "note_held": 0.3059895833333144, "velocity": 100, "channel": 1}, {"time_played": 164.9999999999999, "midi_note": 60, "frequency": 261.63, "note_held": 0.3059895833333144, "velocity": 100, "channel": 1}, {"time_played": 164.9999999999999, "midi_note": 57, "frequency": 220, "note_held": 0.3059895833333144, "velocity": 100, "channel": 1}, {"time_played": 164.9999999999999, "midi_note": 52, "frequency": 164.81, "note_held": 0.3059895833333144, "velocity": 100, "channel": 1}, {"time_played": 164.9999999999999, "midi_note": 45, "frequency": 110, "note_held": 0.006510416666666667, "velocity": 100, "channel": 1}, {"time_played": 165.31249999999986, "midi_note": 57, "frequency": 220, "note_held": 0.14973958333331439, "velocity": 70, "channel": 1}, {"time_played": 165.31249999999986, "midi_note": 60, "frequency": 261.63, "note_held": 0.14973958333331439, "velocity": 70, "channel": 1}, {"time_played": 165.31249999999986, "midi_note": 64, "frequency": 329.63, "note_held": 0.14973958333331439, "velocity": 70, "channel": 1}, {"time_played": 165.31249999999986, "midi_note": 69, "frequency": 440, "note_held": 0.006510416666666667, "velocity": 70, "channel": 1}, {"time_played": 165.46874999999983, "midi_note": 69, "frequency": 440, "note_held": 0.3059895833333144, "velocity": 80, "channel": 1}, {"time_played": 165.46874999999983, "midi_note": 64, "frequency": 329.63, "note_held": 0.3059895833333144, "velocity": 80, "channel": 1}, {"time_played": 165.46874999999983, "midi_note": 60, "frequency": 261.63, "note_held": 0.3059895833333144, "velocity": 80, "channel": 1}, {"time_played": 165.46874999999983, "midi_note": 57, "frequency": 220, "note_held": 0.3059895833333144, "velocity": 80, "channel": 1}, {"time_played": 165.46874999999983, "midi_note": 52, "frequency": 164.81, "note_held": 0.006510416666666667, "velocity": 80, "channel": 1}, {"time_played": 165.62499999999983, "midi_note": 69, "frequency": 440, "note_held": 0.14973958333331439, "velocity": 80, "channel": 1}, {"time_played": 165.62499999999983, "midi_note": 64, "frequency": 329.63, "note_held": 0.14973958333331439, "velocity": 80, "channel": 1}, {"time_played": 165.62499999999983, "midi_note": 60, "frequency": 261.63, "note_held": 0.14973958333331439, "velocity": 80, "channel": 1}, {"time_played": 165.62499999999983, "midi_note": 57, "frequency": 220, "note_held": 0.14973958333331439, "velocity": 80, "channel": 1}, {"time_played": 165.62499999999983, "midi_note": 52, "frequency": 164.81, "note_held": 0.14973958333331439, "velocity": 80, "channel": 1}, {"time_played": 165.62499999999983, "midi_note": 45, "frequency": 110, "note_held": 0.078125, "velocity": 80, "channel": 1}, {"time_played": 165.93749999999977, "midi_note": 69, "frequency": 440, "note_held": 0.3059895833333428, "velocity": 100, "channel": 1}, {"time_played": 165.93749999999977, "midi_note": 64, "frequency": 329.63, "note_held": 0.3059895833333428, "velocity": 100, "channel": 1}, {"time_played": 165.93749999999977, "midi_note": 60, "frequency": 261.63, "note_held": 0.3059895833333428, "velocity": 100, "channel": 1}, {"time_played": 165.93749999999977, "midi_note": 57, "frequency": 220, "note_held": 0.3059895833333428, "velocity": 100, "channel": 1}, {"time_played": 165.93749999999977, "midi_note": 52, "frequency": 164.81, "note_held": 0.3059895833333428, "velocity": 100, "channel": 1}, {"time_played": 165.93749999999977, "midi_note": 45, "frequency": 110, "note_held": 0.006510416666666667, "velocity": 100, "channel": 1}, {"time_played": 166.24999999999977, "midi_note": 57, "frequency": 220, "note_held": 0.1497395833333428, "velocity": 70, "channel": 1}, {"time_played": 166.24999999999977, "midi_note": 60, "frequency": 261.63, "note_held": 0.1497395833333428, "velocity": 70, "channel": 1}, {"time_played": 166.24999999999977, "midi_note": 64, "frequency": 329.63, "note_held": 0.1497395833333428, "velocity": 70, "channel": 1}, {"time_played": 166.24999999999977, "midi_note": 69, "frequency": 440, "note_held": 0.006510416666666667, "velocity": 70, "channel": 1}, {"time_played": 166.40624999999977, "midi_note": 69, "frequency": 440, "note_held": 0.30598958333325754, "velocity": 80, "channel": 1}, {"time_played": 166.40624999999977, "midi_note": 64, "frequency": 329.63, "note_held": 0.30598958333325754, "velocity": 80, "channel": 1}, {"time_played": 166.40624999999977, "midi_note": 60, "frequency": 261.63, "note_held": 0.30598958333325754, "velocity": 80, "channel": 1}, {"time_played": 166.40624999999977, "midi_note": 57, "frequency": 220, "note_held": 0.30598958333325754, "velocity": 80, "channel": 1}, {"time_played": 166.40624999999977, "midi_note": 52, "frequency": 164.81, "note_held": 0.006510416666666667, "velocity": 80, "channel": 1}, {"time_played": 166.56249999999972, "midi_note": 69, "frequency": 440, "note_held": 0.14973958333331439, "velocity": 80, "channel": 1}, {"time_played": 166.56249999999972, "midi_note": 64, "frequency": 329.63, "note_held": 0.14973958333331439, "velocity": 80, "channel": 1}, {"time_played": 166.56249999999972, "midi_note": 60, "frequency": 261.63, "note_held": 0.14973958333331439, "velocity": 80, "channel": 1}, {"time_played": 166.56249999999972, "midi_note": 57, "frequency": 220, "note_held": 0.14973958333331439, "velocity": 80, "channel": 1}, {"time_played": 166.56249999999972, "midi_note": 52, "frequency": 164.81, "note_held": 0.14973958333331439, "velocity": 80, "channel": 1}, {"time_played": 166.56249999999972, "midi_note": 45, "frequency": 110, "note_held": 0.006510416666666667, "velocity": 80, "channel": 1}, {"time_played": 166.8749999999997, "midi_note": 69, "frequency": 440, "note_held": 0.3059895833333144, "velocity": 100, "channel": 1}, {"time_played": 166.8749999999997, "midi_note": 64, "frequency": 329.63, "note_held": 0.3059895833333144, "velocity": 100, "channel": 1}, {"time_played": 166.8749999999997, "midi_note": 60, "frequency": 261.63, "note_held": 0.3059895833333144, "velocity": 100, "channel": 1}, {"time_played": 166.8749999999997, "midi_note": 57, "frequency": 220, "note_held": 0.3059895833333144, "velocity": 100, "channel": 1}, {"time_played": 166.8749999999997, "midi_note": 52, "frequency": 164.81, "note_held": 0.3059895833333144, "velocity": 100, "channel": 1}, {"time_played": 166.8749999999997, "midi_note": 45, "frequency": 110, "note_held": 0.006510416666666667, "velocity": 100, "channel": 1}, {"time_played": 167.18749999999966, "midi_note": 60, "frequency": 261.63, "note_held": 0.1497395833333428, "velocity": 70, "channel": 1}, {"time_played": 167.18749999999966, "midi_note": 64, "frequency": 329.63, "note_held": 0.1497395833333428, "velocity": 70, "channel": 1}, {"time_played": 167.18749999999966, "midi_note": 69, "frequency": 440, "note_held": 0.006510416666666667, "velocity": 70, "channel": 1}, {"time_played": 167.34374999999966, "midi_note": 57, "frequency": 220, "note_held": 0.1497395833333428, "velocity": 70, "channel": 1}, {"time_played": 167.34374999999966, "midi_note": 60, "frequency": 261.63, "note_held": 0.1497395833333428, "velocity": 70, "channel": 1}, {"time_played": 167.34374999999966, "midi_note": 64, "frequency": 329.63, "note_held": 0.1497395833333428, "velocity": 70, "channel": 1}, {"time_played": 167.34374999999966, "midi_note": 69, "frequency": 440, "note_held": 0.006510416666666667, "velocity": 70, "channel": 1}, {"time_played": 167.49999999999966, "midi_note": 65, "frequency": 349.23, "note_held": 0.3059895833333428, "velocity": 100, "channel": 1}, {"time_played": 167.49999999999966, "midi_note": 60, "frequency": 261.63, "note_held": 0.3059895833333428, "velocity": 100, "channel": 1}, {"time_played": 167.49999999999966, "midi_note": 57, "frequency": 220, "note_held": 0.3059895833333428, "velocity": 100, "channel": 1}, {"time_played": 167.49999999999966, "midi_note": 53, "frequency": 174.61, "note_held": 0.3059895833333428, "velocity": 100, "channel": 1}, {"time_played": 167.49999999999966, "midi_note": 48, "frequency": 130.81, "note_held": 0.3059895833333428, "velocity": 100, "channel": 1}, {"time_played": 167.49999999999966, "midi_note": 41, "frequency": 87.31, "note_held": 0.006510416666666667, "velocity": 100, "channel": 1}, {"time_played": 167.81249999999966, "midi_note": 53, "frequency": 174.61, "note_held": 0.14973958333331439, "velocity": 70, "channel": 1}, {"time_played": 167.81249999999966, "midi_note": 57, "frequency": 220, "note_held": 0.14973958333331439, "velocity": 70, "channel": 1}, {"time_played": 167.81249999999966, "midi_note": 60, "frequency": 261.63, "note_held": 0.14973958333331439, "velocity": 70, "channel": 1}, {"time_played": 167.81249999999966, "midi_note": 65, "frequency": 349.23, "note_held": 0.006510416666666667, "velocity": 70, "channel": 1}, {"time_played": 167.96874999999963, "midi_note": 65, "frequency": 349.23, "note_held": 0.3059895833333428, "velocity": 80, "channel": 1}, {"time_played": 167.96874999999963, "midi_note": 60, "frequency": 261.63, "note_held": 0.3059895833333428, "velocity": 80, "channel": 1}, {"time_played": 167.96874999999963, "midi_note": 57, "frequency": 220, "note_held": 0.3059895833333428, "velocity": 80, "channel": 1}, {"time_played": 167.96874999999963, "midi_note": 53, "frequency": 174.61, "note_held": 0.3059895833333428, "velocity": 80, "channel": 1}, {"time_played": 167.96874999999963, "midi_note": 48, "frequency": 130.81, "note_held": 0.006510416666666667, "velocity": 80, "channel": 1}, {"time_played": 168.12499999999963, "midi_note": 65, "frequency": 349.23, "note_held": 0.1497395833333428, "velocity": 80, "channel": 1}, {"time_played": 168.12499999999963, "midi_note": 60, "frequency": 261.63, "note_held": 0.1497395833333428, "velocity": 80, "channel": 1}, {"time_played": 168.12499999999963, "midi_note": 57, "frequency": 220, "note_held": 0.1497395833333428, "velocity": 80, "channel": 1}, {"time_played": 168.12499999999963, "midi_note": 53, "frequency": 174.61, "note_held": 0.1497395833333428, "velocity": 80, "channel": 1}, {"time_played": 168.12499999999963, "midi_note": 48, "frequency": 130.81, "note_held": 0.1497395833333428, "velocity": 80, "channel": 1}, {"time_played": 168.12499999999963, "midi_note": 41, "frequency": 87.31, "note_held": 0.09114583333333334, "velocity": 80, "channel": 1}, {"time_played": 168.43749999999963, "midi_note": 65, "frequency": 349.23, "note_held": 0.3059895833333428, "velocity": 100, "channel": 1}, {"time_played": 168.43749999999963, "midi_note": 60, "frequency": 261.63, "note_held": 0.3059895833333428, "velocity": 100, "channel": 1}, {"time_played": 168.43749999999963, "midi_note": 57, "frequency": 220, "note_held": 0.3059895833333428, "velocity": 100, "channel": 1}, {"time_played": 168.43749999999963, "midi_note": 53, "frequency": 174.61, "note_held": 0.3059895833333428, "velocity": 100, "channel": 1}, {"time_played": 168.43749999999963, "midi_note": 48, "frequency": 130.81, "note_held": 0.3059895833333428, "velocity": 100, "channel": 1}, {"time_played": 168.43749999999963, "midi_note": 41, "frequency": 87.31, "note_held": 0.006510416666666667, "velocity": 100, "channel": 1}, {"time_played": 168.74999999999963, "midi_note": 53, "frequency": 174.61, "note_held": 0.1497395833333428, "velocity": 70, "channel": 1}, {"time_played": 168.74999999999963, "midi_note": 57, "frequency": 220, "note_held": 0.1497395833333428, "velocity": 70, "channel": 1}, {"time_played": 168.74999999999963, "midi_note": 60, "frequency": 261.63, "note_held": 0.1497395833333428, "velocity": 70, "channel": 1}, {"time_played": 168.74999999999963, "midi_note": 65, "frequency": 349.23, "note_held": 0.006510416666666667, "velocity": 70, "channel": 1}, {"time_played": 168.90624999999963, "midi_note": 65, "frequency": 349.23, "note_held": 0.30598958333328596, "velocity": 80, "channel": 1}, {"time_played": 168.90624999999963, "midi_note": 60, "frequency": 261.63, "note_held": 0.30598958333328596, "velocity": 80, "channel": 1}, {"time_played": 168.90624999999963, "midi_note": 57, "frequency": 220, "note_held": 0.30598958333328596, "velocity": 80, "channel": 1}, {"time_played": 168.90624999999963, "midi_note": 53, "frequency": 174.61, "note_held": 0.30598958333328596, "velocity": 80, "channel": 1}, {"time_played": 168.90624999999963, "midi_note": 48, "frequency": 130.81, "note_held": 0.006510416666666667, "velocity": 80, "channel": 1}, {"time_played": 169.0624999999996, "midi_note": 65, "frequency": 349.23, "note_held": 0.14973958333331439, "velocity": 80, "channel": 1}, {"time_played": 169.0624999999996, "midi_note": 60, "frequency": 261.63, "note_held": 0.14973958333331439, "velocity": 80, "channel": 1}, {"time_played": 169.0624999999996, "midi_note": 57, "frequency": 220, "note_held": 0.14973958333331439, "velocity": 80, "channel": 1}, {"time_played": 169.0624999999996, "midi_note": 53, "frequency": 174.61, "note_held": 0.14973958333331439, "velocity": 80, "channel": 1}, {"time_played": 169.0624999999996, "midi_note": 48, "frequency": 130.81, "note_held": 0.14973958333331439, "velocity": 80, "channel": 1}, {"time_played": 169.0624999999996, "midi_note": 41, "frequency": 87.31, "note_held": 0.006510416666666667, "velocity": 80, "channel": 1}, {"time_played": 169.37499999999957, "midi_note": 65, "frequency": 349.23, "note_held": 0.3059895833333144, "velocity": 100, "channel": 1}, {"time_played": 169.37499999999957, "midi_note": 60, "frequency": 261.63, "note_held": 0.3059895833333144, "velocity": 100, "channel": 1}, {"time_played": 169.37499999999957, "midi_note": 57, "frequency": 220, "note_held": 0.3059895833333144, "velocity": 100, "channel": 1}, {"time_played": 169.37499999999957, "midi_note": 53, "frequency": 174.61, "note_held": 0.3059895833333144, "velocity": 100, "channel": 1}, {"time_played": 169.37499999999957, "midi_note": 48, "frequency": 130.81, "note_held": 0.3059895833333144, "velocity": 100, "channel": 1}, {"time_played": 169.37499999999957, "midi_note": 41, "frequency": 87.31, "note_held": 0.006510416666666667, "velocity": 100, "channel": 1}, {"time_played": 169.53124999999955, "midi_note": 65, "frequency": 349.23, "note_held": 0.1497395833333428, "velocity": 64, "channel": 1}, {"time_played": 169.53124999999955, "midi_note": 60, "frequency": 261.63, "note_held": 0.1497395833333428, "velocity": 64, "channel": 1}, {"time_played": 169.53124999999955, "midi_note": 57, "frequency": 220, "note_held": 0.1497395833333428, "velocity": 64, "channel": 1}, {"time_played": 169.53124999999955, "midi_note": 53, "frequency": 174.61, "note_held": 0.006510416666666667, "velocity": 64, "channel": 1}, {"time_played": 169.68749999999955, "midi_note": 57, "frequency": 220, "note_held": 0.1497395833333428, "velocity": 56, "channel": 1}, {"time_played": 169.68749999999955, "midi_note": 60, "frequency": 261.63, "note_held": 0.1497395833333428, "velocity": 56, "channel": 1}, {"time_played": 169.68749999999955, "midi_note": 65, "frequency": 349.23, "note_held": 0.006510416666666667, "velocity": 56, "channel": 1}, {"time_played": 169.84374999999955, "midi_note": 53, "frequency": 174.61, "note_held": 0.14973958333331439, "velocity": 70, "channel": 1}, {"time_played": 169.84374999999955, "midi_note": 57, "frequency": 220, "note_held": 0.14973958333331439, "velocity": 70, "channel": 1}, {"time_played": 169.84374999999955, "midi_note": 60, "frequency": 261.63, "note_held": 0.14973958333331439, "velocity": 70, "channel": 1}, {"time_played": 169.84374999999955, "midi_note": 65, "frequency": 349.23, "note_held": 0.006510416666666667, "velocity": 70, "channel": 1}, {"time_played": 169.99999999999952, "midi_note": 69, "frequency": 440, "note_held": 0.3059895833333144, "velocity": 100, "channel": 1}, {"time_played": 169.99999999999952, "midi_note": 64, "frequency": 329.63, "note_held": 0.3059895833333144, "velocity": 100, "channel": 1}, {"time_played": 169.99999999999952, "midi_note": 60, "frequency": 261.63, "note_held": 0.3059895833333144, "velocity": 100, "channel": 1}, {"time_played": 169.99999999999952, "midi_note": 57, "frequency": 220, "note_held": 0.3059895833333144, "velocity": 100, "channel": 1}, {"time_played": 169.99999999999952, "midi_note": 52, "frequency": 164.81, "note_held": 0.3059895833333144, "velocity": 100, "channel": 1}, {"time_played": 169.99999999999952, "midi_note": 45, "frequency": 110, "note_held": 0.006510416666666667, "velocity": 100, "channel": 1}, {"time_played": 170.3124999999995, "midi_note": 57, "frequency": 220, "note_held": 0.14973958333331439, "velocity": 70, "channel": 1}, {"time_played": 170.3124999999995, "midi_note": 60, "frequency": 261.63, "note_held": 0.14973958333331439, "velocity": 70, "channel": 1}, {"time_played": 170.3124999999995, "midi_note": 64, "frequency": 329.63, "note_held": 0.14973958333331439, "velocity": 70, "channel": 1}, {"time_played": 170.3124999999995, "midi_note": 69, "frequency": 440, "note_held": 0.006510416666666667, "velocity": 70, "channel": 1}, {"time_played": 170.46874999999946, "midi_note": 69, "frequency": 440, "note_held": 0.3059895833333428, "velocity": 80, "channel": 1}, {"time_played": 170.46874999999946, "midi_note": 64, "frequency": 329.63, "note_held": 0.3059895833333428, "velocity": 80, "channel": 1}, {"time_played": 170.46874999999946, "midi_note": 60, "frequency": 261.63, "note_held": 0.3059895833333428, "velocity": 80, "channel": 1}, {"time_played": 170.46874999999946, "midi_note": 57, "frequency": 220, "note_held": 0.3059895833333428, "velocity": 80, "channel": 1}, {"time_played": 170.46874999999946, "midi_note": 52, "frequency": 164.81, "note_held": 0.006510416666666667, "velocity": 80, "channel": 1}, {"time_played": 170.62499999999946, "midi_note": 69, "frequency": 440, "note_held": 0.1497395833333428, "velocity": 80, "channel": 1}, {"time_played": 170.62499999999946, "midi_note": 64, "frequency": 329.63, "note_held": 0.1497395833333428, "velocity": 80, "channel": 1}, {"time_played": 170.62499999999946, "midi_note": 60, "frequency": 261.63, "note_held": 0.1497395833333428, "velocity": 80, "channel": 1}, {"time_played": 170.62499999999946, "midi_note": 57, "frequency": 220, "note_held": 0.1497395833333428, "velocity": 80, "channel": 1}, {"time_played": 170.62499999999946, "midi_note": 52, "frequency": 164.81, "note_held": 0.1497395833333428, "velocity": 80, "channel": 1}, {"time_played": 170.62499999999946, "midi_note": 45, "frequency": 110, "note_held": 0.078125, "velocity": 80, "channel": 1}, {"time_played": 170.93749999999943, "midi_note": 69, "frequency": 440, "note_held": 0.3059895833333144, "velocity": 100, "channel": 1}, {"time_played": 170.93749999999943, "midi_note": 64, "frequency": 329.63, "note_held": 0.3059895833333144, "velocity": 100, "channel": 1}, {"time_played": 170.93749999999943, "midi_note": 60, "frequency": 261.63, "note_held": 0.3059895833333144, "velocity": 100, "channel": 1}, {"time_played": 170.93749999999943, "midi_note": 57, "frequency": 220, "note_held": 0.3059895833333144, "velocity": 100, "channel": 1}, {"time_played": 170.93749999999943, "midi_note": 52, "frequency": 164.81, "note_held": 0.3059895833333144, "velocity": 100, "channel": 1}, {"time_played": 170.93749999999943, "midi_note": 45, "frequency": 110, "note_held": 0.006510416666666667, "velocity": 100, "channel": 1}, {"time_played": 171.2499999999994, "midi_note": 57, "frequency": 220, "note_held": 0.1497395833333428, "velocity": 70, "channel": 1}, {"time_played": 171.2499999999994, "midi_note": 60, "frequency": 261.63, "note_held": 0.1497395833333428, "velocity": 70, "channel": 1}, {"time_played": 171.2499999999994, "midi_note": 64, "frequency": 329.63, "note_held": 0.1497395833333428, "velocity": 70, "channel": 1}, {"time_played": 171.2499999999994, "midi_note": 69, "frequency": 440, "note_held": 0.006510416666666667, "velocity": 70, "channel": 1}, {"time_played": 171.4062499999994, "midi_note": 69, "frequency": 440, "note_held": 0.30598958333325754, "velocity": 104, "channel": 1}, {"time_played": 171.4062499999994, "midi_note": 64, "frequency": 329.63, "note_held": 0.30598958333325754, "velocity": 80, "channel": 1}, {"time_played": 171.4062499999994, "midi_note": 60, "frequency": 261.63, "note_held": 0.30598958333325754, "velocity": 80, "channel": 1}, {"time_played": 171.4062499999994, "midi_note": 57, "frequency": 220, "note_held": 0.30598958333325754, "velocity": 80, "channel": 1}, {"time_played": 171.4062499999994, "midi_note": 52, "frequency": 164.81, "note_held": 0.006510416666666667, "velocity": 80, "channel": 1}, {"time_played": 171.56249999999935, "midi_note": 69, "frequency": 440, "note_held": 0.14973958333331439, "velocity": 80, "channel": 1}, {"time_played": 171.56249999999935, "midi_note": 64, "frequency": 329.63, "note_held": 0.14973958333331439, "velocity": 80, "channel": 1}, {"time_played": 171.56249999999935, "midi_note": 60, "frequency": 261.63, "note_held": 0.14973958333331439, "velocity": 80, "channel": 1}, {"time_played": 171.56249999999935, "midi_note": 57, "frequency": 220, "note_held": 0.14973958333331439, "velocity": 80, "channel": 1}, {"time_played": 171.56249999999935, "midi_note": 52, "frequency": 164.81, "note_held": 0.14973958333331439, "velocity": 80, "channel": 1}, {"time_played": 171.56249999999935, "midi_note": 45, "frequency": 110, "note_held": 0.006510416666666667, "velocity": 80, "channel": 1}, {"time_played": 171.87499999999932, "midi_note": 69, "frequency": 440, "note_held": 0.3059895833333144, "velocity": 100, "channel": 1}, {"time_played": 171.87499999999932, "midi_note": 64, "frequency": 329.63, "note_held": 0.3059895833333144, "velocity": 100, "channel": 1}, {"time_played": 171.87499999999932, "midi_note": 60, "frequency": 261.63, "note_held": 0.3059895833333144, "velocity": 100, "channel": 1}, {"time_played": 171.87499999999932, "midi_note": 57, "frequency": 220, "note_held": 0.3059895833333144, "velocity": 100, "channel": 1}, {"time_played": 171.87499999999932, "midi_note": 52, "frequency": 164.81, "note_held": 0.3059895833333144, "velocity": 100, "channel": 1}, {"time_played": 171.87499999999932, "midi_note": 45, "frequency": 110, "note_held": 0.006510416666666667, "velocity": 100, "channel": 1}, {"time_played": 172.1874999999993, "midi_note": 60, "frequency": 261.63, "note_held": 0.1497395833333428, "velocity": 70, "channel": 1}, {"time_played": 172.1874999999993, "midi_note": 64, "frequency": 329.63, "note_held": 0.1497395833333428, "velocity": 70, "channel": 1}, {"time_played": 172.1874999999993, "midi_note": 69, "frequency": 440, "note_held": 0.006510416666666667, "velocity": 70, "channel": 1}, {"time_played": 172.3437499999993, "midi_note": 57, "frequency": 220, "note_held": 0.1497395833333428, "velocity": 70, "channel": 1}, {"time_played": 172.3437499999993, "midi_note": 60, "frequency": 261.63, "note_held": 0.1497395833333428, "velocity": 70, "channel": 1}, {"time_played": 172.3437499999993, "midi_note": 64, "frequency": 329.63, "note_held": 0.1497395833333428, "velocity": 70, "channel": 1}, {"time_played": 172.3437499999993, "midi_note": 69, "frequency": 440, "note_held": 0.006510416666666667, "velocity": 70, "channel": 1}, {"time_played": 172.4999999999993, "midi_note": 65, "frequency": 349.23, "note_held": 0.3059895833333144, "velocity": 100, "channel": 1}, {"time_played": 172.4999999999993, "midi_note": 60, "frequency": 261.63, "note_held": 0.3059895833333144, "velocity": 100, "channel": 1}, {"time_played": 172.4999999999993, "midi_note": 57, "frequency": 220, "note_held": 0.3059895833333144, "velocity": 100, "channel": 1}, {"time_played": 172.4999999999993, "midi_note": 53, "frequency": 174.61, "note_held": 0.3059895833333144, "velocity": 100, "channel": 1}, {"time_played": 172.4999999999993, "midi_note": 48, "frequency": 130.81, "note_held": 0.3059895833333144, "velocity": 100, "channel": 1}, {"time_played": 172.4999999999993, "midi_note": 41, "frequency": 87.31, "note_held": 0.006510416666666667, "velocity": 100, "channel": 1}, {"time_played": 172.81249999999926, "midi_note": 53, "frequency": 174.61, "note_held": 0.14973958333331439, "velocity": 70, "channel": 1}, {"time_played": 172.81249999999926, "midi_note": 57, "frequency": 220, "note_held": 0.14973958333331439, "velocity": 70, "channel": 1}, {"time_played": 172.81249999999926, "midi_note": 60, "frequency": 261.63, "note_held": 0.14973958333331439, "velocity": 70, "channel": 1}, {"time_played": 172.81249999999926, "midi_note": 65, "frequency": 349.23, "note_held": 0.006510416666666667, "velocity": 70, "channel": 1}, {"time_played": 172.96874999999923, "midi_note": 65, "frequency": 349.23, "note_held": 0.3059895833333428, "velocity": 94, "channel": 1}, {"time_played": 172.96874999999923, "midi_note": 60, "frequency": 261.63, "note_held": 0.3059895833333428, "velocity": 80, "channel": 1}, {"time_played": 172.96874999999923, "midi_note": 57, "frequency": 220, "note_held": 0.3059895833333428, "velocity": 80, "channel": 1}, {"time_played": 172.96874999999923, "midi_note": 53, "frequency": 174.61, "note_held": 0.3059895833333428, "velocity": 80, "channel": 1}, {"time_played": 172.96874999999923, "midi_note": 48, "frequency": 130.81, "note_held": 0.006510416666666667, "velocity": 80, "channel": 1}, {"time_played": 173.12499999999923, "midi_note": 65, "frequency": 349.23, "note_held": 0.1497395833333428, "velocity": 86, "channel": 1}, {"time_played": 173.12499999999923, "midi_note": 60, "frequency": 261.63, "note_held": 0.1497395833333428, "velocity": 80, "channel": 1}, {"time_played": 173.12499999999923, "midi_note": 57, "frequency": 220, "note_held": 0.1497395833333428, "velocity": 80, "channel": 1}, {"time_played": 173.12499999999923, "midi_note": 53, "frequency": 174.61, "note_held": 0.1497395833333428, "velocity": 80, "channel": 1}, {"time_played": 173.12499999999923, "midi_note": 48, "frequency": 130.81, "note_held": 0.1497395833333428, "velocity": 80, "channel": 1}, {"time_played": 173.12499999999923, "midi_note": 41, "frequency": 87.31, "note_held": 0.09114583333333334, "velocity": 84, "channel": 1}, {"time_played": 173.43749999999923, "midi_note": 65, "frequency": 349.23, "note_held": 0.3059895833333428, "velocity": 100, "channel": 1}, {"time_played": 173.43749999999923, "midi_note": 60, "frequency": 261.63, "note_held": 0.3059895833333428, "velocity": 100, "channel": 1}, {"time_played": 173.43749999999923, "midi_note": 57, "frequency": 220, "note_held": 0.3059895833333428, "velocity": 100, "channel": 1}, {"time_played": 173.43749999999923, "midi_note": 53, "frequency": 174.61, "note_held": 0.3059895833333428, "velocity": 100, "channel": 1}, {"time_played": 173.43749999999923, "midi_note": 48, "frequency": 130.81, "note_held": 0.3059895833333428, "velocity": 100, "channel": 1}, {"time_played": 173.43749999999923, "midi_note": 41, "frequency": 87.31, "note_held": 0.006510416666666667, "velocity": 100, "channel": 1}, {"time_played": 173.74999999999923, "midi_note": 53, "frequency": 174.61, "note_held": 0.1497395833333428, "velocity": 70, "channel": 1}, {"time_played": 173.74999999999923, "midi_note": 57, "frequency": 220, "note_held": 0.1497395833333428, "velocity": 70, "channel": 1}, {"time_played": 173.74999999999923, "midi_note": 60, "frequency": 261.63, "note_held": 0.1497395833333428, "velocity": 70, "channel": 1}, {"time_played": 173.74999999999923, "midi_note": 65, "frequency": 349.23, "note_held": 0.006510416666666667, "velocity": 70, "channel": 1}, {"time_played": 173.90624999999923, "midi_note": 65, "frequency": 349.23, "note_held": 0.3059895833333144, "velocity": 97, "channel": 1}, {"time_played": 173.90624999999923, "midi_note": 60, "frequency": 261.63, "note_held": 0.3059895833333144, "velocity": 80, "channel": 1}, {"time_played": 173.90624999999923, "midi_note": 57, "frequency": 220, "note_held": 0.3059895833333144, "velocity": 80, "channel": 1}, {"time_played": 173.90624999999923, "midi_note": 53, "frequency": 174.61, "note_held": 0.3059895833333144, "velocity": 80, "channel": 1}, {"time_played": 173.90624999999923, "midi_note": 48, "frequency": 130.81, "note_held": 0.006510416666666667, "velocity": 80, "channel": 1}, {"time_played": 174.0624999999992, "midi_note": 65, "frequency": 349.23, "note_held": 0.1497395833333428, "velocity": 80, "channel": 1}, {"time_played": 174.0624999999992, "midi_note": 60, "frequency": 261.63, "note_held": 0.1497395833333428, "velocity": 80, "channel": 1}, {"time_played": 174.0624999999992, "midi_note": 57, "frequency": 220, "note_held": 0.1497395833333428, "velocity": 80, "channel": 1}, {"time_played": 174.0624999999992, "midi_note": 53, "frequency": 174.61, "note_held": 0.1497395833333428, "velocity": 80, "channel": 1}, {"time_played": 174.0624999999992, "midi_note": 48, "frequency": 130.81, "note_held": 0.1497395833333428, "velocity": 80, "channel": 1}, {"time_played": 174.0624999999992, "midi_note": 41, "frequency": 87.31, "note_held": 0.006510416666666667, "velocity": 80, "channel": 1}, {"time_played": 174.3749999999992, "midi_note": 65, "frequency": 349.23, "note_held": 0.3059895833333144, "velocity": 100, "channel": 1}, {"time_played": 174.3749999999992, "midi_note": 60, "frequency": 261.63, "note_held": 0.3059895833333144, "velocity": 100, "channel": 1}, {"time_played": 174.3749999999992, "midi_note": 57, "frequency": 220, "note_held": 0.3059895833333144, "velocity": 100, "channel": 1}, {"time_played": 174.3749999999992, "midi_note": 53, "frequency": 174.61, "note_held": 0.3059895833333144, "velocity": 100, "channel": 1}, {"time_played": 174.3749999999992, "midi_note": 48, "frequency": 130.81, "note_held": 0.3059895833333144, "velocity": 100, "channel": 1}, {"time_played": 174.3749999999992, "midi_note": 41, "frequency": 87.31, "note_held": 0.006510416666666667, "velocity": 100, "channel": 1}, {"time_played": 174.53124999999918, "midi_note": 65, "frequency": 349.23, "note_held": 0.1497395833333428, "velocity": 64, "channel": 1}, {"time_played": 174.53124999999918, "midi_note": 60, "frequency": 261.63, "note_held": 0.1497395833333428, "velocity": 64, "channel": 1}, {"time_played": 174.53124999999918, "midi_note": 57, "frequency": 220, "note_held": 0.1497395833333428, "velocity": 64, "channel": 1}, {"time_played": 174.53124999999918, "midi_note": 53, "frequency": 174.61, "note_held": 0.006510416666666667, "velocity": 64, "channel": 1}, {"time_played": 174.68749999999918, "midi_note": 57, "frequency": 220, "note_held": 0.14973958333331439, "velocity": 56, "channel": 1}, {"time_played": 174.68749999999918, "midi_note": 60, "frequency": 261.63, "note_held": 0.14973958333331439, "velocity": 56, "channel": 1}, {"time_played": 174.68749999999918, "midi_note": 65, "frequency": 349.23, "note_held": 0.006510416666666667, "velocity": 56, "channel": 1}, {"time_played": 174.84374999999915, "midi_note": 53, "frequency": 174.61, "note_held": 0.1497395833333428, "velocity": 70, "channel": 1}, {"time_played": 174.84374999999915, "midi_note": 57, "frequency": 220, "note_held": 0.1497395833333428, "velocity": 70, "channel": 1}, {"time_played": 174.84374999999915, "midi_note": 60, "frequency": 261.63, "note_held": 0.1497395833333428, "velocity": 70, "channel": 1}, {"time_played": 174.84374999999915, "midi_note": 65, "frequency": 349.23, "note_held": 0.006510416666666667, "velocity": 70, "channel": 1}, {"time_played": 174.99999999999915, "midi_note": 69, "frequency": 440, "note_held": 0.3059895833333144, "velocity": 100, "channel": 1}, {"time_played": 174.99999999999915, "midi_note": 64, "frequency": 329.63, "note_held": 0.3059895833333144, "velocity": 100, "channel": 1}, {"time_played": 174.99999999999915, "midi_note": 60, "frequency": 261.63, "note_held": 0.3059895833333144, "velocity": 100, "channel": 1}, {"time_played": 174.99999999999915, "midi_note": 57, "frequency": 220, "note_held": 0.3059895833333144, "velocity": 100, "channel": 1}, {"time_played": 174.99999999999915, "midi_note": 52, "frequency": 164.81, "note_held": 0.3059895833333144, "velocity": 100, "channel": 1}, {"time_played": 174.99999999999915, "midi_note": 45, "frequency": 110, "note_held": 0.006510416666666667, "velocity": 100, "channel": 1}, {"time_played": 175.31249999999912, "midi_note": 57, "frequency": 220, "note_held": 0.14973958333331439, "velocity": 70, "channel": 1}, {"time_played": 175.31249999999912, "midi_note": 60, "frequency": 261.63, "note_held": 0.14973958333331439, "velocity": 70, "channel": 1}, {"time_played": 175.31249999999912, "midi_note": 64, "frequency": 329.63, "note_held": 0.14973958333331439, "velocity": 70, "channel": 1}, {"time_played": 175.31249999999912, "midi_note": 69, "frequency": 440, "note_held": 0.006510416666666667, "velocity": 70, "channel": 1}, {"time_played": 175.4687499999991, "midi_note": 69, "frequency": 440, "note_held": 0.3059895833333428, "velocity": 80, "channel": 1}, {"time_played": 175.4687499999991, "midi_note": 64, "frequency": 329.63, "note_held": 0.3059895833333428, "velocity": 80, "channel": 1}, {"time_played": 175.4687499999991, "midi_note": 60, "frequency": 261.63, "note_held": 0.3059895833333428, "velocity": 80, "channel": 1}, {"time_played": 175.4687499999991, "midi_note": 57, "frequency": 220, "note_held": 0.3059895833333428, "velocity": 80, "channel": 1}, {"time_played": 175.4687499999991, "midi_note": 52, "frequency": 164.81, "note_held": 0.006510416666666667, "velocity": 80, "channel": 1}, {"time_played": 175.6249999999991, "midi_note": 69, "frequency": 440, "note_held": 0.1497395833333428, "velocity": 80, "channel": 1}, {"time_played": 175.6249999999991, "midi_note": 64, "frequency": 329.63, "note_held": 0.1497395833333428, "velocity": 80, "channel": 1}, {"time_played": 175.6249999999991, "midi_note": 60, "frequency": 261.63, "note_held": 0.1497395833333428, "velocity": 80, "channel": 1}, {"time_played": 175.6249999999991, "midi_note": 57, "frequency": 220, "note_held": 0.1497395833333428, "velocity": 80, "channel": 1}, {"time_played": 175.6249999999991, "midi_note": 52, "frequency": 164.81, "note_held": 0.1497395833333428, "velocity": 80, "channel": 1}, {"time_played": 175.6249999999991, "midi_note": 45, "frequency": 110, "note_held": 0.078125, "velocity": 80, "channel": 1}, {"time_played": 175.93749999999906, "midi_note": 69, "frequency": 440, "note_held": 0.3059895833333428, "velocity": 100, "channel": 1}, {"time_played": 175.93749999999906, "midi_note": 64, "frequency": 329.63, "note_held": 0.3059895833333428, "velocity": 100, "channel": 1}, {"time_played": 175.93749999999906, "midi_note": 60, "frequency": 261.63, "note_held": 0.3059895833333428, "velocity": 100, "channel": 1}, {"time_played": 175.93749999999906, "midi_note": 57, "frequency": 220, "note_held": 0.3059895833333428, "velocity": 100, "channel": 1}, {"time_played": 175.93749999999906, "midi_note": 52, "frequency": 164.81, "note_held": 0.3059895833333428, "velocity": 100, "channel": 1}, {"time_played": 175.93749999999906, "midi_note": 45, "frequency": 110, "note_held": 0.006510416666666667, "velocity": 100, "channel": 1}, {"time_played": 176.24999999999906, "midi_note": 57, "frequency": 220, "note_held": 0.1497395833333428, "velocity": 70, "channel": 1}, {"time_played": 176.24999999999906, "midi_note": 60, "frequency": 261.63, "note_held": 0.1497395833333428, "velocity": 70, "channel": 1}, {"time_played": 176.24999999999906, "midi_note": 64, "frequency": 329.63, "note_held": 0.1497395833333428, "velocity": 70, "channel": 1}, {"time_played": 176.24999999999906, "midi_note": 69, "frequency": 440, "note_held": 0.006510416666666667, "velocity": 70, "channel": 1}, {"time_played": 176.40624999999906, "midi_note": 69, "frequency": 440, "note_held": 0.30598958333328596, "velocity": 80, "channel": 1}, {"time_played": 176.40624999999906, "midi_note": 64, "frequency": 329.63, "note_held": 0.30598958333328596, "velocity": 80, "channel": 1}, {"time_played": 176.40624999999906, "midi_note": 60, "frequency": 261.63, "note_held": 0.30598958333328596, "velocity": 80, "channel": 1}, {"time_played": 176.40624999999906, "midi_note": 57, "frequency": 220, "note_held": 0.30598958333328596, "velocity": 80, "channel": 1}, {"time_played": 176.40624999999906, "midi_note": 52, "frequency": 164.81, "note_held": 0.006510416666666667, "velocity": 80, "channel": 1}, {"time_played": 176.56249999999903, "midi_note": 69, "frequency": 440, "note_held": 0.14973958333331439, "velocity": 80, "channel": 1}, {"time_played": 176.56249999999903, "midi_note": 64, "frequency": 329.63, "note_held": 0.14973958333331439, "velocity": 80, "channel": 1}, {"time_played": 176.56249999999903, "midi_note": 60, "frequency": 261.63, "note_held": 0.14973958333331439, "velocity": 80, "channel": 1}, {"time_played": 176.56249999999903, "midi_note": 57, "frequency": 220, "note_held": 0.14973958333331439, "velocity": 80, "channel": 1}, {"time_played": 176.56249999999903, "midi_note": 52, "frequency": 164.81, "note_held": 0.14973958333331439, "velocity": 80, "channel": 1}, {"time_played": 176.56249999999903, "midi_note": 45, "frequency": 110, "note_held": 0.006510416666666667, "velocity": 80, "channel": 1}, {"time_played": 176.874999999999, "midi_note": 69, "frequency": 440, "note_held": 0.3059895833333144, "velocity": 100, "channel": 1}, {"time_played": 176.874999999999, "midi_note": 64, "frequency": 329.63, "note_held": 0.3059895833333144, "velocity": 100, "channel": 1}, {"time_played": 176.874999999999, "midi_note": 60, "frequency": 261.63, "note_held": 0.3059895833333144, "velocity": 100, "channel": 1}, {"time_played": 176.874999999999, "midi_note": 57, "frequency": 220, "note_held": 0.3059895833333144, "velocity": 100, "channel": 1}, {"time_played": 176.874999999999, "midi_note": 52, "frequency": 164.81, "note_held": 0.3059895833333144, "velocity": 100, "channel": 1}, {"time_played": 176.874999999999, "midi_note": 45, "frequency": 110, "note_held": 0.006510416666666667, "velocity": 100, "channel": 1}, {"time_played": 177.18749999999898, "midi_note": 60, "frequency": 261.63, "note_held": 0.1497395833333428, "velocity": 70, "channel": 1}, {"time_played": 177.18749999999898, "midi_note": 64, "frequency": 329.63, "note_held": 0.1497395833333428, "velocity": 70, "channel": 1}, {"time_played": 177.18749999999898, "midi_note": 69, "frequency": 440, "note_held": 0.006510416666666667, "velocity": 70, "channel": 1}, {"time_played": 177.34374999999898, "midi_note": 57, "frequency": 220, "note_held": 0.1497395833333428, "velocity": 70, "channel": 1}, {"time_played": 177.34374999999898, "midi_note": 60, "frequency": 261.63, "note_held": 0.1497395833333428, "velocity": 70, "channel": 1}, {"time_played": 177.34374999999898, "midi_note": 64, "frequency": 329.63, "note_held": 0.1497395833333428, "velocity": 70, "channel": 1}, {"time_played": 177.34374999999898, "midi_note": 69, "frequency": 440, "note_held": 0.006510416666666667, "velocity": 70, "channel": 1}, {"time_played": 177.49999999999898, "midi_note": 65, "frequency": 349.23, "note_held": 0.3059895833333428, "velocity": 100, "channel": 1}, {"time_played": 177.49999999999898, "midi_note": 60, "frequency": 261.63, "note_held": 0.3059895833333428, "velocity": 100, "channel": 1}, {"time_played": 177.49999999999898, "midi_note": 57, "frequency": 220, "note_held": 0.3059895833333428, "velocity": 100, "channel": 1}, {"time_played": 177.49999999999898, "midi_note": 53, "frequency": 174.61, "note_held": 0.3059895833333428, "velocity": 100, "channel": 1}, {"time_played": 177.49999999999898, "midi_note": 48, "frequency": 130.81, "note_held": 0.3059895833333428, "velocity": 100, "channel": 1}, {"time_played": 177.49999999999898, "midi_note": 41, "frequency": 87.31, "note_held": 0.006510416666666667, "velocity": 100, "channel": 1}, {"time_played": 177.81249999999898, "midi_note": 53, "frequency": 174.61, "note_held": 0.14973958333331439, "velocity": 70, "channel": 1}, {"time_played": 177.81249999999898, "midi_note": 57, "frequency": 220, "note_held": 0.14973958333331439, "velocity": 70, "channel": 1}, {"time_played": 177.81249999999898, "midi_note": 60, "frequency": 261.63, "note_held": 0.14973958333331439, "velocity": 70, "channel": 1}, {"time_played": 177.81249999999898, "midi_note": 65, "frequency": 349.23, "note_held": 0.006510416666666667, "velocity": 70, "channel": 1}, {"time_played": 177.96874999999895, "midi_note": 65, "frequency": 349.23, "note_held": 0.3059895833333144, "velocity": 80, "channel": 1}, {"time_played": 177.96874999999895, "midi_note": 60, "frequency": 261.63, "note_held": 0.3059895833333144, "velocity": 80, "channel": 1}, {"time_played": 177.96874999999895, "midi_note": 57, "frequency": 220, "note_held": 0.3059895833333144, "velocity": 80, "channel": 1}, {"time_played": 177.96874999999895, "midi_note": 53, "frequency": 174.61, "note_held": 0.3059895833333144, "velocity": 80, "channel": 1}, {"time_played": 177.96874999999895, "midi_note": 48, "frequency": 130.81, "note_held": 0.006510416666666667, "velocity": 80, "channel": 1}, {"time_played": 178.12499999999895, "midi_note": 65, "frequency": 349.23, "note_held": 0.14973958333331439, "velocity": 80, "channel": 1}, {"time_played": 178.12499999999895, "midi_note": 60, "frequency": 261.63, "note_held": 0.14973958333331439, "velocity": 80, "channel": 1}, {"time_played": 178.12499999999895, "midi_note": 57, "frequency": 220, "note_held": 0.14973958333331439, "velocity": 80, "channel": 1}, {"time_played": 178.12499999999895, "midi_note": 53, "frequency": 174.61, "note_held": 0.14973958333331439, "velocity": 80, "channel": 1}, {"time_played": 178.12499999999895, "midi_note": 48, "frequency": 130.81, "note_held": 0.14973958333331439, "velocity": 80, "channel": 1}, {"time_played": 178.12499999999895, "midi_note": 41, "frequency": 87.31, "note_held": 0.09114583333333334, "velocity": 80, "channel": 1}, {"time_played": 178.43749999999892, "midi_note": 65, "frequency": 349.23, "note_held": 0.3059895833333144, "velocity": 100, "channel": 1}, {"time_played": 178.43749999999892, "midi_note": 60, "frequency": 261.63, "note_held": 0.3059895833333144, "velocity": 100, "channel": 1}, {"time_played": 178.43749999999892, "midi_note": 57, "frequency": 220, "note_held": 0.3059895833333144, "velocity": 100, "channel": 1}, {"time_played": 178.43749999999892, "midi_note": 53, "frequency": 174.61, "note_held": 0.3059895833333144, "velocity": 100, "channel": 1}, {"time_played": 178.43749999999892, "midi_note": 48, "frequency": 130.81, "note_held": 0.3059895833333144, "velocity": 100, "channel": 1}, {"time_played": 178.43749999999892, "midi_note": 41, "frequency": 87.31, "note_held": 0.006510416666666667, "velocity": 100, "channel": 1}, {"time_played": 178.7499999999989, "midi_note": 53, "frequency": 174.61, "note_held": 0.14973958333331439, "velocity": 70, "channel": 1}, {"time_played": 178.7499999999989, "midi_note": 57, "frequency": 220, "note_held": 0.14973958333331439, "velocity": 70, "channel": 1}, {"time_played": 178.7499999999989, "midi_note": 60, "frequency": 261.63, "note_held": 0.14973958333331439, "velocity": 70, "channel": 1}, {"time_played": 178.7499999999989, "midi_note": 65, "frequency": 349.23, "note_held": 0.006510416666666667, "velocity": 70, "channel": 1}, {"time_played": 178.90624999999886, "midi_note": 65, "frequency": 349.23, "note_held": 0.30598958333328596, "velocity": 80, "channel": 1}, {"time_played": 178.90624999999886, "midi_note": 60, "frequency": 261.63, "note_held": 0.30598958333328596, "velocity": 80, "channel": 1}, {"time_played": 178.90624999999886, "midi_note": 57, "frequency": 220, "note_held": 0.30598958333328596, "velocity": 80, "channel": 1}, {"time_played": 178.90624999999886, "midi_note": 53, "frequency": 174.61, "note_held": 0.30598958333328596, "velocity": 80, "channel": 1}, {"time_played": 178.90624999999886, "midi_note": 48, "frequency": 130.81, "note_held": 0.006510416666666667, "velocity": 80, "channel": 1}, {"time_played": 179.06249999999883, "midi_note": 65, "frequency": 349.23, "note_held": 0.14973958333331439, "velocity": 80, "channel": 1}, {"time_played": 179.06249999999883, "midi_note": 60, "frequency": 261.63, "note_held": 0.14973958333331439, "velocity": 80, "channel": 1}, {"time_played": 179.06249999999883, "midi_note": 57, "frequency": 220, "note_held": 0.14973958333331439, "velocity": 80, "channel": 1}, {"time_played": 179.06249999999883, "midi_note": 53, "frequency": 174.61, "note_held": 0.14973958333331439, "velocity": 80, "channel": 1}, {"time_played": 179.06249999999883, "midi_note": 48, "frequency": 130.81, "note_held": 0.14973958333331439, "velocity": 80, "channel": 1}, {"time_played": 179.06249999999883, "midi_note": 41, "frequency": 87.31, "note_held": 0.006510416666666667, "velocity": 80, "channel": 1}, {"time_played": 179.3749999999988, "midi_note": 65, "frequency": 349.23, "note_held": 0.3059895833333428, "velocity": 100, "channel": 1}, {"time_played": 179.3749999999988, "midi_note": 60, "frequency": 261.63, "note_held": 0.3059895833333428, "velocity": 100, "channel": 1}, {"time_played": 179.3749999999988, "midi_note": 57, "frequency": 220, "note_held": 0.3059895833333428, "velocity": 100, "channel": 1}, {"time_played": 179.3749999999988, "midi_note": 53, "frequency": 174.61, "note_held": 0.3059895833333428, "velocity": 100, "channel": 1}, {"time_played": 179.3749999999988, "midi_note": 48, "frequency": 130.81, "note_held": 0.3059895833333428, "velocity": 100, "channel": 1}, {"time_played": 179.3749999999988, "midi_note": 41, "frequency": 87.31, "note_held": 0.006510416666666667, "velocity": 100, "channel": 1}, {"time_played": 179.5312499999988, "midi_note": 65, "frequency": 349.23, "note_held": 0.1497395833333428, "velocity": 64, "channel": 1}, {"time_played": 179.5312499999988, "midi_note": 60, "frequency": 261.63, "note_held": 0.1497395833333428, "velocity": 64, "channel": 1}, {"time_played": 179.5312499999988, "midi_note": 57, "frequency": 220, "note_held": 0.1497395833333428, "velocity": 64, "channel": 1}, {"time_played": 179.5312499999988, "midi_note": 53, "frequency": 174.61, "note_held": 0.006510416666666667, "velocity": 64, "channel": 1}, {"time_played": 179.6874999999988, "midi_note": 57, "frequency": 220, "note_held": 0.1497395833333428, "velocity": 56, "channel": 1}, {"time_played": 179.6874999999988, "midi_note": 60, "frequency": 261.63, "note_held": 0.1497395833333428, "velocity": 56, "channel": 1}, {"time_played": 179.6874999999988, "midi_note": 65, "frequency": 349.23, "note_held": 0.006510416666666667, "velocity": 56, "channel": 1}, {"time_played": 179.8437499999988, "midi_note": 53, "frequency": 174.61, "note_held": 0.1497395833333428, "velocity": 70, "channel": 1}, {"time_played": 179.8437499999988, "midi_note": 57, "frequency": 220, "note_held": 0.1497395833333428, "velocity": 70, "channel": 1}, {"time_played": 179.8437499999988, "midi_note": 60, "frequency": 261.63, "note_held": 0.1497395833333428, "velocity": 70, "channel": 1}, {"time_played": 179.8437499999988, "midi_note": 65, "frequency": 349.23, "note_held": 0.006510416666666667, "velocity": 70, "channel": 1}, {"time_played": 179.9999999999988, "midi_note": 69, "frequency": 440, "note_held": 0.3059895833333144, "velocity": 100, "channel": 1}, {"time_played": 179.9999999999988, "midi_note": 64, "frequency": 329.63, "note_held": 0.3059895833333144, "velocity": 100, "channel": 1}, {"time_played": 179.9999999999988, "midi_note": 60, "frequency": 261.63, "note_held": 0.3059895833333144, "velocity": 100, "channel": 1}, {"time_played": 179.9999999999988, "midi_note": 57, "frequency": 220, "note_held": 0.3059895833333144, "velocity": 100, "channel": 1}, {"time_played": 179.9999999999988, "midi_note": 52, "frequency": 164.81, "note_held": 0.3059895833333144, "velocity": 100, "channel": 1}, {"time_played": 179.9999999999988, "midi_note": 45, "frequency": 110, "note_held": 0.006510416666666667, "velocity": 100, "channel": 1}, {"time_played": 180.31249999999878, "midi_note": 57, "frequency": 220, "note_held": 0.14973958333331439, "velocity": 70, "channel": 1}, {"time_played": 180.31249999999878, "midi_note": 60, "frequency": 261.63, "note_held": 0.14973958333331439, "velocity": 70, "channel": 1}, {"time_played": 180.31249999999878, "midi_note": 64, "frequency": 329.63, "note_held": 0.14973958333331439, "velocity": 70, "channel": 1}, {"time_played": 180.31249999999878, "midi_note": 69, "frequency": 440, "note_held": 0.006510416666666667, "velocity": 70, "channel": 1}, {"time_played": 180.46874999999875, "midi_note": 69, "frequency": 440, "note_held": 0.3059895833333428, "velocity": 80, "channel": 1}, {"time_played": 180.46874999999875, "midi_note": 64, "frequency": 329.63, "note_held": 0.3059895833333428, "velocity": 80, "channel": 1}, {"time_played": 180.46874999999875, "midi_note": 60, "frequency": 261.63, "note_held": 0.3059895833333428, "velocity": 80, "channel": 1}, {"time_played": 180.46874999999875, "midi_note": 57, "frequency": 220, "note_held": 0.3059895833333428, "velocity": 80, "channel": 1}, {"time_played": 180.46874999999875, "midi_note": 52, "frequency": 164.81, "note_held": 0.006510416666666667, "velocity": 80, "channel": 1}, {"time_played": 180.62499999999875, "midi_note": 69, "frequency": 440, "note_held": 0.1497395833333428, "velocity": 80, "channel": 1}, {"time_played": 180.62499999999875, "midi_note": 64, "frequency": 329.63, "note_held": 0.1497395833333428, "velocity": 80, "channel": 1}, {"time_played": 180.62499999999875, "midi_note": 60, "frequency": 261.63, "note_held": 0.1497395833333428, "velocity": 80, "channel": 1}, {"time_played": 180.62499999999875, "midi_note": 57, "frequency": 220, "note_held": 0.1497395833333428, "velocity": 80, "channel": 1}, {"time_played": 180.62499999999875, "midi_note": 52, "frequency": 164.81, "note_held": 0.1497395833333428, "velocity": 80, "channel": 1}, {"time_played": 180.62499999999875, "midi_note": 45, "frequency": 110, "note_held": 0.026041666666666668, "velocity": 80, "channel": 1}, {"time_played": 180.93749999999875, "midi_note": 69, "frequency": 440, "note_held": 0.3059895833333428, "velocity": 100, "channel": 1}, {"time_played": 180.93749999999875, "midi_note": 64, "frequency": 329.63, "note_held": 0.3059895833333428, "velocity": 100, "channel": 1}, {"time_played": 180.93749999999875, "midi_note": 60, "frequency": 261.63, "note_held": 0.3059895833333428, "velocity": 100, "channel": 1}, {"time_played": 180.93749999999875, "midi_note": 57, "frequency": 220, "note_held": 0.3059895833333428, "velocity": 100, "channel": 1}, {"time_played": 180.93749999999875, "midi_note": 52, "frequency": 164.81, "note_held": 0.3059895833333428, "velocity": 100, "channel": 1}, {"time_played": 180.93749999999875, "midi_note": 45, "frequency": 110, "note_held": 0.006510416666666667, "velocity": 100, "channel": 1}, {"time_played": 181.24999999999875, "midi_note": 57, "frequency": 220, "note_held": 0.1497395833333428, "velocity": 70, "channel": 1}, {"time_played": 181.24999999999875, "midi_note": 60, "frequency": 261.63, "note_held": 0.1497395833333428, "velocity": 70, "channel": 1}, {"time_played": 181.24999999999875, "midi_note": 64, "frequency": 329.63, "note_held": 0.1497395833333428, "velocity": 70, "channel": 1}, {"time_played": 181.24999999999875, "midi_note": 69, "frequency": 440, "note_held": 0.006510416666666667, "velocity": 70, "channel": 1}, {"time_played": 181.40624999999875, "midi_note": 69, "frequency": 440, "note_held": 0.30598958333328596, "velocity": 104, "channel": 1}, {"time_played": 181.40624999999875, "midi_note": 64, "frequency": 329.63, "note_held": 0.30598958333328596, "velocity": 80, "channel": 1}, {"time_played": 181.40624999999875, "midi_note": 60, "frequency": 261.63, "note_held": 0.30598958333328596, "velocity": 80, "channel": 1}, {"time_played": 181.40624999999875, "midi_note": 57, "frequency": 220, "note_held": 0.30598958333328596, "velocity": 80, "channel": 1}, {"time_played": 181.40624999999875, "midi_note": 52, "frequency": 164.81, "note_held": 0.006510416666666667, "velocity": 80, "channel": 1}, {"time_played": 181.56249999999872, "midi_note": 69, "frequency": 440, "note_held": 0.14973958333331439, "velocity": 80, "channel": 1}, {"time_played": 181.56249999999872, "midi_note": 64, "frequency": 329.63, "note_held": 0.14973958333331439, "velocity": 80, "channel": 1}, {"time_played": 181.56249999999872, "midi_note": 60, "frequency": 261.63, "note_held": 0.14973958333331439, "velocity": 80, "channel": 1}, {"time_played": 181.56249999999872, "midi_note": 57, "frequency": 220, "note_held": 0.14973958333331439, "velocity": 80, "channel": 1}, {"time_played": 181.56249999999872, "midi_note": 52, "frequency": 164.81, "note_held": 0.14973958333331439, "velocity": 80, "channel": 1}, {"time_played": 181.56249999999872, "midi_note": 45, "frequency": 110, "note_held": 0.006510416666666667, "velocity": 80, "channel": 1}, {"time_played": 181.8749999999987, "midi_note": 69, "frequency": 440, "note_held": 0.3059895833333144, "velocity": 100, "channel": 1}, {"time_played": 181.8749999999987, "midi_note": 64, "frequency": 329.63, "note_held": 0.3059895833333144, "velocity": 100, "channel": 1}, {"time_played": 181.8749999999987, "midi_note": 60, "frequency": 261.63, "note_held": 0.3059895833333144, "velocity": 100, "channel": 1}, {"time_played": 181.8749999999987, "midi_note": 57, "frequency": 220, "note_held": 0.3059895833333144, "velocity": 100, "channel": 1}, {"time_played": 181.8749999999987, "midi_note": 52, "frequency": 164.81, "note_held": 0.3059895833333144, "velocity": 100, "channel": 1}, {"time_played": 181.8749999999987, "midi_note": 45, "frequency": 110, "note_held": 0.006510416666666667, "velocity": 100, "channel": 1}, {"time_played": 182.18749999999866, "midi_note": 60, "frequency": 261.63, "note_held": 0.1497395833333428, "velocity": 70, "channel": 1}, {"time_played": 182.18749999999866, "midi_note": 64, "frequency": 329.63, "note_held": 0.1497395833333428, "velocity": 70, "channel": 1}, {"time_played": 182.18749999999866, "midi_note": 69, "frequency": 440, "note_held": 0.006510416666666667, "velocity": 70, "channel": 1}, {"time_played": 182.34374999999866, "midi_note": 57, "frequency": 220, "note_held": 0.1497395833333428, "velocity": 70, "channel": 1}, {"time_played": 182.34374999999866, "midi_note": 60, "frequency": 261.63, "note_held": 0.1497395833333428, "velocity": 70, "channel": 1}, {"time_played": 182.34374999999866, "midi_note": 64, "frequency": 329.63, "note_held": 0.1497395833333428, "velocity": 70, "channel": 1}, {"time_played": 182.34374999999866, "midi_note": 69, "frequency": 440, "note_held": 0.006510416666666667, "velocity": 70, "channel": 1}, {"time_played": 182.49999999999866, "midi_note": 65, "frequency": 349.23, "note_held": 0.3059895833333144, "velocity": 100, "channel": 1}, {"time_played": 182.49999999999866, "midi_note": 60, "frequency": 261.63, "note_held": 0.3059895833333144, "velocity": 100, "channel": 1}, {"time_played": 182.49999999999866, "midi_note": 57, "frequency": 220, "note_held": 0.3059895833333144, "velocity": 100, "channel": 1}, {"time_played": 182.49999999999866, "midi_note": 53, "frequency": 174.61, "note_held": 0.3059895833333144, "velocity": 100, "channel": 1}, {"time_played": 182.49999999999866, "midi_note": 48, "frequency": 130.81, "note_held": 0.3059895833333144, "velocity": 100, "channel": 1}, {"time_played": 182.49999999999866, "midi_note": 41, "frequency": 87.31, "note_held": 0.006510416666666667, "velocity": 100, "channel": 1}, {"time_played": 182.81249999999864, "midi_note": 53, "frequency": 174.61, "note_held": 0.14973958333331439, "velocity": 70, "channel": 1}, {"time_played": 182.81249999999864, "midi_note": 57, "frequency": 220, "note_held": 0.14973958333331439, "velocity": 70, "channel": 1}, {"time_played": 182.81249999999864, "midi_note": 60, "frequency": 261.63, "note_held": 0.14973958333331439, "velocity": 70, "channel": 1}, {"time_played": 182.81249999999864, "midi_note": 65, "frequency": 349.23, "note_held": 0.006510416666666667, "velocity": 70, "channel": 1}, {"time_played": 182.9687499999986, "midi_note": 65, "frequency": 349.23, "note_held": 0.3059895833333428, "velocity": 94, "channel": 1}, {"time_played": 182.9687499999986, "midi_note": 60, "frequency": 261.63, "note_held": 0.3059895833333428, "velocity": 80, "channel": 1}, {"time_played": 182.9687499999986, "midi_note": 57, "frequency": 220, "note_held": 0.3059895833333428, "velocity": 80, "channel": 1}, {"time_played": 182.9687499999986, "midi_note": 53, "frequency": 174.61, "note_held": 0.3059895833333428, "velocity": 80, "channel": 1}, {"time_played": 182.9687499999986, "midi_note": 48, "frequency": 130.81, "note_held": 0.006510416666666667, "velocity": 80, "channel": 1}, {"time_played": 183.1249999999986, "midi_note": 65, "frequency": 349.23, "note_held": 0.1497395833333428, "velocity": 86, "channel": 1}, {"time_played": 183.1249999999986, "midi_note": 60, "frequency": 261.63, "note_held": 0.1497395833333428, "velocity": 80, "channel": 1}, {"time_played": 183.1249999999986, "midi_note": 57, "frequency": 220, "note_held": 0.1497395833333428, "velocity": 80, "channel": 1}, {"time_played": 183.1249999999986, "midi_note": 53, "frequency": 174.61, "note_held": 0.1497395833333428, "velocity": 80, "channel": 1}, {"time_played": 183.1249999999986, "midi_note": 48, "frequency": 130.81, "note_held": 0.1497395833333428, "velocity": 80, "channel": 1}, {"time_played": 183.1249999999986, "midi_note": 41, "frequency": 87.31, "note_held": 0.09114583333333334, "velocity": 84, "channel": 1}, {"time_played": 183.4374999999986, "midi_note": 65, "frequency": 349.23, "note_held": 0.3059895833333428, "velocity": 100, "channel": 1}, {"time_played": 183.4374999999986, "midi_note": 60, "frequency": 261.63, "note_held": 0.3059895833333428, "velocity": 100, "channel": 1}, {"time_played": 183.4374999999986, "midi_note": 57, "frequency": 220, "note_held": 0.3059895833333428, "velocity": 100, "channel": 1}, {"time_played": 183.4374999999986, "midi_note": 53, "frequency": 174.61, "note_held": 0.3059895833333428, "velocity": 100, "channel": 1}, {"time_played": 183.4374999999986, "midi_note": 48, "frequency": 130.81, "note_held": 0.3059895833333428, "velocity": 100, "channel": 1}, {"time_played": 183.4374999999986, "midi_note": 41, "frequency": 87.31, "note_held": 0.006510416666666667, "velocity": 100, "channel": 1}, {"time_played": 183.7499999999986, "midi_note": 53, "frequency": 174.61, "note_held": 0.14973958333331439, "velocity": 70, "channel": 1}, {"time_played": 183.7499999999986, "midi_note": 57, "frequency": 220, "note_held": 0.14973958333331439, "velocity": 70, "channel": 1}, {"time_played": 183.7499999999986, "midi_note": 60, "frequency": 261.63, "note_held": 0.14973958333331439, "velocity": 70, "channel": 1}, {"time_played": 183.7499999999986, "midi_note": 65, "frequency": 349.23, "note_held": 0.006510416666666667, "velocity": 70, "channel": 1}, {"time_played": 183.90624999999858, "midi_note": 65, "frequency": 349.23, "note_held": 0.30598958333328596, "velocity": 97, "channel": 1}, {"time_played": 183.90624999999858, "midi_note": 60, "frequency": 261.63, "note_held": 0.30598958333328596, "velocity": 80, "channel": 1}, {"time_played": 183.90624999999858, "midi_note": 57, "frequency": 220, "note_held": 0.30598958333328596, "velocity": 80, "channel": 1}, {"time_played": 183.90624999999858, "midi_note": 53, "frequency": 174.61, "note_held": 0.30598958333328596, "velocity": 80, "channel": 1}, {"time_played": 183.90624999999858, "midi_note": 48, "frequency": 130.81, "note_held": 0.006510416666666667, "velocity": 80, "channel": 1}, {"time_played": 184.06249999999855, "midi_note": 65, "frequency": 349.23, "note_held": 0.14973958333331439, "velocity": 80, "channel": 1}, {"time_played": 184.06249999999855, "midi_note": 60, "frequency": 261.63, "note_held": 0.14973958333331439, "velocity": 80, "channel": 1}, {"time_played": 184.06249999999855, "midi_note": 57, "frequency": 220, "note_held": 0.14973958333331439, "velocity": 80, "channel": 1}, {"time_played": 184.06249999999855, "midi_note": 53, "frequency": 174.61, "note_held": 0.14973958333331439, "velocity": 80, "channel": 1}, {"time_played": 184.06249999999855, "midi_note": 48, "frequency": 130.81, "note_held": 0.14973958333331439, "velocity": 80, "channel": 1}, {"time_played": 184.06249999999855, "midi_note": 41, "frequency": 87.31, "note_held": 0.006510416666666667, "velocity": 80, "channel": 1}, {"time_played": 184.37499999999852, "midi_note": 65, "frequency": 349.23, "note_held": 0.3059895833333144, "velocity": 100, "channel": 1}, {"time_played": 184.37499999999852, "midi_note": 60, "frequency": 261.63, "note_held": 0.3059895833333144, "velocity": 100, "channel": 1}, {"time_played": 184.37499999999852, "midi_note": 57, "frequency": 220, "note_held": 0.3059895833333144, "velocity": 100, "channel": 1}, {"time_played": 184.37499999999852, "midi_note": 53, "frequency": 174.61, "note_held": 0.3059895833333144, "velocity": 100, "channel": 1}, {"time_played": 184.37499999999852, "midi_note": 48, "frequency": 130.81, "note_held": 0.3059895833333144, "velocity": 100, "channel": 1}, {"time_played": 184.37499999999852, "midi_note": 41, "frequency": 87.31, "note_held": 0.006510416666666667, "velocity": 100, "channel": 1}, {"time_played": 184.5312499999985, "midi_note": 65, "frequency": 349.23, "note_held": 0.1497395833333428, "velocity": 64, "channel": 1}, {"time_played": 184.5312499999985, "midi_note": 60, "frequency": 261.63, "note_held": 0.1497395833333428, "velocity": 64, "channel": 1}, {"time_played": 184.5312499999985, "midi_note": 57, "frequency": 220, "note_held": 0.1497395833333428, "velocity": 64, "channel": 1}, {"time_played": 184.5312499999985, "midi_note": 53, "frequency": 174.61, "note_held": 0.006510416666666667, "velocity": 64, "channel": 1}, {"time_played": 184.6874999999985, "midi_note": 57, "frequency": 220, "note_held": 0.14973958333331439, "velocity": 56, "channel": 1}, {"time_played": 184.6874999999985, "midi_note": 60, "frequency": 261.63, "note_held": 0.14973958333331439, "velocity": 56, "channel": 1}, {"time_played": 184.6874999999985, "midi_note": 65, "frequency": 349.23, "note_held": 0.006510416666666667, "velocity": 56, "channel": 1}, {"time_played": 184.84374999999847, "midi_note": 53, "frequency": 174.61, "note_held": 0.1497395833333428, "velocity": 70, "channel": 1}, {"time_played": 184.84374999999847, "midi_note": 57, "frequency": 220, "note_held": 0.1497395833333428, "velocity": 70, "channel": 1}, {"time_played": 184.84374999999847, "midi_note": 60, "frequency": 261.63, "note_held": 0.1497395833333428, "velocity": 70, "channel": 1}, {"time_played": 184.84374999999847, "midi_note": 65, "frequency": 349.23, "note_held": 0.006510416666666667, "velocity": 70, "channel": 1}, {"time_played": 184.99999999999847, "midi_note": 67, "frequency": 392, "note_held": 0.6184895833333144, "velocity": 100, "channel": 1}, {"time_played": 184.99999999999847, "midi_note": 64, "frequency": 329.63, "note_held": 0.6184895833333144, "velocity": 100, "channel": 1}, {"time_played": 184.99999999999847, "midi_note": 60, "frequency": 261.63, "note_held": 0.6184895833333144, "velocity": 100, "channel": 1}, {"time_played": 184.99999999999847, "midi_note": 55, "frequency": 196, "note_held": 0.6184895833333144, "velocity": 100, "channel": 1}, {"time_played": 184.99999999999847, "midi_note": 48, "frequency": 130.81, "note_held": 0.006510416666666667, "velocity": 100, "channel": 1}, {"time_played": 185.62499999999844, "midi_note": 67, "frequency": 392, "note_held": 0.6184895833333144, "velocity": 100, "channel": 1}, {"time_played": 185.62499999999844, "midi_note": 64, "frequency": 329.63, "note_held": 0.6184895833333144, "velocity": 100, "channel": 1}, {"time_played": 185.62499999999844, "midi_note": 60, "frequency": 261.63, "note_held": 0.6184895833333144, "velocity": 100, "channel": 1}, {"time_played": 185.62499999999844, "midi_note": 55, "frequency": 196, "note_held": 0.6184895833333144, "velocity": 100, "channel": 1}, {"time_played": 185.62499999999844, "midi_note": 48, "frequency": 130.81, "note_held": 0.006510416666666667, "velocity": 100, "channel": 1}, {"time_played": 186.2499999999984, "midi_note": 67, "frequency": 392, "note_held": 0.6184895833333712, "velocity": 100, "channel": 1}, {"time_played": 186.2499999999984, "midi_note": 62, "frequency": 293.66, "note_held": 0.6184895833333712, "velocity": 100, "channel": 1}, {"time_played": 186.2499999999984, "midi_note": 59, "frequency": 246.94, "note_held": 0.6184895833333712, "velocity": 100, "channel": 1}, {"time_played": 186.2499999999984, "midi_note": 55, "frequency": 196, "note_held": 0.6184895833333712, "velocity": 100, "channel": 1}, {"time_played": 186.2499999999984, "midi_note": 50, "frequency": 146.83, "note_held": 0.6184895833333712, "velocity": 100, "channel": 1}, {"time_played": 186.2499999999984, "midi_note": 43, "frequency": 98, "note_held": 0.006510416666666667, "velocity": 100, "channel": 1}, {"time_played": 186.87499999999844, "midi_note": 67, "frequency": 392, "note_held": 0.6184895833333428, "velocity": 100, "channel": 1}, {"time_played": 186.87499999999844, "midi_note": 62, "frequency": 293.66, "note_held": 0.6184895833333428, "velocity": 100, "channel": 1}, {"time_played": 186.87499999999844, "midi_note": 59, "frequency": 246.94, "note_held": 0.6184895833333428, "velocity": 100, "channel": 1}, {"time_played": 186.87499999999844, "midi_note": 55, "frequency": 196, "note_held": 0.6184895833333428, "velocity": 100, "channel": 1}, {"time_played": 186.87499999999844, "midi_note": 50, "frequency": 146.83, "note_held": 0.6184895833333428, "velocity": 100, "channel": 1}, {"time_played": 186.87499999999844, "midi_note": 43, "frequency": 98, "note_held": 0.006510416666666667, "velocity": 100, "channel": 1}, {"time_played": 187.49999999999844, "midi_note": 69, "frequency": 440, "note_held": 0.6184895833333144, "velocity": 100, "channel": 1}, {"time_played": 187.49999999999844, "midi_note": 65, "frequency": 349.23, "note_held": 0.6184895833333144, "velocity": 100, "channel": 1}, {"time_played": 187.49999999999844, "midi_note": 62, "frequency": 293.66, "note_held": 0.6184895833333144, "velocity": 100, "channel": 1}, {"time_played": 187.49999999999844, "midi_note": 57, "frequency": 220, "note_held": 0.6184895833333144, "velocity": 100, "channel": 1}, {"time_played": 187.49999999999844, "midi_note": 50, "frequency": 146.83, "note_held": 0.006510416666666667, "velocity": 100, "channel": 1}, {"time_played": 188.1249999999984, "midi_note": 69, "frequency": 440, "note_held": 0.6184895833333712, "velocity": 100, "channel": 1}, {"time_played": 188.1249999999984, "midi_note": 65, "frequency": 349.23, "note_held": 0.6184895833333712, "velocity": 100, "channel": 1}, {"time_played": 188.1249999999984, "midi_note": 62, "frequency": 293.66, "note_held": 0.6184895833333712, "velocity": 100, "channel": 1}, {"time_played": 188.1249999999984, "midi_note": 57, "frequency": 220, "note_held": 0.6184895833333712, "velocity": 100, "channel": 1}, {"time_played": 188.1249999999984, "midi_note": 50, "frequency": 146.83, "note_held": 0.006510416666666667, "velocity": 100, "channel": 1}, {"time_played": 188.74999999999844, "midi_note": 69, "frequency": 440, "note_held": 0.6184895833333712, "velocity": 100, "channel": 1}, {"time_played": 188.74999999999844, "midi_note": 64, "frequency": 329.63, "note_held": 0.6184895833333712, "velocity": 100, "channel": 1}, {"time_played": 188.74999999999844, "midi_note": 60, "frequency": 261.63, "note_held": 0.6184895833333712, "velocity": 100, "channel": 1}, {"time_played": 188.74999999999844, "midi_note": 57, "frequency": 220, "note_held": 0.6184895833333712, "velocity": 100, "channel": 1}, {"time_played": 188.74999999999844, "midi_note": 52, "frequency": 164.81, "note_held": 0.6184895833333712, "velocity": 100, "channel": 1}, {"time_played": 188.74999999999844, "midi_note": 45, "frequency": 110, "note_held": 0.006510416666666667, "velocity": 100, "channel": 1}, {"time_played": 189.37499999999847, "midi_note": 69, "frequency": 440, "note_held": 0.3059895833333428, "velocity": 100, "channel": 1}, {"time_played": 189.37499999999847, "midi_note": 64, "frequency": 329.63, "note_held": 0.3059895833333428, "velocity": 100, "channel": 1}, {"time_played": 189.37499999999847, "midi_note": 60, "frequency": 261.63, "note_held": 0.3059895833333428, "velocity": 100, "channel": 1}, {"time_played": 189.37499999999847, "midi_note": 57, "frequency": 220, "note_held": 0.3059895833333428, "velocity": 100, "channel": 1}, {"time_played": 189.37499999999847, "midi_note": 52, "frequency": 164.81, "note_held": 0.3059895833333428, "velocity": 100, "channel": 1}, {"time_played": 189.37499999999847, "midi_note": 45, "frequency": 110, "note_held": 0.006510416666666667, "velocity": 100, "channel": 1}, {"time_played": 189.99999999999844, "midi_note": 67, "frequency": 392, "note_held": 0.6184895833332575, "velocity": 100, "channel": 1}, {"time_played": 189.99999999999844, "midi_note": 64, "frequency": 329.63, "note_held": 0.6184895833332575, "velocity": 100, "channel": 1}, {"time_played": 189.99999999999844, "midi_note": 60, "frequency": 261.63, "note_held": 0.6184895833332575, "velocity": 100, "channel": 1}, {"time_played": 189.99999999999844, "midi_note": 55, "frequency": 196, "note_held": 0.6184895833332575, "velocity": 100, "channel": 1}, {"time_played": 189.99999999999844, "midi_note": 48, "frequency": 130.81, "note_held": 0.026041666666666668, "velocity": 100, "channel": 1}, {"time_played": 190.62499999999835, "midi_note": 67, "frequency": 392, "note_held": 0.6184895833333428, "velocity": 100, "channel": 1}, {"time_played": 190.62499999999835, "midi_note": 64, "frequency": 329.63, "note_held": 0.6184895833333428, "velocity": 100, "channel": 1}, {"time_played": 190.62499999999835, "midi_note": 60, "frequency": 261.63, "note_held": 0.6184895833333428, "velocity": 100, "channel": 1}, {"time_played": 190.62499999999835, "midi_note": 55, "frequency": 196, "note_held": 0.6184895833333428, "velocity": 100, "channel": 1}, {"time_played": 190.62499999999835, "midi_note": 48, "frequency": 130.81, "note_held": 0.006510416666666667, "velocity": 100, "channel": 1}, {"time_played": 191.87499999999835, "midi_note": 69, "frequency": 440, "note_held": 0.6184895833333144, "velocity": 100, "channel": 1}, {"time_played": 191.87499999999835, "midi_note": 65, "frequency": 349.23, "note_held": 0.6184895833333144, "velocity": 100, "channel": 1}, {"time_played": 191.87499999999835, "midi_note": 62, "frequency": 293.66, "note_held": 0.6184895833333144, "velocity": 100, "channel": 1}, {"time_played": 191.87499999999835, "midi_note": 57, "frequency": 220, "note_held": 0.6184895833333144, "velocity": 100, "channel": 1}, {"time_played": 191.87499999999835, "midi_note": 50, "frequency": 146.83, "note_held": 0.14322916666666669, "velocity": 100, "channel": 1}, {"time_played": 192.49999999999832, "midi_note": 69, "frequency": 440, "note_held": 0.6184895833333144, "velocity": 100, "channel": 1}, {"time_played": 192.49999999999832, "midi_note": 65, "frequency": 349.23, "note_held": 0.6184895833333144, "velocity": 100, "channel": 1}, {"time_played": 192.49999999999832, "midi_note": 62, "frequency": 293.66, "note_held": 0.6184895833333144, "velocity": 100, "channel": 1}, {"time_played": 192.49999999999832, "midi_note": 57, "frequency": 220, "note_held": 0.6184895833333144, "velocity": 100, "channel": 1}, {"time_played": 192.49999999999832, "midi_note": 50, "frequency": 146.83, "note_held": 0.006510416666666667, "velocity": 100, "channel": 1}, {"time_played": 193.1249999999983, "midi_note": 69, "frequency": 440, "note_held": 0.6184895833333712, "velocity": 100, "channel": 1}, {"time_played": 193.1249999999983, "midi_note": 65, "frequency": 349.23, "note_held": 0.6184895833333712, "velocity": 100, "channel": 1}, {"time_played": 193.1249999999983, "midi_note": 62, "frequency": 293.66, "note_held": 0.6184895833333712, "velocity": 100, "channel": 1}, {"time_played": 193.1249999999983, "midi_note": 57, "frequency": 220, "note_held": 0.6184895833333712, "velocity": 100, "channel": 1}, {"time_played": 193.1249999999983, "midi_note": 50, "frequency": 146.83, "note_held": 0.006510416666666667, "velocity": 100, "channel": 1}, {"time_played": 193.74999999999832, "midi_note": 69, "frequency": 440, "note_held": 0.6184895833333428, "velocity": 100, "channel": 1}, {"time_played": 193.74999999999832, "midi_note": 65, "frequency": 349.23, "note_held": 0.6184895833333428, "velocity": 100, "channel": 1}, {"time_played": 193.74999999999832, "midi_note": 62, "frequency": 293.66, "note_held": 0.6184895833333428, "velocity": 100, "channel": 1}, {"time_played": 193.74999999999832, "midi_note": 57, "frequency": 220, "note_held": 0.6184895833333428, "velocity": 100, "channel": 1}, {"time_played": 193.74999999999832, "midi_note": 50, "frequency": 146.83, "note_held": 0.006510416666666667, "velocity": 100, "channel": 1}, {"time_played": 194.37499999999832, "midi_note": 69, "frequency": 440, "note_held": 0.618489583333286, "velocity": 100, "channel": 1}, {"time_played": 194.37499999999832, "midi_note": 65, "frequency": 349.23, "note_held": 0.618489583333286, "velocity": 100, "channel": 1}, {"time_played": 194.37499999999832, "midi_note": 62, "frequency": 293.66, "note_held": 0.618489583333286, "velocity": 100, "channel": 1}, {"time_played": 194.37499999999832, "midi_note": 57, "frequency": 220, "note_held": 0.618489583333286, "velocity": 100, "channel": 1}, {"time_played": 194.37499999999832, "midi_note": 50, "frequency": 146.83, "note_held": 0.006510416666666667, "velocity": 100, "channel": 1}, {"time_played": 194.99999999999827, "midi_note": 67, "frequency": 392, "note_held": 0.6184895833333144, "velocity": 100, "channel": 1}, {"time_played": 194.99999999999827, "midi_note": 64, "frequency": 329.63, "note_held": 0.6184895833333144, "velocity": 100, "channel": 1}, {"time_played": 194.99999999999827, "midi_note": 60, "frequency": 261.63, "note_held": 0.6184895833333144, "velocity": 100, "channel": 1}, {"time_played": 194.99999999999827, "midi_note": 55, "frequency": 196, "note_held": 0.6184895833333144, "velocity": 100, "channel": 1}, {"time_played": 194.99999999999827, "midi_note": 48, "frequency": 130.81, "note_held": 0.006510416666666667, "velocity": 100, "channel": 1}, {"time_played": 195.62499999999824, "midi_note": 67, "frequency": 392, "note_held": 0.6184895833333144, "velocity": 100, "channel": 1}, {"time_played": 195.62499999999824, "midi_note": 64, "frequency": 329.63, "note_held": 0.6184895833333144, "velocity": 100, "channel": 1}, {"time_played": 195.62499999999824, "midi_note": 60, "frequency": 261.63, "note_held": 0.6184895833333144, "velocity": 100, "channel": 1}, {"time_played": 195.62499999999824, "midi_note": 55, "frequency": 196, "note_held": 0.6184895833333144, "velocity": 100, "channel": 1}, {"time_played": 195.62499999999824, "midi_note": 48, "frequency": 130.81, "note_held": 0.006510416666666667, "velocity": 100, "channel": 1}, {"time_played": 196.2499999999982, "midi_note": 67, "frequency": 392, "note_held": 0.6184895833333712, "velocity": 100, "channel": 1}, {"time_played": 196.2499999999982, "midi_note": 62, "frequency": 293.66, "note_held": 0.6184895833333712, "velocity": 100, "channel": 1}, {"time_played": 196.2499999999982, "midi_note": 59, "frequency": 246.94, "note_held": 0.6184895833333712, "velocity": 100, "channel": 1}, {"time_played": 196.2499999999982, "midi_note": 55, "frequency": 196, "note_held": 0.6184895833333712, "velocity": 100, "channel": 1}, {"time_played": 196.2499999999982, "midi_note": 50, "frequency": 146.83, "note_held": 0.6184895833333712, "velocity": 100, "channel": 1}, {"time_played": 196.2499999999982, "midi_note": 43, "frequency": 98, "note_held": 0.006510416666666667, "velocity": 100, "channel": 1}, {"time_played": 196.87499999999824, "midi_note": 67, "frequency": 392, "note_held": 0.6184895833333428, "velocity": 100, "channel": 1}, {"time_played": 196.87499999999824, "midi_note": 62, "frequency": 293.66, "note_held": 0.6184895833333428, "velocity": 100, "channel": 1}, {"time_played": 196.87499999999824, "midi_note": 59, "frequency": 246.94, "note_held": 0.6184895833333428, "velocity": 100, "channel": 1}, {"time_played": 196.87499999999824, "midi_note": 55, "frequency": 196, "note_held": 0.6184895833333428, "velocity": 100, "channel": 1}, {"time_played": 196.87499999999824, "midi_note": 50, "frequency": 146.83, "note_held": 0.6184895833333428, "velocity": 100, "channel": 1}, {"time_played": 196.87499999999824, "midi_note": 43, "frequency": 98, "note_held": 0.006510416666666667, "velocity": 100, "channel": 1}, {"time_played": 197.49999999999824, "midi_note": 69, "frequency": 440, "note_held": 0.6184895833333144, "velocity": 100, "channel": 1}, {"time_played": 197.49999999999824, "midi_note": 65, "frequency": 349.23, "note_held": 0.6184895833333144, "velocity": 100, "channel": 1}, {"time_played": 197.49999999999824, "midi_note": 62, "frequency": 293.66, "note_held": 0.6184895833333144, "velocity": 100, "channel": 1}, {"time_played": 197.49999999999824, "midi_note": 57, "frequency": 220, "note_held": 0.6184895833333144, "velocity": 100, "channel": 1}, {"time_played": 197.49999999999824, "midi_note": 50, "frequency": 146.83, "note_held": 0.006510416666666667, "velocity": 100, "channel": 1}, {"time_played": 198.1249999999982, "midi_note": 69, "frequency": 440, "note_held": 0.6184895833333712, "velocity": 100, "channel": 1}, {"time_played": 198.1249999999982, "midi_note": 65, "frequency": 349.23, "note_held": 0.6184895833333712, "velocity": 100, "channel": 1}, {"time_played": 198.1249999999982, "midi_note": 62, "frequency": 293.66, "note_held": 0.6184895833333712, "velocity": 100, "channel": 1}, {"time_played": 198.1249999999982, "midi_note": 57, "frequency": 220, "note_held": 0.6184895833333712, "velocity": 100, "channel": 1}, {"time_played": 198.1249999999982, "midi_note": 50, "frequency": 146.83, "note_held": 0.006510416666666667, "velocity": 100, "channel": 1}, {"time_played": 198.74999999999824, "midi_note": 69, "frequency": 440, "note_held": 0.6184895833333712, "velocity": 100, "channel": 1}, {"time_played": 198.74999999999824, "midi_note": 64, "frequency": 329.63, "note_held": 0.6184895833333712, "velocity": 100, "channel": 1}, {"time_played": 198.74999999999824, "midi_note": 60, "frequency": 261.63, "note_held": 0.6184895833333712, "velocity": 100, "channel": 1}, {"time_played": 198.74999999999824, "midi_note": 57, "frequency": 220, "note_held": 0.6184895833333712, "velocity": 100, "channel": 1}, {"time_played": 198.74999999999824, "midi_note": 52, "frequency": 164.81, "note_held": 0.6184895833333712, "velocity": 100, "channel": 1}, {"time_played": 198.74999999999824, "midi_note": 45, "frequency": 110, "note_held": 0.006510416666666667, "velocity": 100, "channel": 1}, {"time_played": 199.37499999999827, "midi_note": 69, "frequency": 440, "note_held": 0.3059895833333428, "velocity": 100, "channel": 1}, {"time_played": 199.37499999999827, "midi_note": 64, "frequency": 329.63, "note_held": 0.3059895833333428, "velocity": 100, "channel": 1}, {"time_played": 199.37499999999827, "midi_note": 60, "frequency": 261.63, "note_held": 0.3059895833333428, "velocity": 100, "channel": 1}, {"time_played": 199.37499999999827, "midi_note": 57, "frequency": 220, "note_held": 0.3059895833333428, "velocity": 100, "channel": 1}, {"time_played": 199.37499999999827, "midi_note": 52, "frequency": 164.81, "note_held": 0.3059895833333428, "velocity": 100, "channel": 1}, {"time_played": 199.37499999999827, "midi_note": 45, "frequency": 110, "note_held": 0.006510416666666667, "velocity": 100, "channel": 1}, {"time_played": 199.99999999999824, "midi_note": 55, "frequency": 196, "note_held": 0.5468749999999432, "velocity": 101, "channel": 1}, {"time_played": 199.99999999999824, "midi_note": 67, "frequency": 392, "note_held": 0.5533854166666003, "velocity": 114, "channel": 1}, {"time_played": 199.99999999999824, "midi_note": 64, "frequency": 329.63, "note_held": 0.5729166666666003, "velocity": 114, "channel": 1}, {"time_played": 199.99999999999824, "midi_note": 48, "frequency": 130.81, "note_held": 0.026041666666666668, "velocity": 89, "channel": 1}, {"time_played": 199.99999999999824, "midi_note": 60, "frequency": 261.63, "note_held": 0.5859374999999432, "velocity": 87, "channel": 1}, {"time_played": 200.62499999999818, "midi_note": 64, "frequency": 329.63, "note_held": 9.082031249999687, "velocity": 110, "channel": 1}, {"time_played": 200.62499999999818, "midi_note": 60, "frequency": 261.63, "note_held": 45.78124999999696, "velocity": 85, "channel": 1}, {"time_played": 200.62499999999818, "midi_note": 55, "frequency": 196, "note_held": 0.0390625, "velocity": 98, "channel": 1}, {"time_played": 200.62499999999818, "midi_note": 48, "frequency": 130.81, "note_held": 47.77994791666356, "velocity": 98, "channel": 1}, {"time_played": 200.62499999999818, "midi_note": 67, "frequency": 392, "note_held": 124.9934895833361, "velocity": 107, "channel": 1}, {"time_played": 202.1809895833315, "midi_note": 50, "frequency": 146.83, "note_held": 2.7278645833332575, "velocity": 101, "channel": 1}, {"time_played": 202.1809895833315, "midi_note": 57, "frequency": 220, "note_held": 0.01953125, "velocity": 78, "channel": 1}, {"time_played": 202.22005208333147, "midi_note": 62, "frequency": 293.66, "note_held": 0.026041666666666668, "velocity": 98, "channel": 1}, {"time_played": 202.26562499999812, "midi_note": 65, "frequency": 349.23, "note_held": 0.04557291666666667, "velocity": 74, "channel": 1}, {"time_played": 204.99999999999807, "midi_note": 42, "frequency": 92.5, "note_held": 0.01953125, "velocity": 76, "channel": 1}, {"time_played": 205.3124999999981, "midi_note": 49, "frequency": 138.59, "note_held": 0.15625, "velocity": 64, "channel": 1}, {"time_played": 205.62499999999812, "midi_note": 61, "frequency": 277.18, "note_held": 0.8203125000000284, "velocity": 89, "channel": 1}, {"time_played": 205.62499999999812, "midi_note": 57, "frequency": 220, "note_held": 0.8268229166666856, "velocity": 104, "channel": 1}, {"time_played": 205.62499999999812, "midi_note": 54, "frequency": 185, "note_held": 0.13671875, "velocity": 86, "channel": 1}, {"time_played": 206.40624999999818, "midi_note": 49, "frequency": 138.59, "note_held": 0.15625, "velocity": 76, "channel": 1}, {"time_played": 206.7187499999981, "midi_note": 61, "frequency": 277.18, "note_held": 0.3710937499999716, "velocity": 95, "channel": 1}, {"time_played": 206.7187499999981, "midi_note": 54, "frequency": 185, "note_held": 0.01953125, "velocity": 95, "channel": 1}, {"time_played": 206.7187499999981, "midi_note": 57, "frequency": 220, "note_held": 0.39062499999994316, "velocity": 120, "channel": 1}, {"time_played": 207.0312499999981, "midi_note": 49, "frequency": 138.59, "note_held": 0.32552083333328596, "velocity": 84, "channel": 1}, {"time_played": 207.18749999999804, "midi_note": 54, "frequency": 185, "note_held": 0.078125, "velocity": 99, "channel": 1}, {"time_played": 207.499999999998, "midi_note": 50, "frequency": 146.83, "note_held": 1.7513020833333712, "velocity": 110, "channel": 1}, {"time_played": 207.812499999998, "midi_note": 57, "frequency": 220, "note_held": 0.16927083333333334, "velocity": 101, "channel": 1}, {"time_played": 208.12499999999804, "midi_note": 62, "frequency": 293.66, "note_held": 0.16927083333333334, "velocity": 110, "channel": 1}, {"time_played": 208.12499999999804, "midi_note": 66, "frequency": 369.99, "note_held": 0.8398437500000284, "velocity": 99, "channel": 1}, {"time_played": 209.06249999999807, "midi_note": 66, "frequency": 369.99, "note_held": 0.2018229166666572, "velocity": 121, "channel": 1}, {"time_played": 209.06249999999807, "midi_note": 57, "frequency": 220, "note_held": 0.006510416666666667, "velocity": 87, "channel": 1}, {"time_played": 209.37499999999804, "midi_note": 66, "frequency": 369.99, "note_held": 0.06510416666666667, "velocity": 99, "channel": 1}, {"time_played": 209.37499999999804, "midi_note": 57, "frequency": 220, "note_held": 0.39713541666648666, "velocity": 104, "channel": 1}, {"time_played": 209.531249999998, "midi_note": 64, "frequency": 329.63, "note_held": 0.1757812499998579, "velocity": 117, "channel": 1}, {"time_played": 209.6874999999979, "midi_note": 62, "frequency": 293.66, "note_held": 0.006510416666666667, "velocity": 110, "channel": 1}, {"time_played": 209.99999999999787, "midi_note": 42, "frequency": 92.5, "note_held": 0.013020833333333334, "velocity": 82, "channel": 1}, {"time_played": 210.31249999999787, "midi_note": 49, "frequency": 138.59, "note_held": 0.08463541666666667, "velocity": 84, "channel": 1}, {"time_played": 210.6249999999979, "midi_note": 54, "frequency": 185, "note_held": 0.1171875, "velocity": 84, "channel": 1}, {"time_played": 210.6249999999979, "midi_note": 57, "frequency": 220, "note_held": 0.5143229166666572, "velocity": 101, "channel": 1}, {"time_played": 210.6249999999979, "midi_note": 61, "frequency": 277.18, "note_held": 0.5338541666666572, "velocity": 86, "channel": 1}, {"time_played": 210.9374999999979, "midi_note": 49, "frequency": 138.59, "note_held": 0.006510416666666667, "velocity": 60, "channel": 1}, {"time_played": 211.2499999999979, "midi_note": 54, "frequency": 185, "note_held": 0.052083333333333336, "velocity": 71, "channel": 1}, {"time_played": 211.56249999999787, "midi_note": 61, "frequency": 277.18, "note_held": 0.006510416666666667, "velocity": 99, "channel": 1}, {"time_played": 211.56249999999787, "midi_note": 57, "frequency": 220, "note_held": 0.41015624999994316, "velocity": 110, "channel": 1}, {"time_played": 211.87499999999784, "midi_note": 49, "frequency": 138.59, "note_held": 0.006510416666666667, "velocity": 80, "channel": 1}, {"time_played": 212.1874999999977, "midi_note": 61, "frequency": 277.18, "note_held": 0.26041666666662877, "velocity": 91, "channel": 1}, {"time_played": 212.1874999999977, "midi_note": 57, "frequency": 220, "note_held": 0.28645833333328596, "velocity": 110, "channel": 1}, {"time_played": 212.1874999999977, "midi_note": 54, "frequency": 185, "note_held": 0.0390625, "velocity": 91, "channel": 1}, {"time_played": 212.49999999999764, "midi_note": 50, "frequency": 146.83, "note_held": 0.026041666666666668, "velocity": 91, "channel": 1}, {"time_played": 212.81249999999764, "midi_note": 57, "frequency": 220, "note_held": 0.16927083333333334, "velocity": 80, "channel": 1}, {"time_played": 213.12499999999767, "midi_note": 66, "frequency": 369.99, "note_held": 0.4687500000000284, "velocity": 104, "channel": 1}, {"time_played": 213.12499999999767, "midi_note": 62, "frequency": 293.66, "note_held": 0.16927083333333334, "velocity": 104, "channel": 1}, {"time_played": 213.4374999999977, "midi_note": 50, "frequency": 146.83, "note_held": 0.052083333333333336, "velocity": 74, "channel": 1}, {"time_played": 213.7499999999977, "midi_note": 64, "frequency": 329.63, "note_held": 0.052083333333333336, "velocity": 101, "channel": 1}, {"time_played": 214.0624999999977, "midi_note": 50, "frequency": 146.83, "note_held": 0.006510416666666667, "velocity": 77, "channel": 1}, {"time_played": 214.37499999999767, "midi_note": 66, "frequency": 369.99, "note_held": 0.5273437499998579, "velocity": 76, "channel": 1}, {"time_played": 214.37499999999767, "midi_note": 62, "frequency": 293.66, "note_held": 0.5403645833331723, "velocity": 98, "channel": 1}, {"time_played": 214.37499999999767, "midi_note": 57, "frequency": 220, "note_held": 0.09114583333333334, "velocity": 75, "channel": 1}, {"time_played": 214.68749999999758, "midi_note": 50, "frequency": 146.83, "note_held": 0.006510416666666667, "velocity": 98, "channel": 1}, {"time_played": 214.99999999999753, "midi_note": 47, "frequency": 123.47, "note_held": 0.0390625, "velocity": 114, "channel": 1}, {"time_played": 215.31249999999747, "midi_note": 54, "frequency": 185, "note_held": 0.0390625, "velocity": 95, "channel": 1}, {"time_played": 215.6249999999975, "midi_note": 59, "frequency": 246.94, "note_held": 0.6249999999999716, "velocity": 107, "channel": 1}, {"time_played": 215.6249999999975, "midi_note": 62, "frequency": 293.66, "note_held": 0.6380208333333144, "velocity": 117, "channel": 1}, {"time_played": 215.6249999999975, "midi_note": 66, "frequency": 369.99, "note_held": 0.013020833333333334, "velocity": 110, "channel": 1}, {"time_played": 215.93749999999747, "midi_note": 54, "frequency": 185, "note_held": 0.14322916666666669, "velocity": 91, "channel": 1}, {"time_played": 216.24999999999747, "midi_note": 50, "frequency": 146.83, "note_held": 0.9374999999999147, "velocity": 107, "channel": 1}, {"time_played": 216.5624999999974, "midi_note": 57, "frequency": 220, "note_held": 0.006510416666666667, "velocity": 93, "channel": 1}, {"time_played": 216.8749999999974, "midi_note": 66, "frequency": 369.99, "note_held": 0.04557291666666667, "velocity": 116, "channel": 1}, {"time_played": 216.8749999999974, "midi_note": 62, "frequency": 293.66, "note_held": 0.618489583333286, "velocity": 110, "channel": 1}, {"time_played": 217.18749999999739, "midi_note": 57, "frequency": 220, "note_held": 0.2994791666666572, "velocity": 96, "channel": 1}, {"time_played": 217.49999999999736, "midi_note": 45, "frequency": 110, "note_held": 0.006510416666666667, "velocity": 110, "channel": 1}, {"time_played": 217.81249999999724, "midi_note": 52, "frequency": 164.81, "note_held": 0.14322916666666669, "velocity": 98, "channel": 1}, {"time_played": 218.12499999999727, "midi_note": 61, "frequency": 277.18, "note_held": 0.16927083333333334, "velocity": 110, "channel": 1}, {"time_played": 218.12499999999727, "midi_note": 64, "frequency": 329.63, "note_held": 0.6640624999999432, "velocity": 114, "channel": 1}, {"time_played": 218.12499999999727, "midi_note": 57, "frequency": 220, "note_held": 0.6705729166666003, "velocity": 114, "channel": 1}, {"time_played": 218.43749999999724, "midi_note": 52, "frequency": 164.81, "note_held": 0.10416666666666667, "velocity": 87, "channel": 1}, {"time_played": 218.74999999999721, "midi_note": 40, "frequency": 82.41, "note_held": 0.026041666666666668, "velocity": 114, "channel": 1}, {"time_played": 219.0624999999972, "midi_note": 52, "frequency": 164.81, "note_held": 0.006510416666666667, "velocity": 96, "channel": 1}, {"time_played": 219.37499999999716, "midi_note": 59, "frequency": 246.94, "note_held": 0.4817708333333428, "velocity": 114, "channel": 1}, {"time_played": 219.37499999999716, "midi_note": 64, "frequency": 329.63, "note_held": 0.4947916666666856, "velocity": 110, "channel": 1}, {"time_played": 219.37499999999716, "midi_note": 56, "frequency": 207.65, "note_held": 0.20182291666666669, "velocity": 99, "channel": 1}, {"time_played": 219.68749999999716, "midi_note": 52, "frequency": 164.81, "note_held": 0.11067708333333334, "velocity": 96, "channel": 1}, {"time_played": 219.9999999999972, "midi_note": 42, "frequency": 92.5, "note_held": 7.220052083333087, "velocity": 99, "channel": 1}, {"time_played": 220.31249999999716, "midi_note": 49, "frequency": 138.59, "note_held": 0.10416666666666667, "velocity": 78, "channel": 1}, {"time_played": 220.62499999999716, "midi_note": 61, "frequency": 277.18, "note_held": 0.8854166666666856, "velocity": 99, "channel": 1}, {"time_played": 220.62499999999716, "midi_note": 66, "frequency": 369.99, "note_held": 0.8854166666666856, "velocity": 84, "channel": 1}, {"time_played": 220.62499999999716, "midi_note": 57, "frequency": 220, "note_held": 0.08463541666666667, "velocity": 91, "channel": 1}, {"time_played": 220.93749999999716, "midi_note": 49, "frequency": 138.59, "note_held": 0.7942708333333144, "velocity": 58, "channel": 1}, {"time_played": 221.56249999999716, "midi_note": 57, "frequency": 220, "note_held": 0.4166666666666572, "velocity": 104, "channel": 1}, {"time_played": 221.56249999999716, "midi_note": 66, "frequency": 369.99, "note_held": 0.4296875, "velocity": 99, "channel": 1}, {"time_played": 221.56249999999716, "midi_note": 61, "frequency": 277.18, "note_held": 0.006510416666666667, "velocity": 104, "channel": 1}, {"time_played": 221.87499999999716, "midi_note": 49, "frequency": 138.59, "note_held": 0.4036458333333428, "velocity": 80, "channel": 1}, {"time_played": 222.18749999999716, "midi_note": 66, "frequency": 369.99, "note_held": 0.3450520833333428, "velocity": 95, "channel": 1}, {"time_played": 222.18749999999716, "midi_note": 61, "frequency": 277.18, "note_held": 0.05859375, "velocity": 99, "channel": 1}, {"time_played": 222.18749999999716, "midi_note": 57, "frequency": 220, "note_held": 0.3906250000000284, "velocity": 104, "channel": 1}, {"time_played": 222.49999999999716, "midi_note": 50, "frequency": 146.83, "note_held": 0.8268229166666856, "velocity": 104, "channel": 1}, {"time_played": 222.81249999999716, "midi_note": 57, "frequency": 220, "note_held": 0.06510416666666667, "velocity": 93, "channel": 1}, {"time_played": 223.12499999999716, "midi_note": 66, "frequency": 369.99, "note_held": 0.651041666666714, "velocity": 104, "channel": 1}, {"time_played": 223.12499999999716, "midi_note": 62, "frequency": 293.66, "note_held": 0.08463541666666667, "velocity": 114, "channel": 1}, {"time_played": 223.4374999999972, "midi_note": 50, "frequency": 146.83, "note_held": 0.052083333333333336, "velocity": 98, "channel": 1}, {"time_played": 223.74999999999721, "midi_note": 57, "frequency": 220, "note_held": 0.052083333333333336, "velocity": 87, "channel": 1}, {"time_played": 224.0624999999972, "midi_note": 62, "frequency": 293.66, "note_held": 0.3255208333333428, "velocity": 42, "channel": 1}, {"time_played": 224.0624999999972, "midi_note": 66, "frequency": 369.99, "note_held": 0.006510416666666667, "velocity": 99, "channel": 1}, {"time_played": 224.3749999999972, "midi_note": 50, "frequency": 146.83, "note_held": 0.09114583333333334, "velocity": 104, "channel": 1}, {"time_played": 224.68749999999704, "midi_note": 62, "frequency": 293.66, "note_held": 0.31249999999994316, "velocity": 107, "channel": 1}, {"time_played": 224.68749999999704, "midi_note": 66, "frequency": 369.99, "note_held": 0.006510416666666667, "velocity": 86, "channel": 1}, {"time_played": 224.68749999999704, "midi_note": 57, "frequency": 220, "note_held": 0.32552083333325754, "velocity": 98, "channel": 1}, {"time_played": 225.312499999997, "midi_note": 49, "frequency": 138.59, "note_held": 0.052083333333333336, "velocity": 84, "channel": 1}, {"time_played": 225.624999999997, "midi_note": 61, "frequency": 277.18, "note_held": 0.3385416666666572, "velocity": 89, "channel": 1}, {"time_played": 225.624999999997, "midi_note": 54, "frequency": 185, "note_held": 0.3515625, "velocity": 89, "channel": 1}, {"time_played": 225.624999999997, "midi_note": 57, "frequency": 220, "note_held": 0.08463541666666667, "velocity": 110, "channel": 1}, {"time_played": 225.937499999997, "midi_note": 49, "frequency": 138.59, "note_held": 0.013020833333333334, "velocity": 91, "channel": 1}, {"time_played": 226.249999999997, "midi_note": 57, "frequency": 220, "note_held": 0.1171875, "velocity": 80, "channel": 1}, {"time_played": 226.56249999999696, "midi_note": 66, "frequency": 369.99, "note_held": 0.4361979166666572, "velocity": 99, "channel": 1}, {"time_played": 226.56249999999696, "midi_note": 61, "frequency": 277.18, "note_held": 0.12369791666666667, "velocity": 110, "channel": 1}, {"time_played": 226.87499999999696, "midi_note": 49, "frequency": 138.59, "note_held": 0.01953125, "velocity": 76, "channel": 1}, {"time_played": 227.18749999999696, "midi_note": 57, "frequency": 220, "note_held": 0.01953125, "velocity": 91, "channel": 1}, {"time_played": 227.49999999999696, "midi_note": 50, "frequency": 146.83, "note_held": 0.04557291666666667, "velocity": 101, "channel": 1}, {"time_played": 227.81249999999687, "midi_note": 57, "frequency": 220, "note_held": 0.16927083333333334, "velocity": 81, "channel": 1}, {"time_played": 228.12499999999687, "midi_note": 62, "frequency": 293.66, "note_held": 0.08463541666666667, "velocity": 114, "channel": 1}, {"time_played": 228.12499999999687, "midi_note": 66, "frequency": 369.99, "note_held": 0.520833333333286, "velocity": 95, "channel": 1}, {"time_played": 228.43749999999685, "midi_note": 50, "frequency": 146.83, "note_held": 0.10416666666666667, "velocity": 91, "channel": 1}, {"time_played": 228.74999999999682, "midi_note": 66, "frequency": 369.99, "note_held": 0.078125, "velocity": 91, "channel": 1}, {"time_played": 228.74999999999682, "midi_note": 57, "frequency": 220, "note_held": 0.10416666666666667, "velocity": 114, "channel": 1}, {"time_played": 229.0624999999968, "midi_note": 64, "frequency": 329.63, "note_held": 0.04557291666666667, "velocity": 122, "channel": 1}, {"time_played": 229.37499999999676, "midi_note": 62, "frequency": 293.66, "note_held": 0.10416666666666667, "velocity": 114, "channel": 1}, {"time_played": 229.68749999999673, "midi_note": 66, "frequency": 369.99, "note_held": 0.1888020833332007, "velocity": 121, "channel": 1}, {"time_played": 229.68749999999673, "midi_note": 57, "frequency": 220, "note_held": 0.006510416666666667, "velocity": 101, "channel": 1}, {"time_played": 229.9999999999966, "midi_note": 47, "frequency": 123.47, "note_held": 0.026041666666666668, "velocity": 114, "channel": 1}, {"time_played": 230.31249999999656, "midi_note": 54, "frequency": 185, "note_held": 0.14322916666666669, "velocity": 95, "channel": 1}, {"time_played": 230.6249999999966, "midi_note": 59, "frequency": 246.94, "note_held": 0.625, "velocity": 107, "channel": 1}, {"time_played": 230.6249999999966, "midi_note": 62, "frequency": 293.66, "note_held": 0.6380208333333428, "velocity": 117, "channel": 1}, {"time_played": 230.6249999999966, "midi_note": 66, "frequency": 369.99, "note_held": 0.006510416666666667, "velocity": 110, "channel": 1}, {"time_played": 230.9374999999966, "midi_note": 54, "frequency": 185, "note_held": 0.052083333333333336, "velocity": 91, "channel": 1}, {"time_played": 231.2499999999966, "midi_note": 50, "frequency": 146.83, "note_held": 0.9374999999999716, "velocity": 107, "channel": 1}, {"time_played": 231.5624999999966, "midi_note": 57, "frequency": 220, "note_held": 0.006510416666666667, "velocity": 93, "channel": 1}, {"time_played": 231.8749999999966, "midi_note": 66, "frequency": 369.99, "note_held": 0.01953125, "velocity": 116, "channel": 1}, {"time_played": 231.8749999999966, "midi_note": 62, "frequency": 293.66, "note_held": 0.618489583333286, "velocity": 110, "channel": 1}, {"time_played": 232.18749999999656, "midi_note": 57, "frequency": 220, "note_held": 0.2994791666666572, "velocity": 96, "channel": 1}, {"time_played": 232.49999999999653, "midi_note": 45, "frequency": 110, "note_held": 0.006510416666666667, "velocity": 110, "channel": 1}, {"time_played": 232.8124999999965, "midi_note": 52, "frequency": 164.81, "note_held": 0.10416666666666667, "velocity": 98, "channel": 1}, {"time_played": 233.12499999999653, "midi_note": 61, "frequency": 277.18, "note_held": 0.6510416666666288, "velocity": 110, "channel": 1}, {"time_played": 233.12499999999653, "midi_note": 64, "frequency": 329.63, "note_held": 0.6640624999999716, "velocity": 114, "channel": 1}, {"time_played": 233.12499999999653, "midi_note": 57, "frequency": 220, "note_held": 0.6705729166666288, "velocity": 114, "channel": 1}, {"time_played": 233.4374999999965, "midi_note": 52, "frequency": 164.81, "note_held": 0.006510416666666667, "velocity": 87, "channel": 1}, {"time_played": 233.7499999999965, "midi_note": 40, "frequency": 82.41, "note_held": 0.052083333333333336, "velocity": 114, "channel": 1}, {"time_played": 234.0624999999965, "midi_note": 52, "frequency": 164.81, "note_held": 0.006510416666666667, "velocity": 96, "channel": 1}, {"time_played": 234.37499999999648, "midi_note": 59, "frequency": 246.94, "note_held": 0.4817708333333428, "velocity": 114, "channel": 1}, {"time_played": 234.37499999999648, "midi_note": 64, "frequency": 329.63, "note_held": 0.4947916666666856, "velocity": 110, "channel": 1}, {"time_played": 234.37499999999648, "midi_note": 56, "frequency": 207.65, "note_held": 0.20182291666666669, "velocity": 99, "channel": 1}, {"time_played": 234.68749999999648, "midi_note": 52, "frequency": 164.81, "note_held": 0.11067708333333334, "velocity": 96, "channel": 1}, {"time_played": 234.9999999999965, "midi_note": 47, "frequency": 123.47, "note_held": 0.7877604166666572, "velocity": 114, "channel": 1}, {"time_played": 235.3124999999965, "midi_note": 54, "frequency": 185, "note_held": 0.078125, "velocity": 95, "channel": 1}, {"time_played": 235.62499999999653, "midi_note": 59, "frequency": 246.94, "note_held": 0.6249999999998579, "velocity": 107, "channel": 1}, {"time_played": 235.62499999999653, "midi_note": 62, "frequency": 293.66, "note_held": 0.6380208333332007, "velocity": 117, "channel": 1}, {"time_played": 235.62499999999653, "midi_note": 66, "frequency": 369.99, "note_held": 0.013020833333333334, "velocity": 110, "channel": 1}, {"time_played": 235.9374999999965, "midi_note": 54, "frequency": 185, "note_held": 0.052083333333333336, "velocity": 91, "channel": 1}, {"time_played": 236.2499999999964, "midi_note": 50, "frequency": 146.83, "note_held": 0.9374999999996874, "velocity": 107, "channel": 1}, {"time_played": 236.5624999999964, "midi_note": 57, "frequency": 220, "note_held": 0.006510416666666667, "velocity": 93, "channel": 1}, {"time_played": 236.87499999999628, "midi_note": 66, "frequency": 369.99, "note_held": 0.052083333333333336, "velocity": 116, "channel": 1}, {"time_played": 236.87499999999628, "midi_note": 62, "frequency": 293.66, "note_held": 0.6184895833330302, "velocity": 110, "channel": 1}, {"time_played": 237.18749999999608, "midi_note": 57, "frequency": 220, "note_held": 0.2994791666665719, "velocity": 96, "channel": 1}, {"time_played": 237.49999999999596, "midi_note": 45, "frequency": 110, "note_held": 0.006510416666666667, "velocity": 110, "channel": 1}, {"time_played": 237.81249999999582, "midi_note": 52, "frequency": 164.81, "note_held": 0.423177083333087, "velocity": 98, "channel": 1}, {"time_played": 238.12499999999568, "midi_note": 61, "frequency": 277.18, "note_held": 0.08463541666666667, "velocity": 110, "channel": 1}, {"time_played": 238.12499999999568, "midi_note": 64, "frequency": 329.63, "note_held": 0.6640624999996589, "velocity": 114, "channel": 1}, {"time_played": 238.12499999999568, "midi_note": 57, "frequency": 220, "note_held": 0.6705729166663161, "velocity": 114, "channel": 1}, {"time_played": 238.4374999999955, "midi_note": 52, "frequency": 164.81, "note_held": 0.01953125, "velocity": 87, "channel": 1}, {"time_played": 238.74999999999534, "midi_note": 40, "frequency": 82.41, "note_held": 0.006510416666666667, "velocity": 114, "channel": 1}, {"time_played": 239.0624999999953, "midi_note": 52, "frequency": 164.81, "note_held": 0.006510416666666667, "velocity": 96, "channel": 1}, {"time_played": 239.37499999999528, "midi_note": 59, "frequency": 246.94, "note_held": 0.4817708333333428, "velocity": 114, "channel": 1}, {"time_played": 239.37499999999528, "midi_note": 64, "frequency": 329.63, "note_held": 0.4947916666666856, "velocity": 110, "channel": 1}, {"time_played": 239.37499999999528, "midi_note": 56, "frequency": 207.65, "note_held": 0.20182291666666669, "velocity": 99, "channel": 1}, {"time_played": 239.68749999999528, "midi_note": 52, "frequency": 164.81, "note_held": 0.11067708333333334, "velocity": 96, "channel": 1}, {"time_played": 239.9999999999953, "midi_note": 47, "frequency": 123.47, "note_held": 0.01953125, "velocity": 114, "channel": 1}, {"time_played": 240.3124999999953, "midi_note": 54, "frequency": 185, "note_held": 0.078125, "velocity": 95, "channel": 1}, {"time_played": 240.6249999999953, "midi_note": 59, "frequency": 246.94, "note_held": 0.625, "velocity": 107, "channel": 1}, {"time_played": 240.6249999999953, "midi_note": 62, "frequency": 293.66, "note_held": 0.6380208333333428, "velocity": 117, "channel": 1}, {"time_played": 240.6249999999953, "midi_note": 66, "frequency": 369.99, "note_held": 0.026041666666666668, "velocity": 110, "channel": 1}, {"time_played": 240.9374999999953, "midi_note": 54, "frequency": 185, "note_held": 0.2734375, "velocity": 91, "channel": 1}, {"time_played": 241.2499999999953, "midi_note": 50, "frequency": 146.83, "note_held": 0.9374999999999716, "velocity": 107, "channel": 1}, {"time_played": 241.56249999999534, "midi_note": 57, "frequency": 220, "note_held": 0.006510416666666667, "velocity": 93, "channel": 1}, {"time_played": 241.8749999999953, "midi_note": 66, "frequency": 369.99, "note_held": 0.20182291666666669, "velocity": 116, "channel": 1}, {"time_played": 241.8749999999953, "midi_note": 62, "frequency": 293.66, "note_held": 0.618489583333286, "velocity": 110, "channel": 1}, {"time_played": 242.18749999999528, "midi_note": 57, "frequency": 220, "note_held": 0.2994791666666572, "velocity": 96, "channel": 1}, {"time_played": 242.49999999999525, "midi_note": 45, "frequency": 110, "note_held": 0.006510416666666667, "velocity": 110, "channel": 1}, {"time_played": 242.81249999999523, "midi_note": 52, "frequency": 164.81, "note_held": 0.10416666666666667, "velocity": 98, "channel": 1}, {"time_played": 243.12499999999525, "midi_note": 61, "frequency": 277.18, "note_held": 0.006510416666666667, "velocity": 110, "channel": 1}, {"time_played": 243.12499999999525, "midi_note": 64, "frequency": 329.63, "note_held": 0.6640624999999716, "velocity": 114, "channel": 1}, {"time_played": 243.12499999999525, "midi_note": 57, "frequency": 220, "note_held": 0.6705729166666288, "velocity": 114, "channel": 1}, {"time_played": 243.4374999999952, "midi_note": 52, "frequency": 164.81, "note_held": 0.026041666666666668, "velocity": 87, "channel": 1}, {"time_played": 243.74999999999523, "midi_note": 40, "frequency": 82.41, "note_held": 0.052083333333333336, "velocity": 114, "channel": 1}, {"time_played": 244.0624999999952, "midi_note": 52, "frequency": 164.81, "note_held": 0.006510416666666667, "velocity": 96, "channel": 1}, {"time_played": 244.37499999999517, "midi_note": 59, "frequency": 246.94, "note_held": 0.4817708333333144, "velocity": 114, "channel": 1}, {"time_played": 244.37499999999517, "midi_note": 64, "frequency": 329.63, "note_held": 0.4947916666666572, "velocity": 110, "channel": 1}, {"time_played": 244.37499999999517, "midi_note": 56, "frequency": 207.65, "note_held": 0.17578125, "velocity": 99, "channel": 1}, {"time_played": 244.68749999999517, "midi_note": 52, "frequency": 164.81, "note_held": 0.11067708333333334, "velocity": 96, "channel": 1}, {"time_played": 244.99999999999517, "midi_note": 45, "frequency": 110, "note_held": 1.4062499999999716, "velocity": 85, "channel": 1}, {"time_played": 245.31249999999517, "midi_note": 52, "frequency": 164.81, "note_held": 0.7552083333333144, "velocity": 77, "channel": 1}, {"time_played": 245.62499999999517, "midi_note": 59, "frequency": 246.94, "note_held": 0.3385416666666572, "velocity": 85, "channel": 1}, {"time_played": 245.93749999999517, "midi_note": 60, "frequency": 261.63, "note_held": 0.4687499999999716, "velocity": 85, "channel": 1}, {"time_played": 247.49999999999508, "midi_note": 41, "frequency": 87.31, "note_held": 50.3059895833359, "velocity": 77, "channel": 1}, {"time_played": 247.81249999999508, "midi_note": 48, "frequency": 130.81, "note_held": 0.5924479166666572, "velocity": 74, "channel": 1}, {"time_played": 248.12499999999508, "midi_note": 55, "frequency": 196, "note_held": 0.2799479166666572, "velocity": 90, "channel": 1}, {"time_played": 248.43749999999508, "midi_note": 50, "frequency": 146.83, "note_held": 0.5989583333333428, "velocity": 88, "channel": 1}, {"time_played": 248.43749999999508, "midi_note": 57, "frequency": 220, "note_held": 0.6315104166666572, "velocity": 85, "channel": 1}, {"time_played": 249.99999999999508, "midi_note": 45, "frequency": 110, "note_held": 1.4062499999999716, "velocity": 85, "channel": 1}, {"time_played": 250.31249999999508, "midi_note": 52, "frequency": 164.81, "note_held": 0.7552083333333144, "velocity": 77, "channel": 1}, {"time_played": 250.62499999999508, "midi_note": 59, "frequency": 246.94, "note_held": 0.3385416666666572, "velocity": 85, "channel": 1}, {"time_played": 250.93749999999508, "midi_note": 60, "frequency": 261.63, "note_held": 0.4687499999999716, "velocity": 85, "channel": 1}, {"time_played": 252.499999999995, "midi_note": 41, "frequency": 87.31, "note_held": 45.93098958333604, "velocity": 77, "channel": 1}, {"time_played": 252.812499999995, "midi_note": 48, "frequency": 130.81, "note_held": 0.5924479166666572, "velocity": 74, "channel": 1}, {"time_played": 253.124999999995, "midi_note": 55, "frequency": 196, "note_held": 0.2799479166666572, "velocity": 90, "channel": 1}, {"time_played": 253.437499999995, "midi_note": 52, "frequency": 164.81, "note_held": 0.5989583333333428, "velocity": 88, "channel": 1}, {"time_played": 253.437499999995, "midi_note": 57, "frequency": 220, "note_held": 0.6315104166666572, "velocity": 85, "channel": 1}, {"time_played": 254.999999999995, "midi_note": 45, "frequency": 110, "note_held": 1.40625, "velocity": 85, "channel": 1}, {"time_played": 255.312499999995, "midi_note": 52, "frequency": 164.81, "note_held": 0.7552083333333712, "velocity": 77, "channel": 1}, {"time_played": 255.62499999999503, "midi_note": 59, "frequency": 246.94, "note_held": 0.3385416666666856, "velocity": 85, "channel": 1}, {"time_played": 255.93749999999505, "midi_note": 60, "frequency": 261.63, "note_held": 0.46874999999994316, "velocity": 85, "channel": 1}, {"time_played": 257.4999999999953, "midi_note": 41, "frequency": 87.31, "note_held": 40.3059895833357, "velocity": 77, "channel": 1}, {"time_played": 257.8124999999953, "midi_note": 48, "frequency": 130.81, "note_held": 0.5924479166666856, "velocity": 74, "channel": 1}, {"time_played": 258.1249999999953, "midi_note": 55, "frequency": 196, "note_held": 0.2799479166666856, "velocity": 90, "channel": 1}, {"time_played": 258.4374999999953, "midi_note": 50, "frequency": 146.83, "note_held": 0.5989583333332575, "velocity": 88, "channel": 1}, {"time_played": 258.4374999999953, "midi_note": 57, "frequency": 220, "note_held": 0.6315104166666288, "velocity": 85, "channel": 1}, {"time_played": 259.9999999999952, "midi_note": 45, "frequency": 110, "note_held": 1.4062499999999432, "velocity": 85, "channel": 1}, {"time_played": 260.31249999999517, "midi_note": 52, "frequency": 164.81, "note_held": 0.7552083333333712, "velocity": 77, "channel": 1}, {"time_played": 260.62499999999517, "midi_note": 59, "frequency": 246.94, "note_held": 0.3385416666666856, "velocity": 85, "channel": 1}, {"time_played": 260.93749999999517, "midi_note": 60, "frequency": 261.63, "note_held": 0.46875, "velocity": 85, "channel": 1}, {"time_played": 262.4999999999954, "midi_note": 41, "frequency": 87.31, "note_held": 36.243489583335645, "velocity": 77, "channel": 1}, {"time_played": 262.8124999999954, "midi_note": 48, "frequency": 130.81, "note_held": 0.5924479166666856, "velocity": 74, "channel": 1}, {"time_played": 263.1249999999954, "midi_note": 55, "frequency": 196, "note_held": 0.2799479166666856, "velocity": 90, "channel": 1}, {"time_played": 263.43749999999545, "midi_note": 52, "frequency": 164.81, "note_held": 0.5989583333333144, "velocity": 88, "channel": 1}, {"time_played": 263.43749999999545, "midi_note": 57, "frequency": 220, "note_held": 0.6315104166666856, "velocity": 85, "channel": 1}, {"time_played": 264.99999999999545, "midi_note": 48, "frequency": 130.81, "note_held": 0.3059895833333144, "velocity": 82, "channel": 1}, {"time_played": 264.99999999999545, "midi_note": 52, "frequency": 164.81, "note_held": 0.3059895833333144, "velocity": 74, "channel": 1}, {"time_played": 265.31249999999545, "midi_note": 55, "frequency": 196, "note_held": 0.3059895833333144, "velocity": 77, "channel": 1}, {"time_played": 265.62499999999545, "midi_note": 60, "frequency": 261.63, "note_held": 0.30598958333337123, "velocity": 67, "channel": 1}, {"time_played": 265.9374999999955, "midi_note": 55, "frequency": 196, "note_held": 0.30598958333337123, "velocity": 47, "channel": 1}, {"time_played": 266.24999999999557, "midi_note": 43, "frequency": 98, "note_held": 0.30598958333337123, "velocity": 82, "channel": 1}, {"time_played": 266.5624999999956, "midi_note": 47, "frequency": 123.47, "note_held": 0.3059895833333144, "velocity": 74, "channel": 1}, {"time_played": 266.8749999999956, "midi_note": 62, "frequency": 293.66, "note_held": 0.30598958333337123, "velocity": 90, "channel": 1}, {"time_played": 266.8749999999956, "midi_note": 55, "frequency": 196, "note_held": 0.30598958333337123, "velocity": 88, "channel": 1}, {"time_played": 267.1874999999957, "midi_note": 55, "frequency": 196, "note_held": 0.3059895833333144, "velocity": 58, "channel": 1}, {"time_played": 267.4999999999957, "midi_note": 53, "frequency": 174.61, "note_held": 0.30598958333337123, "velocity": 85, "channel": 1}, {"time_played": 267.4999999999957, "midi_note": 48, "frequency": 130.81, "note_held": 0.30598958333337123, "velocity": 85, "channel": 1}, {"time_played": 267.81249999999574, "midi_note": 57, "frequency": 220, "note_held": 0.3059895833333144, "velocity": 71, "channel": 1}, {"time_played": 268.12499999999574, "midi_note": 65, "frequency": 349.23, "note_held": 0.30598958333337123, "velocity": 85, "channel": 1}, {"time_played": 268.12499999999574, "midi_note": 60, "frequency": 261.63, "note_held": 0.30598958333337123, "velocity": 93, "channel": 1}, {"time_played": 268.4374999999958, "midi_note": 57, "frequency": 220, "note_held": 0.3059895833333144, "velocity": 78, "channel": 1}, {"time_played": 268.7499999999958, "midi_note": 50, "frequency": 146.83, "note_held": 0.30598958333337123, "velocity": 90, "channel": 1}, {"time_played": 269.06249999999585, "midi_note": 57, "frequency": 220, "note_held": 0.30598958333337123, "velocity": 77, "channel": 1}, {"time_played": 269.3749999999959, "midi_note": 65, "frequency": 349.23, "note_held": 0.30598958333337123, "velocity": 78, "channel": 1}, {"time_played": 269.3749999999959, "midi_note": 62, "frequency": 293.66, "note_held": 0.30598958333337123, "velocity": 85, "channel": 1}, {"time_played": 269.99999999999596, "midi_note": 45, "frequency": 110, "note_held": 1.40625, "velocity": 85, "channel": 1}, {"time_played": 270.31249999999596, "midi_note": 52, "frequency": 164.81, "note_held": 0.7552083333333712, "velocity": 77, "channel": 1}, {"time_played": 270.62499999999596, "midi_note": 59, "frequency": 246.94, "note_held": 0.3385416666666856, "velocity": 85, "channel": 1}, {"time_played": 270.93749999999596, "midi_note": 60, "frequency": 261.63, "note_held": 0.46875, "velocity": 85, "channel": 1}, {"time_played": 272.49999999999625, "midi_note": 41, "frequency": 87.31, "note_held": 25.305989583334735, "velocity": 77, "channel": 1}, {"time_played": 272.81249999999625, "midi_note": 48, "frequency": 130.81, "note_held": 0.5924479166666856, "velocity": 74, "channel": 1}, {"time_played": 273.12499999999625, "midi_note": 55, "frequency": 196, "note_held": 0.2799479166666856, "velocity": 90, "channel": 1}, {"time_played": 273.43749999999625, "midi_note": 50, "frequency": 146.83, "note_held": 0.5989583333333144, "velocity": 88, "channel": 1}, {"time_played": 273.43749999999625, "midi_note": 57, "frequency": 220, "note_held": 0.6315104166666856, "velocity": 85, "channel": 1}, {"time_played": 274.99999999999625, "midi_note": 45, "frequency": 110, "note_held": 1.4062499999999432, "velocity": 85, "channel": 1}, {"time_played": 275.3124999999962, "midi_note": 52, "frequency": 164.81, "note_held": 0.7552083333333712, "velocity": 77, "channel": 1}, {"time_played": 275.6249999999962, "midi_note": 59, "frequency": 246.94, "note_held": 0.3385416666666856, "velocity": 85, "channel": 1}, {"time_played": 275.9374999999962, "midi_note": 60, "frequency": 261.63, "note_held": 0.46875, "velocity": 85, "channel": 1}, {"time_played": 277.4999999999965, "midi_note": 41, "frequency": 87.31, "note_held": 20.930989583334565, "velocity": 77, "channel": 1}, {"time_played": 277.8124999999965, "midi_note": 48, "frequency": 130.81, "note_held": 0.5924479166666856, "velocity": 74, "channel": 1}, {"time_played": 278.1249999999965, "midi_note": 55, "frequency": 196, "note_held": 0.2799479166666856, "velocity": 90, "channel": 1}, {"time_played": 278.4374999999965, "midi_note": 52, "frequency": 164.81, "note_held": 0.5989583333333144, "velocity": 88, "channel": 1}, {"time_played": 278.4374999999965, "midi_note": 57, "frequency": 220, "note_held": 0.6315104166666856, "velocity": 85, "channel": 1}, {"time_played": 279.99999999999653, "midi_note": 45, "frequency": 110, "note_held": 1.4062499999999432, "velocity": 85, "channel": 1}, {"time_played": 280.31249999999653, "midi_note": 52, "frequency": 164.81, "note_held": 0.7552083333333144, "velocity": 77, "channel": 1}, {"time_played": 280.6249999999965, "midi_note": 59, "frequency": 246.94, "note_held": 0.3385416666666856, "velocity": 85, "channel": 1}, {"time_played": 280.9374999999965, "midi_note": 60, "frequency": 261.63, "note_held": 0.46875, "velocity": 85, "channel": 1}, {"time_played": 282.4999999999967, "midi_note": 41, "frequency": 87.31, "note_held": 15.30598958333428, "velocity": 77, "channel": 1}, {"time_played": 282.8124999999967, "midi_note": 48, "frequency": 130.81, "note_held": 0.5924479166666856, "velocity": 74, "channel": 1}, {"time_played": 283.1249999999967, "midi_note": 55, "frequency": 196, "note_held": 0.2799479166666856, "velocity": 90, "channel": 1}, {"time_played": 283.4374999999967, "midi_note": 50, "frequency": 146.83, "note_held": 0.5989583333333712, "velocity": 88, "channel": 1}, {"time_played": 283.4374999999967, "midi_note": 57, "frequency": 220, "note_held": 0.6315104166667425, "velocity": 85, "channel": 1}, {"time_played": 284.99999999999676, "midi_note": 45, "frequency": 110, "note_held": 1.4062499999998295, "velocity": 85, "channel": 1}, {"time_played": 285.3124999999967, "midi_note": 52, "frequency": 164.81, "note_held": 0.7552083333332575, "velocity": 77, "channel": 1}, {"time_played": 285.6249999999967, "midi_note": 59, "frequency": 246.94, "note_held": 0.33854166666662877, "velocity": 85, "channel": 1}, {"time_played": 285.93749999999665, "midi_note": 60, "frequency": 261.63, "note_held": 0.46874999999994316, "velocity": 85, "channel": 1}, {"time_played": 287.4999999999968, "midi_note": 41, "frequency": 87.31, "note_held": 11.86848958333428, "velocity": 77, "channel": 1}, {"time_played": 287.8124999999968, "midi_note": 48, "frequency": 130.81, "note_held": 0.5924479166666288, "velocity": 74, "channel": 1}, {"time_played": 288.12499999999676, "midi_note": 55, "frequency": 196, "note_held": 0.2799479166666856, "velocity": 90, "channel": 1}, {"time_played": 288.43749999999676, "midi_note": 52, "frequency": 164.81, "note_held": 0.5989583333333144, "velocity": 88, "channel": 1}, {"time_played": 288.43749999999676, "midi_note": 57, "frequency": 220, "note_held": 0.6315104166666856, "velocity": 85, "channel": 1}, {"time_played": 289.99999999999676, "midi_note": 48, "frequency": 130.81, "note_held": 0.3059895833333144, "velocity": 82, "channel": 1}, {"time_played": 289.99999999999676, "midi_note": 52, "frequency": 164.81, "note_held": 0.3059895833333144, "velocity": 74, "channel": 1}, {"time_played": 290.31249999999676, "midi_note": 55, "frequency": 196, "note_held": 0.3059895833333144, "velocity": 77, "channel": 1}, {"time_played": 290.62499999999676, "midi_note": 60, "frequency": 261.63, "note_held": 0.30598958333337123, "velocity": 67, "channel": 1}, {"time_played": 290.9374999999968, "midi_note": 55, "frequency": 196, "note_held": 0.3059895833333144, "velocity": 47, "channel": 1}, {"time_played": 291.2499999999968, "midi_note": 43, "frequency": 98, "note_held": 0.30598958333337123, "velocity": 82, "channel": 1}, {"time_played": 291.5624999999969, "midi_note": 47, "frequency": 123.47, "note_held": 0.3059895833333144, "velocity": 74, "channel": 1}, {"time_played": 291.8749999999969, "midi_note": 62, "frequency": 293.66, "note_held": 0.30598958333337123, "velocity": 90, "channel": 1}, {"time_played": 291.8749999999969, "midi_note": 55, "frequency": 196, "note_held": 0.30598958333337123, "velocity": 88, "channel": 1}, {"time_played": 292.18749999999693, "midi_note": 55, "frequency": 196, "note_held": 0.30598958333337123, "velocity": 58, "channel": 1}, {"time_played": 292.499999999997, "midi_note": 48, "frequency": 130.81, "note_held": 0.30598958333337123, "velocity": 85, "channel": 1}, {"time_played": 292.499999999997, "midi_note": 53, "frequency": 174.61, "note_held": 0.30598958333337123, "velocity": 85, "channel": 1}, {"time_played": 292.81249999999704, "midi_note": 57, "frequency": 220, "note_held": 0.3059895833333144, "velocity": 62, "channel": 1}, {"time_played": 293.12499999999704, "midi_note": 65, "frequency": 349.23, "note_held": 0.30598958333337123, "velocity": 74, "channel": 1}, {"time_played": 293.12499999999704, "midi_note": 60, "frequency": 261.63, "note_held": 0.30598958333337123, "velocity": 81, "channel": 1}, {"time_played": 293.4374999999971, "midi_note": 57, "frequency": 220, "note_held": 0.3059895833333144, "velocity": 68, "channel": 1}, {"time_played": 293.7499999999971, "midi_note": 50, "frequency": 146.83, "note_held": 0.30598958333337123, "velocity": 79, "channel": 1}, {"time_played": 294.06249999999716, "midi_note": 57, "frequency": 220, "note_held": 0.30598958333337123, "velocity": 67, "channel": 1}, {"time_played": 294.3749999999972, "midi_note": 65, "frequency": 349.23, "note_held": 0.30598958333337123, "velocity": 68, "channel": 1}, {"time_played": 294.3749999999972, "midi_note": 62, "frequency": 293.66, "note_held": 0.30598958333337123, "velocity": 74, "channel": 1}, {"time_played": 294.99999999999727, "midi_note": 69, "frequency": 440, "note_held": 0.30598958333337123, "velocity": 100, "channel": 1}, {"time_played": 294.99999999999727, "midi_note": 64, "frequency": 329.63, "note_held": 0.30598958333337123, "velocity": 100, "channel": 1}, {"time_played": 294.99999999999727, "midi_note": 60, "frequency": 261.63, "note_held": 0.30598958333337123, "velocity": 100, "channel": 1}, {"time_played": 294.99999999999727, "midi_note": 57, "frequency": 220, "note_held": 0.30598958333337123, "velocity": 100, "channel": 1}, {"time_played": 294.99999999999727, "midi_note": 52, "frequency": 164.81, "note_held": 0.30598958333337123, "velocity": 100, "channel": 1}, {"time_played": 294.99999999999727, "midi_note": 45, "frequency": 110, "note_held": 0.07161458333333334, "velocity": 100, "channel": 1}, {"time_played": 295.3124999999973, "midi_note": 57, "frequency": 220, "note_held": 0.14973958333337123, "velocity": 70, "channel": 1}, {"time_played": 295.3124999999973, "midi_note": 60, "frequency": 261.63, "note_held": 0.14973958333337123, "velocity": 70, "channel": 1}, {"time_played": 295.3124999999973, "midi_note": 64, "frequency": 329.63, "note_held": 0.14973958333337123, "velocity": 70, "channel": 1}, {"time_played": 295.3124999999973, "midi_note": 69, "frequency": 440, "note_held": 0.006510416666666667, "velocity": 70, "channel": 1}, {"time_played": 295.4687499999974, "midi_note": 69, "frequency": 440, "note_held": 0.3059895833333144, "velocity": 80, "channel": 1}, {"time_played": 295.4687499999974, "midi_note": 64, "frequency": 329.63, "note_held": 0.3059895833333144, "velocity": 80, "channel": 1}, {"time_played": 295.4687499999974, "midi_note": 60, "frequency": 261.63, "note_held": 0.3059895833333144, "velocity": 80, "channel": 1}, {"time_played": 295.4687499999974, "midi_note": 57, "frequency": 220, "note_held": 0.3059895833333144, "velocity": 80, "channel": 1}, {"time_played": 295.4687499999974, "midi_note": 52, "frequency": 164.81, "note_held": 0.006510416666666667, "velocity": 80, "channel": 1}, {"time_played": 295.6249999999974, "midi_note": 69, "frequency": 440, "note_held": 0.14973958333331439, "velocity": 80, "channel": 1}, {"time_played": 295.6249999999974, "midi_note": 64, "frequency": 329.63, "note_held": 0.14973958333331439, "velocity": 80, "channel": 1}, {"time_played": 295.6249999999974, "midi_note": 60, "frequency": 261.63, "note_held": 0.14973958333331439, "velocity": 80, "channel": 1}, {"time_played": 295.6249999999974, "midi_note": 57, "frequency": 220, "note_held": 0.14973958333331439, "velocity": 80, "channel": 1}, {"time_played": 295.6249999999974, "midi_note": 52, "frequency": 164.81, "note_held": 0.14973958333331439, "velocity": 80, "channel": 1}, {"time_played": 295.6249999999974, "midi_note": 45, "frequency": 110, "note_held": 0.078125, "velocity": 80, "channel": 1}, {"time_played": 295.93749999999744, "midi_note": 69, "frequency": 440, "note_held": 0.3059895833333144, "velocity": 100, "channel": 1}, {"time_played": 295.93749999999744, "midi_note": 64, "frequency": 329.63, "note_held": 0.3059895833333144, "velocity": 100, "channel": 1}, {"time_played": 295.93749999999744, "midi_note": 60, "frequency": 261.63, "note_held": 0.3059895833333144, "velocity": 100, "channel": 1}, {"time_played": 295.93749999999744, "midi_note": 57, "frequency": 220, "note_held": 0.3059895833333144, "velocity": 100, "channel": 1}, {"time_played": 295.93749999999744, "midi_note": 52, "frequency": 164.81, "note_held": 0.3059895833333144, "velocity": 100, "channel": 1}, {"time_played": 295.93749999999744, "midi_note": 45, "frequency": 110, "note_held": 0.006510416666666667, "velocity": 100, "channel": 1}, {"time_played": 296.24999999999744, "midi_note": 57, "frequency": 220, "note_held": 0.14973958333331439, "velocity": 70, "channel": 1}, {"time_played": 296.24999999999744, "midi_note": 60, "frequency": 261.63, "note_held": 0.14973958333331439, "velocity": 70, "channel": 1}, {"time_played": 296.24999999999744, "midi_note": 64, "frequency": 329.63, "note_held": 0.14973958333331439, "velocity": 70, "channel": 1}, {"time_played": 296.24999999999744, "midi_note": 69, "frequency": 440, "note_held": 0.006510416666666667, "velocity": 70, "channel": 1}, {"time_played": 296.40624999999744, "midi_note": 69, "frequency": 440, "note_held": 0.3059895833334281, "velocity": 80, "channel": 1}, {"time_played": 296.40624999999744, "midi_note": 64, "frequency": 329.63, "note_held": 0.3059895833334281, "velocity": 80, "channel": 1}, {"time_played": 296.40624999999744, "midi_note": 60, "frequency": 261.63, "note_held": 0.3059895833334281, "velocity": 80, "channel": 1}, {"time_played": 296.40624999999744, "midi_note": 57, "frequency": 220, "note_held": 0.3059895833334281, "velocity": 80, "channel": 1}, {"time_played": 296.40624999999744, "midi_note": 52, "frequency": 164.81, "note_held": 0.006510416666666667, "velocity": 80, "channel": 1}, {"time_played": 296.5624999999975, "midi_note": 69, "frequency": 440, "note_held": 0.14973958333337123, "velocity": 80, "channel": 1}, {"time_played": 296.5624999999975, "midi_note": 64, "frequency": 329.63, "note_held": 0.14973958333337123, "velocity": 80, "channel": 1}, {"time_played": 296.5624999999975, "midi_note": 60, "frequency": 261.63, "note_held": 0.14973958333337123, "velocity": 80, "channel": 1}, {"time_played": 296.5624999999975, "midi_note": 57, "frequency": 220, "note_held": 0.14973958333337123, "velocity": 80, "channel": 1}, {"time_played": 296.5624999999975, "midi_note": 52, "frequency": 164.81, "note_held": 0.14973958333337123, "velocity": 80, "channel": 1}, {"time_played": 296.5624999999975, "midi_note": 45, "frequency": 110, "note_held": 0.006510416666666667, "velocity": 80, "channel": 1}, {"time_played": 296.87499999999756, "midi_note": 69, "frequency": 440, "note_held": 0.30598958333337123, "velocity": 100, "channel": 1}, {"time_played": 296.87499999999756, "midi_note": 64, "frequency": 329.63, "note_held": 0.30598958333337123, "velocity": 100, "channel": 1}, {"time_played": 296.87499999999756, "midi_note": 60, "frequency": 261.63, "note_held": 0.30598958333337123, "velocity": 100, "channel": 1}, {"time_played": 296.87499999999756, "midi_note": 57, "frequency": 220, "note_held": 0.30598958333337123, "velocity": 100, "channel": 1}, {"time_played": 296.87499999999756, "midi_note": 52, "frequency": 164.81, "note_held": 0.30598958333337123, "velocity": 100, "channel": 1}, {"time_played": 296.87499999999756, "midi_note": 45, "frequency": 110, "note_held": 0.006510416666666667, "velocity": 100, "channel": 1}, {"time_played": 297.1874999999976, "midi_note": 60, "frequency": 261.63, "note_held": 0.14973958333331439, "velocity": 70, "channel": 1}, {"time_played": 297.1874999999976, "midi_note": 64, "frequency": 329.63, "note_held": 0.14973958333331439, "velocity": 70, "channel": 1}, {"time_played": 297.1874999999976, "midi_note": 69, "frequency": 440, "note_held": 0.006510416666666667, "velocity": 70, "channel": 1}, {"time_played": 297.3437499999976, "midi_note": 57, "frequency": 220, "note_held": 0.14973958333331439, "velocity": 70, "channel": 1}, {"time_played": 297.3437499999976, "midi_note": 60, "frequency": 261.63, "note_held": 0.14973958333331439, "velocity": 70, "channel": 1}, {"time_played": 297.3437499999976, "midi_note": 64, "frequency": 329.63, "note_held": 0.14973958333331439, "velocity": 70, "channel": 1}, {"time_played": 297.3437499999976, "midi_note": 69, "frequency": 440, "note_held": 0.006510416666666667, "velocity": 70, "channel": 1}, {"time_played": 297.4999999999976, "midi_note": 65, "frequency": 349.23, "note_held": 0.30598958333337123, "velocity": 100, "channel": 1}, {"time_played": 297.4999999999976, "midi_note": 60, "frequency": 261.63, "note_held": 0.30598958333337123, "velocity": 100, "channel": 1}, {"time_played": 297.4999999999976, "midi_note": 57, "frequency": 220, "note_held": 0.30598958333337123, "velocity": 100, "channel": 1}, {"time_played": 297.4999999999976, "midi_note": 53, "frequency": 174.61, "note_held": 0.30598958333337123, "velocity": 100, "channel": 1}, {"time_played": 297.4999999999976, "midi_note": 48, "frequency": 130.81, "note_held": 0.30598958333337123, "velocity": 100, "channel": 1}, {"time_played": 297.4999999999976, "midi_note": 41, "frequency": 87.31, "note_held": 0.006510416666666667, "velocity": 100, "channel": 1}, {"time_played": 297.81249999999767, "midi_note": 53, "frequency": 174.61, "note_held": 0.14973958333337123, "velocity": 70, "channel": 1}, {"time_played": 297.81249999999767, "midi_note": 57, "frequency": 220, "note_held": 0.14973958333337123, "velocity": 70, "channel": 1}, {"time_played": 297.81249999999767, "midi_note": 60, "frequency": 261.63, "note_held": 0.14973958333337123, "velocity": 70, "channel": 1}, {"time_played": 297.81249999999767, "midi_note": 65, "frequency": 349.23, "note_held": 0.006510416666666667, "velocity": 70, "channel": 1}, {"time_played": 297.9687499999977, "midi_note": 65, "frequency": 349.23, "note_held": 0.3059895833333144, "velocity": 80, "channel": 1}, {"time_played": 297.9687499999977, "midi_note": 60, "frequency": 261.63, "note_held": 0.3059895833333144, "velocity": 80, "channel": 1}, {"time_played": 297.9687499999977, "midi_note": 57, "frequency": 220, "note_held": 0.3059895833333144, "velocity": 80, "channel": 1}, {"time_played": 297.9687499999977, "midi_note": 53, "frequency": 174.61, "note_held": 0.3059895833333144, "velocity": 80, "channel": 1}, {"time_played": 297.9687499999977, "midi_note": 48, "frequency": 130.81, "note_held": 0.006510416666666667, "velocity": 80, "channel": 1}, {"time_played": 298.1249999999977, "midi_note": 65, "frequency": 349.23, "note_held": 0.14973958333331439, "velocity": 80, "channel": 1}, {"time_played": 298.1249999999977, "midi_note": 60, "frequency": 261.63, "note_held": 0.14973958333331439, "velocity": 80, "channel": 1}, {"time_played": 298.1249999999977, "midi_note": 57, "frequency": 220, "note_held": 0.14973958333331439, "velocity": 80, "channel": 1}, {"time_played": 298.1249999999977, "midi_note": 53, "frequency": 174.61, "note_held": 0.14973958333331439, "velocity": 80, "channel": 1}, {"time_played": 298.1249999999977, "midi_note": 48, "frequency": 130.81, "note_held": 0.14973958333331439, "velocity": 80, "channel": 1}, {"time_played": 298.1249999999977, "midi_note": 41, "frequency": 87.31, "note_held": 0.09114583333333334, "velocity": 80, "channel": 1}, {"time_played": 298.4374999999977, "midi_note": 65, "frequency": 349.23, "note_held": 0.3059895833333144, "velocity": 100, "channel": 1}, {"time_played": 298.4374999999977, "midi_note": 60, "frequency": 261.63, "note_held": 0.3059895833333144, "velocity": 100, "channel": 1}, {"time_played": 298.4374999999977, "midi_note": 57, "frequency": 220, "note_held": 0.3059895833333144, "velocity": 100, "channel": 1}, {"time_played": 298.4374999999977, "midi_note": 53, "frequency": 174.61, "note_held": 0.3059895833333144, "velocity": 100, "channel": 1}, {"time_played": 298.4374999999977, "midi_note": 48, "frequency": 130.81, "note_held": 0.3059895833333144, "velocity": 100, "channel": 1}, {"time_played": 298.4374999999977, "midi_note": 41, "frequency": 87.31, "note_held": 0.006510416666666667, "velocity": 100, "channel": 1}, {"time_played": 298.7499999999977, "midi_note": 53, "frequency": 174.61, "note_held": 0.14973958333331439, "velocity": 70, "channel": 1}, {"time_played": 298.7499999999977, "midi_note": 57, "frequency": 220, "note_held": 0.14973958333331439, "velocity": 70, "channel": 1}, {"time_played": 298.7499999999977, "midi_note": 60, "frequency": 261.63, "note_held": 0.14973958333331439, "velocity": 70, "channel": 1}, {"time_played": 298.7499999999977, "midi_note": 65, "frequency": 349.23, "note_held": 0.006510416666666667, "velocity": 70, "channel": 1}, {"time_played": 298.9062499999977, "midi_note": 65, "frequency": 349.23, "note_held": 0.30598958333337123, "velocity": 80, "channel": 1}, {"time_played": 298.9062499999977, "midi_note": 60, "frequency": 261.63, "note_held": 0.30598958333337123, "velocity": 80, "channel": 1}, {"time_played": 298.9062499999977, "midi_note": 57, "frequency": 220, "note_held": 0.30598958333337123, "velocity": 80, "channel": 1}, {"time_played": 298.9062499999977, "midi_note": 53, "frequency": 174.61, "note_held": 0.30598958333337123, "velocity": 80, "channel": 1}, {"time_played": 298.9062499999977, "midi_note": 48, "frequency": 130.81, "note_held": 0.006510416666666667, "velocity": 80, "channel": 1}, {"time_played": 299.0624999999978, "midi_note": 65, "frequency": 349.23, "note_held": 0.14973958333331439, "velocity": 80, "channel": 1}, {"time_played": 299.0624999999978, "midi_note": 60, "frequency": 261.63, "note_held": 0.14973958333331439, "velocity": 80, "channel": 1}, {"time_played": 299.0624999999978, "midi_note": 57, "frequency": 220, "note_held": 0.14973958333331439, "velocity": 80, "channel": 1}, {"time_played": 299.0624999999978, "midi_note": 53, "frequency": 174.61, "note_held": 0.14973958333331439, "velocity": 80, "channel": 1}, {"time_played": 299.0624999999978, "midi_note": 48, "frequency": 130.81, "note_held": 0.14973958333331439, "velocity": 80, "channel": 1}, {"time_played": 299.0624999999978, "midi_note": 41, "frequency": 87.31, "note_held": 0.006510416666666667, "velocity": 80, "channel": 1}, {"time_played": 299.3749999999978, "midi_note": 65, "frequency": 349.23, "note_held": 0.30598958333337123, "velocity": 100, "channel": 1}, {"time_played": 299.3749999999978, "midi_note": 60, "frequency": 261.63, "note_held": 0.30598958333337123, "velocity": 100, "channel": 1}, {"time_played": 299.3749999999978, "midi_note": 57, "frequency": 220, "note_held": 0.30598958333337123, "velocity": 100, "channel": 1}, {"time_played": 299.3749999999978, "midi_note": 53, "frequency": 174.61, "note_held": 0.30598958333337123, "velocity": 100, "channel": 1}, {"time_played": 299.3749999999978, "midi_note": 48, "frequency": 130.81, "note_held": 0.30598958333337123, "velocity": 100, "channel": 1}, {"time_played": 299.3749999999978, "midi_note": 41, "frequency": 87.31, "note_held": 0.006510416666666667, "velocity": 100, "channel": 1}, {"time_played": 299.53124999999784, "midi_note": 65, "frequency": 349.23, "note_held": 0.14973958333331439, "velocity": 64, "channel": 1}, {"time_played": 299.53124999999784, "midi_note": 60, "frequency": 261.63, "note_held": 0.14973958333331439, "velocity": 64, "channel": 1}, {"time_played": 299.53124999999784, "midi_note": 57, "frequency": 220, "note_held": 0.14973958333331439, "velocity": 64, "channel": 1}, {"time_played": 299.53124999999784, "midi_note": 53, "frequency": 174.61, "note_held": 0.006510416666666667, "velocity": 64, "channel": 1}, {"time_played": 299.68749999999784, "midi_note": 57, "frequency": 220, "note_held": 0.14973958333331439, "velocity": 56, "channel": 1}, {"time_played": 299.68749999999784, "midi_note": 60, "frequency": 261.63, "note_held": 0.14973958333331439, "velocity": 56, "channel": 1}, {"time_played": 299.68749999999784, "midi_note": 65, "frequency": 349.23, "note_held": 0.006510416666666667, "velocity": 56, "channel": 1}, {"time_played": 299.84374999999784, "midi_note": 53, "frequency": 174.61, "note_held": 0.14973958333331439, "velocity": 70, "channel": 1}, {"time_played": 299.84374999999784, "midi_note": 57, "frequency": 220, "note_held": 0.14973958333331439, "velocity": 70, "channel": 1}, {"time_played": 299.84374999999784, "midi_note": 60, "frequency": 261.63, "note_held": 0.14973958333331439, "velocity": 70, "channel": 1}, {"time_played": 299.84374999999784, "midi_note": 65, "frequency": 349.23, "note_held": 0.006510416666666667, "velocity": 70, "channel": 1}, {"time_played": 299.99999999999784, "midi_note": 69, "frequency": 440, "note_held": 0.30598958333337123, "velocity": 100, "channel": 1}, {"time_played": 299.99999999999784, "midi_note": 64, "frequency": 329.63, "note_held": 0.30598958333337123, "velocity": 100, "channel": 1}, {"time_played": 299.99999999999784, "midi_note": 60, "frequency": 261.63, "note_held": 0.30598958333337123, "velocity": 100, "channel": 1}, {"time_played": 299.99999999999784, "midi_note": 57, "frequency": 220, "note_held": 0.30598958333337123, "velocity": 100, "channel": 1}, {"time_played": 299.99999999999784, "midi_note": 52, "frequency": 164.81, "note_held": 0.30598958333337123, "velocity": 100, "channel": 1}, {"time_played": 299.99999999999784, "midi_note": 45, "frequency": 110, "note_held": 0.006510416666666667, "velocity": 100, "channel": 1}, {"time_played": 300.3124999999979, "midi_note": 57, "frequency": 220, "note_held": 0.14973958333331439, "velocity": 70, "channel": 1}, {"time_played": 300.3124999999979, "midi_note": 60, "frequency": 261.63, "note_held": 0.14973958333331439, "velocity": 70, "channel": 1}, {"time_played": 300.3124999999979, "midi_note": 64, "frequency": 329.63, "note_held": 0.14973958333331439, "velocity": 70, "channel": 1}, {"time_played": 300.3124999999979, "midi_note": 69, "frequency": 440, "note_held": 0.006510416666666667, "velocity": 70, "channel": 1}, {"time_played": 300.4687499999979, "midi_note": 69, "frequency": 440, "note_held": 0.3059895833333144, "velocity": 80, "channel": 1}, {"time_played": 300.4687499999979, "midi_note": 64, "frequency": 329.63, "note_held": 0.3059895833333144, "velocity": 80, "channel": 1}, {"time_played": 300.4687499999979, "midi_note": 60, "frequency": 261.63, "note_held": 0.3059895833333144, "velocity": 80, "channel": 1}, {"time_played": 300.4687499999979, "midi_note": 57, "frequency": 220, "note_held": 0.3059895833333144, "velocity": 80, "channel": 1}, {"time_played": 300.4687499999979, "midi_note": 52, "frequency": 164.81, "note_held": 0.006510416666666667, "velocity": 80, "channel": 1}, {"time_played": 300.6249999999979, "midi_note": 69, "frequency": 440, "note_held": 0.14973958333331439, "velocity": 80, "channel": 1}, {"time_played": 300.6249999999979, "midi_note": 64, "frequency": 329.63, "note_held": 0.14973958333331439, "velocity": 80, "channel": 1}, {"time_played": 300.6249999999979, "midi_note": 60, "frequency": 261.63, "note_held": 0.14973958333331439, "velocity": 80, "channel": 1}, {"time_played": 300.6249999999979, "midi_note": 57, "frequency": 220, "note_held": 0.14973958333331439, "velocity": 80, "channel": 1}, {"time_played": 300.6249999999979, "midi_note": 52, "frequency": 164.81, "note_held": 0.14973958333331439, "velocity": 80, "channel": 1}, {"time_played": 300.6249999999979, "midi_note": 45, "frequency": 110, "note_held": 0.09114583333333334, "velocity": 80, "channel": 1}, {"time_played": 300.9374999999979, "midi_note": 69, "frequency": 440, "note_held": 0.30598958333337123, "velocity": 100, "channel": 1}, {"time_played": 300.9374999999979, "midi_note": 64, "frequency": 329.63, "note_held": 0.30598958333337123, "velocity": 100, "channel": 1}, {"time_played": 300.9374999999979, "midi_note": 60, "frequency": 261.63, "note_held": 0.30598958333337123, "velocity": 100, "channel": 1}, {"time_played": 300.9374999999979, "midi_note": 57, "frequency": 220, "note_held": 0.30598958333337123, "velocity": 100, "channel": 1}, {"time_played": 300.9374999999979, "midi_note": 52, "frequency": 164.81, "note_held": 0.30598958333337123, "velocity": 100, "channel": 1}, {"time_played": 300.9374999999979, "midi_note": 45, "frequency": 110, "note_held": 0.006510416666666667, "velocity": 100, "channel": 1}, {"time_played": 301.24999999999795, "midi_note": 57, "frequency": 220, "note_held": 0.14973958333331439, "velocity": 70, "channel": 1}, {"time_played": 301.24999999999795, "midi_note": 60, "frequency": 261.63, "note_held": 0.14973958333331439, "velocity": 70, "channel": 1}, {"time_played": 301.24999999999795, "midi_note": 64, "frequency": 329.63, "note_held": 0.14973958333331439, "velocity": 70, "channel": 1}, {"time_played": 301.24999999999795, "midi_note": 69, "frequency": 440, "note_held": 0.006510416666666667, "velocity": 70, "channel": 1}, {"time_played": 301.40624999999795, "midi_note": 69, "frequency": 440, "note_held": 0.3059895833334281, "velocity": 104, "channel": 1}, {"time_played": 301.40624999999795, "midi_note": 64, "frequency": 329.63, "note_held": 0.3059895833334281, "velocity": 80, "channel": 1}, {"time_played": 301.40624999999795, "midi_note": 60, "frequency": 261.63, "note_held": 0.3059895833334281, "velocity": 80, "channel": 1}, {"time_played": 301.40624999999795, "midi_note": 57, "frequency": 220, "note_held": 0.3059895833334281, "velocity": 80, "channel": 1}, {"time_played": 301.40624999999795, "midi_note": 52, "frequency": 164.81, "note_held": 0.006510416666666667, "velocity": 80, "channel": 1}, {"time_played": 301.562499999998, "midi_note": 69, "frequency": 440, "note_held": 0.14973958333337123, "velocity": 80, "channel": 1}, {"time_played": 301.562499999998, "midi_note": 64, "frequency": 329.63, "note_held": 0.14973958333337123, "velocity": 80, "channel": 1}, {"time_played": 301.562499999998, "midi_note": 60, "frequency": 261.63, "note_held": 0.14973958333337123, "velocity": 80, "channel": 1}, {"time_played": 301.562499999998, "midi_note": 57, "frequency": 220, "note_held": 0.14973958333337123, "velocity": 80, "channel": 1}, {"time_played": 301.562499999998, "midi_note": 52, "frequency": 164.81, "note_held": 0.14973958333337123, "velocity": 80, "channel": 1}, {"time_played": 301.562499999998, "midi_note": 45, "frequency": 110, "note_held": 0.006510416666666667, "velocity": 80, "channel": 1}, {"time_played": 301.87499999999807, "midi_note": 69, "frequency": 440, "note_held": 0.3059895833333144, "velocity": 100, "channel": 1}, {"time_played": 301.87499999999807, "midi_note": 64, "frequency": 329.63, "note_held": 0.3059895833333144, "velocity": 100, "channel": 1}, {"time_played": 301.87499999999807, "midi_note": 60, "frequency": 261.63, "note_held": 0.3059895833333144, "velocity": 100, "channel": 1}, {"time_played": 301.87499999999807, "midi_note": 57, "frequency": 220, "note_held": 0.3059895833333144, "velocity": 100, "channel": 1}, {"time_played": 301.87499999999807, "midi_note": 52, "frequency": 164.81, "note_held": 0.3059895833333144, "velocity": 100, "channel": 1}, {"time_played": 301.87499999999807, "midi_note": 45, "frequency": 110, "note_held": 0.006510416666666667, "velocity": 100, "channel": 1}, {"time_played": 302.18749999999807, "midi_note": 60, "frequency": 261.63, "note_held": 0.14973958333331439, "velocity": 70, "channel": 1}, {"time_played": 302.18749999999807, "midi_note": 64, "frequency": 329.63, "note_held": 0.14973958333331439, "velocity": 70, "channel": 1}, {"time_played": 302.18749999999807, "midi_note": 69, "frequency": 440, "note_held": 0.006510416666666667, "velocity": 70, "channel": 1}, {"time_played": 302.34374999999807, "midi_note": 57, "frequency": 220, "note_held": 0.14973958333331439, "velocity": 70, "channel": 1}, {"time_played": 302.34374999999807, "midi_note": 60, "frequency": 261.63, "note_held": 0.14973958333331439, "velocity": 70, "channel": 1}, {"time_played": 302.34374999999807, "midi_note": 64, "frequency": 329.63, "note_held": 0.14973958333331439, "velocity": 70, "channel": 1}, {"time_played": 302.34374999999807, "midi_note": 69, "frequency": 440, "note_held": 0.006510416666666667, "velocity": 70, "channel": 1}, {"time_played": 302.49999999999807, "midi_note": 65, "frequency": 349.23, "note_held": 0.30598958333337123, "velocity": 100, "channel": 1}, {"time_played": 302.49999999999807, "midi_note": 60, "frequency": 261.63, "note_held": 0.30598958333337123, "velocity": 100, "channel": 1}, {"time_played": 302.49999999999807, "midi_note": 57, "frequency": 220, "note_held": 0.30598958333337123, "velocity": 100, "channel": 1}, {"time_played": 302.49999999999807, "midi_note": 53, "frequency": 174.61, "note_held": 0.30598958333337123, "velocity": 100, "channel": 1}, {"time_played": 302.49999999999807, "midi_note": 48, "frequency": 130.81, "note_held": 0.30598958333337123, "velocity": 100, "channel": 1}, {"time_played": 302.49999999999807, "midi_note": 41, "frequency": 87.31, "note_held": 0.006510416666666667, "velocity": 100, "channel": 1}, {"time_played": 302.8124999999981, "midi_note": 53, "frequency": 174.61, "note_held": 0.14973958333331439, "velocity": 70, "channel": 1}, {"time_played": 302.8124999999981, "midi_note": 57, "frequency": 220, "note_held": 0.14973958333331439, "velocity": 70, "channel": 1}, {"time_played": 302.8124999999981, "midi_note": 60, "frequency": 261.63, "note_held": 0.14973958333331439, "velocity": 70, "channel": 1}, {"time_played": 302.8124999999981, "midi_note": 65, "frequency": 349.23, "note_held": 0.006510416666666667, "velocity": 70, "channel": 1}, {"time_played": 302.9687499999981, "midi_note": 65, "frequency": 349.23, "note_held": 0.3059895833333144, "velocity": 94, "channel": 1}, {"time_played": 302.9687499999981, "midi_note": 60, "frequency": 261.63, "note_held": 0.3059895833333144, "velocity": 80, "channel": 1}, {"time_played": 302.9687499999981, "midi_note": 57, "frequency": 220, "note_held": 0.3059895833333144, "velocity": 80, "channel": 1}, {"time_played": 302.9687499999981, "midi_note": 53, "frequency": 174.61, "note_held": 0.3059895833333144, "velocity": 80, "channel": 1}, {"time_played": 302.9687499999981, "midi_note": 48, "frequency": 130.81, "note_held": 0.006510416666666667, "velocity": 80, "channel": 1}, {"time_played": 303.1249999999981, "midi_note": 65, "frequency": 349.23, "note_held": 0.14973958333331439, "velocity": 86, "channel": 1}, {"time_played": 303.1249999999981, "midi_note": 60, "frequency": 261.63, "note_held": 0.14973958333331439, "velocity": 80, "channel": 1}, {"time_played": 303.1249999999981, "midi_note": 57, "frequency": 220, "note_held": 0.14973958333331439, "velocity": 80, "channel": 1}, {"time_played": 303.1249999999981, "midi_note": 53, "frequency": 174.61, "note_held": 0.14973958333331439, "velocity": 80, "channel": 1}, {"time_played": 303.1249999999981, "midi_note": 48, "frequency": 130.81, "note_held": 0.14973958333331439, "velocity": 80, "channel": 1}, {"time_played": 303.1249999999981, "midi_note": 41, "frequency": 87.31, "note_held": 0.09765625, "velocity": 84, "channel": 1}, {"time_played": 303.4374999999981, "midi_note": 65, "frequency": 349.23, "note_held": 0.3059895833333144, "velocity": 100, "channel": 1}, {"time_played": 303.4374999999981, "midi_note": 60, "frequency": 261.63, "note_held": 0.3059895833333144, "velocity": 100, "channel": 1}, {"time_played": 303.4374999999981, "midi_note": 57, "frequency": 220, "note_held": 0.3059895833333144, "velocity": 100, "channel": 1}, {"time_played": 303.4374999999981, "midi_note": 53, "frequency": 174.61, "note_held": 0.3059895833333144, "velocity": 100, "channel": 1}, {"time_played": 303.4374999999981, "midi_note": 48, "frequency": 130.81, "note_held": 0.3059895833333144, "velocity": 100, "channel": 1}, {"time_played": 303.4374999999981, "midi_note": 41, "frequency": 87.31, "note_held": 0.006510416666666667, "velocity": 100, "channel": 1}, {"time_played": 303.7499999999981, "midi_note": 53, "frequency": 174.61, "note_held": 0.14973958333331439, "velocity": 70, "channel": 1}, {"time_played": 303.7499999999981, "midi_note": 57, "frequency": 220, "note_held": 0.14973958333331439, "velocity": 70, "channel": 1}, {"time_played": 303.7499999999981, "midi_note": 60, "frequency": 261.63, "note_held": 0.14973958333331439, "velocity": 70, "channel": 1}, {"time_played": 303.7499999999981, "midi_note": 65, "frequency": 349.23, "note_held": 0.006510416666666667, "velocity": 70, "channel": 1}, {"time_played": 303.9062499999981, "midi_note": 65, "frequency": 349.23, "note_held": 0.30598958333337123, "velocity": 97, "channel": 1}, {"time_played": 303.9062499999981, "midi_note": 60, "frequency": 261.63, "note_held": 0.30598958333337123, "velocity": 80, "channel": 1}, {"time_played": 303.9062499999981, "midi_note": 57, "frequency": 220, "note_held": 0.30598958333337123, "velocity": 80, "channel": 1}, {"time_played": 303.9062499999981, "midi_note": 53, "frequency": 174.61, "note_held": 0.30598958333337123, "velocity": 80, "channel": 1}, {"time_played": 303.9062499999981, "midi_note": 48, "frequency": 130.81, "note_held": 0.006510416666666667, "velocity": 80, "channel": 1}, {"time_played": 304.0624999999982, "midi_note": 65, "frequency": 349.23, "note_held": 0.14973958333331439, "velocity": 80, "channel": 1}, {"time_played": 304.0624999999982, "midi_note": 60, "frequency": 261.63, "note_held": 0.14973958333331439, "velocity": 80, "channel": 1}, {"time_played": 304.0624999999982, "midi_note": 57, "frequency": 220, "note_held": 0.14973958333331439, "velocity": 80, "channel": 1}, {"time_played": 304.0624999999982, "midi_note": 53, "frequency": 174.61, "note_held": 0.14973958333331439, "velocity": 80, "channel": 1}, {"time_played": 304.0624999999982, "midi_note": 48, "frequency": 130.81, "note_held": 0.14973958333331439, "velocity": 80, "channel": 1}, {"time_played": 304.0624999999982, "midi_note": 41, "frequency": 87.31, "note_held": 0.006510416666666667, "velocity": 80, "channel": 1}, {"time_played": 304.3749999999982, "midi_note": 65, "frequency": 349.23, "note_held": 0.3059895833333144, "velocity": 100, "channel": 1}, {"time_played": 304.3749999999982, "midi_note": 60, "frequency": 261.63, "note_held": 0.3059895833333144, "velocity": 100, "channel": 1}, {"time_played": 304.3749999999982, "midi_note": 57, "frequency": 220, "note_held": 0.3059895833333144, "velocity": 100, "channel": 1}, {"time_played": 304.3749999999982, "midi_note": 53, "frequency": 174.61, "note_held": 0.3059895833333144, "velocity": 100, "channel": 1}, {"time_played": 304.3749999999982, "midi_note": 48, "frequency": 130.81, "note_held": 0.3059895833333144, "velocity": 100, "channel": 1}, {"time_played": 304.3749999999982, "midi_note": 41, "frequency": 87.31, "note_held": 0.006510416666666667, "velocity": 100, "channel": 1}, {"time_played": 304.5312499999982, "midi_note": 65, "frequency": 349.23, "note_held": 0.14973958333331439, "velocity": 64, "channel": 1}, {"time_played": 304.5312499999982, "midi_note": 60, "frequency": 261.63, "note_held": 0.14973958333331439, "velocity": 64, "channel": 1}, {"time_played": 304.5312499999982, "midi_note": 57, "frequency": 220, "note_held": 0.14973958333331439, "velocity": 64, "channel": 1}, {"time_played": 304.5312499999982, "midi_note": 53, "frequency": 174.61, "note_held": 0.006510416666666667, "velocity": 64, "channel": 1}, {"time_played": 304.6874999999982, "midi_note": 57, "frequency": 220, "note_held": 0.14973958333331439, "velocity": 56, "channel": 1}, {"time_played": 304.6874999999982, "midi_note": 60, "frequency": 261.63, "note_held": 0.14973958333331439, "velocity": 56, "channel": 1}, {"time_played": 304.6874999999982, "midi_note": 65, "frequency": 349.23, "note_held": 0.006510416666666667, "velocity": 56, "channel": 1}, {"time_played": 304.8437499999982, "midi_note": 53, "frequency": 174.61, "note_held": 0.14973958333331439, "velocity": 70, "channel": 1}, {"time_played": 304.8437499999982, "midi_note": 57, "frequency": 220, "note_held": 0.14973958333331439, "velocity": 70, "channel": 1}, {"time_played": 304.8437499999982, "midi_note": 60, "frequency": 261.63, "note_held": 0.14973958333331439, "velocity": 70, "channel": 1}, {"time_played": 304.8437499999982, "midi_note": 65, "frequency": 349.23, "note_held": 0.006510416666666667, "velocity": 70, "channel": 1}, {"time_played": 304.9999999999982, "midi_note": 69, "frequency": 440, "note_held": 0.30598958333337123, "velocity": 100, "channel": 1}, {"time_played": 304.9999999999982, "midi_note": 64, "frequency": 329.63, "note_held": 0.30598958333337123, "velocity": 100, "channel": 1}, {"time_played": 304.9999999999982, "midi_note": 60, "frequency": 261.63, "note_held": 0.30598958333337123, "velocity": 100, "channel": 1}, {"time_played": 304.9999999999982, "midi_note": 57, "frequency": 220, "note_held": 0.30598958333337123, "velocity": 100, "channel": 1}, {"time_played": 304.9999999999982, "midi_note": 52, "frequency": 164.81, "note_held": 0.30598958333337123, "velocity": 100, "channel": 1}, {"time_played": 304.9999999999982, "midi_note": 45, "frequency": 110, "note_held": 0.006510416666666667, "velocity": 100, "channel": 1}, {"time_played": 305.31249999999824, "midi_note": 57, "frequency": 220, "note_held": 0.14973958333337123, "velocity": 70, "channel": 1}, {"time_played": 305.31249999999824, "midi_note": 60, "frequency": 261.63, "note_held": 0.14973958333337123, "velocity": 70, "channel": 1}, {"time_played": 305.31249999999824, "midi_note": 64, "frequency": 329.63, "note_held": 0.14973958333337123, "velocity": 70, "channel": 1}, {"time_played": 305.31249999999824, "midi_note": 69, "frequency": 440, "note_held": 0.006510416666666667, "velocity": 70, "channel": 1}, {"time_played": 305.4687499999983, "midi_note": 69, "frequency": 440, "note_held": 0.30598958333337123, "velocity": 80, "channel": 1}, {"time_played": 305.4687499999983, "midi_note": 64, "frequency": 329.63, "note_held": 0.30598958333337123, "velocity": 80, "channel": 1}, {"time_played": 305.4687499999983, "midi_note": 60, "frequency": 261.63, "note_held": 0.30598958333337123, "velocity": 80, "channel": 1}, {"time_played": 305.4687499999983, "midi_note": 57, "frequency": 220, "note_held": 0.30598958333337123, "velocity": 80, "channel": 1}, {"time_played": 305.4687499999983, "midi_note": 52, "frequency": 164.81, "note_held": 0.006510416666666667, "velocity": 80, "channel": 1}, {"time_played": 305.6249999999983, "midi_note": 69, "frequency": 440, "note_held": 0.14973958333337123, "velocity": 80, "channel": 1}, {"time_played": 305.6249999999983, "midi_note": 64, "frequency": 329.63, "note_held": 0.14973958333337123, "velocity": 80, "channel": 1}, {"time_played": 305.6249999999983, "midi_note": 60, "frequency": 261.63, "note_held": 0.14973958333337123, "velocity": 80, "channel": 1}, {"time_played": 305.6249999999983, "midi_note": 57, "frequency": 220, "note_held": 0.14973958333337123, "velocity": 80, "channel": 1}, {"time_played": 305.6249999999983, "midi_note": 52, "frequency": 164.81, "note_held": 0.14973958333337123, "velocity": 80, "channel": 1}, {"time_played": 305.6249999999983, "midi_note": 45, "frequency": 110, "note_held": 0.078125, "velocity": 80, "channel": 1}, {"time_played": 305.9374999999984, "midi_note": 69, "frequency": 440, "note_held": 0.3059895833333144, "velocity": 100, "channel": 1}, {"time_played": 305.9374999999984, "midi_note": 64, "frequency": 329.63, "note_held": 0.3059895833333144, "velocity": 100, "channel": 1}, {"time_played": 305.9374999999984, "midi_note": 60, "frequency": 261.63, "note_held": 0.3059895833333144, "velocity": 100, "channel": 1}, {"time_played": 305.9374999999984, "midi_note": 57, "frequency": 220, "note_held": 0.3059895833333144, "velocity": 100, "channel": 1}, {"time_played": 305.9374999999984, "midi_note": 52, "frequency": 164.81, "note_held": 0.3059895833333144, "velocity": 100, "channel": 1}, {"time_played": 305.9374999999984, "midi_note": 45, "frequency": 110, "note_held": 0.006510416666666667, "velocity": 100, "channel": 1}, {"time_played": 306.2499999999984, "midi_note": 57, "frequency": 220, "note_held": 0.14973958333331439, "velocity": 70, "channel": 1}, {"time_played": 306.2499999999984, "midi_note": 60, "frequency": 261.63, "note_held": 0.14973958333331439, "velocity": 70, "channel": 1}, {"time_played": 306.2499999999984, "midi_note": 64, "frequency": 329.63, "note_held": 0.14973958333331439, "velocity": 70, "channel": 1}, {"time_played": 306.2499999999984, "midi_note": 69, "frequency": 440, "note_held": 0.006510416666666667, "velocity": 70, "channel": 1}, {"time_played": 306.4062499999984, "midi_note": 69, "frequency": 440, "note_held": 0.3059895833334849, "velocity": 80, "channel": 1}, {"time_played": 306.4062499999984, "midi_note": 64, "frequency": 329.63, "note_held": 0.3059895833334849, "velocity": 80, "channel": 1}, {"time_played": 306.4062499999984, "midi_note": 60, "frequency": 261.63, "note_held": 0.3059895833334849, "velocity": 80, "channel": 1}, {"time_played": 306.4062499999984, "midi_note": 57, "frequency": 220, "note_held": 0.3059895833334849, "velocity": 80, "channel": 1}, {"time_played": 306.4062499999984, "midi_note": 52, "frequency": 164.81, "note_held": 0.006510416666666667, "velocity": 80, "channel": 1}, {"time_played": 306.5624999999985, "midi_note": 69, "frequency": 440, "note_held": 0.14973958333337123, "velocity": 80, "channel": 1}, {"time_played": 306.5624999999985, "midi_note": 64, "frequency": 329.63, "note_held": 0.14973958333337123, "velocity": 80, "channel": 1}, {"time_played": 306.5624999999985, "midi_note": 60, "frequency": 261.63, "note_held": 0.14973958333337123, "velocity": 80, "channel": 1}, {"time_played": 306.5624999999985, "midi_note": 57, "frequency": 220, "note_held": 0.14973958333337123, "velocity": 80, "channel": 1}, {"time_played": 306.5624999999985, "midi_note": 52, "frequency": 164.81, "note_held": 0.14973958333337123, "velocity": 80, "channel": 1}, {"time_played": 306.5624999999985, "midi_note": 45, "frequency": 110, "note_held": 0.006510416666666667, "velocity": 80, "channel": 1}, {"time_played": 306.8749999999986, "midi_note": 69, "frequency": 440, "note_held": 0.30598958333337123, "velocity": 100, "channel": 1}, {"time_played": 306.8749999999986, "midi_note": 64, "frequency": 329.63, "note_held": 0.30598958333337123, "velocity": 100, "channel": 1}, {"time_played": 306.8749999999986, "midi_note": 60, "frequency": 261.63, "note_held": 0.30598958333337123, "velocity": 100, "channel": 1}, {"time_played": 306.8749999999986, "midi_note": 57, "frequency": 220, "note_held": 0.30598958333337123, "velocity": 100, "channel": 1}, {"time_played": 306.8749999999986, "midi_note": 52, "frequency": 164.81, "note_held": 0.30598958333337123, "velocity": 100, "channel": 1}, {"time_played": 306.8749999999986, "midi_note": 45, "frequency": 110, "note_held": 0.006510416666666667, "velocity": 100, "channel": 1}, {"time_played": 307.18749999999864, "midi_note": 60, "frequency": 261.63, "note_held": 0.14973958333331439, "velocity": 70, "channel": 1}, {"time_played": 307.18749999999864, "midi_note": 64, "frequency": 329.63, "note_held": 0.14973958333331439, "velocity": 70, "channel": 1}, {"time_played": 307.18749999999864, "midi_note": 69, "frequency": 440, "note_held": 0.006510416666666667, "velocity": 70, "channel": 1}, {"time_played": 307.34374999999864, "midi_note": 57, "frequency": 220, "note_held": 0.14973958333331439, "velocity": 70, "channel": 1}, {"time_played": 307.34374999999864, "midi_note": 60, "frequency": 261.63, "note_held": 0.14973958333331439, "velocity": 70, "channel": 1}, {"time_played": 307.34374999999864, "midi_note": 64, "frequency": 329.63, "note_held": 0.14973958333331439, "velocity": 70, "channel": 1}, {"time_played": 307.34374999999864, "midi_note": 69, "frequency": 440, "note_held": 0.006510416666666667, "velocity": 70, "channel": 1}, {"time_played": 307.49999999999864, "midi_note": 65, "frequency": 349.23, "note_held": 0.3059895833333144, "velocity": 100, "channel": 1}, {"time_played": 307.49999999999864, "midi_note": 60, "frequency": 261.63, "note_held": 0.3059895833333144, "velocity": 100, "channel": 1}, {"time_played": 307.49999999999864, "midi_note": 57, "frequency": 220, "note_held": 0.3059895833333144, "velocity": 100, "channel": 1}, {"time_played": 307.49999999999864, "midi_note": 53, "frequency": 174.61, "note_held": 0.3059895833333144, "velocity": 100, "channel": 1}, {"time_played": 307.49999999999864, "midi_note": 48, "frequency": 130.81, "note_held": 0.3059895833333144, "velocity": 100, "channel": 1}, {"time_played": 307.49999999999864, "midi_note": 41, "frequency": 87.31, "note_held": 0.006510416666666667, "velocity": 100, "channel": 1}, {"time_played": 307.81249999999864, "midi_note": 53, "frequency": 174.61, "note_held": 0.14973958333337123, "velocity": 70, "channel": 1}, {"time_played": 307.81249999999864, "midi_note": 57, "frequency": 220, "note_held": 0.14973958333337123, "velocity": 70, "channel": 1}, {"time_played": 307.81249999999864, "midi_note": 60, "frequency": 261.63, "note_held": 0.14973958333337123, "velocity": 70, "channel": 1}, {"time_played": 307.81249999999864, "midi_note": 65, "frequency": 349.23, "note_held": 0.006510416666666667, "velocity": 70, "channel": 1}, {"time_played": 307.9687499999987, "midi_note": 65, "frequency": 349.23, "note_held": 0.3059895833333144, "velocity": 80, "channel": 1}, {"time_played": 307.9687499999987, "midi_note": 60, "frequency": 261.63, "note_held": 0.3059895833333144, "velocity": 80, "channel": 1}, {"time_played": 307.9687499999987, "midi_note": 57, "frequency": 220, "note_held": 0.3059895833333144, "velocity": 80, "channel": 1}, {"time_played": 307.9687499999987, "midi_note": 53, "frequency": 174.61, "note_held": 0.3059895833333144, "velocity": 80, "channel": 1}, {"time_played": 307.9687499999987, "midi_note": 48, "frequency": 130.81, "note_held": 0.006510416666666667, "velocity": 80, "channel": 1}, {"time_played": 308.1249999999987, "midi_note": 65, "frequency": 349.23, "note_held": 0.14973958333331439, "velocity": 80, "channel": 1}, {"time_played": 308.1249999999987, "midi_note": 60, "frequency": 261.63, "note_held": 0.14973958333331439, "velocity": 80, "channel": 1}, {"time_played": 308.1249999999987, "midi_note": 57, "frequency": 220, "note_held": 0.14973958333331439, "velocity": 80, "channel": 1}, {"time_played": 308.1249999999987, "midi_note": 53, "frequency": 174.61, "note_held": 0.14973958333331439, "velocity": 80, "channel": 1}, {"time_played": 308.1249999999987, "midi_note": 48, "frequency": 130.81, "note_held": 0.14973958333331439, "velocity": 80, "channel": 1}, {"time_played": 308.1249999999987, "midi_note": 41, "frequency": 87.31, "note_held": 0.09114583333333334, "velocity": 80, "channel": 1}, {"time_played": 308.4374999999987, "midi_note": 65, "frequency": 349.23, "note_held": 0.3059895833333144, "velocity": 100, "channel": 1}, {"time_played": 308.4374999999987, "midi_note": 60, "frequency": 261.63, "note_held": 0.3059895833333144, "velocity": 100, "channel": 1}, {"time_played": 308.4374999999987, "midi_note": 57, "frequency": 220, "note_held": 0.3059895833333144, "velocity": 100, "channel": 1}, {"time_played": 308.4374999999987, "midi_note": 53, "frequency": 174.61, "note_held": 0.3059895833333144, "velocity": 100, "channel": 1}, {"time_played": 308.4374999999987, "midi_note": 48, "frequency": 130.81, "note_held": 0.3059895833333144, "velocity": 100, "channel": 1}, {"time_played": 308.4374999999987, "midi_note": 41, "frequency": 87.31, "note_held": 0.006510416666666667, "velocity": 100, "channel": 1}, {"time_played": 308.7499999999987, "midi_note": 53, "frequency": 174.61, "note_held": 0.14973958333331439, "velocity": 70, "channel": 1}, {"time_played": 308.7499999999987, "midi_note": 57, "frequency": 220, "note_held": 0.14973958333331439, "velocity": 70, "channel": 1}, {"time_played": 308.7499999999987, "midi_note": 60, "frequency": 261.63, "note_held": 0.14973958333331439, "velocity": 70, "channel": 1}, {"time_played": 308.7499999999987, "midi_note": 65, "frequency": 349.23, "note_held": 0.006510416666666667, "velocity": 70, "channel": 1}, {"time_played": 308.9062499999987, "midi_note": 65, "frequency": 349.23, "note_held": 0.3059895833334281, "velocity": 80, "channel": 1}, {"time_played": 308.9062499999987, "midi_note": 60, "frequency": 261.63, "note_held": 0.3059895833334281, "velocity": 80, "channel": 1}, {"time_played": 308.9062499999987, "midi_note": 57, "frequency": 220, "note_held": 0.3059895833334281, "velocity": 80, "channel": 1}, {"time_played": 308.9062499999987, "midi_note": 53, "frequency": 174.61, "note_held": 0.3059895833334281, "velocity": 80, "channel": 1}, {"time_played": 308.9062499999987, "midi_note": 48, "frequency": 130.81, "note_held": 0.006510416666666667, "velocity": 80, "channel": 1}, {"time_played": 309.06249999999875, "midi_note": 65, "frequency": 349.23, "note_held": 0.14973958333337123, "velocity": 80, "channel": 1}, {"time_played": 309.06249999999875, "midi_note": 60, "frequency": 261.63, "note_held": 0.14973958333337123, "velocity": 80, "channel": 1}, {"time_played": 309.06249999999875, "midi_note": 57, "frequency": 220, "note_held": 0.14973958333337123, "velocity": 80, "channel": 1}, {"time_played": 309.06249999999875, "midi_note": 53, "frequency": 174.61, "note_held": 0.14973958333337123, "velocity": 80, "channel": 1}, {"time_played": 309.06249999999875, "midi_note": 48, "frequency": 130.81, "note_held": 0.14973958333337123, "velocity": 80, "channel": 1}, {"time_played": 309.06249999999875, "midi_note": 41, "frequency": 87.31, "note_held": 0.006510416666666667, "velocity": 80, "channel": 1}, {"time_played": 309.3749999999988, "midi_note": 65, "frequency": 349.23, "note_held": 0.30598958333337123, "velocity": 100, "channel": 1}, {"time_played": 309.3749999999988, "midi_note": 60, "frequency": 261.63, "note_held": 0.30598958333337123, "velocity": 100, "channel": 1}, {"time_played": 309.3749999999988, "midi_note": 57, "frequency": 220, "note_held": 0.30598958333337123, "velocity": 100, "channel": 1}, {"time_played": 309.3749999999988, "midi_note": 53, "frequency": 174.61, "note_held": 0.30598958333337123, "velocity": 100, "channel": 1}, {"time_played": 309.3749999999988, "midi_note": 48, "frequency": 130.81, "note_held": 0.30598958333337123, "velocity": 100, "channel": 1}, {"time_played": 309.3749999999988, "midi_note": 41, "frequency": 87.31, "note_held": 0.006510416666666667, "velocity": 100, "channel": 1}, {"time_played": 309.53124999999886, "midi_note": 65, "frequency": 349.23, "note_held": 0.14973958333331439, "velocity": 64, "channel": 1}, {"time_played": 309.53124999999886, "midi_note": 60, "frequency": 261.63, "note_held": 0.14973958333331439, "velocity": 64, "channel": 1}, {"time_played": 309.53124999999886, "midi_note": 57, "frequency": 220, "note_held": 0.14973958333331439, "velocity": 64, "channel": 1}, {"time_played": 309.53124999999886, "midi_note": 53, "frequency": 174.61, "note_held": 0.006510416666666667, "velocity": 64, "channel": 1}, {"time_played": 309.68749999999886, "midi_note": 57, "frequency": 220, "note_held": 0.14973958333331439, "velocity": 56, "channel": 1}, {"time_played": 309.68749999999886, "midi_note": 60, "frequency": 261.63, "note_held": 0.14973958333331439, "velocity": 56, "channel": 1}, {"time_played": 309.68749999999886, "midi_note": 65, "frequency": 349.23, "note_held": 0.006510416666666667, "velocity": 56, "channel": 1}, {"time_played": 309.84374999999886, "midi_note": 53, "frequency": 174.61, "note_held": 0.14973958333337123, "velocity": 70, "channel": 1}, {"time_played": 309.84374999999886, "midi_note": 57, "frequency": 220, "note_held": 0.14973958333337123, "velocity": 70, "channel": 1}, {"time_played": 309.84374999999886, "midi_note": 60, "frequency": 261.63, "note_held": 0.14973958333337123, "velocity": 70, "channel": 1}, {"time_played": 309.84374999999886, "midi_note": 65, "frequency": 349.23, "note_held": 0.006510416666666667, "velocity": 70, "channel": 1}, {"time_played": 309.9999999999989, "midi_note": 69, "frequency": 440, "note_held": 0.30598958333337123, "velocity": 100, "channel": 1}, {"time_played": 309.9999999999989, "midi_note": 64, "frequency": 329.63, "note_held": 0.30598958333337123, "velocity": 100, "channel": 1}, {"time_played": 309.9999999999989, "midi_note": 60, "frequency": 261.63, "note_held": 0.30598958333337123, "velocity": 100, "channel": 1}, {"time_played": 309.9999999999989, "midi_note": 57, "frequency": 220, "note_held": 0.30598958333337123, "velocity": 100, "channel": 1}, {"time_played": 309.9999999999989, "midi_note": 52, "frequency": 164.81, "note_held": 0.30598958333337123, "velocity": 100, "channel": 1}, {"time_played": 309.9999999999989, "midi_note": 45, "frequency": 110, "note_held": 0.006510416666666667, "velocity": 100, "channel": 1}, {"time_played": 310.312499999999, "midi_note": 57, "frequency": 220, "note_held": 0.14973958333337123, "velocity": 70, "channel": 1}, {"time_played": 310.312499999999, "midi_note": 60, "frequency": 261.63, "note_held": 0.14973958333337123, "velocity": 70, "channel": 1}, {"time_played": 310.312499999999, "midi_note": 64, "frequency": 329.63, "note_held": 0.14973958333337123, "velocity": 70, "channel": 1}, {"time_played": 310.312499999999, "midi_note": 69, "frequency": 440, "note_held": 0.006510416666666667, "velocity": 70, "channel": 1}, {"time_played": 310.46874999999903, "midi_note": 69, "frequency": 440, "note_held": 0.3059895833333144, "velocity": 80, "channel": 1}, {"time_played": 310.46874999999903, "midi_note": 64, "frequency": 329.63, "note_held": 0.3059895833333144, "velocity": 80, "channel": 1}, {"time_played": 310.46874999999903, "midi_note": 60, "frequency": 261.63, "note_held": 0.3059895833333144, "velocity": 80, "channel": 1}, {"time_played": 310.46874999999903, "midi_note": 57, "frequency": 220, "note_held": 0.3059895833333144, "velocity": 80, "channel": 1}, {"time_played": 310.46874999999903, "midi_note": 52, "frequency": 164.81, "note_held": 0.006510416666666667, "velocity": 80, "channel": 1}, {"time_played": 310.62499999999903, "midi_note": 69, "frequency": 440, "note_held": 0.14973958333331439, "velocity": 80, "channel": 1}, {"time_played": 310.62499999999903, "midi_note": 64, "frequency": 329.63, "note_held": 0.14973958333331439, "velocity": 80, "channel": 1}, {"time_played": 310.62499999999903, "midi_note": 60, "frequency": 261.63, "note_held": 0.14973958333331439, "velocity": 80, "channel": 1}, {"time_played": 310.62499999999903, "midi_note": 57, "frequency": 220, "note_held": 0.14973958333331439, "velocity": 80, "channel": 1}, {"time_played": 310.62499999999903, "midi_note": 52, "frequency": 164.81, "note_held": 0.14973958333331439, "velocity": 80, "channel": 1}, {"time_played": 310.62499999999903, "midi_note": 45, "frequency": 110, "note_held": 0.078125, "velocity": 80, "channel": 1}, {"time_played": 310.9374999999991, "midi_note": 69, "frequency": 440, "note_held": 0.30598958333337123, "velocity": 100, "channel": 1}, {"time_played": 310.9374999999991, "midi_note": 64, "frequency": 329.63, "note_held": 0.30598958333337123, "velocity": 100, "channel": 1}, {"time_played": 310.9374999999991, "midi_note": 60, "frequency": 261.63, "note_held": 0.30598958333337123, "velocity": 100, "channel": 1}, {"time_played": 310.9374999999991, "midi_note": 57, "frequency": 220, "note_held": 0.30598958333337123, "velocity": 100, "channel": 1}, {"time_played": 310.9374999999991, "midi_note": 52, "frequency": 164.81, "note_held": 0.30598958333337123, "velocity": 100, "channel": 1}, {"time_played": 310.9374999999991, "midi_note": 45, "frequency": 110, "note_held": 0.006510416666666667, "velocity": 100, "channel": 1}, {"time_played": 311.24999999999915, "midi_note": 57, "frequency": 220, "note_held": 0.14973958333331439, "velocity": 70, "channel": 1}, {"time_played": 311.24999999999915, "midi_note": 60, "frequency": 261.63, "note_held": 0.14973958333331439, "velocity": 70, "channel": 1}, {"time_played": 311.24999999999915, "midi_note": 64, "frequency": 329.63, "note_held": 0.14973958333331439, "velocity": 70, "channel": 1}, {"time_played": 311.24999999999915, "midi_note": 69, "frequency": 440, "note_held": 0.006510416666666667, "velocity": 70, "channel": 1}, {"time_played": 311.40624999999915, "midi_note": 69, "frequency": 440, "note_held": 0.3059895833334849, "velocity": 104, "channel": 1}, {"time_played": 311.40624999999915, "midi_note": 64, "frequency": 329.63, "note_held": 0.3059895833334849, "velocity": 80, "channel": 1}, {"time_played": 311.40624999999915, "midi_note": 60, "frequency": 261.63, "note_held": 0.3059895833334849, "velocity": 80, "channel": 1}, {"time_played": 311.40624999999915, "midi_note": 57, "frequency": 220, "note_held": 0.3059895833334849, "velocity": 80, "channel": 1}, {"time_played": 311.40624999999915, "midi_note": 52, "frequency": 164.81, "note_held": 0.006510416666666667, "velocity": 80, "channel": 1}, {"time_played": 311.56249999999926, "midi_note": 69, "frequency": 440, "note_held": 0.14973958333337123, "velocity": 80, "channel": 1}, {"time_played": 311.56249999999926, "midi_note": 64, "frequency": 329.63, "note_held": 0.14973958333337123, "velocity": 80, "channel": 1}, {"time_played": 311.56249999999926, "midi_note": 60, "frequency": 261.63, "note_held": 0.14973958333337123, "velocity": 80, "channel": 1}, {"time_played": 311.56249999999926, "midi_note": 57, "frequency": 220, "note_held": 0.14973958333337123, "velocity": 80, "channel": 1}, {"time_played": 311.56249999999926, "midi_note": 52, "frequency": 164.81, "note_held": 0.14973958333337123, "velocity": 80, "channel": 1}, {"time_played": 311.56249999999926, "midi_note": 45, "frequency": 110, "note_held": 0.006510416666666667, "velocity": 80, "channel": 1}, {"time_played": 311.8749999999993, "midi_note": 69, "frequency": 440, "note_held": 0.30598958333337123, "velocity": 100, "channel": 1}, {"time_played": 311.8749999999993, "midi_note": 64, "frequency": 329.63, "note_held": 0.30598958333337123, "velocity": 100, "channel": 1}, {"time_played": 311.8749999999993, "midi_note": 60, "frequency": 261.63, "note_held": 0.30598958333337123, "velocity": 100, "channel": 1}, {"time_played": 311.8749999999993, "midi_note": 57, "frequency": 220, "note_held": 0.30598958333337123, "velocity": 100, "channel": 1}, {"time_played": 311.8749999999993, "midi_note": 52, "frequency": 164.81, "note_held": 0.30598958333337123, "velocity": 100, "channel": 1}, {"time_played": 311.8749999999993, "midi_note": 45, "frequency": 110, "note_held": 0.006510416666666667, "velocity": 100, "channel": 1}, {"time_played": 312.1874999999994, "midi_note": 60, "frequency": 261.63, "note_held": 0.14973958333331439, "velocity": 70, "channel": 1}, {"time_played": 312.1874999999994, "midi_note": 64, "frequency": 329.63, "note_held": 0.14973958333331439, "velocity": 70, "channel": 1}, {"time_played": 312.1874999999994, "midi_note": 69, "frequency": 440, "note_held": 0.006510416666666667, "velocity": 70, "channel": 1}, {"time_played": 312.3437499999994, "midi_note": 57, "frequency": 220, "note_held": 0.14973958333331439, "velocity": 70, "channel": 1}, {"time_played": 312.3437499999994, "midi_note": 60, "frequency": 261.63, "note_held": 0.14973958333331439, "velocity": 70, "channel": 1}, {"time_played": 312.3437499999994, "midi_note": 64, "frequency": 329.63, "note_held": 0.14973958333331439, "velocity": 70, "channel": 1}, {"time_played": 312.3437499999994, "midi_note": 69, "frequency": 440, "note_held": 0.006510416666666667, "velocity": 70, "channel": 1}, {"time_played": 312.4999999999994, "midi_note": 65, "frequency": 349.23, "note_held": 0.30598958333337123, "velocity": 100, "channel": 1}, {"time_played": 312.4999999999994, "midi_note": 60, "frequency": 261.63, "note_held": 0.30598958333337123, "velocity": 100, "channel": 1}, {"time_played": 312.4999999999994, "midi_note": 57, "frequency": 220, "note_held": 0.30598958333337123, "velocity": 100, "channel": 1}, {"time_played": 312.4999999999994, "midi_note": 53, "frequency": 174.61, "note_held": 0.30598958333337123, "velocity": 100, "channel": 1}, {"time_played": 312.4999999999994, "midi_note": 48, "frequency": 130.81, "note_held": 0.30598958333337123, "velocity": 100, "channel": 1}, {"time_played": 312.4999999999994, "midi_note": 41, "frequency": 87.31, "note_held": 0.006510416666666667, "velocity": 100, "channel": 1}, {"time_played": 312.81249999999943, "midi_note": 53, "frequency": 174.61, "note_held": 0.14973958333337123, "velocity": 70, "channel": 1}, {"time_played": 312.81249999999943, "midi_note": 57, "frequency": 220, "note_held": 0.14973958333337123, "velocity": 70, "channel": 1}, {"time_played": 312.81249999999943, "midi_note": 60, "frequency": 261.63, "note_held": 0.14973958333337123, "velocity": 70, "channel": 1}, {"time_played": 312.81249999999943, "midi_note": 65, "frequency": 349.23, "note_held": 0.006510416666666667, "velocity": 70, "channel": 1}, {"time_played": 312.9687499999995, "midi_note": 65, "frequency": 349.23, "note_held": 0.3059895833333144, "velocity": 94, "channel": 1}, {"time_played": 312.9687499999995, "midi_note": 60, "frequency": 261.63, "note_held": 0.3059895833333144, "velocity": 80, "channel": 1}, {"time_played": 312.9687499999995, "midi_note": 57, "frequency": 220, "note_held": 0.3059895833333144, "velocity": 80, "channel": 1}, {"time_played": 312.9687499999995, "midi_note": 53, "frequency": 174.61, "note_held": 0.3059895833333144, "velocity": 80, "channel": 1}, {"time_played": 312.9687499999995, "midi_note": 48, "frequency": 130.81, "note_held": 0.006510416666666667, "velocity": 80, "channel": 1}, {"time_played": 313.1249999999995, "midi_note": 65, "frequency": 349.23, "note_held": 0.14973958333331439, "velocity": 86, "channel": 1}, {"time_played": 313.1249999999995, "midi_note": 60, "frequency": 261.63, "note_held": 0.14973958333331439, "velocity": 80, "channel": 1}, {"time_played": 313.1249999999995, "midi_note": 57, "frequency": 220, "note_held": 0.14973958333331439, "velocity": 80, "channel": 1}, {"time_played": 313.1249999999995, "midi_note": 53, "frequency": 174.61, "note_held": 0.14973958333331439, "velocity": 80, "channel": 1}, {"time_played": 313.1249999999995, "midi_note": 48, "frequency": 130.81, "note_held": 0.14973958333331439, "velocity": 80, "channel": 1}, {"time_played": 313.1249999999995, "midi_note": 41, "frequency": 87.31, "note_held": 0.09114583333333334, "velocity": 84, "channel": 1}, {"time_played": 313.4374999999995, "midi_note": 65, "frequency": 349.23, "note_held": 0.3059895833333144, "velocity": 100, "channel": 1}, {"time_played": 313.4374999999995, "midi_note": 60, "frequency": 261.63, "note_held": 0.3059895833333144, "velocity": 100, "channel": 1}, {"time_played": 313.4374999999995, "midi_note": 57, "frequency": 220, "note_held": 0.3059895833333144, "velocity": 100, "channel": 1}, {"time_played": 313.4374999999995, "midi_note": 53, "frequency": 174.61, "note_held": 0.3059895833333144, "velocity": 100, "channel": 1}, {"time_played": 313.4374999999995, "midi_note": 48, "frequency": 130.81, "note_held": 0.3059895833333144, "velocity": 100, "channel": 1}, {"time_played": 313.4374999999995, "midi_note": 41, "frequency": 87.31, "note_held": 0.006510416666666667, "velocity": 100, "channel": 1}, {"time_played": 313.7499999999995, "midi_note": 53, "frequency": 174.61, "note_held": 0.14973958333331439, "velocity": 70, "channel": 1}, {"time_played": 313.7499999999995, "midi_note": 57, "frequency": 220, "note_held": 0.14973958333331439, "velocity": 70, "channel": 1}, {"time_played": 313.7499999999995, "midi_note": 60, "frequency": 261.63, "note_held": 0.14973958333331439, "velocity": 70, "channel": 1}, {"time_played": 313.7499999999995, "midi_note": 65, "frequency": 349.23, "note_held": 0.006510416666666667, "velocity": 70, "channel": 1}, {"time_played": 313.9062499999995, "midi_note": 65, "frequency": 349.23, "note_held": 0.30598958333337123, "velocity": 97, "channel": 1}, {"time_played": 313.9062499999995, "midi_note": 60, "frequency": 261.63, "note_held": 0.30598958333337123, "velocity": 80, "channel": 1}, {"time_played": 313.9062499999995, "midi_note": 57, "frequency": 220, "note_held": 0.30598958333337123, "velocity": 80, "channel": 1}, {"time_played": 313.9062499999995, "midi_note": 53, "frequency": 174.61, "note_held": 0.30598958333337123, "velocity": 80, "channel": 1}, {"time_played": 313.9062499999995, "midi_note": 48, "frequency": 130.81, "note_held": 0.006510416666666667, "velocity": 80, "channel": 1}, {"time_played": 314.06249999999955, "midi_note": 65, "frequency": 349.23, "note_held": 0.14973958333331439, "velocity": 80, "channel": 1}, {"time_played": 314.06249999999955, "midi_note": 60, "frequency": 261.63, "note_held": 0.14973958333331439, "velocity": 80, "channel": 1}, {"time_played": 314.06249999999955, "midi_note": 57, "frequency": 220, "note_held": 0.14973958333331439, "velocity": 80, "channel": 1}, {"time_played": 314.06249999999955, "midi_note": 53, "frequency": 174.61, "note_held": 0.14973958333331439, "velocity": 80, "channel": 1}, {"time_played": 314.06249999999955, "midi_note": 48, "frequency": 130.81, "note_held": 0.14973958333331439, "velocity": 80, "channel": 1}, {"time_played": 314.06249999999955, "midi_note": 41, "frequency": 87.31, "note_held": 0.006510416666666667, "velocity": 80, "channel": 1}, {"time_played": 314.37499999999955, "midi_note": 65, "frequency": 349.23, "note_held": 0.30598958333337123, "velocity": 100, "channel": 1}, {"time_played": 314.37499999999955, "midi_note": 60, "frequency": 261.63, "note_held": 0.30598958333337123, "velocity": 100, "channel": 1}, {"time_played": 314.37499999999955, "midi_note": 57, "frequency": 220, "note_held": 0.30598958333337123, "velocity": 100, "channel": 1}, {"time_played": 314.37499999999955, "midi_note": 53, "frequency": 174.61, "note_held": 0.30598958333337123, "velocity": 100, "channel": 1}, {"time_played": 314.37499999999955, "midi_note": 48, "frequency": 130.81, "note_held": 0.30598958333337123, "velocity": 100, "channel": 1}, {"time_played": 314.37499999999955, "midi_note": 41, "frequency": 87.31, "note_held": 0.006510416666666667, "velocity": 100, "channel": 1}, {"time_played": 314.5312499999996, "midi_note": 65, "frequency": 349.23, "note_held": 0.14973958333331439, "velocity": 64, "channel": 1}, {"time_played": 314.5312499999996, "midi_note": 60, "frequency": 261.63, "note_held": 0.14973958333331439, "velocity": 64, "channel": 1}, {"time_played": 314.5312499999996, "midi_note": 57, "frequency": 220, "note_held": 0.14973958333331439, "velocity": 64, "channel": 1}, {"time_played": 314.5312499999996, "midi_note": 53, "frequency": 174.61, "note_held": 0.006510416666666667, "velocity": 64, "channel": 1}, {"time_played": 314.6874999999996, "midi_note": 57, "frequency": 220, "note_held": 0.14973958333337123, "velocity": 56, "channel": 1}, {"time_played": 314.6874999999996, "midi_note": 60, "frequency": 261.63, "note_held": 0.14973958333337123, "velocity": 56, "channel": 1}, {"time_played": 314.6874999999996, "midi_note": 65, "frequency": 349.23, "note_held": 0.006510416666666667, "velocity": 56, "channel": 1}, {"time_played": 314.84374999999966, "midi_note": 53, "frequency": 174.61, "note_held": 0.14973958333331439, "velocity": 70, "channel": 1}, {"time_played": 314.84374999999966, "midi_note": 57, "frequency": 220, "note_held": 0.14973958333331439, "velocity": 70, "channel": 1}, {"time_played": 314.84374999999966, "midi_note": 60, "frequency": 261.63, "note_held": 0.14973958333331439, "velocity": 70, "channel": 1}, {"time_played": 314.84374999999966, "midi_note": 65, "frequency": 349.23, "note_held": 0.006510416666666667, "velocity": 70, "channel": 1}, {"time_played": 314.99999999999966, "midi_note": 69, "frequency": 440, "note_held": 0.30598958333337123, "velocity": 100, "channel": 1}, {"time_played": 314.99999999999966, "midi_note": 64, "frequency": 329.63, "note_held": 0.30598958333337123, "velocity": 100, "channel": 1}, {"time_played": 314.99999999999966, "midi_note": 60, "frequency": 261.63, "note_held": 0.30598958333337123, "velocity": 100, "channel": 1}, {"time_played": 314.99999999999966, "midi_note": 57, "frequency": 220, "note_held": 0.30598958333337123, "velocity": 100, "channel": 1}, {"time_played": 314.99999999999966, "midi_note": 52, "frequency": 164.81, "note_held": 0.30598958333337123, "velocity": 100, "channel": 1}, {"time_played": 314.99999999999966, "midi_note": 45, "frequency": 110, "note_held": 0.006510416666666667, "velocity": 100, "channel": 1}, {"time_played": 315.3124999999997, "midi_note": 57, "frequency": 220, "note_held": 0.14973958333337123, "velocity": 70, "channel": 1}, {"time_played": 315.3124999999997, "midi_note": 60, "frequency": 261.63, "note_held": 0.14973958333337123, "velocity": 70, "channel": 1}, {"time_played": 315.3124999999997, "midi_note": 64, "frequency": 329.63, "note_held": 0.14973958333337123, "velocity": 70, "channel": 1}, {"time_played": 315.3124999999997, "midi_note": 69, "frequency": 440, "note_held": 0.006510416666666667, "velocity": 70, "channel": 1}, {"time_played": 315.4687499999998, "midi_note": 69, "frequency": 440, "note_held": 0.3059895833333144, "velocity": 80, "channel": 1}, {"time_played": 315.4687499999998, "midi_note": 64, "frequency": 329.63, "note_held": 0.3059895833333144, "velocity": 80, "channel": 1}, {"time_played": 315.4687499999998, "midi_note": 60, "frequency": 261.63, "note_held": 0.3059895833333144, "velocity": 80, "channel": 1}, {"time_played": 315.4687499999998, "midi_note": 57, "frequency": 220, "note_held": 0.3059895833333144, "velocity": 80, "channel": 1}, {"time_played": 315.4687499999998, "midi_note": 52, "frequency": 164.81, "note_held": 0.006510416666666667, "velocity": 80, "channel": 1}, {"time_played": 315.6249999999998, "midi_note": 69, "frequency": 440, "note_held": 0.14973958333331439, "velocity": 80, "channel": 1}, {"time_played": 315.6249999999998, "midi_note": 64, "frequency": 329.63, "note_held": 0.14973958333331439, "velocity": 80, "channel": 1}, {"time_played": 315.6249999999998, "midi_note": 60, "frequency": 261.63, "note_held": 0.14973958333331439, "velocity": 80, "channel": 1}, {"time_played": 315.6249999999998, "midi_note": 57, "frequency": 220, "note_held": 0.14973958333331439, "velocity": 80, "channel": 1}, {"time_played": 315.6249999999998, "midi_note": 52, "frequency": 164.81, "note_held": 0.14973958333331439, "velocity": 80, "channel": 1}, {"time_played": 315.6249999999998, "midi_note": 45, "frequency": 110, "note_held": 0.078125, "velocity": 80, "channel": 1}, {"time_played": 315.93749999999983, "midi_note": 69, "frequency": 440, "note_held": 0.3059895833333144, "velocity": 100, "channel": 1}, {"time_played": 315.93749999999983, "midi_note": 64, "frequency": 329.63, "note_held": 0.3059895833333144, "velocity": 100, "channel": 1}, {"time_played": 315.93749999999983, "midi_note": 60, "frequency": 261.63, "note_held": 0.3059895833333144, "velocity": 100, "channel": 1}, {"time_played": 315.93749999999983, "midi_note": 57, "frequency": 220, "note_held": 0.3059895833333144, "velocity": 100, "channel": 1}, {"time_played": 315.93749999999983, "midi_note": 52, "frequency": 164.81, "note_held": 0.3059895833333144, "velocity": 100, "channel": 1}, {"time_played": 315.93749999999983, "midi_note": 45, "frequency": 110, "note_held": 0.006510416666666667, "velocity": 100, "channel": 1}, {"time_played": 316.24999999999983, "midi_note": 57, "frequency": 220, "note_held": 0.14973958333331439, "velocity": 70, "channel": 1}, {"time_played": 316.24999999999983, "midi_note": 60, "frequency": 261.63, "note_held": 0.14973958333331439, "velocity": 70, "channel": 1}, {"time_played": 316.24999999999983, "midi_note": 64, "frequency": 329.63, "note_held": 0.14973958333331439, "velocity": 70, "channel": 1}, {"time_played": 316.24999999999983, "midi_note": 69, "frequency": 440, "note_held": 0.006510416666666667, "velocity": 70, "channel": 1}, {"time_played": 316.40624999999983, "midi_note": 69, "frequency": 440, "note_held": 0.3059895833334281, "velocity": 80, "channel": 1}, {"time_played": 316.40624999999983, "midi_note": 64, "frequency": 329.63, "note_held": 0.3059895833334281, "velocity": 80, "channel": 1}, {"time_played": 316.40624999999983, "midi_note": 60, "frequency": 261.63, "note_held": 0.3059895833334281, "velocity": 80, "channel": 1}, {"time_played": 316.40624999999983, "midi_note": 57, "frequency": 220, "note_held": 0.3059895833334281, "velocity": 80, "channel": 1}, {"time_played": 316.40624999999983, "midi_note": 52, "frequency": 164.81, "note_held": 0.006510416666666667, "velocity": 80, "channel": 1}, {"time_played": 316.5624999999999, "midi_note": 69, "frequency": 440, "note_held": 0.14973958333337123, "velocity": 80, "channel": 1}, {"time_played": 316.5624999999999, "midi_note": 64, "frequency": 329.63, "note_held": 0.14973958333337123, "velocity": 80, "channel": 1}, {"time_played": 316.5624999999999, "midi_note": 60, "frequency": 261.63, "note_held": 0.14973958333337123, "velocity": 80, "channel": 1}, {"time_played": 316.5624999999999, "midi_note": 57, "frequency": 220, "note_held": 0.14973958333337123, "velocity": 80, "channel": 1}, {"time_played": 316.5624999999999, "midi_note": 52, "frequency": 164.81, "note_held": 0.14973958333337123, "velocity": 80, "channel": 1}, {"time_played": 316.5624999999999, "midi_note": 45, "frequency": 110, "note_held": 0.006510416666666667, "velocity": 80, "channel": 1}, {"time_played": 316.87499999999994, "midi_note": 69, "frequency": 440, "note_held": 0.30598958333337123, "velocity": 100, "channel": 1}, {"time_played": 316.87499999999994, "midi_note": 64, "frequency": 329.63, "note_held": 0.30598958333337123, "velocity": 100, "channel": 1}, {"time_played": 316.87499999999994, "midi_note": 60, "frequency": 261.63, "note_held": 0.30598958333337123, "velocity": 100, "channel": 1}, {"time_played": 316.87499999999994, "midi_note": 57, "frequency": 220, "note_held": 0.30598958333337123, "velocity": 100, "channel": 1}, {"time_played": 316.87499999999994, "midi_note": 52, "frequency": 164.81, "note_held": 0.30598958333337123, "velocity": 100, "channel": 1}, {"time_played": 316.87499999999994, "midi_note": 45, "frequency": 110, "note_held": 0.006510416666666667, "velocity": 100, "channel": 1}, {"time_played": 317.1875, "midi_note": 60, "frequency": 261.63, "note_held": 0.14973958333331439, "velocity": 70, "channel": 1}, {"time_played": 317.1875, "midi_note": 64, "frequency": 329.63, "note_held": 0.14973958333331439, "velocity": 70, "channel": 1}, {"time_played": 317.1875, "midi_note": 69, "frequency": 440, "note_held": 0.006510416666666667, "velocity": 70, "channel": 1}, {"time_played": 317.34375, "midi_note": 57, "frequency": 220, "note_held": 0.14973958333331439, "velocity": 70, "channel": 1}, {"time_played": 317.34375, "midi_note": 60, "frequency": 261.63, "note_held": 0.14973958333331439, "velocity": 70, "channel": 1}, {"time_played": 317.34375, "midi_note": 64, "frequency": 329.63, "note_held": 0.14973958333331439, "velocity": 70, "channel": 1}, {"time_played": 317.34375, "midi_note": 69, "frequency": 440, "note_held": 0.006510416666666667, "velocity": 70, "channel": 1}, {"time_played": 317.5, "midi_note": 65, "frequency": 349.23, "note_held": 0.3059895833333144, "velocity": 100, "channel": 1}, {"time_played": 317.5, "midi_note": 60, "frequency": 261.63, "note_held": 0.3059895833333144, "velocity": 100, "channel": 1}, {"time_played": 317.5, "midi_note": 57, "frequency": 220, "note_held": 0.3059895833333144, "velocity": 100, "channel": 1}, {"time_played": 317.5, "midi_note": 53, "frequency": 174.61, "note_held": 0.3059895833333144, "velocity": 100, "channel": 1}, {"time_played": 317.5, "midi_note": 48, "frequency": 130.81, "note_held": 0.3059895833333144, "velocity": 100, "channel": 1}, {"time_played": 317.5, "midi_note": 41, "frequency": 87.31, "note_held": 0.006510416666666667, "velocity": 100, "channel": 1}, {"time_played": 317.8125, "midi_note": 53, "frequency": 174.61, "note_held": 0.14973958333337123, "velocity": 70, "channel": 1}, {"time_played": 317.8125, "midi_note": 57, "frequency": 220, "note_held": 0.14973958333337123, "velocity": 70, "channel": 1}, {"time_played": 317.8125, "midi_note": 60, "frequency": 261.63, "note_held": 0.14973958333337123, "velocity": 70, "channel": 1}, {"time_played": 317.8125, "midi_note": 65, "frequency": 349.23, "note_held": 0.006510416666666667, "velocity": 70, "channel": 1}, {"time_played": 317.96875000000006, "midi_note": 65, "frequency": 349.23, "note_held": 0.30598958333337123, "velocity": 80, "channel": 1}, {"time_played": 317.96875000000006, "midi_note": 60, "frequency": 261.63, "note_held": 0.30598958333337123, "velocity": 80, "channel": 1}, {"time_played": 317.96875000000006, "midi_note": 57, "frequency": 220, "note_held": 0.30598958333337123, "velocity": 80, "channel": 1}, {"time_played": 317.96875000000006, "midi_note": 53, "frequency": 174.61, "note_held": 0.30598958333337123, "velocity": 80, "channel": 1}, {"time_played": 317.96875000000006, "midi_note": 48, "frequency": 130.81, "note_held": 0.006510416666666667, "velocity": 80, "channel": 1}, {"time_played": 318.12500000000006, "midi_note": 65, "frequency": 349.23, "note_held": 0.14973958333337123, "velocity": 80, "channel": 1}, {"time_played": 318.12500000000006, "midi_note": 60, "frequency": 261.63, "note_held": 0.14973958333337123, "velocity": 80, "channel": 1}, {"time_played": 318.12500000000006, "midi_note": 57, "frequency": 220, "note_held": 0.14973958333337123, "velocity": 80, "channel": 1}, {"time_played": 318.12500000000006, "midi_note": 53, "frequency": 174.61, "note_held": 0.14973958333337123, "velocity": 80, "channel": 1}, {"time_played": 318.12500000000006, "midi_note": 48, "frequency": 130.81, "note_held": 0.14973958333337123, "velocity": 80, "channel": 1}, {"time_played": 318.12500000000006, "midi_note": 41, "frequency": 87.31, "note_held": 0.09114583333333334, "velocity": 80, "channel": 1}, {"time_played": 318.4375000000001, "midi_note": 65, "frequency": 349.23, "note_held": 0.30598958333337123, "velocity": 100, "channel": 1}, {"time_played": 318.4375000000001, "midi_note": 60, "frequency": 261.63, "note_held": 0.30598958333337123, "velocity": 100, "channel": 1}, {"time_played": 318.4375000000001, "midi_note": 57, "frequency": 220, "note_held": 0.30598958333337123, "velocity": 100, "channel": 1}, {"time_played": 318.4375000000001, "midi_note": 53, "frequency": 174.61, "note_held": 0.30598958333337123, "velocity": 100, "channel": 1}, {"time_played": 318.4375000000001, "midi_note": 48, "frequency": 130.81, "note_held": 0.30598958333337123, "velocity": 100, "channel": 1}, {"time_played": 318.4375000000001, "midi_note": 41, "frequency": 87.31, "note_held": 0.006510416666666667, "velocity": 100, "channel": 1}, {"time_played": 318.75000000000017, "midi_note": 53, "frequency": 174.61, "note_held": 0.14973958333337123, "velocity": 70, "channel": 1}, {"time_played": 318.75000000000017, "midi_note": 57, "frequency": 220, "note_held": 0.14973958333337123, "velocity": 70, "channel": 1}, {"time_played": 318.75000000000017, "midi_note": 60, "frequency": 261.63, "note_held": 0.14973958333337123, "velocity": 70, "channel": 1}, {"time_played": 318.75000000000017, "midi_note": 65, "frequency": 349.23, "note_held": 0.006510416666666667, "velocity": 70, "channel": 1}, {"time_played": 318.9062500000002, "midi_note": 65, "frequency": 349.23, "note_held": 0.3059895833334281, "velocity": 80, "channel": 1}, {"time_played": 318.9062500000002, "midi_note": 60, "frequency": 261.63, "note_held": 0.3059895833334281, "velocity": 80, "channel": 1}, {"time_played": 318.9062500000002, "midi_note": 57, "frequency": 220, "note_held": 0.3059895833334281, "velocity": 80, "channel": 1}, {"time_played": 318.9062500000002, "midi_note": 53, "frequency": 174.61, "note_held": 0.3059895833334281, "velocity": 80, "channel": 1}, {"time_played": 318.9062500000002, "midi_note": 48, "frequency": 130.81, "note_held": 0.006510416666666667, "velocity": 80, "channel": 1}, {"time_played": 319.0625000000003, "midi_note": 65, "frequency": 349.23, "note_held": 0.14973958333337123, "velocity": 80, "channel": 1}, {"time_played": 319.0625000000003, "midi_note": 60, "frequency": 261.63, "note_held": 0.14973958333337123, "velocity": 80, "channel": 1}, {"time_played": 319.0625000000003, "midi_note": 57, "frequency": 220, "note_held": 0.14973958333337123, "velocity": 80, "channel": 1}, {"time_played": 319.0625000000003, "midi_note": 53, "frequency": 174.61, "note_held": 0.14973958333337123, "velocity": 80, "channel": 1}, {"time_played": 319.0625000000003, "midi_note": 48, "frequency": 130.81, "note_held": 0.14973958333337123, "velocity": 80, "channel": 1}, {"time_played": 319.0625000000003, "midi_note": 41, "frequency": 87.31, "note_held": 0.006510416666666667, "velocity": 80, "channel": 1}, {"time_played": 319.37500000000034, "midi_note": 65, "frequency": 349.23, "note_held": 0.3059895833333144, "velocity": 100, "channel": 1}, {"time_played": 319.37500000000034, "midi_note": 60, "frequency": 261.63, "note_held": 0.3059895833333144, "velocity": 100, "channel": 1}, {"time_played": 319.37500000000034, "midi_note": 57, "frequency": 220, "note_held": 0.3059895833333144, "velocity": 100, "channel": 1}, {"time_played": 319.37500000000034, "midi_note": 53, "frequency": 174.61, "note_held": 0.3059895833333144, "velocity": 100, "channel": 1}, {"time_played": 319.37500000000034, "midi_note": 48, "frequency": 130.81, "note_held": 0.3059895833333144, "velocity": 100, "channel": 1}, {"time_played": 319.37500000000034, "midi_note": 41, "frequency": 87.31, "note_held": 0.006510416666666667, "velocity": 100, "channel": 1}, {"time_played": 319.53125000000034, "midi_note": 65, "frequency": 349.23, "note_held": 0.14973958333331439, "velocity": 64, "channel": 1}, {"time_played": 319.53125000000034, "midi_note": 60, "frequency": 261.63, "note_held": 0.14973958333331439, "velocity": 64, "channel": 1}, {"time_played": 319.53125000000034, "midi_note": 57, "frequency": 220, "note_held": 0.14973958333331439, "velocity": 64, "channel": 1}, {"time_played": 319.53125000000034, "midi_note": 53, "frequency": 174.61, "note_held": 0.006510416666666667, "velocity": 64, "channel": 1}, {"time_played": 319.68750000000034, "midi_note": 57, "frequency": 220, "note_held": 0.14973958333331439, "velocity": 56, "channel": 1}, {"time_played": 319.68750000000034, "midi_note": 60, "frequency": 261.63, "note_held": 0.14973958333331439, "velocity": 56, "channel": 1}, {"time_played": 319.68750000000034, "midi_note": 65, "frequency": 349.23, "note_held": 0.006510416666666667, "velocity": 56, "channel": 1}, {"time_played": 319.84375000000034, "midi_note": 53, "frequency": 174.61, "note_held": 0.14973958333331439, "velocity": 70, "channel": 1}, {"time_played": 319.84375000000034, "midi_note": 57, "frequency": 220, "note_held": 0.14973958333331439, "velocity": 70, "channel": 1}, {"time_played": 319.84375000000034, "midi_note": 60, "frequency": 261.63, "note_held": 0.14973958333331439, "velocity": 70, "channel": 1}, {"time_played": 319.84375000000034, "midi_note": 65, "frequency": 349.23, "note_held": 0.006510416666666667, "velocity": 70, "channel": 1}, {"time_played": 320.00000000000034, "midi_note": 69, "frequency": 440, "note_held": 0.30598958333337123, "velocity": 100, "channel": 1}, {"time_played": 320.00000000000034, "midi_note": 64, "frequency": 329.63, "note_held": 0.30598958333337123, "velocity": 100, "channel": 1}, {"time_played": 320.00000000000034, "midi_note": 60, "frequency": 261.63, "note_held": 0.30598958333337123, "velocity": 100, "channel": 1}, {"time_played": 320.00000000000034, "midi_note": 57, "frequency": 220, "note_held": 0.30598958333337123, "velocity": 100, "channel": 1}, {"time_played": 320.00000000000034, "midi_note": 52, "frequency": 164.81, "note_held": 0.30598958333337123, "velocity": 100, "channel": 1}, {"time_played": 320.00000000000034, "midi_note": 45, "frequency": 110, "note_held": 0.006510416666666667, "velocity": 100, "channel": 1}, {"time_played": 320.3125000000004, "midi_note": 57, "frequency": 220, "note_held": 0.14973958333337123, "velocity": 70, "channel": 1}, {"time_played": 320.3125000000004, "midi_note": 60, "frequency": 261.63, "note_held": 0.14973958333337123, "velocity": 70, "channel": 1}, {"time_played": 320.3125000000004, "midi_note": 64, "frequency": 329.63, "note_held": 0.14973958333337123, "velocity": 70, "channel": 1}, {"time_played": 320.3125000000004, "midi_note": 69, "frequency": 440, "note_held": 0.006510416666666667, "velocity": 70, "channel": 1}, {"time_played": 320.46875000000045, "midi_note": 69, "frequency": 440, "note_held": 0.3059895833333144, "velocity": 80, "channel": 1}, {"time_played": 320.46875000000045, "midi_note": 64, "frequency": 329.63, "note_held": 0.3059895833333144, "velocity": 80, "channel": 1}, {"time_played": 320.46875000000045, "midi_note": 60, "frequency": 261.63, "note_held": 0.3059895833333144, "velocity": 80, "channel": 1}, {"time_played": 320.46875000000045, "midi_note": 57, "frequency": 220, "note_held": 0.3059895833333144, "velocity": 80, "channel": 1}, {"time_played": 320.46875000000045, "midi_note": 52, "frequency": 164.81, "note_held": 0.006510416666666667, "velocity": 80, "channel": 1}, {"time_played": 320.62500000000045, "midi_note": 69, "frequency": 440, "note_held": 0.14973958333331439, "velocity": 80, "channel": 1}, {"time_played": 320.62500000000045, "midi_note": 64, "frequency": 329.63, "note_held": 0.14973958333331439, "velocity": 80, "channel": 1}, {"time_played": 320.62500000000045, "midi_note": 60, "frequency": 261.63, "note_held": 0.14973958333331439, "velocity": 80, "channel": 1}, {"time_played": 320.62500000000045, "midi_note": 57, "frequency": 220, "note_held": 0.14973958333331439, "velocity": 80, "channel": 1}, {"time_played": 320.62500000000045, "midi_note": 52, "frequency": 164.81, "note_held": 0.14973958333331439, "velocity": 80, "channel": 1}, {"time_played": 320.62500000000045, "midi_note": 45, "frequency": 110, "note_held": 0.026041666666666668, "velocity": 80, "channel": 1}, {"time_played": 320.93750000000045, "midi_note": 69, "frequency": 440, "note_held": 0.3059895833333144, "velocity": 100, "channel": 1}, {"time_played": 320.93750000000045, "midi_note": 64, "frequency": 329.63, "note_held": 0.3059895833333144, "velocity": 100, "channel": 1}, {"time_played": 320.93750000000045, "midi_note": 60, "frequency": 261.63, "note_held": 0.3059895833333144, "velocity": 100, "channel": 1}, {"time_played": 320.93750000000045, "midi_note": 57, "frequency": 220, "note_held": 0.3059895833333144, "velocity": 100, "channel": 1}, {"time_played": 320.93750000000045, "midi_note": 52, "frequency": 164.81, "note_held": 0.3059895833333144, "velocity": 100, "channel": 1}, {"time_played": 320.93750000000045, "midi_note": 45, "frequency": 110, "note_held": 0.006510416666666667, "velocity": 100, "channel": 1}, {"time_played": 321.25000000000045, "midi_note": 57, "frequency": 220, "note_held": 0.14973958333331439, "velocity": 70, "channel": 1}, {"time_played": 321.25000000000045, "midi_note": 60, "frequency": 261.63, "note_held": 0.14973958333331439, "velocity": 70, "channel": 1}, {"time_played": 321.25000000000045, "midi_note": 64, "frequency": 329.63, "note_held": 0.14973958333331439, "velocity": 70, "channel": 1}, {"time_played": 321.25000000000045, "midi_note": 69, "frequency": 440, "note_held": 0.006510416666666667, "velocity": 70, "channel": 1}, {"time_played": 321.40625000000045, "midi_note": 69, "frequency": 440, "note_held": 0.3059895833334281, "velocity": 104, "channel": 1}, {"time_played": 321.40625000000045, "midi_note": 64, "frequency": 329.63, "note_held": 0.3059895833334281, "velocity": 80, "channel": 1}, {"time_played": 321.40625000000045, "midi_note": 60, "frequency": 261.63, "note_held": 0.3059895833334281, "velocity": 80, "channel": 1}, {"time_played": 321.40625000000045, "midi_note": 57, "frequency": 220, "note_held": 0.3059895833334281, "velocity": 80, "channel": 1}, {"time_played": 321.40625000000045, "midi_note": 52, "frequency": 164.81, "note_held": 0.006510416666666667, "velocity": 80, "channel": 1}, {"time_played": 321.5625000000005, "midi_note": 69, "frequency": 440, "note_held": 0.14973958333337123, "velocity": 80, "channel": 1}, {"time_played": 321.5625000000005, "midi_note": 64, "frequency": 329.63, "note_held": 0.14973958333337123, "velocity": 80, "channel": 1}, {"time_played": 321.5625000000005, "midi_note": 60, "frequency": 261.63, "note_held": 0.14973958333337123, "velocity": 80, "channel": 1}, {"time_played": 321.5625000000005, "midi_note": 57, "frequency": 220, "note_held": 0.14973958333337123, "velocity": 80, "channel": 1}, {"time_played": 321.5625000000005, "midi_note": 52, "frequency": 164.81, "note_held": 0.14973958333337123, "velocity": 80, "channel": 1}, {"time_played": 321.5625000000005, "midi_note": 45, "frequency": 110, "note_held": 0.006510416666666667, "velocity": 80, "channel": 1}, {"time_played": 321.87500000000057, "midi_note": 69, "frequency": 440, "note_held": 0.30598958333337123, "velocity": 100, "channel": 1}, {"time_played": 321.87500000000057, "midi_note": 64, "frequency": 329.63, "note_held": 0.30598958333337123, "velocity": 100, "channel": 1}, {"time_played": 321.87500000000057, "midi_note": 60, "frequency": 261.63, "note_held": 0.30598958333337123, "velocity": 100, "channel": 1}, {"time_played": 321.87500000000057, "midi_note": 57, "frequency": 220, "note_held": 0.30598958333337123, "velocity": 100, "channel": 1}, {"time_played": 321.87500000000057, "midi_note": 52, "frequency": 164.81, "note_held": 0.30598958333337123, "velocity": 100, "channel": 1}, {"time_played": 321.87500000000057, "midi_note": 45, "frequency": 110, "note_held": 0.006510416666666667, "velocity": 100, "channel": 1}, {"time_played": 322.1875000000006, "midi_note": 60, "frequency": 261.63, "note_held": 0.14973958333331439, "velocity": 70, "channel": 1}, {"time_played": 322.1875000000006, "midi_note": 64, "frequency": 329.63, "note_held": 0.14973958333331439, "velocity": 70, "channel": 1}, {"time_played": 322.1875000000006, "midi_note": 69, "frequency": 440, "note_held": 0.006510416666666667, "velocity": 70, "channel": 1}, {"time_played": 322.3437500000006, "midi_note": 57, "frequency": 220, "note_held": 0.14973958333331439, "velocity": 70, "channel": 1}, {"time_played": 322.3437500000006, "midi_note": 60, "frequency": 261.63, "note_held": 0.14973958333331439, "velocity": 70, "channel": 1}, {"time_played": 322.3437500000006, "midi_note": 64, "frequency": 329.63, "note_held": 0.14973958333331439, "velocity": 70, "channel": 1}, {"time_played": 322.3437500000006, "midi_note": 69, "frequency": 440, "note_held": 0.006510416666666667, "velocity": 70, "channel": 1}, {"time_played": 322.5000000000006, "midi_note": 65, "frequency": 349.23, "note_held": 0.30598958333337123, "velocity": 100, "channel": 1}, {"time_played": 322.5000000000006, "midi_note": 60, "frequency": 261.63, "note_held": 0.30598958333337123, "velocity": 100, "channel": 1}, {"time_played": 322.5000000000006, "midi_note": 57, "frequency": 220, "note_held": 0.30598958333337123, "velocity": 100, "channel": 1}, {"time_played": 322.5000000000006, "midi_note": 53, "frequency": 174.61, "note_held": 0.30598958333337123, "velocity": 100, "channel": 1}, {"time_played": 322.5000000000006, "midi_note": 48, "frequency": 130.81, "note_held": 0.30598958333337123, "velocity": 100, "channel": 1}, {"time_played": 322.5000000000006, "midi_note": 41, "frequency": 87.31, "note_held": 0.006510416666666667, "velocity": 100, "channel": 1}, {"time_played": 322.8125000000007, "midi_note": 53, "frequency": 174.61, "note_held": 0.14973958333337123, "velocity": 70, "channel": 1}, {"time_played": 322.8125000000007, "midi_note": 57, "frequency": 220, "note_held": 0.14973958333337123, "velocity": 70, "channel": 1}, {"time_played": 322.8125000000007, "midi_note": 60, "frequency": 261.63, "note_held": 0.14973958333337123, "velocity": 70, "channel": 1}, {"time_played": 322.8125000000007, "midi_note": 65, "frequency": 349.23, "note_held": 0.006510416666666667, "velocity": 70, "channel": 1}, {"time_played": 322.96875000000074, "midi_note": 65, "frequency": 349.23, "note_held": 0.3059895833333144, "velocity": 94, "channel": 1}, {"time_played": 322.96875000000074, "midi_note": 60, "frequency": 261.63, "note_held": 0.3059895833333144, "velocity": 80, "channel": 1}, {"time_played": 322.96875000000074, "midi_note": 57, "frequency": 220, "note_held": 0.3059895833333144, "velocity": 80, "channel": 1}, {"time_played": 322.96875000000074, "midi_note": 53, "frequency": 174.61, "note_held": 0.3059895833333144, "velocity": 80, "channel": 1}, {"time_played": 322.96875000000074, "midi_note": 48, "frequency": 130.81, "note_held": 0.006510416666666667, "velocity": 80, "channel": 1}, {"time_played": 323.12500000000074, "midi_note": 65, "frequency": 349.23, "note_held": 0.14973958333331439, "velocity": 86, "channel": 1}, {"time_played": 323.12500000000074, "midi_note": 60, "frequency": 261.63, "note_held": 0.14973958333331439, "velocity": 80, "channel": 1}, {"time_played": 323.12500000000074, "midi_note": 57, "frequency": 220, "note_held": 0.14973958333331439, "velocity": 80, "channel": 1}, {"time_played": 323.12500000000074, "midi_note": 53, "frequency": 174.61, "note_held": 0.14973958333331439, "velocity": 80, "channel": 1}, {"time_played": 323.12500000000074, "midi_note": 48, "frequency": 130.81, "note_held": 0.14973958333331439, "velocity": 80, "channel": 1}, {"time_played": 323.12500000000074, "midi_note": 41, "frequency": 87.31, "note_held": 0.09114583333333334, "velocity": 84, "channel": 1}, {"time_played": 323.43750000000074, "midi_note": 65, "frequency": 349.23, "note_held": 0.3059895833333144, "velocity": 100, "channel": 1}, {"time_played": 323.43750000000074, "midi_note": 60, "frequency": 261.63, "note_held": 0.3059895833333144, "velocity": 100, "channel": 1}, {"time_played": 323.43750000000074, "midi_note": 57, "frequency": 220, "note_held": 0.3059895833333144, "velocity": 100, "channel": 1}, {"time_played": 323.43750000000074, "midi_note": 53, "frequency": 174.61, "note_held": 0.3059895833333144, "velocity": 100, "channel": 1}, {"time_played": 323.43750000000074, "midi_note": 48, "frequency": 130.81, "note_held": 0.3059895833333144, "velocity": 100, "channel": 1}, {"time_played": 323.43750000000074, "midi_note": 41, "frequency": 87.31, "note_held": 0.006510416666666667, "velocity": 100, "channel": 1}, {"time_played": 323.75000000000074, "midi_note": 53, "frequency": 174.61, "note_held": 0.14973958333337123, "velocity": 70, "channel": 1}, {"time_played": 323.75000000000074, "midi_note": 57, "frequency": 220, "note_held": 0.14973958333337123, "velocity": 70, "channel": 1}, {"time_played": 323.75000000000074, "midi_note": 60, "frequency": 261.63, "note_held": 0.14973958333337123, "velocity": 70, "channel": 1}, {"time_played": 323.75000000000074, "midi_note": 65, "frequency": 349.23, "note_held": 0.006510416666666667, "velocity": 70, "channel": 1}, {"time_played": 323.9062500000008, "midi_note": 65, "frequency": 349.23, "note_held": 0.3059895833333144, "velocity": 97, "channel": 1}, {"time_played": 323.9062500000008, "midi_note": 60, "frequency": 261.63, "note_held": 0.3059895833333144, "velocity": 80, "channel": 1}, {"time_played": 323.9062500000008, "midi_note": 57, "frequency": 220, "note_held": 0.3059895833333144, "velocity": 80, "channel": 1}, {"time_played": 323.9062500000008, "midi_note": 53, "frequency": 174.61, "note_held": 0.3059895833333144, "velocity": 80, "channel": 1}, {"time_played": 323.9062500000008, "midi_note": 48, "frequency": 130.81, "note_held": 0.006510416666666667, "velocity": 80, "channel": 1}, {"time_played": 324.0625000000008, "midi_note": 65, "frequency": 349.23, "note_held": 0.14973958333331439, "velocity": 80, "channel": 1}, {"time_played": 324.0625000000008, "midi_note": 60, "frequency": 261.63, "note_held": 0.14973958333331439, "velocity": 80, "channel": 1}, {"time_played": 324.0625000000008, "midi_note": 57, "frequency": 220, "note_held": 0.14973958333331439, "velocity": 80, "channel": 1}, {"time_played": 324.0625000000008, "midi_note": 53, "frequency": 174.61, "note_held": 0.14973958333331439, "velocity": 80, "channel": 1}, {"time_played": 324.0625000000008, "midi_note": 48, "frequency": 130.81, "note_held": 0.14973958333331439, "velocity": 80, "channel": 1}, {"time_played": 324.0625000000008, "midi_note": 41, "frequency": 87.31, "note_held": 0.14973958333333334, "velocity": 80, "channel": 1}, {"time_played": 324.3750000000008, "midi_note": 65, "frequency": 349.23, "note_held": 0.30598958333337123, "velocity": 100, "channel": 1}, {"time_played": 324.3750000000008, "midi_note": 60, "frequency": 261.63, "note_held": 0.30598958333337123, "velocity": 100, "channel": 1}, {"time_played": 324.3750000000008, "midi_note": 57, "frequency": 220, "note_held": 0.30598958333337123, "velocity": 100, "channel": 1}, {"time_played": 324.3750000000008, "midi_note": 53, "frequency": 174.61, "note_held": 0.30598958333337123, "velocity": 100, "channel": 1}, {"time_played": 324.3750000000008, "midi_note": 48, "frequency": 130.81, "note_held": 0.30598958333337123, "velocity": 100, "channel": 1}, {"time_played": 324.53125000000085, "midi_note": 65, "frequency": 349.23, "note_held": 0.14973958333331439, "velocity": 64, "channel": 1}, {"time_played": 324.53125000000085, "midi_note": 60, "frequency": 261.63, "note_held": 0.14973958333331439, "velocity": 64, "channel": 1}, {"time_played": 324.53125000000085, "midi_note": 57, "frequency": 220, "note_held": 0.14973958333331439, "velocity": 64, "channel": 1}, {"time_played": 324.53125000000085, "midi_note": 53, "frequency": 174.61, "note_held": 0.006510416666666667, "velocity": 64, "channel": 1}, {"time_played": 324.68750000000085, "midi_note": 57, "frequency": 220, "note_held": 0.14973958333337123, "velocity": 56, "channel": 1}, {"time_played": 324.68750000000085, "midi_note": 60, "frequency": 261.63, "note_held": 0.14973958333337123, "velocity": 56, "channel": 1}, {"time_played": 324.68750000000085, "midi_note": 65, "frequency": 349.23, "note_held": 0.006510416666666667, "velocity": 56, "channel": 1}, {"time_played": 324.8437500000009, "midi_note": 53, "frequency": 174.61, "note_held": 0.14973958333331439, "velocity": 70, "channel": 1}, {"time_played": 324.8437500000009, "midi_note": 57, "frequency": 220, "note_held": 0.14973958333331439, "velocity": 70, "channel": 1}, {"time_played": 324.8437500000009, "midi_note": 60, "frequency": 261.63, "note_held": 0.14973958333331439, "velocity": 70, "channel": 1}, {"time_played": 324.8437500000009, "midi_note": 65, "frequency": 349.23, "note_held": 0.006510416666666667, "velocity": 70, "channel": 1}, {"time_played": 325.0000000000009, "midi_note": 67, "frequency": 392, "note_held": 0.6184895833333712, "velocity": 100, "channel": 1}, {"time_played": 325.0000000000009, "midi_note": 64, "frequency": 329.63, "note_held": 0.6184895833333712, "velocity": 100, "channel": 1}, {"time_played": 325.0000000000009, "midi_note": 60, "frequency": 261.63, "note_held": 0.6184895833333712, "velocity": 100, "channel": 1}, {"time_played": 325.0000000000009, "midi_note": 55, "frequency": 196, "note_held": 0.6184895833333712, "velocity": 100, "channel": 1}, {"time_played": 325.0000000000009, "midi_note": 48, "frequency": 130.81, "note_held": 0.006510416666666667, "velocity": 100, "channel": 1}, {"time_played": 325.62500000000097, "midi_note": 67, "frequency": 392, "note_held": 0.6184895833333712, "velocity": 100, "channel": 1}, {"time_played": 325.62500000000097, "midi_note": 64, "frequency": 329.63, "note_held": 0.6184895833333712, "velocity": 100, "channel": 1}, {"time_played": 325.62500000000097, "midi_note": 60, "frequency": 261.63, "note_held": 0.6184895833333712, "velocity": 100, "channel": 1}, {"time_played": 325.62500000000097, "midi_note": 55, "frequency": 196, "note_held": 0.6184895833333712, "velocity": 100, "channel": 1}, {"time_played": 325.62500000000097, "midi_note": 48, "frequency": 130.81, "note_held": 0.006510416666666667, "velocity": 100, "channel": 1}, {"time_played": 326.250000000001, "midi_note": 67, "frequency": 392, "note_held": 0.6184895833332575, "velocity": 100, "channel": 1}, {"time_played": 326.250000000001, "midi_note": 62, "frequency": 293.66, "note_held": 0.6184895833332575, "velocity": 100, "channel": 1}, {"time_played": 326.250000000001, "midi_note": 59, "frequency": 246.94, "note_held": 0.6184895833332575, "velocity": 100, "channel": 1}, {"time_played": 326.250000000001, "midi_note": 55, "frequency": 196, "note_held": 0.6184895833332575, "velocity": 100, "channel": 1}, {"time_played": 326.250000000001, "midi_note": 50, "frequency": 146.83, "note_held": 0.6184895833332575, "velocity": 100, "channel": 1}, {"time_played": 326.250000000001, "midi_note": 43, "frequency": 98, "note_held": 0.006510416666666667, "velocity": 100, "channel": 1}, {"time_played": 326.87500000000097, "midi_note": 67, "frequency": 392, "note_held": 0.6184895833333144, "velocity": 100, "channel": 1}, {"time_played": 326.87500000000097, "midi_note": 62, "frequency": 293.66, "note_held": 0.6184895833333144, "velocity": 100, "channel": 1}, {"time_played": 326.87500000000097, "midi_note": 59, "frequency": 246.94, "note_held": 0.6184895833333144, "velocity": 100, "channel": 1}, {"time_played": 326.87500000000097, "midi_note": 55, "frequency": 196, "note_held": 0.6184895833333144, "velocity": 100, "channel": 1}, {"time_played": 326.87500000000097, "midi_note": 50, "frequency": 146.83, "note_held": 0.6184895833333144, "velocity": 100, "channel": 1}, {"time_played": 326.87500000000097, "midi_note": 43, "frequency": 98, "note_held": 0.006510416666666667, "velocity": 100, "channel": 1}, {"time_played": 327.50000000000097, "midi_note": 69, "frequency": 440, "note_held": 0.6184895833333712, "velocity": 100, "channel": 1}, {"time_played": 327.50000000000097, "midi_note": 65, "frequency": 349.23, "note_held": 0.6184895833333712, "velocity": 100, "channel": 1}, {"time_played": 327.50000000000097, "midi_note": 62, "frequency": 293.66, "note_held": 0.6184895833333712, "velocity": 100, "channel": 1}, {"time_played": 327.50000000000097, "midi_note": 57, "frequency": 220, "note_held": 0.6184895833333712, "velocity": 100, "channel": 1}, {"time_played": 327.50000000000097, "midi_note": 50, "frequency": 146.83, "note_held": 0.006510416666666667, "velocity": 100, "channel": 1}, {"time_played": 328.125000000001, "midi_note": 69, "frequency": 440, "note_held": 0.6184895833332575, "velocity": 100, "channel": 1}, {"time_played": 328.125000000001, "midi_note": 65, "frequency": 349.23, "note_held": 0.6184895833332575, "velocity": 100, "channel": 1}, {"time_played": 328.125000000001, "midi_note": 62, "frequency": 293.66, "note_held": 0.6184895833332575, "velocity": 100, "channel": 1}, {"time_played": 328.125000000001, "midi_note": 57, "frequency": 220, "note_held": 0.6184895833332575, "velocity": 100, "channel": 1}, {"time_played": 328.125000000001, "midi_note": 50, "frequency": 146.83, "note_held": 0.006510416666666667, "velocity": 100, "channel": 1}, {"time_played": 328.75000000000097, "midi_note": 69, "frequency": 440, "note_held": 0.6184895833332575, "velocity": 100, "channel": 1}, {"time_played": 328.75000000000097, "midi_note": 64, "frequency": 329.63, "note_held": 0.6184895833332575, "velocity": 100, "channel": 1}, {"time_played": 328.75000000000097, "midi_note": 60, "frequency": 261.63, "note_held": 0.6184895833332575, "velocity": 100, "channel": 1}, {"time_played": 328.75000000000097, "midi_note": 57, "frequency": 220, "note_held": 0.6184895833332575, "velocity": 100, "channel": 1}, {"time_played": 328.75000000000097, "midi_note": 52, "frequency": 164.81, "note_held": 0.6184895833332575, "velocity": 100, "channel": 1}, {"time_played": 328.75000000000097, "midi_note": 45, "frequency": 110, "note_held": 0.006510416666666667, "velocity": 100, "channel": 1}, {"time_played": 329.3750000000009, "midi_note": 69, "frequency": 440, "note_held": 0.3059895833333144, "velocity": 100, "channel": 1}, {"time_played": 329.3750000000009, "midi_note": 64, "frequency": 329.63, "note_held": 0.3059895833333144, "velocity": 100, "channel": 1}, {"time_played": 329.3750000000009, "midi_note": 60, "frequency": 261.63, "note_held": 0.3059895833333144, "velocity": 100, "channel": 1}, {"time_played": 329.3750000000009, "midi_note": 57, "frequency": 220, "note_held": 0.3059895833333144, "velocity": 100, "channel": 1}, {"time_played": 329.3750000000009, "midi_note": 52, "frequency": 164.81, "note_held": 0.3059895833333144, "velocity": 100, "channel": 1}, {"time_played": 329.3750000000009, "midi_note": 45, "frequency": 110, "note_held": 0.006510416666666667, "velocity": 100, "channel": 1}, {"time_played": 330.00000000000097, "midi_note": 67, "frequency": 392, "note_held": 0.6184895833334849, "velocity": 100, "channel": 1}, {"time_played": 330.00000000000097, "midi_note": 64, "frequency": 329.63, "note_held": 0.6184895833334849, "velocity": 100, "channel": 1}, {"time_played": 330.00000000000097, "midi_note": 60, "frequency": 261.63, "note_held": 0.6184895833334849, "velocity": 100, "channel": 1}, {"time_played": 330.00000000000097, "midi_note": 55, "frequency": 196, "note_held": 0.6184895833334849, "velocity": 100, "channel": 1}, {"time_played": 330.00000000000097, "midi_note": 48, "frequency": 130.81, "note_held": 0.026041666666666668, "velocity": 100, "channel": 1}, {"time_played": 330.62500000000114, "midi_note": 67, "frequency": 392, "note_held": 0.6184895833333144, "velocity": 100, "channel": 1}, {"time_played": 330.62500000000114, "midi_note": 64, "frequency": 329.63, "note_held": 0.6184895833333144, "velocity": 100, "channel": 1}, {"time_played": 330.62500000000114, "midi_note": 60, "frequency": 261.63, "note_held": 0.6184895833333144, "velocity": 100, "channel": 1}, {"time_played": 330.62500000000114, "midi_note": 55, "frequency": 196, "note_held": 0.6184895833333144, "velocity": 100, "channel": 1}, {"time_played": 330.62500000000114, "midi_note": 48, "frequency": 130.81, "note_held": 0.006510416666666667, "velocity": 100, "channel": 1}, {"time_played": 331.87500000000114, "midi_note": 69, "frequency": 440, "note_held": 0.6184895833333712, "velocity": 100, "channel": 1}, {"time_played": 331.87500000000114, "midi_note": 65, "frequency": 349.23, "note_held": 0.6184895833333712, "velocity": 100, "channel": 1}, {"time_played": 331.87500000000114, "midi_note": 62, "frequency": 293.66, "note_held": 0.6184895833333712, "velocity": 100, "channel": 1}, {"time_played": 331.87500000000114, "midi_note": 57, "frequency": 220, "note_held": 0.6184895833333712, "velocity": 100, "channel": 1}, {"time_played": 331.87500000000114, "midi_note": 50, "frequency": 146.83, "note_held": 0.14322916666666669, "velocity": 100, "channel": 1}, {"time_played": 332.5000000000012, "midi_note": 69, "frequency": 440, "note_held": 0.6184895833333712, "velocity": 100, "channel": 1}, {"time_played": 332.5000000000012, "midi_note": 65, "frequency": 349.23, "note_held": 0.6184895833333712, "velocity": 100, "channel": 1}, {"time_played": 332.5000000000012, "midi_note": 62, "frequency": 293.66, "note_held": 0.6184895833333712, "velocity": 100, "channel": 1}, {"time_played": 332.5000000000012, "midi_note": 57, "frequency": 220, "note_held": 0.6184895833333712, "velocity": 100, "channel": 1}, {"time_played": 332.5000000000012, "midi_note": 50, "frequency": 146.83, "note_held": 0.006510416666666667, "velocity": 100, "channel": 1}, {"time_played": 333.12500000000125, "midi_note": 69, "frequency": 440, "note_held": 0.6184895833332575, "velocity": 100, "channel": 1}, {"time_played": 333.12500000000125, "midi_note": 65, "frequency": 349.23, "note_held": 0.6184895833332575, "velocity": 100, "channel": 1}, {"time_played": 333.12500000000125, "midi_note": 62, "frequency": 293.66, "note_held": 0.6184895833332575, "velocity": 100, "channel": 1}, {"time_played": 333.12500000000125, "midi_note": 57, "frequency": 220, "note_held": 0.6184895833332575, "velocity": 100, "channel": 1}, {"time_played": 333.12500000000125, "midi_note": 50, "frequency": 146.83, "note_held": 0.006510416666666667, "velocity": 100, "channel": 1}, {"time_played": 333.7500000000012, "midi_note": 69, "frequency": 440, "note_held": 0.6184895833333144, "velocity": 100, "channel": 1}, {"time_played": 333.7500000000012, "midi_note": 65, "frequency": 349.23, "note_held": 0.6184895833333144, "velocity": 100, "channel": 1}, {"time_played": 333.7500000000012, "midi_note": 62, "frequency": 293.66, "note_held": 0.6184895833333144, "velocity": 100, "channel": 1}, {"time_played": 333.7500000000012, "midi_note": 57, "frequency": 220, "note_held": 0.6184895833333144, "velocity": 100, "channel": 1}, {"time_played": 333.7500000000012, "midi_note": 50, "frequency": 146.83, "note_held": 0.006510416666666667, "velocity": 100, "channel": 1}, {"time_played": 334.3750000000012, "midi_note": 69, "frequency": 440, "note_held": 0.6184895833334281, "velocity": 100, "channel": 1}, {"time_played": 334.3750000000012, "midi_note": 65, "frequency": 349.23, "note_held": 0.6184895833334281, "velocity": 100, "channel": 1}, {"time_played": 334.3750000000012, "midi_note": 62, "frequency": 293.66, "note_held": 0.6184895833334281, "velocity": 100, "channel": 1}, {"time_played": 334.3750000000012, "midi_note": 57, "frequency": 220, "note_held": 0.6184895833334281, "velocity": 100, "channel": 1}, {"time_played": 334.3750000000012, "midi_note": 50, "frequency": 146.83, "note_held": 0.006510416666666667, "velocity": 100, "channel": 1}, {"time_played": 335.0000000000013, "midi_note": 67, "frequency": 392, "note_held": 0.6184895833333712, "velocity": 100, "channel": 1}, {"time_played": 335.0000000000013, "midi_note": 64, "frequency": 329.63, "note_held": 0.6184895833333712, "velocity": 100, "channel": 1}, {"time_played": 335.0000000000013, "midi_note": 60, "frequency": 261.63, "note_held": 0.6184895833333712, "velocity": 100, "channel": 1}, {"time_played": 335.0000000000013, "midi_note": 55, "frequency": 196, "note_held": 0.6184895833333712, "velocity": 100, "channel": 1}, {"time_played": 335.0000000000013, "midi_note": 48, "frequency": 130.81, "note_held": 0.006510416666666667, "velocity": 100, "channel": 1}, {"time_played": 335.62500000000136, "midi_note": 67, "frequency": 392, "note_held": 0.6184895833333712, "velocity": 100, "channel": 1}, {"time_played": 335.62500000000136, "midi_note": 64, "frequency": 329.63, "note_held": 0.6184895833333712, "velocity": 100, "channel": 1}, {"time_played": 335.62500000000136, "midi_note": 60, "frequency": 261.63, "note_held": 0.6184895833333712, "velocity": 100, "channel": 1}, {"time_played": 335.62500000000136, "midi_note": 55, "frequency": 196, "note_held": 0.6184895833333712, "velocity": 100, "channel": 1}, {"time_played": 335.62500000000136, "midi_note": 48, "frequency": 130.81, "note_held": 0.006510416666666667, "velocity": 100, "channel": 1}, {"time_played": 336.2500000000014, "midi_note": 67, "frequency": 392, "note_held": 0.6184895833332575, "velocity": 100, "channel": 1}, {"time_played": 336.2500000000014, "midi_note": 62, "frequency": 293.66, "note_held": 0.6184895833332575, "velocity": 100, "channel": 1}, {"time_played": 336.2500000000014, "midi_note": 59, "frequency": 246.94, "note_held": 0.6184895833332575, "velocity": 100, "channel": 1}, {"time_played": 336.2500000000014, "midi_note": 55, "frequency": 196, "note_held": 0.6184895833332575, "velocity": 100, "channel": 1}, {"time_played": 336.2500000000014, "midi_note": 50, "frequency": 146.83, "note_held": 0.6184895833332575, "velocity": 100, "channel": 1}, {"time_played": 336.2500000000014, "midi_note": 43, "frequency": 98, "note_held": 0.006510416666666667, "velocity": 100, "channel": 1}, {"time_played": 336.87500000000136, "midi_note": 67, "frequency": 392, "note_held": 0.6184895833333144, "velocity": 100, "channel": 1}, {"time_played": 336.87500000000136, "midi_note": 62, "frequency": 293.66, "note_held": 0.6184895833333144, "velocity": 100, "channel": 1}, {"time_played": 336.87500000000136, "midi_note": 59, "frequency": 246.94, "note_held": 0.6184895833333144, "velocity": 100, "channel": 1}, {"time_played": 336.87500000000136, "midi_note": 55, "frequency": 196, "note_held": 0.6184895833333144, "velocity": 100, "channel": 1}, {"time_played": 336.87500000000136, "midi_note": 50, "frequency": 146.83, "note_held": 0.6184895833333144, "velocity": 100, "channel": 1}, {"time_played": 336.87500000000136, "midi_note": 43, "frequency": 98, "note_held": 0.006510416666666667, "velocity": 100, "channel": 1}, {"time_played": 337.50000000000136, "midi_note": 69, "frequency": 440, "note_held": 0.6184895833333712, "velocity": 100, "channel": 1}, {"time_played": 337.50000000000136, "midi_note": 65, "frequency": 349.23, "note_held": 0.6184895833333712, "velocity": 100, "channel": 1}, {"time_played": 337.50000000000136, "midi_note": 62, "frequency": 293.66, "note_held": 0.6184895833333712, "velocity": 100, "channel": 1}, {"time_played": 337.50000000000136, "midi_note": 57, "frequency": 220, "note_held": 0.6184895833333712, "velocity": 100, "channel": 1}, {"time_played": 337.50000000000136, "midi_note": 50, "frequency": 146.83, "note_held": 0.006510416666666667, "velocity": 100, "channel": 1}, {"time_played": 338.1250000000014, "midi_note": 69, "frequency": 440, "note_held": 0.6184895833332575, "velocity": 100, "channel": 1}, {"time_played": 338.1250000000014, "midi_note": 65, "frequency": 349.23, "note_held": 0.6184895833332575, "velocity": 100, "channel": 1}, {"time_played": 338.1250000000014, "midi_note": 62, "frequency": 293.66, "note_held": 0.6184895833332575, "velocity": 100, "channel": 1}, {"time_played": 338.1250000000014, "midi_note": 57, "frequency": 220, "note_held": 0.6184895833332575, "velocity": 100, "channel": 1}, {"time_played": 338.1250000000014, "midi_note": 50, "frequency": 146.83, "note_held": 0.006510416666666667, "velocity": 100, "channel": 1}, {"time_played": 338.75000000000136, "midi_note": 69, "frequency": 440, "note_held": 0.6184895833332575, "velocity": 100, "channel": 1}, {"time_played": 338.75000000000136, "midi_note": 64, "frequency": 329.63, "note_held": 0.6184895833332575, "velocity": 100, "channel": 1}, {"time_played": 338.75000000000136, "midi_note": 60, "frequency": 261.63, "note_held": 0.6184895833332575, "velocity": 100, "channel": 1}, {"time_played": 338.75000000000136, "midi_note": 57, "frequency": 220, "note_held": 0.6184895833332575, "velocity": 100, "channel": 1}, {"time_played": 338.75000000000136, "midi_note": 52, "frequency": 164.81, "note_held": 0.6184895833332575, "velocity": 100, "channel": 1}, {"time_played": 338.75000000000136, "midi_note": 45, "frequency": 110, "note_held": 0.006510416666666667, "velocity": 100, "channel": 1}, {"time_played": 339.3750000000013, "midi_note": 69, "frequency": 440, "note_held": 0.3059895833333144, "velocity": 100, "channel": 1}, {"time_played": 339.3750000000013, "midi_note": 64, "frequency": 329.63, "note_held": 0.3059895833333144, "velocity": 100, "channel": 1}, {"time_played": 339.3750000000013, "midi_note": 60, "frequency": 261.63, "note_held": 0.3059895833333144, "velocity": 100, "channel": 1}, {"time_played": 339.3750000000013, "midi_note": 57, "frequency": 220, "note_held": 0.3059895833333144, "velocity": 100, "channel": 1}, {"time_played": 339.3750000000013, "midi_note": 52, "frequency": 164.81, "note_held": 0.3059895833333144, "velocity": 100, "channel": 1}, {"time_played": 339.3750000000013, "midi_note": 45, "frequency": 110, "note_held": 0.006510416666666667, "velocity": 100, "channel": 1}, {"time_played": 340.00000000000136, "midi_note": 55, "frequency": 196, "note_held": 0.5468750000001137, "velocity": 101, "channel": 1}, {"time_played": 340.00000000000136, "midi_note": 67, "frequency": 392, "note_held": 0.5533854166667993, "velocity": 114, "channel": 1}, {"time_played": 340.00000000000136, "midi_note": 64, "frequency": 329.63, "note_held": 0.5729166666667993, "velocity": 114, "channel": 1}, {"time_played": 340.00000000000136, "midi_note": 48, "frequency": 130.81, "note_held": 0.026041666666666668, "velocity": 89, "channel": 1}, {"time_played": 340.00000000000136, "midi_note": 60, "frequency": 261.63, "note_held": 0.5859375000001137, "velocity": 87, "channel": 1}, {"time_played": 342.18098958333485, "midi_note": 50, "frequency": 146.83, "note_held": 2.727864583333485, "velocity": 101, "channel": 1}, {"time_played": 342.18098958333485, "midi_note": 57, "frequency": 220, "note_held": 0.01953125, "velocity": 78, "channel": 1}, {"time_played": 342.2200520833349, "midi_note": 62, "frequency": 293.66, "note_held": 0.026041666666666668, "velocity": 98, "channel": 1}, {"time_played": 342.2656250000016, "midi_note": 65, "frequency": 349.23, "note_held": 0.04557291666666667, "velocity": 74, "channel": 1}]