[{"time_played": 1.5652169999999999, "midi_note": 70, "frequency": 466.16, "note_held": 1.3913039999999999, "velocity": 110, "channel": 0}, {"time_played": 1.5652169999999999, "midi_note": 65, "frequency": 349.23, "note_held": 0.4173912000000002, "velocity": 111, "channel": 1}, {"time_played": 2.086956, "midi_note": 65, "frequency": 349.23, "note_held": 0.10434779999999999, "velocity": 118, "channel": 0}, {"time_played": 2.086956, "midi_note": 62, "frequency": 293.66, "note_held": 0.4173911999999995, "velocity": 111, "channel": 1}, {"time_played": 2.608694999999999, "midi_note": 62, "frequency": 293.66, "note_held": 0.10434779999999999, "velocity": 116, "channel": 0}, {"time_played": 2.608694999999999, "midi_note": 58, "frequency": 233.08, "note_held": 0.41739119999999996, "velocity": 100, "channel": 1}, {"time_played": 3.1304339999999993, "midi_note": 65, "frequency": 349.23, "note_held": 0.10434779999999999, "velocity": 112, "channel": 0}, {"time_played": 3.1304339999999993, "midi_note": 60, "frequency": 261.63, "note_held": 0.6260867999999995, "velocity": 109, "channel": 1}, {"time_played": 3.913042499999998, "midi_note": 63, "frequency": 311.13, "note_held": 0.09999997499999999, "velocity": 110, "channel": 0}, {"time_played": 3.913042499999998, "midi_note": 60, "frequency": 261.63, "note_held": 0.20869559999999998, "velocity": 91, "channel": 1}, {"time_played": 4.173911999999998, "midi_note": 60, "frequency": 261.63, "note_held": 0.052173899999999995, "velocity": 96, "channel": 0}, {"time_played": 4.173911999999998, "midi_note": 57, "frequency": 220, "note_held": 0.41739119999999996, "velocity": 111, "channel": 1}, {"time_played": 4.695650999999998, "midi_note": 58, "frequency": 233.08, "note_held": 0.10434779999999999, "velocity": 111, "channel": 0}, {"time_played": 4.695650999999998, "midi_note": 53, "frequency": 174.61, "note_held": 0.834782399999999, "velocity": 95, "channel": 1}, {"time_played": 5.739128999999997, "midi_note": 62, "frequency": 293.66, "note_held": 0.20869559999999998, "velocity": 110, "channel": 0}, {"time_played": 5.739128999999997, "midi_note": 58, "frequency": 233.08, "note_held": 0.20869560000000043, "velocity": 86, "channel": 1}, {"time_played": 5.999998499999997, "midi_note": 65, "frequency": 349.23, "note_held": 0.052173899999999995, "velocity": 116, "channel": 0}, {"time_played": 5.999998499999997, "midi_note": 62, "frequency": 293.66, "note_held": 0.20869560000000043, "velocity": 91, "channel": 1}, {"time_played": 6.260867999999997, "midi_note": 70, "frequency": 466.16, "note_held": 0.052173899999999995, "velocity": 124, "channel": 0}, {"time_played": 6.260867999999997, "midi_note": 65, "frequency": 349.23, "note_held": 1.2521735999999999, "velocity": 94, "channel": 1}, {"time_played": 7.826084999999996, "midi_note": 65, "frequency": 349.23, "note_held": 0.00869565, "velocity": 111, "channel": 0}, {"time_played": 7.826084999999996, "midi_note": 62, "frequency": 293.66, "note_held": 0.6260867999999986, "velocity": 110, "channel": 1}, {"time_played": 8.608693499999994, "midi_note": 67, "frequency": 392, "note_held": 0.08260867499999999, "velocity": 95, "channel": 0}, {"time_played": 8.608693499999994, "midi_note": 63, "frequency": 311.13, "note_held": 0.20869560000000043, "velocity": 102, "channel": 1}, {"time_played": 8.869562999999994, "midi_note": 65, "frequency": 349.23, "note_held": 0.052173899999999995, "velocity": 105, "channel": 0}, {"time_played": 8.869562999999994, "midi_note": 62, "frequency": 293.66, "note_held": 0.4173911999999991, "velocity": 100, "channel": 1}, {"time_played": 9.391301999999992, "midi_note": 62, "frequency": 293.66, "note_held": 0.10434779999999999, "velocity": 124, "channel": 0}, {"time_played": 9.391301999999992, "midi_note": 58, "frequency": 233.08, "note_held": 1.2521735999999954, "velocity": 95, "channel": 1}, {"time_played": 10.956518999999988, "midi_note": 65, "frequency": 349.23, "note_held": 0.00869565, "velocity": 116, "channel": 0}, {"time_played": 10.956518999999988, "midi_note": 62, "frequency": 293.66, "note_held": 0.6260867999999977, "velocity": 89, "channel": 1}, {"time_played": 11.739127499999984, "midi_note": 67, "frequency": 392, "note_held": 0.10434779999999999, "velocity": 110, "channel": 0}, {"time_played": 11.739127499999984, "midi_note": 63, "frequency": 311.13, "note_held": 0.20869560000000043, "velocity": 101, "channel": 1}, {"time_played": 11.999996999999984, "midi_note": 65, "frequency": 349.23, "note_held": 0.052173899999999995, "velocity": 115, "channel": 0}, {"time_played": 11.999996999999984, "midi_note": 62, "frequency": 293.66, "note_held": 0.4173911999999991, "velocity": 103, "channel": 1}, {"time_played": 12.521735999999983, "midi_note": 62, "frequency": 293.66, "note_held": 0.10434779999999999, "velocity": 123, "channel": 0}, {"time_played": 12.521735999999983, "midi_note": 58, "frequency": 233.08, "note_held": 1.2521735999999954, "velocity": 100, "channel": 1}, {"time_played": 14.086952999999978, "midi_note": 72, "frequency": 523.25, "note_held": 0.00869565, "velocity": 109, "channel": 0}, {"time_played": 14.086952999999978, "midi_note": 69, "frequency": 440, "note_held": 0.8347823999999981, "velocity": 102, "channel": 1}, {"time_played": 15.130430999999977, "midi_note": 72, "frequency": 523.25, "note_held": 0.20869559999999998, "velocity": 100, "channel": 0}, {"time_played": 15.130430999999977, "midi_note": 69, "frequency": 440, "note_held": 0.4173911999999991, "velocity": 106, "channel": 1}, {"time_played": 15.652169999999975, "midi_note": 69, "frequency": 440, "note_held": 0.10434779999999999, "velocity": 113, "channel": 0}, {"time_played": 15.652169999999975, "midi_note": 63, "frequency": 311.13, "note_held": 1.2521735999999972, "velocity": 100, "channel": 1}, {"time_played": 17.217386999999974, "midi_note": 70, "frequency": 466.16, "note_held": 0.00869565, "velocity": 114, "channel": 0}, {"time_played": 17.217386999999974, "midi_note": 65, "frequency": 349.23, "note_held": 0.8347823999999981, "velocity": 100, "channel": 1}, {"time_played": 18.26086499999997, "midi_note": 70, "frequency": 466.16, "note_held": 0.20869559999999998, "velocity": 114, "channel": 0}, {"time_played": 18.26086499999997, "midi_note": 65, "frequency": 349.23, "note_held": 0.41739120000000085, "velocity": 99, "channel": 1}, {"time_played": 18.78260399999997, "midi_note": 65, "frequency": 349.23, "note_held": 0.10434779999999999, "velocity": 120, "channel": 0}, {"time_played": 18.78260399999997, "midi_note": 62, "frequency": 293.66, "note_held": 1.4043474749999945, "velocity": 101, "channel": 1}, {"time_played": 20.347820999999964, "midi_note": 67, "frequency": 392, "note_held": 0.00869565, "velocity": 114, "channel": 0}, {"time_played": 20.347820999999964, "midi_note": 63, "frequency": 311.13, "note_held": 0.8347823999999981, "velocity": 103, "channel": 1}, {"time_played": 21.39129899999996, "midi_note": 67, "frequency": 392, "note_held": 0.20869559999999998, "velocity": 104, "channel": 0}, {"time_played": 21.39129899999996, "midi_note": 63, "frequency": 311.13, "note_held": 0.4173911999999973, "velocity": 89, "channel": 1}, {"time_played": 21.913037999999958, "midi_note": 70, "frequency": 466.16, "note_held": 0.10434779999999999, "velocity": 105, "channel": 0}, {"time_played": 21.913037999999958, "midi_note": 67, "frequency": 392, "note_held": 0.6260867999999995, "velocity": 104, "channel": 1}, {"time_played": 22.695646499999956, "midi_note": 69, "frequency": 440, "note_held": 0.07826084999999999, "velocity": 112, "channel": 0}, {"time_played": 22.695646499999956, "midi_note": 63, "frequency": 311.13, "note_held": 0.20869559999999865, "velocity": 109, "channel": 1}, {"time_played": 22.956515999999954, "midi_note": 67, "frequency": 392, "note_held": 0.052173899999999995, "velocity": 107, "channel": 0}, {"time_played": 22.956515999999954, "midi_note": 63, "frequency": 311.13, "note_held": 0.4173911999999973, "velocity": 100, "channel": 1}, {"time_played": 23.47825499999995, "midi_note": 65, "frequency": 349.23, "note_held": 0.00869565, "velocity": 111, "channel": 0}, {"time_played": 23.47825499999995, "midi_note": 62, "frequency": 293.66, "note_held": 0.6260867999999995, "velocity": 92, "channel": 1}, {"time_played": 24.26086349999995, "midi_note": 67, "frequency": 392, "note_held": 0.060869549999999994, "velocity": 114, "channel": 0}, {"time_played": 24.26086349999995, "midi_note": 63, "frequency": 311.13, "note_held": 0.20869559999999865, "velocity": 96, "channel": 1}, {"time_played": 24.521732999999948, "midi_note": 65, "frequency": 349.23, "note_held": 0.052173899999999995, "velocity": 107, "channel": 0}, {"time_played": 24.521732999999948, "midi_note": 62, "frequency": 293.66, "note_held": 0.4173911999999973, "velocity": 96, "channel": 1}, {"time_played": 25.043471999999944, "midi_note": 62, "frequency": 293.66, "note_held": 0.10434779999999999, "velocity": 109, "channel": 0}, {"time_played": 25.043471999999944, "midi_note": 58, "frequency": 233.08, "note_held": 1.2521735999999954, "velocity": 89, "channel": 1}, {"time_played": 26.608688999999938, "midi_note": 67, "frequency": 392, "note_held": 0.00869565, "velocity": 104, "channel": 0}, {"time_played": 26.608688999999938, "midi_note": 63, "frequency": 311.13, "note_held": 0.8347823999999981, "velocity": 98, "channel": 1}, {"time_played": 27.652166999999935, "midi_note": 67, "frequency": 392, "note_held": 0.20869559999999998, "velocity": 119, "channel": 0}, {"time_played": 27.652166999999935, "midi_note": 63, "frequency": 311.13, "note_held": 0.41739120000000085, "velocity": 99, "channel": 1}, {"time_played": 28.173905999999935, "midi_note": 70, "frequency": 466.16, "note_held": 0.10434779999999999, "velocity": 108, "channel": 0}, {"time_played": 28.173905999999935, "midi_note": 67, "frequency": 392, "note_held": 0.6260867999999995, "velocity": 109, "channel": 1}, {"time_played": 28.956514499999933, "midi_note": 69, "frequency": 440, "note_held": 0.09999997499999999, "velocity": 110, "channel": 0}, {"time_played": 28.956514499999933, "midi_note": 63, "frequency": 311.13, "note_held": 0.20869559999999865, "velocity": 100, "channel": 1}, {"time_played": 29.21738399999993, "midi_note": 67, "frequency": 392, "note_held": 0.052173899999999995, "velocity": 103, "channel": 0}, {"time_played": 29.21738399999993, "midi_note": 63, "frequency": 311.13, "note_held": 0.41739120000000085, "velocity": 100, "channel": 1}, {"time_played": 29.739122999999932, "midi_note": 65, "frequency": 349.23, "note_held": 0.00869565, "velocity": 105, "channel": 0}, {"time_played": 29.739122999999932, "midi_note": 62, "frequency": 293.66, "note_held": 0.6260867999999995, "velocity": 112, "channel": 1}, {"time_played": 30.52173149999993, "midi_note": 67, "frequency": 392, "note_held": 0.10434779999999999, "velocity": 99, "channel": 0}, {"time_played": 30.52173149999993, "midi_note": 63, "frequency": 311.13, "note_held": 0.20869559999999865, "velocity": 86, "channel": 1}, {"time_played": 30.78260099999993, "midi_note": 65, "frequency": 349.23, "note_held": 0.052173899999999995, "velocity": 120, "channel": 0}, {"time_played": 30.78260099999993, "midi_note": 62, "frequency": 293.66, "note_held": 0.41739120000000085, "velocity": 89, "channel": 1}, {"time_played": 31.30433999999993, "midi_note": 62, "frequency": 293.66, "note_held": 0.10434779999999999, "velocity": 111, "channel": 0}, {"time_played": 31.30433999999993, "midi_note": 58, "frequency": 233.08, "note_held": 1.2521736000000097, "velocity": 102, "channel": 1}, {"time_played": 32.86955699999994, "midi_note": 72, "frequency": 523.25, "note_held": 0.00869565, "velocity": 97, "channel": 0}, {"time_played": 32.86955699999994, "midi_note": 69, "frequency": 440, "note_held": 0.8347824000000159, "velocity": 97, "channel": 1}, {"time_played": 33.913034999999965, "midi_note": 72, "frequency": 523.25, "note_held": 0.073913025, "velocity": 110, "channel": 0}, {"time_played": 33.913034999999965, "midi_note": 69, "frequency": 440, "note_held": 0.4173912000000115, "velocity": 102, "channel": 1}, {"time_played": 34.434773999999976, "midi_note": 75, "frequency": 622.25, "note_held": 0.10434779999999999, "velocity": 108, "channel": 0}, {"time_played": 34.434773999999976, "midi_note": 72, "frequency": 523.25, "note_held": 0.626086800000003, "velocity": 109, "channel": 1}, {"time_played": 35.217382499999985, "midi_note": 72, "frequency": 523.25, "note_held": 0.021739124999999998, "velocity": 122, "channel": 0}, {"time_played": 35.217382499999985, "midi_note": 69, "frequency": 440, "note_held": 0.20869560000000575, "velocity": 94, "channel": 1}, {"time_played": 35.47825199999999, "midi_note": 69, "frequency": 440, "note_held": 0.052173899999999995, "velocity": 111, "channel": 0}, {"time_played": 35.47825199999999, "midi_note": 63, "frequency": 311.13, "note_held": 0.4173912000000115, "velocity": 100, "channel": 1}, {"time_played": 35.99999100000001, "midi_note": 70, "frequency": 466.16, "note_held": 0.021739124999999998, "velocity": 120, "channel": 0}, {"time_played": 35.99999100000001, "midi_note": 65, "frequency": 349.23, "note_held": 1.2521736000000274, "velocity": 92, "channel": 1}, {"time_played": 37.565208000000034, "midi_note": 74, "frequency": 587.33, "note_held": 0.31304339999999997, "velocity": 96, "channel": 0}, {"time_played": 37.565208000000034, "midi_note": 70, "frequency": 466.16, "note_held": 1.2521736000000274, "velocity": 114, "channel": 1}, {"time_played": 39.130425000000066, "midi_note": 70, "frequency": 466.16, "note_held": 0.12173909999999999, "velocity": 108, "channel": 0}, {"time_played": 39.130425000000066, "midi_note": 65, "frequency": 349.23, "note_held": 0.4173912000000044, "velocity": 92, "channel": 1}, {"time_played": 39.65216400000008, "midi_note": 65, "frequency": 349.23, "note_held": 0.004347825, "velocity": 112, "channel": 0}, {"time_played": 39.65216400000008, "midi_note": 62, "frequency": 293.66, "note_held": 0.4173912000000115, "velocity": 114, "channel": 1}, {"time_played": 40.17390300000009, "midi_note": 62, "frequency": 293.66, "note_held": 0.10434779999999999, "velocity": 117, "channel": 0}, {"time_played": 40.17390300000009, "midi_note": 58, "frequency": 233.08, "note_held": 0.4173912000000044, "velocity": 101, "channel": 1}, {"time_played": 40.69564200000009, "midi_note": 65, "frequency": 349.23, "note_held": 0.10434779999999999, "velocity": 110, "channel": 0}, {"time_played": 40.69564200000009, "midi_note": 60, "frequency": 261.63, "note_held": 0.6260868000000102, "velocity": 111, "channel": 1}, {"time_played": 41.478250500000115, "midi_note": 63, "frequency": 311.13, "note_held": 0.043478249999999996, "velocity": 119, "channel": 0}, {"time_played": 41.478250500000115, "midi_note": 60, "frequency": 261.63, "note_held": 0.20869560000000575, "velocity": 99, "channel": 1}, {"time_played": 41.73912000000013, "midi_note": 60, "frequency": 261.63, "note_held": 0.004347825, "velocity": 123, "channel": 0}, {"time_played": 41.73912000000013, "midi_note": 57, "frequency": 220, "note_held": 0.4173912000000044, "velocity": 97, "channel": 1}, {"time_played": 42.26085900000013, "midi_note": 58, "frequency": 233.08, "note_held": 0.10434779999999999, "velocity": 109, "channel": 0}, {"time_played": 42.26085900000013, "midi_note": 53, "frequency": 174.61, "note_held": 3.0521731500000797, "velocity": 97, "channel": 1}, {"time_played": 45.39129300000022, "midi_note": 70, "frequency": 466.16, "note_held": 0.056521724999999995, "velocity": 109, "channel": 0}, {"time_played": 45.39129300000022, "midi_note": 65, "frequency": 349.23, "note_held": 0.4173912000000115, "velocity": 100, "channel": 1}, {"time_played": 45.91303200000023, "midi_note": 65, "frequency": 349.23, "note_held": 0.10434779999999999, "velocity": 108, "channel": 0}, {"time_played": 45.91303200000023, "midi_note": 62, "frequency": 293.66, "note_held": 0.4173912000000115, "velocity": 92, "channel": 1}, {"time_played": 46.43477100000025, "midi_note": 62, "frequency": 293.66, "note_held": 0.030434774999999997, "velocity": 110, "channel": 0}, {"time_played": 46.43477100000025, "midi_note": 58, "frequency": 233.08, "note_held": 0.4173912000000044, "velocity": 97, "channel": 1}, {"time_played": 46.95651000000025, "midi_note": 65, "frequency": 349.23, "note_held": 0.10434779999999999, "velocity": 103, "channel": 0}, {"time_played": 46.95651000000025, "midi_note": 60, "frequency": 261.63, "note_held": 0.6260868000000102, "velocity": 96, "channel": 1}, {"time_played": 47.739118500000274, "midi_note": 63, "frequency": 311.13, "note_held": 0.043478249999999996, "velocity": 125, "channel": 0}, {"time_played": 47.739118500000274, "midi_note": 60, "frequency": 261.63, "note_held": 0.20869560000000575, "velocity": 99, "channel": 1}, {"time_played": 47.999988000000286, "midi_note": 72, "frequency": 523.25, "note_held": 0.004347825, "velocity": 97, "channel": 0}, {"time_played": 47.999988000000286, "midi_note": 69, "frequency": 440, "note_held": 0.4173912000000115, "velocity": 100, "channel": 1}, {"time_played": 48.5217270000003, "midi_note": 70, "frequency": 466.16, "note_held": 0.10434779999999999, "velocity": 112, "channel": 0}, {"time_played": 48.5217270000003, "midi_note": 65, "frequency": 349.23, "note_held": 0.4173912000000044, "velocity": 101, "channel": 1}, {"time_played": 49.04346600000031, "midi_note": 53, "frequency": 174.61, "note_held": 0.004347825, "velocity": 100, "channel": 0}, {"time_played": 49.04346600000031, "midi_note": 50, "frequency": 146.83, "note_held": 0.20869560000000575, "velocity": 98, "channel": 1}, {"time_played": 49.30433550000031, "midi_note": 58, "frequency": 233.08, "note_held": 0.052173899999999995, "velocity": 109, "channel": 0}, {"time_played": 49.30433550000031, "midi_note": 53, "frequency": 174.61, "note_held": 0.20869559999999865, "velocity": 109, "channel": 1}, {"time_played": 49.56520500000031, "midi_note": 62, "frequency": 293.66, "note_held": 0.052173899999999995, "velocity": 105, "channel": 0}, {"time_played": 49.56520500000031, "midi_note": 58, "frequency": 233.08, "note_held": 0.20869560000000575, "velocity": 100, "channel": 1}, {"time_played": 49.82607450000032, "midi_note": 65, "frequency": 349.23, "note_held": 0.052173899999999995, "velocity": 115, "channel": 0}, {"time_played": 49.82607450000032, "midi_note": 62, "frequency": 293.66, "note_held": 0.20869559999999865, "velocity": 107, "channel": 1}, {"time_played": 50.086944000000315, "midi_note": 70, "frequency": 466.16, "note_held": 0.052173899999999995, "velocity": 115, "channel": 0}, {"time_played": 50.086944000000315, "midi_note": 65, "frequency": 349.23, "note_held": 1.2521736000000345, "velocity": 88, "channel": 1}, {"time_played": 51.65216100000037, "midi_note": 65, "frequency": 349.23, "note_held": 0.043478249999999996, "velocity": 99, "channel": 0}, {"time_played": 51.65216100000037, "midi_note": 62, "frequency": 293.66, "note_held": 0.6260868000000102, "velocity": 103, "channel": 1}, {"time_played": 52.43476950000039, "midi_note": 67, "frequency": 392, "note_held": 0.08260867499999999, "velocity": 109, "channel": 0}, {"time_played": 52.43476950000039, "midi_note": 63, "frequency": 311.13, "note_held": 0.20869559999999865, "velocity": 108, "channel": 1}, {"time_played": 52.69563900000039, "midi_note": 65, "frequency": 349.23, "note_held": 0.052173899999999995, "velocity": 110, "channel": 0}, {"time_played": 52.69563900000039, "midi_note": 62, "frequency": 293.66, "note_held": 0.4173912000000044, "velocity": 109, "channel": 1}, {"time_played": 53.217378000000394, "midi_note": 62, "frequency": 293.66, "note_held": 0.10434779999999999, "velocity": 103, "channel": 0}, {"time_played": 53.217378000000394, "midi_note": 58, "frequency": 233.08, "note_held": 1.2521736000000132, "velocity": 97, "channel": 1}, {"time_played": 54.78259500000041, "midi_note": 65, "frequency": 349.23, "note_held": 0.00869565, "velocity": 110, "channel": 0}, {"time_played": 54.78259500000041, "midi_note": 62, "frequency": 293.66, "note_held": 0.4173912000000044, "velocity": 97, "channel": 1}, {"time_played": 55.56520350000042, "midi_note": 67, "frequency": 392, "note_held": 0.10434779999999999, "velocity": 110, "channel": 0}, {"time_played": 55.56520350000042, "midi_note": 63, "frequency": 311.13, "note_held": 0.20869559999999865, "velocity": 99, "channel": 1}, {"time_played": 55.82607300000042, "midi_note": 65, "frequency": 349.23, "note_held": 0.052173899999999995, "velocity": 113, "channel": 0}, {"time_played": 55.82607300000042, "midi_note": 62, "frequency": 293.66, "note_held": 0.4173912000000044, "velocity": 102, "channel": 1}, {"time_played": 56.347812000000424, "midi_note": 62, "frequency": 293.66, "note_held": 0.10434779999999999, "velocity": 106, "channel": 0}, {"time_played": 56.347812000000424, "midi_note": 58, "frequency": 233.08, "note_held": 1.2521736000000345, "velocity": 101, "channel": 1}, {"time_played": 57.91302900000046, "midi_note": 72, "frequency": 523.25, "note_held": 0.00869565, "velocity": 110, "channel": 0}, {"time_played": 57.91302900000046, "midi_note": 69, "frequency": 440, "note_held": 0.8347824000000159, "velocity": 99, "channel": 1}, {"time_played": 58.956507000000485, "midi_note": 72, "frequency": 523.25, "note_held": 0.073913025, "velocity": 117, "channel": 0}, {"time_played": 58.956507000000485, "midi_note": 69, "frequency": 440, "note_held": 0.4173912000000044, "velocity": 102, "channel": 1}, {"time_played": 59.47824600000049, "midi_note": 69, "frequency": 440, "note_held": 0.10434779999999999, "velocity": 109, "channel": 0}, {"time_played": 59.47824600000049, "midi_note": 63, "frequency": 311.13, "note_held": 1.2521736000000274, "velocity": 99, "channel": 1}, {"time_played": 61.04346300000052, "midi_note": 70, "frequency": 466.16, "note_held": 0.00869565, "velocity": 105, "channel": 0}, {"time_played": 61.04346300000052, "midi_note": 65, "frequency": 349.23, "note_held": 0.8347824000000159, "velocity": 99, "channel": 1}, {"time_played": 62.086941000000536, "midi_note": 70, "frequency": 466.16, "note_held": 0.20869559999999998, "velocity": 111, "channel": 0}, {"time_played": 62.086941000000536, "midi_note": 65, "frequency": 349.23, "note_held": 0.4173912000000044, "velocity": 99, "channel": 1}, {"time_played": 62.60868000000054, "midi_note": 65, "frequency": 349.23, "note_held": 0.10434779999999999, "velocity": 122, "channel": 0}, {"time_played": 62.60868000000054, "midi_note": 62, "frequency": 293.66, "note_held": 1.2521736000000203, "velocity": 107, "channel": 1}, {"time_played": 64.17389700000058, "midi_note": 67, "frequency": 392, "note_held": 0.00869565, "velocity": 112, "channel": 0}, {"time_played": 64.17389700000058, "midi_note": 63, "frequency": 311.13, "note_held": 0.834782400000023, "velocity": 97, "channel": 1}, {"time_played": 65.2173750000006, "midi_note": 67, "frequency": 392, "note_held": 0.20869559999999998, "velocity": 111, "channel": 0}, {"time_played": 65.2173750000006, "midi_note": 63, "frequency": 311.13, "note_held": 0.4173911999999973, "velocity": 103, "channel": 1}, {"time_played": 65.7391140000006, "midi_note": 70, "frequency": 466.16, "note_held": 0.10434779999999999, "velocity": 123, "channel": 0}, {"time_played": 65.7391140000006, "midi_note": 67, "frequency": 392, "note_held": 0.6260868000000102, "velocity": 90, "channel": 1}, {"time_played": 66.5217225000006, "midi_note": 69, "frequency": 440, "note_held": 0.07826084999999999, "velocity": 107, "channel": 0}, {"time_played": 66.5217225000006, "midi_note": 63, "frequency": 311.13, "note_held": 0.20869559999999865, "velocity": 100, "channel": 1}, {"time_played": 66.7825920000006, "midi_note": 67, "frequency": 392, "note_held": 0.052173899999999995, "velocity": 103, "channel": 0}, {"time_played": 66.7825920000006, "midi_note": 63, "frequency": 311.13, "note_held": 0.4173912000000115, "velocity": 100, "channel": 1}, {"time_played": 67.30433100000063, "midi_note": 65, "frequency": 349.23, "note_held": 0.00869565, "velocity": 102, "channel": 0}, {"time_played": 67.30433100000063, "midi_note": 62, "frequency": 293.66, "note_held": 0.6260868000000102, "velocity": 96, "channel": 1}, {"time_played": 68.08693950000065, "midi_note": 67, "frequency": 392, "note_held": 0.060869549999999994, "velocity": 108, "channel": 0}, {"time_played": 68.08693950000065, "midi_note": 63, "frequency": 311.13, "note_held": 0.20869560000001286, "velocity": 92, "channel": 1}, {"time_played": 68.34780900000067, "midi_note": 65, "frequency": 349.23, "note_held": 0.052173899999999995, "velocity": 112, "channel": 0}, {"time_played": 68.34780900000067, "midi_note": 62, "frequency": 293.66, "note_held": 0.4173911999999973, "velocity": 104, "channel": 1}, {"time_played": 68.86954800000066, "midi_note": 62, "frequency": 293.66, "note_held": 0.10434779999999999, "velocity": 125, "channel": 0}, {"time_played": 68.86954800000066, "midi_note": 58, "frequency": 233.08, "note_held": 1.2521736000000203, "velocity": 93, "channel": 1}, {"time_played": 70.43476500000068, "midi_note": 67, "frequency": 392, "note_held": 0.00869565, "velocity": 123, "channel": 0}, {"time_played": 70.43476500000068, "midi_note": 63, "frequency": 311.13, "note_held": 0.834782400000023, "velocity": 99, "channel": 1}, {"time_played": 71.4782430000007, "midi_note": 67, "frequency": 392, "note_held": 0.073913025, "velocity": 111, "channel": 0}, {"time_played": 71.4782430000007, "midi_note": 63, "frequency": 311.13, "note_held": 0.4173911999999973, "velocity": 92, "channel": 1}, {"time_played": 71.9999820000007, "midi_note": 70, "frequency": 466.16, "note_held": 0.10434779999999999, "velocity": 113, "channel": 0}, {"time_played": 71.9999820000007, "midi_note": 67, "frequency": 392, "note_held": 0.6260868000000102, "velocity": 104, "channel": 1}, {"time_played": 72.78259050000071, "midi_note": 69, "frequency": 440, "note_held": 0.021739124999999998, "velocity": 109, "channel": 0}, {"time_played": 72.78259050000071, "midi_note": 63, "frequency": 311.13, "note_held": 0.20869560000001286, "velocity": 105, "channel": 1}, {"time_played": 73.04346000000072, "midi_note": 67, "frequency": 392, "note_held": 0.052173899999999995, "velocity": 110, "channel": 0}, {"time_played": 73.04346000000072, "midi_note": 63, "frequency": 311.13, "note_held": 0.4173911999999831, "velocity": 89, "channel": 1}, {"time_played": 73.56519900000072, "midi_note": 65, "frequency": 349.23, "note_held": 0.00869565, "velocity": 107, "channel": 0}, {"time_played": 73.56519900000072, "midi_note": 62, "frequency": 293.66, "note_held": 0.6260868000000102, "velocity": 96, "channel": 1}, {"time_played": 74.34780750000073, "midi_note": 67, "frequency": 392, "note_held": 0.09999997499999999, "velocity": 109, "channel": 0}, {"time_played": 74.34780750000073, "midi_note": 63, "frequency": 311.13, "note_held": 0.20869559999999865, "velocity": 100, "channel": 1}, {"time_played": 74.60867700000072, "midi_note": 65, "frequency": 349.23, "note_held": 0.052173899999999995, "velocity": 105, "channel": 0}, {"time_played": 74.60867700000072, "midi_note": 62, "frequency": 293.66, "note_held": 0.4173911999999973, "velocity": 98, "channel": 1}, {"time_played": 75.13041600000072, "midi_note": 62, "frequency": 293.66, "note_held": 0.10434779999999999, "velocity": 106, "channel": 0}, {"time_played": 75.13041600000072, "midi_note": 58, "frequency": 233.08, "note_held": 1.252173600000006, "velocity": 100, "channel": 1}, {"time_played": 76.69563300000074, "midi_note": 72, "frequency": 523.25, "note_held": 0.00869565, "velocity": 112, "channel": 0}, {"time_played": 76.69563300000074, "midi_note": 69, "frequency": 440, "note_held": 0.8347823999999946, "velocity": 98, "channel": 1}, {"time_played": 77.73911100000073, "midi_note": 72, "frequency": 523.25, "note_held": 0.073913025, "velocity": 114, "channel": 0}, {"time_played": 77.73911100000073, "midi_note": 69, "frequency": 440, "note_held": 0.4173911999999973, "velocity": 104, "channel": 1}, {"time_played": 78.26085000000073, "midi_note": 75, "frequency": 622.25, "note_held": 0.10434779999999999, "velocity": 119, "channel": 0}, {"time_played": 78.26085000000073, "midi_note": 72, "frequency": 523.25, "note_held": 0.6260868000000244, "velocity": 102, "channel": 1}, {"time_played": 79.04345850000075, "midi_note": 72, "frequency": 523.25, "note_held": 0.07826084999999999, "velocity": 111, "channel": 0}, {"time_played": 79.04345850000075, "midi_note": 69, "frequency": 440, "note_held": 0.20869559999999865, "velocity": 92, "channel": 1}, {"time_played": 79.30432800000075, "midi_note": 69, "frequency": 440, "note_held": 0.052173899999999995, "velocity": 106, "channel": 0}, {"time_played": 79.30432800000075, "midi_note": 63, "frequency": 311.13, "note_held": 0.4173912000000115, "velocity": 100, "channel": 1}, {"time_played": 79.82606700000076, "midi_note": 70, "frequency": 466.16, "note_held": 0.013043474999999999, "velocity": 110, "channel": 0}, {"time_played": 79.82606700000076, "midi_note": 65, "frequency": 349.23, "note_held": 1.252173600000006, "velocity": 95, "channel": 1}, {"time_played": 81.39128400000077, "midi_note": 74, "frequency": 587.33, "note_held": 0.004347825, "velocity": 101, "channel": 0}, {"time_played": 81.39128400000077, "midi_note": 70, "frequency": 466.16, "note_held": 1.252173599999992, "velocity": 88, "channel": 1}, {"time_played": 82.95650100000077, "midi_note": 70, "frequency": 466.16, "note_held": 0.013043474999999999, "velocity": 116, "channel": 0}, {"time_played": 82.95650100000077, "midi_note": 65, "frequency": 349.23, "note_held": 0.4173911999999973, "velocity": 106, "channel": 1}, {"time_played": 83.47824000000077, "midi_note": 65, "frequency": 349.23, "note_held": 0.10434779999999999, "velocity": 109, "channel": 0}, {"time_played": 83.47824000000077, "midi_note": 62, "frequency": 293.66, "note_held": 0.4173912000000115, "velocity": 96, "channel": 1}, {"time_played": 83.99997900000078, "midi_note": 62, "frequency": 293.66, "note_held": 0.10434779999999999, "velocity": 117, "channel": 0}, {"time_played": 83.99997900000078, "midi_note": 58, "frequency": 233.08, "note_held": 0.4173911999999973, "velocity": 108, "channel": 1}, {"time_played": 84.52171800000077, "midi_note": 65, "frequency": 349.23, "note_held": 0.10434779999999999, "velocity": 109, "channel": 0}, {"time_played": 84.52171800000077, "midi_note": 60, "frequency": 261.63, "note_held": 0.6260868000000102, "velocity": 102, "channel": 1}, {"time_played": 85.3043265000008, "midi_note": 63, "frequency": 311.13, "note_held": 0.060869549999999994, "velocity": 114, "channel": 0}, {"time_played": 85.3043265000008, "midi_note": 60, "frequency": 261.63, "note_held": 0.20869559999999865, "velocity": 99, "channel": 1}, {"time_played": 85.5651960000008, "midi_note": 60, "frequency": 261.63, "note_held": 0.052173899999999995, "velocity": 109, "channel": 0}, {"time_played": 85.5651960000008, "midi_note": 57, "frequency": 220, "note_held": 0.4173911999999973, "velocity": 94, "channel": 1}, {"time_played": 86.08693500000079, "midi_note": 58, "frequency": 233.08, "note_held": 0.10434779999999999, "velocity": 109, "channel": 0}, {"time_played": 86.08693500000079, "midi_note": 53, "frequency": 174.61, "note_held": 3.0608688000000654, "velocity": 91, "channel": 1}, {"time_played": 89.21736900000086, "midi_note": 70, "frequency": 466.16, "note_held": 0.056521724999999995, "velocity": 110, "channel": 0}, {"time_played": 89.21736900000086, "midi_note": 65, "frequency": 349.23, "note_held": 0.4173911999999973, "velocity": 101, "channel": 1}, {"time_played": 89.73910800000085, "midi_note": 65, "frequency": 349.23, "note_held": 0.013043474999999999, "velocity": 110, "channel": 0}, {"time_played": 89.73910800000085, "midi_note": 62, "frequency": 293.66, "note_held": 0.4173912000000257, "velocity": 99, "channel": 1}, {"time_played": 90.26084700000088, "midi_note": 62, "frequency": 293.66, "note_held": 0.004347825, "velocity": 111, "channel": 0}, {"time_played": 90.26084700000088, "midi_note": 58, "frequency": 233.08, "note_held": 0.4173911999999973, "velocity": 101, "channel": 1}, {"time_played": 90.78258600000088, "midi_note": 65, "frequency": 349.23, "note_held": 0.10434779999999999, "velocity": 122, "channel": 0}, {"time_played": 90.78258600000088, "midi_note": 60, "frequency": 261.63, "note_held": 0.6260868000000244, "velocity": 86, "channel": 1}, {"time_played": 91.5651945000009, "midi_note": 63, "frequency": 311.13, "note_held": 0.08260867499999999, "velocity": 104, "channel": 0}, {"time_played": 91.5651945000009, "midi_note": 60, "frequency": 261.63, "note_held": 0.20869559999999865, "velocity": 88, "channel": 1}, {"time_played": 91.8260640000009, "midi_note": 60, "frequency": 261.63, "note_held": 0.052173899999999995, "velocity": 120, "channel": 0}, {"time_played": 91.8260640000009, "midi_note": 57, "frequency": 220, "note_held": 0.4173911999999973, "velocity": 109, "channel": 1}, {"time_played": 92.3478030000009, "midi_note": 58, "frequency": 233.08, "note_held": 0.10434779999999999, "velocity": 100, "channel": 0}, {"time_played": 92.3478030000009, "midi_note": 53, "frequency": 174.61, "note_held": 0.8347823999999946, "velocity": 86, "channel": 1}, {"time_played": 93.3912810000009, "midi_note": 62, "frequency": 293.66, "note_held": 0.030434774999999997, "velocity": 118, "channel": 0}, {"time_played": 93.3912810000009, "midi_note": 58, "frequency": 233.08, "note_held": 0.20869559999999865, "velocity": 105, "channel": 1}, {"time_played": 93.6521505000009, "midi_note": 65, "frequency": 349.23, "note_held": 0.052173899999999995, "velocity": 96, "channel": 0}, {"time_played": 93.6521505000009, "midi_note": 62, "frequency": 293.66, "note_held": 0.20869559999999865, "velocity": 99, "channel": 1}, {"time_played": 93.9130200000009, "midi_note": 70, "frequency": 466.16, "note_held": 0.0173913, "velocity": 120, "channel": 0}, {"time_played": 93.9130200000009, "midi_note": 65, "frequency": 349.23, "note_held": 1.4782605000000189, "velocity": 99, "channel": 1}, {"time_played": 95.47823700000093, "midi_note": 65, "frequency": 349.23, "note_held": 0.00869565, "velocity": 102, "channel": 0}, {"time_played": 95.47823700000093, "midi_note": 62, "frequency": 293.66, "note_held": 0.6260868000000102, "velocity": 103, "channel": 1}, {"time_played": 96.26084550000094, "midi_note": 67, "frequency": 392, "note_held": 0.08260867499999999, "velocity": 108, "channel": 0}, {"time_played": 96.26084550000094, "midi_note": 63, "frequency": 311.13, "note_held": 0.20869559999999865, "velocity": 100, "channel": 1}, {"time_played": 96.52171500000094, "midi_note": 65, "frequency": 349.23, "note_held": 0.052173899999999995, "velocity": 122, "channel": 0}, {"time_played": 96.52171500000094, "midi_note": 62, "frequency": 293.66, "note_held": 0.4173911999999973, "velocity": 102, "channel": 1}, {"time_played": 97.04345400000093, "midi_note": 62, "frequency": 293.66, "note_held": 0.10434779999999999, "velocity": 107, "channel": 0}, {"time_played": 97.04345400000093, "midi_note": 58, "frequency": 233.08, "note_held": 1.2521736000000203, "velocity": 86, "channel": 1}, {"time_played": 98.60867100000097, "midi_note": 65, "frequency": 349.23, "note_held": 0.00869565, "velocity": 120, "channel": 0}, {"time_played": 98.60867100000097, "midi_note": 62, "frequency": 293.66, "note_held": 0.6260868000000102, "velocity": 103, "channel": 1}, {"time_played": 99.39127950000098, "midi_note": 67, "frequency": 392, "note_held": 0.08260867499999999, "velocity": 107, "channel": 0}, {"time_played": 99.39127950000098, "midi_note": 63, "frequency": 311.13, "note_held": 0.20869559999999865, "velocity": 92, "channel": 1}, {"time_played": 99.65214900000097, "midi_note": 65, "frequency": 349.23, "note_held": 0.052173899999999995, "velocity": 111, "channel": 0}, {"time_played": 99.65214900000097, "midi_note": 62, "frequency": 293.66, "note_held": 0.4173911999999973, "velocity": 100, "channel": 1}, {"time_played": 100.17388800000097, "midi_note": 62, "frequency": 293.66, "note_held": 0.10434779999999999, "velocity": 117, "channel": 0}, {"time_played": 100.17388800000097, "midi_note": 58, "frequency": 233.08, "note_held": 1.2521736000000203, "velocity": 100, "channel": 1}, {"time_played": 101.739105000001, "midi_note": 72, "frequency": 523.25, "note_held": 0.00869565, "velocity": 111, "channel": 0}, {"time_played": 101.739105000001, "midi_note": 69, "frequency": 440, "note_held": 0.8347824000000372, "velocity": 85, "channel": 1}, {"time_played": 102.78258300000104, "midi_note": 72, "frequency": 523.25, "note_held": 0.20869559999999998, "velocity": 106, "channel": 0}, {"time_played": 102.78258300000104, "midi_note": 69, "frequency": 440, "note_held": 0.4173911999999973, "velocity": 100, "channel": 1}, {"time_played": 103.30432200000104, "midi_note": 69, "frequency": 440, "note_held": 0.10434779999999999, "velocity": 110, "channel": 0}, {"time_played": 103.30432200000104, "midi_note": 63, "frequency": 311.13, "note_held": 1.252173600000006, "velocity": 107, "channel": 1}, {"time_played": 104.86953900000104, "midi_note": 70, "frequency": 466.16, "note_held": 0.00869565, "velocity": 116, "channel": 0}, {"time_played": 104.86953900000104, "midi_note": 65, "frequency": 349.23, "note_held": 0.8347824000000088, "velocity": 112, "channel": 1}, {"time_played": 105.91301700000106, "midi_note": 70, "frequency": 466.16, "note_held": 0.11304344999999999, "velocity": 109, "channel": 0}, {"time_played": 105.91301700000106, "midi_note": 65, "frequency": 349.23, "note_held": 0.4173911999999973, "velocity": 110, "channel": 1}, {"time_played": 106.43475600000106, "midi_note": 65, "frequency": 349.23, "note_held": 0.10434779999999999, "velocity": 104, "channel": 0}, {"time_played": 106.43475600000106, "midi_note": 62, "frequency": 293.66, "note_held": 1.404347475000037, "velocity": 109, "channel": 1}, {"time_played": 107.9999730000011, "midi_note": 67, "frequency": 392, "note_held": 0.00869565, "velocity": 111, "channel": 0}, {"time_played": 107.9999730000011, "midi_note": 63, "frequency": 311.13, "note_held": 0.8347824000000088, "velocity": 100, "channel": 1}, {"time_played": 109.04345100000111, "midi_note": 67, "frequency": 392, "note_held": 0.20869559999999998, "velocity": 109, "channel": 0}, {"time_played": 109.04345100000111, "midi_note": 63, "frequency": 311.13, "note_held": 0.4173911999999973, "velocity": 89, "channel": 1}, {"time_played": 109.56519000000111, "midi_note": 70, "frequency": 466.16, "note_held": 0.10434779999999999, "velocity": 106, "channel": 0}, {"time_played": 109.56519000000111, "midi_note": 67, "frequency": 392, "note_held": 0.6260868000000102, "velocity": 107, "channel": 1}, {"time_played": 110.34779850000112, "midi_note": 69, "frequency": 440, "note_held": 0.07826084999999999, "velocity": 122, "channel": 0}, {"time_played": 110.34779850000112, "midi_note": 63, "frequency": 311.13, "note_held": 0.20869559999999865, "velocity": 92, "channel": 1}, {"time_played": 110.60866800000112, "midi_note": 67, "frequency": 392, "note_held": 0.052173899999999995, "velocity": 110, "channel": 0}, {"time_played": 110.60866800000112, "midi_note": 63, "frequency": 311.13, "note_held": 0.4173912000000115, "velocity": 95, "channel": 1}, {"time_played": 111.13040700000114, "midi_note": 65, "frequency": 349.23, "note_held": 0.00869565, "velocity": 110, "channel": 0}, {"time_played": 111.13040700000114, "midi_note": 62, "frequency": 293.66, "note_held": 0.6260868000000102, "velocity": 114, "channel": 1}, {"time_played": 111.91301550000115, "midi_note": 67, "frequency": 392, "note_held": 0.08260867499999999, "velocity": 103, "channel": 0}, {"time_played": 111.91301550000115, "midi_note": 63, "frequency": 311.13, "note_held": 0.20869559999999865, "velocity": 95, "channel": 1}, {"time_played": 112.17388500000115, "midi_note": 65, "frequency": 349.23, "note_held": 0.052173899999999995, "velocity": 108, "channel": 0}, {"time_played": 112.17388500000115, "midi_note": 62, "frequency": 293.66, "note_held": 0.4173911999999973, "velocity": 96, "channel": 1}, {"time_played": 112.69562400000115, "midi_note": 62, "frequency": 293.66, "note_held": 0.10434779999999999, "velocity": 124, "channel": 0}, {"time_played": 112.69562400000115, "midi_note": 58, "frequency": 233.08, "note_held": 1.2521736000000203, "velocity": 100, "channel": 1}, {"time_played": 114.26084100000118, "midi_note": 67, "frequency": 392, "note_held": 0.00869565, "velocity": 123, "channel": 0}, {"time_played": 114.26084100000118, "midi_note": 63, "frequency": 311.13, "note_held": 0.8347824000000088, "velocity": 99, "channel": 1}, {"time_played": 115.30431900000119, "midi_note": 67, "frequency": 392, "note_held": 0.073913025, "velocity": 110, "channel": 0}, {"time_played": 115.30431900000119, "midi_note": 63, "frequency": 311.13, "note_held": 0.4173911999999973, "velocity": 96, "channel": 1}, {"time_played": 115.82605800000118, "midi_note": 70, "frequency": 466.16, "note_held": 0.10434779999999999, "velocity": 113, "channel": 0}, {"time_played": 115.82605800000118, "midi_note": 67, "frequency": 392, "note_held": 0.6260868000000102, "velocity": 90, "channel": 1}, {"time_played": 116.60866650000119, "midi_note": 69, "frequency": 440, "note_held": 0.07826084999999999, "velocity": 106, "channel": 0}, {"time_played": 116.60866650000119, "midi_note": 63, "frequency": 311.13, "note_held": 0.20869559999999865, "velocity": 114, "channel": 1}, {"time_played": 116.86953600000119, "midi_note": 67, "frequency": 392, "note_held": 0.052173899999999995, "velocity": 117, "channel": 0}, {"time_played": 116.86953600000119, "midi_note": 63, "frequency": 311.13, "note_held": 0.4173912000000115, "velocity": 100, "channel": 1}, {"time_played": 117.39127500000122, "midi_note": 65, "frequency": 349.23, "note_held": 0.00869565, "velocity": 106, "channel": 0}, {"time_played": 117.39127500000122, "midi_note": 62, "frequency": 293.66, "note_held": 0.6260868000000244, "velocity": 99, "channel": 1}, {"time_played": 118.17388350000124, "midi_note": 67, "frequency": 392, "note_held": 0.10434779999999999, "velocity": 123, "channel": 0}, {"time_played": 118.17388350000124, "midi_note": 63, "frequency": 311.13, "note_held": 0.20869559999999865, "velocity": 104, "channel": 1}, {"time_played": 118.43475300000124, "midi_note": 65, "frequency": 349.23, "note_held": 0.052173899999999995, "velocity": 122, "channel": 0}, {"time_played": 118.43475300000124, "midi_note": 62, "frequency": 293.66, "note_held": 0.4173911999999973, "velocity": 99, "channel": 1}, {"time_played": 118.95649200000123, "midi_note": 62, "frequency": 293.66, "note_held": 0.10434779999999999, "velocity": 116, "channel": 0}, {"time_played": 118.95649200000123, "midi_note": 58, "frequency": 233.08, "note_held": 1.252173599999992, "velocity": 106, "channel": 1}, {"time_played": 120.52170900000122, "midi_note": 72, "frequency": 523.25, "note_held": 0.00869565, "velocity": 100, "channel": 0}, {"time_played": 120.52170900000122, "midi_note": 69, "frequency": 440, "note_held": 0.8347823999999946, "velocity": 88, "channel": 1}, {"time_played": 121.56518700000125, "midi_note": 72, "frequency": 523.25, "note_held": 0.030434774999999997, "velocity": 105, "channel": 0}, {"time_played": 121.56518700000125, "midi_note": 69, "frequency": 440, "note_held": 0.4173911999999973, "velocity": 86, "channel": 1}, {"time_played": 122.08692600000126, "midi_note": 75, "frequency": 622.25, "note_held": 0.0173913, "velocity": 115, "channel": 0}, {"time_played": 122.08692600000126, "midi_note": 72, "frequency": 523.25, "note_held": 0.626086799999996, "velocity": 93, "channel": 1}, {"time_played": 122.86953450000125, "midi_note": 72, "frequency": 523.25, "note_held": 0.07826084999999999, "velocity": 110, "channel": 0}, {"time_played": 122.86953450000125, "midi_note": 69, "frequency": 440, "note_held": 0.20869559999999865, "velocity": 101, "channel": 1}, {"time_played": 123.13040400000125, "midi_note": 69, "frequency": 440, "note_held": 0.052173899999999995, "velocity": 106, "channel": 0}, {"time_played": 123.13040400000125, "midi_note": 63, "frequency": 311.13, "note_held": 0.4173912000000257, "velocity": 100, "channel": 1}, {"time_played": 123.65214300000127, "midi_note": 70, "frequency": 466.16, "note_held": 0.013043474999999999, "velocity": 118, "channel": 0}, {"time_played": 123.65214300000127, "midi_note": 65, "frequency": 349.23, "note_held": 1.252173599999992, "velocity": 96, "channel": 1}, {"time_played": 125.21736000000126, "midi_note": 74, "frequency": 587.33, "note_held": 0.31304339999999997, "velocity": 110, "channel": 0}, {"time_played": 125.21736000000126, "midi_note": 70, "frequency": 466.16, "note_held": 1.2521736000000203, "velocity": 101, "channel": 1}, {"time_played": 126.7825770000013, "midi_note": 70, "frequency": 466.16, "note_held": 0.013043474999999999, "velocity": 119, "channel": 0}, {"time_played": 126.7825770000013, "midi_note": 65, "frequency": 349.23, "note_held": 0.4173912000000115, "velocity": 102, "channel": 1}, {"time_played": 127.30431600000131, "midi_note": 65, "frequency": 349.23, "note_held": 0.004347825, "velocity": 116, "channel": 0}, {"time_played": 127.30431600000131, "midi_note": 62, "frequency": 293.66, "note_held": 0.4173912000000115, "velocity": 102, "channel": 1}, {"time_played": 127.82605500000132, "midi_note": 62, "frequency": 293.66, "note_held": 0.10434779999999999, "velocity": 110, "channel": 0}, {"time_played": 127.82605500000132, "midi_note": 58, "frequency": 233.08, "note_held": 0.4173912000000115, "velocity": 99, "channel": 1}, {"time_played": 128.34779400000133, "midi_note": 65, "frequency": 349.23, "note_held": 0.10434779999999999, "velocity": 121, "channel": 0}, {"time_played": 128.34779400000133, "midi_note": 60, "frequency": 261.63, "note_held": 0.626086799999996, "velocity": 107, "channel": 1}, {"time_played": 129.1304025000013, "midi_note": 63, "frequency": 311.13, "note_held": 0.08260867499999999, "velocity": 113, "channel": 0}, {"time_played": 129.1304025000013, "midi_note": 60, "frequency": 261.63, "note_held": 0.20869559999999865, "velocity": 92, "channel": 1}, {"time_played": 129.39127200000132, "midi_note": 60, "frequency": 261.63, "note_held": 0.052173899999999995, "velocity": 97, "channel": 0}, {"time_played": 129.39127200000132, "midi_note": 57, "frequency": 220, "note_held": 0.4173911999999973, "velocity": 101, "channel": 1}, {"time_played": 129.91301100000132, "midi_note": 58, "frequency": 233.08, "note_held": 0.10434779999999999, "velocity": 100, "channel": 0}, {"time_played": 129.91301100000132, "midi_note": 53, "frequency": 174.61, "note_held": 3.052173149999959, "velocity": 108, "channel": 1}, {"time_played": 133.04344500000127, "midi_note": 63, "frequency": 311.13, "note_held": 0.056521724999999995, "velocity": 111, "channel": 0}, {"time_played": 133.04344500000127, "midi_note": 58, "frequency": 233.08, "note_held": 3.0173905499999307, "velocity": 109, "channel": 1}, {"time_played": 136.1738790000012, "midi_note": 62, "frequency": 293.66, "note_held": 0.056521724999999995, "velocity": 110, "channel": 0}, {"time_played": 136.1738790000012, "midi_note": 58, "frequency": 233.08, "note_held": 3.0521731500000158, "velocity": 106, "channel": 1}]