[{"time_played": 0.0032552148437499998, "midi_note": 38, "frequency": 73.42, "note_held": 0.9964212636718749, "velocity": 53, "channel": 0}, {"time_played": 0.0032552148437499998, "midi_note": 50, "frequency": 146.83, "note_held": 0.9964212636718749, "velocity": 68, "channel": 0}, {"time_played": 0.34179755859375, "midi_note": 62, "frequency": 293.66, "note_held": 0.031250062499999995, "velocity": 55, "channel": 0}, {"time_played": 0.34179755859375, "midi_note": 65, "frequency": 349.23, "note_held": 0.330404306640625, "velocity": 55, "channel": 0}, {"time_played": 0.34179755859375, "midi_note": 69, "frequency": 440, "note_held": 0.330404306640625, "velocity": 65, "channel": 0}, {"time_played": 0.67252738671875, "midi_note": 62, "frequency": 293.66, "note_held": 0.00032552148437499996, "velocity": 57, "channel": 0}, {"time_played": 0.67252738671875, "midi_note": 65, "frequency": 349.23, "note_held": 0.3271490917968749, "velocity": 57, "channel": 0}, {"time_played": 0.67252738671875, "midi_note": 69, "frequency": 440, "note_held": 0.3271490917968749, "velocity": 67, "channel": 0}, {"time_played": 1.0013040859375, "midi_note": 40, "frequency": 82.41, "note_held": 0.0016276074218749999, "velocity": 53, "channel": 0}, {"time_played": 1.0013040859375, "midi_note": 52, "frequency": 164.81, "note_held": 0.9983743925781248, "velocity": 68, "channel": 0}, {"time_played": 1.1770856875, "midi_note": 64, "frequency": 329.63, "note_held": 0.17578160156249997, "velocity": 62, "channel": 0}, {"time_played": 1.3417995585937499, "midi_note": 67, "frequency": 392, "note_held": 0.16471387109375, "velocity": 54, "channel": 0}, {"time_played": 1.3417995585937499, "midi_note": 71, "frequency": 493.88, "note_held": 0.6578789199218749, "velocity": 68, "channel": 0}, {"time_played": 2.0013060859375, "midi_note": 41, "frequency": 87.31, "note_held": 0.0016276074218749999, "velocity": 54, "channel": 0}, {"time_played": 2.0013060859375, "midi_note": 53, "frequency": 174.61, "note_held": 0.9983743925781248, "velocity": 68, "channel": 0}, {"time_played": 2.3418015585937497, "midi_note": 65, "frequency": 349.23, "note_held": 0.34049547265624996, "velocity": 55, "channel": 0}, {"time_played": 2.3418015585937497, "midi_note": 69, "frequency": 440, "note_held": 0.33040430664062503, "velocity": 55, "channel": 0}, {"time_played": 2.3418015585937497, "midi_note": 72, "frequency": 523.25, "note_held": 0.33040430664062503, "velocity": 69, "channel": 0}, {"time_played": 2.6725313867187497, "midi_note": 65, "frequency": 349.23, "note_held": 0.00032552148437499996, "velocity": 57, "channel": 0}, {"time_played": 2.6725313867187497, "midi_note": 69, "frequency": 440, "note_held": 0.3271490917968749, "velocity": 57, "channel": 0}, {"time_played": 2.6725313867187497, "midi_note": 72, "frequency": 523.25, "note_held": 0.3271490917968749, "velocity": 67, "channel": 0}, {"time_played": 3.0013080859374996, "midi_note": 40, "frequency": 82.41, "note_held": 0.0016276074218749999, "velocity": 53, "channel": 0}, {"time_played": 3.0013080859374996, "midi_note": 52, "frequency": 164.81, "note_held": 0.9983743925781248, "velocity": 68, "channel": 0}, {"time_played": 3.1770896874999996, "midi_note": 64, "frequency": 329.63, "note_held": 0.17578160156249997, "velocity": 62, "channel": 0}, {"time_played": 3.3418035585937496, "midi_note": 67, "frequency": 392, "note_held": 0.16471387109375, "velocity": 54, "channel": 0}, {"time_played": 3.3418035585937496, "midi_note": 71, "frequency": 493.88, "note_held": 0.6578789199218749, "velocity": 68, "channel": 0}, {"time_played": 4.001310085937499, "midi_note": 38, "frequency": 73.42, "note_held": 0.0016276074218749999, "velocity": 53, "channel": 0}, {"time_played": 4.001310085937499, "midi_note": 50, "frequency": 146.83, "note_held": 0.9983743925781248, "velocity": 68, "channel": 0}, {"time_played": 4.341805558593749, "midi_note": 62, "frequency": 293.66, "note_held": 0.34049547265624996, "velocity": 55, "channel": 0}, {"time_played": 4.341805558593749, "midi_note": 65, "frequency": 349.23, "note_held": 0.3304043066406246, "velocity": 55, "channel": 0}, {"time_played": 4.341805558593749, "midi_note": 69, "frequency": 440, "note_held": 0.3304043066406246, "velocity": 69, "channel": 0}, {"time_played": 4.6725353867187485, "midi_note": 62, "frequency": 293.66, "note_held": 0.00032552148437499996, "velocity": 57, "channel": 0}, {"time_played": 4.6725353867187485, "midi_note": 65, "frequency": 349.23, "note_held": 0.32714909179687535, "velocity": 57, "channel": 0}, {"time_played": 4.6725353867187485, "midi_note": 69, "frequency": 440, "note_held": 0.32714909179687535, "velocity": 67, "channel": 0}, {"time_played": 5.001312085937498, "midi_note": 40, "frequency": 82.41, "note_held": 0.0016276074218749999, "velocity": 53, "channel": 0}, {"time_played": 5.001312085937498, "midi_note": 52, "frequency": 164.81, "note_held": 0.9983743925781248, "velocity": 68, "channel": 0}, {"time_played": 5.177093687499998, "midi_note": 64, "frequency": 329.63, "note_held": 0.17578160156249997, "velocity": 62, "channel": 0}, {"time_played": 5.341807558593748, "midi_note": 67, "frequency": 392, "note_held": 0.16471387109375, "velocity": 54, "channel": 0}, {"time_played": 5.341807558593748, "midi_note": 71, "frequency": 493.88, "note_held": 0.6578789199218749, "velocity": 68, "channel": 0}, {"time_played": 6.001314085937498, "midi_note": 41, "frequency": 87.31, "note_held": 0.0016276074218749999, "velocity": 54, "channel": 0}, {"time_played": 6.001314085937498, "midi_note": 53, "frequency": 174.61, "note_held": 0.9983743925781248, "velocity": 68, "channel": 0}, {"time_played": 6.341809558593748, "midi_note": 65, "frequency": 349.23, "note_held": 0.34049547265624996, "velocity": 60, "channel": 0}, {"time_played": 6.341809558593748, "midi_note": 69, "frequency": 440, "note_held": 0.3304043066406246, "velocity": 60, "channel": 0}, {"time_played": 6.341809558593748, "midi_note": 72, "frequency": 523.25, "note_held": 0.3304043066406246, "velocity": 74, "channel": 0}, {"time_played": 6.672539386718747, "midi_note": 65, "frequency": 349.23, "note_held": 0.00032552148437499996, "velocity": 67, "channel": 0}, {"time_played": 6.672539386718747, "midi_note": 69, "frequency": 440, "note_held": 0.32714909179687535, "velocity": 67, "channel": 0}, {"time_played": 6.672539386718747, "midi_note": 72, "frequency": 523.25, "note_held": 0.32714909179687535, "velocity": 77, "channel": 0}, {"time_played": 7.001316085937497, "midi_note": 40, "frequency": 82.41, "note_held": 0.0016276074218749999, "velocity": 67, "channel": 0}, {"time_played": 7.001316085937497, "midi_note": 52, "frequency": 164.81, "note_held": 0.9983743925781248, "velocity": 82, "channel": 0}, {"time_played": 7.177097687499997, "midi_note": 64, "frequency": 329.63, "note_held": 0.17578160156249997, "velocity": 87, "channel": 0}, {"time_played": 7.341811558593747, "midi_note": 67, "frequency": 392, "note_held": 0.16471387109375, "velocity": 94, "channel": 0}, {"time_played": 7.341811558593747, "midi_note": 71, "frequency": 493.88, "note_held": 0.6578789199218749, "velocity": 108, "channel": 0}, {"time_played": 8.001318085937497, "midi_note": 62, "frequency": 293.66, "note_held": 0.0013020859374999999, "velocity": 102, "channel": 0}, {"time_played": 8.001318085937497, "midi_note": 38, "frequency": 73.42, "note_held": 0.340169951171875, "velocity": 89, "channel": 0}, {"time_played": 8.001318085937497, "midi_note": 50, "frequency": 146.83, "note_held": 0.340169951171875, "velocity": 104, "channel": 0}, {"time_played": 8.177099687499997, "midi_note": 65, "frequency": 349.23, "note_held": 0.17578160156249997, "velocity": 102, "channel": 0}, {"time_played": 8.341813558593747, "midi_note": 50, "frequency": 146.83, "note_held": 0.3304043066406255, "velocity": 86, "channel": 0}, {"time_played": 8.341813558593747, "midi_note": 53, "frequency": 174.61, "note_held": 0.3304043066406255, "velocity": 86, "channel": 0}, {"time_played": 8.341813558593747, "midi_note": 57, "frequency": 220, "note_held": 0.3304043066406255, "velocity": 100, "channel": 0}, {"time_played": 8.341813558593747, "midi_note": 74, "frequency": 587.33, "note_held": 0.00032552148437499996, "velocity": 102, "channel": 0}, {"time_played": 8.672543386718749, "midi_note": 50, "frequency": 146.83, "note_held": 0.00032552148437499996, "velocity": 88, "channel": 0}, {"time_played": 8.672543386718749, "midi_note": 53, "frequency": 174.61, "note_held": 0.32714909179687446, "velocity": 88, "channel": 0}, {"time_played": 8.672543386718749, "midi_note": 57, "frequency": 220, "note_held": 0.32714909179687446, "velocity": 98, "channel": 0}, {"time_played": 9.001320085937499, "midi_note": 40, "frequency": 82.41, "note_held": 0.16569043554687468, "velocity": 97, "channel": 0}, {"time_played": 9.001320085937499, "midi_note": 62, "frequency": 293.66, "note_held": 0.0016276074218749999, "velocity": 102, "channel": 0}, {"time_played": 9.177101687499999, "midi_note": 52, "frequency": 164.81, "note_held": 0.16438834960937498, "velocity": 93, "channel": 0}, {"time_played": 9.177101687499999, "midi_note": 65, "frequency": 349.23, "note_held": 0.010091166015624998, "velocity": 102, "channel": 0}, {"time_played": 9.34181555859375, "midi_note": 52, "frequency": 164.81, "note_held": 0.6578789199218757, "velocity": 85, "channel": 0}, {"time_played": 9.34181555859375, "midi_note": 55, "frequency": 196, "note_held": 0.6578789199218757, "velocity": 85, "channel": 0}, {"time_played": 9.34181555859375, "midi_note": 59, "frequency": 246.94, "note_held": 0.6578789199218757, "velocity": 99, "channel": 0}, {"time_played": 9.34181555859375, "midi_note": 74, "frequency": 587.33, "note_held": 0.00032552148437499996, "velocity": 102, "channel": 0}, {"time_played": 10.0013220859375, "midi_note": 41, "frequency": 87.31, "note_held": 0.340169951171875, "velocity": 90, "channel": 0}, {"time_played": 10.0013220859375, "midi_note": 53, "frequency": 174.61, "note_held": 0.340169951171875, "velocity": 104, "channel": 0}, {"time_played": 10.0013220859375, "midi_note": 76, "frequency": 659.25, "note_held": 0.0016276074218749999, "velocity": 102, "channel": 0}, {"time_played": 10.341817558593752, "midi_note": 53, "frequency": 174.61, "note_held": 0.00032552148437499996, "velocity": 86, "channel": 0}, {"time_played": 10.341817558593752, "midi_note": 57, "frequency": 220, "note_held": 0.3304043066406255, "velocity": 86, "channel": 0}, {"time_played": 10.341817558593752, "midi_note": 60, "frequency": 261.63, "note_held": 0.3304043066406255, "velocity": 100, "channel": 0}, {"time_played": 10.507507994140626, "midi_note": 77, "frequency": 698.46, "note_held": 0.165690435546875, "velocity": 102, "channel": 0}, {"time_played": 10.672547386718753, "midi_note": 76, "frequency": 659.25, "note_held": 0.00032552148437499996, "velocity": 102, "channel": 0}, {"time_played": 10.672547386718753, "midi_note": 53, "frequency": 174.61, "note_held": 0.32714909179687623, "velocity": 88, "channel": 0}, {"time_played": 10.672547386718753, "midi_note": 57, "frequency": 220, "note_held": 0.32714909179687623, "velocity": 88, "channel": 0}, {"time_played": 10.672547386718753, "midi_note": 60, "frequency": 261.63, "note_held": 0.32714909179687623, "velocity": 98, "channel": 0}, {"time_played": 10.835633650390628, "midi_note": 77, "frequency": 698.46, "note_held": 0.143554974609375, "velocity": 102, "channel": 0}, {"time_played": 11.001324085937505, "midi_note": 40, "frequency": 82.41, "note_held": 0.16569043554687468, "velocity": 97, "channel": 0}, {"time_played": 11.001324085937505, "midi_note": 76, "frequency": 659.25, "note_held": 0.0016276074218749999, "velocity": 102, "channel": 0}, {"time_played": 11.177105687500005, "midi_note": 52, "frequency": 164.81, "note_held": 0.16438834960937498, "velocity": 93, "channel": 0}, {"time_played": 11.177105687500005, "midi_note": 72, "frequency": 523.25, "note_held": 0.010091166015624998, "velocity": 102, "channel": 0}, {"time_played": 11.341819558593755, "midi_note": 69, "frequency": 440, "note_held": 0.00032552148437499996, "velocity": 102, "channel": 0}, {"time_played": 11.341819558593755, "midi_note": 52, "frequency": 164.81, "note_held": 0.6578789199218757, "velocity": 85, "channel": 0}, {"time_played": 11.341819558593755, "midi_note": 55, "frequency": 196, "note_held": 0.6578789199218757, "velocity": 85, "channel": 0}, {"time_played": 11.341819558593755, "midi_note": 59, "frequency": 246.94, "note_held": 0.6578789199218757, "velocity": 99, "channel": 0}, {"time_played": 12.001326085937507, "midi_note": 34, "frequency": 58.27, "note_held": 0.340169951171875, "velocity": 88, "channel": 0}, {"time_played": 12.001326085937507, "midi_note": 46, "frequency": 116.54, "note_held": 0.340169951171875, "velocity": 104, "channel": 0}, {"time_played": 12.001326085937507, "midi_note": 69, "frequency": 440, "note_held": 0.0016276074218749999, "velocity": 102, "channel": 0}, {"time_played": 12.341821558593757, "midi_note": 46, "frequency": 116.54, "note_held": 0.3304043066406255, "velocity": 86, "channel": 0}, {"time_played": 12.341821558593757, "midi_note": 50, "frequency": 146.83, "note_held": 0.3304043066406255, "velocity": 86, "channel": 0}, {"time_played": 12.341821558593757, "midi_note": 53, "frequency": 174.61, "note_held": 0.3304043066406255, "velocity": 100, "channel": 0}, {"time_played": 12.341821558593757, "midi_note": 62, "frequency": 293.66, "note_held": 0.00032552148437499996, "velocity": 102, "channel": 0}, {"time_played": 12.672551386718759, "midi_note": 65, "frequency": 349.23, "note_held": 0.00032552148437499996, "velocity": 102, "channel": 0}, {"time_played": 12.672551386718759, "midi_note": 46, "frequency": 116.54, "note_held": 0.32714909179687623, "velocity": 88, "channel": 0}, {"time_played": 12.672551386718759, "midi_note": 50, "frequency": 146.83, "note_held": 0.32714909179687623, "velocity": 88, "channel": 0}, {"time_played": 12.672551386718759, "midi_note": 53, "frequency": 174.61, "note_held": 0.32714909179687623, "velocity": 102, "channel": 0}, {"time_played": 12.835637650390634, "midi_note": 67, "frequency": 392, "note_held": 0.15039092578125, "velocity": 102, "channel": 0}, {"time_played": 13.00132808593751, "midi_note": 29, "frequency": 43.65, "note_held": 0.340169951171875, "velocity": 86, "channel": 0}, {"time_played": 13.00132808593751, "midi_note": 41, "frequency": 87.31, "note_held": 0.340169951171875, "velocity": 104, "channel": 0}, {"time_played": 13.00132808593751, "midi_note": 69, "frequency": 440, "note_held": 0.0016276074218749999, "velocity": 102, "channel": 0}, {"time_played": 13.341823558593761, "midi_note": 41, "frequency": 87.31, "note_held": 0.00032552148437499996, "velocity": 85, "channel": 0}, {"time_played": 13.341823558593761, "midi_note": 48, "frequency": 130.81, "note_held": 0.6682391728515622, "velocity": 85, "channel": 0}, {"time_played": 13.341823558593761, "midi_note": 53, "frequency": 174.61, "note_held": 0.6682391728515622, "velocity": 99, "channel": 0}, {"time_played": 14.011751349609385, "midi_note": 34, "frequency": 58.27, "note_held": 0.34324489257812374, "velocity": 88, "channel": 0}, {"time_played": 14.011751349609385, "midi_note": 46, "frequency": 116.54, "note_held": 0.34324489257812374, "velocity": 104, "channel": 0}, {"time_played": 14.011751349609385, "midi_note": 69, "frequency": 440, "note_held": 0.0016886181640625, "velocity": 102, "channel": 0}, {"time_played": 14.355321763671885, "midi_note": 46, "frequency": 116.54, "note_held": 0.3304043066406255, "velocity": 86, "channel": 0}, {"time_played": 14.355321763671885, "midi_note": 50, "frequency": 146.83, "note_held": 0.3304043066406255, "velocity": 86, "channel": 0}, {"time_played": 14.355321763671885, "midi_note": 53, "frequency": 174.61, "note_held": 0.3304043066406255, "velocity": 100, "channel": 0}, {"time_played": 14.355321763671885, "midi_note": 62, "frequency": 293.66, "note_held": 0.00032552148437499996, "velocity": 102, "channel": 0}, {"time_played": 14.686051591796886, "midi_note": 65, "frequency": 349.23, "note_held": 0.00032552148437499996, "velocity": 102, "channel": 0}, {"time_played": 14.686051591796886, "midi_note": 46, "frequency": 116.54, "note_held": 0.32714909179687623, "velocity": 88, "channel": 0}, {"time_played": 14.686051591796886, "midi_note": 50, "frequency": 146.83, "note_held": 0.32714909179687623, "velocity": 88, "channel": 0}, {"time_played": 14.686051591796886, "midi_note": 53, "frequency": 174.61, "note_held": 0.32714909179687623, "velocity": 102, "channel": 0}, {"time_played": 14.849137855468761, "midi_note": 67, "frequency": 392, "note_held": 0.15039092578125, "velocity": 102, "channel": 0}, {"time_played": 15.014828291015638, "midi_note": 33, "frequency": 55, "note_held": 0.340169951171875, "velocity": 87, "channel": 0}, {"time_played": 15.014828291015638, "midi_note": 45, "frequency": 110, "note_held": 0.340169951171875, "velocity": 104, "channel": 0}, {"time_played": 15.014828291015638, "midi_note": 64, "frequency": 329.63, "note_held": 0.0016276074218749999, "velocity": 97, "channel": 0}, {"time_played": 15.355323763671889, "midi_note": 45, "frequency": 110, "note_held": 0.00032552148437499996, "velocity": 85, "channel": 0}, {"time_played": 15.355323763671889, "midi_note": 49, "frequency": 138.59, "note_held": 0.6578789199218757, "velocity": 85, "channel": 0}, {"time_played": 15.355323763671889, "midi_note": 52, "frequency": 164.81, "note_held": 0.6578789199218757, "velocity": 99, "channel": 0}, {"time_played": 16.014830291015638, "midi_note": 62, "frequency": 293.66, "note_held": 0.0016276074218749999, "velocity": 102, "channel": 0}, {"time_played": 16.014830291015638, "midi_note": 38, "frequency": 73.42, "note_held": 0.3401699511718732, "velocity": 89, "channel": 0}, {"time_played": 16.014830291015638, "midi_note": 50, "frequency": 146.83, "note_held": 0.3401699511718732, "velocity": 104, "channel": 0}, {"time_played": 16.190611892578136, "midi_note": 65, "frequency": 349.23, "note_held": 0.17578160156249997, "velocity": 102, "channel": 0}, {"time_played": 16.355325763671885, "midi_note": 50, "frequency": 146.83, "note_held": 0.3304043066406237, "velocity": 86, "channel": 0}, {"time_played": 16.355325763671885, "midi_note": 53, "frequency": 174.61, "note_held": 0.3304043066406237, "velocity": 86, "channel": 0}, {"time_played": 16.355325763671885, "midi_note": 57, "frequency": 220, "note_held": 0.3304043066406237, "velocity": 100, "channel": 0}, {"time_played": 16.355325763671885, "midi_note": 74, "frequency": 587.33, "note_held": 0.00032552148437499996, "velocity": 102, "channel": 0}, {"time_played": 16.686055591796883, "midi_note": 50, "frequency": 146.83, "note_held": 0.00032552148437499996, "velocity": 88, "channel": 0}, {"time_played": 16.686055591796883, "midi_note": 53, "frequency": 174.61, "note_held": 0.32714909179687623, "velocity": 88, "channel": 0}, {"time_played": 16.686055591796883, "midi_note": 57, "frequency": 220, "note_held": 0.32714909179687623, "velocity": 98, "channel": 0}, {"time_played": 17.014832291015633, "midi_note": 40, "frequency": 82.41, "note_held": 0.16569043554687468, "velocity": 97, "channel": 0}, {"time_played": 17.014832291015633, "midi_note": 62, "frequency": 293.66, "note_held": 0.0016276074218749999, "velocity": 102, "channel": 0}, {"time_played": 17.19061389257813, "midi_note": 52, "frequency": 164.81, "note_held": 0.16438834960937498, "velocity": 93, "channel": 0}, {"time_played": 17.19061389257813, "midi_note": 65, "frequency": 349.23, "note_held": 0.010091166015624998, "velocity": 102, "channel": 0}, {"time_played": 17.35532776367188, "midi_note": 52, "frequency": 164.81, "note_held": 0.657878919921874, "velocity": 85, "channel": 0}, {"time_played": 17.35532776367188, "midi_note": 55, "frequency": 196, "note_held": 0.657878919921874, "velocity": 85, "channel": 0}, {"time_played": 17.35532776367188, "midi_note": 59, "frequency": 246.94, "note_held": 0.657878919921874, "velocity": 99, "channel": 0}, {"time_played": 17.35532776367188, "midi_note": 74, "frequency": 587.33, "note_held": 0.00032552148437499996, "velocity": 102, "channel": 0}, {"time_played": 18.014834291015628, "midi_note": 41, "frequency": 87.31, "note_held": 0.34016995117187676, "velocity": 90, "channel": 0}, {"time_played": 18.014834291015628, "midi_note": 53, "frequency": 174.61, "note_held": 0.34016995117187676, "velocity": 104, "channel": 0}, {"time_played": 18.014834291015628, "midi_note": 76, "frequency": 659.25, "note_held": 0.0016276074218749999, "velocity": 102, "channel": 0}, {"time_played": 18.35532976367188, "midi_note": 53, "frequency": 174.61, "note_held": 0.00032552148437499996, "velocity": 86, "channel": 0}, {"time_played": 18.35532976367188, "midi_note": 57, "frequency": 220, "note_held": 0.3304043066406237, "velocity": 86, "channel": 0}, {"time_played": 18.35532976367188, "midi_note": 60, "frequency": 261.63, "note_held": 0.3304043066406237, "velocity": 100, "channel": 0}, {"time_played": 18.521020199218754, "midi_note": 77, "frequency": 698.46, "note_held": 0.165690435546875, "velocity": 102, "channel": 0}, {"time_played": 18.686059591796877, "midi_note": 76, "frequency": 659.25, "note_held": 0.00032552148437499996, "velocity": 102, "channel": 0}, {"time_played": 18.686059591796877, "midi_note": 53, "frequency": 174.61, "note_held": 0.3271490917968727, "velocity": 88, "channel": 0}, {"time_played": 18.686059591796877, "midi_note": 57, "frequency": 220, "note_held": 0.3271490917968727, "velocity": 88, "channel": 0}, {"time_played": 18.686059591796877, "midi_note": 60, "frequency": 261.63, "note_held": 0.3271490917968727, "velocity": 98, "channel": 0}, {"time_played": 18.849145855468752, "midi_note": 77, "frequency": 698.46, "note_held": 0.143554974609375, "velocity": 102, "channel": 0}, {"time_played": 19.014836291015623, "midi_note": 40, "frequency": 82.41, "note_held": 0.16569043554687468, "velocity": 97, "channel": 0}, {"time_played": 19.014836291015623, "midi_note": 76, "frequency": 659.25, "note_held": 0.0016276074218749999, "velocity": 102, "channel": 0}, {"time_played": 19.19061789257812, "midi_note": 52, "frequency": 164.81, "note_held": 0.16438834960937498, "velocity": 93, "channel": 0}, {"time_played": 19.19061789257812, "midi_note": 72, "frequency": 523.25, "note_held": 0.010091166015624998, "velocity": 102, "channel": 0}, {"time_played": 19.35533176367187, "midi_note": 69, "frequency": 440, "note_held": 0.00032552148437499996, "velocity": 102, "channel": 0}, {"time_played": 19.35533176367187, "midi_note": 52, "frequency": 164.81, "note_held": 0.657878919921874, "velocity": 85, "channel": 0}, {"time_played": 19.35533176367187, "midi_note": 55, "frequency": 196, "note_held": 0.657878919921874, "velocity": 85, "channel": 0}, {"time_played": 19.35533176367187, "midi_note": 59, "frequency": 246.94, "note_held": 0.657878919921874, "velocity": 99, "channel": 0}, {"time_played": 20.014838291015618, "midi_note": 34, "frequency": 58.27, "note_held": 0.34016995117187676, "velocity": 88, "channel": 0}, {"time_played": 20.014838291015618, "midi_note": 46, "frequency": 116.54, "note_held": 0.34016995117187676, "velocity": 104, "channel": 0}, {"time_played": 20.014838291015618, "midi_note": 69, "frequency": 440, "note_held": 0.0016276074218749999, "velocity": 102, "channel": 0}, {"time_played": 20.35533376367187, "midi_note": 46, "frequency": 116.54, "note_held": 0.33040430664062725, "velocity": 86, "channel": 0}, {"time_played": 20.35533376367187, "midi_note": 50, "frequency": 146.83, "note_held": 0.33040430664062725, "velocity": 86, "channel": 0}, {"time_played": 20.35533376367187, "midi_note": 53, "frequency": 174.61, "note_held": 0.33040430664062725, "velocity": 100, "channel": 0}, {"time_played": 20.35533376367187, "midi_note": 62, "frequency": 293.66, "note_held": 0.00032552148437499996, "velocity": 102, "channel": 0}, {"time_played": 20.68606359179687, "midi_note": 65, "frequency": 349.23, "note_held": 0.00032552148437499996, "velocity": 102, "channel": 0}, {"time_played": 20.68606359179687, "midi_note": 46, "frequency": 116.54, "note_held": 0.3271490917968727, "velocity": 88, "channel": 0}, {"time_played": 20.68606359179687, "midi_note": 50, "frequency": 146.83, "note_held": 0.3271490917968727, "velocity": 88, "channel": 0}, {"time_played": 20.68606359179687, "midi_note": 53, "frequency": 174.61, "note_held": 0.3271490917968727, "velocity": 102, "channel": 0}, {"time_played": 20.849149855468745, "midi_note": 67, "frequency": 392, "note_held": 0.15039092578125, "velocity": 102, "channel": 0}, {"time_played": 21.014840291015616, "midi_note": 33, "frequency": 55, "note_held": 0.3401699511718732, "velocity": 87, "channel": 0}, {"time_played": 21.014840291015616, "midi_note": 45, "frequency": 110, "note_held": 0.3401699511718732, "velocity": 104, "channel": 0}, {"time_played": 21.014840291015616, "midi_note": 69, "frequency": 440, "note_held": 0.0016276074218749999, "velocity": 102, "channel": 0}, {"time_played": 21.355335763671864, "midi_note": 45, "frequency": 110, "note_held": 0.00032552148437499996, "velocity": 86, "channel": 0}, {"time_played": 21.355335763671864, "midi_note": 49, "frequency": 138.59, "note_held": 0.3304043066406237, "velocity": 86, "channel": 0}, {"time_played": 21.355335763671864, "midi_note": 52, "frequency": 164.81, "note_held": 0.3304043066406237, "velocity": 100, "channel": 0}, {"time_played": 21.68606559179686, "midi_note": 45, "frequency": 110, "note_held": 0.32714909179687623, "velocity": 88, "channel": 0}, {"time_played": 21.68606559179686, "midi_note": 49, "frequency": 138.59, "note_held": 0.32714909179687623, "velocity": 88, "channel": 0}, {"time_played": 21.68606559179686, "midi_note": 52, "frequency": 164.81, "note_held": 0.32714909179687623, "velocity": 102, "channel": 0}, {"time_played": 21.68606559179686, "midi_note": 69, "frequency": 440, "note_held": 0.00032552148437499996, "velocity": 102, "channel": 0}, {"time_played": 22.01484229101561, "midi_note": 62, "frequency": 293.66, "note_held": 0.0016276074218749999, "velocity": 116, "channel": 0}, {"time_played": 22.01484229101561, "midi_note": 38, "frequency": 73.42, "note_held": 0.9983743925781212, "velocity": 103, "channel": 0}, {"time_played": 22.01484229101561, "midi_note": 50, "frequency": 146.83, "note_held": 0.9983743925781212, "velocity": 118, "channel": 0}, {"time_played": 22.35533776367186, "midi_note": 62, "frequency": 293.66, "note_held": 0.00032552148437499996, "velocity": 95, "channel": 0}, {"time_played": 22.35533776367186, "midi_note": 65, "frequency": 349.23, "note_held": 0.3304043066406237, "velocity": 95, "channel": 0}, {"time_played": 22.35533776367186, "midi_note": 69, "frequency": 440, "note_held": 0.3304043066406237, "velocity": 95, "channel": 0}, {"time_played": 22.35533776367186, "midi_note": 74, "frequency": 587.33, "note_held": 0.3304043066406237, "velocity": 105, "channel": 0}, {"time_played": 22.686067591796856, "midi_note": 62, "frequency": 293.66, "note_held": 0.00032552148437499996, "velocity": 97, "channel": 0}, {"time_played": 22.686067591796856, "midi_note": 65, "frequency": 349.23, "note_held": 0.32714909179687623, "velocity": 97, "channel": 0}, {"time_played": 22.686067591796856, "midi_note": 69, "frequency": 440, "note_held": 0.32714909179687623, "velocity": 97, "channel": 0}, {"time_played": 22.686067591796856, "midi_note": 74, "frequency": 587.33, "note_held": 0.32714909179687623, "velocity": 107, "channel": 0}, {"time_played": 23.014844291015606, "midi_note": 40, "frequency": 82.41, "note_held": 0.0016276074218749999, "velocity": 84, "channel": 0}, {"time_played": 23.014844291015606, "midi_note": 52, "frequency": 164.81, "note_held": 0.9983743925781212, "velocity": 99, "channel": 0}, {"time_played": 23.190625892578105, "midi_note": 64, "frequency": 329.63, "note_held": 0.17578160156249997, "velocity": 102, "channel": 0}, {"time_played": 23.355339763671854, "midi_note": 67, "frequency": 392, "note_held": 0.16471387109375, "velocity": 94, "channel": 0}, {"time_played": 23.355339763671854, "midi_note": 71, "frequency": 493.88, "note_held": 0.657878919921874, "velocity": 94, "channel": 0}, {"time_played": 23.355339763671854, "midi_note": 76, "frequency": 659.25, "note_held": 0.657878919921874, "velocity": 108, "channel": 0}, {"time_played": 24.0148462910156, "midi_note": 41, "frequency": 87.31, "note_held": 0.0016276074218749999, "velocity": 85, "channel": 0}, {"time_played": 24.0148462910156, "midi_note": 53, "frequency": 174.61, "note_held": 0.9983743925781248, "velocity": 99, "channel": 0}, {"time_played": 24.355341763671852, "midi_note": 65, "frequency": 349.23, "note_held": 0.34049547265624996, "velocity": 68, "channel": 0}, {"time_played": 24.355341763671852, "midi_note": 69, "frequency": 440, "note_held": 0.3304043066406237, "velocity": 68, "channel": 0}, {"time_played": 24.355341763671852, "midi_note": 72, "frequency": 523.25, "note_held": 0.3304043066406237, "velocity": 68, "channel": 0}, {"time_played": 24.355341763671852, "midi_note": 77, "frequency": 698.46, "note_held": 0.3304043066406237, "velocity": 82, "channel": 0}, {"time_played": 24.68607159179685, "midi_note": 65, "frequency": 349.23, "note_held": 0.00032552148437499996, "velocity": 70, "channel": 0}, {"time_played": 24.68607159179685, "midi_note": 69, "frequency": 440, "note_held": 0.32714909179687623, "velocity": 70, "channel": 0}, {"time_played": 24.68607159179685, "midi_note": 72, "frequency": 523.25, "note_held": 0.32714909179687623, "velocity": 70, "channel": 0}, {"time_played": 24.68607159179685, "midi_note": 77, "frequency": 698.46, "note_held": 0.32714909179687623, "velocity": 80, "channel": 0}, {"time_played": 25.0148482910156, "midi_note": 40, "frequency": 82.41, "note_held": 0.0016276074218749999, "velocity": 84, "channel": 0}, {"time_played": 25.0148482910156, "midi_note": 52, "frequency": 164.81, "note_held": 0.9983743925781212, "velocity": 99, "channel": 0}, {"time_played": 25.190629892578098, "midi_note": 64, "frequency": 329.63, "note_held": 0.17578160156249997, "velocity": 75, "channel": 0}, {"time_played": 25.355343763671847, "midi_note": 67, "frequency": 392, "note_held": 0.16471387109375, "velocity": 67, "channel": 0}, {"time_played": 25.355343763671847, "midi_note": 71, "frequency": 493.88, "note_held": 0.657878919921874, "velocity": 67, "channel": 0}, {"time_played": 25.355343763671847, "midi_note": 76, "frequency": 659.25, "note_held": 0.657878919921874, "velocity": 81, "channel": 0}, {"time_played": 26.014850291015595, "midi_note": 38, "frequency": 73.42, "note_held": 0.0016276074218749999, "velocity": 84, "channel": 0}, {"time_played": 26.014850291015595, "midi_note": 50, "frequency": 146.83, "note_held": 0.9983743925781248, "velocity": 99, "channel": 0}, {"time_played": 26.355345763671846, "midi_note": 62, "frequency": 293.66, "note_held": 0.34049547265624996, "velocity": 68, "channel": 0}, {"time_played": 26.355345763671846, "midi_note": 65, "frequency": 349.23, "note_held": 0.3304043066406237, "velocity": 68, "channel": 0}, {"time_played": 26.355345763671846, "midi_note": 69, "frequency": 440, "note_held": 0.3304043066406237, "velocity": 68, "channel": 0}, {"time_played": 26.355345763671846, "midi_note": 74, "frequency": 587.33, "note_held": 0.3304043066406237, "velocity": 82, "channel": 0}, {"time_played": 26.686075591796843, "midi_note": 62, "frequency": 293.66, "note_held": 0.00032552148437499996, "velocity": 70, "channel": 0}, {"time_played": 26.686075591796843, "midi_note": 65, "frequency": 349.23, "note_held": 0.32714909179687623, "velocity": 70, "channel": 0}, {"time_played": 26.686075591796843, "midi_note": 69, "frequency": 440, "note_held": 0.32714909179687623, "velocity": 70, "channel": 0}, {"time_played": 26.686075591796843, "midi_note": 74, "frequency": 587.33, "note_held": 0.32714909179687623, "velocity": 80, "channel": 0}, {"time_played": 27.014852291015593, "midi_note": 40, "frequency": 82.41, "note_held": 0.0016276074218749999, "velocity": 84, "channel": 0}, {"time_played": 27.014852291015593, "midi_note": 52, "frequency": 164.81, "note_held": 0.9983743925781212, "velocity": 99, "channel": 0}, {"time_played": 27.19063389257809, "midi_note": 64, "frequency": 329.63, "note_held": 0.17578160156249997, "velocity": 75, "channel": 0}, {"time_played": 27.35534776367184, "midi_note": 67, "frequency": 392, "note_held": 0.16471387109375, "velocity": 67, "channel": 0}, {"time_played": 27.35534776367184, "midi_note": 71, "frequency": 493.88, "note_held": 0.657878919921874, "velocity": 67, "channel": 0}, {"time_played": 27.35534776367184, "midi_note": 76, "frequency": 659.25, "note_held": 0.657878919921874, "velocity": 81, "channel": 0}, {"time_played": 28.014854291015588, "midi_note": 41, "frequency": 87.31, "note_held": 0.0016276074218749999, "velocity": 85, "channel": 0}, {"time_played": 28.014854291015588, "midi_note": 53, "frequency": 174.61, "note_held": 0.9983743925781248, "velocity": 99, "channel": 0}, {"time_played": 28.35534976367184, "midi_note": 65, "frequency": 349.23, "note_held": 0.34049547265624996, "velocity": 68, "channel": 0}, {"time_played": 28.35534976367184, "midi_note": 69, "frequency": 440, "note_held": 0.3304043066406237, "velocity": 68, "channel": 0}, {"time_played": 28.35534976367184, "midi_note": 72, "frequency": 523.25, "note_held": 0.3304043066406237, "velocity": 68, "channel": 0}, {"time_played": 28.35534976367184, "midi_note": 77, "frequency": 698.46, "note_held": 0.3304043066406237, "velocity": 82, "channel": 0}, {"time_played": 28.686079591796837, "midi_note": 65, "frequency": 349.23, "note_held": 0.00032552148437499996, "velocity": 70, "channel": 0}, {"time_played": 28.686079591796837, "midi_note": 69, "frequency": 440, "note_held": 0.32714909179687623, "velocity": 70, "channel": 0}, {"time_played": 28.686079591796837, "midi_note": 72, "frequency": 523.25, "note_held": 0.32714909179687623, "velocity": 70, "channel": 0}, {"time_played": 28.686079591796837, "midi_note": 77, "frequency": 698.46, "note_held": 0.32714909179687623, "velocity": 80, "channel": 0}, {"time_played": 29.014856291015587, "midi_note": 40, "frequency": 82.41, "note_held": 0.0016276074218749999, "velocity": 84, "channel": 0}, {"time_played": 29.014856291015587, "midi_note": 52, "frequency": 164.81, "note_held": 0.9983743925781212, "velocity": 99, "channel": 0}, {"time_played": 29.190637892578085, "midi_note": 64, "frequency": 329.63, "note_held": 0.17578160156249997, "velocity": 75, "channel": 0}, {"time_played": 29.355351763671834, "midi_note": 67, "frequency": 392, "note_held": 0.16471387109375, "velocity": 67, "channel": 0}, {"time_played": 29.355351763671834, "midi_note": 71, "frequency": 493.88, "note_held": 0.657878919921874, "velocity": 67, "channel": 0}, {"time_played": 29.355351763671834, "midi_note": 76, "frequency": 659.25, "note_held": 0.657878919921874, "velocity": 81, "channel": 0}, {"time_played": 30.01485829101558, "midi_note": 74, "frequency": 587.33, "note_held": 0.0016276074218749999, "velocity": 75, "channel": 0}, {"time_played": 30.01485829101558, "midi_note": 38, "frequency": 73.42, "note_held": 0.3401699511718732, "velocity": 89, "channel": 0}, {"time_played": 30.01485829101558, "midi_note": 50, "frequency": 146.83, "note_held": 0.3401699511718732, "velocity": 104, "channel": 0}, {"time_played": 30.19063989257808, "midi_note": 77, "frequency": 698.46, "note_held": 0.17578160156249997, "velocity": 75, "channel": 0}, {"time_played": 30.35535376367183, "midi_note": 62, "frequency": 293.66, "note_held": 0.3304043066406237, "velocity": 86, "channel": 0}, {"time_played": 30.35535376367183, "midi_note": 65, "frequency": 349.23, "note_held": 0.3304043066406237, "velocity": 86, "channel": 0}, {"time_played": 30.35535376367183, "midi_note": 69, "frequency": 440, "note_held": 0.3304043066406237, "velocity": 100, "channel": 0}, {"time_played": 30.35535376367183, "midi_note": 86, "frequency": 1174.66, "note_held": 0.00032552148437499996, "velocity": 75, "channel": 0}, {"time_played": 30.686083591796827, "midi_note": 62, "frequency": 293.66, "note_held": 0.00032552148437499996, "velocity": 88, "channel": 0}, {"time_played": 30.686083591796827, "midi_note": 65, "frequency": 349.23, "note_held": 0.32714909179687623, "velocity": 88, "channel": 0}, {"time_played": 30.686083591796827, "midi_note": 69, "frequency": 440, "note_held": 0.32714909179687623, "velocity": 98, "channel": 0}, {"time_played": 31.014860291015577, "midi_note": 40, "frequency": 82.41, "note_held": 0.16569043554687468, "velocity": 97, "channel": 0}, {"time_played": 31.014860291015577, "midi_note": 74, "frequency": 587.33, "note_held": 0.0016276074218749999, "velocity": 75, "channel": 0}, {"time_played": 31.190641892578075, "midi_note": 52, "frequency": 164.81, "note_held": 0.15462270507812548, "velocity": 93, "channel": 0}, {"time_played": 31.190641892578075, "midi_note": 77, "frequency": 698.46, "note_held": 0.010091166015624998, "velocity": 75, "channel": 0}, {"time_played": 31.355355763671824, "midi_note": 64, "frequency": 329.63, "note_held": 0.6578789199218704, "velocity": 85, "channel": 0}, {"time_played": 31.355355763671824, "midi_note": 67, "frequency": 392, "note_held": 0.6578789199218704, "velocity": 85, "channel": 0}, {"time_played": 31.355355763671824, "midi_note": 71, "frequency": 493.88, "note_held": 0.6578789199218704, "velocity": 99, "channel": 0}, {"time_played": 31.355355763671824, "midi_note": 86, "frequency": 1174.66, "note_held": 0.010091166015624998, "velocity": 75, "channel": 0}, {"time_played": 32.01486229101557, "midi_note": 41, "frequency": 87.31, "note_held": 0.3401699511718732, "velocity": 90, "channel": 0}, {"time_played": 32.01486229101557, "midi_note": 53, "frequency": 174.61, "note_held": 0.3401699511718732, "velocity": 104, "channel": 0}, {"time_played": 32.01486229101557, "midi_note": 88, "frequency": 1318.51, "note_held": 0.0016276074218749999, "velocity": 75, "channel": 0}, {"time_played": 32.35535776367182, "midi_note": 65, "frequency": 349.23, "note_held": 0.00032552148437499996, "velocity": 86, "channel": 0}, {"time_played": 32.35535776367182, "midi_note": 69, "frequency": 440, "note_held": 0.3304043066406237, "velocity": 86, "channel": 0}, {"time_played": 32.35535776367182, "midi_note": 72, "frequency": 523.25, "note_held": 0.3304043066406237, "velocity": 100, "channel": 0}, {"time_played": 32.5210481992187, "midi_note": 89, "frequency": 1396.91, "note_held": 0.165690435546875, "velocity": 75, "channel": 0}, {"time_played": 32.68608759179682, "midi_note": 88, "frequency": 1318.51, "note_held": 0.00032552148437499996, "velocity": 75, "channel": 0}, {"time_played": 32.68608759179682, "midi_note": 65, "frequency": 349.23, "note_held": 0.32714909179686913, "velocity": 88, "channel": 0}, {"time_played": 32.68608759179682, "midi_note": 69, "frequency": 440, "note_held": 0.32714909179686913, "velocity": 88, "channel": 0}, {"time_played": 32.68608759179682, "midi_note": 72, "frequency": 523.25, "note_held": 0.32714909179686913, "velocity": 98, "channel": 0}, {"time_played": 32.84917385546869, "midi_note": 89, "frequency": 1396.91, "note_held": 0.143554974609375, "velocity": 75, "channel": 0}, {"time_played": 33.01486429101556, "midi_note": 40, "frequency": 82.41, "note_held": 0.16569043554687823, "velocity": 97, "channel": 0}, {"time_played": 33.01486429101556, "midi_note": 88, "frequency": 1318.51, "note_held": 0.0016276074218749999, "velocity": 75, "channel": 0}, {"time_played": 33.19064589257807, "midi_note": 52, "frequency": 164.81, "note_held": 0.15462270507812548, "velocity": 93, "channel": 0}, {"time_played": 33.19064589257807, "midi_note": 84, "frequency": 1046.5, "note_held": 0.010091166015624998, "velocity": 75, "channel": 0}, {"time_played": 33.35535976367182, "midi_note": 81, "frequency": 880, "note_held": 0.010091166015624998, "velocity": 75, "channel": 0}, {"time_played": 33.35535976367182, "midi_note": 64, "frequency": 329.63, "note_held": 0.6578789199218775, "velocity": 85, "channel": 0}, {"time_played": 33.35535976367182, "midi_note": 67, "frequency": 392, "note_held": 0.6578789199218775, "velocity": 85, "channel": 0}, {"time_played": 33.35535976367182, "midi_note": 71, "frequency": 493.88, "note_held": 0.6578789199218775, "velocity": 99, "channel": 0}, {"time_played": 34.01486629101557, "midi_note": 34, "frequency": 58.27, "note_held": 0.3401699511718732, "velocity": 88, "channel": 0}, {"time_played": 34.01486629101557, "midi_note": 46, "frequency": 116.54, "note_held": 0.3401699511718732, "velocity": 104, "channel": 0}, {"time_played": 34.01486629101557, "midi_note": 81, "frequency": 880, "note_held": 0.0016276074218749999, "velocity": 75, "channel": 0}, {"time_played": 34.35536176367182, "midi_note": 58, "frequency": 233.08, "note_held": 0.3304043066406237, "velocity": 86, "channel": 0}, {"time_played": 34.35536176367182, "midi_note": 62, "frequency": 293.66, "note_held": 0.3304043066406237, "velocity": 86, "channel": 0}, {"time_played": 34.35536176367182, "midi_note": 65, "frequency": 349.23, "note_held": 0.3304043066406237, "velocity": 100, "channel": 0}, {"time_played": 34.35536176367182, "midi_note": 74, "frequency": 587.33, "note_held": 0.00032552148437499996, "velocity": 75, "channel": 0}, {"time_played": 34.686091591796824, "midi_note": 77, "frequency": 698.46, "note_held": 0.00032552148437499996, "velocity": 75, "channel": 0}, {"time_played": 34.686091591796824, "midi_note": 58, "frequency": 233.08, "note_held": 0.32714909179687623, "velocity": 88, "channel": 0}, {"time_played": 34.686091591796824, "midi_note": 62, "frequency": 293.66, "note_held": 0.32714909179687623, "velocity": 88, "channel": 0}, {"time_played": 34.686091591796824, "midi_note": 65, "frequency": 349.23, "note_held": 0.32714909179687623, "velocity": 102, "channel": 0}, {"time_played": 34.8491778554687, "midi_note": 79, "frequency": 783.99, "note_held": 0.15039092578125, "velocity": 75, "channel": 0}, {"time_played": 35.014868291015574, "midi_note": 29, "frequency": 43.65, "note_held": 0.3401699511718803, "velocity": 86, "channel": 0}, {"time_played": 35.014868291015574, "midi_note": 41, "frequency": 87.31, "note_held": 0.3401699511718803, "velocity": 104, "channel": 0}, {"time_played": 35.014868291015574, "midi_note": 81, "frequency": 880, "note_held": 0.0016276074218749999, "velocity": 75, "channel": 0}, {"time_played": 35.35536376367183, "midi_note": 53, "frequency": 174.61, "note_held": 0.00032552148437499996, "velocity": 85, "channel": 0}, {"time_played": 35.35536376367183, "midi_note": 60, "frequency": 261.63, "note_held": 0.6578789199218775, "velocity": 85, "channel": 0}, {"time_played": 35.35536376367183, "midi_note": 65, "frequency": 349.23, "note_held": 0.6578789199218775, "velocity": 99, "channel": 0}, {"time_played": 36.01487029101558, "midi_note": 34, "frequency": 58.27, "note_held": 0.3401699511718732, "velocity": 88, "channel": 0}, {"time_played": 36.01487029101558, "midi_note": 46, "frequency": 116.54, "note_held": 0.3401699511718732, "velocity": 104, "channel": 0}, {"time_played": 36.01487029101558, "midi_note": 81, "frequency": 880, "note_held": 0.0016276074218749999, "velocity": 75, "channel": 0}, {"time_played": 36.355365763671834, "midi_note": 58, "frequency": 233.08, "note_held": 0.3304043066406237, "velocity": 86, "channel": 0}, {"time_played": 36.355365763671834, "midi_note": 62, "frequency": 293.66, "note_held": 0.3304043066406237, "velocity": 86, "channel": 0}, {"time_played": 36.355365763671834, "midi_note": 65, "frequency": 349.23, "note_held": 0.3304043066406237, "velocity": 100, "channel": 0}, {"time_played": 36.355365763671834, "midi_note": 74, "frequency": 587.33, "note_held": 0.00032552148437499996, "velocity": 75, "channel": 0}, {"time_played": 36.686095591796835, "midi_note": 77, "frequency": 698.46, "note_held": 0.00032552148437499996, "velocity": 63, "channel": 0}, {"time_played": 36.686095591796835, "midi_note": 58, "frequency": 233.08, "note_held": 0.32714909179688334, "velocity": 88, "channel": 0}, {"time_played": 36.686095591796835, "midi_note": 62, "frequency": 293.66, "note_held": 0.32714909179688334, "velocity": 88, "channel": 0}, {"time_played": 36.686095591796835, "midi_note": 65, "frequency": 349.23, "note_held": 0.32714909179688334, "velocity": 102, "channel": 0}, {"time_played": 36.84690320507809, "midi_note": 77, "frequency": 698.46, "note_held": 0.00032552148437499996, "velocity": 63, "channel": 0}, {"time_played": 36.90061424999997, "midi_note": 79, "frequency": 783.99, "note_held": 0.05371104492187499, "velocity": 63, "channel": 0}, {"time_played": 36.954325294921844, "midi_note": 77, "frequency": 698.46, "note_held": 0.047526136718749994, "velocity": 63, "channel": 0}, {"time_played": 37.01487229101559, "midi_note": 33, "frequency": 55, "note_held": 0.3401699511718732, "velocity": 87, "channel": 0}, {"time_played": 37.01487229101559, "midi_note": 45, "frequency": 110, "note_held": 0.3401699511718732, "velocity": 104, "channel": 0}, {"time_played": 37.01487229101559, "midi_note": 76, "frequency": 659.25, "note_held": 0.0016276074218749999, "velocity": 70, "channel": 0}, {"time_played": 37.35536776367184, "midi_note": 57, "frequency": 220, "note_held": 0.00032552148437499996, "velocity": 85, "channel": 0}, {"time_played": 37.35536776367184, "midi_note": 61, "frequency": 277.18, "note_held": 0.6578789199218775, "velocity": 85, "channel": 0}, {"time_played": 37.35536776367184, "midi_note": 64, "frequency": 329.63, "note_held": 0.6578789199218775, "velocity": 99, "channel": 0}, {"time_played": 38.014874291015595, "midi_note": 74, "frequency": 587.33, "note_held": 0.0016276074218749999, "velocity": 75, "channel": 0}, {"time_played": 38.014874291015595, "midi_note": 38, "frequency": 73.42, "note_held": 0.3401699511718732, "velocity": 89, "channel": 0}, {"time_played": 38.014874291015595, "midi_note": 50, "frequency": 146.83, "note_held": 0.3401699511718732, "velocity": 104, "channel": 0}, {"time_played": 38.19065589257809, "midi_note": 77, "frequency": 698.46, "note_held": 0.17578160156249997, "velocity": 75, "channel": 0}, {"time_played": 38.355369763671845, "midi_note": 62, "frequency": 293.66, "note_held": 0.3304043066406237, "velocity": 86, "channel": 0}, {"time_played": 38.355369763671845, "midi_note": 65, "frequency": 349.23, "note_held": 0.3304043066406237, "velocity": 86, "channel": 0}, {"time_played": 38.355369763671845, "midi_note": 69, "frequency": 440, "note_held": 0.3304043066406237, "velocity": 100, "channel": 0}, {"time_played": 38.355369763671845, "midi_note": 86, "frequency": 1174.66, "note_held": 0.00032552148437499996, "velocity": 75, "channel": 0}, {"time_played": 38.68609959179685, "midi_note": 62, "frequency": 293.66, "note_held": 0.00032552148437499996, "velocity": 88, "channel": 0}, {"time_played": 38.68609959179685, "midi_note": 65, "frequency": 349.23, "note_held": 0.32714909179687623, "velocity": 88, "channel": 0}, {"time_played": 38.68609959179685, "midi_note": 69, "frequency": 440, "note_held": 0.32714909179687623, "velocity": 98, "channel": 0}, {"time_played": 39.0148762910156, "midi_note": 40, "frequency": 82.41, "note_held": 0.16569043554687113, "velocity": 97, "channel": 0}, {"time_played": 39.0148762910156, "midi_note": 74, "frequency": 587.33, "note_held": 0.0016276074218749999, "velocity": 75, "channel": 0}, {"time_played": 39.190657892578095, "midi_note": 52, "frequency": 164.81, "note_held": 0.15462270507812548, "velocity": 93, "channel": 0}, {"time_played": 39.190657892578095, "midi_note": 77, "frequency": 698.46, "note_held": 0.010091166015624998, "velocity": 75, "channel": 0}, {"time_played": 39.35537176367185, "midi_note": 64, "frequency": 329.63, "note_held": 0.6578789199218775, "velocity": 85, "channel": 0}, {"time_played": 39.35537176367185, "midi_note": 67, "frequency": 392, "note_held": 0.6578789199218775, "velocity": 85, "channel": 0}, {"time_played": 39.35537176367185, "midi_note": 71, "frequency": 493.88, "note_held": 0.6578789199218775, "velocity": 99, "channel": 0}, {"time_played": 39.35537176367185, "midi_note": 86, "frequency": 1174.66, "note_held": 0.010091166015624998, "velocity": 75, "channel": 0}, {"time_played": 40.0148782910156, "midi_note": 41, "frequency": 87.31, "note_held": 0.3401699511718732, "velocity": 90, "channel": 0}, {"time_played": 40.0148782910156, "midi_note": 53, "frequency": 174.61, "note_held": 0.3401699511718732, "velocity": 104, "channel": 0}, {"time_played": 40.0148782910156, "midi_note": 88, "frequency": 1318.51, "note_held": 0.0016276074218749999, "velocity": 75, "channel": 0}, {"time_played": 40.35537376367185, "midi_note": 65, "frequency": 349.23, "note_held": 0.00032552148437499996, "velocity": 86, "channel": 0}, {"time_played": 40.35537376367185, "midi_note": 69, "frequency": 440, "note_held": 0.3304043066406237, "velocity": 86, "channel": 0}, {"time_played": 40.35537376367185, "midi_note": 72, "frequency": 523.25, "note_held": 0.3304043066406237, "velocity": 100, "channel": 0}, {"time_played": 40.52106419921873, "midi_note": 89, "frequency": 1396.91, "note_held": 0.165690435546875, "velocity": 75, "channel": 0}, {"time_played": 40.68610359179685, "midi_note": 88, "frequency": 1318.51, "note_held": 0.00032552148437499996, "velocity": 75, "channel": 0}, {"time_played": 40.68610359179685, "midi_note": 65, "frequency": 349.23, "note_held": 0.32714909179686913, "velocity": 88, "channel": 0}, {"time_played": 40.68610359179685, "midi_note": 69, "frequency": 440, "note_held": 0.32714909179686913, "velocity": 88, "channel": 0}, {"time_played": 40.68610359179685, "midi_note": 72, "frequency": 523.25, "note_held": 0.32714909179686913, "velocity": 98, "channel": 0}, {"time_played": 40.84918985546872, "midi_note": 89, "frequency": 1396.91, "note_held": 0.143554974609375, "velocity": 75, "channel": 0}, {"time_played": 41.014880291015594, "midi_note": 40, "frequency": 82.41, "note_held": 0.16569043554687823, "velocity": 97, "channel": 0}, {"time_played": 41.014880291015594, "midi_note": 88, "frequency": 1318.51, "note_held": 0.0016276074218749999, "velocity": 75, "channel": 0}, {"time_played": 41.1906618925781, "midi_note": 52, "frequency": 164.81, "note_held": 0.15462270507812548, "velocity": 93, "channel": 0}, {"time_played": 41.1906618925781, "midi_note": 84, "frequency": 1046.5, "note_held": 0.010091166015624998, "velocity": 75, "channel": 0}, {"time_played": 41.35537576367185, "midi_note": 81, "frequency": 880, "note_held": 0.010091166015624998, "velocity": 75, "channel": 0}, {"time_played": 41.35537576367185, "midi_note": 64, "frequency": 329.63, "note_held": 0.6578789199218775, "velocity": 85, "channel": 0}, {"time_played": 41.35537576367185, "midi_note": 67, "frequency": 392, "note_held": 0.6578789199218775, "velocity": 85, "channel": 0}, {"time_played": 41.35537576367185, "midi_note": 71, "frequency": 493.88, "note_held": 0.6578789199218775, "velocity": 99, "channel": 0}, {"time_played": 42.0148822910156, "midi_note": 34, "frequency": 58.27, "note_held": 0.3401699511718732, "velocity": 88, "channel": 0}, {"time_played": 42.0148822910156, "midi_note": 46, "frequency": 116.54, "note_held": 0.3401699511718732, "velocity": 104, "channel": 0}, {"time_played": 42.0148822910156, "midi_note": 81, "frequency": 880, "note_held": 0.0016276074218749999, "velocity": 75, "channel": 0}, {"time_played": 42.355377763671854, "midi_note": 58, "frequency": 233.08, "note_held": 0.3304043066406237, "velocity": 86, "channel": 0}, {"time_played": 42.355377763671854, "midi_note": 62, "frequency": 293.66, "note_held": 0.3304043066406237, "velocity": 86, "channel": 0}, {"time_played": 42.355377763671854, "midi_note": 65, "frequency": 349.23, "note_held": 0.3304043066406237, "velocity": 100, "channel": 0}, {"time_played": 42.355377763671854, "midi_note": 74, "frequency": 587.33, "note_held": 0.00032552148437499996, "velocity": 75, "channel": 0}, {"time_played": 42.686107591796855, "midi_note": 77, "frequency": 698.46, "note_held": 0.00032552148437499996, "velocity": 75, "channel": 0}, {"time_played": 42.686107591796855, "midi_note": 58, "frequency": 233.08, "note_held": 0.32714909179687623, "velocity": 88, "channel": 0}, {"time_played": 42.686107591796855, "midi_note": 62, "frequency": 293.66, "note_held": 0.32714909179687623, "velocity": 88, "channel": 0}, {"time_played": 42.686107591796855, "midi_note": 65, "frequency": 349.23, "note_held": 0.32714909179687623, "velocity": 102, "channel": 0}, {"time_played": 42.849193855468734, "midi_note": 79, "frequency": 783.99, "note_held": 0.15039092578125, "velocity": 75, "channel": 0}, {"time_played": 43.01488429101561, "midi_note": 81, "frequency": 880, "note_held": 0.0013020859374999999, "velocity": 75, "channel": 0}, {"time_played": 43.01488429101561, "midi_note": 33, "frequency": 55, "note_held": 0.35798356933593567, "velocity": 87, "channel": 0}, {"time_played": 43.01488429101561, "midi_note": 45, "frequency": 110, "note_held": 0.35798356933593567, "velocity": 104, "channel": 0}, {"time_played": 43.373232957031234, "midi_note": 81, "frequency": 880, "note_held": 0.0003650966796875, "velocity": 75, "channel": 0}, {"time_played": 43.373232957031234, "midi_note": 57, "frequency": 220, "note_held": 0.4306747900390633, "velocity": 68, "channel": 0}, {"time_played": 43.373232957031234, "midi_note": 61, "frequency": 277.18, "note_held": 0.4306747900390633, "velocity": 68, "channel": 0}, {"time_played": 43.373232957031234, "midi_note": 64, "frequency": 329.63, "note_held": 0.4306747900390633, "velocity": 82, "channel": 0}, {"time_played": 43.805769988281234, "midi_note": 57, "frequency": 220, "note_held": 1.8715524169921878, "velocity": 57, "channel": 0}, {"time_played": 43.805769988281234, "midi_note": 61, "frequency": 277.18, "note_held": 1.8715524169921878, "velocity": 57, "channel": 0}, {"time_played": 43.805769988281234, "midi_note": 64, "frequency": 329.63, "note_held": 1.8715524169921878, "velocity": 71, "channel": 0}, {"time_played": 43.805769988281234, "midi_note": 81, "frequency": 880, "note_held": 0.0018622412109374998, "velocity": 62, "channel": 0}, {"time_played": 45.68048673242186, "midi_note": 62, "frequency": 293.66, "note_held": 0.0013020859374999999, "velocity": 65, "channel": 0}, {"time_played": 45.68048673242186, "midi_note": 74, "frequency": 587.33, "note_held": 0.3401699511718732, "velocity": 79, "channel": 0}, {"time_played": 45.68048673242186, "midi_note": 38, "frequency": 73.42, "note_held": 0.9983743925781283, "velocity": 69, "channel": 0}, {"time_played": 45.68048673242186, "midi_note": 50, "frequency": 146.83, "note_held": 0.9983743925781283, "velocity": 84, "channel": 0}, {"time_played": 46.02098220507811, "midi_note": 62, "frequency": 293.66, "note_held": 0.00032552148437499996, "velocity": 55, "channel": 0}, {"time_played": 46.02098220507811, "midi_note": 65, "frequency": 349.23, "note_held": 0.3304043066406237, "velocity": 55, "channel": 0}, {"time_played": 46.02098220507811, "midi_note": 69, "frequency": 440, "note_held": 0.3304043066406237, "velocity": 69, "channel": 0}, {"time_played": 46.351712033203114, "midi_note": 62, "frequency": 293.66, "note_held": 0.00032552148437499996, "velocity": 57, "channel": 0}, {"time_played": 46.351712033203114, "midi_note": 65, "frequency": 349.23, "note_held": 0.32714909179687623, "velocity": 57, "channel": 0}, {"time_played": 46.351712033203114, "midi_note": 69, "frequency": 440, "note_held": 0.32714909179687623, "velocity": 67, "channel": 0}, {"time_played": 46.680488732421864, "midi_note": 40, "frequency": 82.41, "note_held": 0.0016276074218749999, "velocity": 53, "channel": 0}, {"time_played": 46.680488732421864, "midi_note": 52, "frequency": 164.81, "note_held": 0.9983743925781283, "velocity": 68, "channel": 0}, {"time_played": 46.85627033398436, "midi_note": 64, "frequency": 329.63, "note_held": 0.17578160156249997, "velocity": 62, "channel": 0}, {"time_played": 47.020984205078115, "midi_note": 67, "frequency": 392, "note_held": 0.16471387109375, "velocity": 54, "channel": 0}, {"time_played": 47.020984205078115, "midi_note": 71, "frequency": 493.88, "note_held": 0.6578789199218775, "velocity": 68, "channel": 0}, {"time_played": 47.680490732421866, "midi_note": 41, "frequency": 87.31, "note_held": 0.0016276074218749999, "velocity": 54, "channel": 0}, {"time_played": 47.680490732421866, "midi_note": 53, "frequency": 174.61, "note_held": 0.9983743925781283, "velocity": 68, "channel": 0}, {"time_played": 48.02098620507812, "midi_note": 65, "frequency": 349.23, "note_held": 0.34049547265624996, "velocity": 55, "channel": 0}, {"time_played": 48.02098620507812, "midi_note": 69, "frequency": 440, "note_held": 0.3304043066406237, "velocity": 55, "channel": 0}, {"time_played": 48.02098620507812, "midi_note": 72, "frequency": 523.25, "note_held": 0.3304043066406237, "velocity": 69, "channel": 0}, {"time_played": 48.35171603320312, "midi_note": 65, "frequency": 349.23, "note_held": 0.00032552148437499996, "velocity": 57, "channel": 0}, {"time_played": 48.35171603320312, "midi_note": 69, "frequency": 440, "note_held": 0.32714909179687623, "velocity": 57, "channel": 0}, {"time_played": 48.35171603320312, "midi_note": 72, "frequency": 523.25, "note_held": 0.32714909179687623, "velocity": 67, "channel": 0}, {"time_played": 48.68049273242187, "midi_note": 40, "frequency": 82.41, "note_held": 0.0016276074218749999, "velocity": 53, "channel": 0}, {"time_played": 48.68049273242187, "midi_note": 52, "frequency": 164.81, "note_held": 0.9983743925781283, "velocity": 68, "channel": 0}, {"time_played": 48.856274333984366, "midi_note": 64, "frequency": 329.63, "note_held": 0.17578160156249997, "velocity": 62, "channel": 0}, {"time_played": 49.02098820507812, "midi_note": 67, "frequency": 392, "note_held": 0.16471387109375, "velocity": 54, "channel": 0}, {"time_played": 49.02098820507812, "midi_note": 71, "frequency": 493.88, "note_held": 0.6578789199218775, "velocity": 68, "channel": 0}, {"time_played": 49.68049473242187, "midi_note": 62, "frequency": 293.66, "note_held": 0.0016276074218749999, "velocity": 75, "channel": 0}, {"time_played": 49.68049473242187, "midi_note": 74, "frequency": 587.33, "note_held": 0.3401699511718732, "velocity": 89, "channel": 0}, {"time_played": 49.68049473242187, "midi_note": 38, "frequency": 73.42, "note_held": 0.9983743925781283, "velocity": 69, "channel": 0}, {"time_played": 49.68049473242187, "midi_note": 50, "frequency": 146.83, "note_held": 0.9983743925781283, "velocity": 84, "channel": 0}, {"time_played": 50.02099020507812, "midi_note": 62, "frequency": 293.66, "note_held": 0.00032552148437499996, "velocity": 55, "channel": 0}, {"time_played": 50.02099020507812, "midi_note": 65, "frequency": 349.23, "note_held": 0.3304043066406237, "velocity": 55, "channel": 0}, {"time_played": 50.02099020507812, "midi_note": 69, "frequency": 440, "note_held": 0.3304043066406237, "velocity": 69, "channel": 0}, {"time_played": 50.35172003320312, "midi_note": 62, "frequency": 293.66, "note_held": 0.00032552148437499996, "velocity": 57, "channel": 0}, {"time_played": 50.35172003320312, "midi_note": 65, "frequency": 349.23, "note_held": 0.32714909179687623, "velocity": 57, "channel": 0}, {"time_played": 50.35172003320312, "midi_note": 69, "frequency": 440, "note_held": 0.32714909179687623, "velocity": 67, "channel": 0}, {"time_played": 50.68049673242187, "midi_note": 40, "frequency": 82.41, "note_held": 0.0016276074218749999, "velocity": 53, "channel": 0}, {"time_played": 50.68049673242187, "midi_note": 52, "frequency": 164.81, "note_held": 0.9983743925781283, "velocity": 68, "channel": 0}, {"time_played": 50.85627833398437, "midi_note": 64, "frequency": 329.63, "note_held": 0.17578160156249997, "velocity": 62, "channel": 0}, {"time_played": 51.02099220507812, "midi_note": 67, "frequency": 392, "note_held": 0.16471387109375, "velocity": 54, "channel": 0}, {"time_played": 51.02099220507812, "midi_note": 71, "frequency": 493.88, "note_held": 0.6578789199218775, "velocity": 68, "channel": 0}, {"time_played": 51.680498732421874, "midi_note": 41, "frequency": 87.31, "note_held": 0.0016276074218749999, "velocity": 54, "channel": 0}, {"time_played": 51.680498732421874, "midi_note": 53, "frequency": 174.61, "note_held": 0.9983743925781283, "velocity": 68, "channel": 0}, {"time_played": 52.020994205078125, "midi_note": 65, "frequency": 349.23, "note_held": 0.34049547265624996, "velocity": 55, "channel": 0}, {"time_played": 52.020994205078125, "midi_note": 69, "frequency": 440, "note_held": 0.3304043066406237, "velocity": 55, "channel": 0}, {"time_played": 52.020994205078125, "midi_note": 72, "frequency": 523.25, "note_held": 0.3304043066406237, "velocity": 69, "channel": 0}, {"time_played": 52.351724033203126, "midi_note": 65, "frequency": 349.23, "note_held": 0.00032552148437499996, "velocity": 57, "channel": 0}, {"time_played": 52.351724033203126, "midi_note": 69, "frequency": 440, "note_held": 0.32714909179687623, "velocity": 57, "channel": 0}, {"time_played": 52.351724033203126, "midi_note": 72, "frequency": 523.25, "note_held": 0.32714909179687623, "velocity": 67, "channel": 0}, {"time_played": 52.680500732421876, "midi_note": 40, "frequency": 82.41, "note_held": 0.0016276074218749999, "velocity": 53, "channel": 0}, {"time_played": 52.680500732421876, "midi_note": 52, "frequency": 164.81, "note_held": 0.9983743925781283, "velocity": 68, "channel": 0}, {"time_played": 52.856282333984375, "midi_note": 64, "frequency": 329.63, "note_held": 0.17578160156249997, "velocity": 62, "channel": 0}, {"time_played": 53.02099620507813, "midi_note": 67, "frequency": 392, "note_held": 0.16471387109375, "velocity": 54, "channel": 0}, {"time_played": 53.02099620507813, "midi_note": 71, "frequency": 493.88, "note_held": 0.6578789199218775, "velocity": 68, "channel": 0}, {"time_played": 53.680502732421886, "midi_note": 62, "frequency": 293.66, "note_held": 0.0013020859374999999, "velocity": 89, "channel": 0}, {"time_played": 53.680502732421886, "midi_note": 38, "frequency": 73.42, "note_held": 0.3401699511718732, "velocity": 76, "channel": 0}, {"time_played": 53.680502732421886, "midi_note": 50, "frequency": 146.83, "note_held": 0.3401699511718732, "velocity": 91, "channel": 0}, {"time_played": 53.856284333984384, "midi_note": 65, "frequency": 349.23, "note_held": 0.17578160156249997, "velocity": 89, "channel": 0}, {"time_played": 54.020998205078136, "midi_note": 50, "frequency": 146.83, "note_held": 0.3304043066406237, "velocity": 73, "channel": 0}, {"time_played": 54.020998205078136, "midi_note": 53, "frequency": 174.61, "note_held": 0.3304043066406237, "velocity": 73, "channel": 0}, {"time_played": 54.020998205078136, "midi_note": 57, "frequency": 220, "note_held": 0.3304043066406237, "velocity": 87, "channel": 0}, {"time_played": 54.020998205078136, "midi_note": 74, "frequency": 587.33, "note_held": 0.00032552148437499996, "velocity": 89, "channel": 0}, {"time_played": 54.35172803320314, "midi_note": 50, "frequency": 146.83, "note_held": 0.00032552148437499996, "velocity": 75, "channel": 0}, {"time_played": 54.35172803320314, "midi_note": 53, "frequency": 174.61, "note_held": 0.32714909179687623, "velocity": 75, "channel": 0}, {"time_played": 54.35172803320314, "midi_note": 57, "frequency": 220, "note_held": 0.32714909179687623, "velocity": 85, "channel": 0}, {"time_played": 54.68050473242189, "midi_note": 40, "frequency": 82.41, "note_held": 0.16569043554687113, "velocity": 84, "channel": 0}, {"time_played": 54.68050473242189, "midi_note": 62, "frequency": 293.66, "note_held": 0.0016276074218749999, "velocity": 89, "channel": 0}, {"time_played": 54.856286333984386, "midi_note": 52, "frequency": 164.81, "note_held": 0.16438834960937498, "velocity": 80, "channel": 0}, {"time_played": 54.856286333984386, "midi_note": 65, "frequency": 349.23, "note_held": 0.010091166015624998, "velocity": 89, "channel": 0}, {"time_played": 55.02100020507814, "midi_note": 52, "frequency": 164.81, "note_held": 0.6578789199218704, "velocity": 72, "channel": 0}, {"time_played": 55.02100020507814, "midi_note": 55, "frequency": 196, "note_held": 0.6578789199218704, "velocity": 72, "channel": 0}, {"time_played": 55.02100020507814, "midi_note": 59, "frequency": 246.94, "note_held": 0.6578789199218704, "velocity": 86, "channel": 0}, {"time_played": 55.02100020507814, "midi_note": 74, "frequency": 587.33, "note_held": 0.00032552148437499996, "velocity": 89, "channel": 0}, {"time_played": 55.68050673242188, "midi_note": 41, "frequency": 87.31, "note_held": 0.3401699511718732, "velocity": 77, "channel": 0}, {"time_played": 55.68050673242188, "midi_note": 53, "frequency": 174.61, "note_held": 0.3401699511718732, "velocity": 91, "channel": 0}, {"time_played": 55.68050673242188, "midi_note": 76, "frequency": 659.25, "note_held": 0.0016276074218749999, "velocity": 89, "channel": 0}, {"time_played": 56.02100220507813, "midi_note": 53, "frequency": 174.61, "note_held": 0.00032552148437499996, "velocity": 73, "channel": 0}, {"time_played": 56.02100220507813, "midi_note": 57, "frequency": 220, "note_held": 0.3304043066406237, "velocity": 73, "channel": 0}, {"time_played": 56.02100220507813, "midi_note": 60, "frequency": 261.63, "note_held": 0.3304043066406237, "velocity": 87, "channel": 0}, {"time_played": 56.18669264062501, "midi_note": 77, "frequency": 698.46, "note_held": 0.165690435546875, "velocity": 89, "channel": 0}, {"time_played": 56.351732033203135, "midi_note": 76, "frequency": 659.25, "note_held": 0.00032552148437499996, "velocity": 89, "channel": 0}, {"time_played": 56.351732033203135, "midi_note": 53, "frequency": 174.61, "note_held": 0.32714909179686913, "velocity": 75, "channel": 0}, {"time_played": 56.351732033203135, "midi_note": 57, "frequency": 220, "note_held": 0.32714909179686913, "velocity": 75, "channel": 0}, {"time_played": 56.351732033203135, "midi_note": 60, "frequency": 261.63, "note_held": 0.32714909179686913, "velocity": 85, "channel": 0}, {"time_played": 56.514818296875006, "midi_note": 77, "frequency": 698.46, "note_held": 0.143554974609375, "velocity": 89, "channel": 0}, {"time_played": 56.68050873242188, "midi_note": 40, "frequency": 82.41, "note_held": 0.16569043554687823, "velocity": 84, "channel": 0}, {"time_played": 56.68050873242188, "midi_note": 76, "frequency": 659.25, "note_held": 0.0016276074218749999, "velocity": 89, "channel": 0}, {"time_played": 56.85629033398438, "midi_note": 52, "frequency": 164.81, "note_held": 0.16438834960937498, "velocity": 80, "channel": 0}, {"time_played": 56.85629033398438, "midi_note": 72, "frequency": 523.25, "note_held": 0.010091166015624998, "velocity": 89, "channel": 0}, {"time_played": 57.021004205078135, "midi_note": 69, "frequency": 440, "note_held": 0.00032552148437499996, "velocity": 89, "channel": 0}, {"time_played": 57.021004205078135, "midi_note": 52, "frequency": 164.81, "note_held": 0.6578789199218775, "velocity": 72, "channel": 0}, {"time_played": 57.021004205078135, "midi_note": 55, "frequency": 196, "note_held": 0.6578789199218775, "velocity": 72, "channel": 0}, {"time_played": 57.021004205078135, "midi_note": 59, "frequency": 246.94, "note_held": 0.6578789199218775, "velocity": 86, "channel": 0}, {"time_played": 57.68051073242189, "midi_note": 34, "frequency": 58.27, "note_held": 0.3401699511718732, "velocity": 75, "channel": 0}, {"time_played": 57.68051073242189, "midi_note": 46, "frequency": 116.54, "note_held": 0.3401699511718732, "velocity": 91, "channel": 0}, {"time_played": 57.68051073242189, "midi_note": 69, "frequency": 440, "note_held": 0.0016276074218749999, "velocity": 89, "channel": 0}, {"time_played": 58.02100620507814, "midi_note": 46, "frequency": 116.54, "note_held": 0.3304043066406237, "velocity": 73, "channel": 0}, {"time_played": 58.02100620507814, "midi_note": 50, "frequency": 146.83, "note_held": 0.3304043066406237, "velocity": 73, "channel": 0}, {"time_played": 58.02100620507814, "midi_note": 53, "frequency": 174.61, "note_held": 0.3304043066406237, "velocity": 87, "channel": 0}, {"time_played": 58.02100620507814, "midi_note": 62, "frequency": 293.66, "note_held": 0.00032552148437499996, "velocity": 89, "channel": 0}, {"time_played": 58.35173603320314, "midi_note": 65, "frequency": 349.23, "note_held": 0.00032552148437499996, "velocity": 89, "channel": 0}, {"time_played": 58.35173603320314, "midi_note": 46, "frequency": 116.54, "note_held": 0.32714909179687623, "velocity": 75, "channel": 0}, {"time_played": 58.35173603320314, "midi_note": 50, "frequency": 146.83, "note_held": 0.32714909179687623, "velocity": 75, "channel": 0}, {"time_played": 58.35173603320314, "midi_note": 53, "frequency": 174.61, "note_held": 0.32714909179687623, "velocity": 89, "channel": 0}, {"time_played": 58.51482229687502, "midi_note": 67, "frequency": 392, "note_held": 0.15039092578125, "velocity": 89, "channel": 0}, {"time_played": 58.68051273242189, "midi_note": 29, "frequency": 43.65, "note_held": 0.3401699511718803, "velocity": 73, "channel": 0}, {"time_played": 58.68051273242189, "midi_note": 41, "frequency": 87.31, "note_held": 0.3401699511718803, "velocity": 91, "channel": 0}, {"time_played": 58.68051273242189, "midi_note": 69, "frequency": 440, "note_held": 0.0016276074218749999, "velocity": 89, "channel": 0}, {"time_played": 59.02100820507815, "midi_note": 41, "frequency": 87.31, "note_held": 0.00032552148437499996, "velocity": 72, "channel": 0}, {"time_played": 59.02100820507815, "midi_note": 48, "frequency": 130.81, "note_held": 0.668239172851564, "velocity": 72, "channel": 0}, {"time_played": 59.02100820507815, "midi_note": 53, "frequency": 174.61, "note_held": 0.668239172851564, "velocity": 86, "channel": 0}, {"time_played": 59.69093599609377, "midi_note": 34, "frequency": 58.27, "note_held": 0.3432448925781273, "velocity": 75, "channel": 0}, {"time_played": 59.69093599609377, "midi_note": 46, "frequency": 116.54, "note_held": 0.3432448925781273, "velocity": 91, "channel": 0}, {"time_played": 59.69093599609377, "midi_note": 69, "frequency": 440, "note_held": 0.0016886181640625, "velocity": 89, "channel": 0}, {"time_played": 60.034506410156276, "midi_note": 46, "frequency": 116.54, "note_held": 0.3304043066406237, "velocity": 73, "channel": 0}, {"time_played": 60.034506410156276, "midi_note": 50, "frequency": 146.83, "note_held": 0.3304043066406237, "velocity": 73, "channel": 0}, {"time_played": 60.034506410156276, "midi_note": 53, "frequency": 174.61, "note_held": 0.3304043066406237, "velocity": 87, "channel": 0}, {"time_played": 60.034506410156276, "midi_note": 62, "frequency": 293.66, "note_held": 0.00032552148437499996, "velocity": 89, "channel": 0}, {"time_played": 60.36523623828128, "midi_note": 65, "frequency": 349.23, "note_held": 0.00032552148437499996, "velocity": 89, "channel": 0}, {"time_played": 60.36523623828128, "midi_note": 46, "frequency": 116.54, "note_held": 0.32714909179687623, "velocity": 75, "channel": 0}, {"time_played": 60.36523623828128, "midi_note": 50, "frequency": 146.83, "note_held": 0.32714909179687623, "velocity": 75, "channel": 0}, {"time_played": 60.36523623828128, "midi_note": 53, "frequency": 174.61, "note_held": 0.32714909179687623, "velocity": 89, "channel": 0}, {"time_played": 60.528322501953156, "midi_note": 67, "frequency": 392, "note_held": 0.15039092578125, "velocity": 89, "channel": 0}, {"time_played": 60.69401293750003, "midi_note": 33, "frequency": 55, "note_held": 0.3401699511718803, "velocity": 74, "channel": 0}, {"time_played": 60.69401293750003, "midi_note": 45, "frequency": 110, "note_held": 0.3401699511718803, "velocity": 91, "channel": 0}, {"time_played": 60.69401293750003, "midi_note": 64, "frequency": 329.63, "note_held": 0.0016276074218749999, "velocity": 84, "channel": 0}, {"time_played": 61.034508410156285, "midi_note": 45, "frequency": 110, "note_held": 0.00032552148437499996, "velocity": 72, "channel": 0}, {"time_played": 61.034508410156285, "midi_note": 49, "frequency": 138.59, "note_held": 0.6578789199218775, "velocity": 72, "channel": 0}, {"time_played": 61.034508410156285, "midi_note": 52, "frequency": 164.81, "note_held": 0.6578789199218775, "velocity": 86, "channel": 0}, {"time_played": 61.694014937500036, "midi_note": 62, "frequency": 293.66, "note_held": 0.0016276074218749999, "velocity": 89, "channel": 0}, {"time_played": 61.694014937500036, "midi_note": 38, "frequency": 73.42, "note_held": 0.3401699511718732, "velocity": 76, "channel": 0}, {"time_played": 61.694014937500036, "midi_note": 50, "frequency": 146.83, "note_held": 0.3401699511718732, "velocity": 91, "channel": 0}, {"time_played": 61.869796539062534, "midi_note": 65, "frequency": 349.23, "note_held": 0.17578160156249997, "velocity": 89, "channel": 0}, {"time_played": 62.03451041015629, "midi_note": 50, "frequency": 146.83, "note_held": 0.3304043066406237, "velocity": 73, "channel": 0}, {"time_played": 62.03451041015629, "midi_note": 53, "frequency": 174.61, "note_held": 0.3304043066406237, "velocity": 73, "channel": 0}, {"time_played": 62.03451041015629, "midi_note": 57, "frequency": 220, "note_held": 0.3304043066406237, "velocity": 87, "channel": 0}, {"time_played": 62.03451041015629, "midi_note": 74, "frequency": 587.33, "note_held": 0.00032552148437499996, "velocity": 89, "channel": 0}, {"time_played": 62.36524023828129, "midi_note": 50, "frequency": 146.83, "note_held": 0.00032552148437499996, "velocity": 75, "channel": 0}, {"time_played": 62.36524023828129, "midi_note": 53, "frequency": 174.61, "note_held": 0.32714909179687623, "velocity": 75, "channel": 0}, {"time_played": 62.36524023828129, "midi_note": 57, "frequency": 220, "note_held": 0.32714909179687623, "velocity": 85, "channel": 0}, {"time_played": 62.69401693750004, "midi_note": 40, "frequency": 82.41, "note_held": 0.16569043554687113, "velocity": 84, "channel": 0}, {"time_played": 62.69401693750004, "midi_note": 62, "frequency": 293.66, "note_held": 0.0016276074218749999, "velocity": 89, "channel": 0}, {"time_played": 62.869798539062536, "midi_note": 52, "frequency": 164.81, "note_held": 0.16438834960937498, "velocity": 80, "channel": 0}, {"time_played": 62.869798539062536, "midi_note": 65, "frequency": 349.23, "note_held": 0.010091166015624998, "velocity": 89, "channel": 0}, {"time_played": 63.03451241015629, "midi_note": 52, "frequency": 164.81, "note_held": 0.6578789199218775, "velocity": 72, "channel": 0}, {"time_played": 63.03451241015629, "midi_note": 55, "frequency": 196, "note_held": 0.6578789199218775, "velocity": 72, "channel": 0}, {"time_played": 63.03451241015629, "midi_note": 59, "frequency": 246.94, "note_held": 0.6578789199218775, "velocity": 86, "channel": 0}, {"time_played": 63.03451241015629, "midi_note": 74, "frequency": 587.33, "note_held": 0.00032552148437499996, "velocity": 89, "channel": 0}, {"time_played": 63.69401893750004, "midi_note": 41, "frequency": 87.31, "note_held": 0.3401699511718661, "velocity": 77, "channel": 0}, {"time_played": 63.69401893750004, "midi_note": 53, "frequency": 174.61, "note_held": 0.3401699511718661, "velocity": 91, "channel": 0}, {"time_played": 63.69401893750004, "midi_note": 76, "frequency": 659.25, "note_held": 0.0016276074218749999, "velocity": 89, "channel": 0}, {"time_played": 64.03451441015628, "midi_note": 53, "frequency": 174.61, "note_held": 0.00032552148437499996, "velocity": 73, "channel": 0}, {"time_played": 64.03451441015628, "midi_note": 57, "frequency": 220, "note_held": 0.3304043066406308, "velocity": 73, "channel": 0}, {"time_played": 64.03451441015628, "midi_note": 60, "frequency": 261.63, "note_held": 0.3304043066406308, "velocity": 87, "channel": 0}, {"time_played": 64.20020484570315, "midi_note": 77, "frequency": 698.46, "note_held": 0.165690435546875, "velocity": 89, "channel": 0}, {"time_played": 64.36524423828128, "midi_note": 76, "frequency": 659.25, "note_held": 0.00032552148437499996, "velocity": 89, "channel": 0}, {"time_played": 64.36524423828128, "midi_note": 53, "frequency": 174.61, "note_held": 0.32714909179686913, "velocity": 75, "channel": 0}, {"time_played": 64.36524423828128, "midi_note": 57, "frequency": 220, "note_held": 0.32714909179686913, "velocity": 75, "channel": 0}, {"time_played": 64.36524423828128, "midi_note": 60, "frequency": 261.63, "note_held": 0.32714909179686913, "velocity": 85, "channel": 0}, {"time_played": 64.52833050195315, "midi_note": 77, "frequency": 698.46, "note_held": 0.143554974609375, "velocity": 89, "channel": 0}, {"time_played": 64.69402093750003, "midi_note": 40, "frequency": 82.41, "note_held": 0.16569043554687823, "velocity": 84, "channel": 0}, {"time_played": 64.69402093750003, "midi_note": 76, "frequency": 659.25, "note_held": 0.0016276074218749999, "velocity": 89, "channel": 0}, {"time_played": 64.86980253906253, "midi_note": 52, "frequency": 164.81, "note_held": 0.16438834960936788, "velocity": 80, "channel": 0}, {"time_played": 64.86980253906253, "midi_note": 72, "frequency": 523.25, "note_held": 0.010091166015624998, "velocity": 89, "channel": 0}, {"time_played": 65.03451641015627, "midi_note": 69, "frequency": 440, "note_held": 0.00032552148437499996, "velocity": 89, "channel": 0}, {"time_played": 65.03451641015627, "midi_note": 52, "frequency": 164.81, "note_held": 0.6578789199218704, "velocity": 72, "channel": 0}, {"time_played": 65.03451641015627, "midi_note": 55, "frequency": 196, "note_held": 0.6578789199218704, "velocity": 72, "channel": 0}, {"time_played": 65.03451641015627, "midi_note": 59, "frequency": 246.94, "note_held": 0.6578789199218704, "velocity": 86, "channel": 0}, {"time_played": 65.69402293750002, "midi_note": 34, "frequency": 58.27, "note_held": 0.3401699511718732, "velocity": 75, "channel": 0}, {"time_played": 65.69402293750002, "midi_note": 46, "frequency": 116.54, "note_held": 0.3401699511718732, "velocity": 91, "channel": 0}, {"time_played": 65.69402293750002, "midi_note": 69, "frequency": 440, "note_held": 0.0016276074218749999, "velocity": 89, "channel": 0}, {"time_played": 66.03451841015627, "midi_note": 46, "frequency": 116.54, "note_held": 0.3304043066406166, "velocity": 73, "channel": 0}, {"time_played": 66.03451841015627, "midi_note": 50, "frequency": 146.83, "note_held": 0.3304043066406166, "velocity": 73, "channel": 0}, {"time_played": 66.03451841015627, "midi_note": 53, "frequency": 174.61, "note_held": 0.3304043066406166, "velocity": 87, "channel": 0}, {"time_played": 66.03451841015627, "midi_note": 62, "frequency": 293.66, "note_held": 0.00032552148437499996, "velocity": 89, "channel": 0}, {"time_played": 66.36524823828125, "midi_note": 65, "frequency": 349.23, "note_held": 0.00032552148437499996, "velocity": 89, "channel": 0}, {"time_played": 66.36524823828125, "midi_note": 46, "frequency": 116.54, "note_held": 0.32714909179686913, "velocity": 75, "channel": 0}, {"time_played": 66.36524823828125, "midi_note": 50, "frequency": 146.83, "note_held": 0.32714909179686913, "velocity": 75, "channel": 0}, {"time_played": 66.36524823828125, "midi_note": 53, "frequency": 174.61, "note_held": 0.32714909179686913, "velocity": 89, "channel": 0}, {"time_played": 66.52833450195313, "midi_note": 67, "frequency": 392, "note_held": 0.15039092578125, "velocity": 89, "channel": 0}, {"time_played": 66.6940249375, "midi_note": 33, "frequency": 55, "note_held": 0.3401699511718732, "velocity": 74, "channel": 0}, {"time_played": 66.6940249375, "midi_note": 45, "frequency": 110, "note_held": 0.3401699511718732, "velocity": 91, "channel": 0}, {"time_played": 66.6940249375, "midi_note": 69, "frequency": 440, "note_held": 0.0016276074218749999, "velocity": 89, "channel": 0}, {"time_played": 67.03452041015625, "midi_note": 45, "frequency": 110, "note_held": 0.00032552148437499996, "velocity": 73, "channel": 0}, {"time_played": 67.03452041015625, "midi_note": 49, "frequency": 138.59, "note_held": 0.3304043066406308, "velocity": 73, "channel": 0}, {"time_played": 67.03452041015625, "midi_note": 52, "frequency": 164.81, "note_held": 0.3304043066406308, "velocity": 87, "channel": 0}, {"time_played": 67.36525023828125, "midi_note": 45, "frequency": 110, "note_held": 0.32714909179686913, "velocity": 75, "channel": 0}, {"time_played": 67.36525023828125, "midi_note": 49, "frequency": 138.59, "note_held": 0.32714909179686913, "velocity": 75, "channel": 0}, {"time_played": 67.36525023828125, "midi_note": 52, "frequency": 164.81, "note_held": 0.32714909179686913, "velocity": 89, "channel": 0}, {"time_played": 67.36525023828125, "midi_note": 69, "frequency": 440, "note_held": 0.00032552148437499996, "velocity": 89, "channel": 0}, {"time_played": 67.6940269375, "midi_note": 62, "frequency": 293.66, "note_held": 0.0016276074218749999, "velocity": 100, "channel": 0}, {"time_played": 67.6940269375, "midi_note": 38, "frequency": 73.42, "note_held": 0.9983743925781141, "velocity": 87, "channel": 0}, {"time_played": 67.6940269375, "midi_note": 50, "frequency": 146.83, "note_held": 0.9983743925781141, "velocity": 102, "channel": 0}, {"time_played": 68.03452241015624, "midi_note": 62, "frequency": 293.66, "note_held": 0.00032552148437499996, "velocity": 82, "channel": 0}, {"time_played": 68.03452241015624, "midi_note": 65, "frequency": 349.23, "note_held": 0.3304043066406308, "velocity": 82, "channel": 0}, {"time_played": 68.03452241015624, "midi_note": 69, "frequency": 440, "note_held": 0.3304043066406308, "velocity": 82, "channel": 0}, {"time_played": 68.03452241015624, "midi_note": 74, "frequency": 587.33, "note_held": 0.3304043066406308, "velocity": 92, "channel": 0}, {"time_played": 68.36525223828124, "midi_note": 62, "frequency": 293.66, "note_held": 0.00032552148437499996, "velocity": 84, "channel": 0}, {"time_played": 68.36525223828124, "midi_note": 65, "frequency": 349.23, "note_held": 0.32714909179686913, "velocity": 84, "channel": 0}, {"time_played": 68.36525223828124, "midi_note": 69, "frequency": 440, "note_held": 0.32714909179686913, "velocity": 84, "channel": 0}, {"time_played": 68.36525223828124, "midi_note": 74, "frequency": 587.33, "note_held": 0.32714909179686913, "velocity": 94, "channel": 0}, {"time_played": 68.6940289375, "midi_note": 40, "frequency": 82.41, "note_held": 0.0016276074218749999, "velocity": 71, "channel": 0}, {"time_played": 68.6940289375, "midi_note": 52, "frequency": 164.81, "note_held": 0.9983743925781283, "velocity": 86, "channel": 0}, {"time_played": 68.8698105390625, "midi_note": 64, "frequency": 329.63, "note_held": 0.17578160156249997, "velocity": 89, "channel": 0}, {"time_played": 69.03452441015625, "midi_note": 67, "frequency": 392, "note_held": 0.16471387109375, "velocity": 81, "channel": 0}, {"time_played": 69.03452441015625, "midi_note": 71, "frequency": 493.88, "note_held": 0.6578789199218704, "velocity": 81, "channel": 0}, {"time_played": 69.03452441015625, "midi_note": 76, "frequency": 659.25, "note_held": 0.6578789199218704, "velocity": 95, "channel": 0}, {"time_played": 69.6940309375, "midi_note": 41, "frequency": 87.31, "note_held": 0.0016276074218749999, "velocity": 72, "channel": 0}, {"time_played": 69.6940309375, "midi_note": 53, "frequency": 174.61, "note_held": 0.9983743925781141, "velocity": 86, "channel": 0}, {"time_played": 70.03452641015625, "midi_note": 65, "frequency": 349.23, "note_held": 0.34049547265624996, "velocity": 55, "channel": 0}, {"time_played": 70.03452641015625, "midi_note": 69, "frequency": 440, "note_held": 0.3304043066406308, "velocity": 55, "channel": 0}, {"time_played": 70.03452641015625, "midi_note": 72, "frequency": 523.25, "note_held": 0.3304043066406308, "velocity": 55, "channel": 0}, {"time_played": 70.03452641015625, "midi_note": 77, "frequency": 698.46, "note_held": 0.3304043066406308, "velocity": 69, "channel": 0}, {"time_played": 70.36525623828125, "midi_note": 65, "frequency": 349.23, "note_held": 0.00032552148437499996, "velocity": 57, "channel": 0}, {"time_played": 70.36525623828125, "midi_note": 69, "frequency": 440, "note_held": 0.32714909179686913, "velocity": 57, "channel": 0}, {"time_played": 70.36525623828125, "midi_note": 72, "frequency": 523.25, "note_held": 0.32714909179686913, "velocity": 57, "channel": 0}, {"time_played": 70.36525623828125, "midi_note": 77, "frequency": 698.46, "note_held": 0.32714909179686913, "velocity": 67, "channel": 0}, {"time_played": 70.6940329375, "midi_note": 40, "frequency": 82.41, "note_held": 0.0016276074218749999, "velocity": 71, "channel": 0}, {"time_played": 70.6940329375, "midi_note": 52, "frequency": 164.81, "note_held": 0.9983743925781283, "velocity": 86, "channel": 0}, {"time_played": 70.8698145390625, "midi_note": 64, "frequency": 329.63, "note_held": 0.17578160156249997, "velocity": 62, "channel": 0}, {"time_played": 71.03452841015626, "midi_note": 67, "frequency": 392, "note_held": 0.16471387109375, "velocity": 54, "channel": 0}, {"time_played": 71.03452841015626, "midi_note": 71, "frequency": 493.88, "note_held": 0.6578789199218704, "velocity": 54, "channel": 0}, {"time_played": 71.03452841015626, "midi_note": 76, "frequency": 659.25, "note_held": 0.6578789199218704, "velocity": 68, "channel": 0}, {"time_played": 71.6940349375, "midi_note": 38, "frequency": 73.42, "note_held": 0.0016276074218749999, "velocity": 71, "channel": 0}, {"time_played": 71.6940349375, "midi_note": 50, "frequency": 146.83, "note_held": 0.9983743925781141, "velocity": 86, "channel": 0}, {"time_played": 72.03453041015625, "midi_note": 62, "frequency": 293.66, "note_held": 0.34049547265624996, "velocity": 55, "channel": 0}, {"time_played": 72.03453041015625, "midi_note": 65, "frequency": 349.23, "note_held": 0.3304043066406308, "velocity": 55, "channel": 0}, {"time_played": 72.03453041015625, "midi_note": 69, "frequency": 440, "note_held": 0.3304043066406308, "velocity": 55, "channel": 0}, {"time_played": 72.03453041015625, "midi_note": 74, "frequency": 587.33, "note_held": 0.3304043066406308, "velocity": 69, "channel": 0}, {"time_played": 72.36526023828125, "midi_note": 62, "frequency": 293.66, "note_held": 0.00032552148437499996, "velocity": 57, "channel": 0}, {"time_played": 72.36526023828125, "midi_note": 65, "frequency": 349.23, "note_held": 0.32714909179686913, "velocity": 57, "channel": 0}, {"time_played": 72.36526023828125, "midi_note": 69, "frequency": 440, "note_held": 0.32714909179686913, "velocity": 57, "channel": 0}, {"time_played": 72.36526023828125, "midi_note": 74, "frequency": 587.33, "note_held": 0.32714909179686913, "velocity": 67, "channel": 0}, {"time_played": 72.6940369375, "midi_note": 40, "frequency": 82.41, "note_held": 0.0016276074218749999, "velocity": 71, "channel": 0}, {"time_played": 72.6940369375, "midi_note": 52, "frequency": 164.81, "note_held": 0.9983743925781283, "velocity": 86, "channel": 0}, {"time_played": 72.8698185390625, "midi_note": 64, "frequency": 329.63, "note_held": 0.17578160156249997, "velocity": 62, "channel": 0}, {"time_played": 73.03453241015626, "midi_note": 67, "frequency": 392, "note_held": 0.16471387109375, "velocity": 54, "channel": 0}, {"time_played": 73.03453241015626, "midi_note": 71, "frequency": 493.88, "note_held": 0.6578789199218704, "velocity": 54, "channel": 0}, {"time_played": 73.03453241015626, "midi_note": 76, "frequency": 659.25, "note_held": 0.6578789199218704, "velocity": 68, "channel": 0}, {"time_played": 73.69403893750001, "midi_note": 41, "frequency": 87.31, "note_held": 0.0016276074218749999, "velocity": 72, "channel": 0}, {"time_played": 73.69403893750001, "midi_note": 53, "frequency": 174.61, "note_held": 0.9983743925781141, "velocity": 86, "channel": 0}, {"time_played": 74.03453441015625, "midi_note": 65, "frequency": 349.23, "note_held": 0.34049547265624996, "velocity": 55, "channel": 0}, {"time_played": 74.03453441015625, "midi_note": 69, "frequency": 440, "note_held": 0.3304043066406308, "velocity": 55, "channel": 0}, {"time_played": 74.03453441015625, "midi_note": 72, "frequency": 523.25, "note_held": 0.3304043066406308, "velocity": 55, "channel": 0}, {"time_played": 74.03453441015625, "midi_note": 77, "frequency": 698.46, "note_held": 0.3304043066406308, "velocity": 69, "channel": 0}, {"time_played": 74.36526423828126, "midi_note": 65, "frequency": 349.23, "note_held": 0.00032552148437499996, "velocity": 57, "channel": 0}, {"time_played": 74.36526423828126, "midi_note": 69, "frequency": 440, "note_held": 0.32714909179686913, "velocity": 57, "channel": 0}, {"time_played": 74.36526423828126, "midi_note": 72, "frequency": 523.25, "note_held": 0.32714909179686913, "velocity": 57, "channel": 0}, {"time_played": 74.36526423828126, "midi_note": 77, "frequency": 698.46, "note_held": 0.32714909179686913, "velocity": 67, "channel": 0}, {"time_played": 74.6940409375, "midi_note": 40, "frequency": 82.41, "note_held": 0.0016276074218749999, "velocity": 71, "channel": 0}, {"time_played": 74.6940409375, "midi_note": 52, "frequency": 164.81, "note_held": 0.9983743925781283, "velocity": 86, "channel": 0}, {"time_played": 74.86982253906251, "midi_note": 64, "frequency": 329.63, "note_held": 0.17578160156249997, "velocity": 62, "channel": 0}, {"time_played": 75.03453641015626, "midi_note": 67, "frequency": 392, "note_held": 0.16471387109375, "velocity": 54, "channel": 0}, {"time_played": 75.03453641015626, "midi_note": 71, "frequency": 493.88, "note_held": 0.6578789199218704, "velocity": 54, "channel": 0}, {"time_played": 75.03453641015626, "midi_note": 76, "frequency": 659.25, "note_held": 0.6578789199218704, "velocity": 68, "channel": 0}, {"time_played": 75.69404293750002, "midi_note": 74, "frequency": 587.33, "note_held": 0.0016276074218749999, "velocity": 62, "channel": 0}, {"time_played": 75.69404293750002, "midi_note": 38, "frequency": 73.42, "note_held": 0.3401699511718732, "velocity": 76, "channel": 0}, {"time_played": 75.69404293750002, "midi_note": 50, "frequency": 146.83, "note_held": 0.3401699511718732, "velocity": 91, "channel": 0}, {"time_played": 75.86982453906252, "midi_note": 77, "frequency": 698.46, "note_held": 0.17578160156249997, "velocity": 62, "channel": 0}, {"time_played": 76.03453841015626, "midi_note": 62, "frequency": 293.66, "note_held": 0.3304043066406308, "velocity": 73, "channel": 0}, {"time_played": 76.03453841015626, "midi_note": 65, "frequency": 349.23, "note_held": 0.3304043066406308, "velocity": 73, "channel": 0}, {"time_played": 76.03453841015626, "midi_note": 69, "frequency": 440, "note_held": 0.3304043066406308, "velocity": 87, "channel": 0}, {"time_played": 76.03453841015626, "midi_note": 86, "frequency": 1174.66, "note_held": 0.00032552148437499996, "velocity": 62, "channel": 0}, {"time_played": 76.36526823828126, "midi_note": 62, "frequency": 293.66, "note_held": 0.00032552148437499996, "velocity": 75, "channel": 0}, {"time_played": 76.36526823828126, "midi_note": 65, "frequency": 349.23, "note_held": 0.32714909179686913, "velocity": 75, "channel": 0}, {"time_played": 76.36526823828126, "midi_note": 69, "frequency": 440, "note_held": 0.32714909179686913, "velocity": 85, "channel": 0}, {"time_played": 76.69404493750001, "midi_note": 40, "frequency": 82.41, "note_held": 0.16569043554687823, "velocity": 84, "channel": 0}, {"time_played": 76.69404493750001, "midi_note": 74, "frequency": 587.33, "note_held": 0.0016276074218749999, "velocity": 62, "channel": 0}, {"time_played": 76.86982653906252, "midi_note": 52, "frequency": 164.81, "note_held": 0.15462270507812548, "velocity": 80, "channel": 0}, {"time_played": 76.86982653906252, "midi_note": 77, "frequency": 698.46, "note_held": 0.010091166015624998, "velocity": 62, "channel": 0}, {"time_played": 77.03454041015627, "midi_note": 64, "frequency": 329.63, "note_held": 0.6578789199218704, "velocity": 72, "channel": 0}, {"time_played": 77.03454041015627, "midi_note": 67, "frequency": 392, "note_held": 0.6578789199218704, "velocity": 72, "channel": 0}, {"time_played": 77.03454041015627, "midi_note": 71, "frequency": 493.88, "note_held": 0.6578789199218704, "velocity": 86, "channel": 0}, {"time_played": 77.03454041015627, "midi_note": 86, "frequency": 1174.66, "note_held": 0.010091166015624998, "velocity": 62, "channel": 0}, {"time_played": 77.69404693750002, "midi_note": 41, "frequency": 87.31, "note_held": 0.3401699511718732, "velocity": 77, "channel": 0}, {"time_played": 77.69404693750002, "midi_note": 53, "frequency": 174.61, "note_held": 0.3401699511718732, "velocity": 91, "channel": 0}, {"time_played": 77.69404693750002, "midi_note": 88, "frequency": 1318.51, "note_held": 0.0016276074218749999, "velocity": 62, "channel": 0}, {"time_played": 78.03454241015626, "midi_note": 65, "frequency": 349.23, "note_held": 0.00032552148437499996, "velocity": 73, "channel": 0}, {"time_played": 78.03454241015626, "midi_note": 69, "frequency": 440, "note_held": 0.3304043066406308, "velocity": 73, "channel": 0}, {"time_played": 78.03454241015626, "midi_note": 72, "frequency": 523.25, "note_held": 0.3304043066406308, "velocity": 87, "channel": 0}, {"time_played": 78.20023284570314, "midi_note": 89, "frequency": 1396.91, "note_held": 0.165690435546875, "velocity": 62, "channel": 0}, {"time_played": 78.36527223828126, "midi_note": 88, "frequency": 1318.51, "note_held": 0.00032552148437499996, "velocity": 62, "channel": 0}, {"time_played": 78.36527223828126, "midi_note": 65, "frequency": 349.23, "note_held": 0.32714909179686913, "velocity": 75, "channel": 0}, {"time_played": 78.36527223828126, "midi_note": 69, "frequency": 440, "note_held": 0.32714909179686913, "velocity": 75, "channel": 0}, {"time_played": 78.36527223828126, "midi_note": 72, "frequency": 523.25, "note_held": 0.32714909179686913, "velocity": 85, "channel": 0}, {"time_played": 78.52835850195314, "midi_note": 89, "frequency": 1396.91, "note_held": 0.143554974609375, "velocity": 62, "channel": 0}, {"time_played": 78.69404893750001, "midi_note": 40, "frequency": 82.41, "note_held": 0.16569043554687823, "velocity": 84, "channel": 0}, {"time_played": 78.69404893750001, "midi_note": 88, "frequency": 1318.51, "note_held": 0.0016276074218749999, "velocity": 62, "channel": 0}, {"time_played": 78.86983053906252, "midi_note": 52, "frequency": 164.81, "note_held": 0.15462270507812548, "velocity": 80, "channel": 0}, {"time_played": 78.86983053906252, "midi_note": 84, "frequency": 1046.5, "note_held": 0.010091166015624998, "velocity": 62, "channel": 0}, {"time_played": 79.03454441015627, "midi_note": 81, "frequency": 880, "note_held": 0.010091166015624998, "velocity": 62, "channel": 0}, {"time_played": 79.03454441015627, "midi_note": 64, "frequency": 329.63, "note_held": 0.6578789199218704, "velocity": 72, "channel": 0}, {"time_played": 79.03454441015627, "midi_note": 67, "frequency": 392, "note_held": 0.6578789199218704, "velocity": 72, "channel": 0}, {"time_played": 79.03454441015627, "midi_note": 71, "frequency": 493.88, "note_held": 0.6578789199218704, "velocity": 86, "channel": 0}, {"time_played": 79.69405093750002, "midi_note": 34, "frequency": 58.27, "note_held": 0.3401699511718732, "velocity": 75, "channel": 0}, {"time_played": 79.69405093750002, "midi_note": 46, "frequency": 116.54, "note_held": 0.3401699511718732, "velocity": 91, "channel": 0}, {"time_played": 79.69405093750002, "midi_note": 81, "frequency": 880, "note_held": 0.0016276074218749999, "velocity": 62, "channel": 0}, {"time_played": 80.03454641015627, "midi_note": 58, "frequency": 233.08, "note_held": 0.3304043066406166, "velocity": 73, "channel": 0}, {"time_played": 80.03454641015627, "midi_note": 62, "frequency": 293.66, "note_held": 0.3304043066406166, "velocity": 73, "channel": 0}, {"time_played": 80.03454641015627, "midi_note": 65, "frequency": 349.23, "note_held": 0.3304043066406166, "velocity": 87, "channel": 0}, {"time_played": 80.03454641015627, "midi_note": 74, "frequency": 587.33, "note_held": 0.00032552148437499996, "velocity": 62, "channel": 0}, {"time_played": 80.36527623828125, "midi_note": 77, "frequency": 698.46, "note_held": 0.00032552148437499996, "velocity": 62, "channel": 0}, {"time_played": 80.36527623828125, "midi_note": 58, "frequency": 233.08, "note_held": 0.32714909179686913, "velocity": 75, "channel": 0}, {"time_played": 80.36527623828125, "midi_note": 62, "frequency": 293.66, "note_held": 0.32714909179686913, "velocity": 75, "channel": 0}, {"time_played": 80.36527623828125, "midi_note": 65, "frequency": 349.23, "note_held": 0.32714909179686913, "velocity": 89, "channel": 0}, {"time_played": 80.52836250195313, "midi_note": 79, "frequency": 783.99, "note_held": 0.15039092578125, "velocity": 62, "channel": 0}, {"time_played": 80.6940529375, "midi_note": 29, "frequency": 43.65, "note_held": 0.3401699511718732, "velocity": 73, "channel": 0}, {"time_played": 80.6940529375, "midi_note": 41, "frequency": 87.31, "note_held": 0.3401699511718732, "velocity": 91, "channel": 0}, {"time_played": 80.6940529375, "midi_note": 81, "frequency": 880, "note_held": 0.0016276074218749999, "velocity": 62, "channel": 0}, {"time_played": 81.03454841015625, "midi_note": 53, "frequency": 174.61, "note_held": 0.00032552148437499996, "velocity": 72, "channel": 0}, {"time_played": 81.03454841015625, "midi_note": 60, "frequency": 261.63, "note_held": 0.6578789199218704, "velocity": 72, "channel": 0}, {"time_played": 81.03454841015625, "midi_note": 65, "frequency": 349.23, "note_held": 0.6578789199218704, "velocity": 86, "channel": 0}, {"time_played": 81.6940549375, "midi_note": 34, "frequency": 58.27, "note_held": 0.3401699511718732, "velocity": 75, "channel": 0}, {"time_played": 81.6940549375, "midi_note": 46, "frequency": 116.54, "note_held": 0.3401699511718732, "velocity": 91, "channel": 0}, {"time_played": 81.6940549375, "midi_note": 81, "frequency": 880, "note_held": 0.0016276074218749999, "velocity": 62, "channel": 0}, {"time_played": 82.03455041015624, "midi_note": 58, "frequency": 233.08, "note_held": 0.3304043066406166, "velocity": 73, "channel": 0}, {"time_played": 82.03455041015624, "midi_note": 62, "frequency": 293.66, "note_held": 0.3304043066406166, "velocity": 73, "channel": 0}, {"time_played": 82.03455041015624, "midi_note": 65, "frequency": 349.23, "note_held": 0.3304043066406166, "velocity": 87, "channel": 0}, {"time_played": 82.03455041015624, "midi_note": 74, "frequency": 587.33, "note_held": 0.00032552148437499996, "velocity": 62, "channel": 0}, {"time_played": 82.36528023828123, "midi_note": 77, "frequency": 698.46, "note_held": 0.00032552148437499996, "velocity": 50, "channel": 0}, {"time_played": 82.36528023828123, "midi_note": 58, "frequency": 233.08, "note_held": 0.3271490917968407, "velocity": 75, "channel": 0}, {"time_played": 82.36528023828123, "midi_note": 62, "frequency": 293.66, "note_held": 0.3271490917968407, "velocity": 75, "channel": 0}, {"time_played": 82.36528023828123, "midi_note": 65, "frequency": 349.23, "note_held": 0.3271490917968407, "velocity": 89, "channel": 0}, {"time_played": 82.52608785156247, "midi_note": 77, "frequency": 698.46, "note_held": 0.00032552148437499996, "velocity": 50, "channel": 0}, {"time_played": 82.57979889648433, "midi_note": 79, "frequency": 783.99, "note_held": 0.05371104492187499, "velocity": 50, "channel": 0}, {"time_played": 82.6335099414062, "midi_note": 77, "frequency": 698.46, "note_held": 0.047526136718749994, "velocity": 50, "channel": 0}, {"time_played": 82.69405693749995, "midi_note": 33, "frequency": 55, "note_held": 0.3401699511718732, "velocity": 74, "channel": 0}, {"time_played": 82.69405693749995, "midi_note": 45, "frequency": 110, "note_held": 0.3401699511718732, "velocity": 91, "channel": 0}, {"time_played": 82.69405693749995, "midi_note": 76, "frequency": 659.25, "note_held": 0.0016276074218749999, "velocity": 57, "channel": 0}, {"time_played": 83.0345524101562, "midi_note": 57, "frequency": 220, "note_held": 0.00032552148437499996, "velocity": 72, "channel": 0}, {"time_played": 83.0345524101562, "midi_note": 61, "frequency": 277.18, "note_held": 0.6578789199218704, "velocity": 72, "channel": 0}, {"time_played": 83.0345524101562, "midi_note": 64, "frequency": 329.63, "note_held": 0.6578789199218704, "velocity": 86, "channel": 0}, {"time_played": 83.69405893749995, "midi_note": 74, "frequency": 587.33, "note_held": 0.0016276074218749999, "velocity": 62, "channel": 0}, {"time_played": 83.69405893749995, "midi_note": 38, "frequency": 73.42, "note_held": 0.3401699511718732, "velocity": 76, "channel": 0}, {"time_played": 83.69405893749995, "midi_note": 50, "frequency": 146.83, "note_held": 0.3401699511718732, "velocity": 91, "channel": 0}, {"time_played": 83.86984053906245, "midi_note": 77, "frequency": 698.46, "note_held": 0.17578160156249997, "velocity": 62, "channel": 0}, {"time_played": 84.03455441015619, "midi_note": 62, "frequency": 293.66, "note_held": 0.3304043066406308, "velocity": 73, "channel": 0}, {"time_played": 84.03455441015619, "midi_note": 65, "frequency": 349.23, "note_held": 0.3304043066406308, "velocity": 73, "channel": 0}, {"time_played": 84.03455441015619, "midi_note": 69, "frequency": 440, "note_held": 0.3304043066406308, "velocity": 87, "channel": 0}, {"time_played": 84.03455441015619, "midi_note": 86, "frequency": 1174.66, "note_held": 0.00032552148437499996, "velocity": 62, "channel": 0}, {"time_played": 84.36528423828119, "midi_note": 62, "frequency": 293.66, "note_held": 0.00032552148437499996, "velocity": 75, "channel": 0}, {"time_played": 84.36528423828119, "midi_note": 65, "frequency": 349.23, "note_held": 0.32714909179686913, "velocity": 75, "channel": 0}, {"time_played": 84.36528423828119, "midi_note": 69, "frequency": 440, "note_held": 0.32714909179686913, "velocity": 85, "channel": 0}, {"time_played": 84.69406093749994, "midi_note": 40, "frequency": 82.41, "note_held": 0.16569043554687823, "velocity": 84, "channel": 0}, {"time_played": 84.69406093749994, "midi_note": 74, "frequency": 587.33, "note_held": 0.0016276074218749999, "velocity": 62, "channel": 0}, {"time_played": 84.86984253906245, "midi_note": 52, "frequency": 164.81, "note_held": 0.15462270507812548, "velocity": 80, "channel": 0}, {"time_played": 84.86984253906245, "midi_note": 77, "frequency": 698.46, "note_held": 0.010091166015624998, "velocity": 62, "channel": 0}, {"time_played": 85.0345564101562, "midi_note": 64, "frequency": 329.63, "note_held": 0.6578789199218704, "velocity": 72, "channel": 0}, {"time_played": 85.0345564101562, "midi_note": 67, "frequency": 392, "note_held": 0.6578789199218704, "velocity": 72, "channel": 0}, {"time_played": 85.0345564101562, "midi_note": 71, "frequency": 493.88, "note_held": 0.6578789199218704, "velocity": 86, "channel": 0}, {"time_played": 85.0345564101562, "midi_note": 86, "frequency": 1174.66, "note_held": 0.010091166015624998, "velocity": 62, "channel": 0}, {"time_played": 85.69406293749995, "midi_note": 41, "frequency": 87.31, "note_held": 0.3401699511718732, "velocity": 77, "channel": 0}, {"time_played": 85.69406293749995, "midi_note": 53, "frequency": 174.61, "note_held": 0.3401699511718732, "velocity": 91, "channel": 0}, {"time_played": 85.69406293749995, "midi_note": 88, "frequency": 1318.51, "note_held": 0.0016276074218749999, "velocity": 62, "channel": 0}, {"time_played": 86.0345584101562, "midi_note": 65, "frequency": 349.23, "note_held": 0.00032552148437499996, "velocity": 73, "channel": 0}, {"time_played": 86.0345584101562, "midi_note": 69, "frequency": 440, "note_held": 0.3304043066406308, "velocity": 73, "channel": 0}, {"time_played": 86.0345584101562, "midi_note": 72, "frequency": 523.25, "note_held": 0.3304043066406308, "velocity": 87, "channel": 0}, {"time_played": 86.20024884570307, "midi_note": 89, "frequency": 1396.91, "note_held": 0.165690435546875, "velocity": 62, "channel": 0}, {"time_played": 86.3652882382812, "midi_note": 88, "frequency": 1318.51, "note_held": 0.00032552148437499996, "velocity": 62, "channel": 0}, {"time_played": 86.3652882382812, "midi_note": 65, "frequency": 349.23, "note_held": 0.32714909179686913, "velocity": 75, "channel": 0}, {"time_played": 86.3652882382812, "midi_note": 69, "frequency": 440, "note_held": 0.32714909179686913, "velocity": 75, "channel": 0}, {"time_played": 86.3652882382812, "midi_note": 72, "frequency": 523.25, "note_held": 0.32714909179686913, "velocity": 85, "channel": 0}, {"time_played": 86.52837450195307, "midi_note": 89, "frequency": 1396.91, "note_held": 0.143554974609375, "velocity": 62, "channel": 0}, {"time_played": 86.69406493749995, "midi_note": 40, "frequency": 82.41, "note_held": 0.16569043554687823, "velocity": 84, "channel": 0}, {"time_played": 86.69406493749995, "midi_note": 88, "frequency": 1318.51, "note_held": 0.0016276074218749999, "velocity": 62, "channel": 0}, {"time_played": 86.86984653906245, "midi_note": 52, "frequency": 164.81, "note_held": 0.15462270507812548, "velocity": 80, "channel": 0}, {"time_played": 86.86984653906245, "midi_note": 84, "frequency": 1046.5, "note_held": 0.010091166015624998, "velocity": 62, "channel": 0}, {"time_played": 87.0345604101562, "midi_note": 81, "frequency": 880, "note_held": 0.010091166015624998, "velocity": 62, "channel": 0}, {"time_played": 87.0345604101562, "midi_note": 64, "frequency": 329.63, "note_held": 0.6578789199218704, "velocity": 72, "channel": 0}, {"time_played": 87.0345604101562, "midi_note": 67, "frequency": 392, "note_held": 0.6578789199218704, "velocity": 72, "channel": 0}, {"time_played": 87.0345604101562, "midi_note": 71, "frequency": 493.88, "note_held": 0.6578789199218704, "velocity": 86, "channel": 0}, {"time_played": 87.69406693749995, "midi_note": 34, "frequency": 58.27, "note_held": 0.3401699511718732, "velocity": 75, "channel": 0}, {"time_played": 87.69406693749995, "midi_note": 46, "frequency": 116.54, "note_held": 0.3401699511718732, "velocity": 91, "channel": 0}, {"time_played": 87.69406693749995, "midi_note": 81, "frequency": 880, "note_held": 0.0016276074218749999, "velocity": 62, "channel": 0}, {"time_played": 88.0345624101562, "midi_note": 58, "frequency": 233.08, "note_held": 0.3304043066406166, "velocity": 73, "channel": 0}, {"time_played": 88.0345624101562, "midi_note": 62, "frequency": 293.66, "note_held": 0.3304043066406166, "velocity": 73, "channel": 0}, {"time_played": 88.0345624101562, "midi_note": 65, "frequency": 349.23, "note_held": 0.3304043066406166, "velocity": 87, "channel": 0}, {"time_played": 88.0345624101562, "midi_note": 74, "frequency": 587.33, "note_held": 0.00032552148437499996, "velocity": 62, "channel": 0}, {"time_played": 88.36529223828119, "midi_note": 77, "frequency": 698.46, "note_held": 0.00032552148437499996, "velocity": 62, "channel": 0}, {"time_played": 88.36529223828119, "midi_note": 58, "frequency": 233.08, "note_held": 0.32714909179686913, "velocity": 75, "channel": 0}, {"time_played": 88.36529223828119, "midi_note": 62, "frequency": 293.66, "note_held": 0.32714909179686913, "velocity": 75, "channel": 0}, {"time_played": 88.36529223828119, "midi_note": 65, "frequency": 349.23, "note_held": 0.32714909179686913, "velocity": 89, "channel": 0}, {"time_played": 88.52837850195306, "midi_note": 79, "frequency": 783.99, "note_held": 0.15039092578125, "velocity": 62, "channel": 0}, {"time_played": 88.69406893749992, "midi_note": 81, "frequency": 880, "note_held": 0.0013020859374999999, "velocity": 62, "channel": 0}, {"time_played": 88.69406893749992, "midi_note": 33, "frequency": 55, "note_held": 0.3579835693359428, "velocity": 74, "channel": 0}, {"time_played": 88.69406893749992, "midi_note": 45, "frequency": 110, "note_held": 0.3579835693359428, "velocity": 91, "channel": 0}, {"time_played": 89.05241760351555, "midi_note": 81, "frequency": 880, "note_held": 0.0003650966796875, "velocity": 62, "channel": 0}, {"time_played": 89.05241760351555, "midi_note": 57, "frequency": 220, "note_held": 0.4306747900390633, "velocity": 55, "channel": 0}, {"time_played": 89.05241760351555, "midi_note": 61, "frequency": 277.18, "note_held": 0.4306747900390633, "velocity": 55, "channel": 0}, {"time_played": 89.05241760351555, "midi_note": 64, "frequency": 329.63, "note_held": 0.4306747900390633, "velocity": 69, "channel": 0}, {"time_played": 89.48495463476556, "midi_note": 57, "frequency": 220, "note_held": 1.8715524169921878, "velocity": 57, "channel": 0}, {"time_played": 89.48495463476556, "midi_note": 61, "frequency": 277.18, "note_held": 1.8715524169921878, "velocity": 57, "channel": 0}, {"time_played": 89.48495463476556, "midi_note": 64, "frequency": 329.63, "note_held": 1.8715524169921878, "velocity": 71, "channel": 0}, {"time_played": 89.48495463476556, "midi_note": 81, "frequency": 880, "note_held": 0.0018622412109374998, "velocity": 62, "channel": 0}, {"time_played": 91.35967137890619, "midi_note": 62, "frequency": 293.66, "note_held": 0.0013020859374999999, "velocity": 65, "channel": 0}, {"time_played": 91.35967137890619, "midi_note": 74, "frequency": 587.33, "note_held": 0.3401699511718732, "velocity": 79, "channel": 0}, {"time_played": 91.35967137890619, "midi_note": 38, "frequency": 73.42, "note_held": 0.9983743925781141, "velocity": 69, "channel": 0}, {"time_played": 91.35967137890619, "midi_note": 50, "frequency": 146.83, "note_held": 0.9983743925781141, "velocity": 84, "channel": 0}, {"time_played": 91.70016685156243, "midi_note": 62, "frequency": 293.66, "note_held": 0.00032552148437499996, "velocity": 55, "channel": 0}, {"time_played": 91.70016685156243, "midi_note": 65, "frequency": 349.23, "note_held": 0.3304043066406308, "velocity": 55, "channel": 0}, {"time_played": 91.70016685156243, "midi_note": 69, "frequency": 440, "note_held": 0.3304043066406308, "velocity": 69, "channel": 0}, {"time_played": 92.03089667968743, "midi_note": 62, "frequency": 293.66, "note_held": 0.00032552148437499996, "velocity": 57, "channel": 0}, {"time_played": 92.03089667968743, "midi_note": 65, "frequency": 349.23, "note_held": 0.32714909179686913, "velocity": 57, "channel": 0}, {"time_played": 92.03089667968743, "midi_note": 69, "frequency": 440, "note_held": 0.32714909179686913, "velocity": 67, "channel": 0}, {"time_played": 92.35967337890618, "midi_note": 40, "frequency": 82.41, "note_held": 0.0016276074218749999, "velocity": 53, "channel": 0}, {"time_played": 92.35967337890618, "midi_note": 52, "frequency": 164.81, "note_held": 0.9983743925781283, "velocity": 68, "channel": 0}, {"time_played": 92.53545498046869, "midi_note": 64, "frequency": 329.63, "note_held": 0.17578160156249997, "velocity": 62, "channel": 0}, {"time_played": 92.70016885156244, "midi_note": 67, "frequency": 392, "note_held": 0.16471387109375, "velocity": 54, "channel": 0}, {"time_played": 92.70016885156244, "midi_note": 71, "frequency": 493.88, "note_held": 0.6578789199218704, "velocity": 68, "channel": 0}, {"time_played": 93.35967537890619, "midi_note": 41, "frequency": 87.31, "note_held": 0.0016276074218749999, "velocity": 54, "channel": 0}, {"time_played": 93.35967537890619, "midi_note": 53, "frequency": 174.61, "note_held": 0.9983743925781141, "velocity": 68, "channel": 0}, {"time_played": 93.70017085156243, "midi_note": 65, "frequency": 349.23, "note_held": 0.34049547265624996, "velocity": 55, "channel": 0}, {"time_played": 93.70017085156243, "midi_note": 69, "frequency": 440, "note_held": 0.3304043066406308, "velocity": 55, "channel": 0}, {"time_played": 93.70017085156243, "midi_note": 72, "frequency": 523.25, "note_held": 0.3304043066406308, "velocity": 69, "channel": 0}, {"time_played": 94.03090067968743, "midi_note": 65, "frequency": 349.23, "note_held": 0.00032552148437499996, "velocity": 57, "channel": 0}, {"time_played": 94.03090067968743, "midi_note": 69, "frequency": 440, "note_held": 0.32714909179686913, "velocity": 57, "channel": 0}, {"time_played": 94.03090067968743, "midi_note": 72, "frequency": 523.25, "note_held": 0.32714909179686913, "velocity": 67, "channel": 0}, {"time_played": 94.35967737890618, "midi_note": 40, "frequency": 82.41, "note_held": 0.0016276074218749999, "velocity": 53, "channel": 0}, {"time_played": 94.35967737890618, "midi_note": 52, "frequency": 164.81, "note_held": 0.9983743925781283, "velocity": 68, "channel": 0}, {"time_played": 94.53545898046869, "midi_note": 64, "frequency": 329.63, "note_held": 0.17578160156249997, "velocity": 62, "channel": 0}, {"time_played": 94.70017285156244, "midi_note": 67, "frequency": 392, "note_held": 0.16471387109375, "velocity": 54, "channel": 0}, {"time_played": 94.70017285156244, "midi_note": 71, "frequency": 493.88, "note_held": 0.6578789199218704, "velocity": 68, "channel": 0}, {"time_played": 95.3596793789062, "midi_note": 62, "frequency": 293.66, "note_held": 0.0016276074218749999, "velocity": 75, "channel": 0}, {"time_played": 95.3596793789062, "midi_note": 74, "frequency": 587.33, "note_held": 0.3401699511718732, "velocity": 89, "channel": 0}, {"time_played": 95.3596793789062, "midi_note": 38, "frequency": 73.42, "note_held": 0.9983743925781141, "velocity": 69, "channel": 0}, {"time_played": 95.3596793789062, "midi_note": 50, "frequency": 146.83, "note_held": 0.9983743925781141, "velocity": 84, "channel": 0}, {"time_played": 95.70017485156244, "midi_note": 62, "frequency": 293.66, "note_held": 0.00032552148437499996, "velocity": 55, "channel": 0}, {"time_played": 95.70017485156244, "midi_note": 65, "frequency": 349.23, "note_held": 0.3304043066406308, "velocity": 55, "channel": 0}, {"time_played": 95.70017485156244, "midi_note": 69, "frequency": 440, "note_held": 0.3304043066406308, "velocity": 69, "channel": 0}, {"time_played": 96.03090467968744, "midi_note": 62, "frequency": 293.66, "note_held": 0.00032552148437499996, "velocity": 57, "channel": 0}, {"time_played": 96.03090467968744, "midi_note": 65, "frequency": 349.23, "note_held": 0.32714909179686913, "velocity": 57, "channel": 0}, {"time_played": 96.03090467968744, "midi_note": 69, "frequency": 440, "note_held": 0.32714909179686913, "velocity": 67, "channel": 0}, {"time_played": 96.35968137890619, "midi_note": 40, "frequency": 82.41, "note_held": 0.0016276074218749999, "velocity": 53, "channel": 0}, {"time_played": 96.35968137890619, "midi_note": 52, "frequency": 164.81, "note_held": 0.9983743925781283, "velocity": 68, "channel": 0}, {"time_played": 96.5354629804687, "midi_note": 64, "frequency": 329.63, "note_held": 0.17578160156249997, "velocity": 62, "channel": 0}, {"time_played": 96.70017685156245, "midi_note": 67, "frequency": 392, "note_held": 0.16471387109375, "velocity": 54, "channel": 0}, {"time_played": 96.70017685156245, "midi_note": 71, "frequency": 493.88, "note_held": 0.6578789199218704, "velocity": 68, "channel": 0}, {"time_played": 97.3596833789062, "midi_note": 41, "frequency": 87.31, "note_held": 0.0016276074218749999, "velocity": 54, "channel": 0}, {"time_played": 97.3596833789062, "midi_note": 53, "frequency": 174.61, "note_held": 0.9983743925781141, "velocity": 68, "channel": 0}, {"time_played": 97.70017885156244, "midi_note": 65, "frequency": 349.23, "note_held": 0.34049547265624996, "velocity": 55, "channel": 0}, {"time_played": 97.70017885156244, "midi_note": 69, "frequency": 440, "note_held": 0.3304043066406308, "velocity": 55, "channel": 0}, {"time_played": 97.70017885156244, "midi_note": 72, "frequency": 523.25, "note_held": 0.3304043066406308, "velocity": 69, "channel": 0}, {"time_played": 98.03090867968744, "midi_note": 65, "frequency": 349.23, "note_held": 0.00032552148437499996, "velocity": 57, "channel": 0}, {"time_played": 98.03090867968744, "midi_note": 69, "frequency": 440, "note_held": 0.32714909179686913, "velocity": 57, "channel": 0}, {"time_played": 98.03090867968744, "midi_note": 72, "frequency": 523.25, "note_held": 0.32714909179686913, "velocity": 67, "channel": 0}, {"time_played": 98.35968537890619, "midi_note": 40, "frequency": 82.41, "note_held": 0.0016276074218749999, "velocity": 53, "channel": 0}, {"time_played": 98.35968537890619, "midi_note": 52, "frequency": 164.81, "note_held": 0.9983743925781283, "velocity": 68, "channel": 0}, {"time_played": 98.5354669804687, "midi_note": 64, "frequency": 329.63, "note_held": 0.17578160156249997, "velocity": 62, "channel": 0}, {"time_played": 98.70018085156245, "midi_note": 67, "frequency": 392, "note_held": 0.16471387109375, "velocity": 54, "channel": 0}, {"time_played": 98.70018085156245, "midi_note": 71, "frequency": 493.88, "note_held": 0.6578789199218704, "velocity": 68, "channel": 0}]