[{"time_played": 0, "midi_note": 72, "frequency": 523.25, "note_held": 0.3125, "velocity": 127, "channel": 0}, {"time_played": 0, "midi_note": 81, "frequency": 880, "note_held": 0.3125, "velocity": 127, "channel": 0}, {"time_played": 0, "midi_note": 72, "frequency": 523.25, "note_held": 0.3125, "velocity": 96, "channel": 2}, {"time_played": 0, "midi_note": 81, "frequency": 880, "note_held": 0.3125, "velocity": 96, "channel": 2}, {"time_played": 0.3125, "midi_note": 72, "frequency": 523.25, "note_held": 0.3125, "velocity": 127, "channel": 0}, {"time_played": 0.3125, "midi_note": 81, "frequency": 880, "note_held": 0.3125, "velocity": 127, "channel": 0}, {"time_played": 0.3125, "midi_note": 72, "frequency": 523.25, "note_held": 0.3125, "velocity": 96, "channel": 2}, {"time_played": 0.3125, "midi_note": 81, "frequency": 880, "note_held": 0.3125, "velocity": 96, "channel": 2}, {"time_played": 0.625, "midi_note": 72, "frequency": 523.25, "note_held": 0.3125, "velocity": 127, "channel": 0}, {"time_played": 0.625, "midi_note": 81, "frequency": 880, "note_held": 0.3125, "velocity": 127, "channel": 0}, {"time_played": 0.625, "midi_note": 72, "frequency": 523.25, "note_held": 0.3125, "velocity": 96, "channel": 2}, {"time_played": 0.625, "midi_note": 81, "frequency": 880, "note_held": 0.3125, "velocity": 96, "channel": 2}, {"time_played": 0.9375, "midi_note": 72, "frequency": 523.25, "note_held": 0.3125, "velocity": 127, "channel": 0}, {"time_played": 0.9375, "midi_note": 81, "frequency": 880, "note_held": 0.3125, "velocity": 127, "channel": 0}, {"time_played": 0.9375, "midi_note": 72, "frequency": 523.25, "note_held": 0.3125, "velocity": 96, "channel": 2}, {"time_played": 0.9375, "midi_note": 81, "frequency": 880, "note_held": 0.3125, "velocity": 96, "channel": 2}, {"time_played": 1.25, "midi_note": 72, "frequency": 523.25, "note_held": 0.3125, "velocity": 127, "channel": 0}, {"time_played": 1.25, "midi_note": 81, "frequency": 880, "note_held": 0.3125, "velocity": 127, "channel": 0}, {"time_played": 1.25, "midi_note": 72, "frequency": 523.25, "note_held": 0.3125, "velocity": 96, "channel": 2}, {"time_played": 1.25, "midi_note": 81, "frequency": 880, "note_held": 0.3125, "velocity": 96, "channel": 2}, {"time_played": 1.5625, "midi_note": 72, "frequency": 523.25, "note_held": 0.3125, "velocity": 127, "channel": 0}, {"time_played": 1.5625, "midi_note": 81, "frequency": 880, "note_held": 0.3125, "velocity": 127, "channel": 0}, {"time_played": 1.5625, "midi_note": 72, "frequency": 523.25, "note_held": 0.3125, "velocity": 96, "channel": 2}, {"time_played": 1.5625, "midi_note": 81, "frequency": 880, "note_held": 0.3125, "velocity": 96, "channel": 2}, {"time_played": 1.875, "midi_note": 72, "frequency": 523.25, "note_held": 0.3125, "velocity": 127, "channel": 0}, {"time_played": 1.875, "midi_note": 81, "frequency": 880, "note_held": 0.3125, "velocity": 127, "channel": 0}, {"time_played": 1.875, "midi_note": 72, "frequency": 523.25, "note_held": 0.3125, "velocity": 96, "channel": 2}, {"time_played": 1.875, "midi_note": 81, "frequency": 880, "note_held": 0.3125, "velocity": 96, "channel": 2}, {"time_played": 2.1875, "midi_note": 72, "frequency": 523.25, "note_held": 0.3125, "velocity": 127, "channel": 0}, {"time_played": 2.1875, "midi_note": 81, "frequency": 880, "note_held": 0.3125, "velocity": 127, "channel": 0}, {"time_played": 2.1875, "midi_note": 72, "frequency": 523.25, "note_held": 0.3125, "velocity": 96, "channel": 2}, {"time_played": 2.1875, "midi_note": 81, "frequency": 880, "note_held": 0.3125, "velocity": 96, "channel": 2}, {"time_played": 2.5, "midi_note": 72, "frequency": 523.25, "note_held": 0.3125, "velocity": 127, "channel": 0}, {"time_played": 2.5, "midi_note": 81, "frequency": 880, "note_held": 0.3125, "velocity": 127, "channel": 0}, {"time_played": 2.5, "midi_note": 72, "frequency": 523.25, "note_held": 0.3125, "velocity": 96, "channel": 2}, {"time_played": 2.5, "midi_note": 81, "frequency": 880, "note_held": 0.3125, "velocity": 96, "channel": 2}, {"time_played": 2.8125, "midi_note": 72, "frequency": 523.25, "note_held": 0.3125, "velocity": 127, "channel": 0}, {"time_played": 2.8125, "midi_note": 81, "frequency": 880, "note_held": 0.3125, "velocity": 127, "channel": 0}, {"time_played": 2.8125, "midi_note": 72, "frequency": 523.25, "note_held": 0.3125, "velocity": 96, "channel": 2}, {"time_played": 2.8125, "midi_note": 81, "frequency": 880, "note_held": 0.3125, "velocity": 96, "channel": 2}, {"time_played": 3.125, "midi_note": 72, "frequency": 523.25, "note_held": 0.3125, "velocity": 127, "channel": 0}, {"time_played": 3.125, "midi_note": 81, "frequency": 880, "note_held": 0.3125, "velocity": 127, "channel": 0}, {"time_played": 3.125, "midi_note": 72, "frequency": 523.25, "note_held": 0.3125, "velocity": 96, "channel": 2}, {"time_played": 3.125, "midi_note": 81, "frequency": 880, "note_held": 0.3125, "velocity": 96, "channel": 2}, {"time_played": 3.4375, "midi_note": 71, "frequency": 493.88, "note_held": 0.3125, "velocity": 127, "channel": 0}, {"time_played": 3.4375, "midi_note": 79, "frequency": 783.99, "note_held": 0.3125, "velocity": 127, "channel": 0}, {"time_played": 3.4375, "midi_note": 71, "frequency": 493.88, "note_held": 0.3125, "velocity": 96, "channel": 2}, {"time_played": 3.4375, "midi_note": 79, "frequency": 783.99, "note_held": 0.3125, "velocity": 96, "channel": 2}, {"time_played": 3.75, "midi_note": 71, "frequency": 493.88, "note_held": 0.3125, "velocity": 127, "channel": 0}, {"time_played": 3.75, "midi_note": 79, "frequency": 783.99, "note_held": 0.3125, "velocity": 127, "channel": 0}, {"time_played": 3.75, "midi_note": 71, "frequency": 493.88, "note_held": 0.3125, "velocity": 96, "channel": 2}, {"time_played": 3.75, "midi_note": 79, "frequency": 783.99, "note_held": 0.3125, "velocity": 96, "channel": 2}, {"time_played": 4.0625, "midi_note": 71, "frequency": 493.88, "note_held": 0.3125, "velocity": 127, "channel": 0}, {"time_played": 4.0625, "midi_note": 79, "frequency": 783.99, "note_held": 0.3125, "velocity": 127, "channel": 0}, {"time_played": 4.0625, "midi_note": 71, "frequency": 493.88, "note_held": 0.3125, "velocity": 96, "channel": 2}, {"time_played": 4.0625, "midi_note": 79, "frequency": 783.99, "note_held": 0.3125, "velocity": 96, "channel": 2}, {"time_played": 4.375, "midi_note": 71, "frequency": 493.88, "note_held": 0.3125, "velocity": 127, "channel": 0}, {"time_played": 4.375, "midi_note": 79, "frequency": 783.99, "note_held": 0.3125, "velocity": 127, "channel": 0}, {"time_played": 4.375, "midi_note": 71, "frequency": 493.88, "note_held": 0.3125, "velocity": 96, "channel": 2}, {"time_played": 4.375, "midi_note": 79, "frequency": 783.99, "note_held": 0.3125, "velocity": 96, "channel": 2}, {"time_played": 4.6875, "midi_note": 71, "frequency": 493.88, "note_held": 0.3125, "velocity": 127, "channel": 0}, {"time_played": 4.6875, "midi_note": 79, "frequency": 783.99, "note_held": 0.3125, "velocity": 127, "channel": 0}, {"time_played": 4.6875, "midi_note": 71, "frequency": 493.88, "note_held": 0.3125, "velocity": 96, "channel": 2}, {"time_played": 4.6875, "midi_note": 79, "frequency": 783.99, "note_held": 0.3125, "velocity": 96, "channel": 2}, {"time_played": 5.0, "midi_note": 72, "frequency": 523.25, "note_held": 0.3125, "velocity": 127, "channel": 0}, {"time_played": 5.0, "midi_note": 81, "frequency": 880, "note_held": 0.3125, "velocity": 127, "channel": 0}, {"time_played": 5.0, "midi_note": 72, "frequency": 523.25, "note_held": 0.3125, "velocity": 96, "channel": 2}, {"time_played": 5.0, "midi_note": 81, "frequency": 880, "note_held": 0.3125, "velocity": 96, "channel": 2}, {"time_played": 5.3125, "midi_note": 72, "frequency": 523.25, "note_held": 0.3125, "velocity": 127, "channel": 0}, {"time_played": 5.3125, "midi_note": 81, "frequency": 880, "note_held": 0.3125, "velocity": 127, "channel": 0}, {"time_played": 5.3125, "midi_note": 72, "frequency": 523.25, "note_held": 0.3125, "velocity": 96, "channel": 2}, {"time_played": 5.3125, "midi_note": 81, "frequency": 880, "note_held": 0.3125, "velocity": 96, "channel": 2}, {"time_played": 5.625, "midi_note": 72, "frequency": 523.25, "note_held": 0.3125, "velocity": 127, "channel": 0}, {"time_played": 5.625, "midi_note": 81, "frequency": 880, "note_held": 0.3125, "velocity": 127, "channel": 0}, {"time_played": 5.625, "midi_note": 72, "frequency": 523.25, "note_held": 0.3125, "velocity": 96, "channel": 2}, {"time_played": 5.625, "midi_note": 81, "frequency": 880, "note_held": 0.3125, "velocity": 96, "channel": 2}, {"time_played": 5.9375, "midi_note": 72, "frequency": 523.25, "note_held": 0.3125, "velocity": 127, "channel": 0}, {"time_played": 5.9375, "midi_note": 81, "frequency": 880, "note_held": 0.3125, "velocity": 127, "channel": 0}, {"time_played": 5.9375, "midi_note": 72, "frequency": 523.25, "note_held": 0.3125, "velocity": 96, "channel": 2}, {"time_played": 5.9375, "midi_note": 81, "frequency": 880, "note_held": 0.3125, "velocity": 96, "channel": 2}, {"time_played": 6.25, "midi_note": 72, "frequency": 523.25, "note_held": 0.3125, "velocity": 127, "channel": 0}, {"time_played": 6.25, "midi_note": 81, "frequency": 880, "note_held": 0.3125, "velocity": 127, "channel": 0}, {"time_played": 6.25, "midi_note": 72, "frequency": 523.25, "note_held": 0.3125, "velocity": 96, "channel": 2}, {"time_played": 6.25, "midi_note": 81, "frequency": 880, "note_held": 0.3125, "velocity": 96, "channel": 2}, {"time_played": 6.5625, "midi_note": 72, "frequency": 523.25, "note_held": 0.3125, "velocity": 127, "channel": 0}, {"time_played": 6.5625, "midi_note": 81, "frequency": 880, "note_held": 0.3125, "velocity": 127, "channel": 0}, {"time_played": 6.5625, "midi_note": 72, "frequency": 523.25, "note_held": 0.3125, "velocity": 96, "channel": 2}, {"time_played": 6.5625, "midi_note": 81, "frequency": 880, "note_held": 0.3125, "velocity": 96, "channel": 2}, {"time_played": 6.875, "midi_note": 72, "frequency": 523.25, "note_held": 0.3125, "velocity": 127, "channel": 0}, {"time_played": 6.875, "midi_note": 81, "frequency": 880, "note_held": 0.3125, "velocity": 127, "channel": 0}, {"time_played": 6.875, "midi_note": 72, "frequency": 523.25, "note_held": 0.3125, "velocity": 96, "channel": 2}, {"time_played": 6.875, "midi_note": 81, "frequency": 880, "note_held": 0.3125, "velocity": 96, "channel": 2}, {"time_played": 7.1875, "midi_note": 72, "frequency": 523.25, "note_held": 0.3125, "velocity": 127, "channel": 0}, {"time_played": 7.1875, "midi_note": 81, "frequency": 880, "note_held": 0.3125, "velocity": 127, "channel": 0}, {"time_played": 7.1875, "midi_note": 72, "frequency": 523.25, "note_held": 0.3125, "velocity": 96, "channel": 2}, {"time_played": 7.1875, "midi_note": 81, "frequency": 880, "note_held": 0.3125, "velocity": 96, "channel": 2}, {"time_played": 7.5, "midi_note": 72, "frequency": 523.25, "note_held": 0.3125, "velocity": 127, "channel": 0}, {"time_played": 7.5, "midi_note": 81, "frequency": 880, "note_held": 0.3125, "velocity": 127, "channel": 0}, {"time_played": 7.5, "midi_note": 72, "frequency": 523.25, "note_held": 0.3125, "velocity": 96, "channel": 2}, {"time_played": 7.5, "midi_note": 81, "frequency": 880, "note_held": 0.3125, "velocity": 96, "channel": 2}, {"time_played": 7.8125, "midi_note": 72, "frequency": 523.25, "note_held": 0.3125, "velocity": 127, "channel": 0}, {"time_played": 7.8125, "midi_note": 81, "frequency": 880, "note_held": 0.3125, "velocity": 127, "channel": 0}, {"time_played": 7.8125, "midi_note": 72, "frequency": 523.25, "note_held": 0.3125, "velocity": 96, "channel": 2}, {"time_played": 7.8125, "midi_note": 81, "frequency": 880, "note_held": 0.3125, "velocity": 96, "channel": 2}, {"time_played": 8.125, "midi_note": 72, "frequency": 523.25, "note_held": 0.3125, "velocity": 127, "channel": 0}, {"time_played": 8.125, "midi_note": 81, "frequency": 880, "note_held": 0.3125, "velocity": 127, "channel": 0}, {"time_played": 8.125, "midi_note": 72, "frequency": 523.25, "note_held": 0.3125, "velocity": 96, "channel": 2}, {"time_played": 8.125, "midi_note": 81, "frequency": 880, "note_held": 0.3125, "velocity": 96, "channel": 2}, {"time_played": 8.4375, "midi_note": 71, "frequency": 493.88, "note_held": 0.3125, "velocity": 127, "channel": 0}, {"time_played": 8.4375, "midi_note": 79, "frequency": 783.99, "note_held": 0.3125, "velocity": 127, "channel": 0}, {"time_played": 8.4375, "midi_note": 71, "frequency": 493.88, "note_held": 0.3125, "velocity": 96, "channel": 2}, {"time_played": 8.4375, "midi_note": 79, "frequency": 783.99, "note_held": 0.3125, "velocity": 96, "channel": 2}, {"time_played": 8.75, "midi_note": 71, "frequency": 493.88, "note_held": 0.3125, "velocity": 127, "channel": 0}, {"time_played": 8.75, "midi_note": 79, "frequency": 783.99, "note_held": 0.3125, "velocity": 127, "channel": 0}, {"time_played": 8.75, "midi_note": 71, "frequency": 493.88, "note_held": 0.3125, "velocity": 96, "channel": 2}, {"time_played": 8.75, "midi_note": 79, "frequency": 783.99, "note_held": 0.3125, "velocity": 96, "channel": 2}, {"time_played": 9.0625, "midi_note": 71, "frequency": 493.88, "note_held": 0.3125, "velocity": 127, "channel": 0}, {"time_played": 9.0625, "midi_note": 79, "frequency": 783.99, "note_held": 0.3125, "velocity": 127, "channel": 0}, {"time_played": 9.0625, "midi_note": 71, "frequency": 493.88, "note_held": 0.3125, "velocity": 96, "channel": 2}, {"time_played": 9.0625, "midi_note": 79, "frequency": 783.99, "note_held": 0.3125, "velocity": 96, "channel": 2}, {"time_played": 9.375, "midi_note": 71, "frequency": 493.88, "note_held": 0.3125, "velocity": 127, "channel": 0}, {"time_played": 9.375, "midi_note": 79, "frequency": 783.99, "note_held": 0.3125, "velocity": 127, "channel": 0}, {"time_played": 9.375, "midi_note": 71, "frequency": 493.88, "note_held": 0.3125, "velocity": 96, "channel": 2}, {"time_played": 9.375, "midi_note": 79, "frequency": 783.99, "note_held": 0.3125, "velocity": 96, "channel": 2}, {"time_played": 9.6875, "midi_note": 71, "frequency": 493.88, "note_held": 0.3125, "velocity": 127, "channel": 0}, {"time_played": 9.6875, "midi_note": 79, "frequency": 783.99, "note_held": 0.3125, "velocity": 127, "channel": 0}, {"time_played": 9.6875, "midi_note": 71, "frequency": 493.88, "note_held": 0.3125, "velocity": 96, "channel": 2}, {"time_played": 9.6875, "midi_note": 79, "frequency": 783.99, "note_held": 0.3125, "velocity": 96, "channel": 2}, {"time_played": 10.0, "midi_note": 72, "frequency": 523.25, "note_held": 0.3125, "velocity": 127, "channel": 0}, {"time_played": 10.0, "midi_note": 81, "frequency": 880, "note_held": 0.3125, "velocity": 127, "channel": 0}, {"time_played": 10.0, "midi_note": 72, "frequency": 523.25, "note_held": 0.3125, "velocity": 96, "channel": 2}, {"time_played": 10.0, "midi_note": 81, "frequency": 880, "note_held": 0.3125, "velocity": 96, "channel": 2}, {"time_played": 10.3125, "midi_note": 72, "frequency": 523.25, "note_held": 0.3125, "velocity": 127, "channel": 0}, {"time_played": 10.3125, "midi_note": 81, "frequency": 880, "note_held": 0.3125, "velocity": 127, "channel": 0}, {"time_played": 10.3125, "midi_note": 72, "frequency": 523.25, "note_held": 0.3125, "velocity": 96, "channel": 2}, {"time_played": 10.3125, "midi_note": 81, "frequency": 880, "note_held": 0.3125, "velocity": 96, "channel": 2}, {"time_played": 10.625, "midi_note": 72, "frequency": 523.25, "note_held": 0.3125, "velocity": 127, "channel": 0}, {"time_played": 10.625, "midi_note": 81, "frequency": 880, "note_held": 0.3125, "velocity": 127, "channel": 0}, {"time_played": 10.625, "midi_note": 72, "frequency": 523.25, "note_held": 0.3125, "velocity": 96, "channel": 2}, {"time_played": 10.625, "midi_note": 81, "frequency": 880, "note_held": 0.3125, "velocity": 96, "channel": 2}, {"time_played": 10.9375, "midi_note": 72, "frequency": 523.25, "note_held": 0.3125, "velocity": 127, "channel": 0}, {"time_played": 10.9375, "midi_note": 81, "frequency": 880, "note_held": 0.3125, "velocity": 127, "channel": 0}, {"time_played": 10.9375, "midi_note": 72, "frequency": 523.25, "note_held": 0.3125, "velocity": 96, "channel": 2}, {"time_played": 10.9375, "midi_note": 81, "frequency": 880, "note_held": 0.3125, "velocity": 96, "channel": 2}, {"time_played": 11.25, "midi_note": 72, "frequency": 523.25, "note_held": 0.3125, "velocity": 127, "channel": 0}, {"time_played": 11.25, "midi_note": 81, "frequency": 880, "note_held": 0.3125, "velocity": 127, "channel": 0}, {"time_played": 11.25, "midi_note": 72, "frequency": 523.25, "note_held": 0.3125, "velocity": 96, "channel": 2}, {"time_played": 11.25, "midi_note": 81, "frequency": 880, "note_held": 0.3125, "velocity": 96, "channel": 2}, {"time_played": 11.5625, "midi_note": 72, "frequency": 523.25, "note_held": 0.3125, "velocity": 127, "channel": 0}, {"time_played": 11.5625, "midi_note": 81, "frequency": 880, "note_held": 0.3125, "velocity": 127, "channel": 0}, {"time_played": 11.5625, "midi_note": 72, "frequency": 523.25, "note_held": 0.3125, "velocity": 96, "channel": 2}, {"time_played": 11.5625, "midi_note": 81, "frequency": 880, "note_held": 0.3125, "velocity": 96, "channel": 2}, {"time_played": 11.875, "midi_note": 72, "frequency": 523.25, "note_held": 0.3125, "velocity": 127, "channel": 0}, {"time_played": 11.875, "midi_note": 81, "frequency": 880, "note_held": 0.3125, "velocity": 127, "channel": 0}, {"time_played": 11.875, "midi_note": 72, "frequency": 523.25, "note_held": 0.3125, "velocity": 96, "channel": 2}, {"time_played": 11.875, "midi_note": 81, "frequency": 880, "note_held": 0.3125, "velocity": 96, "channel": 2}, {"time_played": 12.1875, "midi_note": 72, "frequency": 523.25, "note_held": 0.3125, "velocity": 127, "channel": 0}, {"time_played": 12.1875, "midi_note": 81, "frequency": 880, "note_held": 0.3125, "velocity": 127, "channel": 0}, {"time_played": 12.1875, "midi_note": 72, "frequency": 523.25, "note_held": 0.3125, "velocity": 96, "channel": 2}, {"time_played": 12.1875, "midi_note": 81, "frequency": 880, "note_held": 0.3125, "velocity": 96, "channel": 2}, {"time_played": 12.5, "midi_note": 72, "frequency": 523.25, "note_held": 0.3125, "velocity": 127, "channel": 0}, {"time_played": 12.5, "midi_note": 81, "frequency": 880, "note_held": 0.3125, "velocity": 127, "channel": 0}, {"time_played": 12.5, "midi_note": 72, "frequency": 523.25, "note_held": 0.3125, "velocity": 96, "channel": 2}, {"time_played": 12.5, "midi_note": 81, "frequency": 880, "note_held": 0.3125, "velocity": 96, "channel": 2}, {"time_played": 12.8125, "midi_note": 72, "frequency": 523.25, "note_held": 0.3125, "velocity": 127, "channel": 0}, {"time_played": 12.8125, "midi_note": 81, "frequency": 880, "note_held": 0.3125, "velocity": 127, "channel": 0}, {"time_played": 12.8125, "midi_note": 72, "frequency": 523.25, "note_held": 0.3125, "velocity": 96, "channel": 2}, {"time_played": 12.8125, "midi_note": 81, "frequency": 880, "note_held": 0.3125, "velocity": 96, "channel": 2}, {"time_played": 13.125, "midi_note": 72, "frequency": 523.25, "note_held": 0.3125, "velocity": 127, "channel": 0}, {"time_played": 13.125, "midi_note": 81, "frequency": 880, "note_held": 0.3125, "velocity": 127, "channel": 0}, {"time_played": 13.125, "midi_note": 72, "frequency": 523.25, "note_held": 0.3125, "velocity": 96, "channel": 2}, {"time_played": 13.125, "midi_note": 81, "frequency": 880, "note_held": 0.3125, "velocity": 96, "channel": 2}, {"time_played": 13.4375, "midi_note": 71, "frequency": 493.88, "note_held": 0.3125, "velocity": 127, "channel": 0}, {"time_played": 13.4375, "midi_note": 79, "frequency": 783.99, "note_held": 0.3125, "velocity": 127, "channel": 0}, {"time_played": 13.4375, "midi_note": 71, "frequency": 493.88, "note_held": 0.3125, "velocity": 96, "channel": 2}, {"time_played": 13.4375, "midi_note": 79, "frequency": 783.99, "note_held": 0.3125, "velocity": 96, "channel": 2}, {"time_played": 13.75, "midi_note": 71, "frequency": 493.88, "note_held": 0.3125, "velocity": 127, "channel": 0}, {"time_played": 13.75, "midi_note": 79, "frequency": 783.99, "note_held": 0.3125, "velocity": 127, "channel": 0}, {"time_played": 13.75, "midi_note": 71, "frequency": 493.88, "note_held": 0.3125, "velocity": 96, "channel": 2}, {"time_played": 13.75, "midi_note": 79, "frequency": 783.99, "note_held": 0.3125, "velocity": 96, "channel": 2}, {"time_played": 14.0625, "midi_note": 71, "frequency": 493.88, "note_held": 0.3125, "velocity": 127, "channel": 0}, {"time_played": 14.0625, "midi_note": 79, "frequency": 783.99, "note_held": 0.3125, "velocity": 127, "channel": 0}, {"time_played": 14.0625, "midi_note": 71, "frequency": 493.88, "note_held": 0.3125, "velocity": 96, "channel": 2}, {"time_played": 14.0625, "midi_note": 79, "frequency": 783.99, "note_held": 0.3125, "velocity": 96, "channel": 2}, {"time_played": 14.375, "midi_note": 71, "frequency": 493.88, "note_held": 0.3125, "velocity": 127, "channel": 0}, {"time_played": 14.375, "midi_note": 79, "frequency": 783.99, "note_held": 0.3125, "velocity": 127, "channel": 0}, {"time_played": 14.375, "midi_note": 71, "frequency": 493.88, "note_held": 0.3125, "velocity": 96, "channel": 2}, {"time_played": 14.375, "midi_note": 79, "frequency": 783.99, "note_held": 0.3125, "velocity": 96, "channel": 2}, {"time_played": 14.6875, "midi_note": 71, "frequency": 493.88, "note_held": 0.3125, "velocity": 127, "channel": 0}, {"time_played": 14.6875, "midi_note": 79, "frequency": 783.99, "note_held": 0.3125, "velocity": 127, "channel": 0}, {"time_played": 14.6875, "midi_note": 71, "frequency": 493.88, "note_held": 0.3125, "velocity": 96, "channel": 2}, {"time_played": 14.6875, "midi_note": 79, "frequency": 783.99, "note_held": 0.3125, "velocity": 96, "channel": 2}, {"time_played": 15.0, "midi_note": 72, "frequency": 523.25, "note_held": 0.3125, "velocity": 127, "channel": 0}, {"time_played": 15.0, "midi_note": 81, "frequency": 880, "note_held": 0.3125, "velocity": 127, "channel": 0}, {"time_played": 15.0, "midi_note": 72, "frequency": 523.25, "note_held": 0.3125, "velocity": 96, "channel": 2}, {"time_played": 15.0, "midi_note": 81, "frequency": 880, "note_held": 0.3125, "velocity": 96, "channel": 2}, {"time_played": 15.3125, "midi_note": 72, "frequency": 523.25, "note_held": 0.3125, "velocity": 127, "channel": 0}, {"time_played": 15.3125, "midi_note": 81, "frequency": 880, "note_held": 0.3125, "velocity": 127, "channel": 0}, {"time_played": 15.3125, "midi_note": 72, "frequency": 523.25, "note_held": 0.3125, "velocity": 96, "channel": 2}, {"time_played": 15.3125, "midi_note": 81, "frequency": 880, "note_held": 0.3125, "velocity": 96, "channel": 2}, {"time_played": 15.625, "midi_note": 72, "frequency": 523.25, "note_held": 0.3125, "velocity": 127, "channel": 0}, {"time_played": 15.625, "midi_note": 81, "frequency": 880, "note_held": 0.3125, "velocity": 127, "channel": 0}, {"time_played": 15.625, "midi_note": 72, "frequency": 523.25, "note_held": 0.3125, "velocity": 96, "channel": 2}, {"time_played": 15.625, "midi_note": 81, "frequency": 880, "note_held": 0.3125, "velocity": 96, "channel": 2}, {"time_played": 15.9375, "midi_note": 72, "frequency": 523.25, "note_held": 0.3125, "velocity": 127, "channel": 0}, {"time_played": 15.9375, "midi_note": 81, "frequency": 880, "note_held": 0.3125, "velocity": 127, "channel": 0}, {"time_played": 15.9375, "midi_note": 72, "frequency": 523.25, "note_held": 0.3125, "velocity": 96, "channel": 2}, {"time_played": 15.9375, "midi_note": 81, "frequency": 880, "note_held": 0.3125, "velocity": 96, "channel": 2}, {"time_played": 16.25, "midi_note": 72, "frequency": 523.25, "note_held": 0.3125, "velocity": 127, "channel": 0}, {"time_played": 16.25, "midi_note": 81, "frequency": 880, "note_held": 0.3125, "velocity": 127, "channel": 0}, {"time_played": 16.25, "midi_note": 72, "frequency": 523.25, "note_held": 0.3125, "velocity": 96, "channel": 2}, {"time_played": 16.25, "midi_note": 81, "frequency": 880, "note_held": 0.3125, "velocity": 96, "channel": 2}, {"time_played": 16.5625, "midi_note": 72, "frequency": 523.25, "note_held": 0.3125, "velocity": 127, "channel": 0}, {"time_played": 16.5625, "midi_note": 81, "frequency": 880, "note_held": 0.3125, "velocity": 127, "channel": 0}, {"time_played": 16.5625, "midi_note": 72, "frequency": 523.25, "note_held": 0.3125, "velocity": 96, "channel": 2}, {"time_played": 16.5625, "midi_note": 81, "frequency": 880, "note_held": 0.3125, "velocity": 96, "channel": 2}, {"time_played": 16.875, "midi_note": 72, "frequency": 523.25, "note_held": 0.3125, "velocity": 127, "channel": 0}, {"time_played": 16.875, "midi_note": 81, "frequency": 880, "note_held": 0.3125, "velocity": 127, "channel": 0}, {"time_played": 16.875, "midi_note": 72, "frequency": 523.25, "note_held": 0.3125, "velocity": 96, "channel": 2}, {"time_played": 16.875, "midi_note": 81, "frequency": 880, "note_held": 0.3125, "velocity": 96, "channel": 2}, {"time_played": 17.1875, "midi_note": 72, "frequency": 523.25, "note_held": 0.3125, "velocity": 127, "channel": 0}, {"time_played": 17.1875, "midi_note": 81, "frequency": 880, "note_held": 0.3125, "velocity": 127, "channel": 0}, {"time_played": 17.1875, "midi_note": 72, "frequency": 523.25, "note_held": 0.3125, "velocity": 96, "channel": 2}, {"time_played": 17.1875, "midi_note": 81, "frequency": 880, "note_held": 0.3125, "velocity": 96, "channel": 2}, {"time_played": 17.5, "midi_note": 72, "frequency": 523.25, "note_held": 0.3125, "velocity": 127, "channel": 0}, {"time_played": 17.5, "midi_note": 81, "frequency": 880, "note_held": 0.3125, "velocity": 127, "channel": 0}, {"time_played": 17.5, "midi_note": 72, "frequency": 523.25, "note_held": 0.3125, "velocity": 96, "channel": 2}, {"time_played": 17.5, "midi_note": 81, "frequency": 880, "note_held": 0.3125, "velocity": 96, "channel": 2}, {"time_played": 17.8125, "midi_note": 72, "frequency": 523.25, "note_held": 0.3125, "velocity": 127, "channel": 0}, {"time_played": 17.8125, "midi_note": 81, "frequency": 880, "note_held": 0.3125, "velocity": 127, "channel": 0}, {"time_played": 17.8125, "midi_note": 72, "frequency": 523.25, "note_held": 0.3125, "velocity": 96, "channel": 2}, {"time_played": 17.8125, "midi_note": 81, "frequency": 880, "note_held": 0.3125, "velocity": 96, "channel": 2}, {"time_played": 18.125, "midi_note": 72, "frequency": 523.25, "note_held": 0.3125, "velocity": 127, "channel": 0}, {"time_played": 18.125, "midi_note": 81, "frequency": 880, "note_held": 0.3125, "velocity": 127, "channel": 0}, {"time_played": 18.125, "midi_note": 72, "frequency": 523.25, "note_held": 0.3125, "velocity": 96, "channel": 2}, {"time_played": 18.125, "midi_note": 81, "frequency": 880, "note_held": 0.3125, "velocity": 96, "channel": 2}, {"time_played": 18.4375, "midi_note": 71, "frequency": 493.88, "note_held": 0.3125, "velocity": 127, "channel": 0}, {"time_played": 18.4375, "midi_note": 79, "frequency": 783.99, "note_held": 0.3125, "velocity": 127, "channel": 0}, {"time_played": 18.4375, "midi_note": 71, "frequency": 493.88, "note_held": 0.3125, "velocity": 96, "channel": 2}, {"time_played": 18.4375, "midi_note": 79, "frequency": 783.99, "note_held": 0.3125, "velocity": 96, "channel": 2}, {"time_played": 18.75, "midi_note": 71, "frequency": 493.88, "note_held": 0.3125, "velocity": 127, "channel": 0}, {"time_played": 18.75, "midi_note": 79, "frequency": 783.99, "note_held": 0.3125, "velocity": 127, "channel": 0}, {"time_played": 18.75, "midi_note": 71, "frequency": 493.88, "note_held": 0.3125, "velocity": 96, "channel": 2}, {"time_played": 18.75, "midi_note": 79, "frequency": 783.99, "note_held": 0.3125, "velocity": 96, "channel": 2}, {"time_played": 19.0625, "midi_note": 71, "frequency": 493.88, "note_held": 0.3125, "velocity": 127, "channel": 0}, {"time_played": 19.0625, "midi_note": 79, "frequency": 783.99, "note_held": 0.3125, "velocity": 127, "channel": 0}, {"time_played": 19.0625, "midi_note": 71, "frequency": 493.88, "note_held": 0.3125, "velocity": 96, "channel": 2}, {"time_played": 19.0625, "midi_note": 79, "frequency": 783.99, "note_held": 0.3125, "velocity": 96, "channel": 2}, {"time_played": 19.375, "midi_note": 71, "frequency": 493.88, "note_held": 0.3125, "velocity": 127, "channel": 0}, {"time_played": 19.375, "midi_note": 79, "frequency": 783.99, "note_held": 0.3125, "velocity": 127, "channel": 0}, {"time_played": 19.375, "midi_note": 71, "frequency": 493.88, "note_held": 0.3125, "velocity": 96, "channel": 2}, {"time_played": 19.375, "midi_note": 79, "frequency": 783.99, "note_held": 0.3125, "velocity": 96, "channel": 2}, {"time_played": 19.6875, "midi_note": 71, "frequency": 493.88, "note_held": 0.3125, "velocity": 127, "channel": 0}, {"time_played": 19.6875, "midi_note": 79, "frequency": 783.99, "note_held": 0.3125, "velocity": 127, "channel": 0}, {"time_played": 19.6875, "midi_note": 71, "frequency": 493.88, "note_held": 0.3125, "velocity": 96, "channel": 2}, {"time_played": 19.6875, "midi_note": 79, "frequency": 783.99, "note_held": 0.3125, "velocity": 96, "channel": 2}, {"time_played": 20.0, "midi_note": 72, "frequency": 523.25, "note_held": 0.3125, "velocity": 127, "channel": 0}, {"time_played": 20.0, "midi_note": 81, "frequency": 880, "note_held": 0.3125, "velocity": 127, "channel": 0}, {"time_played": 20.0, "midi_note": 72, "frequency": 523.25, "note_held": 0.3125, "velocity": 96, "channel": 2}, {"time_played": 20.0, "midi_note": 81, "frequency": 880, "note_held": 0.3125, "velocity": 96, "channel": 2}, {"time_played": 20.3125, "midi_note": 72, "frequency": 523.25, "note_held": 0.3125, "velocity": 127, "channel": 0}, {"time_played": 20.3125, "midi_note": 81, "frequency": 880, "note_held": 0.3125, "velocity": 127, "channel": 0}, {"time_played": 20.3125, "midi_note": 72, "frequency": 523.25, "note_held": 0.3125, "velocity": 96, "channel": 2}, {"time_played": 20.3125, "midi_note": 81, "frequency": 880, "note_held": 0.3125, "velocity": 96, "channel": 2}, {"time_played": 20.625, "midi_note": 72, "frequency": 523.25, "note_held": 0.3125, "velocity": 127, "channel": 0}, {"time_played": 20.625, "midi_note": 81, "frequency": 880, "note_held": 0.3125, "velocity": 127, "channel": 0}, {"time_played": 20.625, "midi_note": 72, "frequency": 523.25, "note_held": 0.3125, "velocity": 96, "channel": 2}, {"time_played": 20.625, "midi_note": 81, "frequency": 880, "note_held": 0.3125, "velocity": 96, "channel": 2}, {"time_played": 20.9375, "midi_note": 72, "frequency": 523.25, "note_held": 0.3125, "velocity": 127, "channel": 0}, {"time_played": 20.9375, "midi_note": 81, "frequency": 880, "note_held": 0.3125, "velocity": 127, "channel": 0}, {"time_played": 20.9375, "midi_note": 72, "frequency": 523.25, "note_held": 0.3125, "velocity": 96, "channel": 2}, {"time_played": 20.9375, "midi_note": 81, "frequency": 880, "note_held": 0.3125, "velocity": 96, "channel": 2}, {"time_played": 21.25, "midi_note": 72, "frequency": 523.25, "note_held": 0.3125, "velocity": 127, "channel": 0}, {"time_played": 21.25, "midi_note": 81, "frequency": 880, "note_held": 0.3125, "velocity": 127, "channel": 0}, {"time_played": 21.25, "midi_note": 72, "frequency": 523.25, "note_held": 0.3125, "velocity": 96, "channel": 2}, {"time_played": 21.25, "midi_note": 81, "frequency": 880, "note_held": 0.3125, "velocity": 96, "channel": 2}, {"time_played": 21.5625, "midi_note": 72, "frequency": 523.25, "note_held": 0.3125, "velocity": 127, "channel": 0}, {"time_played": 21.5625, "midi_note": 81, "frequency": 880, "note_held": 0.3125, "velocity": 127, "channel": 0}, {"time_played": 21.5625, "midi_note": 72, "frequency": 523.25, "note_held": 0.3125, "velocity": 96, "channel": 2}, {"time_played": 21.5625, "midi_note": 81, "frequency": 880, "note_held": 0.3125, "velocity": 96, "channel": 2}, {"time_played": 21.875, "midi_note": 72, "frequency": 523.25, "note_held": 0.3125, "velocity": 127, "channel": 0}, {"time_played": 21.875, "midi_note": 81, "frequency": 880, "note_held": 0.3125, "velocity": 127, "channel": 0}, {"time_played": 21.875, "midi_note": 72, "frequency": 523.25, "note_held": 0.3125, "velocity": 96, "channel": 2}, {"time_played": 21.875, "midi_note": 81, "frequency": 880, "note_held": 0.3125, "velocity": 96, "channel": 2}, {"time_played": 22.1875, "midi_note": 72, "frequency": 523.25, "note_held": 0.3125, "velocity": 127, "channel": 0}, {"time_played": 22.1875, "midi_note": 81, "frequency": 880, "note_held": 0.3125, "velocity": 127, "channel": 0}, {"time_played": 22.1875, "midi_note": 72, "frequency": 523.25, "note_held": 0.3125, "velocity": 96, "channel": 2}, {"time_played": 22.1875, "midi_note": 81, "frequency": 880, "note_held": 0.3125, "velocity": 96, "channel": 2}, {"time_played": 22.5, "midi_note": 72, "frequency": 523.25, "note_held": 0.3125, "velocity": 127, "channel": 0}, {"time_played": 22.5, "midi_note": 81, "frequency": 880, "note_held": 0.3125, "velocity": 127, "channel": 0}, {"time_played": 22.5, "midi_note": 72, "frequency": 523.25, "note_held": 0.3125, "velocity": 96, "channel": 2}, {"time_played": 22.5, "midi_note": 81, "frequency": 880, "note_held": 0.3125, "velocity": 96, "channel": 2}, {"time_played": 22.8125, "midi_note": 72, "frequency": 523.25, "note_held": 0.3125, "velocity": 127, "channel": 0}, {"time_played": 22.8125, "midi_note": 81, "frequency": 880, "note_held": 0.3125, "velocity": 127, "channel": 0}, {"time_played": 22.8125, "midi_note": 72, "frequency": 523.25, "note_held": 0.3125, "velocity": 96, "channel": 2}, {"time_played": 22.8125, "midi_note": 81, "frequency": 880, "note_held": 0.3125, "velocity": 96, "channel": 2}, {"time_played": 23.125, "midi_note": 72, "frequency": 523.25, "note_held": 0.3125, "velocity": 127, "channel": 0}, {"time_played": 23.125, "midi_note": 81, "frequency": 880, "note_held": 0.3125, "velocity": 127, "channel": 0}, {"time_played": 23.125, "midi_note": 72, "frequency": 523.25, "note_held": 0.3125, "velocity": 96, "channel": 2}, {"time_played": 23.125, "midi_note": 81, "frequency": 880, "note_held": 0.3125, "velocity": 96, "channel": 2}, {"time_played": 23.4375, "midi_note": 71, "frequency": 493.88, "note_held": 0.3125, "velocity": 127, "channel": 0}, {"time_played": 23.4375, "midi_note": 79, "frequency": 783.99, "note_held": 0.3125, "velocity": 127, "channel": 0}, {"time_played": 23.4375, "midi_note": 71, "frequency": 493.88, "note_held": 0.3125, "velocity": 96, "channel": 2}, {"time_played": 23.4375, "midi_note": 79, "frequency": 783.99, "note_held": 0.3125, "velocity": 96, "channel": 2}, {"time_played": 23.75, "midi_note": 71, "frequency": 493.88, "note_held": 0.3125, "velocity": 127, "channel": 0}, {"time_played": 23.75, "midi_note": 79, "frequency": 783.99, "note_held": 0.3125, "velocity": 127, "channel": 0}, {"time_played": 23.75, "midi_note": 71, "frequency": 493.88, "note_held": 0.3125, "velocity": 96, "channel": 2}, {"time_played": 23.75, "midi_note": 79, "frequency": 783.99, "note_held": 0.3125, "velocity": 96, "channel": 2}, {"time_played": 24.0625, "midi_note": 71, "frequency": 493.88, "note_held": 0.3125, "velocity": 127, "channel": 0}, {"time_played": 24.0625, "midi_note": 79, "frequency": 783.99, "note_held": 0.3125, "velocity": 127, "channel": 0}, {"time_played": 24.0625, "midi_note": 71, "frequency": 493.88, "note_held": 0.3125, "velocity": 96, "channel": 2}, {"time_played": 24.0625, "midi_note": 79, "frequency": 783.99, "note_held": 0.3125, "velocity": 96, "channel": 2}, {"time_played": 24.375, "midi_note": 71, "frequency": 493.88, "note_held": 0.3125, "velocity": 127, "channel": 0}, {"time_played": 24.375, "midi_note": 79, "frequency": 783.99, "note_held": 0.3125, "velocity": 127, "channel": 0}, {"time_played": 24.375, "midi_note": 71, "frequency": 493.88, "note_held": 0.3125, "velocity": 96, "channel": 2}, {"time_played": 24.375, "midi_note": 79, "frequency": 783.99, "note_held": 0.3125, "velocity": 96, "channel": 2}, {"time_played": 24.6875, "midi_note": 71, "frequency": 493.88, "note_held": 0.3125, "velocity": 127, "channel": 0}, {"time_played": 24.6875, "midi_note": 79, "frequency": 783.99, "note_held": 0.3125, "velocity": 127, "channel": 0}, {"time_played": 24.6875, "midi_note": 71, "frequency": 493.88, "note_held": 0.3125, "velocity": 96, "channel": 2}, {"time_played": 24.6875, "midi_note": 79, "frequency": 783.99, "note_held": 0.3125, "velocity": 96, "channel": 2}, {"time_played": 25.0, "midi_note": 72, "frequency": 523.25, "note_held": 0.3125, "velocity": 127, "channel": 0}, {"time_played": 25.0, "midi_note": 81, "frequency": 880, "note_held": 0.3125, "velocity": 127, "channel": 0}, {"time_played": 25.0, "midi_note": 72, "frequency": 523.25, "note_held": 0.3125, "velocity": 96, "channel": 2}, {"time_played": 25.0, "midi_note": 81, "frequency": 880, "note_held": 0.3125, "velocity": 96, "channel": 2}, {"time_played": 25.3125, "midi_note": 72, "frequency": 523.25, "note_held": 0.3125, "velocity": 127, "channel": 0}, {"time_played": 25.3125, "midi_note": 81, "frequency": 880, "note_held": 0.3125, "velocity": 127, "channel": 0}, {"time_played": 25.3125, "midi_note": 72, "frequency": 523.25, "note_held": 0.3125, "velocity": 96, "channel": 2}, {"time_played": 25.3125, "midi_note": 81, "frequency": 880, "note_held": 0.3125, "velocity": 96, "channel": 2}, {"time_played": 25.625, "midi_note": 72, "frequency": 523.25, "note_held": 0.3125, "velocity": 127, "channel": 0}, {"time_played": 25.625, "midi_note": 81, "frequency": 880, "note_held": 0.3125, "velocity": 127, "channel": 0}, {"time_played": 25.625, "midi_note": 72, "frequency": 523.25, "note_held": 0.3125, "velocity": 96, "channel": 2}, {"time_played": 25.625, "midi_note": 81, "frequency": 880, "note_held": 0.3125, "velocity": 96, "channel": 2}, {"time_played": 25.9375, "midi_note": 72, "frequency": 523.25, "note_held": 0.3125, "velocity": 127, "channel": 0}, {"time_played": 25.9375, "midi_note": 81, "frequency": 880, "note_held": 0.3125, "velocity": 127, "channel": 0}, {"time_played": 25.9375, "midi_note": 72, "frequency": 523.25, "note_held": 0.3125, "velocity": 96, "channel": 2}, {"time_played": 25.9375, "midi_note": 81, "frequency": 880, "note_held": 0.3125, "velocity": 96, "channel": 2}, {"time_played": 26.25, "midi_note": 72, "frequency": 523.25, "note_held": 0.3125, "velocity": 127, "channel": 0}, {"time_played": 26.25, "midi_note": 81, "frequency": 880, "note_held": 0.3125, "velocity": 127, "channel": 0}, {"time_played": 26.25, "midi_note": 72, "frequency": 523.25, "note_held": 0.3125, "velocity": 96, "channel": 2}, {"time_played": 26.25, "midi_note": 81, "frequency": 880, "note_held": 0.3125, "velocity": 96, "channel": 2}, {"time_played": 26.5625, "midi_note": 72, "frequency": 523.25, "note_held": 0.3125, "velocity": 127, "channel": 0}, {"time_played": 26.5625, "midi_note": 81, "frequency": 880, "note_held": 0.3125, "velocity": 127, "channel": 0}, {"time_played": 26.5625, "midi_note": 72, "frequency": 523.25, "note_held": 0.3125, "velocity": 96, "channel": 2}, {"time_played": 26.5625, "midi_note": 81, "frequency": 880, "note_held": 0.3125, "velocity": 96, "channel": 2}, {"time_played": 26.875, "midi_note": 72, "frequency": 523.25, "note_held": 0.3125, "velocity": 127, "channel": 0}, {"time_played": 26.875, "midi_note": 81, "frequency": 880, "note_held": 0.3125, "velocity": 127, "channel": 0}, {"time_played": 26.875, "midi_note": 72, "frequency": 523.25, "note_held": 0.3125, "velocity": 96, "channel": 2}, {"time_played": 26.875, "midi_note": 81, "frequency": 880, "note_held": 0.3125, "velocity": 96, "channel": 2}, {"time_played": 27.1875, "midi_note": 72, "frequency": 523.25, "note_held": 0.3125, "velocity": 127, "channel": 0}, {"time_played": 27.1875, "midi_note": 81, "frequency": 880, "note_held": 0.3125, "velocity": 127, "channel": 0}, {"time_played": 27.1875, "midi_note": 72, "frequency": 523.25, "note_held": 0.3125, "velocity": 96, "channel": 2}, {"time_played": 27.1875, "midi_note": 81, "frequency": 880, "note_held": 0.3125, "velocity": 96, "channel": 2}, {"time_played": 27.5, "midi_note": 72, "frequency": 523.25, "note_held": 0.3125, "velocity": 127, "channel": 0}, {"time_played": 27.5, "midi_note": 81, "frequency": 880, "note_held": 0.3125, "velocity": 127, "channel": 0}, {"time_played": 27.5, "midi_note": 72, "frequency": 523.25, "note_held": 0.3125, "velocity": 96, "channel": 2}, {"time_played": 27.5, "midi_note": 81, "frequency": 880, "note_held": 0.3125, "velocity": 96, "channel": 2}, {"time_played": 27.8125, "midi_note": 72, "frequency": 523.25, "note_held": 0.3125, "velocity": 127, "channel": 0}, {"time_played": 27.8125, "midi_note": 81, "frequency": 880, "note_held": 0.3125, "velocity": 127, "channel": 0}, {"time_played": 27.8125, "midi_note": 72, "frequency": 523.25, "note_held": 0.3125, "velocity": 96, "channel": 2}, {"time_played": 27.8125, "midi_note": 81, "frequency": 880, "note_held": 0.3125, "velocity": 96, "channel": 2}, {"time_played": 28.125, "midi_note": 72, "frequency": 523.25, "note_held": 0.3125, "velocity": 127, "channel": 0}, {"time_played": 28.125, "midi_note": 81, "frequency": 880, "note_held": 0.3125, "velocity": 127, "channel": 0}, {"time_played": 28.125, "midi_note": 72, "frequency": 523.25, "note_held": 0.3125, "velocity": 96, "channel": 2}, {"time_played": 28.125, "midi_note": 81, "frequency": 880, "note_held": 0.3125, "velocity": 96, "channel": 2}, {"time_played": 28.4375, "midi_note": 71, "frequency": 493.88, "note_held": 0.3125, "velocity": 127, "channel": 0}, {"time_played": 28.4375, "midi_note": 79, "frequency": 783.99, "note_held": 0.3125, "velocity": 127, "channel": 0}, {"time_played": 28.4375, "midi_note": 71, "frequency": 493.88, "note_held": 0.3125, "velocity": 96, "channel": 2}, {"time_played": 28.4375, "midi_note": 79, "frequency": 783.99, "note_held": 0.3125, "velocity": 96, "channel": 2}, {"time_played": 28.75, "midi_note": 71, "frequency": 493.88, "note_held": 0.3125, "velocity": 127, "channel": 0}, {"time_played": 28.75, "midi_note": 79, "frequency": 783.99, "note_held": 0.3125, "velocity": 127, "channel": 0}, {"time_played": 28.75, "midi_note": 71, "frequency": 493.88, "note_held": 0.3125, "velocity": 96, "channel": 2}, {"time_played": 28.75, "midi_note": 79, "frequency": 783.99, "note_held": 0.3125, "velocity": 96, "channel": 2}, {"time_played": 29.0625, "midi_note": 71, "frequency": 493.88, "note_held": 0.3125, "velocity": 127, "channel": 0}, {"time_played": 29.0625, "midi_note": 79, "frequency": 783.99, "note_held": 0.3125, "velocity": 127, "channel": 0}, {"time_played": 29.0625, "midi_note": 71, "frequency": 493.88, "note_held": 0.3125, "velocity": 96, "channel": 2}, {"time_played": 29.0625, "midi_note": 79, "frequency": 783.99, "note_held": 0.3125, "velocity": 96, "channel": 2}, {"time_played": 29.375, "midi_note": 71, "frequency": 493.88, "note_held": 0.3125, "velocity": 127, "channel": 0}, {"time_played": 29.375, "midi_note": 79, "frequency": 783.99, "note_held": 0.3125, "velocity": 127, "channel": 0}, {"time_played": 29.375, "midi_note": 71, "frequency": 493.88, "note_held": 0.3125, "velocity": 96, "channel": 2}, {"time_played": 29.375, "midi_note": 79, "frequency": 783.99, "note_held": 0.3125, "velocity": 96, "channel": 2}, {"time_played": 29.6875, "midi_note": 71, "frequency": 493.88, "note_held": 0.3125, "velocity": 127, "channel": 0}, {"time_played": 29.6875, "midi_note": 79, "frequency": 783.99, "note_held": 0.3125, "velocity": 127, "channel": 0}, {"time_played": 29.6875, "midi_note": 71, "frequency": 493.88, "note_held": 0.3125, "velocity": 96, "channel": 2}, {"time_played": 29.6875, "midi_note": 79, "frequency": 783.99, "note_held": 0.3125, "velocity": 96, "channel": 2}, {"time_played": 30.0, "midi_note": 72, "frequency": 523.25, "note_held": 0.3125, "velocity": 127, "channel": 0}, {"time_played": 30.0, "midi_note": 81, "frequency": 880, "note_held": 0.3125, "velocity": 127, "channel": 0}, {"time_played": 30.0, "midi_note": 72, "frequency": 523.25, "note_held": 0.3125, "velocity": 96, "channel": 2}, {"time_played": 30.0, "midi_note": 81, "frequency": 880, "note_held": 0.3125, "velocity": 96, "channel": 2}, {"time_played": 30.3125, "midi_note": 72, "frequency": 523.25, "note_held": 0.3125, "velocity": 127, "channel": 0}, {"time_played": 30.3125, "midi_note": 81, "frequency": 880, "note_held": 0.3125, "velocity": 127, "channel": 0}, {"time_played": 30.3125, "midi_note": 72, "frequency": 523.25, "note_held": 0.3125, "velocity": 96, "channel": 2}, {"time_played": 30.3125, "midi_note": 81, "frequency": 880, "note_held": 0.3125, "velocity": 96, "channel": 2}, {"time_played": 30.625, "midi_note": 72, "frequency": 523.25, "note_held": 0.3125, "velocity": 127, "channel": 0}, {"time_played": 30.625, "midi_note": 81, "frequency": 880, "note_held": 0.3125, "velocity": 127, "channel": 0}, {"time_played": 30.625, "midi_note": 72, "frequency": 523.25, "note_held": 0.3125, "velocity": 96, "channel": 2}, {"time_played": 30.625, "midi_note": 81, "frequency": 880, "note_held": 0.3125, "velocity": 96, "channel": 2}, {"time_played": 30.9375, "midi_note": 72, "frequency": 523.25, "note_held": 0.3125, "velocity": 127, "channel": 0}, {"time_played": 30.9375, "midi_note": 81, "frequency": 880, "note_held": 0.3125, "velocity": 127, "channel": 0}, {"time_played": 30.9375, "midi_note": 72, "frequency": 523.25, "note_held": 0.3125, "velocity": 96, "channel": 2}, {"time_played": 30.9375, "midi_note": 81, "frequency": 880, "note_held": 0.3125, "velocity": 96, "channel": 2}, {"time_played": 31.25, "midi_note": 72, "frequency": 523.25, "note_held": 0.3125, "velocity": 127, "channel": 0}, {"time_played": 31.25, "midi_note": 81, "frequency": 880, "note_held": 0.3125, "velocity": 127, "channel": 0}, {"time_played": 31.25, "midi_note": 72, "frequency": 523.25, "note_held": 0.3125, "velocity": 96, "channel": 2}, {"time_played": 31.25, "midi_note": 81, "frequency": 880, "note_held": 0.3125, "velocity": 96, "channel": 2}, {"time_played": 31.5625, "midi_note": 72, "frequency": 523.25, "note_held": 0.3125, "velocity": 127, "channel": 0}, {"time_played": 31.5625, "midi_note": 81, "frequency": 880, "note_held": 0.3125, "velocity": 127, "channel": 0}, {"time_played": 31.5625, "midi_note": 72, "frequency": 523.25, "note_held": 0.3125, "velocity": 96, "channel": 2}, {"time_played": 31.5625, "midi_note": 81, "frequency": 880, "note_held": 0.3125, "velocity": 96, "channel": 2}, {"time_played": 31.875, "midi_note": 72, "frequency": 523.25, "note_held": 0.3125, "velocity": 127, "channel": 0}, {"time_played": 31.875, "midi_note": 81, "frequency": 880, "note_held": 0.3125, "velocity": 127, "channel": 0}, {"time_played": 31.875, "midi_note": 72, "frequency": 523.25, "note_held": 0.3125, "velocity": 96, "channel": 2}, {"time_played": 31.875, "midi_note": 81, "frequency": 880, "note_held": 0.3125, "velocity": 96, "channel": 2}, {"time_played": 32.1875, "midi_note": 72, "frequency": 523.25, "note_held": 0.3125, "velocity": 127, "channel": 0}, {"time_played": 32.1875, "midi_note": 81, "frequency": 880, "note_held": 0.3125, "velocity": 127, "channel": 0}, {"time_played": 32.1875, "midi_note": 72, "frequency": 523.25, "note_held": 0.3125, "velocity": 96, "channel": 2}, {"time_played": 32.1875, "midi_note": 81, "frequency": 880, "note_held": 0.3125, "velocity": 96, "channel": 2}, {"time_played": 32.5, "midi_note": 72, "frequency": 523.25, "note_held": 0.3125, "velocity": 127, "channel": 0}, {"time_played": 32.5, "midi_note": 81, "frequency": 880, "note_held": 0.3125, "velocity": 127, "channel": 0}, {"time_played": 32.5, "midi_note": 72, "frequency": 523.25, "note_held": 0.3125, "velocity": 96, "channel": 2}, {"time_played": 32.5, "midi_note": 81, "frequency": 880, "note_held": 0.3125, "velocity": 96, "channel": 2}, {"time_played": 32.8125, "midi_note": 72, "frequency": 523.25, "note_held": 0.3125, "velocity": 127, "channel": 0}, {"time_played": 32.8125, "midi_note": 81, "frequency": 880, "note_held": 0.3125, "velocity": 127, "channel": 0}, {"time_played": 32.8125, "midi_note": 72, "frequency": 523.25, "note_held": 0.3125, "velocity": 96, "channel": 2}, {"time_played": 32.8125, "midi_note": 81, "frequency": 880, "note_held": 0.3125, "velocity": 96, "channel": 2}, {"time_played": 33.125, "midi_note": 72, "frequency": 523.25, "note_held": 0.3125, "velocity": 127, "channel": 0}, {"time_played": 33.125, "midi_note": 81, "frequency": 880, "note_held": 0.3125, "velocity": 127, "channel": 0}, {"time_played": 33.125, "midi_note": 72, "frequency": 523.25, "note_held": 0.3125, "velocity": 96, "channel": 2}, {"time_played": 33.125, "midi_note": 81, "frequency": 880, "note_held": 0.3125, "velocity": 96, "channel": 2}, {"time_played": 33.4375, "midi_note": 71, "frequency": 493.88, "note_held": 0.3125, "velocity": 127, "channel": 0}, {"time_played": 33.4375, "midi_note": 79, "frequency": 783.99, "note_held": 0.3125, "velocity": 127, "channel": 0}, {"time_played": 33.4375, "midi_note": 71, "frequency": 493.88, "note_held": 0.3125, "velocity": 96, "channel": 2}, {"time_played": 33.4375, "midi_note": 79, "frequency": 783.99, "note_held": 0.3125, "velocity": 96, "channel": 2}, {"time_played": 33.75, "midi_note": 71, "frequency": 493.88, "note_held": 0.3125, "velocity": 127, "channel": 0}, {"time_played": 33.75, "midi_note": 79, "frequency": 783.99, "note_held": 0.3125, "velocity": 127, "channel": 0}, {"time_played": 33.75, "midi_note": 71, "frequency": 493.88, "note_held": 0.3125, "velocity": 96, "channel": 2}, {"time_played": 33.75, "midi_note": 79, "frequency": 783.99, "note_held": 0.3125, "velocity": 96, "channel": 2}, {"time_played": 34.0625, "midi_note": 71, "frequency": 493.88, "note_held": 0.3125, "velocity": 127, "channel": 0}, {"time_played": 34.0625, "midi_note": 79, "frequency": 783.99, "note_held": 0.3125, "velocity": 127, "channel": 0}, {"time_played": 34.0625, "midi_note": 71, "frequency": 493.88, "note_held": 0.3125, "velocity": 96, "channel": 2}, {"time_played": 34.0625, "midi_note": 79, "frequency": 783.99, "note_held": 0.3125, "velocity": 96, "channel": 2}, {"time_played": 34.375, "midi_note": 71, "frequency": 493.88, "note_held": 0.3125, "velocity": 127, "channel": 0}, {"time_played": 34.375, "midi_note": 79, "frequency": 783.99, "note_held": 0.3125, "velocity": 127, "channel": 0}, {"time_played": 34.375, "midi_note": 71, "frequency": 493.88, "note_held": 0.3125, "velocity": 96, "channel": 2}, {"time_played": 34.375, "midi_note": 79, "frequency": 783.99, "note_held": 0.3125, "velocity": 96, "channel": 2}, {"time_played": 34.6875, "midi_note": 71, "frequency": 493.88, "note_held": 0.3125, "velocity": 127, "channel": 0}, {"time_played": 34.6875, "midi_note": 79, "frequency": 783.99, "note_held": 0.3125, "velocity": 127, "channel": 0}, {"time_played": 34.6875, "midi_note": 71, "frequency": 493.88, "note_held": 0.3125, "velocity": 96, "channel": 2}, {"time_played": 34.6875, "midi_note": 79, "frequency": 783.99, "note_held": 0.3125, "velocity": 96, "channel": 2}, {"time_played": 35.0, "midi_note": 72, "frequency": 523.25, "note_held": 0.3125, "velocity": 127, "channel": 0}, {"time_played": 35.0, "midi_note": 81, "frequency": 880, "note_held": 0.3125, "velocity": 127, "channel": 0}, {"time_played": 35.0, "midi_note": 72, "frequency": 523.25, "note_held": 0.3125, "velocity": 96, "channel": 2}, {"time_played": 35.0, "midi_note": 81, "frequency": 880, "note_held": 0.3125, "velocity": 96, "channel": 2}, {"time_played": 35.3125, "midi_note": 72, "frequency": 523.25, "note_held": 0.3125, "velocity": 127, "channel": 0}, {"time_played": 35.3125, "midi_note": 81, "frequency": 880, "note_held": 0.3125, "velocity": 127, "channel": 0}, {"time_played": 35.3125, "midi_note": 72, "frequency": 523.25, "note_held": 0.3125, "velocity": 96, "channel": 2}, {"time_played": 35.3125, "midi_note": 81, "frequency": 880, "note_held": 0.3125, "velocity": 96, "channel": 2}, {"time_played": 35.625, "midi_note": 72, "frequency": 523.25, "note_held": 0.3125, "velocity": 127, "channel": 0}, {"time_played": 35.625, "midi_note": 81, "frequency": 880, "note_held": 0.3125, "velocity": 127, "channel": 0}, {"time_played": 35.625, "midi_note": 72, "frequency": 523.25, "note_held": 0.3125, "velocity": 96, "channel": 2}, {"time_played": 35.625, "midi_note": 81, "frequency": 880, "note_held": 0.3125, "velocity": 96, "channel": 2}, {"time_played": 35.9375, "midi_note": 72, "frequency": 523.25, "note_held": 0.3125, "velocity": 127, "channel": 0}, {"time_played": 35.9375, "midi_note": 81, "frequency": 880, "note_held": 0.3125, "velocity": 127, "channel": 0}, {"time_played": 35.9375, "midi_note": 72, "frequency": 523.25, "note_held": 0.3125, "velocity": 96, "channel": 2}, {"time_played": 35.9375, "midi_note": 81, "frequency": 880, "note_held": 0.3125, "velocity": 96, "channel": 2}, {"time_played": 36.25, "midi_note": 72, "frequency": 523.25, "note_held": 0.3125, "velocity": 127, "channel": 0}, {"time_played": 36.25, "midi_note": 81, "frequency": 880, "note_held": 0.3125, "velocity": 127, "channel": 0}, {"time_played": 36.25, "midi_note": 72, "frequency": 523.25, "note_held": 0.3125, "velocity": 96, "channel": 2}, {"time_played": 36.25, "midi_note": 81, "frequency": 880, "note_held": 0.3125, "velocity": 96, "channel": 2}, {"time_played": 36.5625, "midi_note": 72, "frequency": 523.25, "note_held": 0.3125, "velocity": 127, "channel": 0}, {"time_played": 36.5625, "midi_note": 81, "frequency": 880, "note_held": 0.3125, "velocity": 127, "channel": 0}, {"time_played": 36.5625, "midi_note": 72, "frequency": 523.25, "note_held": 0.3125, "velocity": 96, "channel": 2}, {"time_played": 36.5625, "midi_note": 81, "frequency": 880, "note_held": 0.3125, "velocity": 96, "channel": 2}, {"time_played": 36.875, "midi_note": 72, "frequency": 523.25, "note_held": 0.3125, "velocity": 127, "channel": 0}, {"time_played": 36.875, "midi_note": 81, "frequency": 880, "note_held": 0.3125, "velocity": 127, "channel": 0}, {"time_played": 36.875, "midi_note": 72, "frequency": 523.25, "note_held": 0.3125, "velocity": 96, "channel": 2}, {"time_played": 36.875, "midi_note": 81, "frequency": 880, "note_held": 0.3125, "velocity": 96, "channel": 2}, {"time_played": 37.1875, "midi_note": 72, "frequency": 523.25, "note_held": 0.3125, "velocity": 127, "channel": 0}, {"time_played": 37.1875, "midi_note": 81, "frequency": 880, "note_held": 0.3125, "velocity": 127, "channel": 0}, {"time_played": 37.1875, "midi_note": 72, "frequency": 523.25, "note_held": 0.3125, "velocity": 96, "channel": 2}, {"time_played": 37.1875, "midi_note": 81, "frequency": 880, "note_held": 0.3125, "velocity": 96, "channel": 2}, {"time_played": 37.5, "midi_note": 72, "frequency": 523.25, "note_held": 0.3125, "velocity": 127, "channel": 0}, {"time_played": 37.5, "midi_note": 81, "frequency": 880, "note_held": 0.3125, "velocity": 127, "channel": 0}, {"time_played": 37.5, "midi_note": 72, "frequency": 523.25, "note_held": 0.3125, "velocity": 96, "channel": 2}, {"time_played": 37.5, "midi_note": 81, "frequency": 880, "note_held": 0.3125, "velocity": 96, "channel": 2}, {"time_played": 37.8125, "midi_note": 72, "frequency": 523.25, "note_held": 0.3125, "velocity": 127, "channel": 0}, {"time_played": 37.8125, "midi_note": 81, "frequency": 880, "note_held": 0.3125, "velocity": 127, "channel": 0}, {"time_played": 37.8125, "midi_note": 72, "frequency": 523.25, "note_held": 0.3125, "velocity": 96, "channel": 2}, {"time_played": 37.8125, "midi_note": 81, "frequency": 880, "note_held": 0.3125, "velocity": 96, "channel": 2}, {"time_played": 38.125, "midi_note": 72, "frequency": 523.25, "note_held": 0.3125, "velocity": 127, "channel": 0}, {"time_played": 38.125, "midi_note": 81, "frequency": 880, "note_held": 0.3125, "velocity": 127, "channel": 0}, {"time_played": 38.125, "midi_note": 72, "frequency": 523.25, "note_held": 0.3125, "velocity": 96, "channel": 2}, {"time_played": 38.125, "midi_note": 81, "frequency": 880, "note_held": 0.3125, "velocity": 96, "channel": 2}, {"time_played": 38.4375, "midi_note": 71, "frequency": 493.88, "note_held": 0.3125, "velocity": 127, "channel": 0}, {"time_played": 38.4375, "midi_note": 79, "frequency": 783.99, "note_held": 0.3125, "velocity": 127, "channel": 0}, {"time_played": 38.4375, "midi_note": 71, "frequency": 493.88, "note_held": 0.3125, "velocity": 96, "channel": 2}, {"time_played": 38.4375, "midi_note": 79, "frequency": 783.99, "note_held": 0.3125, "velocity": 96, "channel": 2}, {"time_played": 38.75, "midi_note": 71, "frequency": 493.88, "note_held": 0.3125, "velocity": 127, "channel": 0}, {"time_played": 38.75, "midi_note": 79, "frequency": 783.99, "note_held": 0.3125, "velocity": 127, "channel": 0}, {"time_played": 38.75, "midi_note": 71, "frequency": 493.88, "note_held": 0.3125, "velocity": 96, "channel": 2}, {"time_played": 38.75, "midi_note": 79, "frequency": 783.99, "note_held": 0.3125, "velocity": 96, "channel": 2}, {"time_played": 39.0625, "midi_note": 71, "frequency": 493.88, "note_held": 0.3125, "velocity": 127, "channel": 0}, {"time_played": 39.0625, "midi_note": 79, "frequency": 783.99, "note_held": 0.3125, "velocity": 127, "channel": 0}, {"time_played": 39.0625, "midi_note": 71, "frequency": 493.88, "note_held": 0.3125, "velocity": 96, "channel": 2}, {"time_played": 39.0625, "midi_note": 79, "frequency": 783.99, "note_held": 0.3125, "velocity": 96, "channel": 2}, {"time_played": 39.375, "midi_note": 71, "frequency": 493.88, "note_held": 0.3125, "velocity": 127, "channel": 0}, {"time_played": 39.375, "midi_note": 79, "frequency": 783.99, "note_held": 0.3125, "velocity": 127, "channel": 0}, {"time_played": 39.375, "midi_note": 71, "frequency": 493.88, "note_held": 0.3125, "velocity": 96, "channel": 2}, {"time_played": 39.375, "midi_note": 79, "frequency": 783.99, "note_held": 0.3125, "velocity": 96, "channel": 2}, {"time_played": 39.6875, "midi_note": 71, "frequency": 493.88, "note_held": 0.3125, "velocity": 127, "channel": 0}, {"time_played": 39.6875, "midi_note": 79, "frequency": 783.99, "note_held": 0.3125, "velocity": 127, "channel": 0}, {"time_played": 39.6875, "midi_note": 71, "frequency": 493.88, "note_held": 0.3125, "velocity": 96, "channel": 2}, {"time_played": 39.6875, "midi_note": 79, "frequency": 783.99, "note_held": 0.3125, "velocity": 96, "channel": 2}, {"time_played": 40.0, "midi_note": 72, "frequency": 523.25, "note_held": 0.3125, "velocity": 127, "channel": 0}, {"time_played": 40.0, "midi_note": 81, "frequency": 880, "note_held": 0.3125, "velocity": 127, "channel": 0}, {"time_played": 40.0, "midi_note": 72, "frequency": 523.25, "note_held": 0.3125, "velocity": 96, "channel": 2}, {"time_played": 40.0, "midi_note": 81, "frequency": 880, "note_held": 0.3125, "velocity": 96, "channel": 2}, {"time_played": 40.3125, "midi_note": 72, "frequency": 523.25, "note_held": 0.3125, "velocity": 127, "channel": 0}, {"time_played": 40.3125, "midi_note": 81, "frequency": 880, "note_held": 0.3125, "velocity": 127, "channel": 0}, {"time_played": 40.3125, "midi_note": 72, "frequency": 523.25, "note_held": 0.3125, "velocity": 96, "channel": 2}, {"time_played": 40.3125, "midi_note": 81, "frequency": 880, "note_held": 0.3125, "velocity": 96, "channel": 2}, {"time_played": 40.625, "midi_note": 72, "frequency": 523.25, "note_held": 0.3125, "velocity": 127, "channel": 0}, {"time_played": 40.625, "midi_note": 81, "frequency": 880, "note_held": 0.3125, "velocity": 127, "channel": 0}, {"time_played": 40.625, "midi_note": 72, "frequency": 523.25, "note_held": 0.3125, "velocity": 96, "channel": 2}, {"time_played": 40.625, "midi_note": 81, "frequency": 880, "note_held": 0.3125, "velocity": 96, "channel": 2}, {"time_played": 40.9375, "midi_note": 72, "frequency": 523.25, "note_held": 0.3125, "velocity": 127, "channel": 0}, {"time_played": 40.9375, "midi_note": 81, "frequency": 880, "note_held": 0.3125, "velocity": 127, "channel": 0}, {"time_played": 40.9375, "midi_note": 72, "frequency": 523.25, "note_held": 0.3125, "velocity": 96, "channel": 2}, {"time_played": 40.9375, "midi_note": 81, "frequency": 880, "note_held": 0.3125, "velocity": 96, "channel": 2}, {"time_played": 41.25, "midi_note": 72, "frequency": 523.25, "note_held": 0.3125, "velocity": 127, "channel": 0}, {"time_played": 41.25, "midi_note": 81, "frequency": 880, "note_held": 0.3125, "velocity": 127, "channel": 0}, {"time_played": 41.25, "midi_note": 72, "frequency": 523.25, "note_held": 0.3125, "velocity": 96, "channel": 2}, {"time_played": 41.25, "midi_note": 81, "frequency": 880, "note_held": 0.3125, "velocity": 96, "channel": 2}, {"time_played": 41.5625, "midi_note": 72, "frequency": 523.25, "note_held": 0.3125, "velocity": 127, "channel": 0}, {"time_played": 41.5625, "midi_note": 81, "frequency": 880, "note_held": 0.3125, "velocity": 127, "channel": 0}, {"time_played": 41.5625, "midi_note": 72, "frequency": 523.25, "note_held": 0.3125, "velocity": 96, "channel": 2}, {"time_played": 41.5625, "midi_note": 81, "frequency": 880, "note_held": 0.3125, "velocity": 96, "channel": 2}, {"time_played": 41.875, "midi_note": 72, "frequency": 523.25, "note_held": 0.3125, "velocity": 127, "channel": 0}, {"time_played": 41.875, "midi_note": 81, "frequency": 880, "note_held": 0.3125, "velocity": 127, "channel": 0}, {"time_played": 41.875, "midi_note": 72, "frequency": 523.25, "note_held": 0.3125, "velocity": 96, "channel": 2}, {"time_played": 41.875, "midi_note": 81, "frequency": 880, "note_held": 0.3125, "velocity": 96, "channel": 2}, {"time_played": 42.1875, "midi_note": 72, "frequency": 523.25, "note_held": 0.3125, "velocity": 127, "channel": 0}, {"time_played": 42.1875, "midi_note": 81, "frequency": 880, "note_held": 0.3125, "velocity": 127, "channel": 0}, {"time_played": 42.1875, "midi_note": 72, "frequency": 523.25, "note_held": 0.3125, "velocity": 96, "channel": 2}, {"time_played": 42.1875, "midi_note": 81, "frequency": 880, "note_held": 0.3125, "velocity": 96, "channel": 2}, {"time_played": 42.5, "midi_note": 72, "frequency": 523.25, "note_held": 0.3125, "velocity": 127, "channel": 0}, {"time_played": 42.5, "midi_note": 81, "frequency": 880, "note_held": 0.3125, "velocity": 127, "channel": 0}, {"time_played": 42.5, "midi_note": 72, "frequency": 523.25, "note_held": 0.3125, "velocity": 96, "channel": 2}, {"time_played": 42.5, "midi_note": 81, "frequency": 880, "note_held": 0.3125, "velocity": 96, "channel": 2}, {"time_played": 42.8125, "midi_note": 72, "frequency": 523.25, "note_held": 0.3125, "velocity": 127, "channel": 0}, {"time_played": 42.8125, "midi_note": 81, "frequency": 880, "note_held": 0.3125, "velocity": 127, "channel": 0}, {"time_played": 42.8125, "midi_note": 72, "frequency": 523.25, "note_held": 0.3125, "velocity": 96, "channel": 2}, {"time_played": 42.8125, "midi_note": 81, "frequency": 880, "note_held": 0.3125, "velocity": 96, "channel": 2}, {"time_played": 43.125, "midi_note": 72, "frequency": 523.25, "note_held": 0.3125, "velocity": 127, "channel": 0}, {"time_played": 43.125, "midi_note": 81, "frequency": 880, "note_held": 0.3125, "velocity": 127, "channel": 0}, {"time_played": 43.125, "midi_note": 72, "frequency": 523.25, "note_held": 0.3125, "velocity": 96, "channel": 2}, {"time_played": 43.125, "midi_note": 81, "frequency": 880, "note_held": 0.3125, "velocity": 96, "channel": 2}, {"time_played": 43.4375, "midi_note": 71, "frequency": 493.88, "note_held": 0.3125, "velocity": 127, "channel": 0}, {"time_played": 43.4375, "midi_note": 79, "frequency": 783.99, "note_held": 0.3125, "velocity": 127, "channel": 0}, {"time_played": 43.4375, "midi_note": 71, "frequency": 493.88, "note_held": 0.3125, "velocity": 96, "channel": 2}, {"time_played": 43.4375, "midi_note": 79, "frequency": 783.99, "note_held": 0.3125, "velocity": 96, "channel": 2}, {"time_played": 43.75, "midi_note": 71, "frequency": 493.88, "note_held": 0.3125, "velocity": 127, "channel": 0}, {"time_played": 43.75, "midi_note": 79, "frequency": 783.99, "note_held": 0.3125, "velocity": 127, "channel": 0}, {"time_played": 43.75, "midi_note": 71, "frequency": 493.88, "note_held": 0.3125, "velocity": 96, "channel": 2}, {"time_played": 43.75, "midi_note": 79, "frequency": 783.99, "note_held": 0.3125, "velocity": 96, "channel": 2}, {"time_played": 44.0625, "midi_note": 71, "frequency": 493.88, "note_held": 0.3125, "velocity": 127, "channel": 0}, {"time_played": 44.0625, "midi_note": 79, "frequency": 783.99, "note_held": 0.3125, "velocity": 127, "channel": 0}, {"time_played": 44.0625, "midi_note": 71, "frequency": 493.88, "note_held": 0.3125, "velocity": 96, "channel": 2}, {"time_played": 44.0625, "midi_note": 79, "frequency": 783.99, "note_held": 0.3125, "velocity": 96, "channel": 2}, {"time_played": 44.375, "midi_note": 71, "frequency": 493.88, "note_held": 0.3125, "velocity": 127, "channel": 0}, {"time_played": 44.375, "midi_note": 79, "frequency": 783.99, "note_held": 0.3125, "velocity": 127, "channel": 0}, {"time_played": 44.375, "midi_note": 71, "frequency": 493.88, "note_held": 0.3125, "velocity": 96, "channel": 2}, {"time_played": 44.375, "midi_note": 79, "frequency": 783.99, "note_held": 0.3125, "velocity": 96, "channel": 2}, {"time_played": 44.6875, "midi_note": 71, "frequency": 493.88, "note_held": 0.3125, "velocity": 127, "channel": 0}, {"time_played": 44.6875, "midi_note": 79, "frequency": 783.99, "note_held": 0.3125, "velocity": 127, "channel": 0}, {"time_played": 44.6875, "midi_note": 71, "frequency": 493.88, "note_held": 0.3125, "velocity": 96, "channel": 2}, {"time_played": 44.6875, "midi_note": 79, "frequency": 783.99, "note_held": 0.3125, "velocity": 96, "channel": 2}, {"time_played": 45.0, "midi_note": 72, "frequency": 523.25, "note_held": 0.3125, "velocity": 127, "channel": 0}, {"time_played": 45.0, "midi_note": 81, "frequency": 880, "note_held": 0.3125, "velocity": 127, "channel": 0}, {"time_played": 45.0, "midi_note": 72, "frequency": 523.25, "note_held": 0.3125, "velocity": 96, "channel": 2}, {"time_played": 45.0, "midi_note": 81, "frequency": 880, "note_held": 0.3125, "velocity": 96, "channel": 2}, {"time_played": 45.3125, "midi_note": 72, "frequency": 523.25, "note_held": 0.3125, "velocity": 127, "channel": 0}, {"time_played": 45.3125, "midi_note": 81, "frequency": 880, "note_held": 0.3125, "velocity": 127, "channel": 0}, {"time_played": 45.3125, "midi_note": 72, "frequency": 523.25, "note_held": 0.3125, "velocity": 96, "channel": 2}, {"time_played": 45.3125, "midi_note": 81, "frequency": 880, "note_held": 0.3125, "velocity": 96, "channel": 2}, {"time_played": 45.625, "midi_note": 72, "frequency": 523.25, "note_held": 0.3125, "velocity": 127, "channel": 0}, {"time_played": 45.625, "midi_note": 81, "frequency": 880, "note_held": 0.3125, "velocity": 127, "channel": 0}, {"time_played": 45.625, "midi_note": 72, "frequency": 523.25, "note_held": 0.3125, "velocity": 96, "channel": 2}, {"time_played": 45.625, "midi_note": 81, "frequency": 880, "note_held": 0.3125, "velocity": 96, "channel": 2}, {"time_played": 45.9375, "midi_note": 72, "frequency": 523.25, "note_held": 0.3125, "velocity": 127, "channel": 0}, {"time_played": 45.9375, "midi_note": 81, "frequency": 880, "note_held": 0.3125, "velocity": 127, "channel": 0}, {"time_played": 45.9375, "midi_note": 72, "frequency": 523.25, "note_held": 0.3125, "velocity": 96, "channel": 2}, {"time_played": 45.9375, "midi_note": 81, "frequency": 880, "note_held": 0.3125, "velocity": 96, "channel": 2}, {"time_played": 46.25, "midi_note": 72, "frequency": 523.25, "note_held": 0.3125, "velocity": 127, "channel": 0}, {"time_played": 46.25, "midi_note": 81, "frequency": 880, "note_held": 0.3125, "velocity": 127, "channel": 0}, {"time_played": 46.25, "midi_note": 72, "frequency": 523.25, "note_held": 0.3125, "velocity": 96, "channel": 2}, {"time_played": 46.25, "midi_note": 81, "frequency": 880, "note_held": 0.3125, "velocity": 96, "channel": 2}, {"time_played": 46.5625, "midi_note": 72, "frequency": 523.25, "note_held": 0.3125, "velocity": 127, "channel": 0}, {"time_played": 46.5625, "midi_note": 81, "frequency": 880, "note_held": 0.3125, "velocity": 127, "channel": 0}, {"time_played": 46.5625, "midi_note": 72, "frequency": 523.25, "note_held": 0.3125, "velocity": 96, "channel": 2}, {"time_played": 46.5625, "midi_note": 81, "frequency": 880, "note_held": 0.3125, "velocity": 96, "channel": 2}, {"time_played": 46.875, "midi_note": 72, "frequency": 523.25, "note_held": 0.3125, "velocity": 127, "channel": 0}, {"time_played": 46.875, "midi_note": 81, "frequency": 880, "note_held": 0.3125, "velocity": 127, "channel": 0}, {"time_played": 46.875, "midi_note": 72, "frequency": 523.25, "note_held": 0.3125, "velocity": 96, "channel": 2}, {"time_played": 46.875, "midi_note": 81, "frequency": 880, "note_held": 0.3125, "velocity": 96, "channel": 2}, {"time_played": 47.1875, "midi_note": 72, "frequency": 523.25, "note_held": 0.3125, "velocity": 127, "channel": 0}, {"time_played": 47.1875, "midi_note": 81, "frequency": 880, "note_held": 0.3125, "velocity": 127, "channel": 0}, {"time_played": 47.1875, "midi_note": 72, "frequency": 523.25, "note_held": 0.3125, "velocity": 96, "channel": 2}, {"time_played": 47.1875, "midi_note": 81, "frequency": 880, "note_held": 0.3125, "velocity": 96, "channel": 2}, {"time_played": 47.5, "midi_note": 72, "frequency": 523.25, "note_held": 0.3125, "velocity": 127, "channel": 0}, {"time_played": 47.5, "midi_note": 81, "frequency": 880, "note_held": 0.3125, "velocity": 127, "channel": 0}, {"time_played": 47.5, "midi_note": 72, "frequency": 523.25, "note_held": 0.3125, "velocity": 96, "channel": 2}, {"time_played": 47.5, "midi_note": 81, "frequency": 880, "note_held": 0.3125, "velocity": 96, "channel": 2}, {"time_played": 47.8125, "midi_note": 72, "frequency": 523.25, "note_held": 0.3125, "velocity": 127, "channel": 0}, {"time_played": 47.8125, "midi_note": 81, "frequency": 880, "note_held": 0.3125, "velocity": 127, "channel": 0}, {"time_played": 47.8125, "midi_note": 72, "frequency": 523.25, "note_held": 0.3125, "velocity": 96, "channel": 2}, {"time_played": 47.8125, "midi_note": 81, "frequency": 880, "note_held": 0.3125, "velocity": 96, "channel": 2}, {"time_played": 48.125, "midi_note": 72, "frequency": 523.25, "note_held": 0.3125, "velocity": 127, "channel": 0}, {"time_played": 48.125, "midi_note": 81, "frequency": 880, "note_held": 0.3125, "velocity": 127, "channel": 0}, {"time_played": 48.125, "midi_note": 72, "frequency": 523.25, "note_held": 0.3125, "velocity": 96, "channel": 2}, {"time_played": 48.125, "midi_note": 81, "frequency": 880, "note_held": 0.3125, "velocity": 96, "channel": 2}, {"time_played": 48.4375, "midi_note": 71, "frequency": 493.88, "note_held": 0.3125, "velocity": 127, "channel": 0}, {"time_played": 48.4375, "midi_note": 79, "frequency": 783.99, "note_held": 0.3125, "velocity": 127, "channel": 0}, {"time_played": 48.4375, "midi_note": 71, "frequency": 493.88, "note_held": 0.3125, "velocity": 96, "channel": 2}, {"time_played": 48.4375, "midi_note": 79, "frequency": 783.99, "note_held": 0.3125, "velocity": 96, "channel": 2}, {"time_played": 48.75, "midi_note": 71, "frequency": 493.88, "note_held": 0.3125, "velocity": 127, "channel": 0}, {"time_played": 48.75, "midi_note": 79, "frequency": 783.99, "note_held": 0.3125, "velocity": 127, "channel": 0}, {"time_played": 48.75, "midi_note": 71, "frequency": 493.88, "note_held": 0.3125, "velocity": 96, "channel": 2}, {"time_played": 48.75, "midi_note": 79, "frequency": 783.99, "note_held": 0.3125, "velocity": 96, "channel": 2}, {"time_played": 49.0625, "midi_note": 71, "frequency": 493.88, "note_held": 0.3125, "velocity": 127, "channel": 0}, {"time_played": 49.0625, "midi_note": 79, "frequency": 783.99, "note_held": 0.3125, "velocity": 127, "channel": 0}, {"time_played": 49.0625, "midi_note": 71, "frequency": 493.88, "note_held": 0.3125, "velocity": 96, "channel": 2}, {"time_played": 49.0625, "midi_note": 79, "frequency": 783.99, "note_held": 0.3125, "velocity": 96, "channel": 2}, {"time_played": 49.375, "midi_note": 71, "frequency": 493.88, "note_held": 0.3125, "velocity": 127, "channel": 0}, {"time_played": 49.375, "midi_note": 79, "frequency": 783.99, "note_held": 0.3125, "velocity": 127, "channel": 0}, {"time_played": 49.375, "midi_note": 71, "frequency": 493.88, "note_held": 0.3125, "velocity": 96, "channel": 2}, {"time_played": 49.375, "midi_note": 79, "frequency": 783.99, "note_held": 0.3125, "velocity": 96, "channel": 2}, {"time_played": 49.6875, "midi_note": 71, "frequency": 493.88, "note_held": 0.3125, "velocity": 127, "channel": 0}, {"time_played": 49.6875, "midi_note": 79, "frequency": 783.99, "note_held": 0.3125, "velocity": 127, "channel": 0}, {"time_played": 49.6875, "midi_note": 71, "frequency": 493.88, "note_held": 0.3125, "velocity": 96, "channel": 2}, {"time_played": 49.6875, "midi_note": 79, "frequency": 783.99, "note_held": 0.3125, "velocity": 96, "channel": 2}, {"time_played": 50.0, "midi_note": 72, "frequency": 523.25, "note_held": 0.3125, "velocity": 127, "channel": 0}, {"time_played": 50.0, "midi_note": 81, "frequency": 880, "note_held": 0.3125, "velocity": 127, "channel": 0}, {"time_played": 50.0, "midi_note": 72, "frequency": 523.25, "note_held": 0.3125, "velocity": 96, "channel": 2}, {"time_played": 50.0, "midi_note": 81, "frequency": 880, "note_held": 0.3125, "velocity": 96, "channel": 2}, {"time_played": 50.3125, "midi_note": 72, "frequency": 523.25, "note_held": 0.3125, "velocity": 127, "channel": 0}, {"time_played": 50.3125, "midi_note": 81, "frequency": 880, "note_held": 0.3125, "velocity": 127, "channel": 0}, {"time_played": 50.3125, "midi_note": 72, "frequency": 523.25, "note_held": 0.3125, "velocity": 96, "channel": 2}, {"time_played": 50.3125, "midi_note": 81, "frequency": 880, "note_held": 0.3125, "velocity": 96, "channel": 2}, {"time_played": 50.625, "midi_note": 72, "frequency": 523.25, "note_held": 0.3125, "velocity": 127, "channel": 0}, {"time_played": 50.625, "midi_note": 81, "frequency": 880, "note_held": 0.3125, "velocity": 127, "channel": 0}, {"time_played": 50.625, "midi_note": 72, "frequency": 523.25, "note_held": 0.3125, "velocity": 96, "channel": 2}, {"time_played": 50.625, "midi_note": 81, "frequency": 880, "note_held": 0.3125, "velocity": 96, "channel": 2}, {"time_played": 50.9375, "midi_note": 72, "frequency": 523.25, "note_held": 0.3125, "velocity": 127, "channel": 0}, {"time_played": 50.9375, "midi_note": 81, "frequency": 880, "note_held": 0.3125, "velocity": 127, "channel": 0}, {"time_played": 50.9375, "midi_note": 72, "frequency": 523.25, "note_held": 0.3125, "velocity": 96, "channel": 2}, {"time_played": 50.9375, "midi_note": 81, "frequency": 880, "note_held": 0.3125, "velocity": 96, "channel": 2}, {"time_played": 51.25, "midi_note": 72, "frequency": 523.25, "note_held": 0.3125, "velocity": 127, "channel": 0}, {"time_played": 51.25, "midi_note": 81, "frequency": 880, "note_held": 0.3125, "velocity": 127, "channel": 0}, {"time_played": 51.25, "midi_note": 72, "frequency": 523.25, "note_held": 0.3125, "velocity": 96, "channel": 2}, {"time_played": 51.25, "midi_note": 81, "frequency": 880, "note_held": 0.3125, "velocity": 96, "channel": 2}, {"time_played": 51.5625, "midi_note": 72, "frequency": 523.25, "note_held": 0.3125, "velocity": 127, "channel": 0}, {"time_played": 51.5625, "midi_note": 81, "frequency": 880, "note_held": 0.3125, "velocity": 127, "channel": 0}, {"time_played": 51.5625, "midi_note": 72, "frequency": 523.25, "note_held": 0.3125, "velocity": 96, "channel": 2}, {"time_played": 51.5625, "midi_note": 81, "frequency": 880, "note_held": 0.3125, "velocity": 96, "channel": 2}, {"time_played": 51.875, "midi_note": 72, "frequency": 523.25, "note_held": 0.3125, "velocity": 127, "channel": 0}, {"time_played": 51.875, "midi_note": 81, "frequency": 880, "note_held": 0.3125, "velocity": 127, "channel": 0}, {"time_played": 51.875, "midi_note": 72, "frequency": 523.25, "note_held": 0.3125, "velocity": 96, "channel": 2}, {"time_played": 51.875, "midi_note": 81, "frequency": 880, "note_held": 0.3125, "velocity": 96, "channel": 2}, {"time_played": 52.1875, "midi_note": 72, "frequency": 523.25, "note_held": 0.3125, "velocity": 127, "channel": 0}, {"time_played": 52.1875, "midi_note": 81, "frequency": 880, "note_held": 0.3125, "velocity": 127, "channel": 0}, {"time_played": 52.1875, "midi_note": 72, "frequency": 523.25, "note_held": 0.3125, "velocity": 96, "channel": 2}, {"time_played": 52.1875, "midi_note": 81, "frequency": 880, "note_held": 0.3125, "velocity": 96, "channel": 2}, {"time_played": 52.5, "midi_note": 72, "frequency": 523.25, "note_held": 0.3125, "velocity": 127, "channel": 0}, {"time_played": 52.5, "midi_note": 81, "frequency": 880, "note_held": 0.3125, "velocity": 127, "channel": 0}, {"time_played": 52.5, "midi_note": 72, "frequency": 523.25, "note_held": 0.3125, "velocity": 96, "channel": 2}, {"time_played": 52.5, "midi_note": 81, "frequency": 880, "note_held": 0.3125, "velocity": 96, "channel": 2}, {"time_played": 52.8125, "midi_note": 72, "frequency": 523.25, "note_held": 0.3125, "velocity": 127, "channel": 0}, {"time_played": 52.8125, "midi_note": 81, "frequency": 880, "note_held": 0.3125, "velocity": 127, "channel": 0}, {"time_played": 52.8125, "midi_note": 72, "frequency": 523.25, "note_held": 0.3125, "velocity": 96, "channel": 2}, {"time_played": 52.8125, "midi_note": 81, "frequency": 880, "note_held": 0.3125, "velocity": 96, "channel": 2}, {"time_played": 53.125, "midi_note": 72, "frequency": 523.25, "note_held": 0.3125, "velocity": 127, "channel": 0}, {"time_played": 53.125, "midi_note": 81, "frequency": 880, "note_held": 0.3125, "velocity": 127, "channel": 0}, {"time_played": 53.125, "midi_note": 72, "frequency": 523.25, "note_held": 0.3125, "velocity": 96, "channel": 2}, {"time_played": 53.125, "midi_note": 81, "frequency": 880, "note_held": 0.3125, "velocity": 96, "channel": 2}, {"time_played": 53.4375, "midi_note": 71, "frequency": 493.88, "note_held": 0.3125, "velocity": 127, "channel": 0}, {"time_played": 53.4375, "midi_note": 79, "frequency": 783.99, "note_held": 0.3125, "velocity": 127, "channel": 0}, {"time_played": 53.4375, "midi_note": 71, "frequency": 493.88, "note_held": 0.3125, "velocity": 96, "channel": 2}, {"time_played": 53.4375, "midi_note": 79, "frequency": 783.99, "note_held": 0.3125, "velocity": 96, "channel": 2}, {"time_played": 53.75, "midi_note": 71, "frequency": 493.88, "note_held": 0.3125, "velocity": 127, "channel": 0}, {"time_played": 53.75, "midi_note": 79, "frequency": 783.99, "note_held": 0.3125, "velocity": 127, "channel": 0}, {"time_played": 53.75, "midi_note": 71, "frequency": 493.88, "note_held": 0.3125, "velocity": 96, "channel": 2}, {"time_played": 53.75, "midi_note": 79, "frequency": 783.99, "note_held": 0.3125, "velocity": 96, "channel": 2}, {"time_played": 54.0625, "midi_note": 71, "frequency": 493.88, "note_held": 0.3125, "velocity": 127, "channel": 0}, {"time_played": 54.0625, "midi_note": 79, "frequency": 783.99, "note_held": 0.3125, "velocity": 127, "channel": 0}, {"time_played": 54.0625, "midi_note": 71, "frequency": 493.88, "note_held": 0.3125, "velocity": 96, "channel": 2}, {"time_played": 54.0625, "midi_note": 79, "frequency": 783.99, "note_held": 0.3125, "velocity": 96, "channel": 2}, {"time_played": 54.375, "midi_note": 71, "frequency": 493.88, "note_held": 0.3125, "velocity": 127, "channel": 0}, {"time_played": 54.375, "midi_note": 79, "frequency": 783.99, "note_held": 0.3125, "velocity": 127, "channel": 0}, {"time_played": 54.375, "midi_note": 71, "frequency": 493.88, "note_held": 0.3125, "velocity": 96, "channel": 2}, {"time_played": 54.375, "midi_note": 79, "frequency": 783.99, "note_held": 0.3125, "velocity": 96, "channel": 2}, {"time_played": 54.6875, "midi_note": 71, "frequency": 493.88, "note_held": 0.3125, "velocity": 127, "channel": 0}, {"time_played": 54.6875, "midi_note": 79, "frequency": 783.99, "note_held": 0.3125, "velocity": 127, "channel": 0}, {"time_played": 54.6875, "midi_note": 71, "frequency": 493.88, "note_held": 0.3125, "velocity": 96, "channel": 2}, {"time_played": 54.6875, "midi_note": 79, "frequency": 783.99, "note_held": 0.3125, "velocity": 96, "channel": 2}, {"time_played": 55.0, "midi_note": 72, "frequency": 523.25, "note_held": 0.3125, "velocity": 127, "channel": 0}, {"time_played": 55.0, "midi_note": 81, "frequency": 880, "note_held": 0.3125, "velocity": 127, "channel": 0}, {"time_played": 55.0, "midi_note": 72, "frequency": 523.25, "note_held": 0.3125, "velocity": 96, "channel": 2}, {"time_played": 55.0, "midi_note": 81, "frequency": 880, "note_held": 0.3125, "velocity": 96, "channel": 2}, {"time_played": 55.3125, "midi_note": 72, "frequency": 523.25, "note_held": 0.3125, "velocity": 127, "channel": 0}, {"time_played": 55.3125, "midi_note": 81, "frequency": 880, "note_held": 0.3125, "velocity": 127, "channel": 0}, {"time_played": 55.3125, "midi_note": 72, "frequency": 523.25, "note_held": 0.3125, "velocity": 96, "channel": 2}, {"time_played": 55.3125, "midi_note": 81, "frequency": 880, "note_held": 0.3125, "velocity": 96, "channel": 2}, {"time_played": 55.625, "midi_note": 72, "frequency": 523.25, "note_held": 0.3125, "velocity": 127, "channel": 0}, {"time_played": 55.625, "midi_note": 81, "frequency": 880, "note_held": 0.3125, "velocity": 127, "channel": 0}, {"time_played": 55.625, "midi_note": 72, "frequency": 523.25, "note_held": 0.3125, "velocity": 96, "channel": 2}, {"time_played": 55.625, "midi_note": 81, "frequency": 880, "note_held": 0.3125, "velocity": 96, "channel": 2}, {"time_played": 55.9375, "midi_note": 72, "frequency": 523.25, "note_held": 0.3125, "velocity": 127, "channel": 0}, {"time_played": 55.9375, "midi_note": 81, "frequency": 880, "note_held": 0.3125, "velocity": 127, "channel": 0}, {"time_played": 55.9375, "midi_note": 72, "frequency": 523.25, "note_held": 0.3125, "velocity": 96, "channel": 2}, {"time_played": 55.9375, "midi_note": 81, "frequency": 880, "note_held": 0.3125, "velocity": 96, "channel": 2}, {"time_played": 56.25, "midi_note": 72, "frequency": 523.25, "note_held": 0.3125, "velocity": 127, "channel": 0}, {"time_played": 56.25, "midi_note": 81, "frequency": 880, "note_held": 0.3125, "velocity": 127, "channel": 0}, {"time_played": 56.25, "midi_note": 72, "frequency": 523.25, "note_held": 0.3125, "velocity": 96, "channel": 2}, {"time_played": 56.25, "midi_note": 81, "frequency": 880, "note_held": 0.3125, "velocity": 96, "channel": 2}, {"time_played": 56.5625, "midi_note": 72, "frequency": 523.25, "note_held": 0.3125, "velocity": 127, "channel": 0}, {"time_played": 56.5625, "midi_note": 81, "frequency": 880, "note_held": 0.3125, "velocity": 127, "channel": 0}, {"time_played": 56.5625, "midi_note": 72, "frequency": 523.25, "note_held": 0.3125, "velocity": 96, "channel": 2}, {"time_played": 56.5625, "midi_note": 81, "frequency": 880, "note_held": 0.3125, "velocity": 96, "channel": 2}, {"time_played": 56.875, "midi_note": 72, "frequency": 523.25, "note_held": 0.3125, "velocity": 127, "channel": 0}, {"time_played": 56.875, "midi_note": 81, "frequency": 880, "note_held": 0.3125, "velocity": 127, "channel": 0}, {"time_played": 56.875, "midi_note": 72, "frequency": 523.25, "note_held": 0.3125, "velocity": 96, "channel": 2}, {"time_played": 56.875, "midi_note": 81, "frequency": 880, "note_held": 0.3125, "velocity": 96, "channel": 2}, {"time_played": 57.1875, "midi_note": 72, "frequency": 523.25, "note_held": 0.3125, "velocity": 127, "channel": 0}, {"time_played": 57.1875, "midi_note": 81, "frequency": 880, "note_held": 0.3125, "velocity": 127, "channel": 0}, {"time_played": 57.1875, "midi_note": 72, "frequency": 523.25, "note_held": 0.3125, "velocity": 96, "channel": 2}, {"time_played": 57.1875, "midi_note": 81, "frequency": 880, "note_held": 0.3125, "velocity": 96, "channel": 2}, {"time_played": 57.5, "midi_note": 72, "frequency": 523.25, "note_held": 0.3125, "velocity": 127, "channel": 0}, {"time_played": 57.5, "midi_note": 81, "frequency": 880, "note_held": 0.3125, "velocity": 127, "channel": 0}, {"time_played": 57.5, "midi_note": 72, "frequency": 523.25, "note_held": 0.3125, "velocity": 96, "channel": 2}, {"time_played": 57.5, "midi_note": 81, "frequency": 880, "note_held": 0.3125, "velocity": 96, "channel": 2}, {"time_played": 57.8125, "midi_note": 72, "frequency": 523.25, "note_held": 0.3125, "velocity": 127, "channel": 0}, {"time_played": 57.8125, "midi_note": 81, "frequency": 880, "note_held": 0.3125, "velocity": 127, "channel": 0}, {"time_played": 57.8125, "midi_note": 72, "frequency": 523.25, "note_held": 0.3125, "velocity": 96, "channel": 2}, {"time_played": 57.8125, "midi_note": 81, "frequency": 880, "note_held": 0.3125, "velocity": 96, "channel": 2}, {"time_played": 58.125, "midi_note": 72, "frequency": 523.25, "note_held": 0.3125, "velocity": 127, "channel": 0}, {"time_played": 58.125, "midi_note": 81, "frequency": 880, "note_held": 0.3125, "velocity": 127, "channel": 0}, {"time_played": 58.125, "midi_note": 72, "frequency": 523.25, "note_held": 0.3125, "velocity": 96, "channel": 2}, {"time_played": 58.125, "midi_note": 81, "frequency": 880, "note_held": 0.3125, "velocity": 96, "channel": 2}, {"time_played": 58.4375, "midi_note": 71, "frequency": 493.88, "note_held": 0.3125, "velocity": 127, "channel": 0}, {"time_played": 58.4375, "midi_note": 79, "frequency": 783.99, "note_held": 0.3125, "velocity": 127, "channel": 0}, {"time_played": 58.4375, "midi_note": 71, "frequency": 493.88, "note_held": 0.3125, "velocity": 96, "channel": 2}, {"time_played": 58.4375, "midi_note": 79, "frequency": 783.99, "note_held": 0.3125, "velocity": 96, "channel": 2}, {"time_played": 58.75, "midi_note": 71, "frequency": 493.88, "note_held": 0.3125, "velocity": 127, "channel": 0}, {"time_played": 58.75, "midi_note": 79, "frequency": 783.99, "note_held": 0.3125, "velocity": 127, "channel": 0}, {"time_played": 58.75, "midi_note": 71, "frequency": 493.88, "note_held": 0.3125, "velocity": 96, "channel": 2}, {"time_played": 58.75, "midi_note": 79, "frequency": 783.99, "note_held": 0.3125, "velocity": 96, "channel": 2}, {"time_played": 59.0625, "midi_note": 71, "frequency": 493.88, "note_held": 0.3125, "velocity": 127, "channel": 0}, {"time_played": 59.0625, "midi_note": 79, "frequency": 783.99, "note_held": 0.3125, "velocity": 127, "channel": 0}, {"time_played": 59.0625, "midi_note": 71, "frequency": 493.88, "note_held": 0.3125, "velocity": 96, "channel": 2}, {"time_played": 59.0625, "midi_note": 79, "frequency": 783.99, "note_held": 0.3125, "velocity": 96, "channel": 2}, {"time_played": 59.375, "midi_note": 71, "frequency": 493.88, "note_held": 0.3125, "velocity": 127, "channel": 0}, {"time_played": 59.375, "midi_note": 79, "frequency": 783.99, "note_held": 0.3125, "velocity": 127, "channel": 0}, {"time_played": 59.375, "midi_note": 71, "frequency": 493.88, "note_held": 0.3125, "velocity": 96, "channel": 2}, {"time_played": 59.375, "midi_note": 79, "frequency": 783.99, "note_held": 0.3125, "velocity": 96, "channel": 2}, {"time_played": 59.6875, "midi_note": 71, "frequency": 493.88, "note_held": 0.3125, "velocity": 127, "channel": 0}, {"time_played": 59.6875, "midi_note": 79, "frequency": 783.99, "note_held": 0.3125, "velocity": 127, "channel": 0}, {"time_played": 59.6875, "midi_note": 71, "frequency": 493.88, "note_held": 0.3125, "velocity": 96, "channel": 2}, {"time_played": 59.6875, "midi_note": 79, "frequency": 783.99, "note_held": 0.3125, "velocity": 96, "channel": 2}, {"time_played": 60.0, "midi_note": 72, "frequency": 523.25, "note_held": 0.3125, "velocity": 127, "channel": 0}, {"time_played": 60.0, "midi_note": 81, "frequency": 880, "note_held": 0.3125, "velocity": 127, "channel": 0}, {"time_played": 60.0, "midi_note": 72, "frequency": 523.25, "note_held": 0.3125, "velocity": 96, "channel": 2}, {"time_played": 60.0, "midi_note": 81, "frequency": 880, "note_held": 0.3125, "velocity": 96, "channel": 2}, {"time_played": 60.3125, "midi_note": 72, "frequency": 523.25, "note_held": 0.3125, "velocity": 127, "channel": 0}, {"time_played": 60.3125, "midi_note": 81, "frequency": 880, "note_held": 0.3125, "velocity": 127, "channel": 0}, {"time_played": 60.3125, "midi_note": 72, "frequency": 523.25, "note_held": 0.3125, "velocity": 96, "channel": 2}, {"time_played": 60.3125, "midi_note": 81, "frequency": 880, "note_held": 0.3125, "velocity": 96, "channel": 2}, {"time_played": 60.625, "midi_note": 72, "frequency": 523.25, "note_held": 0.3125, "velocity": 127, "channel": 0}, {"time_played": 60.625, "midi_note": 81, "frequency": 880, "note_held": 0.3125, "velocity": 127, "channel": 0}, {"time_played": 60.625, "midi_note": 72, "frequency": 523.25, "note_held": 0.3125, "velocity": 96, "channel": 2}, {"time_played": 60.625, "midi_note": 81, "frequency": 880, "note_held": 0.3125, "velocity": 96, "channel": 2}, {"time_played": 60.9375, "midi_note": 72, "frequency": 523.25, "note_held": 0.3125, "velocity": 127, "channel": 0}, {"time_played": 60.9375, "midi_note": 81, "frequency": 880, "note_held": 0.3125, "velocity": 127, "channel": 0}, {"time_played": 60.9375, "midi_note": 72, "frequency": 523.25, "note_held": 0.3125, "velocity": 96, "channel": 2}, {"time_played": 60.9375, "midi_note": 81, "frequency": 880, "note_held": 0.3125, "velocity": 96, "channel": 2}, {"time_played": 61.25, "midi_note": 72, "frequency": 523.25, "note_held": 0.3125, "velocity": 127, "channel": 0}, {"time_played": 61.25, "midi_note": 81, "frequency": 880, "note_held": 0.3125, "velocity": 127, "channel": 0}, {"time_played": 61.25, "midi_note": 72, "frequency": 523.25, "note_held": 0.3125, "velocity": 96, "channel": 2}, {"time_played": 61.25, "midi_note": 81, "frequency": 880, "note_held": 0.3125, "velocity": 96, "channel": 2}, {"time_played": 61.5625, "midi_note": 72, "frequency": 523.25, "note_held": 0.3125, "velocity": 127, "channel": 0}, {"time_played": 61.5625, "midi_note": 81, "frequency": 880, "note_held": 0.3125, "velocity": 127, "channel": 0}, {"time_played": 61.5625, "midi_note": 72, "frequency": 523.25, "note_held": 0.3125, "velocity": 96, "channel": 2}, {"time_played": 61.5625, "midi_note": 81, "frequency": 880, "note_held": 0.3125, "velocity": 96, "channel": 2}, {"time_played": 61.875, "midi_note": 72, "frequency": 523.25, "note_held": 0.3125, "velocity": 127, "channel": 0}, {"time_played": 61.875, "midi_note": 81, "frequency": 880, "note_held": 0.3125, "velocity": 127, "channel": 0}, {"time_played": 61.875, "midi_note": 72, "frequency": 523.25, "note_held": 0.3125, "velocity": 96, "channel": 2}, {"time_played": 61.875, "midi_note": 81, "frequency": 880, "note_held": 0.3125, "velocity": 96, "channel": 2}, {"time_played": 62.1875, "midi_note": 72, "frequency": 523.25, "note_held": 0.3125, "velocity": 127, "channel": 0}, {"time_played": 62.1875, "midi_note": 81, "frequency": 880, "note_held": 0.3125, "velocity": 127, "channel": 0}, {"time_played": 62.1875, "midi_note": 72, "frequency": 523.25, "note_held": 0.3125, "velocity": 96, "channel": 2}, {"time_played": 62.1875, "midi_note": 81, "frequency": 880, "note_held": 0.3125, "velocity": 96, "channel": 2}, {"time_played": 62.5, "midi_note": 72, "frequency": 523.25, "note_held": 0.3125, "velocity": 127, "channel": 0}, {"time_played": 62.5, "midi_note": 81, "frequency": 880, "note_held": 0.3125, "velocity": 127, "channel": 0}, {"time_played": 62.5, "midi_note": 72, "frequency": 523.25, "note_held": 0.3125, "velocity": 96, "channel": 2}, {"time_played": 62.5, "midi_note": 81, "frequency": 880, "note_held": 0.3125, "velocity": 96, "channel": 2}, {"time_played": 62.8125, "midi_note": 72, "frequency": 523.25, "note_held": 0.3125, "velocity": 127, "channel": 0}, {"time_played": 62.8125, "midi_note": 81, "frequency": 880, "note_held": 0.3125, "velocity": 127, "channel": 0}, {"time_played": 62.8125, "midi_note": 72, "frequency": 523.25, "note_held": 0.3125, "velocity": 96, "channel": 2}, {"time_played": 62.8125, "midi_note": 81, "frequency": 880, "note_held": 0.3125, "velocity": 96, "channel": 2}, {"time_played": 63.125, "midi_note": 72, "frequency": 523.25, "note_held": 0.3125, "velocity": 127, "channel": 0}, {"time_played": 63.125, "midi_note": 81, "frequency": 880, "note_held": 0.3125, "velocity": 127, "channel": 0}, {"time_played": 63.125, "midi_note": 72, "frequency": 523.25, "note_held": 0.3125, "velocity": 96, "channel": 2}, {"time_played": 63.125, "midi_note": 81, "frequency": 880, "note_held": 0.3125, "velocity": 96, "channel": 2}, {"time_played": 63.4375, "midi_note": 71, "frequency": 493.88, "note_held": 0.3125, "velocity": 127, "channel": 0}, {"time_played": 63.4375, "midi_note": 79, "frequency": 783.99, "note_held": 0.3125, "velocity": 127, "channel": 0}, {"time_played": 63.4375, "midi_note": 71, "frequency": 493.88, "note_held": 0.3125, "velocity": 96, "channel": 2}, {"time_played": 63.4375, "midi_note": 79, "frequency": 783.99, "note_held": 0.3125, "velocity": 96, "channel": 2}, {"time_played": 63.75, "midi_note": 71, "frequency": 493.88, "note_held": 0.3125, "velocity": 127, "channel": 0}, {"time_played": 63.75, "midi_note": 79, "frequency": 783.99, "note_held": 0.3125, "velocity": 127, "channel": 0}, {"time_played": 63.75, "midi_note": 71, "frequency": 493.88, "note_held": 0.3125, "velocity": 96, "channel": 2}, {"time_played": 63.75, "midi_note": 79, "frequency": 783.99, "note_held": 0.3125, "velocity": 96, "channel": 2}, {"time_played": 64.0625, "midi_note": 71, "frequency": 493.88, "note_held": 0.3125, "velocity": 127, "channel": 0}, {"time_played": 64.0625, "midi_note": 79, "frequency": 783.99, "note_held": 0.3125, "velocity": 127, "channel": 0}, {"time_played": 64.0625, "midi_note": 71, "frequency": 493.88, "note_held": 0.3125, "velocity": 96, "channel": 2}, {"time_played": 64.0625, "midi_note": 79, "frequency": 783.99, "note_held": 0.3125, "velocity": 96, "channel": 2}, {"time_played": 64.375, "midi_note": 71, "frequency": 493.88, "note_held": 0.3125, "velocity": 127, "channel": 0}, {"time_played": 64.375, "midi_note": 79, "frequency": 783.99, "note_held": 0.3125, "velocity": 127, "channel": 0}, {"time_played": 64.375, "midi_note": 71, "frequency": 493.88, "note_held": 0.3125, "velocity": 96, "channel": 2}, {"time_played": 64.375, "midi_note": 79, "frequency": 783.99, "note_held": 0.3125, "velocity": 96, "channel": 2}, {"time_played": 64.6875, "midi_note": 71, "frequency": 493.88, "note_held": 0.3125, "velocity": 127, "channel": 0}, {"time_played": 64.6875, "midi_note": 79, "frequency": 783.99, "note_held": 0.3125, "velocity": 127, "channel": 0}, {"time_played": 64.6875, "midi_note": 71, "frequency": 493.88, "note_held": 0.3125, "velocity": 96, "channel": 2}, {"time_played": 64.6875, "midi_note": 79, "frequency": 783.99, "note_held": 0.3125, "velocity": 96, "channel": 2}, {"time_played": 65.0, "midi_note": 72, "frequency": 523.25, "note_held": 0.3125, "velocity": 127, "channel": 0}, {"time_played": 65.0, "midi_note": 81, "frequency": 880, "note_held": 0.3125, "velocity": 127, "channel": 0}, {"time_played": 65.0, "midi_note": 72, "frequency": 523.25, "note_held": 0.3125, "velocity": 96, "channel": 2}, {"time_played": 65.0, "midi_note": 81, "frequency": 880, "note_held": 0.3125, "velocity": 96, "channel": 2}, {"time_played": 65.3125, "midi_note": 72, "frequency": 523.25, "note_held": 0.3125, "velocity": 127, "channel": 0}, {"time_played": 65.3125, "midi_note": 81, "frequency": 880, "note_held": 0.3125, "velocity": 127, "channel": 0}, {"time_played": 65.3125, "midi_note": 72, "frequency": 523.25, "note_held": 0.3125, "velocity": 96, "channel": 2}, {"time_played": 65.3125, "midi_note": 81, "frequency": 880, "note_held": 0.3125, "velocity": 96, "channel": 2}, {"time_played": 65.625, "midi_note": 72, "frequency": 523.25, "note_held": 0.3125, "velocity": 127, "channel": 0}, {"time_played": 65.625, "midi_note": 81, "frequency": 880, "note_held": 0.3125, "velocity": 127, "channel": 0}, {"time_played": 65.625, "midi_note": 72, "frequency": 523.25, "note_held": 0.3125, "velocity": 96, "channel": 2}, {"time_played": 65.625, "midi_note": 81, "frequency": 880, "note_held": 0.3125, "velocity": 96, "channel": 2}, {"time_played": 65.9375, "midi_note": 72, "frequency": 523.25, "note_held": 0.3125, "velocity": 127, "channel": 0}, {"time_played": 65.9375, "midi_note": 81, "frequency": 880, "note_held": 0.3125, "velocity": 127, "channel": 0}, {"time_played": 65.9375, "midi_note": 72, "frequency": 523.25, "note_held": 0.3125, "velocity": 96, "channel": 2}, {"time_played": 65.9375, "midi_note": 81, "frequency": 880, "note_held": 0.3125, "velocity": 96, "channel": 2}, {"time_played": 66.25, "midi_note": 72, "frequency": 523.25, "note_held": 0.3125, "velocity": 127, "channel": 0}, {"time_played": 66.25, "midi_note": 81, "frequency": 880, "note_held": 0.3125, "velocity": 127, "channel": 0}, {"time_played": 66.25, "midi_note": 72, "frequency": 523.25, "note_held": 0.3125, "velocity": 96, "channel": 2}, {"time_played": 66.25, "midi_note": 81, "frequency": 880, "note_held": 0.3125, "velocity": 96, "channel": 2}, {"time_played": 66.5625, "midi_note": 72, "frequency": 523.25, "note_held": 0.3125, "velocity": 127, "channel": 0}, {"time_played": 66.5625, "midi_note": 81, "frequency": 880, "note_held": 0.3125, "velocity": 127, "channel": 0}, {"time_played": 66.5625, "midi_note": 72, "frequency": 523.25, "note_held": 0.3125, "velocity": 96, "channel": 2}, {"time_played": 66.5625, "midi_note": 81, "frequency": 880, "note_held": 0.3125, "velocity": 96, "channel": 2}, {"time_played": 66.875, "midi_note": 72, "frequency": 523.25, "note_held": 0.3125, "velocity": 127, "channel": 0}, {"time_played": 66.875, "midi_note": 81, "frequency": 880, "note_held": 0.3125, "velocity": 127, "channel": 0}, {"time_played": 66.875, "midi_note": 72, "frequency": 523.25, "note_held": 0.3125, "velocity": 96, "channel": 2}, {"time_played": 66.875, "midi_note": 81, "frequency": 880, "note_held": 0.3125, "velocity": 96, "channel": 2}, {"time_played": 67.1875, "midi_note": 72, "frequency": 523.25, "note_held": 0.3125, "velocity": 127, "channel": 0}, {"time_played": 67.1875, "midi_note": 81, "frequency": 880, "note_held": 0.3125, "velocity": 127, "channel": 0}, {"time_played": 67.1875, "midi_note": 72, "frequency": 523.25, "note_held": 0.3125, "velocity": 96, "channel": 2}, {"time_played": 67.1875, "midi_note": 81, "frequency": 880, "note_held": 0.3125, "velocity": 96, "channel": 2}, {"time_played": 67.5, "midi_note": 72, "frequency": 523.25, "note_held": 0.3125, "velocity": 127, "channel": 0}, {"time_played": 67.5, "midi_note": 81, "frequency": 880, "note_held": 0.3125, "velocity": 127, "channel": 0}, {"time_played": 67.5, "midi_note": 72, "frequency": 523.25, "note_held": 0.3125, "velocity": 96, "channel": 2}, {"time_played": 67.5, "midi_note": 81, "frequency": 880, "note_held": 0.3125, "velocity": 96, "channel": 2}, {"time_played": 67.8125, "midi_note": 72, "frequency": 523.25, "note_held": 0.3125, "velocity": 127, "channel": 0}, {"time_played": 67.8125, "midi_note": 81, "frequency": 880, "note_held": 0.3125, "velocity": 127, "channel": 0}, {"time_played": 67.8125, "midi_note": 72, "frequency": 523.25, "note_held": 0.3125, "velocity": 96, "channel": 2}, {"time_played": 67.8125, "midi_note": 81, "frequency": 880, "note_held": 0.3125, "velocity": 96, "channel": 2}, {"time_played": 68.125, "midi_note": 72, "frequency": 523.25, "note_held": 0.3125, "velocity": 127, "channel": 0}, {"time_played": 68.125, "midi_note": 81, "frequency": 880, "note_held": 0.3125, "velocity": 127, "channel": 0}, {"time_played": 68.125, "midi_note": 72, "frequency": 523.25, "note_held": 0.3125, "velocity": 96, "channel": 2}, {"time_played": 68.125, "midi_note": 81, "frequency": 880, "note_held": 0.3125, "velocity": 96, "channel": 2}, {"time_played": 68.4375, "midi_note": 71, "frequency": 493.88, "note_held": 0.3125, "velocity": 127, "channel": 0}, {"time_played": 68.4375, "midi_note": 79, "frequency": 783.99, "note_held": 0.3125, "velocity": 127, "channel": 0}, {"time_played": 68.4375, "midi_note": 71, "frequency": 493.88, "note_held": 0.3125, "velocity": 96, "channel": 2}, {"time_played": 68.4375, "midi_note": 79, "frequency": 783.99, "note_held": 0.3125, "velocity": 96, "channel": 2}, {"time_played": 68.75, "midi_note": 71, "frequency": 493.88, "note_held": 0.3125, "velocity": 127, "channel": 0}, {"time_played": 68.75, "midi_note": 79, "frequency": 783.99, "note_held": 0.3125, "velocity": 127, "channel": 0}, {"time_played": 68.75, "midi_note": 71, "frequency": 493.88, "note_held": 0.3125, "velocity": 96, "channel": 2}, {"time_played": 68.75, "midi_note": 79, "frequency": 783.99, "note_held": 0.3125, "velocity": 96, "channel": 2}, {"time_played": 69.0625, "midi_note": 71, "frequency": 493.88, "note_held": 0.3125, "velocity": 127, "channel": 0}, {"time_played": 69.0625, "midi_note": 79, "frequency": 783.99, "note_held": 0.3125, "velocity": 127, "channel": 0}, {"time_played": 69.0625, "midi_note": 71, "frequency": 493.88, "note_held": 0.3125, "velocity": 96, "channel": 2}, {"time_played": 69.0625, "midi_note": 79, "frequency": 783.99, "note_held": 0.3125, "velocity": 96, "channel": 2}, {"time_played": 69.375, "midi_note": 71, "frequency": 493.88, "note_held": 0.3125, "velocity": 127, "channel": 0}, {"time_played": 69.375, "midi_note": 79, "frequency": 783.99, "note_held": 0.3125, "velocity": 127, "channel": 0}, {"time_played": 69.375, "midi_note": 71, "frequency": 493.88, "note_held": 0.3125, "velocity": 96, "channel": 2}, {"time_played": 69.375, "midi_note": 79, "frequency": 783.99, "note_held": 0.3125, "velocity": 96, "channel": 2}, {"time_played": 69.6875, "midi_note": 71, "frequency": 493.88, "note_held": 0.3125, "velocity": 127, "channel": 0}, {"time_played": 69.6875, "midi_note": 79, "frequency": 783.99, "note_held": 0.3125, "velocity": 127, "channel": 0}, {"time_played": 69.6875, "midi_note": 71, "frequency": 493.88, "note_held": 0.3125, "velocity": 96, "channel": 2}, {"time_played": 69.6875, "midi_note": 79, "frequency": 783.99, "note_held": 0.3125, "velocity": 96, "channel": 2}, {"time_played": 70.0, "midi_note": 72, "frequency": 523.25, "note_held": 0.3125, "velocity": 127, "channel": 0}, {"time_played": 70.0, "midi_note": 81, "frequency": 880, "note_held": 0.3125, "velocity": 127, "channel": 0}, {"time_played": 70.0, "midi_note": 72, "frequency": 523.25, "note_held": 0.3125, "velocity": 96, "channel": 2}, {"time_played": 70.0, "midi_note": 81, "frequency": 880, "note_held": 0.3125, "velocity": 96, "channel": 2}, {"time_played": 70.3125, "midi_note": 72, "frequency": 523.25, "note_held": 0.3125, "velocity": 127, "channel": 0}, {"time_played": 70.3125, "midi_note": 81, "frequency": 880, "note_held": 0.3125, "velocity": 127, "channel": 0}, {"time_played": 70.3125, "midi_note": 72, "frequency": 523.25, "note_held": 0.3125, "velocity": 96, "channel": 2}, {"time_played": 70.3125, "midi_note": 81, "frequency": 880, "note_held": 0.3125, "velocity": 96, "channel": 2}, {"time_played": 70.625, "midi_note": 72, "frequency": 523.25, "note_held": 0.3125, "velocity": 127, "channel": 0}, {"time_played": 70.625, "midi_note": 81, "frequency": 880, "note_held": 0.3125, "velocity": 127, "channel": 0}, {"time_played": 70.625, "midi_note": 72, "frequency": 523.25, "note_held": 0.3125, "velocity": 96, "channel": 2}, {"time_played": 70.625, "midi_note": 81, "frequency": 880, "note_held": 0.3125, "velocity": 96, "channel": 2}, {"time_played": 70.9375, "midi_note": 72, "frequency": 523.25, "note_held": 0.3125, "velocity": 127, "channel": 0}, {"time_played": 70.9375, "midi_note": 81, "frequency": 880, "note_held": 0.3125, "velocity": 127, "channel": 0}, {"time_played": 70.9375, "midi_note": 72, "frequency": 523.25, "note_held": 0.3125, "velocity": 96, "channel": 2}, {"time_played": 70.9375, "midi_note": 81, "frequency": 880, "note_held": 0.3125, "velocity": 96, "channel": 2}, {"time_played": 71.25, "midi_note": 72, "frequency": 523.25, "note_held": 0.3125, "velocity": 127, "channel": 0}, {"time_played": 71.25, "midi_note": 81, "frequency": 880, "note_held": 0.3125, "velocity": 127, "channel": 0}, {"time_played": 71.25, "midi_note": 72, "frequency": 523.25, "note_held": 0.3125, "velocity": 96, "channel": 2}, {"time_played": 71.25, "midi_note": 81, "frequency": 880, "note_held": 0.3125, "velocity": 96, "channel": 2}, {"time_played": 71.5625, "midi_note": 72, "frequency": 523.25, "note_held": 0.3125, "velocity": 127, "channel": 0}, {"time_played": 71.5625, "midi_note": 81, "frequency": 880, "note_held": 0.3125, "velocity": 127, "channel": 0}, {"time_played": 71.5625, "midi_note": 72, "frequency": 523.25, "note_held": 0.3125, "velocity": 96, "channel": 2}, {"time_played": 71.5625, "midi_note": 81, "frequency": 880, "note_held": 0.3125, "velocity": 96, "channel": 2}, {"time_played": 71.875, "midi_note": 72, "frequency": 523.25, "note_held": 0.3125, "velocity": 127, "channel": 0}, {"time_played": 71.875, "midi_note": 81, "frequency": 880, "note_held": 0.3125, "velocity": 127, "channel": 0}, {"time_played": 71.875, "midi_note": 72, "frequency": 523.25, "note_held": 0.3125, "velocity": 96, "channel": 2}, {"time_played": 71.875, "midi_note": 81, "frequency": 880, "note_held": 0.3125, "velocity": 96, "channel": 2}, {"time_played": 72.1875, "midi_note": 72, "frequency": 523.25, "note_held": 0.3125, "velocity": 127, "channel": 0}, {"time_played": 72.1875, "midi_note": 81, "frequency": 880, "note_held": 0.3125, "velocity": 127, "channel": 0}, {"time_played": 72.1875, "midi_note": 72, "frequency": 523.25, "note_held": 0.3125, "velocity": 96, "channel": 2}, {"time_played": 72.1875, "midi_note": 81, "frequency": 880, "note_held": 0.3125, "velocity": 96, "channel": 2}, {"time_played": 72.5, "midi_note": 72, "frequency": 523.25, "note_held": 0.3125, "velocity": 127, "channel": 0}, {"time_played": 72.5, "midi_note": 81, "frequency": 880, "note_held": 0.3125, "velocity": 127, "channel": 0}, {"time_played": 72.5, "midi_note": 72, "frequency": 523.25, "note_held": 0.3125, "velocity": 96, "channel": 2}, {"time_played": 72.5, "midi_note": 81, "frequency": 880, "note_held": 0.3125, "velocity": 96, "channel": 2}, {"time_played": 72.8125, "midi_note": 72, "frequency": 523.25, "note_held": 0.3125, "velocity": 127, "channel": 0}, {"time_played": 72.8125, "midi_note": 81, "frequency": 880, "note_held": 0.3125, "velocity": 127, "channel": 0}, {"time_played": 72.8125, "midi_note": 72, "frequency": 523.25, "note_held": 0.3125, "velocity": 96, "channel": 2}, {"time_played": 72.8125, "midi_note": 81, "frequency": 880, "note_held": 0.3125, "velocity": 96, "channel": 2}, {"time_played": 73.125, "midi_note": 72, "frequency": 523.25, "note_held": 0.3125, "velocity": 127, "channel": 0}, {"time_played": 73.125, "midi_note": 81, "frequency": 880, "note_held": 0.3125, "velocity": 127, "channel": 0}, {"time_played": 73.125, "midi_note": 72, "frequency": 523.25, "note_held": 0.3125, "velocity": 96, "channel": 2}, {"time_played": 73.125, "midi_note": 81, "frequency": 880, "note_held": 0.3125, "velocity": 96, "channel": 2}, {"time_played": 73.4375, "midi_note": 71, "frequency": 493.88, "note_held": 0.3125, "velocity": 127, "channel": 0}, {"time_played": 73.4375, "midi_note": 79, "frequency": 783.99, "note_held": 0.3125, "velocity": 127, "channel": 0}, {"time_played": 73.4375, "midi_note": 71, "frequency": 493.88, "note_held": 0.3125, "velocity": 96, "channel": 2}, {"time_played": 73.4375, "midi_note": 79, "frequency": 783.99, "note_held": 0.3125, "velocity": 96, "channel": 2}, {"time_played": 73.75, "midi_note": 71, "frequency": 493.88, "note_held": 0.3125, "velocity": 127, "channel": 0}, {"time_played": 73.75, "midi_note": 79, "frequency": 783.99, "note_held": 0.3125, "velocity": 127, "channel": 0}, {"time_played": 73.75, "midi_note": 71, "frequency": 493.88, "note_held": 0.3125, "velocity": 96, "channel": 2}, {"time_played": 73.75, "midi_note": 79, "frequency": 783.99, "note_held": 0.3125, "velocity": 96, "channel": 2}, {"time_played": 74.0625, "midi_note": 71, "frequency": 493.88, "note_held": 0.3125, "velocity": 127, "channel": 0}, {"time_played": 74.0625, "midi_note": 79, "frequency": 783.99, "note_held": 0.3125, "velocity": 127, "channel": 0}, {"time_played": 74.0625, "midi_note": 71, "frequency": 493.88, "note_held": 0.3125, "velocity": 96, "channel": 2}, {"time_played": 74.0625, "midi_note": 79, "frequency": 783.99, "note_held": 0.3125, "velocity": 96, "channel": 2}, {"time_played": 74.375, "midi_note": 71, "frequency": 493.88, "note_held": 0.3125, "velocity": 127, "channel": 0}, {"time_played": 74.375, "midi_note": 79, "frequency": 783.99, "note_held": 0.3125, "velocity": 127, "channel": 0}, {"time_played": 74.375, "midi_note": 71, "frequency": 493.88, "note_held": 0.3125, "velocity": 96, "channel": 2}, {"time_played": 74.375, "midi_note": 79, "frequency": 783.99, "note_held": 0.3125, "velocity": 96, "channel": 2}, {"time_played": 74.6875, "midi_note": 71, "frequency": 493.88, "note_held": 0.3125, "velocity": 127, "channel": 0}, {"time_played": 74.6875, "midi_note": 79, "frequency": 783.99, "note_held": 0.3125, "velocity": 127, "channel": 0}, {"time_played": 74.6875, "midi_note": 71, "frequency": 493.88, "note_held": 0.3125, "velocity": 96, "channel": 2}, {"time_played": 74.6875, "midi_note": 79, "frequency": 783.99, "note_held": 0.3125, "velocity": 96, "channel": 2}, {"time_played": 75.0, "midi_note": 72, "frequency": 523.25, "note_held": 0.3125, "velocity": 127, "channel": 0}, {"time_played": 75.0, "midi_note": 81, "frequency": 880, "note_held": 0.3125, "velocity": 127, "channel": 0}, {"time_played": 75.0, "midi_note": 72, "frequency": 523.25, "note_held": 0.3125, "velocity": 96, "channel": 2}, {"time_played": 75.0, "midi_note": 81, "frequency": 880, "note_held": 0.3125, "velocity": 96, "channel": 2}, {"time_played": 75.3125, "midi_note": 72, "frequency": 523.25, "note_held": 0.3125, "velocity": 127, "channel": 0}, {"time_played": 75.3125, "midi_note": 81, "frequency": 880, "note_held": 0.3125, "velocity": 127, "channel": 0}, {"time_played": 75.3125, "midi_note": 72, "frequency": 523.25, "note_held": 0.3125, "velocity": 96, "channel": 2}, {"time_played": 75.3125, "midi_note": 81, "frequency": 880, "note_held": 0.3125, "velocity": 96, "channel": 2}, {"time_played": 75.625, "midi_note": 72, "frequency": 523.25, "note_held": 0.3125, "velocity": 127, "channel": 0}, {"time_played": 75.625, "midi_note": 81, "frequency": 880, "note_held": 0.3125, "velocity": 127, "channel": 0}, {"time_played": 75.625, "midi_note": 72, "frequency": 523.25, "note_held": 0.3125, "velocity": 96, "channel": 2}, {"time_played": 75.625, "midi_note": 81, "frequency": 880, "note_held": 0.3125, "velocity": 96, "channel": 2}, {"time_played": 75.9375, "midi_note": 72, "frequency": 523.25, "note_held": 0.3125, "velocity": 127, "channel": 0}, {"time_played": 75.9375, "midi_note": 81, "frequency": 880, "note_held": 0.3125, "velocity": 127, "channel": 0}, {"time_played": 75.9375, "midi_note": 72, "frequency": 523.25, "note_held": 0.3125, "velocity": 96, "channel": 2}, {"time_played": 75.9375, "midi_note": 81, "frequency": 880, "note_held": 0.3125, "velocity": 96, "channel": 2}, {"time_played": 76.25, "midi_note": 72, "frequency": 523.25, "note_held": 0.3125, "velocity": 127, "channel": 0}, {"time_played": 76.25, "midi_note": 81, "frequency": 880, "note_held": 0.3125, "velocity": 127, "channel": 0}, {"time_played": 76.25, "midi_note": 72, "frequency": 523.25, "note_held": 0.3125, "velocity": 96, "channel": 2}, {"time_played": 76.25, "midi_note": 81, "frequency": 880, "note_held": 0.3125, "velocity": 96, "channel": 2}, {"time_played": 76.5625, "midi_note": 72, "frequency": 523.25, "note_held": 0.3125, "velocity": 127, "channel": 0}, {"time_played": 76.5625, "midi_note": 81, "frequency": 880, "note_held": 0.3125, "velocity": 127, "channel": 0}, {"time_played": 76.5625, "midi_note": 72, "frequency": 523.25, "note_held": 0.3125, "velocity": 96, "channel": 2}, {"time_played": 76.5625, "midi_note": 81, "frequency": 880, "note_held": 0.3125, "velocity": 96, "channel": 2}, {"time_played": 76.875, "midi_note": 72, "frequency": 523.25, "note_held": 0.3125, "velocity": 127, "channel": 0}, {"time_played": 76.875, "midi_note": 81, "frequency": 880, "note_held": 0.3125, "velocity": 127, "channel": 0}, {"time_played": 76.875, "midi_note": 72, "frequency": 523.25, "note_held": 0.3125, "velocity": 96, "channel": 2}, {"time_played": 76.875, "midi_note": 81, "frequency": 880, "note_held": 0.3125, "velocity": 96, "channel": 2}, {"time_played": 77.1875, "midi_note": 72, "frequency": 523.25, "note_held": 0.3125, "velocity": 127, "channel": 0}, {"time_played": 77.1875, "midi_note": 81, "frequency": 880, "note_held": 0.3125, "velocity": 127, "channel": 0}, {"time_played": 77.1875, "midi_note": 72, "frequency": 523.25, "note_held": 0.3125, "velocity": 96, "channel": 2}, {"time_played": 77.1875, "midi_note": 81, "frequency": 880, "note_held": 0.3125, "velocity": 96, "channel": 2}, {"time_played": 77.5, "midi_note": 72, "frequency": 523.25, "note_held": 0.3125, "velocity": 127, "channel": 0}, {"time_played": 77.5, "midi_note": 81, "frequency": 880, "note_held": 0.3125, "velocity": 127, "channel": 0}, {"time_played": 77.5, "midi_note": 72, "frequency": 523.25, "note_held": 0.3125, "velocity": 96, "channel": 2}, {"time_played": 77.5, "midi_note": 81, "frequency": 880, "note_held": 0.3125, "velocity": 96, "channel": 2}, {"time_played": 77.8125, "midi_note": 72, "frequency": 523.25, "note_held": 0.3125, "velocity": 127, "channel": 0}, {"time_played": 77.8125, "midi_note": 81, "frequency": 880, "note_held": 0.3125, "velocity": 127, "channel": 0}, {"time_played": 77.8125, "midi_note": 72, "frequency": 523.25, "note_held": 0.3125, "velocity": 96, "channel": 2}, {"time_played": 77.8125, "midi_note": 81, "frequency": 880, "note_held": 0.3125, "velocity": 96, "channel": 2}, {"time_played": 78.125, "midi_note": 72, "frequency": 523.25, "note_held": 0.3125, "velocity": 127, "channel": 0}, {"time_played": 78.125, "midi_note": 81, "frequency": 880, "note_held": 0.3125, "velocity": 127, "channel": 0}, {"time_played": 78.125, "midi_note": 72, "frequency": 523.25, "note_held": 0.3125, "velocity": 96, "channel": 2}, {"time_played": 78.125, "midi_note": 81, "frequency": 880, "note_held": 0.3125, "velocity": 96, "channel": 2}, {"time_played": 78.4375, "midi_note": 71, "frequency": 493.88, "note_held": 0.3125, "velocity": 127, "channel": 0}, {"time_played": 78.4375, "midi_note": 79, "frequency": 783.99, "note_held": 0.3125, "velocity": 127, "channel": 0}, {"time_played": 78.4375, "midi_note": 71, "frequency": 493.88, "note_held": 0.3125, "velocity": 96, "channel": 2}, {"time_played": 78.4375, "midi_note": 79, "frequency": 783.99, "note_held": 0.3125, "velocity": 96, "channel": 2}, {"time_played": 78.75, "midi_note": 71, "frequency": 493.88, "note_held": 0.3125, "velocity": 127, "channel": 0}, {"time_played": 78.75, "midi_note": 79, "frequency": 783.99, "note_held": 0.3125, "velocity": 127, "channel": 0}, {"time_played": 78.75, "midi_note": 71, "frequency": 493.88, "note_held": 0.3125, "velocity": 96, "channel": 2}, {"time_played": 78.75, "midi_note": 79, "frequency": 783.99, "note_held": 0.3125, "velocity": 96, "channel": 2}, {"time_played": 79.0625, "midi_note": 71, "frequency": 493.88, "note_held": 0.3125, "velocity": 127, "channel": 0}, {"time_played": 79.0625, "midi_note": 79, "frequency": 783.99, "note_held": 0.3125, "velocity": 127, "channel": 0}, {"time_played": 79.0625, "midi_note": 71, "frequency": 493.88, "note_held": 0.3125, "velocity": 96, "channel": 2}, {"time_played": 79.0625, "midi_note": 79, "frequency": 783.99, "note_held": 0.3125, "velocity": 96, "channel": 2}, {"time_played": 79.375, "midi_note": 71, "frequency": 493.88, "note_held": 0.3125, "velocity": 127, "channel": 0}, {"time_played": 79.375, "midi_note": 79, "frequency": 783.99, "note_held": 0.3125, "velocity": 127, "channel": 0}, {"time_played": 79.375, "midi_note": 71, "frequency": 493.88, "note_held": 0.3125, "velocity": 96, "channel": 2}, {"time_played": 79.375, "midi_note": 79, "frequency": 783.99, "note_held": 0.3125, "velocity": 96, "channel": 2}, {"time_played": 79.6875, "midi_note": 71, "frequency": 493.88, "note_held": 0.3125, "velocity": 127, "channel": 0}, {"time_played": 79.6875, "midi_note": 79, "frequency": 783.99, "note_held": 0.3125, "velocity": 127, "channel": 0}, {"time_played": 79.6875, "midi_note": 71, "frequency": 493.88, "note_held": 0.3125, "velocity": 96, "channel": 2}, {"time_played": 79.6875, "midi_note": 79, "frequency": 783.99, "note_held": 0.3125, "velocity": 96, "channel": 2}, {"time_played": 80.0, "midi_note": 72, "frequency": 523.25, "note_held": 0.3125, "velocity": 127, "channel": 0}, {"time_played": 80.0, "midi_note": 81, "frequency": 880, "note_held": 0.3125, "velocity": 127, "channel": 0}, {"time_played": 80.0, "midi_note": 72, "frequency": 523.25, "note_held": 0.3125, "velocity": 96, "channel": 2}, {"time_played": 80.0, "midi_note": 81, "frequency": 880, "note_held": 0.3125, "velocity": 96, "channel": 2}, {"time_played": 80.3125, "midi_note": 72, "frequency": 523.25, "note_held": 0.3125, "velocity": 127, "channel": 0}, {"time_played": 80.3125, "midi_note": 81, "frequency": 880, "note_held": 0.3125, "velocity": 127, "channel": 0}, {"time_played": 80.3125, "midi_note": 72, "frequency": 523.25, "note_held": 0.3125, "velocity": 96, "channel": 2}, {"time_played": 80.3125, "midi_note": 81, "frequency": 880, "note_held": 0.3125, "velocity": 96, "channel": 2}, {"time_played": 80.625, "midi_note": 72, "frequency": 523.25, "note_held": 0.3125, "velocity": 127, "channel": 0}, {"time_played": 80.625, "midi_note": 81, "frequency": 880, "note_held": 0.3125, "velocity": 127, "channel": 0}, {"time_played": 80.625, "midi_note": 72, "frequency": 523.25, "note_held": 0.3125, "velocity": 96, "channel": 2}, {"time_played": 80.625, "midi_note": 81, "frequency": 880, "note_held": 0.3125, "velocity": 96, "channel": 2}, {"time_played": 80.9375, "midi_note": 72, "frequency": 523.25, "note_held": 0.3125, "velocity": 127, "channel": 0}, {"time_played": 80.9375, "midi_note": 81, "frequency": 880, "note_held": 0.3125, "velocity": 127, "channel": 0}, {"time_played": 80.9375, "midi_note": 72, "frequency": 523.25, "note_held": 0.3125, "velocity": 96, "channel": 2}, {"time_played": 80.9375, "midi_note": 81, "frequency": 880, "note_held": 0.3125, "velocity": 96, "channel": 2}, {"time_played": 81.25, "midi_note": 72, "frequency": 523.25, "note_held": 0.3125, "velocity": 127, "channel": 0}, {"time_played": 81.25, "midi_note": 81, "frequency": 880, "note_held": 0.3125, "velocity": 127, "channel": 0}, {"time_played": 81.25, "midi_note": 72, "frequency": 523.25, "note_held": 0.3125, "velocity": 96, "channel": 2}, {"time_played": 81.25, "midi_note": 81, "frequency": 880, "note_held": 0.3125, "velocity": 96, "channel": 2}, {"time_played": 81.5625, "midi_note": 72, "frequency": 523.25, "note_held": 0.3125, "velocity": 127, "channel": 0}, {"time_played": 81.5625, "midi_note": 81, "frequency": 880, "note_held": 0.3125, "velocity": 127, "channel": 0}, {"time_played": 81.5625, "midi_note": 72, "frequency": 523.25, "note_held": 0.3125, "velocity": 96, "channel": 2}, {"time_played": 81.5625, "midi_note": 81, "frequency": 880, "note_held": 0.3125, "velocity": 96, "channel": 2}, {"time_played": 81.875, "midi_note": 72, "frequency": 523.25, "note_held": 0.3125, "velocity": 127, "channel": 0}, {"time_played": 81.875, "midi_note": 81, "frequency": 880, "note_held": 0.3125, "velocity": 127, "channel": 0}, {"time_played": 81.875, "midi_note": 72, "frequency": 523.25, "note_held": 0.3125, "velocity": 96, "channel": 2}, {"time_played": 81.875, "midi_note": 81, "frequency": 880, "note_held": 0.3125, "velocity": 96, "channel": 2}, {"time_played": 82.1875, "midi_note": 72, "frequency": 523.25, "note_held": 0.3125, "velocity": 127, "channel": 0}, {"time_played": 82.1875, "midi_note": 81, "frequency": 880, "note_held": 0.3125, "velocity": 127, "channel": 0}, {"time_played": 82.1875, "midi_note": 72, "frequency": 523.25, "note_held": 0.3125, "velocity": 96, "channel": 2}, {"time_played": 82.1875, "midi_note": 81, "frequency": 880, "note_held": 0.3125, "velocity": 96, "channel": 2}, {"time_played": 82.5, "midi_note": 72, "frequency": 523.25, "note_held": 0.3125, "velocity": 127, "channel": 0}, {"time_played": 82.5, "midi_note": 81, "frequency": 880, "note_held": 0.3125, "velocity": 127, "channel": 0}, {"time_played": 82.5, "midi_note": 72, "frequency": 523.25, "note_held": 0.3125, "velocity": 96, "channel": 2}, {"time_played": 82.5, "midi_note": 81, "frequency": 880, "note_held": 0.3125, "velocity": 96, "channel": 2}, {"time_played": 82.8125, "midi_note": 72, "frequency": 523.25, "note_held": 0.3125, "velocity": 127, "channel": 0}, {"time_played": 82.8125, "midi_note": 81, "frequency": 880, "note_held": 0.3125, "velocity": 127, "channel": 0}, {"time_played": 82.8125, "midi_note": 72, "frequency": 523.25, "note_held": 0.3125, "velocity": 96, "channel": 2}, {"time_played": 82.8125, "midi_note": 81, "frequency": 880, "note_held": 0.3125, "velocity": 96, "channel": 2}, {"time_played": 83.125, "midi_note": 72, "frequency": 523.25, "note_held": 0.3125, "velocity": 127, "channel": 0}, {"time_played": 83.125, "midi_note": 81, "frequency": 880, "note_held": 0.3125, "velocity": 127, "channel": 0}, {"time_played": 83.125, "midi_note": 72, "frequency": 523.25, "note_held": 0.3125, "velocity": 96, "channel": 2}, {"time_played": 83.125, "midi_note": 81, "frequency": 880, "note_held": 0.3125, "velocity": 96, "channel": 2}, {"time_played": 83.4375, "midi_note": 71, "frequency": 493.88, "note_held": 0.3125, "velocity": 127, "channel": 0}, {"time_played": 83.4375, "midi_note": 79, "frequency": 783.99, "note_held": 0.3125, "velocity": 127, "channel": 0}, {"time_played": 83.4375, "midi_note": 71, "frequency": 493.88, "note_held": 0.3125, "velocity": 96, "channel": 2}, {"time_played": 83.4375, "midi_note": 79, "frequency": 783.99, "note_held": 0.3125, "velocity": 96, "channel": 2}, {"time_played": 83.75, "midi_note": 71, "frequency": 493.88, "note_held": 0.3125, "velocity": 127, "channel": 0}, {"time_played": 83.75, "midi_note": 79, "frequency": 783.99, "note_held": 0.3125, "velocity": 127, "channel": 0}, {"time_played": 83.75, "midi_note": 71, "frequency": 493.88, "note_held": 0.3125, "velocity": 96, "channel": 2}, {"time_played": 83.75, "midi_note": 79, "frequency": 783.99, "note_held": 0.3125, "velocity": 96, "channel": 2}, {"time_played": 84.0625, "midi_note": 71, "frequency": 493.88, "note_held": 0.3125, "velocity": 127, "channel": 0}, {"time_played": 84.0625, "midi_note": 79, "frequency": 783.99, "note_held": 0.3125, "velocity": 127, "channel": 0}, {"time_played": 84.0625, "midi_note": 71, "frequency": 493.88, "note_held": 0.3125, "velocity": 96, "channel": 2}, {"time_played": 84.0625, "midi_note": 79, "frequency": 783.99, "note_held": 0.3125, "velocity": 96, "channel": 2}, {"time_played": 84.375, "midi_note": 71, "frequency": 493.88, "note_held": 0.3125, "velocity": 127, "channel": 0}, {"time_played": 84.375, "midi_note": 79, "frequency": 783.99, "note_held": 0.3125, "velocity": 127, "channel": 0}, {"time_played": 84.375, "midi_note": 71, "frequency": 493.88, "note_held": 0.3125, "velocity": 96, "channel": 2}, {"time_played": 84.375, "midi_note": 79, "frequency": 783.99, "note_held": 0.3125, "velocity": 96, "channel": 2}, {"time_played": 84.6875, "midi_note": 71, "frequency": 493.88, "note_held": 0.3125, "velocity": 127, "channel": 0}, {"time_played": 84.6875, "midi_note": 79, "frequency": 783.99, "note_held": 0.3125, "velocity": 127, "channel": 0}, {"time_played": 84.6875, "midi_note": 71, "frequency": 493.88, "note_held": 0.3125, "velocity": 96, "channel": 2}, {"time_played": 84.6875, "midi_note": 79, "frequency": 783.99, "note_held": 0.3125, "velocity": 96, "channel": 2}, {"time_played": 85.0, "midi_note": 72, "frequency": 523.25, "note_held": 0.3125, "velocity": 127, "channel": 0}, {"time_played": 85.0, "midi_note": 81, "frequency": 880, "note_held": 0.3125, "velocity": 127, "channel": 0}, {"time_played": 85.0, "midi_note": 72, "frequency": 523.25, "note_held": 0.3125, "velocity": 96, "channel": 2}, {"time_played": 85.0, "midi_note": 81, "frequency": 880, "note_held": 0.3125, "velocity": 96, "channel": 2}, {"time_played": 85.3125, "midi_note": 72, "frequency": 523.25, "note_held": 0.3125, "velocity": 127, "channel": 0}, {"time_played": 85.3125, "midi_note": 81, "frequency": 880, "note_held": 0.3125, "velocity": 127, "channel": 0}, {"time_played": 85.3125, "midi_note": 72, "frequency": 523.25, "note_held": 0.3125, "velocity": 96, "channel": 2}, {"time_played": 85.3125, "midi_note": 81, "frequency": 880, "note_held": 0.3125, "velocity": 96, "channel": 2}, {"time_played": 85.625, "midi_note": 72, "frequency": 523.25, "note_held": 0.3125, "velocity": 127, "channel": 0}, {"time_played": 85.625, "midi_note": 81, "frequency": 880, "note_held": 0.3125, "velocity": 127, "channel": 0}, {"time_played": 85.625, "midi_note": 72, "frequency": 523.25, "note_held": 0.3125, "velocity": 96, "channel": 2}, {"time_played": 85.625, "midi_note": 81, "frequency": 880, "note_held": 0.3125, "velocity": 96, "channel": 2}, {"time_played": 85.9375, "midi_note": 72, "frequency": 523.25, "note_held": 0.3125, "velocity": 127, "channel": 0}, {"time_played": 85.9375, "midi_note": 81, "frequency": 880, "note_held": 0.3125, "velocity": 127, "channel": 0}, {"time_played": 85.9375, "midi_note": 72, "frequency": 523.25, "note_held": 0.3125, "velocity": 96, "channel": 2}, {"time_played": 85.9375, "midi_note": 81, "frequency": 880, "note_held": 0.3125, "velocity": 96, "channel": 2}, {"time_played": 86.25, "midi_note": 72, "frequency": 523.25, "note_held": 0.3125, "velocity": 127, "channel": 0}, {"time_played": 86.25, "midi_note": 81, "frequency": 880, "note_held": 0.3125, "velocity": 127, "channel": 0}, {"time_played": 86.25, "midi_note": 72, "frequency": 523.25, "note_held": 0.3125, "velocity": 96, "channel": 2}, {"time_played": 86.25, "midi_note": 81, "frequency": 880, "note_held": 0.3125, "velocity": 96, "channel": 2}, {"time_played": 86.5625, "midi_note": 72, "frequency": 523.25, "note_held": 0.3125, "velocity": 127, "channel": 0}, {"time_played": 86.5625, "midi_note": 81, "frequency": 880, "note_held": 0.3125, "velocity": 127, "channel": 0}, {"time_played": 86.5625, "midi_note": 72, "frequency": 523.25, "note_held": 0.3125, "velocity": 96, "channel": 2}, {"time_played": 86.5625, "midi_note": 81, "frequency": 880, "note_held": 0.3125, "velocity": 96, "channel": 2}, {"time_played": 86.875, "midi_note": 72, "frequency": 523.25, "note_held": 0.3125, "velocity": 127, "channel": 0}, {"time_played": 86.875, "midi_note": 81, "frequency": 880, "note_held": 0.3125, "velocity": 127, "channel": 0}, {"time_played": 86.875, "midi_note": 72, "frequency": 523.25, "note_held": 0.3125, "velocity": 96, "channel": 2}, {"time_played": 86.875, "midi_note": 81, "frequency": 880, "note_held": 0.3125, "velocity": 96, "channel": 2}, {"time_played": 87.1875, "midi_note": 72, "frequency": 523.25, "note_held": 0.3125, "velocity": 127, "channel": 0}, {"time_played": 87.1875, "midi_note": 81, "frequency": 880, "note_held": 0.3125, "velocity": 127, "channel": 0}, {"time_played": 87.1875, "midi_note": 72, "frequency": 523.25, "note_held": 0.3125, "velocity": 96, "channel": 2}, {"time_played": 87.1875, "midi_note": 81, "frequency": 880, "note_held": 0.3125, "velocity": 96, "channel": 2}, {"time_played": 87.5, "midi_note": 72, "frequency": 523.25, "note_held": 0.3125, "velocity": 127, "channel": 0}, {"time_played": 87.5, "midi_note": 81, "frequency": 880, "note_held": 0.3125, "velocity": 127, "channel": 0}, {"time_played": 87.5, "midi_note": 72, "frequency": 523.25, "note_held": 0.3125, "velocity": 96, "channel": 2}, {"time_played": 87.5, "midi_note": 81, "frequency": 880, "note_held": 0.3125, "velocity": 96, "channel": 2}, {"time_played": 87.8125, "midi_note": 72, "frequency": 523.25, "note_held": 0.3125, "velocity": 127, "channel": 0}, {"time_played": 87.8125, "midi_note": 81, "frequency": 880, "note_held": 0.3125, "velocity": 127, "channel": 0}, {"time_played": 87.8125, "midi_note": 72, "frequency": 523.25, "note_held": 0.3125, "velocity": 96, "channel": 2}, {"time_played": 87.8125, "midi_note": 81, "frequency": 880, "note_held": 0.3125, "velocity": 96, "channel": 2}, {"time_played": 88.125, "midi_note": 72, "frequency": 523.25, "note_held": 0.3125, "velocity": 127, "channel": 0}, {"time_played": 88.125, "midi_note": 81, "frequency": 880, "note_held": 0.3125, "velocity": 127, "channel": 0}, {"time_played": 88.125, "midi_note": 72, "frequency": 523.25, "note_held": 0.3125, "velocity": 96, "channel": 2}, {"time_played": 88.125, "midi_note": 81, "frequency": 880, "note_held": 0.3125, "velocity": 96, "channel": 2}, {"time_played": 88.4375, "midi_note": 71, "frequency": 493.88, "note_held": 0.3125, "velocity": 127, "channel": 0}, {"time_played": 88.4375, "midi_note": 79, "frequency": 783.99, "note_held": 0.3125, "velocity": 127, "channel": 0}, {"time_played": 88.4375, "midi_note": 71, "frequency": 493.88, "note_held": 0.3125, "velocity": 96, "channel": 2}, {"time_played": 88.4375, "midi_note": 79, "frequency": 783.99, "note_held": 0.3125, "velocity": 96, "channel": 2}, {"time_played": 88.75, "midi_note": 71, "frequency": 493.88, "note_held": 0.3125, "velocity": 127, "channel": 0}, {"time_played": 88.75, "midi_note": 79, "frequency": 783.99, "note_held": 0.3125, "velocity": 127, "channel": 0}, {"time_played": 88.75, "midi_note": 71, "frequency": 493.88, "note_held": 0.3125, "velocity": 96, "channel": 2}, {"time_played": 88.75, "midi_note": 79, "frequency": 783.99, "note_held": 0.3125, "velocity": 96, "channel": 2}, {"time_played": 89.0625, "midi_note": 71, "frequency": 493.88, "note_held": 0.3125, "velocity": 127, "channel": 0}, {"time_played": 89.0625, "midi_note": 79, "frequency": 783.99, "note_held": 0.3125, "velocity": 127, "channel": 0}, {"time_played": 89.0625, "midi_note": 71, "frequency": 493.88, "note_held": 0.3125, "velocity": 96, "channel": 2}, {"time_played": 89.0625, "midi_note": 79, "frequency": 783.99, "note_held": 0.3125, "velocity": 96, "channel": 2}, {"time_played": 89.375, "midi_note": 71, "frequency": 493.88, "note_held": 0.3125, "velocity": 127, "channel": 0}, {"time_played": 89.375, "midi_note": 79, "frequency": 783.99, "note_held": 0.3125, "velocity": 127, "channel": 0}, {"time_played": 89.375, "midi_note": 71, "frequency": 493.88, "note_held": 0.3125, "velocity": 96, "channel": 2}, {"time_played": 89.375, "midi_note": 79, "frequency": 783.99, "note_held": 0.3125, "velocity": 96, "channel": 2}, {"time_played": 89.6875, "midi_note": 79, "frequency": 783.99, "note_held": 2.5, "velocity": 127, "channel": 0}, {"time_played": 89.6875, "midi_note": 71, "frequency": 493.88, "note_held": 2.5, "velocity": 127, "channel": 0}, {"time_played": 89.6875, "midi_note": 79, "frequency": 783.99, "note_held": 2.5, "velocity": 96, "channel": 2}, {"time_played": 89.6875, "midi_note": 71, "frequency": 493.88, "note_held": 2.5, "velocity": 96, "channel": 2}]